%TF.GenerationSoftware,KiCad,Pcbnew,5.1.9*%
%TF.CreationDate,2021-01-06T03:20:38-06:00*%
%TF.ProjectId,halfboard,68616c66-626f-4617-9264-2e6b69636164,rev?*%
%TF.SameCoordinates,Original*%
%TF.FileFunction,Copper,L4,Bot*%
%TF.FilePolarity,Positive*%
%FSLAX46Y46*%
G04 Gerber Fmt 4.6, Leading zero omitted, Abs format (unit mm)*
G04 Created by KiCad (PCBNEW 5.1.9) date 2021-01-06 03:20:38*
%MOMM*%
%LPD*%
G01*
G04 APERTURE LIST*
%TA.AperFunction,SMDPad,CuDef*%
%ADD10R,1.000000X0.800000*%
%TD*%
%TA.AperFunction,SMDPad,CuDef*%
%ADD11R,0.700000X1.500000*%
%TD*%
%TA.AperFunction,SMDPad,CuDef*%
%ADD12R,0.900000X1.700000*%
%TD*%
%TA.AperFunction,ComponentPad*%
%ADD13O,1.000000X1.000000*%
%TD*%
%TA.AperFunction,ComponentPad*%
%ADD14R,1.000000X1.000000*%
%TD*%
%TA.AperFunction,ComponentPad*%
%ADD15C,2.000000*%
%TD*%
%TA.AperFunction,ComponentPad*%
%ADD16R,1.600000X1.600000*%
%TD*%
%TA.AperFunction,ComponentPad*%
%ADD17C,1.600000*%
%TD*%
%TA.AperFunction,SMDPad,CuDef*%
%ADD18R,2.900000X0.500000*%
%TD*%
%TA.AperFunction,SMDPad,CuDef*%
%ADD19R,1.600000X1.200000*%
%TD*%
%TA.AperFunction,ComponentPad*%
%ADD20C,1.752600*%
%TD*%
%TA.AperFunction,ComponentPad*%
%ADD21R,1.752600X1.752600*%
%TD*%
%TA.AperFunction,ViaPad*%
%ADD22C,0.800000*%
%TD*%
%TA.AperFunction,Conductor*%
%ADD23C,0.250000*%
%TD*%
G04 APERTURE END LIST*
D10*
%TO.P,REF\u002A\u002A,*%
%TO.N,*%
X52230000Y-49040000D03*
X59530000Y-49040000D03*
X59530000Y-46830000D03*
X52230000Y-46830000D03*
D11*
%TO.P,REF\u002A\u002A,3*%
%TO.N,BAT_GND*%
X58130000Y-49690000D03*
%TO.P,REF\u002A\u002A,2*%
%TO.N,BAT_SW*%
X56630000Y-49690000D03*
%TO.P,REF\u002A\u002A,1*%
%TO.N,N/C*%
X53630000Y-49690000D03*
%TD*%
D12*
%TO.P,REF\u002A\u002A,2*%
%TO.N,RESET_GND*%
X83390000Y-46990000D03*
%TO.P,REF\u002A\u002A,1*%
%TO.N,RESET*%
X86790000Y-46990000D03*
%TD*%
D13*
%TO.P,BAT,2*%
%TO.N,BAT_SW*%
X71120000Y-49530000D03*
D14*
%TO.P,BAT,1*%
%TO.N,BAT0*%
X72390000Y-49530000D03*
%TD*%
D15*
%TO.P, ,2*%
%TO.N,col5_row0*%
X142732303Y-66059730D03*
%TO.P, ,1*%
%TO.N,col5*%
X147732303Y-68159730D03*
%TO.P, ,2*%
%TO.N,col5_row0*%
X152732303Y-66059730D03*
%TD*%
D16*
%TO.P,D0,1*%
%TO.N,row0*%
X151632303Y-53340000D03*
D17*
%TO.P,D0,2*%
%TO.N,col5_row0*%
X143832303Y-53340000D03*
D18*
%TO.P,D0,1*%
%TO.N,N/C*%
X150232303Y-53340000D03*
D19*
X149132303Y-53340000D03*
%TO.P,D0,2*%
X146332303Y-53340000D03*
D18*
X145232303Y-53340000D03*
%TD*%
D15*
%TO.P, ,2*%
%TO.N,col5_row1*%
X142732303Y-85109730D03*
%TO.P, ,1*%
%TO.N,col5*%
X147732303Y-87209730D03*
%TO.P, ,2*%
%TO.N,col5_row1*%
X152732303Y-85109730D03*
%TD*%
D16*
%TO.P,D0,1*%
%TO.N,row1*%
X151632303Y-72390000D03*
D17*
%TO.P,D0,2*%
%TO.N,col5_row1*%
X143832303Y-72390000D03*
D18*
%TO.P,D0,1*%
%TO.N,N/C*%
X150232303Y-72390000D03*
D19*
X149132303Y-72390000D03*
%TO.P,D0,2*%
X146332303Y-72390000D03*
D18*
X145232303Y-72390000D03*
%TD*%
D15*
%TO.P, ,2*%
%TO.N,col5_row2*%
X142732303Y-104159730D03*
%TO.P, ,1*%
%TO.N,col5*%
X147732303Y-106259730D03*
%TO.P, ,2*%
%TO.N,col5_row2*%
X152732303Y-104159730D03*
%TD*%
D16*
%TO.P,D0,1*%
%TO.N,row2*%
X151632303Y-91440000D03*
D17*
%TO.P,D0,2*%
%TO.N,col5_row2*%
X143832303Y-91440000D03*
D18*
%TO.P,D0,1*%
%TO.N,N/C*%
X150232303Y-91440000D03*
D19*
X149132303Y-91440000D03*
%TO.P,D0,2*%
X146332303Y-91440000D03*
D18*
X145232303Y-91440000D03*
%TD*%
D15*
%TO.P, ,2*%
%TO.N,col5_row3*%
X142732303Y-124733730D03*
%TO.P, ,1*%
%TO.N,col5*%
X147732303Y-126833730D03*
%TO.P, ,2*%
%TO.N,col5_row3*%
X152732303Y-124733730D03*
%TD*%
D16*
%TO.P,D0,1*%
%TO.N,row3*%
X151632303Y-111760000D03*
D17*
%TO.P,D0,2*%
%TO.N,col5_row3*%
X143832303Y-111760000D03*
D18*
%TO.P,D0,1*%
%TO.N,N/C*%
X150232303Y-111760000D03*
D19*
X149132303Y-111760000D03*
%TO.P,D0,2*%
X146332303Y-111760000D03*
D18*
X145232303Y-111760000D03*
%TD*%
D15*
%TO.P, ,2*%
%TO.N,col4_row3*%
X123682303Y-124733730D03*
%TO.P, ,1*%
%TO.N,col4*%
X128682303Y-126833730D03*
%TO.P, ,2*%
%TO.N,col4_row3*%
X133682303Y-124733730D03*
%TD*%
D16*
%TO.P,D0,1*%
%TO.N,row3*%
X132582303Y-111760000D03*
D17*
%TO.P,D0,2*%
%TO.N,col4_row3*%
X124782303Y-111760000D03*
D18*
%TO.P,D0,1*%
%TO.N,N/C*%
X131182303Y-111760000D03*
D19*
X130082303Y-111760000D03*
%TO.P,D0,2*%
X127282303Y-111760000D03*
D18*
X126182303Y-111760000D03*
%TD*%
D15*
%TO.P, ,2*%
%TO.N,col3_row3*%
X104632303Y-124733730D03*
%TO.P, ,1*%
%TO.N,col3*%
X109632303Y-126833730D03*
%TO.P, ,2*%
%TO.N,col3_row3*%
X114632303Y-124733730D03*
%TD*%
D16*
%TO.P,D0,1*%
%TO.N,row3*%
X113532303Y-111760000D03*
D17*
%TO.P,D0,2*%
%TO.N,col3_row3*%
X105732303Y-111760000D03*
D18*
%TO.P,D0,1*%
%TO.N,N/C*%
X112132303Y-111760000D03*
D19*
X111032303Y-111760000D03*
%TO.P,D0,2*%
X108232303Y-111760000D03*
D18*
X107132303Y-111760000D03*
%TD*%
D15*
%TO.P, ,2*%
%TO.N,col2_row3*%
X85582303Y-124733730D03*
%TO.P, ,1*%
%TO.N,col2*%
X90582303Y-126833730D03*
%TO.P, ,2*%
%TO.N,col2_row3*%
X95582303Y-124733730D03*
%TD*%
D16*
%TO.P,D0,1*%
%TO.N,row3*%
X94482303Y-111760000D03*
D17*
%TO.P,D0,2*%
%TO.N,col2_row3*%
X86682303Y-111760000D03*
D18*
%TO.P,D0,1*%
%TO.N,N/C*%
X93082303Y-111760000D03*
D19*
X91982303Y-111760000D03*
%TO.P,D0,2*%
X89182303Y-111760000D03*
D18*
X88082303Y-111760000D03*
%TD*%
D15*
%TO.P, ,2*%
%TO.N,col4_row2*%
X123682303Y-101619730D03*
%TO.P, ,1*%
%TO.N,col4*%
X128682303Y-103719730D03*
%TO.P, ,2*%
%TO.N,col4_row2*%
X133682303Y-101619730D03*
%TD*%
D16*
%TO.P,D0,1*%
%TO.N,row2*%
X132582303Y-88900000D03*
D17*
%TO.P,D0,2*%
%TO.N,col4_row2*%
X124782303Y-88900000D03*
D18*
%TO.P,D0,1*%
%TO.N,N/C*%
X131182303Y-88900000D03*
D19*
X130082303Y-88900000D03*
%TO.P,D0,2*%
X127282303Y-88900000D03*
D18*
X126182303Y-88900000D03*
%TD*%
D15*
%TO.P, ,2*%
%TO.N,col4_row1*%
X123682303Y-82569730D03*
%TO.P, ,1*%
%TO.N,col4*%
X128682303Y-84669730D03*
%TO.P, ,2*%
%TO.N,col4_row1*%
X133682303Y-82569730D03*
%TD*%
D16*
%TO.P,D0,1*%
%TO.N,row1*%
X132582303Y-69850000D03*
D17*
%TO.P,D0,2*%
%TO.N,col4_row1*%
X124782303Y-69850000D03*
D18*
%TO.P,D0,1*%
%TO.N,N/C*%
X131182303Y-69850000D03*
D19*
X130082303Y-69850000D03*
%TO.P,D0,2*%
X127282303Y-69850000D03*
D18*
X126182303Y-69850000D03*
%TD*%
D15*
%TO.P, ,2*%
%TO.N,col4_row0*%
X123682303Y-63519730D03*
%TO.P, ,1*%
%TO.N,col4*%
X128682303Y-65619730D03*
%TO.P, ,2*%
%TO.N,col4_row0*%
X133682303Y-63519730D03*
%TD*%
D16*
%TO.P,D0,1*%
%TO.N,row0*%
X132582303Y-50800000D03*
D17*
%TO.P,D0,2*%
%TO.N,col4_row0*%
X124782303Y-50800000D03*
D18*
%TO.P,D0,1*%
%TO.N,N/C*%
X131182303Y-50800000D03*
D19*
X130082303Y-50800000D03*
%TO.P,D0,2*%
X127282303Y-50800000D03*
D18*
X126182303Y-50800000D03*
%TD*%
D15*
%TO.P, ,2*%
%TO.N,col3_row0*%
X104632303Y-62249730D03*
%TO.P, ,1*%
%TO.N,col3*%
X109632303Y-64349730D03*
%TO.P, ,2*%
%TO.N,col3_row0*%
X114632303Y-62249730D03*
%TD*%
D16*
%TO.P,D0,1*%
%TO.N,row0*%
X113532303Y-49530000D03*
D17*
%TO.P,D0,2*%
%TO.N,col3_row0*%
X105732303Y-49530000D03*
D18*
%TO.P,D0,1*%
%TO.N,N/C*%
X112132303Y-49530000D03*
D19*
X111032303Y-49530000D03*
%TO.P,D0,2*%
X108232303Y-49530000D03*
D18*
X107132303Y-49530000D03*
%TD*%
D15*
%TO.P, ,2*%
%TO.N,col3_row1*%
X104632303Y-81299730D03*
%TO.P, ,1*%
%TO.N,col3*%
X109632303Y-83399730D03*
%TO.P, ,2*%
%TO.N,col3_row1*%
X114632303Y-81299730D03*
%TD*%
D16*
%TO.P,D0,1*%
%TO.N,row1*%
X113532303Y-68580000D03*
D17*
%TO.P,D0,2*%
%TO.N,col3_row1*%
X105732303Y-68580000D03*
D18*
%TO.P,D0,1*%
%TO.N,N/C*%
X112132303Y-68580000D03*
D19*
X111032303Y-68580000D03*
%TO.P,D0,2*%
X108232303Y-68580000D03*
D18*
X107132303Y-68580000D03*
%TD*%
D15*
%TO.P, ,2*%
%TO.N,col3_row2*%
X104632303Y-100349730D03*
%TO.P, ,1*%
%TO.N,col3*%
X109632303Y-102449730D03*
%TO.P, ,2*%
%TO.N,col3_row2*%
X114632303Y-100349730D03*
%TD*%
D16*
%TO.P,D0,1*%
%TO.N,row2*%
X113532303Y-87630000D03*
D17*
%TO.P,D0,2*%
%TO.N,col3_row2*%
X105732303Y-87630000D03*
D18*
%TO.P,D0,1*%
%TO.N,N/C*%
X112132303Y-87630000D03*
D19*
X111032303Y-87630000D03*
%TO.P,D0,2*%
X108232303Y-87630000D03*
D18*
X107132303Y-87630000D03*
%TD*%
D15*
%TO.P, ,2*%
%TO.N,col2_row2*%
X85582303Y-101873730D03*
%TO.P, ,1*%
%TO.N,col2*%
X90582303Y-103973730D03*
%TO.P, ,2*%
%TO.N,col2_row2*%
X95582303Y-101873730D03*
%TD*%
D16*
%TO.P,D0,1*%
%TO.N,row2*%
X94482303Y-88900000D03*
D17*
%TO.P,D0,2*%
%TO.N,col2_row2*%
X86682303Y-88900000D03*
D18*
%TO.P,D0,1*%
%TO.N,N/C*%
X93082303Y-88900000D03*
D19*
X91982303Y-88900000D03*
%TO.P,D0,2*%
X89182303Y-88900000D03*
D18*
X88082303Y-88900000D03*
%TD*%
D15*
%TO.P, ,2*%
%TO.N,col2_row1*%
X85582303Y-82823730D03*
%TO.P, ,1*%
%TO.N,col2*%
X90582303Y-84923730D03*
%TO.P, ,2*%
%TO.N,col2_row1*%
X95582303Y-82823730D03*
%TD*%
D16*
%TO.P,D0,1*%
%TO.N,row1*%
X94482303Y-69850000D03*
D17*
%TO.P,D0,2*%
%TO.N,col2_row1*%
X86682303Y-69850000D03*
D18*
%TO.P,D0,1*%
%TO.N,N/C*%
X93082303Y-69850000D03*
D19*
X91982303Y-69850000D03*
%TO.P,D0,2*%
X89182303Y-69850000D03*
D18*
X88082303Y-69850000D03*
%TD*%
D15*
%TO.P, ,2*%
%TO.N,col2_row0*%
X85582303Y-63519730D03*
%TO.P, ,1*%
%TO.N,col2*%
X90582303Y-65619730D03*
%TO.P, ,2*%
%TO.N,col2_row0*%
X95582303Y-63519730D03*
%TD*%
D16*
%TO.P,D0,1*%
%TO.N,row0*%
X94482303Y-50800000D03*
D17*
%TO.P,D0,2*%
%TO.N,col2_row0*%
X86682303Y-50800000D03*
D18*
%TO.P,D0,1*%
%TO.N,N/C*%
X93082303Y-50800000D03*
D19*
X91982303Y-50800000D03*
%TO.P,D0,2*%
X89182303Y-50800000D03*
D18*
X88082303Y-50800000D03*
%TD*%
D15*
%TO.P, ,2*%
%TO.N,col1_row0*%
X66589231Y-65043730D03*
%TO.P, ,1*%
%TO.N,col1*%
X71589231Y-67143730D03*
%TO.P, ,2*%
%TO.N,col1_row0*%
X76589231Y-65043730D03*
%TD*%
D16*
%TO.P,D0,1*%
%TO.N,row0*%
X75489231Y-52070000D03*
D17*
%TO.P,D0,2*%
%TO.N,col1_row0*%
X67689231Y-52070000D03*
D18*
%TO.P,D0,1*%
%TO.N,N/C*%
X74089231Y-52070000D03*
D19*
X72989231Y-52070000D03*
%TO.P,D0,2*%
X70189231Y-52070000D03*
D18*
X69089231Y-52070000D03*
%TD*%
D15*
%TO.P, ,2*%
%TO.N,col1_row1*%
X66589231Y-84091829D03*
%TO.P, ,1*%
%TO.N,col1*%
X71589231Y-86191829D03*
%TO.P, ,2*%
%TO.N,col1_row1*%
X76589231Y-84091829D03*
%TD*%
D16*
%TO.P,D0,1*%
%TO.N,row1*%
X75489231Y-71120000D03*
D17*
%TO.P,D0,2*%
%TO.N,col1_row1*%
X67689231Y-71120000D03*
D18*
%TO.P,D0,1*%
%TO.N,N/C*%
X74089231Y-71120000D03*
D19*
X72989231Y-71120000D03*
%TO.P,D0,2*%
X70189231Y-71120000D03*
D18*
X69089231Y-71120000D03*
%TD*%
D15*
%TO.P, ,2*%
%TO.N,col1_row2*%
X66589231Y-103100230D03*
%TO.P, ,1*%
%TO.N,col1*%
X71589231Y-105200230D03*
%TO.P, ,2*%
%TO.N,col1_row2*%
X76589231Y-103100230D03*
%TD*%
D16*
%TO.P,D0,1*%
%TO.N,row2*%
X75489231Y-90170000D03*
D17*
%TO.P,D0,2*%
%TO.N,col1_row2*%
X67689231Y-90170000D03*
D18*
%TO.P,D0,1*%
%TO.N,N/C*%
X74089231Y-90170000D03*
D19*
X72989231Y-90170000D03*
%TO.P,D0,2*%
X70189231Y-90170000D03*
D18*
X69089231Y-90170000D03*
%TD*%
D15*
%TO.P, ,2*%
%TO.N,col1_row3*%
X66589231Y-124733730D03*
%TO.P, ,1*%
%TO.N,col1*%
X71589231Y-126833730D03*
%TO.P, ,2*%
%TO.N,col1_row3*%
X76589231Y-124733730D03*
%TD*%
D16*
%TO.P,D0,1*%
%TO.N,row3*%
X75489231Y-111760000D03*
D17*
%TO.P,D0,2*%
%TO.N,col1_row3*%
X67689231Y-111760000D03*
D18*
%TO.P,D0,1*%
%TO.N,N/C*%
X74089231Y-111760000D03*
D19*
X72989231Y-111760000D03*
%TO.P,D0,2*%
X70189231Y-111760000D03*
D18*
X69089231Y-111760000D03*
%TD*%
D15*
%TO.P, ,2*%
%TO.N,col0_row3*%
X47324000Y-124704000D03*
%TO.P, ,1*%
%TO.N,col0*%
X52324000Y-126804000D03*
%TO.P, ,2*%
%TO.N,col0_row3*%
X57324000Y-124704000D03*
%TD*%
D16*
%TO.P,D0,1*%
%TO.N,row3*%
X56224000Y-111760000D03*
D17*
%TO.P,D0,2*%
%TO.N,col0_row3*%
X48424000Y-111760000D03*
D18*
%TO.P,D0,1*%
%TO.N,N/C*%
X54824000Y-111760000D03*
D19*
X53724000Y-111760000D03*
%TO.P,D0,2*%
X50924000Y-111760000D03*
D18*
X49824000Y-111760000D03*
%TD*%
D15*
%TO.P, ,2*%
%TO.N,col0_row2*%
X47324000Y-105654000D03*
%TO.P, ,1*%
%TO.N,col0*%
X52324000Y-107754000D03*
%TO.P, ,2*%
%TO.N,col0_row2*%
X57324000Y-105654000D03*
%TD*%
D16*
%TO.P,D0,1*%
%TO.N,row2*%
X56224000Y-92710000D03*
D17*
%TO.P,D0,2*%
%TO.N,col0_row2*%
X48424000Y-92710000D03*
D18*
%TO.P,D0,1*%
%TO.N,N/C*%
X54824000Y-92710000D03*
D19*
X53724000Y-92710000D03*
%TO.P,D0,2*%
X50924000Y-92710000D03*
D18*
X49824000Y-92710000D03*
%TD*%
D15*
%TO.P, ,2*%
%TO.N,col0_row1*%
X47070000Y-86604000D03*
%TO.P, ,1*%
%TO.N,col0*%
X52070000Y-88704000D03*
%TO.P, ,2*%
%TO.N,col0_row1*%
X57070000Y-86604000D03*
%TD*%
D16*
%TO.P,D0,1*%
%TO.N,row1*%
X56224000Y-73660000D03*
D17*
%TO.P,D0,2*%
%TO.N,col0_row1*%
X48424000Y-73660000D03*
D18*
%TO.P,D0,1*%
%TO.N,N/C*%
X54824000Y-73660000D03*
D19*
X53724000Y-73660000D03*
%TO.P,D0,2*%
X50924000Y-73660000D03*
D18*
X49824000Y-73660000D03*
%TD*%
D15*
%TO.P, ,2*%
%TO.N,col0_row0*%
X57324000Y-67554000D03*
%TO.P, ,1*%
%TO.N,col0*%
X52324000Y-69654000D03*
%TO.P, ,2*%
%TO.N,col0_row0*%
X47324000Y-67554000D03*
%TD*%
D18*
%TO.P,D0,2*%
%TO.N,N/C*%
X49824000Y-54610000D03*
D19*
X50924000Y-54610000D03*
%TO.P,D0,1*%
X53724000Y-54610000D03*
D18*
X54824000Y-54610000D03*
D17*
%TO.P,D0,2*%
%TO.N,col0_row0*%
X48424000Y-54610000D03*
D16*
%TO.P,D0,1*%
%TO.N,row0*%
X56224000Y-54610000D03*
%TD*%
D20*
%TO.P,U1,24*%
%TO.N,BAT0*%
X79209231Y-49530000D03*
%TO.P,U1,12*%
%TO.N,col3*%
X63969231Y-77470000D03*
%TO.P,U1,23*%
%TO.N,BAT_GND*%
X79209231Y-52070000D03*
%TO.P,U1,22*%
%TO.N,RESET*%
X79209231Y-54610000D03*
%TO.P,U1,21*%
%TO.N,N/C*%
X79209231Y-57150000D03*
%TO.P,U1,20*%
X79209231Y-59690000D03*
%TO.P,U1,19*%
X79209231Y-62230000D03*
%TO.P,U1,18*%
X79209231Y-64770000D03*
%TO.P,U1,17*%
X79209231Y-67310000D03*
%TO.P,U1,16*%
X79209231Y-69850000D03*
%TO.P,U1,15*%
X79209231Y-72390000D03*
%TO.P,U1,14*%
%TO.N,col5*%
X79209231Y-74930000D03*
%TO.P,U1,13*%
%TO.N,col4*%
X79209231Y-77470000D03*
%TO.P,U1,11*%
%TO.N,col2*%
X63969231Y-74930000D03*
%TO.P,U1,10*%
%TO.N,col1*%
X63969231Y-72390000D03*
%TO.P,U1,9*%
%TO.N,col0*%
X63969231Y-69850000D03*
%TO.P,U1,8*%
%TO.N,row3*%
X63969231Y-67310000D03*
%TO.P,U1,7*%
%TO.N,row2*%
X63969231Y-64770000D03*
%TO.P,U1,6*%
%TO.N,row1*%
X63969231Y-62230000D03*
%TO.P,U1,5*%
%TO.N,row0*%
X63969231Y-59690000D03*
%TO.P,U1,4*%
%TO.N,N/C*%
X63969231Y-57150000D03*
%TO.P,U1,3*%
%TO.N,RESET_GND*%
X63969231Y-54610000D03*
%TO.P,U1,2*%
%TO.N,N/C*%
X63969231Y-52070000D03*
D21*
%TO.P,U1,1*%
X63969231Y-49530000D03*
%TD*%
D22*
%TO.N,row3*%
X60960000Y-71120000D03*
X60960000Y-71120000D03*
X55998999Y-110371001D03*
%TO.N,row2*%
X57322000Y-91612000D03*
%TD*%
D23*
%TO.N,*%
X53630000Y-49690000D02*
X53630000Y-50510000D01*
%TO.N,col2_row0*%
X86307302Y-50289999D02*
X86307302Y-50800000D01*
%TO.N,row3*%
X56599001Y-111249999D02*
X56599001Y-111760000D01*
X55998999Y-102531997D02*
X55998999Y-110371001D01*
X52598999Y-99131997D02*
X55998999Y-102531997D01*
X52598999Y-91849999D02*
X52598999Y-99131997D01*
X55998999Y-110649997D02*
X56599001Y-111249999D01*
X55744999Y-88703999D02*
X52598999Y-91849999D01*
X55744999Y-76335001D02*
X55744999Y-88703999D01*
X60960000Y-71120000D02*
X55744999Y-76335001D01*
X55998999Y-110371001D02*
X55998999Y-110649997D01*
%TO.N,col0*%
X52324000Y-74245002D02*
X52324000Y-69654000D01*
X50044999Y-76524003D02*
X52324000Y-74245002D01*
X50044999Y-86678999D02*
X50044999Y-76524003D01*
X52070000Y-88704000D02*
X50044999Y-86678999D01*
X52070000Y-93980000D02*
X52070000Y-88704000D01*
X50298999Y-95751001D02*
X52070000Y-93980000D01*
X50298999Y-105728999D02*
X50298999Y-95751001D01*
X52324000Y-107754000D02*
X50298999Y-105728999D01*
X52324000Y-112345002D02*
X52324000Y-107754000D01*
X50298999Y-114370003D02*
X52324000Y-112345002D01*
X50298999Y-124778999D02*
X50298999Y-114370003D01*
X52324000Y-126804000D02*
X50298999Y-124778999D01*
X52520000Y-69850000D02*
X52324000Y-69654000D01*
X63969231Y-69850000D02*
X52520000Y-69850000D01*
%TO.N,col1*%
X71589231Y-71589231D02*
X71589231Y-67143730D01*
X73614232Y-73614232D02*
X71589231Y-71589231D01*
X73614232Y-84166828D02*
X73614232Y-73614232D01*
X71589231Y-86191829D02*
X73614232Y-84166828D01*
X69564230Y-92995770D02*
X71589231Y-90970769D01*
X71589231Y-90970769D02*
X71589231Y-86191829D01*
X69564230Y-103175229D02*
X69564230Y-92995770D01*
X71589231Y-105200230D02*
X69564230Y-103175229D01*
X69564230Y-114585770D02*
X71589231Y-112560769D01*
X71589231Y-112560769D02*
X71589231Y-105200230D01*
X69564230Y-124808729D02*
X69564230Y-114585770D01*
X71589231Y-126833730D02*
X69564230Y-124808729D01*
X69215501Y-67143730D02*
X71589231Y-67143730D01*
X63969231Y-72390000D02*
X69215501Y-67143730D01*
%TO.N,col2*%
X88557302Y-82898729D02*
X90582303Y-84923730D01*
X88557302Y-78051729D02*
X88557302Y-82898729D01*
X90582303Y-76026728D02*
X88557302Y-78051729D01*
X90582303Y-65619730D02*
X90582303Y-76026728D01*
X90582303Y-89485002D02*
X90582303Y-84923730D01*
X88557302Y-91510003D02*
X90582303Y-89485002D01*
X88557302Y-101948729D02*
X88557302Y-91510003D01*
X90582303Y-103973730D02*
X88557302Y-101948729D01*
X90582303Y-112345002D02*
X90582303Y-103973730D01*
X88557302Y-114370003D02*
X90582303Y-112345002D01*
X88557302Y-124808729D02*
X88557302Y-114370003D01*
X90582303Y-126833730D02*
X88557302Y-124808729D01*
%TO.N,col3*%
X109632303Y-112617697D02*
X109632303Y-102449730D01*
X107607302Y-114642698D02*
X109632303Y-112617697D01*
X107607302Y-124808729D02*
X107607302Y-114642698D01*
X109632303Y-126833730D02*
X107607302Y-124808729D01*
X109632303Y-88487697D02*
X109632303Y-83399730D01*
X107607302Y-90512698D02*
X109632303Y-88487697D01*
X107607302Y-100424729D02*
X107607302Y-90512698D01*
X109632303Y-102449730D02*
X107607302Y-100424729D01*
X109632303Y-69437697D02*
X109632303Y-64349730D01*
X107607302Y-71462698D02*
X109632303Y-69437697D01*
X107607302Y-81374729D02*
X107607302Y-71462698D01*
X109632303Y-83399730D02*
X107607302Y-81374729D01*
%TO.N,col4*%
X128682303Y-112345002D02*
X128682303Y-103719730D01*
X126657302Y-114370003D02*
X128682303Y-112345002D01*
X126657302Y-124808729D02*
X126657302Y-114370003D01*
X128682303Y-126833730D02*
X126657302Y-124808729D01*
X128682303Y-89757697D02*
X128682303Y-84669730D01*
X126657302Y-91782698D02*
X128682303Y-89757697D01*
X126657302Y-101694729D02*
X126657302Y-91782698D01*
X128682303Y-103719730D02*
X126657302Y-101694729D01*
X128682303Y-70707697D02*
X128682303Y-65619730D01*
X126657302Y-72732698D02*
X128682303Y-70707697D01*
X126657302Y-82644729D02*
X126657302Y-72732698D01*
X128682303Y-84669730D02*
X126657302Y-82644729D01*
X107176300Y-64844731D02*
X108996302Y-63024729D01*
X94946302Y-64844731D02*
X107176300Y-64844731D01*
X94396300Y-64294729D02*
X94946302Y-64844731D01*
X89946302Y-64294729D02*
X94396300Y-64294729D01*
X113446300Y-63024729D02*
X116041301Y-65619730D01*
X85557302Y-68683729D02*
X89946302Y-64294729D01*
X116041301Y-65619730D02*
X128682303Y-65619730D01*
X85557302Y-71121929D02*
X85557302Y-68683729D01*
X108996302Y-63024729D02*
X113446300Y-63024729D01*
X79209231Y-77470000D02*
X85557302Y-71121929D01*
%TO.N,col5*%
X145707302Y-114370003D02*
X147732303Y-112345002D01*
X147732303Y-112345002D02*
X147732303Y-106259730D01*
X145707302Y-124808729D02*
X145707302Y-114370003D01*
X147732303Y-126833730D02*
X145707302Y-124808729D01*
X147732303Y-92025002D02*
X147732303Y-87209730D01*
X145707302Y-94050003D02*
X147732303Y-92025002D01*
X145707302Y-104234729D02*
X145707302Y-94050003D01*
X147732303Y-106259730D02*
X145707302Y-104234729D01*
X147732303Y-72975002D02*
X147732303Y-68159730D01*
X145707302Y-75000003D02*
X147732303Y-72975002D01*
X145707302Y-85184729D02*
X145707302Y-75000003D01*
X147732303Y-87209730D02*
X145707302Y-85184729D01*
X141668302Y-63434731D02*
X143007304Y-63434731D01*
X140428300Y-62194729D02*
X141668302Y-63434731D01*
X128160300Y-62194729D02*
X140428300Y-62194729D01*
X126890300Y-60924729D02*
X128160300Y-62194729D01*
X92679892Y-60924729D02*
X126890300Y-60924729D01*
X143007304Y-63434731D02*
X147732303Y-68159730D01*
X79209231Y-74395390D02*
X92679892Y-60924729D01*
X79209231Y-74930000D02*
X79209231Y-74395390D01*
%TO.N,row2*%
X56599001Y-92334999D02*
X56599001Y-92710000D01*
X58745001Y-75836304D02*
X58745001Y-90188999D01*
X65170532Y-69273375D02*
X65170532Y-70426625D01*
X63392606Y-71188699D02*
X58745001Y-75836304D01*
X64545856Y-68648699D02*
X65170532Y-69273375D01*
X63392606Y-68648699D02*
X64545856Y-68648699D01*
X58745001Y-90188999D02*
X57322000Y-91612000D01*
X62767930Y-68024023D02*
X63392606Y-68648699D01*
X64408458Y-71188699D02*
X63392606Y-71188699D01*
X65170532Y-70426625D02*
X64408458Y-71188699D01*
X62767930Y-65971301D02*
X62767930Y-68024023D01*
X63969231Y-64770000D02*
X62767930Y-65971301D01*
X57322000Y-91612000D02*
X56599001Y-92334999D01*
%TO.N,BAT_SW*%
X56705001Y-50765001D02*
X69884999Y-50765001D01*
X69884999Y-50765001D02*
X71120000Y-49530000D01*
X56630000Y-50690000D02*
X56705001Y-50765001D01*
X56630000Y-49690000D02*
X56630000Y-50690000D01*
%TO.N,BAT_GND*%
X75467930Y-48328699D02*
X79209231Y-52070000D01*
X62832930Y-48328699D02*
X75467930Y-48328699D01*
X61396628Y-49765001D02*
X62832930Y-48328699D01*
X58205001Y-49765001D02*
X61396628Y-49765001D01*
X58130000Y-49690000D02*
X58205001Y-49765001D01*
%TO.N,RESET*%
X86790000Y-47029231D02*
X79209231Y-54610000D01*
X86790000Y-46990000D02*
X86790000Y-47029231D01*
%TO.N,RESET_GND*%
X65170532Y-53408699D02*
X63969231Y-54610000D01*
X79774122Y-53408699D02*
X65170532Y-53408699D01*
X83390000Y-49792821D02*
X79774122Y-53408699D01*
X83390000Y-46990000D02*
X83390000Y-49792821D01*
%TD*%
M02*
