%TF.GenerationSoftware,KiCad,Pcbnew,5.1.9*%
%TF.CreationDate,2021-01-06T19:10:31-06:00*%
%TF.ProjectId,halfboard,68616c66-626f-4617-9264-2e6b69636164,rev?*%
%TF.SameCoordinates,Original*%
%TF.FileFunction,Soldermask,Bot*%
%TF.FilePolarity,Negative*%
%FSLAX46Y46*%
G04 Gerber Fmt 4.6, Leading zero omitted, Abs format (unit mm)*
G04 Created by KiCad (PCBNEW 5.1.9) date 2021-01-06 19:10:31*
%MOMM*%
%LPD*%
G01*
G04 APERTURE LIST*
%ADD10C,0.800000*%
%ADD11C,0.900000*%
%ADD12R,0.700000X1.500000*%
%ADD13R,1.000000X0.800000*%
%ADD14R,0.900000X1.700000*%
%ADD15O,1.000000X1.000000*%
%ADD16R,1.000000X1.000000*%
%ADD17C,2.000000*%
%ADD18R,1.600000X1.600000*%
%ADD19C,1.600000*%
%ADD20R,1.600000X1.200000*%
%ADD21C,1.752600*%
%ADD22R,1.752600X1.752600*%
G04 APERTURE END LIST*
D10*
%TO.C,REF\u002A\u002A*%
X85090000Y-47498000D03*
%TD*%
D11*
%TO.C,REF\u002A\u002A*%
X57380000Y-48184000D03*
X54380000Y-48184000D03*
%TD*%
%TO.C,REF\u002A\u002A*%
X54380000Y-48184000D03*
X57380000Y-48184000D03*
D12*
X53630000Y-49944000D03*
X56630000Y-49944000D03*
X58130000Y-49944000D03*
D13*
X52230000Y-47084000D03*
X59530000Y-47084000D03*
X59530000Y-49294000D03*
X52230000Y-49294000D03*
%TD*%
D10*
%TO.C,REF\u002A\u002A*%
X85090000Y-47498000D03*
D14*
X83390000Y-47498000D03*
X86790000Y-47498000D03*
%TD*%
D15*
%TO.C,BAT*%
X71120000Y-49530000D03*
D16*
X72390000Y-49530000D03*
%TD*%
D17*
%TO.C, *%
X142732303Y-66059730D03*
X147732303Y-68159730D03*
X152732303Y-66059730D03*
%TD*%
D18*
%TO.C,D0*%
X151632303Y-53340000D03*
D19*
X143832303Y-53340000D03*
D20*
X149132303Y-53340000D03*
X146332303Y-53340000D03*
%TD*%
D17*
%TO.C, *%
X142732303Y-85109730D03*
X147732303Y-87209730D03*
X152732303Y-85109730D03*
%TD*%
D18*
%TO.C,D0*%
X151632303Y-72390000D03*
D19*
X143832303Y-72390000D03*
D20*
X149132303Y-72390000D03*
X146332303Y-72390000D03*
%TD*%
D17*
%TO.C, *%
X142732303Y-104159730D03*
X147732303Y-106259730D03*
X152732303Y-104159730D03*
%TD*%
D18*
%TO.C,D0*%
X151632303Y-91440000D03*
D19*
X143832303Y-91440000D03*
D20*
X149132303Y-91440000D03*
X146332303Y-91440000D03*
%TD*%
D17*
%TO.C, *%
X142732303Y-124733730D03*
X147732303Y-126833730D03*
X152732303Y-124733730D03*
%TD*%
D18*
%TO.C,D0*%
X151632303Y-111760000D03*
D19*
X143832303Y-111760000D03*
D20*
X149132303Y-111760000D03*
X146332303Y-111760000D03*
%TD*%
D17*
%TO.C, *%
X123682303Y-124733730D03*
X128682303Y-126833730D03*
X133682303Y-124733730D03*
%TD*%
D18*
%TO.C,D0*%
X132582303Y-111760000D03*
D19*
X124782303Y-111760000D03*
D20*
X130082303Y-111760000D03*
X127282303Y-111760000D03*
%TD*%
D17*
%TO.C, *%
X104632303Y-124733730D03*
X109632303Y-126833730D03*
X114632303Y-124733730D03*
%TD*%
D18*
%TO.C,D0*%
X113532303Y-111760000D03*
D19*
X105732303Y-111760000D03*
D20*
X111032303Y-111760000D03*
X108232303Y-111760000D03*
%TD*%
D17*
%TO.C, *%
X85582303Y-124733730D03*
X90582303Y-126833730D03*
X95582303Y-124733730D03*
%TD*%
D18*
%TO.C,D0*%
X94482303Y-111760000D03*
D19*
X86682303Y-111760000D03*
D20*
X91982303Y-111760000D03*
X89182303Y-111760000D03*
%TD*%
D17*
%TO.C, *%
X123682303Y-101619730D03*
X128682303Y-103719730D03*
X133682303Y-101619730D03*
%TD*%
D18*
%TO.C,D0*%
X132582303Y-88900000D03*
D19*
X124782303Y-88900000D03*
D20*
X130082303Y-88900000D03*
X127282303Y-88900000D03*
%TD*%
D17*
%TO.C, *%
X123682303Y-82569730D03*
X128682303Y-84669730D03*
X133682303Y-82569730D03*
%TD*%
D18*
%TO.C,D0*%
X132582303Y-69850000D03*
D19*
X124782303Y-69850000D03*
D20*
X130082303Y-69850000D03*
X127282303Y-69850000D03*
%TD*%
D17*
%TO.C, *%
X123682303Y-63519730D03*
X128682303Y-65619730D03*
X133682303Y-63519730D03*
%TD*%
D18*
%TO.C,D0*%
X132582303Y-50800000D03*
D19*
X124782303Y-50800000D03*
D20*
X130082303Y-50800000D03*
X127282303Y-50800000D03*
%TD*%
D17*
%TO.C, *%
X104632303Y-62249730D03*
X109632303Y-64349730D03*
X114632303Y-62249730D03*
%TD*%
D18*
%TO.C,D0*%
X113532303Y-49530000D03*
D19*
X105732303Y-49530000D03*
D20*
X111032303Y-49530000D03*
X108232303Y-49530000D03*
%TD*%
D17*
%TO.C, *%
X104632303Y-81299730D03*
X109632303Y-83399730D03*
X114632303Y-81299730D03*
%TD*%
D18*
%TO.C,D0*%
X113532303Y-68580000D03*
D19*
X105732303Y-68580000D03*
D20*
X111032303Y-68580000D03*
X108232303Y-68580000D03*
%TD*%
D17*
%TO.C, *%
X104632303Y-100349730D03*
X109632303Y-102449730D03*
X114632303Y-100349730D03*
%TD*%
D18*
%TO.C,D0*%
X113532303Y-87630000D03*
D19*
X105732303Y-87630000D03*
D20*
X111032303Y-87630000D03*
X108232303Y-87630000D03*
%TD*%
D17*
%TO.C, *%
X85582303Y-101873730D03*
X90582303Y-103973730D03*
X95582303Y-101873730D03*
%TD*%
D18*
%TO.C,D0*%
X94482303Y-88900000D03*
D19*
X86682303Y-88900000D03*
D20*
X91982303Y-88900000D03*
X89182303Y-88900000D03*
%TD*%
D17*
%TO.C, *%
X85582303Y-82823730D03*
X90582303Y-84923730D03*
X95582303Y-82823730D03*
%TD*%
D18*
%TO.C,D0*%
X94482303Y-69850000D03*
D19*
X86682303Y-69850000D03*
D20*
X91982303Y-69850000D03*
X89182303Y-69850000D03*
%TD*%
D17*
%TO.C, *%
X85582303Y-63519730D03*
X90582303Y-65619730D03*
X95582303Y-63519730D03*
%TD*%
D18*
%TO.C,D0*%
X94482303Y-50800000D03*
D19*
X86682303Y-50800000D03*
D20*
X91982303Y-50800000D03*
X89182303Y-50800000D03*
%TD*%
D17*
%TO.C, *%
X66589231Y-65043730D03*
X71589231Y-67143730D03*
X76589231Y-65043730D03*
%TD*%
D18*
%TO.C,D0*%
X75489231Y-52070000D03*
D19*
X67689231Y-52070000D03*
D20*
X72989231Y-52070000D03*
X70189231Y-52070000D03*
%TD*%
D17*
%TO.C, *%
X66589231Y-84091829D03*
X71589231Y-86191829D03*
X76589231Y-84091829D03*
%TD*%
D18*
%TO.C,D0*%
X75489231Y-71120000D03*
D19*
X67689231Y-71120000D03*
D20*
X72989231Y-71120000D03*
X70189231Y-71120000D03*
%TD*%
D17*
%TO.C, *%
X66589231Y-103100230D03*
X71589231Y-105200230D03*
X76589231Y-103100230D03*
%TD*%
D18*
%TO.C,D0*%
X75489231Y-90170000D03*
D19*
X67689231Y-90170000D03*
D20*
X72989231Y-90170000D03*
X70189231Y-90170000D03*
%TD*%
D17*
%TO.C, *%
X66589231Y-124733730D03*
X71589231Y-126833730D03*
X76589231Y-124733730D03*
%TD*%
D18*
%TO.C,D0*%
X75489231Y-111760000D03*
D19*
X67689231Y-111760000D03*
D20*
X72989231Y-111760000D03*
X70189231Y-111760000D03*
%TD*%
D17*
%TO.C, *%
X47324000Y-124704000D03*
X52324000Y-126804000D03*
X57324000Y-124704000D03*
%TD*%
D18*
%TO.C,D0*%
X56224000Y-111760000D03*
D19*
X48424000Y-111760000D03*
D20*
X53724000Y-111760000D03*
X50924000Y-111760000D03*
%TD*%
D17*
%TO.C, *%
X47324000Y-105654000D03*
X52324000Y-107754000D03*
X57324000Y-105654000D03*
%TD*%
D18*
%TO.C,D0*%
X56224000Y-92710000D03*
D19*
X48424000Y-92710000D03*
D20*
X53724000Y-92710000D03*
X50924000Y-92710000D03*
%TD*%
D17*
%TO.C, *%
X47070000Y-86604000D03*
X52070000Y-88704000D03*
X57070000Y-86604000D03*
%TD*%
D18*
%TO.C,D0*%
X56224000Y-73660000D03*
D19*
X48424000Y-73660000D03*
D20*
X53724000Y-73660000D03*
X50924000Y-73660000D03*
%TD*%
D17*
%TO.C, *%
X57324000Y-67554000D03*
X52324000Y-69654000D03*
X47324000Y-67554000D03*
%TD*%
D20*
%TO.C,D0*%
X50924000Y-54610000D03*
X53724000Y-54610000D03*
D19*
X48424000Y-54610000D03*
D18*
X56224000Y-54610000D03*
%TD*%
D21*
%TO.C,U1*%
X79209231Y-49530000D03*
X63969231Y-77470000D03*
X79209231Y-52070000D03*
X79209231Y-54610000D03*
X79209231Y-57150000D03*
X79209231Y-59690000D03*
X79209231Y-62230000D03*
X79209231Y-64770000D03*
X79209231Y-67310000D03*
X79209231Y-69850000D03*
X79209231Y-72390000D03*
X79209231Y-74930000D03*
X79209231Y-77470000D03*
X63969231Y-74930000D03*
X63969231Y-72390000D03*
X63969231Y-69850000D03*
X63969231Y-67310000D03*
X63969231Y-64770000D03*
X63969231Y-62230000D03*
X63969231Y-59690000D03*
X63969231Y-57150000D03*
X63969231Y-54610000D03*
X63969231Y-52070000D03*
D22*
X63969231Y-49530000D03*
%TD*%
M02*
