%TF.GenerationSoftware,KiCad,Pcbnew,(5.1.8-0-10_14)*%
%TF.CreationDate,2021-01-06T07:12:47-06:00*%
%TF.ProjectId,halfboard,68616c66-626f-4617-9264-2e6b69636164,rev?*%
%TF.SameCoordinates,Original*%
%TF.FileFunction,Paste,Top*%
%TF.FilePolarity,Positive*%
%FSLAX46Y46*%
G04 Gerber Fmt 4.6, Leading zero omitted, Abs format (unit mm)*
G04 Created by KiCad (PCBNEW (5.1.8-0-10_14)) date 2021-01-06 07:12:47*
%MOMM*%
%LPD*%
G01*
G04 APERTURE LIST*
%ADD10R,1.600000X1.200000*%
G04 APERTURE END LIST*
D10*
%TO.C,D0*%
X146332303Y-53340000D03*
X149132303Y-53340000D03*
%TD*%
%TO.C,D0*%
X146332303Y-72390000D03*
X149132303Y-72390000D03*
%TD*%
%TO.C,D0*%
X146332303Y-91440000D03*
X149132303Y-91440000D03*
%TD*%
%TO.C,D0*%
X146332303Y-111760000D03*
X149132303Y-111760000D03*
%TD*%
%TO.C,D0*%
X127282303Y-111760000D03*
X130082303Y-111760000D03*
%TD*%
%TO.C,D0*%
X108232303Y-111760000D03*
X111032303Y-111760000D03*
%TD*%
%TO.C,D0*%
X89182303Y-111760000D03*
X91982303Y-111760000D03*
%TD*%
%TO.C,D0*%
X127282303Y-88900000D03*
X130082303Y-88900000D03*
%TD*%
%TO.C,D0*%
X127282303Y-69850000D03*
X130082303Y-69850000D03*
%TD*%
%TO.C,D0*%
X127282303Y-50800000D03*
X130082303Y-50800000D03*
%TD*%
%TO.C,D0*%
X108232303Y-49530000D03*
X111032303Y-49530000D03*
%TD*%
%TO.C,D0*%
X108232303Y-68580000D03*
X111032303Y-68580000D03*
%TD*%
%TO.C,D0*%
X108232303Y-87630000D03*
X111032303Y-87630000D03*
%TD*%
%TO.C,D0*%
X89182303Y-88900000D03*
X91982303Y-88900000D03*
%TD*%
%TO.C,D0*%
X89182303Y-69850000D03*
X91982303Y-69850000D03*
%TD*%
%TO.C,D0*%
X89182303Y-50800000D03*
X91982303Y-50800000D03*
%TD*%
%TO.C,D0*%
X70189231Y-52070000D03*
X72989231Y-52070000D03*
%TD*%
%TO.C,D0*%
X70189231Y-71120000D03*
X72989231Y-71120000D03*
%TD*%
%TO.C,D0*%
X70189231Y-90170000D03*
X72989231Y-90170000D03*
%TD*%
%TO.C,D0*%
X70189231Y-111760000D03*
X72989231Y-111760000D03*
%TD*%
%TO.C,D0*%
X50924000Y-111760000D03*
X53724000Y-111760000D03*
%TD*%
%TO.C,D0*%
X50924000Y-92710000D03*
X53724000Y-92710000D03*
%TD*%
%TO.C,D0*%
X50924000Y-73660000D03*
X53724000Y-73660000D03*
%TD*%
%TO.C,D0*%
X53724000Y-54610000D03*
X50924000Y-54610000D03*
%TD*%
M02*
