%TF.GenerationSoftware,KiCad,Pcbnew,5.1.9*%
%TF.CreationDate,2021-01-06T03:20:38-06:00*%
%TF.ProjectId,halfboard,68616c66-626f-4617-9264-2e6b69636164,rev?*%
%TF.SameCoordinates,Original*%
%TF.FileFunction,Copper,L1,Top*%
%TF.FilePolarity,Positive*%
%FSLAX46Y46*%
G04 Gerber Fmt 4.6, Leading zero omitted, Abs format (unit mm)*
G04 Created by KiCad (PCBNEW 5.1.9) date 2021-01-06 03:20:38*
%MOMM*%
%LPD*%
G01*
G04 APERTURE LIST*
%TA.AperFunction,ComponentPad*%
%ADD10O,1.000000X1.000000*%
%TD*%
%TA.AperFunction,ComponentPad*%
%ADD11R,1.000000X1.000000*%
%TD*%
%TA.AperFunction,ComponentPad*%
%ADD12C,2.000000*%
%TD*%
%TA.AperFunction,SMDPad,CuDef*%
%ADD13R,2.900000X0.500000*%
%TD*%
%TA.AperFunction,ComponentPad*%
%ADD14R,1.600000X1.600000*%
%TD*%
%TA.AperFunction,ComponentPad*%
%ADD15C,1.600000*%
%TD*%
%TA.AperFunction,SMDPad,CuDef*%
%ADD16R,1.600000X1.200000*%
%TD*%
%TA.AperFunction,ComponentPad*%
%ADD17C,1.752600*%
%TD*%
%TA.AperFunction,ComponentPad*%
%ADD18R,1.752600X1.752600*%
%TD*%
%TA.AperFunction,ViaPad*%
%ADD19C,0.800000*%
%TD*%
%TA.AperFunction,Conductor*%
%ADD20C,0.250000*%
%TD*%
G04 APERTURE END LIST*
D10*
%TO.P,BAT,2*%
%TO.N,BAT_SW*%
X71120000Y-49530000D03*
D11*
%TO.P,BAT,1*%
%TO.N,BAT0*%
X72390000Y-49530000D03*
%TD*%
D12*
%TO.P, ,2*%
%TO.N,col5_row0*%
X142732303Y-66059730D03*
%TO.P, ,1*%
%TO.N,col5*%
X147732303Y-68159730D03*
%TO.P, ,2*%
%TO.N,col5_row0*%
X152732303Y-66059730D03*
%TD*%
D13*
%TO.P,D0,1*%
%TO.N,N/C*%
X150232303Y-53340000D03*
%TO.P,D0,2*%
X145232303Y-53340000D03*
D14*
%TO.P,D0,1*%
%TO.N,row0*%
X151632303Y-53340000D03*
D15*
%TO.P,D0,2*%
%TO.N,col5_row0*%
X143832303Y-53340000D03*
D16*
%TO.N,N/C*%
X146332303Y-53340000D03*
%TO.P,D0,1*%
X149132303Y-53340000D03*
%TD*%
D12*
%TO.P, ,2*%
%TO.N,col5_row1*%
X142732303Y-85109730D03*
%TO.P, ,1*%
%TO.N,col5*%
X147732303Y-87209730D03*
%TO.P, ,2*%
%TO.N,col5_row1*%
X152732303Y-85109730D03*
%TD*%
D13*
%TO.P,D0,1*%
%TO.N,N/C*%
X150232303Y-72390000D03*
%TO.P,D0,2*%
X145232303Y-72390000D03*
D14*
%TO.P,D0,1*%
%TO.N,row1*%
X151632303Y-72390000D03*
D15*
%TO.P,D0,2*%
%TO.N,col5_row1*%
X143832303Y-72390000D03*
D16*
%TO.N,N/C*%
X146332303Y-72390000D03*
%TO.P,D0,1*%
X149132303Y-72390000D03*
%TD*%
D12*
%TO.P, ,2*%
%TO.N,col5_row2*%
X142732303Y-104159730D03*
%TO.P, ,1*%
%TO.N,col5*%
X147732303Y-106259730D03*
%TO.P, ,2*%
%TO.N,col5_row2*%
X152732303Y-104159730D03*
%TD*%
D13*
%TO.P,D0,1*%
%TO.N,N/C*%
X150232303Y-91440000D03*
%TO.P,D0,2*%
X145232303Y-91440000D03*
D14*
%TO.P,D0,1*%
%TO.N,row2*%
X151632303Y-91440000D03*
D15*
%TO.P,D0,2*%
%TO.N,col5_row2*%
X143832303Y-91440000D03*
D16*
%TO.N,N/C*%
X146332303Y-91440000D03*
%TO.P,D0,1*%
X149132303Y-91440000D03*
%TD*%
D12*
%TO.P, ,2*%
%TO.N,col5_row3*%
X142732303Y-124733730D03*
%TO.P, ,1*%
%TO.N,col5*%
X147732303Y-126833730D03*
%TO.P, ,2*%
%TO.N,col5_row3*%
X152732303Y-124733730D03*
%TD*%
D13*
%TO.P,D0,1*%
%TO.N,N/C*%
X150232303Y-111760000D03*
%TO.P,D0,2*%
X145232303Y-111760000D03*
D14*
%TO.P,D0,1*%
%TO.N,row3*%
X151632303Y-111760000D03*
D15*
%TO.P,D0,2*%
%TO.N,col5_row3*%
X143832303Y-111760000D03*
D16*
%TO.N,N/C*%
X146332303Y-111760000D03*
%TO.P,D0,1*%
X149132303Y-111760000D03*
%TD*%
D12*
%TO.P, ,2*%
%TO.N,col4_row3*%
X123682303Y-124733730D03*
%TO.P, ,1*%
%TO.N,col4*%
X128682303Y-126833730D03*
%TO.P, ,2*%
%TO.N,col4_row3*%
X133682303Y-124733730D03*
%TD*%
D13*
%TO.P,D0,1*%
%TO.N,N/C*%
X131182303Y-111760000D03*
%TO.P,D0,2*%
X126182303Y-111760000D03*
D14*
%TO.P,D0,1*%
%TO.N,row3*%
X132582303Y-111760000D03*
D15*
%TO.P,D0,2*%
%TO.N,col4_row3*%
X124782303Y-111760000D03*
D16*
%TO.N,N/C*%
X127282303Y-111760000D03*
%TO.P,D0,1*%
X130082303Y-111760000D03*
%TD*%
D12*
%TO.P, ,2*%
%TO.N,col3_row3*%
X104632303Y-124733730D03*
%TO.P, ,1*%
%TO.N,col3*%
X109632303Y-126833730D03*
%TO.P, ,2*%
%TO.N,col3_row3*%
X114632303Y-124733730D03*
%TD*%
D13*
%TO.P,D0,1*%
%TO.N,N/C*%
X112132303Y-111760000D03*
%TO.P,D0,2*%
X107132303Y-111760000D03*
D14*
%TO.P,D0,1*%
%TO.N,row3*%
X113532303Y-111760000D03*
D15*
%TO.P,D0,2*%
%TO.N,col3_row3*%
X105732303Y-111760000D03*
D16*
%TO.N,N/C*%
X108232303Y-111760000D03*
%TO.P,D0,1*%
X111032303Y-111760000D03*
%TD*%
D12*
%TO.P, ,2*%
%TO.N,col2_row3*%
X85582303Y-124733730D03*
%TO.P, ,1*%
%TO.N,col2*%
X90582303Y-126833730D03*
%TO.P, ,2*%
%TO.N,col2_row3*%
X95582303Y-124733730D03*
%TD*%
D13*
%TO.P,D0,1*%
%TO.N,N/C*%
X93082303Y-111760000D03*
%TO.P,D0,2*%
X88082303Y-111760000D03*
D14*
%TO.P,D0,1*%
%TO.N,row3*%
X94482303Y-111760000D03*
D15*
%TO.P,D0,2*%
%TO.N,col2_row3*%
X86682303Y-111760000D03*
D16*
%TO.N,N/C*%
X89182303Y-111760000D03*
%TO.P,D0,1*%
X91982303Y-111760000D03*
%TD*%
D12*
%TO.P, ,2*%
%TO.N,col4_row2*%
X123682303Y-101619730D03*
%TO.P, ,1*%
%TO.N,col4*%
X128682303Y-103719730D03*
%TO.P, ,2*%
%TO.N,col4_row2*%
X133682303Y-101619730D03*
%TD*%
D13*
%TO.P,D0,1*%
%TO.N,N/C*%
X131182303Y-88900000D03*
%TO.P,D0,2*%
X126182303Y-88900000D03*
D14*
%TO.P,D0,1*%
%TO.N,row2*%
X132582303Y-88900000D03*
D15*
%TO.P,D0,2*%
%TO.N,col4_row2*%
X124782303Y-88900000D03*
D16*
%TO.N,N/C*%
X127282303Y-88900000D03*
%TO.P,D0,1*%
X130082303Y-88900000D03*
%TD*%
D12*
%TO.P, ,2*%
%TO.N,col4_row1*%
X123682303Y-82569730D03*
%TO.P, ,1*%
%TO.N,col4*%
X128682303Y-84669730D03*
%TO.P, ,2*%
%TO.N,col4_row1*%
X133682303Y-82569730D03*
%TD*%
D13*
%TO.P,D0,1*%
%TO.N,N/C*%
X131182303Y-69850000D03*
%TO.P,D0,2*%
X126182303Y-69850000D03*
D14*
%TO.P,D0,1*%
%TO.N,row1*%
X132582303Y-69850000D03*
D15*
%TO.P,D0,2*%
%TO.N,col4_row1*%
X124782303Y-69850000D03*
D16*
%TO.N,N/C*%
X127282303Y-69850000D03*
%TO.P,D0,1*%
X130082303Y-69850000D03*
%TD*%
D12*
%TO.P, ,2*%
%TO.N,col4_row0*%
X123682303Y-63519730D03*
%TO.P, ,1*%
%TO.N,col4*%
X128682303Y-65619730D03*
%TO.P, ,2*%
%TO.N,col4_row0*%
X133682303Y-63519730D03*
%TD*%
D13*
%TO.P,D0,1*%
%TO.N,N/C*%
X131182303Y-50800000D03*
%TO.P,D0,2*%
X126182303Y-50800000D03*
D14*
%TO.P,D0,1*%
%TO.N,row0*%
X132582303Y-50800000D03*
D15*
%TO.P,D0,2*%
%TO.N,col4_row0*%
X124782303Y-50800000D03*
D16*
%TO.N,N/C*%
X127282303Y-50800000D03*
%TO.P,D0,1*%
X130082303Y-50800000D03*
%TD*%
D12*
%TO.P, ,2*%
%TO.N,col3_row0*%
X104632303Y-62249730D03*
%TO.P, ,1*%
%TO.N,col3*%
X109632303Y-64349730D03*
%TO.P, ,2*%
%TO.N,col3_row0*%
X114632303Y-62249730D03*
%TD*%
D13*
%TO.P,D0,1*%
%TO.N,N/C*%
X112132303Y-49530000D03*
%TO.P,D0,2*%
X107132303Y-49530000D03*
D14*
%TO.P,D0,1*%
%TO.N,row0*%
X113532303Y-49530000D03*
D15*
%TO.P,D0,2*%
%TO.N,col3_row0*%
X105732303Y-49530000D03*
D16*
%TO.N,N/C*%
X108232303Y-49530000D03*
%TO.P,D0,1*%
X111032303Y-49530000D03*
%TD*%
D12*
%TO.P, ,2*%
%TO.N,col3_row1*%
X104632303Y-81299730D03*
%TO.P, ,1*%
%TO.N,col3*%
X109632303Y-83399730D03*
%TO.P, ,2*%
%TO.N,col3_row1*%
X114632303Y-81299730D03*
%TD*%
D13*
%TO.P,D0,1*%
%TO.N,N/C*%
X112132303Y-68580000D03*
%TO.P,D0,2*%
X107132303Y-68580000D03*
D14*
%TO.P,D0,1*%
%TO.N,row1*%
X113532303Y-68580000D03*
D15*
%TO.P,D0,2*%
%TO.N,col3_row1*%
X105732303Y-68580000D03*
D16*
%TO.N,N/C*%
X108232303Y-68580000D03*
%TO.P,D0,1*%
X111032303Y-68580000D03*
%TD*%
D12*
%TO.P, ,2*%
%TO.N,col3_row2*%
X104632303Y-100349730D03*
%TO.P, ,1*%
%TO.N,col3*%
X109632303Y-102449730D03*
%TO.P, ,2*%
%TO.N,col3_row2*%
X114632303Y-100349730D03*
%TD*%
D13*
%TO.P,D0,1*%
%TO.N,N/C*%
X112132303Y-87630000D03*
%TO.P,D0,2*%
X107132303Y-87630000D03*
D14*
%TO.P,D0,1*%
%TO.N,row2*%
X113532303Y-87630000D03*
D15*
%TO.P,D0,2*%
%TO.N,col3_row2*%
X105732303Y-87630000D03*
D16*
%TO.N,N/C*%
X108232303Y-87630000D03*
%TO.P,D0,1*%
X111032303Y-87630000D03*
%TD*%
D12*
%TO.P, ,2*%
%TO.N,col2_row2*%
X85582303Y-101873730D03*
%TO.P, ,1*%
%TO.N,col2*%
X90582303Y-103973730D03*
%TO.P, ,2*%
%TO.N,col2_row2*%
X95582303Y-101873730D03*
%TD*%
D13*
%TO.P,D0,1*%
%TO.N,N/C*%
X93082303Y-88900000D03*
%TO.P,D0,2*%
X88082303Y-88900000D03*
D14*
%TO.P,D0,1*%
%TO.N,row2*%
X94482303Y-88900000D03*
D15*
%TO.P,D0,2*%
%TO.N,col2_row2*%
X86682303Y-88900000D03*
D16*
%TO.N,N/C*%
X89182303Y-88900000D03*
%TO.P,D0,1*%
X91982303Y-88900000D03*
%TD*%
D12*
%TO.P, ,2*%
%TO.N,col2_row1*%
X85582303Y-82823730D03*
%TO.P, ,1*%
%TO.N,col2*%
X90582303Y-84923730D03*
%TO.P, ,2*%
%TO.N,col2_row1*%
X95582303Y-82823730D03*
%TD*%
D13*
%TO.P,D0,1*%
%TO.N,N/C*%
X93082303Y-69850000D03*
%TO.P,D0,2*%
X88082303Y-69850000D03*
D14*
%TO.P,D0,1*%
%TO.N,row1*%
X94482303Y-69850000D03*
D15*
%TO.P,D0,2*%
%TO.N,col2_row1*%
X86682303Y-69850000D03*
D16*
%TO.N,N/C*%
X89182303Y-69850000D03*
%TO.P,D0,1*%
X91982303Y-69850000D03*
%TD*%
D12*
%TO.P, ,2*%
%TO.N,col2_row0*%
X85582303Y-63519730D03*
%TO.P, ,1*%
%TO.N,col2*%
X90582303Y-65619730D03*
%TO.P, ,2*%
%TO.N,col2_row0*%
X95582303Y-63519730D03*
%TD*%
D13*
%TO.P,D0,1*%
%TO.N,N/C*%
X93082303Y-50800000D03*
%TO.P,D0,2*%
X88082303Y-50800000D03*
D14*
%TO.P,D0,1*%
%TO.N,row0*%
X94482303Y-50800000D03*
D15*
%TO.P,D0,2*%
%TO.N,col2_row0*%
X86682303Y-50800000D03*
D16*
%TO.N,N/C*%
X89182303Y-50800000D03*
%TO.P,D0,1*%
X91982303Y-50800000D03*
%TD*%
D12*
%TO.P, ,2*%
%TO.N,col1_row0*%
X66589231Y-65043730D03*
%TO.P, ,1*%
%TO.N,col1*%
X71589231Y-67143730D03*
%TO.P, ,2*%
%TO.N,col1_row0*%
X76589231Y-65043730D03*
%TD*%
D13*
%TO.P,D0,1*%
%TO.N,N/C*%
X74089231Y-52070000D03*
%TO.P,D0,2*%
X69089231Y-52070000D03*
D14*
%TO.P,D0,1*%
%TO.N,row0*%
X75489231Y-52070000D03*
D15*
%TO.P,D0,2*%
%TO.N,col1_row0*%
X67689231Y-52070000D03*
D16*
%TO.N,N/C*%
X70189231Y-52070000D03*
%TO.P,D0,1*%
X72989231Y-52070000D03*
%TD*%
D12*
%TO.P, ,2*%
%TO.N,col1_row1*%
X66589231Y-84091829D03*
%TO.P, ,1*%
%TO.N,col1*%
X71589231Y-86191829D03*
%TO.P, ,2*%
%TO.N,col1_row1*%
X76589231Y-84091829D03*
%TD*%
D13*
%TO.P,D0,1*%
%TO.N,N/C*%
X74089231Y-71120000D03*
%TO.P,D0,2*%
X69089231Y-71120000D03*
D14*
%TO.P,D0,1*%
%TO.N,row1*%
X75489231Y-71120000D03*
D15*
%TO.P,D0,2*%
%TO.N,col1_row1*%
X67689231Y-71120000D03*
D16*
%TO.N,N/C*%
X70189231Y-71120000D03*
%TO.P,D0,1*%
X72989231Y-71120000D03*
%TD*%
D12*
%TO.P, ,2*%
%TO.N,col1_row2*%
X66589231Y-103100230D03*
%TO.P, ,1*%
%TO.N,col1*%
X71589231Y-105200230D03*
%TO.P, ,2*%
%TO.N,col1_row2*%
X76589231Y-103100230D03*
%TD*%
D13*
%TO.P,D0,1*%
%TO.N,N/C*%
X74089231Y-90170000D03*
%TO.P,D0,2*%
X69089231Y-90170000D03*
D14*
%TO.P,D0,1*%
%TO.N,row2*%
X75489231Y-90170000D03*
D15*
%TO.P,D0,2*%
%TO.N,col1_row2*%
X67689231Y-90170000D03*
D16*
%TO.N,N/C*%
X70189231Y-90170000D03*
%TO.P,D0,1*%
X72989231Y-90170000D03*
%TD*%
D12*
%TO.P, ,2*%
%TO.N,col1_row3*%
X66589231Y-124733730D03*
%TO.P, ,1*%
%TO.N,col1*%
X71589231Y-126833730D03*
%TO.P, ,2*%
%TO.N,col1_row3*%
X76589231Y-124733730D03*
%TD*%
D13*
%TO.P,D0,1*%
%TO.N,N/C*%
X74089231Y-111760000D03*
%TO.P,D0,2*%
X69089231Y-111760000D03*
D14*
%TO.P,D0,1*%
%TO.N,row3*%
X75489231Y-111760000D03*
D15*
%TO.P,D0,2*%
%TO.N,col1_row3*%
X67689231Y-111760000D03*
D16*
%TO.N,N/C*%
X70189231Y-111760000D03*
%TO.P,D0,1*%
X72989231Y-111760000D03*
%TD*%
D12*
%TO.P, ,2*%
%TO.N,col0_row3*%
X47324000Y-124704000D03*
%TO.P, ,1*%
%TO.N,col0*%
X52324000Y-126804000D03*
%TO.P, ,2*%
%TO.N,col0_row3*%
X57324000Y-124704000D03*
%TD*%
D13*
%TO.P,D0,1*%
%TO.N,N/C*%
X54824000Y-111760000D03*
%TO.P,D0,2*%
X49824000Y-111760000D03*
D14*
%TO.P,D0,1*%
%TO.N,row3*%
X56224000Y-111760000D03*
D15*
%TO.P,D0,2*%
%TO.N,col0_row3*%
X48424000Y-111760000D03*
D16*
%TO.N,N/C*%
X50924000Y-111760000D03*
%TO.P,D0,1*%
X53724000Y-111760000D03*
%TD*%
D12*
%TO.P, ,2*%
%TO.N,col0_row2*%
X47324000Y-105654000D03*
%TO.P, ,1*%
%TO.N,col0*%
X52324000Y-107754000D03*
%TO.P, ,2*%
%TO.N,col0_row2*%
X57324000Y-105654000D03*
%TD*%
D13*
%TO.P,D0,1*%
%TO.N,N/C*%
X54824000Y-92710000D03*
%TO.P,D0,2*%
X49824000Y-92710000D03*
D14*
%TO.P,D0,1*%
%TO.N,row2*%
X56224000Y-92710000D03*
D15*
%TO.P,D0,2*%
%TO.N,col0_row2*%
X48424000Y-92710000D03*
D16*
%TO.N,N/C*%
X50924000Y-92710000D03*
%TO.P,D0,1*%
X53724000Y-92710000D03*
%TD*%
D12*
%TO.P, ,2*%
%TO.N,col0_row1*%
X47070000Y-86604000D03*
%TO.P, ,1*%
%TO.N,col0*%
X52070000Y-88704000D03*
%TO.P, ,2*%
%TO.N,col0_row1*%
X57070000Y-86604000D03*
%TD*%
D13*
%TO.P,D0,1*%
%TO.N,N/C*%
X54824000Y-73660000D03*
%TO.P,D0,2*%
X49824000Y-73660000D03*
D14*
%TO.P,D0,1*%
%TO.N,row1*%
X56224000Y-73660000D03*
D15*
%TO.P,D0,2*%
%TO.N,col0_row1*%
X48424000Y-73660000D03*
D16*
%TO.N,N/C*%
X50924000Y-73660000D03*
%TO.P,D0,1*%
X53724000Y-73660000D03*
%TD*%
D12*
%TO.P, ,2*%
%TO.N,col0_row0*%
X57324000Y-67554000D03*
%TO.P, ,1*%
%TO.N,col0*%
X52324000Y-69654000D03*
%TO.P, ,2*%
%TO.N,col0_row0*%
X47324000Y-67554000D03*
%TD*%
D16*
%TO.P,D0,1*%
%TO.N,N/C*%
X53724000Y-54610000D03*
%TO.P,D0,2*%
X50924000Y-54610000D03*
D15*
%TO.N,col0_row0*%
X48424000Y-54610000D03*
D14*
%TO.P,D0,1*%
%TO.N,row0*%
X56224000Y-54610000D03*
D13*
%TO.P,D0,2*%
%TO.N,N/C*%
X49824000Y-54610000D03*
%TO.P,D0,1*%
X54824000Y-54610000D03*
%TD*%
D17*
%TO.P,U1,24*%
%TO.N,BAT0*%
X79209231Y-49530000D03*
%TO.P,U1,12*%
%TO.N,col3*%
X63969231Y-77470000D03*
%TO.P,U1,23*%
%TO.N,BAT_GND*%
X79209231Y-52070000D03*
%TO.P,U1,22*%
%TO.N,RESET*%
X79209231Y-54610000D03*
%TO.P,U1,21*%
%TO.N,N/C*%
X79209231Y-57150000D03*
%TO.P,U1,20*%
X79209231Y-59690000D03*
%TO.P,U1,19*%
X79209231Y-62230000D03*
%TO.P,U1,18*%
X79209231Y-64770000D03*
%TO.P,U1,17*%
X79209231Y-67310000D03*
%TO.P,U1,16*%
X79209231Y-69850000D03*
%TO.P,U1,15*%
X79209231Y-72390000D03*
%TO.P,U1,14*%
%TO.N,col5*%
X79209231Y-74930000D03*
%TO.P,U1,13*%
%TO.N,col4*%
X79209231Y-77470000D03*
%TO.P,U1,11*%
%TO.N,col2*%
X63969231Y-74930000D03*
%TO.P,U1,10*%
%TO.N,col1*%
X63969231Y-72390000D03*
%TO.P,U1,9*%
%TO.N,col0*%
X63969231Y-69850000D03*
%TO.P,U1,8*%
%TO.N,row3*%
X63969231Y-67310000D03*
%TO.P,U1,7*%
%TO.N,row2*%
X63969231Y-64770000D03*
%TO.P,U1,6*%
%TO.N,row1*%
X63969231Y-62230000D03*
%TO.P,U1,5*%
%TO.N,row0*%
X63969231Y-59690000D03*
%TO.P,U1,4*%
%TO.N,N/C*%
X63969231Y-57150000D03*
%TO.P,U1,3*%
%TO.N,RESET_GND*%
X63969231Y-54610000D03*
%TO.P,U1,2*%
%TO.N,N/C*%
X63969231Y-52070000D03*
D18*
%TO.P,U1,1*%
X63969231Y-49530000D03*
%TD*%
D19*
%TO.N,row3*%
X60960000Y-71120000D03*
X60960000Y-71120000D03*
X55998999Y-110371001D03*
%TO.N,row2*%
X57322000Y-91612000D03*
%TD*%
D20*
%TO.N,col0_row0*%
X57324000Y-67554000D02*
X47324000Y-67554000D01*
X48048999Y-54985001D02*
X48048999Y-54610000D01*
X48029001Y-55004999D02*
X48048999Y-54985001D01*
X48029001Y-66848999D02*
X48029001Y-55004999D01*
X47324000Y-67554000D02*
X48029001Y-66848999D01*
%TO.N,col1_row0*%
X76589231Y-65043730D02*
X66589231Y-65043730D01*
X67314230Y-64318731D02*
X67314230Y-52070000D01*
X66589231Y-65043730D02*
X67314230Y-64318731D01*
%TO.N,col2_row0*%
X95582303Y-63519730D02*
X85582303Y-63519730D01*
X86307302Y-62794731D02*
X86307302Y-50800000D01*
X85582303Y-63519730D02*
X86307302Y-62794731D01*
%TO.N,col3_row0*%
X104632303Y-62249730D02*
X114632303Y-62249730D01*
X105357302Y-49019999D02*
X105357302Y-49530000D01*
X105357302Y-61524731D02*
X105357302Y-49019999D01*
X104632303Y-62249730D02*
X105357302Y-61524731D01*
%TO.N,col4_row0*%
X123682303Y-63519730D02*
X133682303Y-63519730D01*
X124407302Y-62794731D02*
X124407302Y-50800000D01*
X123682303Y-63519730D02*
X124407302Y-62794731D01*
%TO.N,col5_row0*%
X142732303Y-66059730D02*
X152732303Y-66059730D01*
X143457302Y-65334731D02*
X143457302Y-53340000D01*
X142732303Y-66059730D02*
X143457302Y-65334731D01*
%TO.N,col0_row1*%
X48048999Y-74170001D02*
X48048999Y-73660000D01*
X48069999Y-74191001D02*
X48048999Y-74170001D01*
X48069999Y-85604001D02*
X48069999Y-74191001D01*
X47070000Y-86604000D02*
X48069999Y-85604001D01*
X47070000Y-86604000D02*
X57070000Y-86604000D01*
%TO.N,row3*%
X63969231Y-67310000D02*
X63500000Y-67310000D01*
X63969231Y-67310000D02*
X60960000Y-70319231D01*
X60960000Y-70319231D02*
X60960000Y-71120000D01*
X60960000Y-71120000D02*
X60960000Y-71120000D01*
X60960000Y-71120000D02*
X60960000Y-71120000D01*
X74985234Y-110371001D02*
X75864232Y-111249999D01*
X75864232Y-111249999D02*
X75864232Y-111760000D01*
X55998999Y-110371001D02*
X74985234Y-110371001D01*
X94857304Y-111249999D02*
X94857304Y-111760000D01*
X93978306Y-110371001D02*
X94857304Y-111249999D01*
X74985234Y-110371001D02*
X93978306Y-110371001D01*
X113907304Y-111249999D02*
X113907304Y-111760000D01*
X113028306Y-110371001D02*
X113907304Y-111249999D01*
X93978306Y-110371001D02*
X113028306Y-110371001D01*
X132957304Y-111249999D02*
X132957304Y-111760000D01*
X132078306Y-110371001D02*
X132957304Y-111249999D01*
X113028306Y-110371001D02*
X132078306Y-110371001D01*
X152007304Y-111249999D02*
X152007304Y-111760000D01*
X151128306Y-110371001D02*
X152007304Y-111249999D01*
X132078306Y-110371001D02*
X151128306Y-110371001D01*
%TO.N,col1_row1*%
X67314230Y-83366830D02*
X67314230Y-71120000D01*
X66589231Y-84091829D02*
X67314230Y-83366830D01*
X66589231Y-84091829D02*
X76589231Y-84091829D01*
%TO.N,col2_row1*%
X86307302Y-70225001D02*
X86307302Y-69850000D01*
X86287304Y-70244999D02*
X86307302Y-70225001D01*
X86287304Y-82118729D02*
X86287304Y-70244999D01*
X85582303Y-82823730D02*
X86287304Y-82118729D01*
X85582303Y-82823730D02*
X95582303Y-82823730D01*
%TO.N,col3_row1*%
X105357302Y-80574731D02*
X105357302Y-68580000D01*
X104632303Y-81299730D02*
X105357302Y-80574731D01*
X104632303Y-81299730D02*
X114632303Y-81299730D01*
%TO.N,col4_row1*%
X124407302Y-81844731D02*
X124407302Y-69850000D01*
X123682303Y-82569730D02*
X124407302Y-81844731D01*
X123682303Y-82569730D02*
X133682303Y-82569730D01*
%TO.N,col5_row1*%
X143457302Y-84384731D02*
X143457302Y-72390000D01*
X142732303Y-85109730D02*
X143457302Y-84384731D01*
X142732303Y-85109730D02*
X152732303Y-85109730D01*
%TO.N,col0_row2*%
X48048999Y-104929001D02*
X48048999Y-92710000D01*
X47324000Y-105654000D02*
X48048999Y-104929001D01*
X47324000Y-105654000D02*
X57324000Y-105654000D01*
%TO.N,col1_row2*%
X67314230Y-102375231D02*
X67314230Y-90170000D01*
X66589231Y-103100230D02*
X67314230Y-102375231D01*
X66589231Y-103100230D02*
X76589231Y-103100230D01*
%TO.N,col2_row2*%
X86307302Y-101148731D02*
X86307302Y-88900000D01*
X85582303Y-101873730D02*
X86307302Y-101148731D01*
X85582303Y-101873730D02*
X95582303Y-101873730D01*
%TO.N,col3_row2*%
X105357302Y-99624731D02*
X105357302Y-87630000D01*
X104632303Y-100349730D02*
X105357302Y-99624731D01*
X104632303Y-100349730D02*
X114632303Y-100349730D01*
%TO.N,col4_row2*%
X124407302Y-100894731D02*
X124407302Y-88900000D01*
X123682303Y-101619730D02*
X124407302Y-100894731D01*
X123682303Y-101619730D02*
X133682303Y-101619730D01*
%TO.N,col5_row2*%
X143457302Y-103434731D02*
X143457302Y-91440000D01*
X142732303Y-104159730D02*
X143457302Y-103434731D01*
X142732303Y-104159730D02*
X152732303Y-104159730D01*
%TO.N,col0_row3*%
X48048999Y-123979001D02*
X48048999Y-111760000D01*
X47324000Y-124704000D02*
X48048999Y-123979001D01*
X52185002Y-124704000D02*
X57324000Y-124704000D01*
X47324000Y-124704000D02*
X52185002Y-124704000D01*
%TO.N,col1_row3*%
X67314230Y-124008731D02*
X67314230Y-111760000D01*
X66589231Y-124733730D02*
X67314230Y-124008731D01*
X66589231Y-124733730D02*
X76589231Y-124733730D01*
%TO.N,col2_row3*%
X86307302Y-124008731D02*
X86307302Y-111760000D01*
X85582303Y-124733730D02*
X86307302Y-124008731D01*
X85582303Y-124733730D02*
X95582303Y-124733730D01*
%TO.N,col3_row3*%
X105357302Y-124008731D02*
X105357302Y-111760000D01*
X104632303Y-124733730D02*
X105357302Y-124008731D01*
X104632303Y-124733730D02*
X114632303Y-124733730D01*
%TO.N,col4_row3*%
X124407302Y-124008731D02*
X124407302Y-111760000D01*
X123682303Y-124733730D02*
X124407302Y-124008731D01*
X123682303Y-124733730D02*
X133682303Y-124733730D01*
%TO.N,col5_row3*%
X142732303Y-124733730D02*
X152732303Y-124733730D01*
X143457302Y-124008731D02*
X143457302Y-111760000D01*
X142732303Y-124733730D02*
X143457302Y-124008731D01*
%TO.N,col2*%
X76027821Y-87630000D02*
X76332832Y-87324989D01*
X88181044Y-87324989D02*
X90582303Y-84923730D01*
X67529990Y-87630000D02*
X76027821Y-87630000D01*
X76332832Y-87324989D02*
X88181044Y-87324989D01*
X62767930Y-82867940D02*
X67529990Y-87630000D01*
X62767930Y-76131301D02*
X62767930Y-82867940D01*
X63969231Y-74930000D02*
X62767930Y-76131301D01*
%TO.N,col3*%
X108883302Y-84148731D02*
X109632303Y-83399730D01*
X89946302Y-83598729D02*
X94396300Y-83598729D01*
X87185031Y-86360000D02*
X89946302Y-83598729D01*
X76896400Y-86360000D02*
X87185031Y-86360000D01*
X75403228Y-84866828D02*
X76896400Y-86360000D01*
X70953230Y-84866828D02*
X75403228Y-84866828D01*
X70403228Y-85416830D02*
X70953230Y-84866828D01*
X94946302Y-84148731D02*
X108883302Y-84148731D01*
X94396300Y-83598729D02*
X94946302Y-84148731D01*
X63969231Y-83432831D02*
X65953230Y-85416830D01*
X65953230Y-85416830D02*
X70403228Y-85416830D01*
X63969231Y-77470000D02*
X63969231Y-83432831D01*
%TO.N,row0*%
X61679001Y-59690000D02*
X56599001Y-54610000D01*
X63969231Y-59690000D02*
X61679001Y-59690000D01*
X113907304Y-49019999D02*
X113907304Y-49530000D01*
X113907304Y-50040001D02*
X113907304Y-49019999D01*
X132957304Y-51310001D02*
X132957304Y-50800000D01*
X152007304Y-52829999D02*
X152007304Y-53340000D01*
X75864232Y-51559999D02*
X75864232Y-52070000D01*
X74399232Y-51494999D02*
X75799232Y-51494999D01*
X73849232Y-50944999D02*
X74399232Y-51494999D01*
X65444230Y-52649999D02*
X67149230Y-50944999D01*
X65444230Y-58215001D02*
X65444230Y-52649999D01*
X75799232Y-51494999D02*
X75864232Y-51559999D01*
X63969231Y-59690000D02*
X65444230Y-58215001D01*
X94857304Y-50289999D02*
X94857304Y-51310001D01*
X94242304Y-49674999D02*
X94857304Y-50289999D01*
X85086000Y-50731301D02*
X86142302Y-49674999D01*
X73728699Y-50731301D02*
X85086000Y-50731301D01*
X73515001Y-50944999D02*
X73728699Y-50731301D01*
X67149230Y-50944999D02*
X73515001Y-50944999D01*
X73515001Y-50944999D02*
X73849232Y-50944999D01*
X113292304Y-48404999D02*
X113907304Y-49019999D01*
X105192302Y-48404999D02*
X113292304Y-48404999D01*
X103922302Y-49674999D02*
X105192302Y-48404999D01*
X93835001Y-49674999D02*
X103922302Y-49674999D01*
X86142302Y-49674999D02*
X93835001Y-49674999D01*
X93835001Y-49674999D02*
X94242304Y-49674999D01*
X132957304Y-50289999D02*
X132957304Y-50800000D01*
X131072304Y-48404999D02*
X132957304Y-50289999D01*
X113292304Y-48404999D02*
X131072304Y-48404999D01*
X150720034Y-51542729D02*
X152007304Y-52829999D01*
X134210034Y-51542729D02*
X150720034Y-51542729D01*
X131072304Y-48404999D02*
X134210034Y-51542729D01*
%TO.N,row1*%
X56599001Y-73284999D02*
X56599001Y-73660000D01*
X62767930Y-63431301D02*
X62767930Y-67116070D01*
X63969231Y-62230000D02*
X62767930Y-63431301D01*
X75864232Y-70609999D02*
X75864232Y-71120000D01*
X75249232Y-69994999D02*
X75864232Y-70609999D01*
X67149230Y-69994999D02*
X75249232Y-69994999D01*
X66092928Y-71051301D02*
X67149230Y-69994999D01*
X62143254Y-71051301D02*
X66092928Y-71051301D01*
X61267555Y-71927000D02*
X62143254Y-71051301D01*
X57957000Y-71927000D02*
X61267555Y-71927000D01*
X62767930Y-67116070D02*
X57957000Y-71927000D01*
X57957000Y-71927000D02*
X56599001Y-73284999D01*
X94242304Y-68724999D02*
X94857304Y-69339999D01*
X94857304Y-69339999D02*
X94857304Y-69850000D01*
X86142302Y-68724999D02*
X94242304Y-68724999D01*
X83816000Y-71051301D02*
X86142302Y-68724999D01*
X76305534Y-71051301D02*
X83816000Y-71051301D01*
X75249232Y-69994999D02*
X76305534Y-71051301D01*
X113907304Y-68069999D02*
X113907304Y-68580000D01*
X113292304Y-67454999D02*
X113907304Y-68069999D01*
X94242304Y-68724999D02*
X95512304Y-67454999D01*
X132957304Y-69339999D02*
X132957304Y-69850000D01*
X112885001Y-67454999D02*
X131072304Y-67454999D01*
X131072304Y-67454999D02*
X132957304Y-69339999D01*
X95512304Y-67454999D02*
X112885001Y-67454999D01*
X112885001Y-67454999D02*
X113292304Y-67454999D01*
X152007304Y-71879999D02*
X152007304Y-72390000D01*
X151592304Y-71464999D02*
X152007304Y-71879999D01*
X147664999Y-71464999D02*
X151592304Y-71464999D01*
X143654999Y-67454999D02*
X147664999Y-71464999D01*
X131072304Y-67454999D02*
X143654999Y-67454999D01*
%TO.N,row2*%
X75864232Y-89659999D02*
X75864232Y-90170000D01*
X75249232Y-89044999D02*
X75864232Y-89659999D01*
X59889001Y-89044999D02*
X75249232Y-89044999D01*
X57322000Y-91612000D02*
X59889001Y-89044999D01*
X94857304Y-88389999D02*
X94857304Y-88900000D01*
X94242304Y-87774999D02*
X94857304Y-88389999D01*
X76519232Y-87774999D02*
X94242304Y-87774999D01*
X75249232Y-89044999D02*
X76519232Y-87774999D01*
X113907304Y-87119999D02*
X113907304Y-87630000D01*
X113292304Y-86504999D02*
X113907304Y-87119999D01*
X95512304Y-86504999D02*
X113292304Y-86504999D01*
X94242304Y-87774999D02*
X95512304Y-86504999D01*
X132957304Y-88389999D02*
X132957304Y-88900000D01*
X113292304Y-86504999D02*
X131072304Y-86504999D01*
X152007304Y-90929999D02*
X152007304Y-91440000D01*
X133102035Y-88534731D02*
X149612036Y-88534731D01*
X149612036Y-88534731D02*
X152007304Y-90929999D01*
X132138652Y-87571348D02*
X133102035Y-88534731D01*
X131072304Y-86504999D02*
X132138652Y-87571348D01*
X132138652Y-87571348D02*
X132957304Y-88389999D01*
%TO.N,BAT0*%
X78904220Y-49224989D02*
X79209231Y-49530000D01*
X72695011Y-49224989D02*
X78904220Y-49224989D01*
X72390000Y-49530000D02*
X72695011Y-49224989D01*
%TD*%
M02*
