M48
; DRILL file {KiCad 5.1.9} date Thu Jan  7 06:41:03 2021
; FORMAT={-:-/ absolute / inch / decimal}
; #@! TF.CreationDate,2021-01-07T06:41:03-06:00
; #@! TF.GenerationSoftware,Kicad,Pcbnew,5.1.9
FMAT,2
INCH
T1C0.0157
T2C0.0394
T3C0.0430
T4C0.0472
T5C0.0315
T6C0.0354
T7C0.0472
T8C0.0669
T9C0.1339
%
G90
G05
T1
X2.2047Y-4.3453
X2.2568Y-3.6068
X2.3907Y-1.9593
X2.4Y-2.8
X2.4Y-2.8
X3.25Y-1.95
X3.35Y-1.95
T2
X1.9065Y-2.15
X1.9065Y-2.9
X1.9065Y-3.65
X1.9065Y-4.4
X2.2135Y-2.15
X2.2135Y-2.9
X2.2135Y-3.65
X2.2135Y-4.4
X2.6649Y-2.05
X2.6649Y-2.8
X2.6649Y-3.55
X2.6649Y-4.4
X2.8Y-1.95
X2.9Y-1.95
X2.972Y-2.05
X2.972Y-2.8
X2.972Y-3.55
X2.972Y-4.4
X3.4127Y-2.0
X3.4127Y-2.75
X3.4127Y-3.5
X3.4127Y-4.4
X3.7198Y-2.0
X3.7198Y-2.75
X3.7198Y-3.5
X3.7198Y-4.4
X4.1627Y-1.95
X4.1627Y-2.7
X4.1627Y-3.45
X4.1627Y-4.4
X4.4698Y-1.95
X4.4698Y-2.7
X4.4698Y-3.45
X4.4698Y-4.4
X4.9127Y-2.0
X4.9127Y-2.75
X4.9127Y-3.5
X4.9127Y-4.4
X5.2198Y-2.0
X5.2198Y-2.75
X5.2198Y-3.5
X5.2198Y-4.4
X5.6627Y-2.1
X5.6627Y-2.85
X5.6627Y-3.6
X5.6627Y-4.4
X5.9698Y-2.1
X5.9698Y-2.85
X5.9698Y-3.6
X5.9698Y-4.4
T3
X2.5185Y-1.95
X2.5185Y-2.05
X2.5185Y-2.15
X2.5185Y-2.25
X2.5185Y-2.35
X2.5185Y-2.45
X2.5185Y-2.55
X2.5185Y-2.65
X2.5185Y-2.75
X2.5185Y-2.85
X2.5185Y-2.95
X2.5185Y-3.05
X3.1185Y-1.95
X3.1185Y-2.05
X3.1185Y-2.15
X3.1185Y-2.25
X3.1185Y-2.35
X3.1185Y-2.45
X3.1185Y-2.55
X3.1185Y-2.65
X3.1185Y-2.75
X3.1185Y-2.85
X3.1185Y-2.95
X3.1185Y-3.05
T4
X1.8531Y-3.4096
X1.8631Y-2.6596
X1.8631Y-4.1596
X1.8631Y-4.9096
X2.05Y-3.4923
X2.06Y-2.7423
X2.06Y-4.2423
X2.06Y-4.9923
X2.2469Y-3.4096
X2.2569Y-2.6596
X2.2569Y-4.1596
X2.2569Y-4.9096
X2.6216Y-2.5608
X2.6216Y-3.3107
X2.6216Y-4.0591
X2.6216Y-4.9108
X2.8185Y-2.6435
X2.8185Y-3.3934
X2.8185Y-4.1417
X2.8185Y-4.9935
X3.0153Y-2.5608
X3.0153Y-3.3107
X3.0153Y-4.0591
X3.0153Y-4.9108
X3.3694Y-2.5008
X3.3694Y-3.2608
X3.3694Y-4.0108
X3.3694Y-4.9108
X3.5662Y-2.5835
X3.5662Y-3.3435
X3.5662Y-4.0935
X3.5662Y-4.9935
X3.7631Y-2.5008
X3.7631Y-3.2608
X3.7631Y-4.0108
X3.7631Y-4.9108
X4.1194Y-2.4508
X4.1194Y-3.2008
X4.1194Y-3.9508
X4.1194Y-4.9108
X4.3162Y-2.5335
X4.3162Y-3.2835
X4.3162Y-4.0335
X4.3162Y-4.9935
X4.5131Y-2.4508
X4.5131Y-3.2008
X4.5131Y-3.9508
X4.5131Y-4.9108
X4.8694Y-2.5008
X4.8694Y-3.2508
X4.8694Y-4.0008
X4.8694Y-4.9108
X5.0662Y-2.5835
X5.0662Y-3.3335
X5.0662Y-4.0835
X5.0662Y-4.9935
X5.2631Y-2.5008
X5.2631Y-3.2508
X5.2631Y-4.0008
X5.2631Y-4.9108
X5.6194Y-2.6008
X5.6194Y-3.3508
X5.6194Y-4.1008
X5.6194Y-4.9108
X5.8162Y-2.6835
X5.8162Y-3.4335
X5.8162Y-4.1835
X5.8162Y-4.9935
X6.0131Y-2.6008
X6.0131Y-3.3508
X6.0131Y-4.1008
X6.0131Y-4.9108
T5
X3.35Y-1.87
X3.35Y-1.87
T6
X2.1409Y-1.897
X2.1409Y-1.897
X2.2591Y-1.897
X2.2591Y-1.897
T7
X1.8445Y-3.0946
X1.8545Y-2.3446
X1.8545Y-3.8446
X1.8545Y-4.5946
X2.2555Y-3.0946
X2.2655Y-2.3446
X2.2655Y-3.8446
X2.2655Y-4.5946
X2.613Y-2.2458
X2.613Y-2.9957
X2.613Y-3.7441
X2.613Y-4.5958
X3.024Y-2.2458
X3.024Y-2.9957
X3.024Y-3.7441
X3.024Y-4.5958
X3.3607Y-2.1858
X3.3607Y-2.9458
X3.3607Y-3.6958
X3.3607Y-4.5958
X3.7717Y-2.1858
X3.7717Y-2.9458
X3.7717Y-3.6958
X3.7717Y-4.5958
X4.1107Y-2.1358
X4.1107Y-2.8858
X4.1107Y-3.6358
X4.1107Y-4.5958
X4.5217Y-2.1358
X4.5217Y-2.8858
X4.5217Y-3.6358
X4.5217Y-4.5958
X4.8607Y-2.1858
X4.8607Y-2.9358
X4.8607Y-3.6858
X4.8607Y-4.5958
X5.2717Y-2.1858
X5.2717Y-2.9358
X5.2717Y-3.6858
X5.2717Y-4.5958
X5.6107Y-2.2858
X5.6107Y-3.0358
X5.6107Y-3.7858
X5.6107Y-4.5958
X6.0217Y-2.2858
X6.0217Y-3.0358
X6.0217Y-3.7858
X6.0217Y-4.5958
T8
X1.8335Y-3.26
X1.8435Y-2.51
X1.8435Y-4.01
X1.8435Y-4.76
X2.2665Y-3.26
X2.2765Y-2.51
X2.2765Y-4.01
X2.2765Y-4.76
X2.6019Y-2.4112
X2.6019Y-3.1611
X2.6019Y-3.9095
X2.6019Y-4.7612
X3.035Y-2.4112
X3.035Y-3.1611
X3.035Y-3.9095
X3.035Y-4.7612
X3.3497Y-2.3512
X3.3497Y-3.1112
X3.3497Y-3.8612
X3.3497Y-4.7612
X3.7828Y-2.3512
X3.7828Y-3.1112
X3.7828Y-3.8612
X3.7828Y-4.7612
X4.0997Y-2.3012
X4.0997Y-3.0512
X4.0997Y-3.8012
X4.0997Y-4.7612
X4.5328Y-2.3012
X4.5328Y-3.0512
X4.5328Y-3.8012
X4.5328Y-4.7612
X4.8497Y-2.3512
X4.8497Y-3.1012
X4.8497Y-3.8512
X4.8497Y-4.7612
X5.2828Y-2.3512
X5.2828Y-3.1012
X5.2828Y-3.8512
X5.2828Y-4.7612
X5.5997Y-2.4512
X5.5997Y-3.2012
X5.5997Y-3.9512
X5.5997Y-4.7612
X6.0328Y-2.4512
X6.0328Y-3.2012
X6.0328Y-3.9512
X6.0328Y-4.7612
T9
X2.05Y-3.26
X2.06Y-2.51
X2.06Y-4.01
X2.06Y-4.76
X2.8185Y-2.4112
X2.8185Y-3.1611
X2.8185Y-3.9095
X2.8185Y-4.7612
X3.5662Y-2.3512
X3.5662Y-3.1112
X3.5662Y-3.8612
X3.5662Y-4.7612
X4.3162Y-2.3012
X4.3162Y-3.0512
X4.3162Y-3.8012
X4.3162Y-4.7612
X5.0662Y-2.3512
X5.0662Y-3.1012
X5.0662Y-3.8512
X5.0662Y-4.7612
X5.8162Y-2.4512
X5.8162Y-3.2012
X5.8162Y-3.9512
X5.8162Y-4.7612
T0
M30
