%TF.GenerationSoftware,KiCad,Pcbnew,5.1.9*%
%TF.CreationDate,2021-01-06T19:10:31-06:00*%
%TF.ProjectId,halfboard,68616c66-626f-4617-9264-2e6b69636164,rev?*%
%TF.SameCoordinates,Original*%
%TF.FileFunction,Other,ECO2*%
%FSLAX46Y46*%
G04 Gerber Fmt 4.6, Leading zero omitted, Abs format (unit mm)*
G04 Created by KiCad (PCBNEW 5.1.9) date 2021-01-06 19:10:31*
%MOMM*%
%LPD*%
G01*
G04 APERTURE LIST*
%ADD10C,0.152400*%
G04 APERTURE END LIST*
D10*
%TO.C, *%
X155232303Y-54759730D02*
X155232303Y-69759730D01*
X140232303Y-54759730D02*
X155232303Y-54759730D01*
X140232303Y-69759730D02*
X140232303Y-54759730D01*
X155232303Y-69759730D02*
X140232303Y-69759730D01*
X155232303Y-73809730D02*
X155232303Y-88809730D01*
X140232303Y-73809730D02*
X155232303Y-73809730D01*
X140232303Y-88809730D02*
X140232303Y-73809730D01*
X155232303Y-88809730D02*
X140232303Y-88809730D01*
X155232303Y-92859730D02*
X155232303Y-107859730D01*
X140232303Y-92859730D02*
X155232303Y-92859730D01*
X140232303Y-107859730D02*
X140232303Y-92859730D01*
X155232303Y-107859730D02*
X140232303Y-107859730D01*
X155232303Y-113433730D02*
X155232303Y-128433730D01*
X140232303Y-113433730D02*
X155232303Y-113433730D01*
X140232303Y-128433730D02*
X140232303Y-113433730D01*
X155232303Y-128433730D02*
X140232303Y-128433730D01*
X136182303Y-113433730D02*
X136182303Y-128433730D01*
X121182303Y-113433730D02*
X136182303Y-113433730D01*
X121182303Y-128433730D02*
X121182303Y-113433730D01*
X136182303Y-128433730D02*
X121182303Y-128433730D01*
X117132303Y-113433730D02*
X117132303Y-128433730D01*
X102132303Y-113433730D02*
X117132303Y-113433730D01*
X102132303Y-128433730D02*
X102132303Y-113433730D01*
X117132303Y-128433730D02*
X102132303Y-128433730D01*
X98082303Y-113433730D02*
X98082303Y-128433730D01*
X83082303Y-113433730D02*
X98082303Y-113433730D01*
X83082303Y-128433730D02*
X83082303Y-113433730D01*
X98082303Y-128433730D02*
X83082303Y-128433730D01*
X136182303Y-90319730D02*
X136182303Y-105319730D01*
X121182303Y-90319730D02*
X136182303Y-90319730D01*
X121182303Y-105319730D02*
X121182303Y-90319730D01*
X136182303Y-105319730D02*
X121182303Y-105319730D01*
X136182303Y-71269730D02*
X136182303Y-86269730D01*
X121182303Y-71269730D02*
X136182303Y-71269730D01*
X121182303Y-86269730D02*
X121182303Y-71269730D01*
X136182303Y-86269730D02*
X121182303Y-86269730D01*
X136182303Y-52219730D02*
X136182303Y-67219730D01*
X121182303Y-52219730D02*
X136182303Y-52219730D01*
X121182303Y-67219730D02*
X121182303Y-52219730D01*
X136182303Y-67219730D02*
X121182303Y-67219730D01*
X117132303Y-50949730D02*
X117132303Y-65949730D01*
X102132303Y-50949730D02*
X117132303Y-50949730D01*
X102132303Y-65949730D02*
X102132303Y-50949730D01*
X117132303Y-65949730D02*
X102132303Y-65949730D01*
X117132303Y-69999730D02*
X117132303Y-84999730D01*
X102132303Y-69999730D02*
X117132303Y-69999730D01*
X102132303Y-84999730D02*
X102132303Y-69999730D01*
X117132303Y-84999730D02*
X102132303Y-84999730D01*
X117132303Y-89049730D02*
X117132303Y-104049730D01*
X102132303Y-89049730D02*
X117132303Y-89049730D01*
X102132303Y-104049730D02*
X102132303Y-89049730D01*
X117132303Y-104049730D02*
X102132303Y-104049730D01*
X98082303Y-90573730D02*
X98082303Y-105573730D01*
X83082303Y-90573730D02*
X98082303Y-90573730D01*
X83082303Y-105573730D02*
X83082303Y-90573730D01*
X98082303Y-105573730D02*
X83082303Y-105573730D01*
X98082303Y-71523730D02*
X98082303Y-86523730D01*
X83082303Y-71523730D02*
X98082303Y-71523730D01*
X83082303Y-86523730D02*
X83082303Y-71523730D01*
X98082303Y-86523730D02*
X83082303Y-86523730D01*
X98082303Y-52219730D02*
X98082303Y-67219730D01*
X83082303Y-52219730D02*
X98082303Y-52219730D01*
X83082303Y-67219730D02*
X83082303Y-52219730D01*
X98082303Y-67219730D02*
X83082303Y-67219730D01*
X79089231Y-53743730D02*
X79089231Y-68743730D01*
X64089231Y-53743730D02*
X79089231Y-53743730D01*
X64089231Y-68743730D02*
X64089231Y-53743730D01*
X79089231Y-68743730D02*
X64089231Y-68743730D01*
X79089231Y-72791829D02*
X79089231Y-87791829D01*
X64089231Y-72791829D02*
X79089231Y-72791829D01*
X64089231Y-87791829D02*
X64089231Y-72791829D01*
X79089231Y-87791829D02*
X64089231Y-87791829D01*
X79089231Y-91800230D02*
X79089231Y-106800230D01*
X64089231Y-91800230D02*
X79089231Y-91800230D01*
X64089231Y-106800230D02*
X64089231Y-91800230D01*
X79089231Y-106800230D02*
X64089231Y-106800230D01*
X79089231Y-113433730D02*
X79089231Y-128433730D01*
X64089231Y-113433730D02*
X79089231Y-113433730D01*
X64089231Y-128433730D02*
X64089231Y-113433730D01*
X79089231Y-128433730D02*
X64089231Y-128433730D01*
X59824000Y-113404000D02*
X59824000Y-128404000D01*
X44824000Y-113404000D02*
X59824000Y-113404000D01*
X44824000Y-128404000D02*
X44824000Y-113404000D01*
X59824000Y-128404000D02*
X44824000Y-128404000D01*
X59824000Y-94354000D02*
X59824000Y-109354000D01*
X44824000Y-94354000D02*
X59824000Y-94354000D01*
X44824000Y-109354000D02*
X44824000Y-94354000D01*
X59824000Y-109354000D02*
X44824000Y-109354000D01*
X59570000Y-75304000D02*
X59570000Y-90304000D01*
X44570000Y-75304000D02*
X59570000Y-75304000D01*
X44570000Y-90304000D02*
X44570000Y-75304000D01*
X59570000Y-90304000D02*
X44570000Y-90304000D01*
X59824000Y-56254000D02*
X59824000Y-71254000D01*
X44824000Y-56254000D02*
X59824000Y-56254000D01*
X44824000Y-71254000D02*
X44824000Y-56254000D01*
X59824000Y-71254000D02*
X44824000Y-71254000D01*
%TD*%
M02*
