G04 #@! TF.GenerationSoftware,KiCad,Pcbnew,5.1.9*
G04 #@! TF.CreationDate,2021-01-07T06:38:00-06:00*
G04 #@! TF.ProjectId,halfboard-bottom,68616c66-626f-4617-9264-2d626f74746f,rev?*
G04 #@! TF.SameCoordinates,Original*
G04 #@! TF.FileFunction,Copper,L1,Top*
G04 #@! TF.FilePolarity,Positive*
%FSLAX46Y46*%
G04 Gerber Fmt 4.6, Leading zero omitted, Abs format (unit mm)*
G04 Created by KiCad (PCBNEW 5.1.9) date 2021-01-07 06:38:00*
%MOMM*%
%LPD*%
G01*
G04 APERTURE LIST*
G04 #@! TA.AperFunction,NonConductor*
%ADD10C,0.150000*%
G04 #@! TD*
G04 APERTURE END LIST*
D10*
X99465238Y-93162380D02*
X99465238Y-92162380D01*
X99465238Y-92638571D02*
X100036666Y-92638571D01*
X100036666Y-93162380D02*
X100036666Y-92162380D01*
X100941428Y-93162380D02*
X100941428Y-92638571D01*
X100893809Y-92543333D01*
X100798571Y-92495714D01*
X100608095Y-92495714D01*
X100512857Y-92543333D01*
X100941428Y-93114761D02*
X100846190Y-93162380D01*
X100608095Y-93162380D01*
X100512857Y-93114761D01*
X100465238Y-93019523D01*
X100465238Y-92924285D01*
X100512857Y-92829047D01*
X100608095Y-92781428D01*
X100846190Y-92781428D01*
X100941428Y-92733809D01*
X101560476Y-93162380D02*
X101465238Y-93114761D01*
X101417619Y-93019523D01*
X101417619Y-92162380D01*
X101798571Y-92495714D02*
X102179523Y-92495714D01*
X101941428Y-93162380D02*
X101941428Y-92305238D01*
X101989047Y-92210000D01*
X102084285Y-92162380D01*
X102179523Y-92162380D01*
X102512857Y-93162380D02*
X102512857Y-92162380D01*
X102512857Y-92543333D02*
X102608095Y-92495714D01*
X102798571Y-92495714D01*
X102893809Y-92543333D01*
X102941428Y-92590952D01*
X102989047Y-92686190D01*
X102989047Y-92971904D01*
X102941428Y-93067142D01*
X102893809Y-93114761D01*
X102798571Y-93162380D01*
X102608095Y-93162380D01*
X102512857Y-93114761D01*
X103560476Y-93162380D02*
X103465238Y-93114761D01*
X103417619Y-93067142D01*
X103370000Y-92971904D01*
X103370000Y-92686190D01*
X103417619Y-92590952D01*
X103465238Y-92543333D01*
X103560476Y-92495714D01*
X103703333Y-92495714D01*
X103798571Y-92543333D01*
X103846190Y-92590952D01*
X103893809Y-92686190D01*
X103893809Y-92971904D01*
X103846190Y-93067142D01*
X103798571Y-93114761D01*
X103703333Y-93162380D01*
X103560476Y-93162380D01*
X104750952Y-93162380D02*
X104750952Y-92638571D01*
X104703333Y-92543333D01*
X104608095Y-92495714D01*
X104417619Y-92495714D01*
X104322380Y-92543333D01*
X104750952Y-93114761D02*
X104655714Y-93162380D01*
X104417619Y-93162380D01*
X104322380Y-93114761D01*
X104274761Y-93019523D01*
X104274761Y-92924285D01*
X104322380Y-92829047D01*
X104417619Y-92781428D01*
X104655714Y-92781428D01*
X104750952Y-92733809D01*
X105227142Y-93162380D02*
X105227142Y-92495714D01*
X105227142Y-92686190D02*
X105274761Y-92590952D01*
X105322380Y-92543333D01*
X105417619Y-92495714D01*
X105512857Y-92495714D01*
X106274761Y-93162380D02*
X106274761Y-92162380D01*
X106274761Y-93114761D02*
X106179523Y-93162380D01*
X105989047Y-93162380D01*
X105893809Y-93114761D01*
X105846190Y-93067142D01*
X105798571Y-92971904D01*
X105798571Y-92686190D01*
X105846190Y-92590952D01*
X105893809Y-92543333D01*
X105989047Y-92495714D01*
X106179523Y-92495714D01*
X106274761Y-92543333D01*
M02*
