G04 #@! TF.GenerationSoftware,KiCad,Pcbnew,5.1.9*
G04 #@! TF.CreationDate,2021-01-20T05:41:38-06:00*
G04 #@! TF.ProjectId,halfboard-top,68616c66-626f-4617-9264-2d746f702e6b,rev?*
G04 #@! TF.SameCoordinates,Original*
G04 #@! TF.FileFunction,Legend,Top*
G04 #@! TF.FilePolarity,Positive*
%FSLAX46Y46*%
G04 Gerber Fmt 4.6, Leading zero omitted, Abs format (unit mm)*
G04 Created by KiCad (PCBNEW 5.1.9) date 2021-01-20 05:41:38*
%MOMM*%
%LPD*%
G01*
G04 APERTURE LIST*
%ADD10C,0.150000*%
G04 APERTURE END LIST*
D10*
X157645493Y-58816761D02*
X157895493Y-56816761D01*
X157776445Y-57769142D02*
X158919302Y-57769142D01*
X158788350Y-58816761D02*
X159038350Y-56816761D01*
X160597874Y-58816761D02*
X160728826Y-57769142D01*
X160657398Y-57578666D01*
X160478826Y-57483428D01*
X160097874Y-57483428D01*
X159895493Y-57578666D01*
X160609779Y-58721523D02*
X160407398Y-58816761D01*
X159931207Y-58816761D01*
X159752636Y-58721523D01*
X159681207Y-58531047D01*
X159705017Y-58340571D01*
X159824064Y-58150095D01*
X160026445Y-58054857D01*
X160502636Y-58054857D01*
X160705017Y-57959619D01*
X161835969Y-58816761D02*
X161657398Y-58721523D01*
X161585969Y-58531047D01*
X161800255Y-56816761D01*
X162478826Y-57483428D02*
X163240731Y-57483428D01*
X162597874Y-58816761D02*
X162812160Y-57102476D01*
X162931207Y-56912000D01*
X163133588Y-56816761D01*
X163324064Y-56816761D01*
X163740731Y-58816761D02*
X163990731Y-56816761D01*
X163895493Y-57578666D02*
X164097874Y-57483428D01*
X164478826Y-57483428D01*
X164657398Y-57578666D01*
X164740731Y-57673904D01*
X164812160Y-57864380D01*
X164740731Y-58435809D01*
X164621683Y-58626285D01*
X164514541Y-58721523D01*
X164312160Y-58816761D01*
X163931207Y-58816761D01*
X163752636Y-58721523D01*
X165835969Y-58816761D02*
X165657398Y-58721523D01*
X165574064Y-58626285D01*
X165502636Y-58435809D01*
X165574064Y-57864380D01*
X165693112Y-57673904D01*
X165800255Y-57578666D01*
X166002636Y-57483428D01*
X166288350Y-57483428D01*
X166466922Y-57578666D01*
X166550255Y-57673904D01*
X166621683Y-57864380D01*
X166550255Y-58435809D01*
X166431207Y-58626285D01*
X166324064Y-58721523D01*
X166121683Y-58816761D01*
X165835969Y-58816761D01*
X168216922Y-58816761D02*
X168347874Y-57769142D01*
X168276445Y-57578666D01*
X168097874Y-57483428D01*
X167716922Y-57483428D01*
X167514541Y-57578666D01*
X168228826Y-58721523D02*
X168026445Y-58816761D01*
X167550255Y-58816761D01*
X167371683Y-58721523D01*
X167300255Y-58531047D01*
X167324064Y-58340571D01*
X167443112Y-58150095D01*
X167645493Y-58054857D01*
X168121683Y-58054857D01*
X168324064Y-57959619D01*
X169169302Y-58816761D02*
X169335969Y-57483428D01*
X169288350Y-57864380D02*
X169407398Y-57673904D01*
X169514541Y-57578666D01*
X169716922Y-57483428D01*
X169907398Y-57483428D01*
X171264541Y-58816761D02*
X171514541Y-56816761D01*
X171276445Y-58721523D02*
X171074064Y-58816761D01*
X170693112Y-58816761D01*
X170514541Y-58721523D01*
X170431207Y-58626285D01*
X170359779Y-58435809D01*
X170431207Y-57864380D01*
X170550255Y-57673904D01*
X170657398Y-57578666D01*
X170859779Y-57483428D01*
X171240731Y-57483428D01*
X171419302Y-57578666D01*
G04 #@! TO.C, *
G04 #@! TD*
M02*
