G04 #@! TF.GenerationSoftware,KiCad,Pcbnew,5.1.9*
G04 #@! TF.CreationDate,2021-01-19T21:18:27-06:00*
G04 #@! TF.ProjectId,halfboard-top,68616c66-626f-4617-9264-2d746f702e6b,rev?*
G04 #@! TF.SameCoordinates,Original*
G04 #@! TF.FileFunction,Profile,NP*
%FSLAX46Y46*%
G04 Gerber Fmt 4.6, Leading zero omitted, Abs format (unit mm)*
G04 Created by KiCad (PCBNEW 5.1.9) date 2021-01-19 21:18:27*
%MOMM*%
%LPD*%
G01*
G04 APERTURE LIST*
G04 #@! TA.AperFunction,Profile*
%ADD10C,0.050000*%
G04 #@! TD*
G04 APERTURE END LIST*
D10*
X62815969Y-63861270D02*
X76815969Y-63861270D01*
X76815969Y-63861270D02*
X76815969Y-77861270D01*
X76815969Y-77861270D02*
X62785969Y-77861270D01*
X62785969Y-77861270D02*
X62785969Y-63861270D01*
X62815969Y-121011270D02*
X76815969Y-121011270D01*
X76815969Y-121011270D02*
X76815969Y-135011270D01*
X76815969Y-135011270D02*
X62785969Y-135011270D01*
X62785969Y-135011270D02*
X62785969Y-121011270D01*
X62815969Y-102012070D02*
X76815969Y-102012070D01*
X76815969Y-102012070D02*
X76815969Y-116012070D01*
X76815969Y-116012070D02*
X62785969Y-116012070D01*
X62785969Y-116012070D02*
X62785969Y-102012070D01*
X62815969Y-82962070D02*
X76815969Y-82962070D01*
X76815969Y-82962070D02*
X76815969Y-96962070D01*
X76815969Y-96962070D02*
X62785969Y-96962070D01*
X62785969Y-96962070D02*
X62785969Y-82962070D01*
X119965969Y-58578070D02*
X133965969Y-58578070D01*
X133965969Y-58578070D02*
X133965969Y-72578070D01*
X133965969Y-72578070D02*
X119935969Y-72578070D01*
X119935969Y-72578070D02*
X119935969Y-58578070D01*
X139015969Y-59848070D02*
X153015969Y-59848070D01*
X153015969Y-59848070D02*
X153015969Y-73848070D01*
X153015969Y-73848070D02*
X138985969Y-73848070D01*
X138985969Y-73848070D02*
X138985969Y-59848070D01*
X158065969Y-62388070D02*
X172065969Y-62388070D01*
X172065969Y-62388070D02*
X172065969Y-76388070D01*
X172065969Y-76388070D02*
X158035969Y-76388070D01*
X158035969Y-76388070D02*
X158035969Y-62388070D01*
X158065969Y-81438070D02*
X172065969Y-81438070D01*
X172065969Y-81438070D02*
X172065969Y-95438070D01*
X172065969Y-95438070D02*
X158035969Y-95438070D01*
X158035969Y-95438070D02*
X158035969Y-81438070D01*
X139015969Y-78898070D02*
X153015969Y-78898070D01*
X153015969Y-78898070D02*
X153015969Y-92898070D01*
X153015969Y-92898070D02*
X138985969Y-92898070D01*
X138985969Y-92898070D02*
X138985969Y-78898070D01*
X119965969Y-77628070D02*
X133965969Y-77628070D01*
X133965969Y-77628070D02*
X133965969Y-91628070D01*
X133965969Y-91628070D02*
X119935969Y-91628070D01*
X119935969Y-91628070D02*
X119935969Y-77628070D01*
X100915969Y-79152070D02*
X114915969Y-79152070D01*
X114915969Y-79152070D02*
X114915969Y-93152070D01*
X114915969Y-93152070D02*
X100885969Y-93152070D01*
X100885969Y-93152070D02*
X100885969Y-79152070D01*
X81865969Y-80371270D02*
X95865969Y-80371270D01*
X95865969Y-80371270D02*
X95865969Y-94371270D01*
X95865969Y-94371270D02*
X81835969Y-94371270D01*
X81835969Y-94371270D02*
X81835969Y-80371270D01*
X81865969Y-99421270D02*
X95865969Y-99421270D01*
X95865969Y-99421270D02*
X95865969Y-113421270D01*
X95865969Y-113421270D02*
X81835969Y-113421270D01*
X81835969Y-113421270D02*
X81835969Y-99421270D01*
X100915969Y-98202070D02*
X114915969Y-98202070D01*
X114915969Y-98202070D02*
X114915969Y-112202070D01*
X114915969Y-112202070D02*
X100885969Y-112202070D01*
X100885969Y-112202070D02*
X100885969Y-98202070D01*
X119965969Y-96678070D02*
X133965969Y-96678070D01*
X133965969Y-96678070D02*
X133965969Y-110678070D01*
X133965969Y-110678070D02*
X119935969Y-110678070D01*
X119935969Y-110678070D02*
X119935969Y-96678070D01*
X139015969Y-97948070D02*
X153015969Y-97948070D01*
X153015969Y-97948070D02*
X153015969Y-111948070D01*
X153015969Y-111948070D02*
X138985969Y-111948070D01*
X138985969Y-111948070D02*
X138985969Y-97948070D01*
X158065969Y-100488070D02*
X172065969Y-100488070D01*
X172065969Y-100488070D02*
X172065969Y-114488070D01*
X172065969Y-114488070D02*
X158035969Y-114488070D01*
X158035969Y-114488070D02*
X158035969Y-100488070D01*
X158065969Y-121062070D02*
X172065969Y-121062070D01*
X172065969Y-121062070D02*
X172065969Y-135062070D01*
X172065969Y-135062070D02*
X158035969Y-135062070D01*
X158035969Y-135062070D02*
X158035969Y-121062070D01*
X139015969Y-121062070D02*
X153015969Y-121062070D01*
X153015969Y-121062070D02*
X153015969Y-135062070D01*
X153015969Y-135062070D02*
X138985969Y-135062070D01*
X138985969Y-135062070D02*
X138985969Y-121062070D01*
X119965969Y-121062070D02*
X133965969Y-121062070D01*
X133965969Y-121062070D02*
X133965969Y-135062070D01*
X133965969Y-135062070D02*
X119935969Y-135062070D01*
X119935969Y-135062070D02*
X119935969Y-121062070D01*
X100915969Y-121062070D02*
X114915969Y-121062070D01*
X114915969Y-121062070D02*
X114915969Y-135062070D01*
X114915969Y-135062070D02*
X100885969Y-135062070D01*
X100885969Y-135062070D02*
X100885969Y-121062070D01*
X81865969Y-121062070D02*
X95865969Y-121062070D01*
X95865969Y-121062070D02*
X95865969Y-135062070D01*
X95865969Y-135062070D02*
X81835969Y-135062070D01*
X81835969Y-135062070D02*
X81835969Y-121062070D01*
X100915969Y-60102070D02*
X114915969Y-60102070D01*
X114915969Y-60102070D02*
X114915969Y-74102070D01*
X114915969Y-74102070D02*
X100885969Y-74102070D01*
X100885969Y-74102070D02*
X100885969Y-60102070D01*
X81838800Y-75311000D02*
X81838800Y-61311000D01*
X81868800Y-61311000D02*
X95868800Y-61311000D01*
X95868800Y-75311000D02*
X81838800Y-75311000D01*
X95868800Y-61311000D02*
X95868800Y-75311000D01*
X62788800Y-96901000D02*
X62788800Y-82931000D01*
X62818800Y-82931000D02*
X76818800Y-82931000D01*
X76818800Y-82931000D02*
X76818800Y-96901000D01*
X62788800Y-115951000D02*
X62788800Y-101981000D01*
X62818800Y-101981000D02*
X76818800Y-101981000D01*
X76818800Y-101981000D02*
X76818800Y-115951000D01*
X62788800Y-135001000D02*
X62788800Y-121031000D01*
X76818800Y-135001000D02*
X62788800Y-135001000D01*
X76818800Y-121031000D02*
X76818800Y-135001000D01*
X62792300Y-77851000D02*
X62792300Y-63881000D01*
X76822300Y-77851000D02*
X62792300Y-77851000D01*
X76822300Y-63881000D02*
X76822300Y-77851000D01*
X60950595Y-140445910D02*
X173774854Y-140470666D01*
X176060767Y-138198777D02*
X176058733Y-54863999D01*
X58662800Y-54864001D02*
G75*
G02*
X60708868Y-52578002I2300067J0D01*
G01*
X173772820Y-52592110D02*
G75*
G02*
X176058733Y-54863999I13980J-2271890D01*
G01*
X173774854Y-140470666D02*
G75*
G03*
X176060767Y-138198777I13980J2271890D01*
G01*
X60950595Y-140445910D02*
G75*
G02*
X58662800Y-138174033I-15862J2271878D01*
G01*
X118434226Y-138174032D02*
G75*
G03*
X118434226Y-138174032I-1000000J0D01*
G01*
X62010800Y-99568000D02*
G75*
G03*
X62010800Y-99568000I-1000000J0D01*
G01*
X173772820Y-52592110D02*
X60708868Y-52578002D01*
X61934733Y-54864001D02*
G75*
G03*
X61934733Y-54864001I-1000000J0D01*
G01*
X174786800Y-138198776D02*
G75*
G03*
X174786800Y-138198776I-1000000J0D01*
G01*
X174786800Y-54864000D02*
G75*
G03*
X174786800Y-54864000I-1000000J0D01*
G01*
X61934733Y-138174032D02*
G75*
G03*
X61934733Y-138174032I-1000000J0D01*
G01*
X58662800Y-54864001D02*
X58662800Y-138174033D01*
X118434226Y-54864000D02*
G75*
G03*
X118434226Y-54864000I-1000000J0D01*
G01*
M02*
