G04 #@! TF.GenerationSoftware,KiCad,Pcbnew,5.1.9*
G04 #@! TF.CreationDate,2021-01-20T05:41:38-06:00*
G04 #@! TF.ProjectId,halfboard-top,68616c66-626f-4617-9264-2d746f702e6b,rev?*
G04 #@! TF.SameCoordinates,Original*
G04 #@! TF.FileFunction,Legend,Bot*
G04 #@! TF.FilePolarity,Positive*
%FSLAX46Y46*%
G04 Gerber Fmt 4.6, Leading zero omitted, Abs format (unit mm)*
G04 Created by KiCad (PCBNEW 5.1.9) date 2021-01-20 05:41:38*
%MOMM*%
%LPD*%
G01*
G04 APERTURE LIST*
%ADD10C,0.150000*%
G04 APERTURE END LIST*
D10*
X171640106Y-58816761D02*
X171390106Y-56816761D01*
X171509154Y-57769142D02*
X170366297Y-57769142D01*
X170497249Y-58816761D02*
X170247249Y-56816761D01*
X168687725Y-58816761D02*
X168556773Y-57769142D01*
X168628201Y-57578666D01*
X168806773Y-57483428D01*
X169187725Y-57483428D01*
X169390106Y-57578666D01*
X168675820Y-58721523D02*
X168878201Y-58816761D01*
X169354392Y-58816761D01*
X169532963Y-58721523D01*
X169604392Y-58531047D01*
X169580582Y-58340571D01*
X169461535Y-58150095D01*
X169259154Y-58054857D01*
X168782963Y-58054857D01*
X168580582Y-57959619D01*
X167449630Y-58816761D02*
X167628201Y-58721523D01*
X167699630Y-58531047D01*
X167485344Y-56816761D01*
X166806773Y-57483428D02*
X166044868Y-57483428D01*
X166687725Y-58816761D02*
X166473439Y-57102476D01*
X166354392Y-56912000D01*
X166152011Y-56816761D01*
X165961535Y-56816761D01*
X165544868Y-58816761D02*
X165294868Y-56816761D01*
X165390106Y-57578666D02*
X165187725Y-57483428D01*
X164806773Y-57483428D01*
X164628201Y-57578666D01*
X164544868Y-57673904D01*
X164473439Y-57864380D01*
X164544868Y-58435809D01*
X164663916Y-58626285D01*
X164771058Y-58721523D01*
X164973439Y-58816761D01*
X165354392Y-58816761D01*
X165532963Y-58721523D01*
X163449630Y-58816761D02*
X163628201Y-58721523D01*
X163711535Y-58626285D01*
X163782963Y-58435809D01*
X163711535Y-57864380D01*
X163592487Y-57673904D01*
X163485344Y-57578666D01*
X163282963Y-57483428D01*
X162997249Y-57483428D01*
X162818677Y-57578666D01*
X162735344Y-57673904D01*
X162663916Y-57864380D01*
X162735344Y-58435809D01*
X162854392Y-58626285D01*
X162961535Y-58721523D01*
X163163916Y-58816761D01*
X163449630Y-58816761D01*
X161068677Y-58816761D02*
X160937725Y-57769142D01*
X161009154Y-57578666D01*
X161187725Y-57483428D01*
X161568677Y-57483428D01*
X161771058Y-57578666D01*
X161056773Y-58721523D02*
X161259154Y-58816761D01*
X161735344Y-58816761D01*
X161913916Y-58721523D01*
X161985344Y-58531047D01*
X161961535Y-58340571D01*
X161842487Y-58150095D01*
X161640106Y-58054857D01*
X161163916Y-58054857D01*
X160961535Y-57959619D01*
X160116297Y-58816761D02*
X159949630Y-57483428D01*
X159997249Y-57864380D02*
X159878201Y-57673904D01*
X159771058Y-57578666D01*
X159568677Y-57483428D01*
X159378201Y-57483428D01*
X158021058Y-58816761D02*
X157771058Y-56816761D01*
X158009154Y-58721523D02*
X158211535Y-58816761D01*
X158592487Y-58816761D01*
X158771058Y-58721523D01*
X158854392Y-58626285D01*
X158925820Y-58435809D01*
X158854392Y-57864380D01*
X158735344Y-57673904D01*
X158628201Y-57578666D01*
X158425820Y-57483428D01*
X158044868Y-57483428D01*
X157866297Y-57578666D01*
G04 #@! TO.C, *
G04 #@! TD*
M02*
