G04 #@! TF.GenerationSoftware,KiCad,Pcbnew,5.1.9*
G04 #@! TF.CreationDate,2021-01-10T11:47:33-06:00*
G04 #@! TF.ProjectId,halfboard,68616c66-626f-4617-9264-2e6b69636164,rev?*
G04 #@! TF.SameCoordinates,Original*
G04 #@! TF.FileFunction,Copper,L2,Bot*
G04 #@! TF.FilePolarity,Positive*
%FSLAX46Y46*%
G04 Gerber Fmt 4.6, Leading zero omitted, Abs format (unit mm)*
G04 Created by KiCad (PCBNEW 5.1.9) date 2021-01-10 11:47:33*
%MOMM*%
%LPD*%
G01*
G04 APERTURE LIST*
G04 #@! TA.AperFunction,EtchedComponent*
%ADD10C,0.100000*%
G04 #@! TD*
G04 #@! TA.AperFunction,SMDPad,CuDef*
%ADD11R,2.900000X0.500000*%
G04 #@! TD*
G04 #@! TA.AperFunction,SMDPad,CuDef*
%ADD12R,1.600000X1.200000*%
G04 #@! TD*
G04 #@! TA.AperFunction,ComponentPad*
%ADD13C,1.600000*%
G04 #@! TD*
G04 #@! TA.AperFunction,ComponentPad*
%ADD14R,1.600000X1.600000*%
G04 #@! TD*
G04 #@! TA.AperFunction,ComponentPad*
%ADD15C,2.000000*%
G04 #@! TD*
G04 #@! TA.AperFunction,ComponentPad*
%ADD16R,1.500000X2.300000*%
G04 #@! TD*
G04 #@! TA.AperFunction,ComponentPad*
%ADD17O,2.300000X3.337000*%
G04 #@! TD*
G04 #@! TA.AperFunction,ComponentPad*
%ADD18C,2.286000*%
G04 #@! TD*
G04 #@! TA.AperFunction,ComponentPad*
%ADD19C,2.500000*%
G04 #@! TD*
G04 #@! TA.AperFunction,ComponentPad*
%ADD20C,2.200000*%
G04 #@! TD*
G04 #@! TA.AperFunction,ComponentPad*
%ADD21R,1.752600X1.752600*%
G04 #@! TD*
G04 #@! TA.AperFunction,ComponentPad*
%ADD22C,1.752600*%
G04 #@! TD*
G04 #@! TA.AperFunction,ComponentPad*
%ADD23O,1.700000X1.700000*%
G04 #@! TD*
G04 #@! TA.AperFunction,ComponentPad*
%ADD24R,1.700000X1.700000*%
G04 #@! TD*
G04 #@! TA.AperFunction,SMDPad,CuDef*
%ADD25R,0.700000X1.500000*%
G04 #@! TD*
G04 #@! TA.AperFunction,SMDPad,CuDef*
%ADD26R,1.000000X0.800000*%
G04 #@! TD*
G04 #@! TA.AperFunction,SMDPad,CuDef*
%ADD27R,0.900000X1.700000*%
G04 #@! TD*
G04 #@! TA.AperFunction,ViaPad*
%ADD28C,0.800000*%
G04 #@! TD*
G04 #@! TA.AperFunction,Conductor*
%ADD29C,0.250000*%
G04 #@! TD*
G04 APERTURE END LIST*
D10*
G04 #@! TO.C, *
G36*
X46565800Y-57815480D02*
G01*
X48674000Y-59923680D01*
X49182000Y-59415680D01*
X49182000Y-60121800D01*
X46565800Y-60121800D01*
X46565800Y-57815480D01*
G37*
X46565800Y-57815480D02*
X48674000Y-59923680D01*
X49182000Y-59415680D01*
X49182000Y-60121800D01*
X46565800Y-60121800D01*
X46565800Y-57815480D01*
G36*
X49588400Y-58267600D02*
G01*
X49182000Y-58674000D01*
X49182000Y-59055000D01*
X48674000Y-59563000D01*
X48166000Y-59055000D01*
X48166000Y-58039000D01*
X48470800Y-57734200D01*
X49588400Y-57734200D01*
X49588400Y-58267600D01*
G37*
X49588400Y-58267600D02*
X49182000Y-58674000D01*
X49182000Y-59055000D01*
X48674000Y-59563000D01*
X48166000Y-59055000D01*
X48166000Y-58039000D01*
X48470800Y-57734200D01*
X49588400Y-57734200D01*
X49588400Y-58267600D01*
G36*
X141814103Y-56321210D02*
G01*
X143922303Y-58429410D01*
X144430303Y-57921410D01*
X144430303Y-58627530D01*
X141814103Y-58627530D01*
X141814103Y-56321210D01*
G37*
X141814103Y-56321210D02*
X143922303Y-58429410D01*
X144430303Y-57921410D01*
X144430303Y-58627530D01*
X141814103Y-58627530D01*
X141814103Y-56321210D01*
G36*
X144836703Y-56773330D02*
G01*
X144430303Y-57179730D01*
X144430303Y-57560730D01*
X143922303Y-58068730D01*
X143414303Y-57560730D01*
X143414303Y-56544730D01*
X143719103Y-56239930D01*
X144836703Y-56239930D01*
X144836703Y-56773330D01*
G37*
X144836703Y-56773330D02*
X144430303Y-57179730D01*
X144430303Y-57560730D01*
X143922303Y-58068730D01*
X143414303Y-57560730D01*
X143414303Y-56544730D01*
X143719103Y-56239930D01*
X144836703Y-56239930D01*
X144836703Y-56773330D01*
G36*
X141814103Y-75371210D02*
G01*
X143922303Y-77479410D01*
X144430303Y-76971410D01*
X144430303Y-77677530D01*
X141814103Y-77677530D01*
X141814103Y-75371210D01*
G37*
X141814103Y-75371210D02*
X143922303Y-77479410D01*
X144430303Y-76971410D01*
X144430303Y-77677530D01*
X141814103Y-77677530D01*
X141814103Y-75371210D01*
G36*
X144836703Y-75823330D02*
G01*
X144430303Y-76229730D01*
X144430303Y-76610730D01*
X143922303Y-77118730D01*
X143414303Y-76610730D01*
X143414303Y-75594730D01*
X143719103Y-75289930D01*
X144836703Y-75289930D01*
X144836703Y-75823330D01*
G37*
X144836703Y-75823330D02*
X144430303Y-76229730D01*
X144430303Y-76610730D01*
X143922303Y-77118730D01*
X143414303Y-76610730D01*
X143414303Y-75594730D01*
X143719103Y-75289930D01*
X144836703Y-75289930D01*
X144836703Y-75823330D01*
G36*
X141814103Y-94421210D02*
G01*
X143922303Y-96529410D01*
X144430303Y-96021410D01*
X144430303Y-96727530D01*
X141814103Y-96727530D01*
X141814103Y-94421210D01*
G37*
X141814103Y-94421210D02*
X143922303Y-96529410D01*
X144430303Y-96021410D01*
X144430303Y-96727530D01*
X141814103Y-96727530D01*
X141814103Y-94421210D01*
G36*
X144836703Y-94873330D02*
G01*
X144430303Y-95279730D01*
X144430303Y-95660730D01*
X143922303Y-96168730D01*
X143414303Y-95660730D01*
X143414303Y-94644730D01*
X143719103Y-94339930D01*
X144836703Y-94339930D01*
X144836703Y-94873330D01*
G37*
X144836703Y-94873330D02*
X144430303Y-95279730D01*
X144430303Y-95660730D01*
X143922303Y-96168730D01*
X143414303Y-95660730D01*
X143414303Y-94644730D01*
X143719103Y-94339930D01*
X144836703Y-94339930D01*
X144836703Y-94873330D01*
G36*
X141814103Y-114995210D02*
G01*
X143922303Y-117103410D01*
X144430303Y-116595410D01*
X144430303Y-117301530D01*
X141814103Y-117301530D01*
X141814103Y-114995210D01*
G37*
X141814103Y-114995210D02*
X143922303Y-117103410D01*
X144430303Y-116595410D01*
X144430303Y-117301530D01*
X141814103Y-117301530D01*
X141814103Y-114995210D01*
G36*
X144836703Y-115447330D02*
G01*
X144430303Y-115853730D01*
X144430303Y-116234730D01*
X143922303Y-116742730D01*
X143414303Y-116234730D01*
X143414303Y-115218730D01*
X143719103Y-114913930D01*
X144836703Y-114913930D01*
X144836703Y-115447330D01*
G37*
X144836703Y-115447330D02*
X144430303Y-115853730D01*
X144430303Y-116234730D01*
X143922303Y-116742730D01*
X143414303Y-116234730D01*
X143414303Y-115218730D01*
X143719103Y-114913930D01*
X144836703Y-114913930D01*
X144836703Y-115447330D01*
G36*
X122764103Y-114995210D02*
G01*
X124872303Y-117103410D01*
X125380303Y-116595410D01*
X125380303Y-117301530D01*
X122764103Y-117301530D01*
X122764103Y-114995210D01*
G37*
X122764103Y-114995210D02*
X124872303Y-117103410D01*
X125380303Y-116595410D01*
X125380303Y-117301530D01*
X122764103Y-117301530D01*
X122764103Y-114995210D01*
G36*
X125786703Y-115447330D02*
G01*
X125380303Y-115853730D01*
X125380303Y-116234730D01*
X124872303Y-116742730D01*
X124364303Y-116234730D01*
X124364303Y-115218730D01*
X124669103Y-114913930D01*
X125786703Y-114913930D01*
X125786703Y-115447330D01*
G37*
X125786703Y-115447330D02*
X125380303Y-115853730D01*
X125380303Y-116234730D01*
X124872303Y-116742730D01*
X124364303Y-116234730D01*
X124364303Y-115218730D01*
X124669103Y-114913930D01*
X125786703Y-114913930D01*
X125786703Y-115447330D01*
G36*
X103714103Y-114995210D02*
G01*
X105822303Y-117103410D01*
X106330303Y-116595410D01*
X106330303Y-117301530D01*
X103714103Y-117301530D01*
X103714103Y-114995210D01*
G37*
X103714103Y-114995210D02*
X105822303Y-117103410D01*
X106330303Y-116595410D01*
X106330303Y-117301530D01*
X103714103Y-117301530D01*
X103714103Y-114995210D01*
G36*
X106736703Y-115447330D02*
G01*
X106330303Y-115853730D01*
X106330303Y-116234730D01*
X105822303Y-116742730D01*
X105314303Y-116234730D01*
X105314303Y-115218730D01*
X105619103Y-114913930D01*
X106736703Y-114913930D01*
X106736703Y-115447330D01*
G37*
X106736703Y-115447330D02*
X106330303Y-115853730D01*
X106330303Y-116234730D01*
X105822303Y-116742730D01*
X105314303Y-116234730D01*
X105314303Y-115218730D01*
X105619103Y-114913930D01*
X106736703Y-114913930D01*
X106736703Y-115447330D01*
G36*
X84664103Y-114995210D02*
G01*
X86772303Y-117103410D01*
X87280303Y-116595410D01*
X87280303Y-117301530D01*
X84664103Y-117301530D01*
X84664103Y-114995210D01*
G37*
X84664103Y-114995210D02*
X86772303Y-117103410D01*
X87280303Y-116595410D01*
X87280303Y-117301530D01*
X84664103Y-117301530D01*
X84664103Y-114995210D01*
G36*
X87686703Y-115447330D02*
G01*
X87280303Y-115853730D01*
X87280303Y-116234730D01*
X86772303Y-116742730D01*
X86264303Y-116234730D01*
X86264303Y-115218730D01*
X86569103Y-114913930D01*
X87686703Y-114913930D01*
X87686703Y-115447330D01*
G37*
X87686703Y-115447330D02*
X87280303Y-115853730D01*
X87280303Y-116234730D01*
X86772303Y-116742730D01*
X86264303Y-116234730D01*
X86264303Y-115218730D01*
X86569103Y-114913930D01*
X87686703Y-114913930D01*
X87686703Y-115447330D01*
G36*
X122764103Y-91881210D02*
G01*
X124872303Y-93989410D01*
X125380303Y-93481410D01*
X125380303Y-94187530D01*
X122764103Y-94187530D01*
X122764103Y-91881210D01*
G37*
X122764103Y-91881210D02*
X124872303Y-93989410D01*
X125380303Y-93481410D01*
X125380303Y-94187530D01*
X122764103Y-94187530D01*
X122764103Y-91881210D01*
G36*
X125786703Y-92333330D02*
G01*
X125380303Y-92739730D01*
X125380303Y-93120730D01*
X124872303Y-93628730D01*
X124364303Y-93120730D01*
X124364303Y-92104730D01*
X124669103Y-91799930D01*
X125786703Y-91799930D01*
X125786703Y-92333330D01*
G37*
X125786703Y-92333330D02*
X125380303Y-92739730D01*
X125380303Y-93120730D01*
X124872303Y-93628730D01*
X124364303Y-93120730D01*
X124364303Y-92104730D01*
X124669103Y-91799930D01*
X125786703Y-91799930D01*
X125786703Y-92333330D01*
G36*
X122764103Y-72831210D02*
G01*
X124872303Y-74939410D01*
X125380303Y-74431410D01*
X125380303Y-75137530D01*
X122764103Y-75137530D01*
X122764103Y-72831210D01*
G37*
X122764103Y-72831210D02*
X124872303Y-74939410D01*
X125380303Y-74431410D01*
X125380303Y-75137530D01*
X122764103Y-75137530D01*
X122764103Y-72831210D01*
G36*
X125786703Y-73283330D02*
G01*
X125380303Y-73689730D01*
X125380303Y-74070730D01*
X124872303Y-74578730D01*
X124364303Y-74070730D01*
X124364303Y-73054730D01*
X124669103Y-72749930D01*
X125786703Y-72749930D01*
X125786703Y-73283330D01*
G37*
X125786703Y-73283330D02*
X125380303Y-73689730D01*
X125380303Y-74070730D01*
X124872303Y-74578730D01*
X124364303Y-74070730D01*
X124364303Y-73054730D01*
X124669103Y-72749930D01*
X125786703Y-72749930D01*
X125786703Y-73283330D01*
G36*
X122764103Y-53781210D02*
G01*
X124872303Y-55889410D01*
X125380303Y-55381410D01*
X125380303Y-56087530D01*
X122764103Y-56087530D01*
X122764103Y-53781210D01*
G37*
X122764103Y-53781210D02*
X124872303Y-55889410D01*
X125380303Y-55381410D01*
X125380303Y-56087530D01*
X122764103Y-56087530D01*
X122764103Y-53781210D01*
G36*
X125786703Y-54233330D02*
G01*
X125380303Y-54639730D01*
X125380303Y-55020730D01*
X124872303Y-55528730D01*
X124364303Y-55020730D01*
X124364303Y-54004730D01*
X124669103Y-53699930D01*
X125786703Y-53699930D01*
X125786703Y-54233330D01*
G37*
X125786703Y-54233330D02*
X125380303Y-54639730D01*
X125380303Y-55020730D01*
X124872303Y-55528730D01*
X124364303Y-55020730D01*
X124364303Y-54004730D01*
X124669103Y-53699930D01*
X125786703Y-53699930D01*
X125786703Y-54233330D01*
G36*
X103714103Y-52511210D02*
G01*
X105822303Y-54619410D01*
X106330303Y-54111410D01*
X106330303Y-54817530D01*
X103714103Y-54817530D01*
X103714103Y-52511210D01*
G37*
X103714103Y-52511210D02*
X105822303Y-54619410D01*
X106330303Y-54111410D01*
X106330303Y-54817530D01*
X103714103Y-54817530D01*
X103714103Y-52511210D01*
G36*
X106736703Y-52963330D02*
G01*
X106330303Y-53369730D01*
X106330303Y-53750730D01*
X105822303Y-54258730D01*
X105314303Y-53750730D01*
X105314303Y-52734730D01*
X105619103Y-52429930D01*
X106736703Y-52429930D01*
X106736703Y-52963330D01*
G37*
X106736703Y-52963330D02*
X106330303Y-53369730D01*
X106330303Y-53750730D01*
X105822303Y-54258730D01*
X105314303Y-53750730D01*
X105314303Y-52734730D01*
X105619103Y-52429930D01*
X106736703Y-52429930D01*
X106736703Y-52963330D01*
G36*
X103714103Y-71561210D02*
G01*
X105822303Y-73669410D01*
X106330303Y-73161410D01*
X106330303Y-73867530D01*
X103714103Y-73867530D01*
X103714103Y-71561210D01*
G37*
X103714103Y-71561210D02*
X105822303Y-73669410D01*
X106330303Y-73161410D01*
X106330303Y-73867530D01*
X103714103Y-73867530D01*
X103714103Y-71561210D01*
G36*
X106736703Y-72013330D02*
G01*
X106330303Y-72419730D01*
X106330303Y-72800730D01*
X105822303Y-73308730D01*
X105314303Y-72800730D01*
X105314303Y-71784730D01*
X105619103Y-71479930D01*
X106736703Y-71479930D01*
X106736703Y-72013330D01*
G37*
X106736703Y-72013330D02*
X106330303Y-72419730D01*
X106330303Y-72800730D01*
X105822303Y-73308730D01*
X105314303Y-72800730D01*
X105314303Y-71784730D01*
X105619103Y-71479930D01*
X106736703Y-71479930D01*
X106736703Y-72013330D01*
G36*
X103714103Y-90611210D02*
G01*
X105822303Y-92719410D01*
X106330303Y-92211410D01*
X106330303Y-92917530D01*
X103714103Y-92917530D01*
X103714103Y-90611210D01*
G37*
X103714103Y-90611210D02*
X105822303Y-92719410D01*
X106330303Y-92211410D01*
X106330303Y-92917530D01*
X103714103Y-92917530D01*
X103714103Y-90611210D01*
G36*
X106736703Y-91063330D02*
G01*
X106330303Y-91469730D01*
X106330303Y-91850730D01*
X105822303Y-92358730D01*
X105314303Y-91850730D01*
X105314303Y-90834730D01*
X105619103Y-90529930D01*
X106736703Y-90529930D01*
X106736703Y-91063330D01*
G37*
X106736703Y-91063330D02*
X106330303Y-91469730D01*
X106330303Y-91850730D01*
X105822303Y-92358730D01*
X105314303Y-91850730D01*
X105314303Y-90834730D01*
X105619103Y-90529930D01*
X106736703Y-90529930D01*
X106736703Y-91063330D01*
G36*
X84664103Y-92135210D02*
G01*
X86772303Y-94243410D01*
X87280303Y-93735410D01*
X87280303Y-94441530D01*
X84664103Y-94441530D01*
X84664103Y-92135210D01*
G37*
X84664103Y-92135210D02*
X86772303Y-94243410D01*
X87280303Y-93735410D01*
X87280303Y-94441530D01*
X84664103Y-94441530D01*
X84664103Y-92135210D01*
G36*
X87686703Y-92587330D02*
G01*
X87280303Y-92993730D01*
X87280303Y-93374730D01*
X86772303Y-93882730D01*
X86264303Y-93374730D01*
X86264303Y-92358730D01*
X86569103Y-92053930D01*
X87686703Y-92053930D01*
X87686703Y-92587330D01*
G37*
X87686703Y-92587330D02*
X87280303Y-92993730D01*
X87280303Y-93374730D01*
X86772303Y-93882730D01*
X86264303Y-93374730D01*
X86264303Y-92358730D01*
X86569103Y-92053930D01*
X87686703Y-92053930D01*
X87686703Y-92587330D01*
G36*
X84664103Y-73085210D02*
G01*
X86772303Y-75193410D01*
X87280303Y-74685410D01*
X87280303Y-75391530D01*
X84664103Y-75391530D01*
X84664103Y-73085210D01*
G37*
X84664103Y-73085210D02*
X86772303Y-75193410D01*
X87280303Y-74685410D01*
X87280303Y-75391530D01*
X84664103Y-75391530D01*
X84664103Y-73085210D01*
G36*
X87686703Y-73537330D02*
G01*
X87280303Y-73943730D01*
X87280303Y-74324730D01*
X86772303Y-74832730D01*
X86264303Y-74324730D01*
X86264303Y-73308730D01*
X86569103Y-73003930D01*
X87686703Y-73003930D01*
X87686703Y-73537330D01*
G37*
X87686703Y-73537330D02*
X87280303Y-73943730D01*
X87280303Y-74324730D01*
X86772303Y-74832730D01*
X86264303Y-74324730D01*
X86264303Y-73308730D01*
X86569103Y-73003930D01*
X87686703Y-73003930D01*
X87686703Y-73537330D01*
G36*
X84664103Y-54031210D02*
G01*
X86772303Y-56139410D01*
X87280303Y-55631410D01*
X87280303Y-56337530D01*
X84664103Y-56337530D01*
X84664103Y-54031210D01*
G37*
X84664103Y-54031210D02*
X86772303Y-56139410D01*
X87280303Y-55631410D01*
X87280303Y-56337530D01*
X84664103Y-56337530D01*
X84664103Y-54031210D01*
G36*
X87686703Y-54483330D02*
G01*
X87280303Y-54889730D01*
X87280303Y-55270730D01*
X86772303Y-55778730D01*
X86264303Y-55270730D01*
X86264303Y-54254730D01*
X86569103Y-53949930D01*
X87686703Y-53949930D01*
X87686703Y-54483330D01*
G37*
X87686703Y-54483330D02*
X87280303Y-54889730D01*
X87280303Y-55270730D01*
X86772303Y-55778730D01*
X86264303Y-55270730D01*
X86264303Y-54254730D01*
X86569103Y-53949930D01*
X87686703Y-53949930D01*
X87686703Y-54483330D01*
G36*
X65611031Y-55265210D02*
G01*
X67719231Y-57373410D01*
X68227231Y-56865410D01*
X68227231Y-57571530D01*
X65611031Y-57571530D01*
X65611031Y-55265210D01*
G37*
X65611031Y-55265210D02*
X67719231Y-57373410D01*
X68227231Y-56865410D01*
X68227231Y-57571530D01*
X65611031Y-57571530D01*
X65611031Y-55265210D01*
G36*
X68633631Y-55717330D02*
G01*
X68227231Y-56123730D01*
X68227231Y-56504730D01*
X67719231Y-57012730D01*
X67211231Y-56504730D01*
X67211231Y-55488730D01*
X67516031Y-55183930D01*
X68633631Y-55183930D01*
X68633631Y-55717330D01*
G37*
X68633631Y-55717330D02*
X68227231Y-56123730D01*
X68227231Y-56504730D01*
X67719231Y-57012730D01*
X67211231Y-56504730D01*
X67211231Y-55488730D01*
X67516031Y-55183930D01*
X68633631Y-55183930D01*
X68633631Y-55717330D01*
G36*
X65611031Y-74313309D02*
G01*
X67719231Y-76421509D01*
X68227231Y-75913509D01*
X68227231Y-76619629D01*
X65611031Y-76619629D01*
X65611031Y-74313309D01*
G37*
X65611031Y-74313309D02*
X67719231Y-76421509D01*
X68227231Y-75913509D01*
X68227231Y-76619629D01*
X65611031Y-76619629D01*
X65611031Y-74313309D01*
G36*
X68633631Y-74765429D02*
G01*
X68227231Y-75171829D01*
X68227231Y-75552829D01*
X67719231Y-76060829D01*
X67211231Y-75552829D01*
X67211231Y-74536829D01*
X67516031Y-74232029D01*
X68633631Y-74232029D01*
X68633631Y-74765429D01*
G37*
X68633631Y-74765429D02*
X68227231Y-75171829D01*
X68227231Y-75552829D01*
X67719231Y-76060829D01*
X67211231Y-75552829D01*
X67211231Y-74536829D01*
X67516031Y-74232029D01*
X68633631Y-74232029D01*
X68633631Y-74765429D01*
G36*
X65611031Y-93361710D02*
G01*
X67719231Y-95469910D01*
X68227231Y-94961910D01*
X68227231Y-95668030D01*
X65611031Y-95668030D01*
X65611031Y-93361710D01*
G37*
X65611031Y-93361710D02*
X67719231Y-95469910D01*
X68227231Y-94961910D01*
X68227231Y-95668030D01*
X65611031Y-95668030D01*
X65611031Y-93361710D01*
G36*
X68633631Y-93813830D02*
G01*
X68227231Y-94220230D01*
X68227231Y-94601230D01*
X67719231Y-95109230D01*
X67211231Y-94601230D01*
X67211231Y-93585230D01*
X67516031Y-93280430D01*
X68633631Y-93280430D01*
X68633631Y-93813830D01*
G37*
X68633631Y-93813830D02*
X68227231Y-94220230D01*
X68227231Y-94601230D01*
X67719231Y-95109230D01*
X67211231Y-94601230D01*
X67211231Y-93585230D01*
X67516031Y-93280430D01*
X68633631Y-93280430D01*
X68633631Y-93813830D01*
G36*
X65611031Y-114995210D02*
G01*
X67719231Y-117103410D01*
X68227231Y-116595410D01*
X68227231Y-117301530D01*
X65611031Y-117301530D01*
X65611031Y-114995210D01*
G37*
X65611031Y-114995210D02*
X67719231Y-117103410D01*
X68227231Y-116595410D01*
X68227231Y-117301530D01*
X65611031Y-117301530D01*
X65611031Y-114995210D01*
G36*
X68633631Y-115447330D02*
G01*
X68227231Y-115853730D01*
X68227231Y-116234730D01*
X67719231Y-116742730D01*
X67211231Y-116234730D01*
X67211231Y-115218730D01*
X67516031Y-114913930D01*
X68633631Y-114913930D01*
X68633631Y-115447330D01*
G37*
X68633631Y-115447330D02*
X68227231Y-115853730D01*
X68227231Y-116234730D01*
X67719231Y-116742730D01*
X67211231Y-116234730D01*
X67211231Y-115218730D01*
X67516031Y-114913930D01*
X68633631Y-114913930D01*
X68633631Y-115447330D01*
G36*
X46565800Y-114965480D02*
G01*
X48674000Y-117073680D01*
X49182000Y-116565680D01*
X49182000Y-117271800D01*
X46565800Y-117271800D01*
X46565800Y-114965480D01*
G37*
X46565800Y-114965480D02*
X48674000Y-117073680D01*
X49182000Y-116565680D01*
X49182000Y-117271800D01*
X46565800Y-117271800D01*
X46565800Y-114965480D01*
G36*
X49588400Y-115417600D02*
G01*
X49182000Y-115824000D01*
X49182000Y-116205000D01*
X48674000Y-116713000D01*
X48166000Y-116205000D01*
X48166000Y-115189000D01*
X48470800Y-114884200D01*
X49588400Y-114884200D01*
X49588400Y-115417600D01*
G37*
X49588400Y-115417600D02*
X49182000Y-115824000D01*
X49182000Y-116205000D01*
X48674000Y-116713000D01*
X48166000Y-116205000D01*
X48166000Y-115189000D01*
X48470800Y-114884200D01*
X49588400Y-114884200D01*
X49588400Y-115417600D01*
G36*
X46565800Y-95915480D02*
G01*
X48674000Y-98023680D01*
X49182000Y-97515680D01*
X49182000Y-98221800D01*
X46565800Y-98221800D01*
X46565800Y-95915480D01*
G37*
X46565800Y-95915480D02*
X48674000Y-98023680D01*
X49182000Y-97515680D01*
X49182000Y-98221800D01*
X46565800Y-98221800D01*
X46565800Y-95915480D01*
G36*
X49588400Y-96367600D02*
G01*
X49182000Y-96774000D01*
X49182000Y-97155000D01*
X48674000Y-97663000D01*
X48166000Y-97155000D01*
X48166000Y-96139000D01*
X48470800Y-95834200D01*
X49588400Y-95834200D01*
X49588400Y-96367600D01*
G37*
X49588400Y-96367600D02*
X49182000Y-96774000D01*
X49182000Y-97155000D01*
X48674000Y-97663000D01*
X48166000Y-97155000D01*
X48166000Y-96139000D01*
X48470800Y-95834200D01*
X49588400Y-95834200D01*
X49588400Y-96367600D01*
G36*
X46565800Y-76865480D02*
G01*
X48674000Y-78973680D01*
X49182000Y-78465680D01*
X49182000Y-79171800D01*
X46565800Y-79171800D01*
X46565800Y-76865480D01*
G37*
X46565800Y-76865480D02*
X48674000Y-78973680D01*
X49182000Y-78465680D01*
X49182000Y-79171800D01*
X46565800Y-79171800D01*
X46565800Y-76865480D01*
G36*
X49588400Y-77317600D02*
G01*
X49182000Y-77724000D01*
X49182000Y-78105000D01*
X48674000Y-78613000D01*
X48166000Y-78105000D01*
X48166000Y-77089000D01*
X48470800Y-76784200D01*
X49588400Y-76784200D01*
X49588400Y-77317600D01*
G37*
X49588400Y-77317600D02*
X49182000Y-77724000D01*
X49182000Y-78105000D01*
X48674000Y-78613000D01*
X48166000Y-78105000D01*
X48166000Y-77089000D01*
X48470800Y-76784200D01*
X49588400Y-76784200D01*
X49588400Y-77317600D01*
G04 #@! TD*
D11*
G04 #@! TO.P, ,2*
G04 #@! TO.N,N/C*
X141930303Y-53340000D03*
D12*
X143030303Y-53340000D03*
G04 #@! TO.P, ,1*
X145830303Y-53340000D03*
D11*
X146930303Y-53340000D03*
D13*
G04 #@! TO.P, ,2*
X140530303Y-53340000D03*
D14*
G04 #@! TO.P, ,1*
X148330303Y-53340000D03*
G04 #@! TD*
D11*
G04 #@! TO.P, ,2*
G04 #@! TO.N,N/C*
X141930303Y-72390000D03*
D12*
X143030303Y-72390000D03*
G04 #@! TO.P, ,1*
X145830303Y-72390000D03*
D11*
X146930303Y-72390000D03*
D13*
G04 #@! TO.P, ,2*
X140530303Y-72390000D03*
D14*
G04 #@! TO.P, ,1*
X148330303Y-72390000D03*
G04 #@! TD*
D11*
G04 #@! TO.P, ,2*
G04 #@! TO.N,N/C*
X141930303Y-91440000D03*
D12*
X143030303Y-91440000D03*
G04 #@! TO.P, ,1*
X145830303Y-91440000D03*
D11*
X146930303Y-91440000D03*
D13*
G04 #@! TO.P, ,2*
X140530303Y-91440000D03*
D14*
G04 #@! TO.P, ,1*
X148330303Y-91440000D03*
G04 #@! TD*
D11*
G04 #@! TO.P, ,2*
G04 #@! TO.N,N/C*
X142438303Y-111490000D03*
D12*
X143538303Y-111490000D03*
G04 #@! TO.P, ,1*
X146338303Y-111490000D03*
D11*
X147438303Y-111490000D03*
D13*
G04 #@! TO.P, ,2*
X141038303Y-111490000D03*
D14*
G04 #@! TO.P, ,1*
X148838303Y-111490000D03*
G04 #@! TD*
D11*
G04 #@! TO.P, ,2*
G04 #@! TO.N,N/C*
X123388303Y-111490000D03*
D12*
X124488303Y-111490000D03*
G04 #@! TO.P, ,1*
X127288303Y-111490000D03*
D11*
X128388303Y-111490000D03*
D13*
G04 #@! TO.P, ,2*
X121988303Y-111490000D03*
D14*
G04 #@! TO.P, ,1*
X129788303Y-111490000D03*
G04 #@! TD*
D11*
G04 #@! TO.P, ,2*
G04 #@! TO.N,N/C*
X104338303Y-111490000D03*
D12*
X105438303Y-111490000D03*
G04 #@! TO.P, ,1*
X108238303Y-111490000D03*
D11*
X109338303Y-111490000D03*
D13*
G04 #@! TO.P, ,2*
X102938303Y-111490000D03*
D14*
G04 #@! TO.P, ,1*
X110738303Y-111490000D03*
G04 #@! TD*
D11*
G04 #@! TO.P, ,2*
G04 #@! TO.N,N/C*
X85288303Y-111490000D03*
D12*
X86388303Y-111490000D03*
G04 #@! TO.P, ,1*
X89188303Y-111490000D03*
D11*
X90288303Y-111490000D03*
D13*
G04 #@! TO.P, ,2*
X83888303Y-111490000D03*
D14*
G04 #@! TO.P, ,1*
X91688303Y-111490000D03*
G04 #@! TD*
D11*
G04 #@! TO.P, ,2*
G04 #@! TO.N,N/C*
X122880303Y-88900000D03*
D12*
X123980303Y-88900000D03*
G04 #@! TO.P, ,1*
X126780303Y-88900000D03*
D11*
X127880303Y-88900000D03*
D13*
G04 #@! TO.P, ,2*
X121480303Y-88900000D03*
D14*
G04 #@! TO.P, ,1*
X129280303Y-88900000D03*
G04 #@! TD*
D11*
G04 #@! TO.P, ,2*
G04 #@! TO.N,N/C*
X122880303Y-69850000D03*
D12*
X123980303Y-69850000D03*
G04 #@! TO.P, ,1*
X126780303Y-69850000D03*
D11*
X127880303Y-69850000D03*
D13*
G04 #@! TO.P, ,2*
X121480303Y-69850000D03*
D14*
G04 #@! TO.P, ,1*
X129280303Y-69850000D03*
G04 #@! TD*
D11*
G04 #@! TO.P, ,2*
G04 #@! TO.N,N/C*
X122880303Y-50800000D03*
D12*
X123980303Y-50800000D03*
G04 #@! TO.P, ,1*
X126780303Y-50800000D03*
D11*
X127880303Y-50800000D03*
D13*
G04 #@! TO.P, ,2*
X121480303Y-50800000D03*
D14*
G04 #@! TO.P, ,1*
X129280303Y-50800000D03*
G04 #@! TD*
D11*
G04 #@! TO.P, ,2*
G04 #@! TO.N,N/C*
X103830303Y-49530000D03*
D12*
X104930303Y-49530000D03*
G04 #@! TO.P, ,1*
X107730303Y-49530000D03*
D11*
X108830303Y-49530000D03*
D13*
G04 #@! TO.P, ,2*
X102430303Y-49530000D03*
D14*
G04 #@! TO.P, ,1*
X110230303Y-49530000D03*
G04 #@! TD*
D11*
G04 #@! TO.P, ,2*
G04 #@! TO.N,N/C*
X103830303Y-68580000D03*
D12*
X104930303Y-68580000D03*
G04 #@! TO.P, ,1*
X107730303Y-68580000D03*
D11*
X108830303Y-68580000D03*
D13*
G04 #@! TO.P, ,2*
X102430303Y-68580000D03*
D14*
G04 #@! TO.P, ,1*
X110230303Y-68580000D03*
G04 #@! TD*
D11*
G04 #@! TO.P, ,2*
G04 #@! TO.N,N/C*
X103830303Y-87630000D03*
D12*
X104930303Y-87630000D03*
G04 #@! TO.P, ,1*
X107730303Y-87630000D03*
D11*
X108830303Y-87630000D03*
D13*
G04 #@! TO.P, ,2*
X102430303Y-87630000D03*
D14*
G04 #@! TO.P, ,1*
X110230303Y-87630000D03*
G04 #@! TD*
D11*
G04 #@! TO.P, ,2*
G04 #@! TO.N,N/C*
X84780303Y-88900000D03*
D12*
X85880303Y-88900000D03*
G04 #@! TO.P, ,1*
X88680303Y-88900000D03*
D11*
X89780303Y-88900000D03*
D13*
G04 #@! TO.P, ,2*
X83380303Y-88900000D03*
D14*
G04 #@! TO.P, ,1*
X91180303Y-88900000D03*
G04 #@! TD*
D11*
G04 #@! TO.P, ,2*
G04 #@! TO.N,N/C*
X84780303Y-69850000D03*
D12*
X85880303Y-69850000D03*
G04 #@! TO.P, ,1*
X88680303Y-69850000D03*
D11*
X89780303Y-69850000D03*
D13*
G04 #@! TO.P, ,2*
X83380303Y-69850000D03*
D14*
G04 #@! TO.P, ,1*
X91180303Y-69850000D03*
G04 #@! TD*
D11*
G04 #@! TO.P, ,2*
G04 #@! TO.N,N/C*
X84780303Y-50800000D03*
D12*
X85880303Y-50800000D03*
G04 #@! TO.P, ,1*
X88680303Y-50800000D03*
D11*
X89780303Y-50800000D03*
D13*
G04 #@! TO.P, ,2*
X83380303Y-50800000D03*
D14*
G04 #@! TO.P, ,1*
X91180303Y-50800000D03*
G04 #@! TD*
D11*
G04 #@! TO.P, ,2*
G04 #@! TO.N,N/C*
X65787231Y-52070000D03*
D12*
X66887231Y-52070000D03*
G04 #@! TO.P, ,1*
X69687231Y-52070000D03*
D11*
X70787231Y-52070000D03*
D13*
G04 #@! TO.P, ,2*
X64387231Y-52070000D03*
D14*
G04 #@! TO.P, ,1*
X72187231Y-52070000D03*
G04 #@! TD*
D11*
G04 #@! TO.P, ,2*
G04 #@! TO.N,N/C*
X65787231Y-71120000D03*
D12*
X66887231Y-71120000D03*
G04 #@! TO.P, ,1*
X69687231Y-71120000D03*
D11*
X70787231Y-71120000D03*
D13*
G04 #@! TO.P, ,2*
X64387231Y-71120000D03*
D14*
G04 #@! TO.P, ,1*
X72187231Y-71120000D03*
G04 #@! TD*
D11*
G04 #@! TO.P, ,2*
G04 #@! TO.N,N/C*
X65787231Y-90170000D03*
D12*
X66887231Y-90170000D03*
G04 #@! TO.P, ,1*
X69687231Y-90170000D03*
D11*
X70787231Y-90170000D03*
D13*
G04 #@! TO.P, ,2*
X64387231Y-90170000D03*
D14*
G04 #@! TO.P, ,1*
X72187231Y-90170000D03*
G04 #@! TD*
D11*
G04 #@! TO.P, ,2*
G04 #@! TO.N,N/C*
X66295231Y-111490000D03*
D12*
X67395231Y-111490000D03*
G04 #@! TO.P, ,1*
X70195231Y-111490000D03*
D11*
X71295231Y-111490000D03*
D13*
G04 #@! TO.P, ,2*
X64895231Y-111490000D03*
D14*
G04 #@! TO.P, ,1*
X72695231Y-111490000D03*
G04 #@! TD*
D11*
G04 #@! TO.P, ,2*
G04 #@! TO.N,N/C*
X47030000Y-111490000D03*
D12*
X48130000Y-111490000D03*
G04 #@! TO.P, ,1*
X50930000Y-111490000D03*
D11*
X52030000Y-111490000D03*
D13*
G04 #@! TO.P, ,2*
X45630000Y-111490000D03*
D14*
G04 #@! TO.P, ,1*
X53430000Y-111490000D03*
G04 #@! TD*
D11*
G04 #@! TO.P, ,2*
G04 #@! TO.N,N/C*
X47030000Y-92710000D03*
D12*
X48130000Y-92710000D03*
G04 #@! TO.P, ,1*
X50930000Y-92710000D03*
D11*
X52030000Y-92710000D03*
D13*
G04 #@! TO.P, ,2*
X45630000Y-92710000D03*
D14*
G04 #@! TO.P, ,1*
X53430000Y-92710000D03*
G04 #@! TD*
D11*
G04 #@! TO.P, ,2*
G04 #@! TO.N,N/C*
X46522000Y-73660000D03*
D12*
X47622000Y-73660000D03*
G04 #@! TO.P, ,1*
X50422000Y-73660000D03*
D11*
X51522000Y-73660000D03*
D13*
G04 #@! TO.P, ,2*
X45122000Y-73660000D03*
D14*
G04 #@! TO.P, ,1*
X52922000Y-73660000D03*
G04 #@! TD*
D11*
G04 #@! TO.P, ,2*
G04 #@! TO.N,N/C*
X46522000Y-54610000D03*
D12*
X47622000Y-54610000D03*
G04 #@! TO.P, ,1*
X50422000Y-54610000D03*
D11*
X51522000Y-54610000D03*
D13*
G04 #@! TO.P, ,2*
X45122000Y-54610000D03*
D14*
G04 #@! TO.P, ,1*
X52922000Y-54610000D03*
G04 #@! TD*
D15*
G04 #@! TO.P, ,*
G04 #@! TO.N,*
X54402000Y-67954000D03*
X43962000Y-67954000D03*
D16*
G04 #@! TO.P, ,4*
G04 #@! TO.N,N/C*
X50452000Y-68684000D03*
G04 #@! TO.P, ,3*
X47952000Y-68734000D03*
D17*
G04 #@! TO.P, ,1*
G04 #@! TO.N,col0*
X51702000Y-59254000D03*
G04 #@! TO.P, ,2*
G04 #@! TO.N,col0_row0*
X46662000Y-59254000D03*
D18*
G04 #@! TO.P, ,1*
G04 #@! TO.N,col0*
X52992000Y-61214000D03*
G04 #@! TO.P, ,2*
G04 #@! TO.N,col0_row0*
X45372000Y-61214000D03*
D19*
G04 #@! TO.P, ,*
G04 #@! TO.N,*
X54332000Y-68754000D03*
D20*
G04 #@! TO.P, ,2*
G04 #@! TO.N,col0_row0*
X44182000Y-59954000D03*
D19*
G04 #@! TO.P, ,*
G04 #@! TO.N,*
X44032000Y-68754000D03*
G04 #@! TO.P, ,5*
G04 #@! TO.N,N/C*
X49182000Y-57854000D03*
D20*
G04 #@! TO.P, ,1*
G04 #@! TO.N,col0*
X54182000Y-59954000D03*
G04 #@! TD*
D15*
G04 #@! TO.P, ,*
G04 #@! TO.N,*
X149650303Y-66459730D03*
X139210303Y-66459730D03*
D16*
G04 #@! TO.P, ,4*
G04 #@! TO.N,N/C*
X145700303Y-67189730D03*
G04 #@! TO.P, ,3*
X143200303Y-67239730D03*
D17*
G04 #@! TO.P, ,1*
G04 #@! TO.N,col5*
X146950303Y-57759730D03*
G04 #@! TO.P, ,2*
G04 #@! TO.N,col5_row0*
X141910303Y-57759730D03*
D18*
G04 #@! TO.P, ,1*
G04 #@! TO.N,col5*
X148240303Y-59719730D03*
G04 #@! TO.P, ,2*
G04 #@! TO.N,col5_row0*
X140620303Y-59719730D03*
D19*
G04 #@! TO.P, ,*
G04 #@! TO.N,*
X149580303Y-67259730D03*
D20*
G04 #@! TO.P, ,2*
G04 #@! TO.N,col5_row0*
X139430303Y-58459730D03*
D19*
G04 #@! TO.P, ,*
G04 #@! TO.N,*
X139280303Y-67259730D03*
G04 #@! TO.P, ,5*
G04 #@! TO.N,N/C*
X144430303Y-56359730D03*
D20*
G04 #@! TO.P, ,1*
G04 #@! TO.N,col5*
X149430303Y-58459730D03*
G04 #@! TD*
D15*
G04 #@! TO.P, ,*
G04 #@! TO.N,*
X149650303Y-85509730D03*
X139210303Y-85509730D03*
D16*
G04 #@! TO.P, ,4*
G04 #@! TO.N,N/C*
X145700303Y-86239730D03*
G04 #@! TO.P, ,3*
X143200303Y-86289730D03*
D17*
G04 #@! TO.P, ,1*
G04 #@! TO.N,col5*
X146950303Y-76809730D03*
G04 #@! TO.P, ,2*
G04 #@! TO.N,col5_row1*
X141910303Y-76809730D03*
D18*
G04 #@! TO.P, ,1*
G04 #@! TO.N,col5*
X148240303Y-78769730D03*
G04 #@! TO.P, ,2*
G04 #@! TO.N,col5_row1*
X140620303Y-78769730D03*
D19*
G04 #@! TO.P, ,*
G04 #@! TO.N,*
X149580303Y-86309730D03*
D20*
G04 #@! TO.P, ,2*
G04 #@! TO.N,col5_row1*
X139430303Y-77509730D03*
D19*
G04 #@! TO.P, ,*
G04 #@! TO.N,*
X139280303Y-86309730D03*
G04 #@! TO.P, ,5*
G04 #@! TO.N,N/C*
X144430303Y-75409730D03*
D20*
G04 #@! TO.P, ,1*
G04 #@! TO.N,col5*
X149430303Y-77509730D03*
G04 #@! TD*
D15*
G04 #@! TO.P, ,*
G04 #@! TO.N,*
X149650303Y-104559730D03*
X139210303Y-104559730D03*
D16*
G04 #@! TO.P, ,4*
G04 #@! TO.N,N/C*
X145700303Y-105289730D03*
G04 #@! TO.P, ,3*
X143200303Y-105339730D03*
D17*
G04 #@! TO.P, ,1*
G04 #@! TO.N,col5*
X146950303Y-95859730D03*
G04 #@! TO.P, ,2*
G04 #@! TO.N,col5_row2*
X141910303Y-95859730D03*
D18*
G04 #@! TO.P, ,1*
G04 #@! TO.N,col5*
X148240303Y-97819730D03*
G04 #@! TO.P, ,2*
G04 #@! TO.N,col5_row2*
X140620303Y-97819730D03*
D19*
G04 #@! TO.P, ,*
G04 #@! TO.N,*
X149580303Y-105359730D03*
D20*
G04 #@! TO.P, ,2*
G04 #@! TO.N,col5_row2*
X139430303Y-96559730D03*
D19*
G04 #@! TO.P, ,*
G04 #@! TO.N,*
X139280303Y-105359730D03*
G04 #@! TO.P, ,5*
G04 #@! TO.N,N/C*
X144430303Y-94459730D03*
D20*
G04 #@! TO.P, ,1*
G04 #@! TO.N,col5*
X149430303Y-96559730D03*
G04 #@! TD*
D15*
G04 #@! TO.P, ,*
G04 #@! TO.N,*
X149650303Y-125133730D03*
X139210303Y-125133730D03*
D16*
G04 #@! TO.P, ,4*
G04 #@! TO.N,N/C*
X145700303Y-125863730D03*
G04 #@! TO.P, ,3*
X143200303Y-125913730D03*
D17*
G04 #@! TO.P, ,1*
G04 #@! TO.N,col5*
X146950303Y-116433730D03*
G04 #@! TO.P, ,2*
G04 #@! TO.N,col5_row3*
X141910303Y-116433730D03*
D18*
G04 #@! TO.P, ,1*
G04 #@! TO.N,col5*
X148240303Y-118393730D03*
G04 #@! TO.P, ,2*
G04 #@! TO.N,col5_row3*
X140620303Y-118393730D03*
D19*
G04 #@! TO.P, ,*
G04 #@! TO.N,*
X149580303Y-125933730D03*
D20*
G04 #@! TO.P, ,2*
G04 #@! TO.N,col5_row3*
X139430303Y-117133730D03*
D19*
G04 #@! TO.P, ,*
G04 #@! TO.N,*
X139280303Y-125933730D03*
G04 #@! TO.P, ,5*
G04 #@! TO.N,N/C*
X144430303Y-115033730D03*
D20*
G04 #@! TO.P, ,1*
G04 #@! TO.N,col5*
X149430303Y-117133730D03*
G04 #@! TD*
D15*
G04 #@! TO.P, ,*
G04 #@! TO.N,*
X130600303Y-125133730D03*
X120160303Y-125133730D03*
D16*
G04 #@! TO.P, ,4*
G04 #@! TO.N,N/C*
X126650303Y-125863730D03*
G04 #@! TO.P, ,3*
X124150303Y-125913730D03*
D17*
G04 #@! TO.P, ,1*
G04 #@! TO.N,col4*
X127900303Y-116433730D03*
G04 #@! TO.P, ,2*
G04 #@! TO.N,col4_row3*
X122860303Y-116433730D03*
D18*
G04 #@! TO.P, ,1*
G04 #@! TO.N,col4*
X129190303Y-118393730D03*
G04 #@! TO.P, ,2*
G04 #@! TO.N,col4_row3*
X121570303Y-118393730D03*
D19*
G04 #@! TO.P, ,*
G04 #@! TO.N,*
X130530303Y-125933730D03*
D20*
G04 #@! TO.P, ,2*
G04 #@! TO.N,col4_row3*
X120380303Y-117133730D03*
D19*
G04 #@! TO.P, ,*
G04 #@! TO.N,*
X120230303Y-125933730D03*
G04 #@! TO.P, ,5*
G04 #@! TO.N,N/C*
X125380303Y-115033730D03*
D20*
G04 #@! TO.P, ,1*
G04 #@! TO.N,col4*
X130380303Y-117133730D03*
G04 #@! TD*
D15*
G04 #@! TO.P, ,*
G04 #@! TO.N,*
X111550303Y-125133730D03*
X101110303Y-125133730D03*
D16*
G04 #@! TO.P, ,4*
G04 #@! TO.N,N/C*
X107600303Y-125863730D03*
G04 #@! TO.P, ,3*
X105100303Y-125913730D03*
D17*
G04 #@! TO.P, ,1*
G04 #@! TO.N,col3*
X108850303Y-116433730D03*
G04 #@! TO.P, ,2*
G04 #@! TO.N,col3_row3*
X103810303Y-116433730D03*
D18*
G04 #@! TO.P, ,1*
G04 #@! TO.N,col3*
X110140303Y-118393730D03*
G04 #@! TO.P, ,2*
G04 #@! TO.N,col3_row3*
X102520303Y-118393730D03*
D19*
G04 #@! TO.P, ,*
G04 #@! TO.N,*
X111480303Y-125933730D03*
D20*
G04 #@! TO.P, ,2*
G04 #@! TO.N,col3_row3*
X101330303Y-117133730D03*
D19*
G04 #@! TO.P, ,*
G04 #@! TO.N,*
X101180303Y-125933730D03*
G04 #@! TO.P, ,5*
G04 #@! TO.N,N/C*
X106330303Y-115033730D03*
D20*
G04 #@! TO.P, ,1*
G04 #@! TO.N,col3*
X111330303Y-117133730D03*
G04 #@! TD*
D15*
G04 #@! TO.P, ,*
G04 #@! TO.N,*
X92500303Y-125133730D03*
X82060303Y-125133730D03*
D16*
G04 #@! TO.P, ,4*
G04 #@! TO.N,N/C*
X88550303Y-125863730D03*
G04 #@! TO.P, ,3*
X86050303Y-125913730D03*
D17*
G04 #@! TO.P, ,1*
G04 #@! TO.N,col2*
X89800303Y-116433730D03*
G04 #@! TO.P, ,2*
G04 #@! TO.N,col2_row3*
X84760303Y-116433730D03*
D18*
G04 #@! TO.P, ,1*
G04 #@! TO.N,col2*
X91090303Y-118393730D03*
G04 #@! TO.P, ,2*
G04 #@! TO.N,col2_row3*
X83470303Y-118393730D03*
D19*
G04 #@! TO.P, ,*
G04 #@! TO.N,*
X92430303Y-125933730D03*
D20*
G04 #@! TO.P, ,2*
G04 #@! TO.N,col2_row3*
X82280303Y-117133730D03*
D19*
G04 #@! TO.P, ,*
G04 #@! TO.N,*
X82130303Y-125933730D03*
G04 #@! TO.P, ,5*
G04 #@! TO.N,N/C*
X87280303Y-115033730D03*
D20*
G04 #@! TO.P, ,1*
G04 #@! TO.N,col2*
X92280303Y-117133730D03*
G04 #@! TD*
D15*
G04 #@! TO.P, ,*
G04 #@! TO.N,*
X130600303Y-102019730D03*
X120160303Y-102019730D03*
D16*
G04 #@! TO.P, ,4*
G04 #@! TO.N,N/C*
X126650303Y-102749730D03*
G04 #@! TO.P, ,3*
X124150303Y-102799730D03*
D17*
G04 #@! TO.P, ,1*
G04 #@! TO.N,col4*
X127900303Y-93319730D03*
G04 #@! TO.P, ,2*
G04 #@! TO.N,col4_row2*
X122860303Y-93319730D03*
D18*
G04 #@! TO.P, ,1*
G04 #@! TO.N,col4*
X129190303Y-95279730D03*
G04 #@! TO.P, ,2*
G04 #@! TO.N,col4_row2*
X121570303Y-95279730D03*
D19*
G04 #@! TO.P, ,*
G04 #@! TO.N,*
X130530303Y-102819730D03*
D20*
G04 #@! TO.P, ,2*
G04 #@! TO.N,col4_row2*
X120380303Y-94019730D03*
D19*
G04 #@! TO.P, ,*
G04 #@! TO.N,*
X120230303Y-102819730D03*
G04 #@! TO.P, ,5*
G04 #@! TO.N,N/C*
X125380303Y-91919730D03*
D20*
G04 #@! TO.P, ,1*
G04 #@! TO.N,col4*
X130380303Y-94019730D03*
G04 #@! TD*
D15*
G04 #@! TO.P, ,*
G04 #@! TO.N,*
X130600303Y-82969730D03*
X120160303Y-82969730D03*
D16*
G04 #@! TO.P, ,4*
G04 #@! TO.N,N/C*
X126650303Y-83699730D03*
G04 #@! TO.P, ,3*
X124150303Y-83749730D03*
D17*
G04 #@! TO.P, ,1*
G04 #@! TO.N,col4*
X127900303Y-74269730D03*
G04 #@! TO.P, ,2*
G04 #@! TO.N,col4_row1*
X122860303Y-74269730D03*
D18*
G04 #@! TO.P, ,1*
G04 #@! TO.N,col4*
X129190303Y-76229730D03*
G04 #@! TO.P, ,2*
G04 #@! TO.N,col4_row1*
X121570303Y-76229730D03*
D19*
G04 #@! TO.P, ,*
G04 #@! TO.N,*
X130530303Y-83769730D03*
D20*
G04 #@! TO.P, ,2*
G04 #@! TO.N,col4_row1*
X120380303Y-74969730D03*
D19*
G04 #@! TO.P, ,*
G04 #@! TO.N,*
X120230303Y-83769730D03*
G04 #@! TO.P, ,5*
G04 #@! TO.N,N/C*
X125380303Y-72869730D03*
D20*
G04 #@! TO.P, ,1*
G04 #@! TO.N,col4*
X130380303Y-74969730D03*
G04 #@! TD*
D15*
G04 #@! TO.P, ,*
G04 #@! TO.N,*
X130600303Y-63919730D03*
X120160303Y-63919730D03*
D16*
G04 #@! TO.P, ,4*
G04 #@! TO.N,N/C*
X126650303Y-64649730D03*
G04 #@! TO.P, ,3*
X124150303Y-64699730D03*
D17*
G04 #@! TO.P, ,1*
G04 #@! TO.N,col4*
X127900303Y-55219730D03*
G04 #@! TO.P, ,2*
G04 #@! TO.N,col4_row0*
X122860303Y-55219730D03*
D18*
G04 #@! TO.P, ,1*
G04 #@! TO.N,col4*
X129190303Y-57179730D03*
G04 #@! TO.P, ,2*
G04 #@! TO.N,col4_row0*
X121570303Y-57179730D03*
D19*
G04 #@! TO.P, ,*
G04 #@! TO.N,*
X130530303Y-64719730D03*
D20*
G04 #@! TO.P, ,2*
G04 #@! TO.N,col4_row0*
X120380303Y-55919730D03*
D19*
G04 #@! TO.P, ,*
G04 #@! TO.N,*
X120230303Y-64719730D03*
G04 #@! TO.P, ,5*
G04 #@! TO.N,N/C*
X125380303Y-53819730D03*
D20*
G04 #@! TO.P, ,1*
G04 #@! TO.N,col4*
X130380303Y-55919730D03*
G04 #@! TD*
D15*
G04 #@! TO.P, ,*
G04 #@! TO.N,*
X111550303Y-62649730D03*
X101110303Y-62649730D03*
D16*
G04 #@! TO.P, ,4*
G04 #@! TO.N,N/C*
X107600303Y-63379730D03*
G04 #@! TO.P, ,3*
X105100303Y-63429730D03*
D17*
G04 #@! TO.P, ,1*
G04 #@! TO.N,col3*
X108850303Y-53949730D03*
G04 #@! TO.P, ,2*
G04 #@! TO.N,col3_row0*
X103810303Y-53949730D03*
D18*
G04 #@! TO.P, ,1*
G04 #@! TO.N,col3*
X110140303Y-55909730D03*
G04 #@! TO.P, ,2*
G04 #@! TO.N,col3_row0*
X102520303Y-55909730D03*
D19*
G04 #@! TO.P, ,*
G04 #@! TO.N,*
X111480303Y-63449730D03*
D20*
G04 #@! TO.P, ,2*
G04 #@! TO.N,col3_row0*
X101330303Y-54649730D03*
D19*
G04 #@! TO.P, ,*
G04 #@! TO.N,*
X101180303Y-63449730D03*
G04 #@! TO.P, ,5*
G04 #@! TO.N,N/C*
X106330303Y-52549730D03*
D20*
G04 #@! TO.P, ,1*
G04 #@! TO.N,col3*
X111330303Y-54649730D03*
G04 #@! TD*
D15*
G04 #@! TO.P, ,*
G04 #@! TO.N,*
X111550303Y-81699730D03*
X101110303Y-81699730D03*
D16*
G04 #@! TO.P, ,4*
G04 #@! TO.N,N/C*
X107600303Y-82429730D03*
G04 #@! TO.P, ,3*
X105100303Y-82479730D03*
D17*
G04 #@! TO.P, ,1*
G04 #@! TO.N,col3*
X108850303Y-72999730D03*
G04 #@! TO.P, ,2*
G04 #@! TO.N,col3_row1*
X103810303Y-72999730D03*
D18*
G04 #@! TO.P, ,1*
G04 #@! TO.N,col3*
X110140303Y-74959730D03*
G04 #@! TO.P, ,2*
G04 #@! TO.N,col3_row1*
X102520303Y-74959730D03*
D19*
G04 #@! TO.P, ,*
G04 #@! TO.N,*
X111480303Y-82499730D03*
D20*
G04 #@! TO.P, ,2*
G04 #@! TO.N,col3_row1*
X101330303Y-73699730D03*
D19*
G04 #@! TO.P, ,*
G04 #@! TO.N,*
X101180303Y-82499730D03*
G04 #@! TO.P, ,5*
G04 #@! TO.N,N/C*
X106330303Y-71599730D03*
D20*
G04 #@! TO.P, ,1*
G04 #@! TO.N,col3*
X111330303Y-73699730D03*
G04 #@! TD*
D15*
G04 #@! TO.P, ,*
G04 #@! TO.N,*
X111550303Y-100749730D03*
X101110303Y-100749730D03*
D16*
G04 #@! TO.P, ,4*
G04 #@! TO.N,N/C*
X107600303Y-101479730D03*
G04 #@! TO.P, ,3*
X105100303Y-101529730D03*
D17*
G04 #@! TO.P, ,1*
G04 #@! TO.N,col3*
X108850303Y-92049730D03*
G04 #@! TO.P, ,2*
G04 #@! TO.N,col3_row2*
X103810303Y-92049730D03*
D18*
G04 #@! TO.P, ,1*
G04 #@! TO.N,col3*
X110140303Y-94009730D03*
G04 #@! TO.P, ,2*
G04 #@! TO.N,col3_row2*
X102520303Y-94009730D03*
D19*
G04 #@! TO.P, ,*
G04 #@! TO.N,*
X111480303Y-101549730D03*
D20*
G04 #@! TO.P, ,2*
G04 #@! TO.N,col3_row2*
X101330303Y-92749730D03*
D19*
G04 #@! TO.P, ,*
G04 #@! TO.N,*
X101180303Y-101549730D03*
G04 #@! TO.P, ,5*
G04 #@! TO.N,N/C*
X106330303Y-90649730D03*
D20*
G04 #@! TO.P, ,1*
G04 #@! TO.N,col3*
X111330303Y-92749730D03*
G04 #@! TD*
D15*
G04 #@! TO.P, ,*
G04 #@! TO.N,*
X92500303Y-102273730D03*
X82060303Y-102273730D03*
D16*
G04 #@! TO.P, ,4*
G04 #@! TO.N,N/C*
X88550303Y-103003730D03*
G04 #@! TO.P, ,3*
X86050303Y-103053730D03*
D17*
G04 #@! TO.P, ,1*
G04 #@! TO.N,col2*
X89800303Y-93573730D03*
G04 #@! TO.P, ,2*
G04 #@! TO.N,col2_row2*
X84760303Y-93573730D03*
D18*
G04 #@! TO.P, ,1*
G04 #@! TO.N,col2*
X91090303Y-95533730D03*
G04 #@! TO.P, ,2*
G04 #@! TO.N,col2_row2*
X83470303Y-95533730D03*
D19*
G04 #@! TO.P, ,*
G04 #@! TO.N,*
X92430303Y-103073730D03*
D20*
G04 #@! TO.P, ,2*
G04 #@! TO.N,col2_row2*
X82280303Y-94273730D03*
D19*
G04 #@! TO.P, ,*
G04 #@! TO.N,*
X82130303Y-103073730D03*
G04 #@! TO.P, ,5*
G04 #@! TO.N,N/C*
X87280303Y-92173730D03*
D20*
G04 #@! TO.P, ,1*
G04 #@! TO.N,col2*
X92280303Y-94273730D03*
G04 #@! TD*
D15*
G04 #@! TO.P, ,*
G04 #@! TO.N,*
X92500303Y-83223730D03*
X82060303Y-83223730D03*
D16*
G04 #@! TO.P, ,4*
G04 #@! TO.N,N/C*
X88550303Y-83953730D03*
G04 #@! TO.P, ,3*
X86050303Y-84003730D03*
D17*
G04 #@! TO.P, ,1*
G04 #@! TO.N,col2*
X89800303Y-74523730D03*
G04 #@! TO.P, ,2*
G04 #@! TO.N,col2_row1*
X84760303Y-74523730D03*
D18*
G04 #@! TO.P, ,1*
G04 #@! TO.N,col2*
X91090303Y-76483730D03*
G04 #@! TO.P, ,2*
G04 #@! TO.N,col2_row1*
X83470303Y-76483730D03*
D19*
G04 #@! TO.P, ,*
G04 #@! TO.N,*
X92430303Y-84023730D03*
D20*
G04 #@! TO.P, ,2*
G04 #@! TO.N,col2_row1*
X82280303Y-75223730D03*
D19*
G04 #@! TO.P, ,*
G04 #@! TO.N,*
X82130303Y-84023730D03*
G04 #@! TO.P, ,5*
G04 #@! TO.N,N/C*
X87280303Y-73123730D03*
D20*
G04 #@! TO.P, ,1*
G04 #@! TO.N,col2*
X92280303Y-75223730D03*
G04 #@! TD*
D15*
G04 #@! TO.P, ,*
G04 #@! TO.N,*
X92500303Y-64169730D03*
X82060303Y-64169730D03*
D16*
G04 #@! TO.P, ,4*
G04 #@! TO.N,N/C*
X88550303Y-64899730D03*
G04 #@! TO.P, ,3*
X86050303Y-64949730D03*
D17*
G04 #@! TO.P, ,1*
G04 #@! TO.N,col2*
X89800303Y-55469730D03*
G04 #@! TO.P, ,2*
G04 #@! TO.N,col2_row0*
X84760303Y-55469730D03*
D18*
G04 #@! TO.P, ,1*
G04 #@! TO.N,col2*
X91090303Y-57429730D03*
G04 #@! TO.P, ,2*
G04 #@! TO.N,col2_row0*
X83470303Y-57429730D03*
D19*
G04 #@! TO.P, ,*
G04 #@! TO.N,*
X92430303Y-64969730D03*
D20*
G04 #@! TO.P, ,2*
G04 #@! TO.N,col2_row0*
X82280303Y-56169730D03*
D19*
G04 #@! TO.P, ,*
G04 #@! TO.N,*
X82130303Y-64969730D03*
G04 #@! TO.P, ,5*
G04 #@! TO.N,N/C*
X87280303Y-54069730D03*
D20*
G04 #@! TO.P, ,1*
G04 #@! TO.N,col2*
X92280303Y-56169730D03*
G04 #@! TD*
D15*
G04 #@! TO.P, ,*
G04 #@! TO.N,*
X73447231Y-65403730D03*
X63007231Y-65403730D03*
D16*
G04 #@! TO.P, ,4*
G04 #@! TO.N,N/C*
X69497231Y-66133730D03*
G04 #@! TO.P, ,3*
X66997231Y-66183730D03*
D17*
G04 #@! TO.P, ,1*
G04 #@! TO.N,col1*
X70747231Y-56703730D03*
G04 #@! TO.P, ,2*
G04 #@! TO.N,col1_row0*
X65707231Y-56703730D03*
D18*
G04 #@! TO.P, ,1*
G04 #@! TO.N,col1*
X72037231Y-58663730D03*
G04 #@! TO.P, ,2*
G04 #@! TO.N,col1_row0*
X64417231Y-58663730D03*
D19*
G04 #@! TO.P, ,*
G04 #@! TO.N,*
X73377231Y-66203730D03*
D20*
G04 #@! TO.P, ,2*
G04 #@! TO.N,col1_row0*
X63227231Y-57403730D03*
D19*
G04 #@! TO.P, ,*
G04 #@! TO.N,*
X63077231Y-66203730D03*
G04 #@! TO.P, ,5*
G04 #@! TO.N,N/C*
X68227231Y-55303730D03*
D20*
G04 #@! TO.P, ,1*
G04 #@! TO.N,col1*
X73227231Y-57403730D03*
G04 #@! TD*
D15*
G04 #@! TO.P, ,*
G04 #@! TO.N,*
X73447231Y-84451829D03*
X63007231Y-84451829D03*
D16*
G04 #@! TO.P, ,4*
G04 #@! TO.N,N/C*
X69497231Y-85181829D03*
G04 #@! TO.P, ,3*
X66997231Y-85231829D03*
D17*
G04 #@! TO.P, ,1*
G04 #@! TO.N,col1*
X70747231Y-75751829D03*
G04 #@! TO.P, ,2*
G04 #@! TO.N,col1_row1*
X65707231Y-75751829D03*
D18*
G04 #@! TO.P, ,1*
G04 #@! TO.N,col1*
X72037231Y-77711829D03*
G04 #@! TO.P, ,2*
G04 #@! TO.N,col1_row1*
X64417231Y-77711829D03*
D19*
G04 #@! TO.P, ,*
G04 #@! TO.N,*
X73377231Y-85251829D03*
D20*
G04 #@! TO.P, ,2*
G04 #@! TO.N,col1_row1*
X63227231Y-76451829D03*
D19*
G04 #@! TO.P, ,*
G04 #@! TO.N,*
X63077231Y-85251829D03*
G04 #@! TO.P, ,5*
G04 #@! TO.N,N/C*
X68227231Y-74351829D03*
D20*
G04 #@! TO.P, ,1*
G04 #@! TO.N,col1*
X73227231Y-76451829D03*
G04 #@! TD*
D15*
G04 #@! TO.P, ,*
G04 #@! TO.N,*
X73447231Y-103500230D03*
X63007231Y-103500230D03*
D16*
G04 #@! TO.P, ,4*
G04 #@! TO.N,N/C*
X69497231Y-104230230D03*
G04 #@! TO.P, ,3*
X66997231Y-104280230D03*
D17*
G04 #@! TO.P, ,1*
G04 #@! TO.N,col1*
X70747231Y-94800230D03*
G04 #@! TO.P, ,2*
G04 #@! TO.N,col1_row2*
X65707231Y-94800230D03*
D18*
G04 #@! TO.P, ,1*
G04 #@! TO.N,col1*
X72037231Y-96760230D03*
G04 #@! TO.P, ,2*
G04 #@! TO.N,col1_row2*
X64417231Y-96760230D03*
D19*
G04 #@! TO.P, ,*
G04 #@! TO.N,*
X73377231Y-104300230D03*
D20*
G04 #@! TO.P, ,2*
G04 #@! TO.N,col1_row2*
X63227231Y-95500230D03*
D19*
G04 #@! TO.P, ,*
G04 #@! TO.N,*
X63077231Y-104300230D03*
G04 #@! TO.P, ,5*
G04 #@! TO.N,N/C*
X68227231Y-93400230D03*
D20*
G04 #@! TO.P, ,1*
G04 #@! TO.N,col1*
X73227231Y-95500230D03*
G04 #@! TD*
D15*
G04 #@! TO.P, ,*
G04 #@! TO.N,*
X73447231Y-125133730D03*
X63007231Y-125133730D03*
D16*
G04 #@! TO.P, ,4*
G04 #@! TO.N,N/C*
X69497231Y-125863730D03*
G04 #@! TO.P, ,3*
X66997231Y-125913730D03*
D17*
G04 #@! TO.P, ,1*
G04 #@! TO.N,col1*
X70747231Y-116433730D03*
G04 #@! TO.P, ,2*
G04 #@! TO.N,col1_row3*
X65707231Y-116433730D03*
D18*
G04 #@! TO.P, ,1*
G04 #@! TO.N,col1*
X72037231Y-118393730D03*
G04 #@! TO.P, ,2*
G04 #@! TO.N,col1_row3*
X64417231Y-118393730D03*
D19*
G04 #@! TO.P, ,*
G04 #@! TO.N,*
X73377231Y-125933730D03*
D20*
G04 #@! TO.P, ,2*
G04 #@! TO.N,col1_row3*
X63227231Y-117133730D03*
D19*
G04 #@! TO.P, ,*
G04 #@! TO.N,*
X63077231Y-125933730D03*
G04 #@! TO.P, ,5*
G04 #@! TO.N,N/C*
X68227231Y-115033730D03*
D20*
G04 #@! TO.P, ,1*
G04 #@! TO.N,col1*
X73227231Y-117133730D03*
G04 #@! TD*
D15*
G04 #@! TO.P, ,*
G04 #@! TO.N,*
X54402000Y-125104000D03*
X43962000Y-125104000D03*
D16*
G04 #@! TO.P, ,4*
G04 #@! TO.N,N/C*
X50452000Y-125834000D03*
G04 #@! TO.P, ,3*
X47952000Y-125884000D03*
D17*
G04 #@! TO.P, ,1*
G04 #@! TO.N,col0*
X51702000Y-116404000D03*
G04 #@! TO.P, ,2*
G04 #@! TO.N,col0_row3*
X46662000Y-116404000D03*
D18*
G04 #@! TO.P, ,1*
G04 #@! TO.N,col0*
X52992000Y-118364000D03*
G04 #@! TO.P, ,2*
G04 #@! TO.N,col0_row3*
X45372000Y-118364000D03*
D19*
G04 #@! TO.P, ,*
G04 #@! TO.N,*
X54332000Y-125904000D03*
D20*
G04 #@! TO.P, ,2*
G04 #@! TO.N,col0_row3*
X44182000Y-117104000D03*
D19*
G04 #@! TO.P, ,*
G04 #@! TO.N,*
X44032000Y-125904000D03*
G04 #@! TO.P, ,5*
G04 #@! TO.N,N/C*
X49182000Y-115004000D03*
D20*
G04 #@! TO.P, ,1*
G04 #@! TO.N,col0*
X54182000Y-117104000D03*
G04 #@! TD*
D15*
G04 #@! TO.P, ,*
G04 #@! TO.N,*
X54402000Y-106054000D03*
X43962000Y-106054000D03*
D16*
G04 #@! TO.P, ,4*
G04 #@! TO.N,N/C*
X50452000Y-106784000D03*
G04 #@! TO.P, ,3*
X47952000Y-106834000D03*
D17*
G04 #@! TO.P, ,1*
G04 #@! TO.N,col0*
X51702000Y-97354000D03*
G04 #@! TO.P, ,2*
G04 #@! TO.N,col0_row2*
X46662000Y-97354000D03*
D18*
G04 #@! TO.P, ,1*
G04 #@! TO.N,col0*
X52992000Y-99314000D03*
G04 #@! TO.P, ,2*
G04 #@! TO.N,col0_row2*
X45372000Y-99314000D03*
D19*
G04 #@! TO.P, ,*
G04 #@! TO.N,*
X54332000Y-106854000D03*
D20*
G04 #@! TO.P, ,2*
G04 #@! TO.N,col0_row2*
X44182000Y-98054000D03*
D19*
G04 #@! TO.P, ,*
G04 #@! TO.N,*
X44032000Y-106854000D03*
G04 #@! TO.P, ,5*
G04 #@! TO.N,N/C*
X49182000Y-95954000D03*
D20*
G04 #@! TO.P, ,1*
G04 #@! TO.N,col0*
X54182000Y-98054000D03*
G04 #@! TD*
D15*
G04 #@! TO.P, ,*
G04 #@! TO.N,*
X54402000Y-87004000D03*
X43962000Y-87004000D03*
D16*
G04 #@! TO.P, ,4*
G04 #@! TO.N,N/C*
X50452000Y-87734000D03*
G04 #@! TO.P, ,3*
X47952000Y-87784000D03*
D17*
G04 #@! TO.P, ,1*
G04 #@! TO.N,col0*
X51702000Y-78304000D03*
G04 #@! TO.P, ,2*
G04 #@! TO.N,col0_row1*
X46662000Y-78304000D03*
D18*
G04 #@! TO.P, ,1*
G04 #@! TO.N,col0*
X52992000Y-80264000D03*
G04 #@! TO.P, ,2*
G04 #@! TO.N,col0_row1*
X45372000Y-80264000D03*
D19*
G04 #@! TO.P, ,*
G04 #@! TO.N,*
X54332000Y-87804000D03*
D20*
G04 #@! TO.P, ,2*
G04 #@! TO.N,col0_row1*
X44182000Y-79004000D03*
D19*
G04 #@! TO.P, ,*
G04 #@! TO.N,*
X44032000Y-87804000D03*
G04 #@! TO.P, ,5*
G04 #@! TO.N,N/C*
X49182000Y-76904000D03*
D20*
G04 #@! TO.P, ,1*
G04 #@! TO.N,col0*
X54182000Y-79004000D03*
G04 #@! TD*
D21*
G04 #@! TO.P,U1,1*
G04 #@! TO.N,N/C*
X60667231Y-49530000D03*
D22*
G04 #@! TO.P,U1,2*
X60667231Y-52070000D03*
G04 #@! TO.P,U1,3*
G04 #@! TO.N,RESET_GND*
X60667231Y-54610000D03*
G04 #@! TO.P,U1,4*
G04 #@! TO.N,N/C*
X60667231Y-57150000D03*
G04 #@! TO.P,U1,5*
G04 #@! TO.N,row0*
X60667231Y-59690000D03*
G04 #@! TO.P,U1,6*
G04 #@! TO.N,row1*
X60667231Y-62230000D03*
G04 #@! TO.P,U1,7*
G04 #@! TO.N,row2*
X60667231Y-64770000D03*
G04 #@! TO.P,U1,8*
G04 #@! TO.N,row3*
X60667231Y-67310000D03*
G04 #@! TO.P,U1,9*
G04 #@! TO.N,col0*
X60667231Y-69850000D03*
G04 #@! TO.P,U1,10*
G04 #@! TO.N,col1*
X60667231Y-72390000D03*
G04 #@! TO.P,U1,11*
G04 #@! TO.N,col2*
X60667231Y-74930000D03*
G04 #@! TO.P,U1,13*
G04 #@! TO.N,col4*
X75907231Y-77470000D03*
G04 #@! TO.P,U1,14*
G04 #@! TO.N,col5*
X75907231Y-74930000D03*
G04 #@! TO.P,U1,15*
G04 #@! TO.N,N/C*
X75907231Y-72390000D03*
G04 #@! TO.P,U1,16*
X75907231Y-69850000D03*
G04 #@! TO.P,U1,17*
X75907231Y-67310000D03*
G04 #@! TO.P,U1,18*
X75907231Y-64770000D03*
G04 #@! TO.P,U1,19*
X75907231Y-62230000D03*
G04 #@! TO.P,U1,20*
X75907231Y-59690000D03*
G04 #@! TO.P,U1,21*
X75907231Y-57150000D03*
G04 #@! TO.P,U1,22*
G04 #@! TO.N,RESET*
X75907231Y-54610000D03*
G04 #@! TO.P,U1,23*
G04 #@! TO.N,BAT_GND*
X75907231Y-52070000D03*
G04 #@! TO.P,U1,12*
G04 #@! TO.N,col3*
X60667231Y-77470000D03*
G04 #@! TO.P,U1,24*
G04 #@! TO.N,BAT0*
X75907231Y-49530000D03*
G04 #@! TD*
D23*
G04 #@! TO.P, ,2*
G04 #@! TO.N,BAT_SW*
X67818000Y-49530000D03*
D24*
G04 #@! TO.P, ,1*
G04 #@! TO.N,BAT0*
X70358000Y-49530000D03*
G04 #@! TD*
D25*
G04 #@! TO.P, ,1*
G04 #@! TO.N,N/C*
X50328000Y-49944000D03*
G04 #@! TO.P, ,2*
G04 #@! TO.N,BAT_SW*
X53328000Y-49944000D03*
G04 #@! TO.P, ,3*
G04 #@! TO.N,BAT_GND*
X54828000Y-49944000D03*
D26*
G04 #@! TO.P, ,*
G04 #@! TO.N,*
X48928000Y-47084000D03*
X56228000Y-47084000D03*
X56228000Y-49294000D03*
X48928000Y-49294000D03*
G04 #@! TD*
D27*
G04 #@! TO.P,REF\u002A\u002A,2*
G04 #@! TO.N,RESET_GND*
X80088000Y-47498000D03*
G04 #@! TO.P,REF\u002A\u002A,1*
G04 #@! TO.N,RESET*
X83488000Y-47498000D03*
G04 #@! TD*
D28*
G04 #@! TO.N,row3*
X58330000Y-106590000D03*
G04 #@! TO.N,col3*
X107687518Y-84827518D03*
G04 #@! TO.N,row2*
X58383001Y-87666999D03*
G04 #@! TO.N,BAT_GND*
X57422999Y-49765001D03*
G04 #@! TO.N,RESET*
X81133616Y-49383616D03*
G04 #@! TO.N,RESET_GND*
X79248000Y-49530000D03*
G04 #@! TD*
D29*
G04 #@! TO.N,col2_row0*
X83005302Y-50289999D02*
X83005302Y-50800000D01*
G04 #@! TO.N,row3*
X53805001Y-111114999D02*
X53805001Y-111490000D01*
X59465930Y-105454070D02*
X58330000Y-106590000D01*
X59465930Y-68511301D02*
X59465930Y-105454070D01*
X60667231Y-67310000D02*
X59465930Y-68511301D01*
X58330000Y-106590000D02*
X53805001Y-111114999D01*
G04 #@! TO.N,col0*
X52756999Y-99549001D02*
X52992000Y-99314000D01*
X52756999Y-106964003D02*
X52756999Y-99549001D01*
X49804999Y-109916003D02*
X52756999Y-106964003D01*
X49804999Y-112350001D02*
X49804999Y-109916003D01*
X51702000Y-114247002D02*
X49804999Y-112350001D01*
X51702000Y-116404000D02*
X51702000Y-114247002D01*
X52007001Y-81248999D02*
X52992000Y-80264000D01*
X52007001Y-88664001D02*
X52007001Y-81248999D01*
X49804999Y-90866003D02*
X52007001Y-88664001D01*
X49804999Y-93538499D02*
X49804999Y-90866003D01*
X51702000Y-95435500D02*
X49804999Y-93538499D01*
X51702000Y-97354000D02*
X51702000Y-95435500D01*
X52756999Y-61449001D02*
X52992000Y-61214000D01*
X49296999Y-72799999D02*
X52756999Y-69339999D01*
X49296999Y-74696999D02*
X49296999Y-72799999D01*
X51702000Y-77102000D02*
X49296999Y-74696999D01*
X51702000Y-78304000D02*
X51702000Y-77102000D01*
X61761963Y-69850000D02*
X60667231Y-69850000D01*
X64652232Y-66959731D02*
X61761963Y-69850000D01*
X63133202Y-63568699D02*
X64652232Y-65087729D01*
X60090606Y-63568699D02*
X63133202Y-63568699D01*
X57036304Y-66623001D02*
X60090606Y-63568699D01*
X64652232Y-65087729D02*
X64652232Y-66959731D01*
X52756999Y-66623001D02*
X57036304Y-66623001D01*
X52756999Y-69339999D02*
X52756999Y-66623001D01*
X52756999Y-66623001D02*
X52756999Y-61449001D01*
G04 #@! TO.N,col1*
X70747231Y-74540827D02*
X70747231Y-75751829D01*
X68562230Y-72355826D02*
X70747231Y-74540827D01*
X68562230Y-70259999D02*
X68562230Y-72355826D01*
X71802230Y-67019999D02*
X68562230Y-70259999D01*
X71802230Y-58898731D02*
X71802230Y-67019999D01*
X72037231Y-58663730D02*
X71802230Y-58898731D01*
X60701405Y-72355826D02*
X60667231Y-72390000D01*
X68562230Y-72355826D02*
X60701405Y-72355826D01*
X70747231Y-93589228D02*
X70747231Y-94800230D01*
X68562230Y-91404227D02*
X70747231Y-93589228D01*
X68562230Y-89309999D02*
X68562230Y-91404227D01*
X71802230Y-86069999D02*
X68562230Y-89309999D01*
X71802230Y-77946830D02*
X71802230Y-86069999D01*
X72037231Y-77711829D02*
X71802230Y-77946830D01*
X70747231Y-115222728D02*
X70747231Y-116433730D01*
X69070230Y-113545727D02*
X70747231Y-115222728D01*
X69070230Y-110629999D02*
X69070230Y-113545727D01*
X70572232Y-109127997D02*
X69070230Y-110629999D01*
X70572232Y-104687768D02*
X70572232Y-109127997D01*
X72037231Y-103222769D02*
X70572232Y-104687768D01*
X72037231Y-96760230D02*
X72037231Y-103222769D01*
G04 #@! TO.N,col2*
X90855302Y-103183733D02*
X90855302Y-95768731D01*
X88063302Y-105975733D02*
X90855302Y-103183733D01*
X90855302Y-95768731D02*
X91090303Y-95533730D01*
X88063302Y-112350001D02*
X88063302Y-105975733D01*
X89800303Y-114087002D02*
X88063302Y-112350001D01*
X89800303Y-116433730D02*
X89800303Y-114087002D01*
X90855302Y-76718731D02*
X91090303Y-76483730D01*
X90855302Y-84133733D02*
X90855302Y-76718731D01*
X87555302Y-87433733D02*
X90855302Y-84133733D01*
X87555302Y-89760001D02*
X87555302Y-87433733D01*
X89800303Y-92005002D02*
X87555302Y-89760001D01*
X89800303Y-93573730D02*
X89800303Y-92005002D01*
X90855302Y-57664731D02*
X91090303Y-57429730D01*
X87555302Y-68379733D02*
X90855302Y-65079733D01*
X90855302Y-65079733D02*
X90855302Y-57664731D01*
X87555302Y-70710001D02*
X87555302Y-68379733D01*
X89800303Y-72955002D02*
X87555302Y-70710001D01*
X89800303Y-74523730D02*
X89800303Y-72955002D01*
G04 #@! TO.N,col3*
X109905302Y-94244731D02*
X110140303Y-94009730D01*
X107113302Y-104451733D02*
X109905302Y-101659733D01*
X109905302Y-101659733D02*
X109905302Y-94244731D01*
X107113302Y-112350001D02*
X107113302Y-104451733D01*
X108850303Y-114087002D02*
X107113302Y-112350001D01*
X108850303Y-116433730D02*
X108850303Y-114087002D01*
X109905302Y-75194731D02*
X110140303Y-74959730D01*
X106605302Y-85909733D02*
X107687518Y-84827518D01*
X109905302Y-82609733D02*
X109905302Y-75194731D01*
X106605302Y-88490001D02*
X106605302Y-85909733D01*
X108850303Y-90735002D02*
X106605302Y-88490001D01*
X108850303Y-92049730D02*
X108850303Y-90735002D01*
X110140303Y-58820732D02*
X110140303Y-55909730D01*
X107686304Y-61274731D02*
X110140303Y-58820732D01*
X106525302Y-61274731D02*
X107686304Y-61274731D01*
X106525302Y-69360001D02*
X106525302Y-61274731D01*
X108850303Y-71685002D02*
X106525302Y-69360001D01*
X108850303Y-72999730D02*
X108850303Y-71685002D01*
X107687518Y-84827518D02*
X109905302Y-82609733D01*
G04 #@! TO.N,col4*
X128955302Y-95514731D02*
X129190303Y-95279730D01*
X128955302Y-102929733D02*
X128955302Y-95514731D01*
X126163302Y-105721733D02*
X128955302Y-102929733D01*
X126163302Y-112778229D02*
X126163302Y-105721733D01*
X127900303Y-114515230D02*
X126163302Y-112778229D01*
X127900303Y-116433730D02*
X127900303Y-114515230D01*
X128955302Y-76464731D02*
X129190303Y-76229730D01*
X125655302Y-87179733D02*
X128955302Y-83879733D01*
X128955302Y-83879733D02*
X128955302Y-76464731D01*
X125655302Y-89760001D02*
X125655302Y-87179733D01*
X127900303Y-92005002D02*
X125655302Y-89760001D01*
X127900303Y-93319730D02*
X127900303Y-92005002D01*
X128955302Y-57414731D02*
X129190303Y-57179730D01*
X128955302Y-65689999D02*
X128955302Y-57414731D01*
X125655302Y-68989999D02*
X128955302Y-65689999D01*
X125655302Y-70710001D02*
X125655302Y-68989999D01*
X127900303Y-72955002D02*
X125655302Y-70710001D01*
X127900303Y-74269730D02*
X127900303Y-72955002D01*
X126843802Y-52244729D02*
X127900303Y-53301230D01*
X119670302Y-50655001D02*
X121260030Y-52244729D01*
X105894030Y-50655001D02*
X119670302Y-50655001D01*
X104624030Y-51925001D02*
X105894030Y-50655001D01*
X84416030Y-51925001D02*
X104624030Y-51925001D01*
X121260030Y-52244729D02*
X126843802Y-52244729D01*
X77558542Y-58782489D02*
X84416030Y-51925001D01*
X77558542Y-75818689D02*
X77558542Y-58782489D01*
X127900303Y-53301230D02*
X127900303Y-55219730D01*
X75907231Y-77470000D02*
X77558542Y-75818689D01*
G04 #@! TO.N,col5*
X148005302Y-98054731D02*
X148240303Y-97819730D01*
X148005302Y-105469733D02*
X148005302Y-98054731D01*
X144690302Y-108784733D02*
X148005302Y-105469733D01*
X144690302Y-112255229D02*
X144690302Y-108784733D01*
X146950303Y-114515230D02*
X144690302Y-112255229D01*
X146950303Y-116433730D02*
X146950303Y-114515230D01*
X148005302Y-79004731D02*
X148240303Y-78769730D01*
X148005302Y-86419733D02*
X148005302Y-79004731D01*
X144705302Y-89719733D02*
X148005302Y-86419733D01*
X144705302Y-92300001D02*
X144705302Y-89719733D01*
X146950303Y-94545002D02*
X144705302Y-92300001D01*
X146950303Y-95859730D02*
X146950303Y-94545002D01*
X144155304Y-71219731D02*
X148005302Y-67369733D01*
X148005302Y-59954731D02*
X148240303Y-59719730D01*
X144155304Y-72700003D02*
X144155304Y-71219731D01*
X148005302Y-67369733D02*
X148005302Y-59954731D01*
X146950303Y-75495002D02*
X144155304Y-72700003D01*
X146950303Y-76809730D02*
X146950303Y-75495002D01*
X145580304Y-48404999D02*
X149455304Y-52279999D01*
X149455304Y-52279999D02*
X149455304Y-58434729D01*
X101890302Y-48404999D02*
X145580304Y-48404999D01*
X101186212Y-49109089D02*
X101890302Y-48404999D01*
X149455304Y-58434729D02*
X149430303Y-58459730D01*
X83406212Y-49109089D02*
X101186212Y-49109089D01*
X77108532Y-55406769D02*
X83406212Y-49109089D01*
X77108532Y-73728699D02*
X77108532Y-55406769D01*
X75907231Y-74930000D02*
X77108532Y-73728699D01*
G04 #@! TO.N,row2*
X53805001Y-92334999D02*
X53805001Y-92710000D01*
X58383001Y-87756999D02*
X53805001Y-92334999D01*
X58383001Y-67054230D02*
X58383001Y-87666999D01*
X60667231Y-64770000D02*
X58383001Y-67054230D01*
X58383001Y-87666999D02*
X58383001Y-87756999D01*
G04 #@! TO.N,BAT_SW*
X66616699Y-50731301D02*
X67818000Y-49530000D01*
X58708999Y-51019001D02*
X58996699Y-50731301D01*
X53403001Y-51019001D02*
X58708999Y-51019001D01*
X58996699Y-50731301D02*
X66616699Y-50731301D01*
X53328000Y-50944000D02*
X53403001Y-51019001D01*
X53328000Y-49944000D02*
X53328000Y-50944000D01*
G04 #@! TO.N,BAT_GND*
X54828000Y-49690000D02*
X54903001Y-49765001D01*
X54828000Y-49690000D02*
X54903001Y-49765001D01*
X72165930Y-48328699D02*
X58859301Y-48328699D01*
X58859301Y-48328699D02*
X57422999Y-49765001D01*
X75907231Y-52070000D02*
X72165930Y-48328699D01*
X57168999Y-50019001D02*
X57422999Y-49765001D01*
X54903001Y-50019001D02*
X57168999Y-50019001D01*
X54828000Y-49944000D02*
X54903001Y-50019001D01*
G04 #@! TO.N,RESET*
X83488000Y-46990000D02*
X83488000Y-47029231D01*
X83488000Y-46990000D02*
X83488000Y-47029231D01*
X81387616Y-49129616D02*
X81133616Y-49383616D01*
X83488000Y-47029231D02*
X81387616Y-49129616D01*
X81133616Y-49383616D02*
X75907231Y-54610000D01*
G04 #@! TO.N,RESET_GND*
X79248000Y-50632822D02*
X79164411Y-50716411D01*
X79248000Y-49530000D02*
X79248000Y-50632822D01*
X79164411Y-50716411D02*
X76472122Y-53408699D01*
X61868532Y-53408699D02*
X76472122Y-53408699D01*
X60667231Y-54610000D02*
X61868532Y-53408699D01*
X80088000Y-48690000D02*
X79248000Y-49530000D01*
X80088000Y-47498000D02*
X80088000Y-48690000D01*
G04 #@! TD*
M02*
