G04 #@! TF.GenerationSoftware,KiCad,Pcbnew,5.1.9*
G04 #@! TF.CreationDate,2021-01-18T19:30:39-06:00*
G04 #@! TF.ProjectId,halfboard,68616c66-626f-4617-9264-2e6b69636164,rev?*
G04 #@! TF.SameCoordinates,Original*
G04 #@! TF.FileFunction,Other,ECO2*
%FSLAX46Y46*%
G04 Gerber Fmt 4.6, Leading zero omitted, Abs format (unit mm)*
G04 Created by KiCad (PCBNEW 5.1.9) date 2021-01-18 19:30:39*
%MOMM*%
%LPD*%
G01*
G04 APERTURE LIST*
%ADD10C,0.152400*%
G04 APERTURE END LIST*
D10*
G04 #@! TO.C, *
X56167000Y-69758560D02*
X56167000Y-70739000D01*
X56979800Y-69758560D02*
X56167000Y-69758560D01*
X56979800Y-66258440D02*
X56979800Y-69758560D01*
X56167000Y-66258440D02*
X56979800Y-66258440D01*
X56167000Y-61249560D02*
X56167000Y-66258440D01*
X56979800Y-61249560D02*
X56167000Y-61249560D01*
X56979800Y-57749440D02*
X56979800Y-61249560D01*
X56167000Y-57749440D02*
X56979800Y-57749440D01*
X56167000Y-56769000D02*
X56167000Y-57749440D01*
X42197000Y-56769000D02*
X56167000Y-56769000D01*
X42197000Y-57749440D02*
X42197000Y-56769000D01*
X41384200Y-57749440D02*
X42197000Y-57749440D01*
X41384200Y-61249560D02*
X41384200Y-57749440D01*
X42197000Y-61249560D02*
X41384200Y-61249560D01*
X42197000Y-66258440D02*
X42197000Y-61249560D01*
X41384200Y-66258440D02*
X42197000Y-66258440D01*
X41384200Y-69758560D02*
X41384200Y-66258440D01*
X42197000Y-69758560D02*
X41384200Y-69758560D01*
X42197000Y-70739000D02*
X42197000Y-69758560D01*
X56167000Y-70739000D02*
X42197000Y-70739000D01*
X151415303Y-68264290D02*
X151415303Y-69244730D01*
X152228103Y-68264290D02*
X151415303Y-68264290D01*
X152228103Y-64764170D02*
X152228103Y-68264290D01*
X151415303Y-64764170D02*
X152228103Y-64764170D01*
X151415303Y-59755290D02*
X151415303Y-64764170D01*
X152228103Y-59755290D02*
X151415303Y-59755290D01*
X152228103Y-56255170D02*
X152228103Y-59755290D01*
X151415303Y-56255170D02*
X152228103Y-56255170D01*
X151415303Y-55274730D02*
X151415303Y-56255170D01*
X137445303Y-55274730D02*
X151415303Y-55274730D01*
X137445303Y-56255170D02*
X137445303Y-55274730D01*
X136632503Y-56255170D02*
X137445303Y-56255170D01*
X136632503Y-59755290D02*
X136632503Y-56255170D01*
X137445303Y-59755290D02*
X136632503Y-59755290D01*
X137445303Y-64764170D02*
X137445303Y-59755290D01*
X136632503Y-64764170D02*
X137445303Y-64764170D01*
X136632503Y-68264290D02*
X136632503Y-64764170D01*
X137445303Y-68264290D02*
X136632503Y-68264290D01*
X137445303Y-69244730D02*
X137445303Y-68264290D01*
X151415303Y-69244730D02*
X137445303Y-69244730D01*
X151415303Y-87314290D02*
X151415303Y-88294730D01*
X152228103Y-87314290D02*
X151415303Y-87314290D01*
X152228103Y-83814170D02*
X152228103Y-87314290D01*
X151415303Y-83814170D02*
X152228103Y-83814170D01*
X151415303Y-78805290D02*
X151415303Y-83814170D01*
X152228103Y-78805290D02*
X151415303Y-78805290D01*
X152228103Y-75305170D02*
X152228103Y-78805290D01*
X151415303Y-75305170D02*
X152228103Y-75305170D01*
X151415303Y-74324730D02*
X151415303Y-75305170D01*
X137445303Y-74324730D02*
X151415303Y-74324730D01*
X137445303Y-75305170D02*
X137445303Y-74324730D01*
X136632503Y-75305170D02*
X137445303Y-75305170D01*
X136632503Y-78805290D02*
X136632503Y-75305170D01*
X137445303Y-78805290D02*
X136632503Y-78805290D01*
X137445303Y-83814170D02*
X137445303Y-78805290D01*
X136632503Y-83814170D02*
X137445303Y-83814170D01*
X136632503Y-87314290D02*
X136632503Y-83814170D01*
X137445303Y-87314290D02*
X136632503Y-87314290D01*
X137445303Y-88294730D02*
X137445303Y-87314290D01*
X151415303Y-88294730D02*
X137445303Y-88294730D01*
X151415303Y-106364290D02*
X151415303Y-107344730D01*
X152228103Y-106364290D02*
X151415303Y-106364290D01*
X152228103Y-102864170D02*
X152228103Y-106364290D01*
X151415303Y-102864170D02*
X152228103Y-102864170D01*
X151415303Y-97855290D02*
X151415303Y-102864170D01*
X152228103Y-97855290D02*
X151415303Y-97855290D01*
X152228103Y-94355170D02*
X152228103Y-97855290D01*
X151415303Y-94355170D02*
X152228103Y-94355170D01*
X151415303Y-93374730D02*
X151415303Y-94355170D01*
X137445303Y-93374730D02*
X151415303Y-93374730D01*
X137445303Y-94355170D02*
X137445303Y-93374730D01*
X136632503Y-94355170D02*
X137445303Y-94355170D01*
X136632503Y-97855290D02*
X136632503Y-94355170D01*
X137445303Y-97855290D02*
X136632503Y-97855290D01*
X137445303Y-102864170D02*
X137445303Y-97855290D01*
X136632503Y-102864170D02*
X137445303Y-102864170D01*
X136632503Y-106364290D02*
X136632503Y-102864170D01*
X137445303Y-106364290D02*
X136632503Y-106364290D01*
X137445303Y-107344730D02*
X137445303Y-106364290D01*
X151415303Y-107344730D02*
X137445303Y-107344730D01*
X151415303Y-126938290D02*
X151415303Y-127918730D01*
X152228103Y-126938290D02*
X151415303Y-126938290D01*
X152228103Y-123438170D02*
X152228103Y-126938290D01*
X151415303Y-123438170D02*
X152228103Y-123438170D01*
X151415303Y-118429290D02*
X151415303Y-123438170D01*
X152228103Y-118429290D02*
X151415303Y-118429290D01*
X152228103Y-114929170D02*
X152228103Y-118429290D01*
X151415303Y-114929170D02*
X152228103Y-114929170D01*
X151415303Y-113948730D02*
X151415303Y-114929170D01*
X137445303Y-113948730D02*
X151415303Y-113948730D01*
X137445303Y-114929170D02*
X137445303Y-113948730D01*
X136632503Y-114929170D02*
X137445303Y-114929170D01*
X136632503Y-118429290D02*
X136632503Y-114929170D01*
X137445303Y-118429290D02*
X136632503Y-118429290D01*
X137445303Y-123438170D02*
X137445303Y-118429290D01*
X136632503Y-123438170D02*
X137445303Y-123438170D01*
X136632503Y-126938290D02*
X136632503Y-123438170D01*
X137445303Y-126938290D02*
X136632503Y-126938290D01*
X137445303Y-127918730D02*
X137445303Y-126938290D01*
X151415303Y-127918730D02*
X137445303Y-127918730D01*
X132365303Y-126938290D02*
X132365303Y-127918730D01*
X133178103Y-126938290D02*
X132365303Y-126938290D01*
X133178103Y-123438170D02*
X133178103Y-126938290D01*
X132365303Y-123438170D02*
X133178103Y-123438170D01*
X132365303Y-118429290D02*
X132365303Y-123438170D01*
X133178103Y-118429290D02*
X132365303Y-118429290D01*
X133178103Y-114929170D02*
X133178103Y-118429290D01*
X132365303Y-114929170D02*
X133178103Y-114929170D01*
X132365303Y-113948730D02*
X132365303Y-114929170D01*
X118395303Y-113948730D02*
X132365303Y-113948730D01*
X118395303Y-114929170D02*
X118395303Y-113948730D01*
X117582503Y-114929170D02*
X118395303Y-114929170D01*
X117582503Y-118429290D02*
X117582503Y-114929170D01*
X118395303Y-118429290D02*
X117582503Y-118429290D01*
X118395303Y-123438170D02*
X118395303Y-118429290D01*
X117582503Y-123438170D02*
X118395303Y-123438170D01*
X117582503Y-126938290D02*
X117582503Y-123438170D01*
X118395303Y-126938290D02*
X117582503Y-126938290D01*
X118395303Y-127918730D02*
X118395303Y-126938290D01*
X132365303Y-127918730D02*
X118395303Y-127918730D01*
X113315303Y-126938290D02*
X113315303Y-127918730D01*
X114128103Y-126938290D02*
X113315303Y-126938290D01*
X114128103Y-123438170D02*
X114128103Y-126938290D01*
X113315303Y-123438170D02*
X114128103Y-123438170D01*
X113315303Y-118429290D02*
X113315303Y-123438170D01*
X114128103Y-118429290D02*
X113315303Y-118429290D01*
X114128103Y-114929170D02*
X114128103Y-118429290D01*
X113315303Y-114929170D02*
X114128103Y-114929170D01*
X113315303Y-113948730D02*
X113315303Y-114929170D01*
X99345303Y-113948730D02*
X113315303Y-113948730D01*
X99345303Y-114929170D02*
X99345303Y-113948730D01*
X98532503Y-114929170D02*
X99345303Y-114929170D01*
X98532503Y-118429290D02*
X98532503Y-114929170D01*
X99345303Y-118429290D02*
X98532503Y-118429290D01*
X99345303Y-123438170D02*
X99345303Y-118429290D01*
X98532503Y-123438170D02*
X99345303Y-123438170D01*
X98532503Y-126938290D02*
X98532503Y-123438170D01*
X99345303Y-126938290D02*
X98532503Y-126938290D01*
X99345303Y-127918730D02*
X99345303Y-126938290D01*
X113315303Y-127918730D02*
X99345303Y-127918730D01*
X94265303Y-126938290D02*
X94265303Y-127918730D01*
X95078103Y-126938290D02*
X94265303Y-126938290D01*
X95078103Y-123438170D02*
X95078103Y-126938290D01*
X94265303Y-123438170D02*
X95078103Y-123438170D01*
X94265303Y-118429290D02*
X94265303Y-123438170D01*
X95078103Y-118429290D02*
X94265303Y-118429290D01*
X95078103Y-114929170D02*
X95078103Y-118429290D01*
X94265303Y-114929170D02*
X95078103Y-114929170D01*
X94265303Y-113948730D02*
X94265303Y-114929170D01*
X80295303Y-113948730D02*
X94265303Y-113948730D01*
X80295303Y-114929170D02*
X80295303Y-113948730D01*
X79482503Y-114929170D02*
X80295303Y-114929170D01*
X79482503Y-118429290D02*
X79482503Y-114929170D01*
X80295303Y-118429290D02*
X79482503Y-118429290D01*
X80295303Y-123438170D02*
X80295303Y-118429290D01*
X79482503Y-123438170D02*
X80295303Y-123438170D01*
X79482503Y-126938290D02*
X79482503Y-123438170D01*
X80295303Y-126938290D02*
X79482503Y-126938290D01*
X80295303Y-127918730D02*
X80295303Y-126938290D01*
X94265303Y-127918730D02*
X80295303Y-127918730D01*
X132365303Y-103824290D02*
X132365303Y-104804730D01*
X133178103Y-103824290D02*
X132365303Y-103824290D01*
X133178103Y-100324170D02*
X133178103Y-103824290D01*
X132365303Y-100324170D02*
X133178103Y-100324170D01*
X132365303Y-95315290D02*
X132365303Y-100324170D01*
X133178103Y-95315290D02*
X132365303Y-95315290D01*
X133178103Y-91815170D02*
X133178103Y-95315290D01*
X132365303Y-91815170D02*
X133178103Y-91815170D01*
X132365303Y-90834730D02*
X132365303Y-91815170D01*
X118395303Y-90834730D02*
X132365303Y-90834730D01*
X118395303Y-91815170D02*
X118395303Y-90834730D01*
X117582503Y-91815170D02*
X118395303Y-91815170D01*
X117582503Y-95315290D02*
X117582503Y-91815170D01*
X118395303Y-95315290D02*
X117582503Y-95315290D01*
X118395303Y-100324170D02*
X118395303Y-95315290D01*
X117582503Y-100324170D02*
X118395303Y-100324170D01*
X117582503Y-103824290D02*
X117582503Y-100324170D01*
X118395303Y-103824290D02*
X117582503Y-103824290D01*
X118395303Y-104804730D02*
X118395303Y-103824290D01*
X132365303Y-104804730D02*
X118395303Y-104804730D01*
X132365303Y-84774290D02*
X132365303Y-85754730D01*
X133178103Y-84774290D02*
X132365303Y-84774290D01*
X133178103Y-81274170D02*
X133178103Y-84774290D01*
X132365303Y-81274170D02*
X133178103Y-81274170D01*
X132365303Y-76265290D02*
X132365303Y-81274170D01*
X133178103Y-76265290D02*
X132365303Y-76265290D01*
X133178103Y-72765170D02*
X133178103Y-76265290D01*
X132365303Y-72765170D02*
X133178103Y-72765170D01*
X132365303Y-71784730D02*
X132365303Y-72765170D01*
X118395303Y-71784730D02*
X132365303Y-71784730D01*
X118395303Y-72765170D02*
X118395303Y-71784730D01*
X117582503Y-72765170D02*
X118395303Y-72765170D01*
X117582503Y-76265290D02*
X117582503Y-72765170D01*
X118395303Y-76265290D02*
X117582503Y-76265290D01*
X118395303Y-81274170D02*
X118395303Y-76265290D01*
X117582503Y-81274170D02*
X118395303Y-81274170D01*
X117582503Y-84774290D02*
X117582503Y-81274170D01*
X118395303Y-84774290D02*
X117582503Y-84774290D01*
X118395303Y-85754730D02*
X118395303Y-84774290D01*
X132365303Y-85754730D02*
X118395303Y-85754730D01*
X132365303Y-65724290D02*
X132365303Y-66704730D01*
X133178103Y-65724290D02*
X132365303Y-65724290D01*
X133178103Y-62224170D02*
X133178103Y-65724290D01*
X132365303Y-62224170D02*
X133178103Y-62224170D01*
X132365303Y-57215290D02*
X132365303Y-62224170D01*
X133178103Y-57215290D02*
X132365303Y-57215290D01*
X133178103Y-53715170D02*
X133178103Y-57215290D01*
X132365303Y-53715170D02*
X133178103Y-53715170D01*
X132365303Y-52734730D02*
X132365303Y-53715170D01*
X118395303Y-52734730D02*
X132365303Y-52734730D01*
X118395303Y-53715170D02*
X118395303Y-52734730D01*
X117582503Y-53715170D02*
X118395303Y-53715170D01*
X117582503Y-57215290D02*
X117582503Y-53715170D01*
X118395303Y-57215290D02*
X117582503Y-57215290D01*
X118395303Y-62224170D02*
X118395303Y-57215290D01*
X117582503Y-62224170D02*
X118395303Y-62224170D01*
X117582503Y-65724290D02*
X117582503Y-62224170D01*
X118395303Y-65724290D02*
X117582503Y-65724290D01*
X118395303Y-66704730D02*
X118395303Y-65724290D01*
X132365303Y-66704730D02*
X118395303Y-66704730D01*
X113315303Y-64454290D02*
X113315303Y-65434730D01*
X114128103Y-64454290D02*
X113315303Y-64454290D01*
X114128103Y-60954170D02*
X114128103Y-64454290D01*
X113315303Y-60954170D02*
X114128103Y-60954170D01*
X113315303Y-55945290D02*
X113315303Y-60954170D01*
X114128103Y-55945290D02*
X113315303Y-55945290D01*
X114128103Y-52445170D02*
X114128103Y-55945290D01*
X113315303Y-52445170D02*
X114128103Y-52445170D01*
X113315303Y-51464730D02*
X113315303Y-52445170D01*
X99345303Y-51464730D02*
X113315303Y-51464730D01*
X99345303Y-52445170D02*
X99345303Y-51464730D01*
X98532503Y-52445170D02*
X99345303Y-52445170D01*
X98532503Y-55945290D02*
X98532503Y-52445170D01*
X99345303Y-55945290D02*
X98532503Y-55945290D01*
X99345303Y-60954170D02*
X99345303Y-55945290D01*
X98532503Y-60954170D02*
X99345303Y-60954170D01*
X98532503Y-64454290D02*
X98532503Y-60954170D01*
X99345303Y-64454290D02*
X98532503Y-64454290D01*
X99345303Y-65434730D02*
X99345303Y-64454290D01*
X113315303Y-65434730D02*
X99345303Y-65434730D01*
X113315303Y-83504290D02*
X113315303Y-84484730D01*
X114128103Y-83504290D02*
X113315303Y-83504290D01*
X114128103Y-80004170D02*
X114128103Y-83504290D01*
X113315303Y-80004170D02*
X114128103Y-80004170D01*
X113315303Y-74995290D02*
X113315303Y-80004170D01*
X114128103Y-74995290D02*
X113315303Y-74995290D01*
X114128103Y-71495170D02*
X114128103Y-74995290D01*
X113315303Y-71495170D02*
X114128103Y-71495170D01*
X113315303Y-70514730D02*
X113315303Y-71495170D01*
X99345303Y-70514730D02*
X113315303Y-70514730D01*
X99345303Y-71495170D02*
X99345303Y-70514730D01*
X98532503Y-71495170D02*
X99345303Y-71495170D01*
X98532503Y-74995290D02*
X98532503Y-71495170D01*
X99345303Y-74995290D02*
X98532503Y-74995290D01*
X99345303Y-80004170D02*
X99345303Y-74995290D01*
X98532503Y-80004170D02*
X99345303Y-80004170D01*
X98532503Y-83504290D02*
X98532503Y-80004170D01*
X99345303Y-83504290D02*
X98532503Y-83504290D01*
X99345303Y-84484730D02*
X99345303Y-83504290D01*
X113315303Y-84484730D02*
X99345303Y-84484730D01*
X113315303Y-102554290D02*
X113315303Y-103534730D01*
X114128103Y-102554290D02*
X113315303Y-102554290D01*
X114128103Y-99054170D02*
X114128103Y-102554290D01*
X113315303Y-99054170D02*
X114128103Y-99054170D01*
X113315303Y-94045290D02*
X113315303Y-99054170D01*
X114128103Y-94045290D02*
X113315303Y-94045290D01*
X114128103Y-90545170D02*
X114128103Y-94045290D01*
X113315303Y-90545170D02*
X114128103Y-90545170D01*
X113315303Y-89564730D02*
X113315303Y-90545170D01*
X99345303Y-89564730D02*
X113315303Y-89564730D01*
X99345303Y-90545170D02*
X99345303Y-89564730D01*
X98532503Y-90545170D02*
X99345303Y-90545170D01*
X98532503Y-94045290D02*
X98532503Y-90545170D01*
X99345303Y-94045290D02*
X98532503Y-94045290D01*
X99345303Y-99054170D02*
X99345303Y-94045290D01*
X98532503Y-99054170D02*
X99345303Y-99054170D01*
X98532503Y-102554290D02*
X98532503Y-99054170D01*
X99345303Y-102554290D02*
X98532503Y-102554290D01*
X99345303Y-103534730D02*
X99345303Y-102554290D01*
X113315303Y-103534730D02*
X99345303Y-103534730D01*
X94265303Y-104078290D02*
X94265303Y-105058730D01*
X95078103Y-104078290D02*
X94265303Y-104078290D01*
X95078103Y-100578170D02*
X95078103Y-104078290D01*
X94265303Y-100578170D02*
X95078103Y-100578170D01*
X94265303Y-95569290D02*
X94265303Y-100578170D01*
X95078103Y-95569290D02*
X94265303Y-95569290D01*
X95078103Y-92069170D02*
X95078103Y-95569290D01*
X94265303Y-92069170D02*
X95078103Y-92069170D01*
X94265303Y-91088730D02*
X94265303Y-92069170D01*
X80295303Y-91088730D02*
X94265303Y-91088730D01*
X80295303Y-92069170D02*
X80295303Y-91088730D01*
X79482503Y-92069170D02*
X80295303Y-92069170D01*
X79482503Y-95569290D02*
X79482503Y-92069170D01*
X80295303Y-95569290D02*
X79482503Y-95569290D01*
X80295303Y-100578170D02*
X80295303Y-95569290D01*
X79482503Y-100578170D02*
X80295303Y-100578170D01*
X79482503Y-104078290D02*
X79482503Y-100578170D01*
X80295303Y-104078290D02*
X79482503Y-104078290D01*
X80295303Y-105058730D02*
X80295303Y-104078290D01*
X94265303Y-105058730D02*
X80295303Y-105058730D01*
X94265303Y-85028290D02*
X94265303Y-86008730D01*
X95078103Y-85028290D02*
X94265303Y-85028290D01*
X95078103Y-81528170D02*
X95078103Y-85028290D01*
X94265303Y-81528170D02*
X95078103Y-81528170D01*
X94265303Y-76519290D02*
X94265303Y-81528170D01*
X95078103Y-76519290D02*
X94265303Y-76519290D01*
X95078103Y-73019170D02*
X95078103Y-76519290D01*
X94265303Y-73019170D02*
X95078103Y-73019170D01*
X94265303Y-72038730D02*
X94265303Y-73019170D01*
X80295303Y-72038730D02*
X94265303Y-72038730D01*
X80295303Y-73019170D02*
X80295303Y-72038730D01*
X79482503Y-73019170D02*
X80295303Y-73019170D01*
X79482503Y-76519290D02*
X79482503Y-73019170D01*
X80295303Y-76519290D02*
X79482503Y-76519290D01*
X80295303Y-81528170D02*
X80295303Y-76519290D01*
X79482503Y-81528170D02*
X80295303Y-81528170D01*
X79482503Y-85028290D02*
X79482503Y-81528170D01*
X80295303Y-85028290D02*
X79482503Y-85028290D01*
X80295303Y-86008730D02*
X80295303Y-85028290D01*
X94265303Y-86008730D02*
X80295303Y-86008730D01*
X94265303Y-65974290D02*
X94265303Y-66954730D01*
X95078103Y-65974290D02*
X94265303Y-65974290D01*
X95078103Y-62474170D02*
X95078103Y-65974290D01*
X94265303Y-62474170D02*
X95078103Y-62474170D01*
X94265303Y-57465290D02*
X94265303Y-62474170D01*
X95078103Y-57465290D02*
X94265303Y-57465290D01*
X95078103Y-53965170D02*
X95078103Y-57465290D01*
X94265303Y-53965170D02*
X95078103Y-53965170D01*
X94265303Y-52984730D02*
X94265303Y-53965170D01*
X80295303Y-52984730D02*
X94265303Y-52984730D01*
X80295303Y-53965170D02*
X80295303Y-52984730D01*
X79482503Y-53965170D02*
X80295303Y-53965170D01*
X79482503Y-57465290D02*
X79482503Y-53965170D01*
X80295303Y-57465290D02*
X79482503Y-57465290D01*
X80295303Y-62474170D02*
X80295303Y-57465290D01*
X79482503Y-62474170D02*
X80295303Y-62474170D01*
X79482503Y-65974290D02*
X79482503Y-62474170D01*
X80295303Y-65974290D02*
X79482503Y-65974290D01*
X80295303Y-66954730D02*
X80295303Y-65974290D01*
X94265303Y-66954730D02*
X80295303Y-66954730D01*
X75212231Y-67208290D02*
X75212231Y-68188730D01*
X76025031Y-67208290D02*
X75212231Y-67208290D01*
X76025031Y-63708170D02*
X76025031Y-67208290D01*
X75212231Y-63708170D02*
X76025031Y-63708170D01*
X75212231Y-58699290D02*
X75212231Y-63708170D01*
X76025031Y-58699290D02*
X75212231Y-58699290D01*
X76025031Y-55199170D02*
X76025031Y-58699290D01*
X75212231Y-55199170D02*
X76025031Y-55199170D01*
X75212231Y-54218730D02*
X75212231Y-55199170D01*
X61242231Y-54218730D02*
X75212231Y-54218730D01*
X61242231Y-55199170D02*
X61242231Y-54218730D01*
X60429431Y-55199170D02*
X61242231Y-55199170D01*
X60429431Y-58699290D02*
X60429431Y-55199170D01*
X61242231Y-58699290D02*
X60429431Y-58699290D01*
X61242231Y-63708170D02*
X61242231Y-58699290D01*
X60429431Y-63708170D02*
X61242231Y-63708170D01*
X60429431Y-67208290D02*
X60429431Y-63708170D01*
X61242231Y-67208290D02*
X60429431Y-67208290D01*
X61242231Y-68188730D02*
X61242231Y-67208290D01*
X75212231Y-68188730D02*
X61242231Y-68188730D01*
X75212231Y-86256389D02*
X75212231Y-87236829D01*
X76025031Y-86256389D02*
X75212231Y-86256389D01*
X76025031Y-82756269D02*
X76025031Y-86256389D01*
X75212231Y-82756269D02*
X76025031Y-82756269D01*
X75212231Y-77747389D02*
X75212231Y-82756269D01*
X76025031Y-77747389D02*
X75212231Y-77747389D01*
X76025031Y-74247269D02*
X76025031Y-77747389D01*
X75212231Y-74247269D02*
X76025031Y-74247269D01*
X75212231Y-73266829D02*
X75212231Y-74247269D01*
X61242231Y-73266829D02*
X75212231Y-73266829D01*
X61242231Y-74247269D02*
X61242231Y-73266829D01*
X60429431Y-74247269D02*
X61242231Y-74247269D01*
X60429431Y-77747389D02*
X60429431Y-74247269D01*
X61242231Y-77747389D02*
X60429431Y-77747389D01*
X61242231Y-82756269D02*
X61242231Y-77747389D01*
X60429431Y-82756269D02*
X61242231Y-82756269D01*
X60429431Y-86256389D02*
X60429431Y-82756269D01*
X61242231Y-86256389D02*
X60429431Y-86256389D01*
X61242231Y-87236829D02*
X61242231Y-86256389D01*
X75212231Y-87236829D02*
X61242231Y-87236829D01*
X75212231Y-105304790D02*
X75212231Y-106285230D01*
X76025031Y-105304790D02*
X75212231Y-105304790D01*
X76025031Y-101804670D02*
X76025031Y-105304790D01*
X75212231Y-101804670D02*
X76025031Y-101804670D01*
X75212231Y-96795790D02*
X75212231Y-101804670D01*
X76025031Y-96795790D02*
X75212231Y-96795790D01*
X76025031Y-93295670D02*
X76025031Y-96795790D01*
X75212231Y-93295670D02*
X76025031Y-93295670D01*
X75212231Y-92315230D02*
X75212231Y-93295670D01*
X61242231Y-92315230D02*
X75212231Y-92315230D01*
X61242231Y-93295670D02*
X61242231Y-92315230D01*
X60429431Y-93295670D02*
X61242231Y-93295670D01*
X60429431Y-96795790D02*
X60429431Y-93295670D01*
X61242231Y-96795790D02*
X60429431Y-96795790D01*
X61242231Y-101804670D02*
X61242231Y-96795790D01*
X60429431Y-101804670D02*
X61242231Y-101804670D01*
X60429431Y-105304790D02*
X60429431Y-101804670D01*
X61242231Y-105304790D02*
X60429431Y-105304790D01*
X61242231Y-106285230D02*
X61242231Y-105304790D01*
X75212231Y-106285230D02*
X61242231Y-106285230D01*
X75212231Y-126938290D02*
X75212231Y-127918730D01*
X76025031Y-126938290D02*
X75212231Y-126938290D01*
X76025031Y-123438170D02*
X76025031Y-126938290D01*
X75212231Y-123438170D02*
X76025031Y-123438170D01*
X75212231Y-118429290D02*
X75212231Y-123438170D01*
X76025031Y-118429290D02*
X75212231Y-118429290D01*
X76025031Y-114929170D02*
X76025031Y-118429290D01*
X75212231Y-114929170D02*
X76025031Y-114929170D01*
X75212231Y-113948730D02*
X75212231Y-114929170D01*
X61242231Y-113948730D02*
X75212231Y-113948730D01*
X61242231Y-114929170D02*
X61242231Y-113948730D01*
X60429431Y-114929170D02*
X61242231Y-114929170D01*
X60429431Y-118429290D02*
X60429431Y-114929170D01*
X61242231Y-118429290D02*
X60429431Y-118429290D01*
X61242231Y-123438170D02*
X61242231Y-118429290D01*
X60429431Y-123438170D02*
X61242231Y-123438170D01*
X60429431Y-126938290D02*
X60429431Y-123438170D01*
X61242231Y-126938290D02*
X60429431Y-126938290D01*
X61242231Y-127918730D02*
X61242231Y-126938290D01*
X75212231Y-127918730D02*
X61242231Y-127918730D01*
X56167000Y-126908560D02*
X56167000Y-127889000D01*
X56979800Y-126908560D02*
X56167000Y-126908560D01*
X56979800Y-123408440D02*
X56979800Y-126908560D01*
X56167000Y-123408440D02*
X56979800Y-123408440D01*
X56167000Y-118399560D02*
X56167000Y-123408440D01*
X56979800Y-118399560D02*
X56167000Y-118399560D01*
X56979800Y-114899440D02*
X56979800Y-118399560D01*
X56167000Y-114899440D02*
X56979800Y-114899440D01*
X56167000Y-113919000D02*
X56167000Y-114899440D01*
X42197000Y-113919000D02*
X56167000Y-113919000D01*
X42197000Y-114899440D02*
X42197000Y-113919000D01*
X41384200Y-114899440D02*
X42197000Y-114899440D01*
X41384200Y-118399560D02*
X41384200Y-114899440D01*
X42197000Y-118399560D02*
X41384200Y-118399560D01*
X42197000Y-123408440D02*
X42197000Y-118399560D01*
X41384200Y-123408440D02*
X42197000Y-123408440D01*
X41384200Y-126908560D02*
X41384200Y-123408440D01*
X42197000Y-126908560D02*
X41384200Y-126908560D01*
X42197000Y-127889000D02*
X42197000Y-126908560D01*
X56167000Y-127889000D02*
X42197000Y-127889000D01*
X56167000Y-107858560D02*
X56167000Y-108839000D01*
X56979800Y-107858560D02*
X56167000Y-107858560D01*
X56979800Y-104358440D02*
X56979800Y-107858560D01*
X56167000Y-104358440D02*
X56979800Y-104358440D01*
X56167000Y-99349560D02*
X56167000Y-104358440D01*
X56979800Y-99349560D02*
X56167000Y-99349560D01*
X56979800Y-95849440D02*
X56979800Y-99349560D01*
X56167000Y-95849440D02*
X56979800Y-95849440D01*
X56167000Y-94869000D02*
X56167000Y-95849440D01*
X42197000Y-94869000D02*
X56167000Y-94869000D01*
X42197000Y-95849440D02*
X42197000Y-94869000D01*
X41384200Y-95849440D02*
X42197000Y-95849440D01*
X41384200Y-99349560D02*
X41384200Y-95849440D01*
X42197000Y-99349560D02*
X41384200Y-99349560D01*
X42197000Y-104358440D02*
X42197000Y-99349560D01*
X41384200Y-104358440D02*
X42197000Y-104358440D01*
X41384200Y-107858560D02*
X41384200Y-104358440D01*
X42197000Y-107858560D02*
X41384200Y-107858560D01*
X42197000Y-108839000D02*
X42197000Y-107858560D01*
X56167000Y-108839000D02*
X42197000Y-108839000D01*
X56167000Y-88808560D02*
X56167000Y-89789000D01*
X56979800Y-88808560D02*
X56167000Y-88808560D01*
X56979800Y-85308440D02*
X56979800Y-88808560D01*
X56167000Y-85308440D02*
X56979800Y-85308440D01*
X56167000Y-80299560D02*
X56167000Y-85308440D01*
X56979800Y-80299560D02*
X56167000Y-80299560D01*
X56979800Y-76799440D02*
X56979800Y-80299560D01*
X56167000Y-76799440D02*
X56979800Y-76799440D01*
X56167000Y-75819000D02*
X56167000Y-76799440D01*
X42197000Y-75819000D02*
X56167000Y-75819000D01*
X42197000Y-76799440D02*
X42197000Y-75819000D01*
X41384200Y-76799440D02*
X42197000Y-76799440D01*
X41384200Y-80299560D02*
X41384200Y-76799440D01*
X42197000Y-80299560D02*
X41384200Y-80299560D01*
X42197000Y-85308440D02*
X42197000Y-80299560D01*
X41384200Y-85308440D02*
X42197000Y-85308440D01*
X41384200Y-88808560D02*
X41384200Y-85308440D01*
X42197000Y-88808560D02*
X41384200Y-88808560D01*
X42197000Y-89789000D02*
X42197000Y-88808560D01*
X56167000Y-89789000D02*
X42197000Y-89789000D01*
G04 #@! TD*
M02*
