G04 #@! TF.GenerationSoftware,KiCad,Pcbnew,5.1.9*
G04 #@! TF.CreationDate,2021-01-09T20:22:18-06:00*
G04 #@! TF.ProjectId,halfboard,68616c66-626f-4617-9264-2e6b69636164,rev?*
G04 #@! TF.SameCoordinates,Original*
G04 #@! TF.FileFunction,Copper,L1,Top*
G04 #@! TF.FilePolarity,Positive*
%FSLAX46Y46*%
G04 Gerber Fmt 4.6, Leading zero omitted, Abs format (unit mm)*
G04 Created by KiCad (PCBNEW 5.1.9) date 2021-01-09 20:22:18*
%MOMM*%
%LPD*%
G01*
G04 APERTURE LIST*
G04 #@! TA.AperFunction,EtchedComponent*
%ADD10C,0.100000*%
G04 #@! TD*
G04 #@! TA.AperFunction,ComponentPad*
%ADD11C,2.200000*%
G04 #@! TD*
G04 #@! TA.AperFunction,ComponentPad*
%ADD12C,2.500000*%
G04 #@! TD*
G04 #@! TA.AperFunction,ComponentPad*
%ADD13C,2.286000*%
G04 #@! TD*
G04 #@! TA.AperFunction,ComponentPad*
%ADD14O,2.300000X3.337000*%
G04 #@! TD*
G04 #@! TA.AperFunction,ComponentPad*
%ADD15R,1.500000X2.300000*%
G04 #@! TD*
G04 #@! TA.AperFunction,ComponentPad*
%ADD16C,2.000000*%
G04 #@! TD*
G04 #@! TA.AperFunction,ComponentPad*
%ADD17O,1.700000X1.700000*%
G04 #@! TD*
G04 #@! TA.AperFunction,ComponentPad*
%ADD18R,1.700000X1.700000*%
G04 #@! TD*
G04 #@! TA.AperFunction,SMDPad,CuDef*
%ADD19R,0.900000X1.700000*%
G04 #@! TD*
G04 #@! TA.AperFunction,SMDPad,CuDef*
%ADD20R,0.700000X1.500000*%
G04 #@! TD*
G04 #@! TA.AperFunction,SMDPad,CuDef*
%ADD21R,1.000000X0.800000*%
G04 #@! TD*
G04 #@! TA.AperFunction,SMDPad,CuDef*
%ADD22R,2.900000X0.500000*%
G04 #@! TD*
G04 #@! TA.AperFunction,ComponentPad*
%ADD23R,1.600000X1.600000*%
G04 #@! TD*
G04 #@! TA.AperFunction,ComponentPad*
%ADD24C,1.600000*%
G04 #@! TD*
G04 #@! TA.AperFunction,SMDPad,CuDef*
%ADD25R,1.600000X1.200000*%
G04 #@! TD*
G04 #@! TA.AperFunction,ComponentPad*
%ADD26C,1.752600*%
G04 #@! TD*
G04 #@! TA.AperFunction,ComponentPad*
%ADD27R,1.752600X1.752600*%
G04 #@! TD*
G04 #@! TA.AperFunction,ViaPad*
%ADD28C,0.800000*%
G04 #@! TD*
G04 #@! TA.AperFunction,Conductor*
%ADD29C,0.250000*%
G04 #@! TD*
G04 APERTURE END LIST*
D10*
G04 #@! TO.C,REF\u002A\u002A*
G36*
X48775600Y-58267600D02*
G01*
X49182000Y-58674000D01*
X49182000Y-59055000D01*
X49690000Y-59563000D01*
X50198000Y-59055000D01*
X50198000Y-58039000D01*
X49893200Y-57734200D01*
X48775600Y-57734200D01*
X48775600Y-58267600D01*
G37*
X48775600Y-58267600D02*
X49182000Y-58674000D01*
X49182000Y-59055000D01*
X49690000Y-59563000D01*
X50198000Y-59055000D01*
X50198000Y-58039000D01*
X49893200Y-57734200D01*
X48775600Y-57734200D01*
X48775600Y-58267600D01*
G36*
X51798200Y-57815480D02*
G01*
X49690000Y-59923680D01*
X49182000Y-59415680D01*
X49182000Y-60121800D01*
X51798200Y-60121800D01*
X51798200Y-57815480D01*
G37*
X51798200Y-57815480D02*
X49690000Y-59923680D01*
X49182000Y-59415680D01*
X49182000Y-60121800D01*
X51798200Y-60121800D01*
X51798200Y-57815480D01*
G04 #@! TO.C, *
G36*
X147046503Y-56321210D02*
G01*
X144938303Y-58429410D01*
X144430303Y-57921410D01*
X144430303Y-58627530D01*
X147046503Y-58627530D01*
X147046503Y-56321210D01*
G37*
X147046503Y-56321210D02*
X144938303Y-58429410D01*
X144430303Y-57921410D01*
X144430303Y-58627530D01*
X147046503Y-58627530D01*
X147046503Y-56321210D01*
G36*
X144023903Y-56773330D02*
G01*
X144430303Y-57179730D01*
X144430303Y-57560730D01*
X144938303Y-58068730D01*
X145446303Y-57560730D01*
X145446303Y-56544730D01*
X145141503Y-56239930D01*
X144023903Y-56239930D01*
X144023903Y-56773330D01*
G37*
X144023903Y-56773330D02*
X144430303Y-57179730D01*
X144430303Y-57560730D01*
X144938303Y-58068730D01*
X145446303Y-57560730D01*
X145446303Y-56544730D01*
X145141503Y-56239930D01*
X144023903Y-56239930D01*
X144023903Y-56773330D01*
G36*
X147046503Y-75371210D02*
G01*
X144938303Y-77479410D01*
X144430303Y-76971410D01*
X144430303Y-77677530D01*
X147046503Y-77677530D01*
X147046503Y-75371210D01*
G37*
X147046503Y-75371210D02*
X144938303Y-77479410D01*
X144430303Y-76971410D01*
X144430303Y-77677530D01*
X147046503Y-77677530D01*
X147046503Y-75371210D01*
G36*
X144023903Y-75823330D02*
G01*
X144430303Y-76229730D01*
X144430303Y-76610730D01*
X144938303Y-77118730D01*
X145446303Y-76610730D01*
X145446303Y-75594730D01*
X145141503Y-75289930D01*
X144023903Y-75289930D01*
X144023903Y-75823330D01*
G37*
X144023903Y-75823330D02*
X144430303Y-76229730D01*
X144430303Y-76610730D01*
X144938303Y-77118730D01*
X145446303Y-76610730D01*
X145446303Y-75594730D01*
X145141503Y-75289930D01*
X144023903Y-75289930D01*
X144023903Y-75823330D01*
G36*
X147046503Y-94421210D02*
G01*
X144938303Y-96529410D01*
X144430303Y-96021410D01*
X144430303Y-96727530D01*
X147046503Y-96727530D01*
X147046503Y-94421210D01*
G37*
X147046503Y-94421210D02*
X144938303Y-96529410D01*
X144430303Y-96021410D01*
X144430303Y-96727530D01*
X147046503Y-96727530D01*
X147046503Y-94421210D01*
G36*
X144023903Y-94873330D02*
G01*
X144430303Y-95279730D01*
X144430303Y-95660730D01*
X144938303Y-96168730D01*
X145446303Y-95660730D01*
X145446303Y-94644730D01*
X145141503Y-94339930D01*
X144023903Y-94339930D01*
X144023903Y-94873330D01*
G37*
X144023903Y-94873330D02*
X144430303Y-95279730D01*
X144430303Y-95660730D01*
X144938303Y-96168730D01*
X145446303Y-95660730D01*
X145446303Y-94644730D01*
X145141503Y-94339930D01*
X144023903Y-94339930D01*
X144023903Y-94873330D01*
G36*
X147046503Y-114995210D02*
G01*
X144938303Y-117103410D01*
X144430303Y-116595410D01*
X144430303Y-117301530D01*
X147046503Y-117301530D01*
X147046503Y-114995210D01*
G37*
X147046503Y-114995210D02*
X144938303Y-117103410D01*
X144430303Y-116595410D01*
X144430303Y-117301530D01*
X147046503Y-117301530D01*
X147046503Y-114995210D01*
G36*
X144023903Y-115447330D02*
G01*
X144430303Y-115853730D01*
X144430303Y-116234730D01*
X144938303Y-116742730D01*
X145446303Y-116234730D01*
X145446303Y-115218730D01*
X145141503Y-114913930D01*
X144023903Y-114913930D01*
X144023903Y-115447330D01*
G37*
X144023903Y-115447330D02*
X144430303Y-115853730D01*
X144430303Y-116234730D01*
X144938303Y-116742730D01*
X145446303Y-116234730D01*
X145446303Y-115218730D01*
X145141503Y-114913930D01*
X144023903Y-114913930D01*
X144023903Y-115447330D01*
G36*
X127996503Y-114995210D02*
G01*
X125888303Y-117103410D01*
X125380303Y-116595410D01*
X125380303Y-117301530D01*
X127996503Y-117301530D01*
X127996503Y-114995210D01*
G37*
X127996503Y-114995210D02*
X125888303Y-117103410D01*
X125380303Y-116595410D01*
X125380303Y-117301530D01*
X127996503Y-117301530D01*
X127996503Y-114995210D01*
G36*
X124973903Y-115447330D02*
G01*
X125380303Y-115853730D01*
X125380303Y-116234730D01*
X125888303Y-116742730D01*
X126396303Y-116234730D01*
X126396303Y-115218730D01*
X126091503Y-114913930D01*
X124973903Y-114913930D01*
X124973903Y-115447330D01*
G37*
X124973903Y-115447330D02*
X125380303Y-115853730D01*
X125380303Y-116234730D01*
X125888303Y-116742730D01*
X126396303Y-116234730D01*
X126396303Y-115218730D01*
X126091503Y-114913930D01*
X124973903Y-114913930D01*
X124973903Y-115447330D01*
G36*
X108946503Y-114995210D02*
G01*
X106838303Y-117103410D01*
X106330303Y-116595410D01*
X106330303Y-117301530D01*
X108946503Y-117301530D01*
X108946503Y-114995210D01*
G37*
X108946503Y-114995210D02*
X106838303Y-117103410D01*
X106330303Y-116595410D01*
X106330303Y-117301530D01*
X108946503Y-117301530D01*
X108946503Y-114995210D01*
G36*
X105923903Y-115447330D02*
G01*
X106330303Y-115853730D01*
X106330303Y-116234730D01*
X106838303Y-116742730D01*
X107346303Y-116234730D01*
X107346303Y-115218730D01*
X107041503Y-114913930D01*
X105923903Y-114913930D01*
X105923903Y-115447330D01*
G37*
X105923903Y-115447330D02*
X106330303Y-115853730D01*
X106330303Y-116234730D01*
X106838303Y-116742730D01*
X107346303Y-116234730D01*
X107346303Y-115218730D01*
X107041503Y-114913930D01*
X105923903Y-114913930D01*
X105923903Y-115447330D01*
G36*
X89896503Y-114995210D02*
G01*
X87788303Y-117103410D01*
X87280303Y-116595410D01*
X87280303Y-117301530D01*
X89896503Y-117301530D01*
X89896503Y-114995210D01*
G37*
X89896503Y-114995210D02*
X87788303Y-117103410D01*
X87280303Y-116595410D01*
X87280303Y-117301530D01*
X89896503Y-117301530D01*
X89896503Y-114995210D01*
G36*
X86873903Y-115447330D02*
G01*
X87280303Y-115853730D01*
X87280303Y-116234730D01*
X87788303Y-116742730D01*
X88296303Y-116234730D01*
X88296303Y-115218730D01*
X87991503Y-114913930D01*
X86873903Y-114913930D01*
X86873903Y-115447330D01*
G37*
X86873903Y-115447330D02*
X87280303Y-115853730D01*
X87280303Y-116234730D01*
X87788303Y-116742730D01*
X88296303Y-116234730D01*
X88296303Y-115218730D01*
X87991503Y-114913930D01*
X86873903Y-114913930D01*
X86873903Y-115447330D01*
G36*
X127996503Y-91881210D02*
G01*
X125888303Y-93989410D01*
X125380303Y-93481410D01*
X125380303Y-94187530D01*
X127996503Y-94187530D01*
X127996503Y-91881210D01*
G37*
X127996503Y-91881210D02*
X125888303Y-93989410D01*
X125380303Y-93481410D01*
X125380303Y-94187530D01*
X127996503Y-94187530D01*
X127996503Y-91881210D01*
G36*
X124973903Y-92333330D02*
G01*
X125380303Y-92739730D01*
X125380303Y-93120730D01*
X125888303Y-93628730D01*
X126396303Y-93120730D01*
X126396303Y-92104730D01*
X126091503Y-91799930D01*
X124973903Y-91799930D01*
X124973903Y-92333330D01*
G37*
X124973903Y-92333330D02*
X125380303Y-92739730D01*
X125380303Y-93120730D01*
X125888303Y-93628730D01*
X126396303Y-93120730D01*
X126396303Y-92104730D01*
X126091503Y-91799930D01*
X124973903Y-91799930D01*
X124973903Y-92333330D01*
G36*
X127996503Y-72831210D02*
G01*
X125888303Y-74939410D01*
X125380303Y-74431410D01*
X125380303Y-75137530D01*
X127996503Y-75137530D01*
X127996503Y-72831210D01*
G37*
X127996503Y-72831210D02*
X125888303Y-74939410D01*
X125380303Y-74431410D01*
X125380303Y-75137530D01*
X127996503Y-75137530D01*
X127996503Y-72831210D01*
G36*
X124973903Y-73283330D02*
G01*
X125380303Y-73689730D01*
X125380303Y-74070730D01*
X125888303Y-74578730D01*
X126396303Y-74070730D01*
X126396303Y-73054730D01*
X126091503Y-72749930D01*
X124973903Y-72749930D01*
X124973903Y-73283330D01*
G37*
X124973903Y-73283330D02*
X125380303Y-73689730D01*
X125380303Y-74070730D01*
X125888303Y-74578730D01*
X126396303Y-74070730D01*
X126396303Y-73054730D01*
X126091503Y-72749930D01*
X124973903Y-72749930D01*
X124973903Y-73283330D01*
G36*
X127996503Y-53781210D02*
G01*
X125888303Y-55889410D01*
X125380303Y-55381410D01*
X125380303Y-56087530D01*
X127996503Y-56087530D01*
X127996503Y-53781210D01*
G37*
X127996503Y-53781210D02*
X125888303Y-55889410D01*
X125380303Y-55381410D01*
X125380303Y-56087530D01*
X127996503Y-56087530D01*
X127996503Y-53781210D01*
G36*
X124973903Y-54233330D02*
G01*
X125380303Y-54639730D01*
X125380303Y-55020730D01*
X125888303Y-55528730D01*
X126396303Y-55020730D01*
X126396303Y-54004730D01*
X126091503Y-53699930D01*
X124973903Y-53699930D01*
X124973903Y-54233330D01*
G37*
X124973903Y-54233330D02*
X125380303Y-54639730D01*
X125380303Y-55020730D01*
X125888303Y-55528730D01*
X126396303Y-55020730D01*
X126396303Y-54004730D01*
X126091503Y-53699930D01*
X124973903Y-53699930D01*
X124973903Y-54233330D01*
G36*
X108946503Y-52511210D02*
G01*
X106838303Y-54619410D01*
X106330303Y-54111410D01*
X106330303Y-54817530D01*
X108946503Y-54817530D01*
X108946503Y-52511210D01*
G37*
X108946503Y-52511210D02*
X106838303Y-54619410D01*
X106330303Y-54111410D01*
X106330303Y-54817530D01*
X108946503Y-54817530D01*
X108946503Y-52511210D01*
G36*
X105923903Y-52963330D02*
G01*
X106330303Y-53369730D01*
X106330303Y-53750730D01*
X106838303Y-54258730D01*
X107346303Y-53750730D01*
X107346303Y-52734730D01*
X107041503Y-52429930D01*
X105923903Y-52429930D01*
X105923903Y-52963330D01*
G37*
X105923903Y-52963330D02*
X106330303Y-53369730D01*
X106330303Y-53750730D01*
X106838303Y-54258730D01*
X107346303Y-53750730D01*
X107346303Y-52734730D01*
X107041503Y-52429930D01*
X105923903Y-52429930D01*
X105923903Y-52963330D01*
G36*
X108946503Y-71561210D02*
G01*
X106838303Y-73669410D01*
X106330303Y-73161410D01*
X106330303Y-73867530D01*
X108946503Y-73867530D01*
X108946503Y-71561210D01*
G37*
X108946503Y-71561210D02*
X106838303Y-73669410D01*
X106330303Y-73161410D01*
X106330303Y-73867530D01*
X108946503Y-73867530D01*
X108946503Y-71561210D01*
G36*
X105923903Y-72013330D02*
G01*
X106330303Y-72419730D01*
X106330303Y-72800730D01*
X106838303Y-73308730D01*
X107346303Y-72800730D01*
X107346303Y-71784730D01*
X107041503Y-71479930D01*
X105923903Y-71479930D01*
X105923903Y-72013330D01*
G37*
X105923903Y-72013330D02*
X106330303Y-72419730D01*
X106330303Y-72800730D01*
X106838303Y-73308730D01*
X107346303Y-72800730D01*
X107346303Y-71784730D01*
X107041503Y-71479930D01*
X105923903Y-71479930D01*
X105923903Y-72013330D01*
G36*
X108946503Y-90611210D02*
G01*
X106838303Y-92719410D01*
X106330303Y-92211410D01*
X106330303Y-92917530D01*
X108946503Y-92917530D01*
X108946503Y-90611210D01*
G37*
X108946503Y-90611210D02*
X106838303Y-92719410D01*
X106330303Y-92211410D01*
X106330303Y-92917530D01*
X108946503Y-92917530D01*
X108946503Y-90611210D01*
G36*
X105923903Y-91063330D02*
G01*
X106330303Y-91469730D01*
X106330303Y-91850730D01*
X106838303Y-92358730D01*
X107346303Y-91850730D01*
X107346303Y-90834730D01*
X107041503Y-90529930D01*
X105923903Y-90529930D01*
X105923903Y-91063330D01*
G37*
X105923903Y-91063330D02*
X106330303Y-91469730D01*
X106330303Y-91850730D01*
X106838303Y-92358730D01*
X107346303Y-91850730D01*
X107346303Y-90834730D01*
X107041503Y-90529930D01*
X105923903Y-90529930D01*
X105923903Y-91063330D01*
G36*
X89896503Y-92135210D02*
G01*
X87788303Y-94243410D01*
X87280303Y-93735410D01*
X87280303Y-94441530D01*
X89896503Y-94441530D01*
X89896503Y-92135210D01*
G37*
X89896503Y-92135210D02*
X87788303Y-94243410D01*
X87280303Y-93735410D01*
X87280303Y-94441530D01*
X89896503Y-94441530D01*
X89896503Y-92135210D01*
G36*
X86873903Y-92587330D02*
G01*
X87280303Y-92993730D01*
X87280303Y-93374730D01*
X87788303Y-93882730D01*
X88296303Y-93374730D01*
X88296303Y-92358730D01*
X87991503Y-92053930D01*
X86873903Y-92053930D01*
X86873903Y-92587330D01*
G37*
X86873903Y-92587330D02*
X87280303Y-92993730D01*
X87280303Y-93374730D01*
X87788303Y-93882730D01*
X88296303Y-93374730D01*
X88296303Y-92358730D01*
X87991503Y-92053930D01*
X86873903Y-92053930D01*
X86873903Y-92587330D01*
G36*
X89896503Y-73085210D02*
G01*
X87788303Y-75193410D01*
X87280303Y-74685410D01*
X87280303Y-75391530D01*
X89896503Y-75391530D01*
X89896503Y-73085210D01*
G37*
X89896503Y-73085210D02*
X87788303Y-75193410D01*
X87280303Y-74685410D01*
X87280303Y-75391530D01*
X89896503Y-75391530D01*
X89896503Y-73085210D01*
G36*
X86873903Y-73537330D02*
G01*
X87280303Y-73943730D01*
X87280303Y-74324730D01*
X87788303Y-74832730D01*
X88296303Y-74324730D01*
X88296303Y-73308730D01*
X87991503Y-73003930D01*
X86873903Y-73003930D01*
X86873903Y-73537330D01*
G37*
X86873903Y-73537330D02*
X87280303Y-73943730D01*
X87280303Y-74324730D01*
X87788303Y-74832730D01*
X88296303Y-74324730D01*
X88296303Y-73308730D01*
X87991503Y-73003930D01*
X86873903Y-73003930D01*
X86873903Y-73537330D01*
G36*
X89896503Y-54031210D02*
G01*
X87788303Y-56139410D01*
X87280303Y-55631410D01*
X87280303Y-56337530D01*
X89896503Y-56337530D01*
X89896503Y-54031210D01*
G37*
X89896503Y-54031210D02*
X87788303Y-56139410D01*
X87280303Y-55631410D01*
X87280303Y-56337530D01*
X89896503Y-56337530D01*
X89896503Y-54031210D01*
G36*
X86873903Y-54483330D02*
G01*
X87280303Y-54889730D01*
X87280303Y-55270730D01*
X87788303Y-55778730D01*
X88296303Y-55270730D01*
X88296303Y-54254730D01*
X87991503Y-53949930D01*
X86873903Y-53949930D01*
X86873903Y-54483330D01*
G37*
X86873903Y-54483330D02*
X87280303Y-54889730D01*
X87280303Y-55270730D01*
X87788303Y-55778730D01*
X88296303Y-55270730D01*
X88296303Y-54254730D01*
X87991503Y-53949930D01*
X86873903Y-53949930D01*
X86873903Y-54483330D01*
G36*
X70843431Y-55265210D02*
G01*
X68735231Y-57373410D01*
X68227231Y-56865410D01*
X68227231Y-57571530D01*
X70843431Y-57571530D01*
X70843431Y-55265210D01*
G37*
X70843431Y-55265210D02*
X68735231Y-57373410D01*
X68227231Y-56865410D01*
X68227231Y-57571530D01*
X70843431Y-57571530D01*
X70843431Y-55265210D01*
G36*
X67820831Y-55717330D02*
G01*
X68227231Y-56123730D01*
X68227231Y-56504730D01*
X68735231Y-57012730D01*
X69243231Y-56504730D01*
X69243231Y-55488730D01*
X68938431Y-55183930D01*
X67820831Y-55183930D01*
X67820831Y-55717330D01*
G37*
X67820831Y-55717330D02*
X68227231Y-56123730D01*
X68227231Y-56504730D01*
X68735231Y-57012730D01*
X69243231Y-56504730D01*
X69243231Y-55488730D01*
X68938431Y-55183930D01*
X67820831Y-55183930D01*
X67820831Y-55717330D01*
G36*
X70843431Y-74313309D02*
G01*
X68735231Y-76421509D01*
X68227231Y-75913509D01*
X68227231Y-76619629D01*
X70843431Y-76619629D01*
X70843431Y-74313309D01*
G37*
X70843431Y-74313309D02*
X68735231Y-76421509D01*
X68227231Y-75913509D01*
X68227231Y-76619629D01*
X70843431Y-76619629D01*
X70843431Y-74313309D01*
G36*
X67820831Y-74765429D02*
G01*
X68227231Y-75171829D01*
X68227231Y-75552829D01*
X68735231Y-76060829D01*
X69243231Y-75552829D01*
X69243231Y-74536829D01*
X68938431Y-74232029D01*
X67820831Y-74232029D01*
X67820831Y-74765429D01*
G37*
X67820831Y-74765429D02*
X68227231Y-75171829D01*
X68227231Y-75552829D01*
X68735231Y-76060829D01*
X69243231Y-75552829D01*
X69243231Y-74536829D01*
X68938431Y-74232029D01*
X67820831Y-74232029D01*
X67820831Y-74765429D01*
G36*
X70843431Y-93361710D02*
G01*
X68735231Y-95469910D01*
X68227231Y-94961910D01*
X68227231Y-95668030D01*
X70843431Y-95668030D01*
X70843431Y-93361710D01*
G37*
X70843431Y-93361710D02*
X68735231Y-95469910D01*
X68227231Y-94961910D01*
X68227231Y-95668030D01*
X70843431Y-95668030D01*
X70843431Y-93361710D01*
G36*
X67820831Y-93813830D02*
G01*
X68227231Y-94220230D01*
X68227231Y-94601230D01*
X68735231Y-95109230D01*
X69243231Y-94601230D01*
X69243231Y-93585230D01*
X68938431Y-93280430D01*
X67820831Y-93280430D01*
X67820831Y-93813830D01*
G37*
X67820831Y-93813830D02*
X68227231Y-94220230D01*
X68227231Y-94601230D01*
X68735231Y-95109230D01*
X69243231Y-94601230D01*
X69243231Y-93585230D01*
X68938431Y-93280430D01*
X67820831Y-93280430D01*
X67820831Y-93813830D01*
G36*
X67820831Y-115447330D02*
G01*
X68227231Y-115853730D01*
X68227231Y-116234730D01*
X68735231Y-116742730D01*
X69243231Y-116234730D01*
X69243231Y-115218730D01*
X68938431Y-114913930D01*
X67820831Y-114913930D01*
X67820831Y-115447330D01*
G37*
X67820831Y-115447330D02*
X68227231Y-115853730D01*
X68227231Y-116234730D01*
X68735231Y-116742730D01*
X69243231Y-116234730D01*
X69243231Y-115218730D01*
X68938431Y-114913930D01*
X67820831Y-114913930D01*
X67820831Y-115447330D01*
G36*
X70843431Y-114995210D02*
G01*
X68735231Y-117103410D01*
X68227231Y-116595410D01*
X68227231Y-117301530D01*
X70843431Y-117301530D01*
X70843431Y-114995210D01*
G37*
X70843431Y-114995210D02*
X68735231Y-117103410D01*
X68227231Y-116595410D01*
X68227231Y-117301530D01*
X70843431Y-117301530D01*
X70843431Y-114995210D01*
G36*
X48775600Y-115417600D02*
G01*
X49182000Y-115824000D01*
X49182000Y-116205000D01*
X49690000Y-116713000D01*
X50198000Y-116205000D01*
X50198000Y-115189000D01*
X49893200Y-114884200D01*
X48775600Y-114884200D01*
X48775600Y-115417600D01*
G37*
X48775600Y-115417600D02*
X49182000Y-115824000D01*
X49182000Y-116205000D01*
X49690000Y-116713000D01*
X50198000Y-116205000D01*
X50198000Y-115189000D01*
X49893200Y-114884200D01*
X48775600Y-114884200D01*
X48775600Y-115417600D01*
G36*
X51798200Y-114965480D02*
G01*
X49690000Y-117073680D01*
X49182000Y-116565680D01*
X49182000Y-117271800D01*
X51798200Y-117271800D01*
X51798200Y-114965480D01*
G37*
X51798200Y-114965480D02*
X49690000Y-117073680D01*
X49182000Y-116565680D01*
X49182000Y-117271800D01*
X51798200Y-117271800D01*
X51798200Y-114965480D01*
G36*
X48775600Y-96367600D02*
G01*
X49182000Y-96774000D01*
X49182000Y-97155000D01*
X49690000Y-97663000D01*
X50198000Y-97155000D01*
X50198000Y-96139000D01*
X49893200Y-95834200D01*
X48775600Y-95834200D01*
X48775600Y-96367600D01*
G37*
X48775600Y-96367600D02*
X49182000Y-96774000D01*
X49182000Y-97155000D01*
X49690000Y-97663000D01*
X50198000Y-97155000D01*
X50198000Y-96139000D01*
X49893200Y-95834200D01*
X48775600Y-95834200D01*
X48775600Y-96367600D01*
G36*
X51798200Y-95915480D02*
G01*
X49690000Y-98023680D01*
X49182000Y-97515680D01*
X49182000Y-98221800D01*
X51798200Y-98221800D01*
X51798200Y-95915480D01*
G37*
X51798200Y-95915480D02*
X49690000Y-98023680D01*
X49182000Y-97515680D01*
X49182000Y-98221800D01*
X51798200Y-98221800D01*
X51798200Y-95915480D01*
G36*
X48775600Y-77317600D02*
G01*
X49182000Y-77724000D01*
X49182000Y-78105000D01*
X49690000Y-78613000D01*
X50198000Y-78105000D01*
X50198000Y-77089000D01*
X49893200Y-76784200D01*
X48775600Y-76784200D01*
X48775600Y-77317600D01*
G37*
X48775600Y-77317600D02*
X49182000Y-77724000D01*
X49182000Y-78105000D01*
X49690000Y-78613000D01*
X50198000Y-78105000D01*
X50198000Y-77089000D01*
X49893200Y-76784200D01*
X48775600Y-76784200D01*
X48775600Y-77317600D01*
G36*
X51798200Y-76865480D02*
G01*
X49690000Y-78973680D01*
X49182000Y-78465680D01*
X49182000Y-79171800D01*
X51798200Y-79171800D01*
X51798200Y-76865480D01*
G37*
X51798200Y-76865480D02*
X49690000Y-78973680D01*
X49182000Y-78465680D01*
X49182000Y-79171800D01*
X51798200Y-79171800D01*
X51798200Y-76865480D01*
G04 #@! TD*
D11*
G04 #@! TO.P,REF\u002A\u002A,1*
G04 #@! TO.N,col0*
X54182000Y-59954000D03*
D12*
G04 #@! TO.P,REF\u002A\u002A,5*
G04 #@! TO.N,N/C*
X49182000Y-57854000D03*
G04 #@! TO.P,REF\u002A\u002A,*
G04 #@! TO.N,*
X44032000Y-68754000D03*
D11*
G04 #@! TO.P,REF\u002A\u002A,2*
G04 #@! TO.N,col0_row0*
X44182000Y-59954000D03*
D12*
G04 #@! TO.P,REF\u002A\u002A,*
G04 #@! TO.N,*
X54332000Y-68754000D03*
D13*
G04 #@! TO.P,REF\u002A\u002A,2*
G04 #@! TO.N,col0_row0*
X45372000Y-61214000D03*
G04 #@! TO.P,REF\u002A\u002A,1*
G04 #@! TO.N,col0*
X52992000Y-61214000D03*
D14*
G04 #@! TO.P,REF\u002A\u002A,2*
G04 #@! TO.N,col0_row0*
X46662000Y-59254000D03*
G04 #@! TO.P,REF\u002A\u002A,1*
G04 #@! TO.N,col0*
X51702000Y-59254000D03*
D15*
G04 #@! TO.P,REF\u002A\u002A,3*
G04 #@! TO.N,N/C*
X47952000Y-68734000D03*
G04 #@! TO.P,REF\u002A\u002A,4*
X50452000Y-68684000D03*
D16*
G04 #@! TO.P,REF\u002A\u002A,*
G04 #@! TO.N,*
X43962000Y-67954000D03*
X54402000Y-67954000D03*
G04 #@! TD*
G04 #@! TO.P, ,*
G04 #@! TO.N,*
X149650303Y-66459730D03*
X139210303Y-66459730D03*
D15*
G04 #@! TO.P, ,4*
G04 #@! TO.N,N/C*
X145700303Y-67189730D03*
G04 #@! TO.P, ,3*
X143200303Y-67239730D03*
D14*
G04 #@! TO.P, ,1*
G04 #@! TO.N,col5*
X146950303Y-57759730D03*
G04 #@! TO.P, ,2*
G04 #@! TO.N,col5_row0*
X141910303Y-57759730D03*
D13*
G04 #@! TO.P, ,1*
G04 #@! TO.N,col5*
X148240303Y-59719730D03*
G04 #@! TO.P, ,2*
G04 #@! TO.N,col5_row0*
X140620303Y-59719730D03*
D12*
G04 #@! TO.P, ,*
G04 #@! TO.N,*
X149580303Y-67259730D03*
D11*
G04 #@! TO.P, ,2*
G04 #@! TO.N,col5_row0*
X139430303Y-58459730D03*
D12*
G04 #@! TO.P, ,*
G04 #@! TO.N,*
X139280303Y-67259730D03*
G04 #@! TO.P, ,5*
G04 #@! TO.N,N/C*
X144430303Y-56359730D03*
D11*
G04 #@! TO.P, ,1*
G04 #@! TO.N,col5*
X149430303Y-58459730D03*
G04 #@! TD*
D16*
G04 #@! TO.P, ,*
G04 #@! TO.N,*
X149650303Y-85509730D03*
X139210303Y-85509730D03*
D15*
G04 #@! TO.P, ,4*
G04 #@! TO.N,N/C*
X145700303Y-86239730D03*
G04 #@! TO.P, ,3*
X143200303Y-86289730D03*
D14*
G04 #@! TO.P, ,1*
G04 #@! TO.N,col5*
X146950303Y-76809730D03*
G04 #@! TO.P, ,2*
G04 #@! TO.N,col5_row1*
X141910303Y-76809730D03*
D13*
G04 #@! TO.P, ,1*
G04 #@! TO.N,col5*
X148240303Y-78769730D03*
G04 #@! TO.P, ,2*
G04 #@! TO.N,col5_row1*
X140620303Y-78769730D03*
D12*
G04 #@! TO.P, ,*
G04 #@! TO.N,*
X149580303Y-86309730D03*
D11*
G04 #@! TO.P, ,2*
G04 #@! TO.N,col5_row1*
X139430303Y-77509730D03*
D12*
G04 #@! TO.P, ,*
G04 #@! TO.N,*
X139280303Y-86309730D03*
G04 #@! TO.P, ,5*
G04 #@! TO.N,N/C*
X144430303Y-75409730D03*
D11*
G04 #@! TO.P, ,1*
G04 #@! TO.N,col5*
X149430303Y-77509730D03*
G04 #@! TD*
D16*
G04 #@! TO.P, ,*
G04 #@! TO.N,*
X149650303Y-104559730D03*
X139210303Y-104559730D03*
D15*
G04 #@! TO.P, ,4*
G04 #@! TO.N,N/C*
X145700303Y-105289730D03*
G04 #@! TO.P, ,3*
X143200303Y-105339730D03*
D14*
G04 #@! TO.P, ,1*
G04 #@! TO.N,col5*
X146950303Y-95859730D03*
G04 #@! TO.P, ,2*
G04 #@! TO.N,col5_row2*
X141910303Y-95859730D03*
D13*
G04 #@! TO.P, ,1*
G04 #@! TO.N,col5*
X148240303Y-97819730D03*
G04 #@! TO.P, ,2*
G04 #@! TO.N,col5_row2*
X140620303Y-97819730D03*
D12*
G04 #@! TO.P, ,*
G04 #@! TO.N,*
X149580303Y-105359730D03*
D11*
G04 #@! TO.P, ,2*
G04 #@! TO.N,col5_row2*
X139430303Y-96559730D03*
D12*
G04 #@! TO.P, ,*
G04 #@! TO.N,*
X139280303Y-105359730D03*
G04 #@! TO.P, ,5*
G04 #@! TO.N,N/C*
X144430303Y-94459730D03*
D11*
G04 #@! TO.P, ,1*
G04 #@! TO.N,col5*
X149430303Y-96559730D03*
G04 #@! TD*
D16*
G04 #@! TO.P, ,*
G04 #@! TO.N,*
X149650303Y-125133730D03*
X139210303Y-125133730D03*
D15*
G04 #@! TO.P, ,4*
G04 #@! TO.N,N/C*
X145700303Y-125863730D03*
G04 #@! TO.P, ,3*
X143200303Y-125913730D03*
D14*
G04 #@! TO.P, ,1*
G04 #@! TO.N,col5*
X146950303Y-116433730D03*
G04 #@! TO.P, ,2*
G04 #@! TO.N,col5_row3*
X141910303Y-116433730D03*
D13*
G04 #@! TO.P, ,1*
G04 #@! TO.N,col5*
X148240303Y-118393730D03*
G04 #@! TO.P, ,2*
G04 #@! TO.N,col5_row3*
X140620303Y-118393730D03*
D12*
G04 #@! TO.P, ,*
G04 #@! TO.N,*
X149580303Y-125933730D03*
D11*
G04 #@! TO.P, ,2*
G04 #@! TO.N,col5_row3*
X139430303Y-117133730D03*
D12*
G04 #@! TO.P, ,*
G04 #@! TO.N,*
X139280303Y-125933730D03*
G04 #@! TO.P, ,5*
G04 #@! TO.N,N/C*
X144430303Y-115033730D03*
D11*
G04 #@! TO.P, ,1*
G04 #@! TO.N,col5*
X149430303Y-117133730D03*
G04 #@! TD*
D16*
G04 #@! TO.P, ,*
G04 #@! TO.N,*
X130600303Y-125133730D03*
X120160303Y-125133730D03*
D15*
G04 #@! TO.P, ,4*
G04 #@! TO.N,N/C*
X126650303Y-125863730D03*
G04 #@! TO.P, ,3*
X124150303Y-125913730D03*
D14*
G04 #@! TO.P, ,1*
G04 #@! TO.N,col4*
X127900303Y-116433730D03*
G04 #@! TO.P, ,2*
G04 #@! TO.N,col4_row3*
X122860303Y-116433730D03*
D13*
G04 #@! TO.P, ,1*
G04 #@! TO.N,col4*
X129190303Y-118393730D03*
G04 #@! TO.P, ,2*
G04 #@! TO.N,col4_row3*
X121570303Y-118393730D03*
D12*
G04 #@! TO.P, ,*
G04 #@! TO.N,*
X130530303Y-125933730D03*
D11*
G04 #@! TO.P, ,2*
G04 #@! TO.N,col4_row3*
X120380303Y-117133730D03*
D12*
G04 #@! TO.P, ,*
G04 #@! TO.N,*
X120230303Y-125933730D03*
G04 #@! TO.P, ,5*
G04 #@! TO.N,N/C*
X125380303Y-115033730D03*
D11*
G04 #@! TO.P, ,1*
G04 #@! TO.N,col4*
X130380303Y-117133730D03*
G04 #@! TD*
D16*
G04 #@! TO.P, ,*
G04 #@! TO.N,*
X111550303Y-125133730D03*
X101110303Y-125133730D03*
D15*
G04 #@! TO.P, ,4*
G04 #@! TO.N,N/C*
X107600303Y-125863730D03*
G04 #@! TO.P, ,3*
X105100303Y-125913730D03*
D14*
G04 #@! TO.P, ,1*
G04 #@! TO.N,col3*
X108850303Y-116433730D03*
G04 #@! TO.P, ,2*
G04 #@! TO.N,col3_row3*
X103810303Y-116433730D03*
D13*
G04 #@! TO.P, ,1*
G04 #@! TO.N,col3*
X110140303Y-118393730D03*
G04 #@! TO.P, ,2*
G04 #@! TO.N,col3_row3*
X102520303Y-118393730D03*
D12*
G04 #@! TO.P, ,*
G04 #@! TO.N,*
X111480303Y-125933730D03*
D11*
G04 #@! TO.P, ,2*
G04 #@! TO.N,col3_row3*
X101330303Y-117133730D03*
D12*
G04 #@! TO.P, ,*
G04 #@! TO.N,*
X101180303Y-125933730D03*
G04 #@! TO.P, ,5*
G04 #@! TO.N,N/C*
X106330303Y-115033730D03*
D11*
G04 #@! TO.P, ,1*
G04 #@! TO.N,col3*
X111330303Y-117133730D03*
G04 #@! TD*
D16*
G04 #@! TO.P, ,*
G04 #@! TO.N,*
X92500303Y-125133730D03*
X82060303Y-125133730D03*
D15*
G04 #@! TO.P, ,4*
G04 #@! TO.N,N/C*
X88550303Y-125863730D03*
G04 #@! TO.P, ,3*
X86050303Y-125913730D03*
D14*
G04 #@! TO.P, ,1*
G04 #@! TO.N,col2*
X89800303Y-116433730D03*
G04 #@! TO.P, ,2*
G04 #@! TO.N,col2_row3*
X84760303Y-116433730D03*
D13*
G04 #@! TO.P, ,1*
G04 #@! TO.N,col2*
X91090303Y-118393730D03*
G04 #@! TO.P, ,2*
G04 #@! TO.N,col2_row3*
X83470303Y-118393730D03*
D12*
G04 #@! TO.P, ,*
G04 #@! TO.N,*
X92430303Y-125933730D03*
D11*
G04 #@! TO.P, ,2*
G04 #@! TO.N,col2_row3*
X82280303Y-117133730D03*
D12*
G04 #@! TO.P, ,*
G04 #@! TO.N,*
X82130303Y-125933730D03*
G04 #@! TO.P, ,5*
G04 #@! TO.N,N/C*
X87280303Y-115033730D03*
D11*
G04 #@! TO.P, ,1*
G04 #@! TO.N,col2*
X92280303Y-117133730D03*
G04 #@! TD*
D16*
G04 #@! TO.P, ,*
G04 #@! TO.N,*
X130600303Y-102019730D03*
X120160303Y-102019730D03*
D15*
G04 #@! TO.P, ,4*
G04 #@! TO.N,N/C*
X126650303Y-102749730D03*
G04 #@! TO.P, ,3*
X124150303Y-102799730D03*
D14*
G04 #@! TO.P, ,1*
G04 #@! TO.N,col4*
X127900303Y-93319730D03*
G04 #@! TO.P, ,2*
G04 #@! TO.N,col4_row2*
X122860303Y-93319730D03*
D13*
G04 #@! TO.P, ,1*
G04 #@! TO.N,col4*
X129190303Y-95279730D03*
G04 #@! TO.P, ,2*
G04 #@! TO.N,col4_row2*
X121570303Y-95279730D03*
D12*
G04 #@! TO.P, ,*
G04 #@! TO.N,*
X130530303Y-102819730D03*
D11*
G04 #@! TO.P, ,2*
G04 #@! TO.N,col4_row2*
X120380303Y-94019730D03*
D12*
G04 #@! TO.P, ,*
G04 #@! TO.N,*
X120230303Y-102819730D03*
G04 #@! TO.P, ,5*
G04 #@! TO.N,N/C*
X125380303Y-91919730D03*
D11*
G04 #@! TO.P, ,1*
G04 #@! TO.N,col4*
X130380303Y-94019730D03*
G04 #@! TD*
D16*
G04 #@! TO.P, ,*
G04 #@! TO.N,*
X130600303Y-82969730D03*
X120160303Y-82969730D03*
D15*
G04 #@! TO.P, ,4*
G04 #@! TO.N,N/C*
X126650303Y-83699730D03*
G04 #@! TO.P, ,3*
X124150303Y-83749730D03*
D14*
G04 #@! TO.P, ,1*
G04 #@! TO.N,col4*
X127900303Y-74269730D03*
G04 #@! TO.P, ,2*
G04 #@! TO.N,col4_row1*
X122860303Y-74269730D03*
D13*
G04 #@! TO.P, ,1*
G04 #@! TO.N,col4*
X129190303Y-76229730D03*
G04 #@! TO.P, ,2*
G04 #@! TO.N,col4_row1*
X121570303Y-76229730D03*
D12*
G04 #@! TO.P, ,*
G04 #@! TO.N,*
X130530303Y-83769730D03*
D11*
G04 #@! TO.P, ,2*
G04 #@! TO.N,col4_row1*
X120380303Y-74969730D03*
D12*
G04 #@! TO.P, ,*
G04 #@! TO.N,*
X120230303Y-83769730D03*
G04 #@! TO.P, ,5*
G04 #@! TO.N,N/C*
X125380303Y-72869730D03*
D11*
G04 #@! TO.P, ,1*
G04 #@! TO.N,col4*
X130380303Y-74969730D03*
G04 #@! TD*
D16*
G04 #@! TO.P, ,*
G04 #@! TO.N,*
X130600303Y-63919730D03*
X120160303Y-63919730D03*
D15*
G04 #@! TO.P, ,4*
G04 #@! TO.N,N/C*
X126650303Y-64649730D03*
G04 #@! TO.P, ,3*
X124150303Y-64699730D03*
D14*
G04 #@! TO.P, ,1*
G04 #@! TO.N,col4*
X127900303Y-55219730D03*
G04 #@! TO.P, ,2*
G04 #@! TO.N,col4_row0*
X122860303Y-55219730D03*
D13*
G04 #@! TO.P, ,1*
G04 #@! TO.N,col4*
X129190303Y-57179730D03*
G04 #@! TO.P, ,2*
G04 #@! TO.N,col4_row0*
X121570303Y-57179730D03*
D12*
G04 #@! TO.P, ,*
G04 #@! TO.N,*
X130530303Y-64719730D03*
D11*
G04 #@! TO.P, ,2*
G04 #@! TO.N,col4_row0*
X120380303Y-55919730D03*
D12*
G04 #@! TO.P, ,*
G04 #@! TO.N,*
X120230303Y-64719730D03*
G04 #@! TO.P, ,5*
G04 #@! TO.N,N/C*
X125380303Y-53819730D03*
D11*
G04 #@! TO.P, ,1*
G04 #@! TO.N,col4*
X130380303Y-55919730D03*
G04 #@! TD*
D16*
G04 #@! TO.P, ,*
G04 #@! TO.N,*
X111550303Y-62649730D03*
X101110303Y-62649730D03*
D15*
G04 #@! TO.P, ,4*
G04 #@! TO.N,N/C*
X107600303Y-63379730D03*
G04 #@! TO.P, ,3*
X105100303Y-63429730D03*
D14*
G04 #@! TO.P, ,1*
G04 #@! TO.N,col3*
X108850303Y-53949730D03*
G04 #@! TO.P, ,2*
G04 #@! TO.N,col3_row0*
X103810303Y-53949730D03*
D13*
G04 #@! TO.P, ,1*
G04 #@! TO.N,col3*
X110140303Y-55909730D03*
G04 #@! TO.P, ,2*
G04 #@! TO.N,col3_row0*
X102520303Y-55909730D03*
D12*
G04 #@! TO.P, ,*
G04 #@! TO.N,*
X111480303Y-63449730D03*
D11*
G04 #@! TO.P, ,2*
G04 #@! TO.N,col3_row0*
X101330303Y-54649730D03*
D12*
G04 #@! TO.P, ,*
G04 #@! TO.N,*
X101180303Y-63449730D03*
G04 #@! TO.P, ,5*
G04 #@! TO.N,N/C*
X106330303Y-52549730D03*
D11*
G04 #@! TO.P, ,1*
G04 #@! TO.N,col3*
X111330303Y-54649730D03*
G04 #@! TD*
D16*
G04 #@! TO.P, ,*
G04 #@! TO.N,*
X111550303Y-81699730D03*
X101110303Y-81699730D03*
D15*
G04 #@! TO.P, ,4*
G04 #@! TO.N,N/C*
X107600303Y-82429730D03*
G04 #@! TO.P, ,3*
X105100303Y-82479730D03*
D14*
G04 #@! TO.P, ,1*
G04 #@! TO.N,col3*
X108850303Y-72999730D03*
G04 #@! TO.P, ,2*
G04 #@! TO.N,col3_row1*
X103810303Y-72999730D03*
D13*
G04 #@! TO.P, ,1*
G04 #@! TO.N,col3*
X110140303Y-74959730D03*
G04 #@! TO.P, ,2*
G04 #@! TO.N,col3_row1*
X102520303Y-74959730D03*
D12*
G04 #@! TO.P, ,*
G04 #@! TO.N,*
X111480303Y-82499730D03*
D11*
G04 #@! TO.P, ,2*
G04 #@! TO.N,col3_row1*
X101330303Y-73699730D03*
D12*
G04 #@! TO.P, ,*
G04 #@! TO.N,*
X101180303Y-82499730D03*
G04 #@! TO.P, ,5*
G04 #@! TO.N,N/C*
X106330303Y-71599730D03*
D11*
G04 #@! TO.P, ,1*
G04 #@! TO.N,col3*
X111330303Y-73699730D03*
G04 #@! TD*
D16*
G04 #@! TO.P, ,*
G04 #@! TO.N,*
X111550303Y-100749730D03*
X101110303Y-100749730D03*
D15*
G04 #@! TO.P, ,4*
G04 #@! TO.N,N/C*
X107600303Y-101479730D03*
G04 #@! TO.P, ,3*
X105100303Y-101529730D03*
D14*
G04 #@! TO.P, ,1*
G04 #@! TO.N,col3*
X108850303Y-92049730D03*
G04 #@! TO.P, ,2*
G04 #@! TO.N,col3_row2*
X103810303Y-92049730D03*
D13*
G04 #@! TO.P, ,1*
G04 #@! TO.N,col3*
X110140303Y-94009730D03*
G04 #@! TO.P, ,2*
G04 #@! TO.N,col3_row2*
X102520303Y-94009730D03*
D12*
G04 #@! TO.P, ,*
G04 #@! TO.N,*
X111480303Y-101549730D03*
D11*
G04 #@! TO.P, ,2*
G04 #@! TO.N,col3_row2*
X101330303Y-92749730D03*
D12*
G04 #@! TO.P, ,*
G04 #@! TO.N,*
X101180303Y-101549730D03*
G04 #@! TO.P, ,5*
G04 #@! TO.N,N/C*
X106330303Y-90649730D03*
D11*
G04 #@! TO.P, ,1*
G04 #@! TO.N,col3*
X111330303Y-92749730D03*
G04 #@! TD*
D16*
G04 #@! TO.P, ,*
G04 #@! TO.N,*
X92500303Y-102273730D03*
X82060303Y-102273730D03*
D15*
G04 #@! TO.P, ,4*
G04 #@! TO.N,N/C*
X88550303Y-103003730D03*
G04 #@! TO.P, ,3*
X86050303Y-103053730D03*
D14*
G04 #@! TO.P, ,1*
G04 #@! TO.N,col2*
X89800303Y-93573730D03*
G04 #@! TO.P, ,2*
G04 #@! TO.N,col2_row2*
X84760303Y-93573730D03*
D13*
G04 #@! TO.P, ,1*
G04 #@! TO.N,col2*
X91090303Y-95533730D03*
G04 #@! TO.P, ,2*
G04 #@! TO.N,col2_row2*
X83470303Y-95533730D03*
D12*
G04 #@! TO.P, ,*
G04 #@! TO.N,*
X92430303Y-103073730D03*
D11*
G04 #@! TO.P, ,2*
G04 #@! TO.N,col2_row2*
X82280303Y-94273730D03*
D12*
G04 #@! TO.P, ,*
G04 #@! TO.N,*
X82130303Y-103073730D03*
G04 #@! TO.P, ,5*
G04 #@! TO.N,N/C*
X87280303Y-92173730D03*
D11*
G04 #@! TO.P, ,1*
G04 #@! TO.N,col2*
X92280303Y-94273730D03*
G04 #@! TD*
D16*
G04 #@! TO.P, ,*
G04 #@! TO.N,*
X92500303Y-83223730D03*
X82060303Y-83223730D03*
D15*
G04 #@! TO.P, ,4*
G04 #@! TO.N,N/C*
X88550303Y-83953730D03*
G04 #@! TO.P, ,3*
X86050303Y-84003730D03*
D14*
G04 #@! TO.P, ,1*
G04 #@! TO.N,col2*
X89800303Y-74523730D03*
G04 #@! TO.P, ,2*
G04 #@! TO.N,col2_row1*
X84760303Y-74523730D03*
D13*
G04 #@! TO.P, ,1*
G04 #@! TO.N,col2*
X91090303Y-76483730D03*
G04 #@! TO.P, ,2*
G04 #@! TO.N,col2_row1*
X83470303Y-76483730D03*
D12*
G04 #@! TO.P, ,*
G04 #@! TO.N,*
X92430303Y-84023730D03*
D11*
G04 #@! TO.P, ,2*
G04 #@! TO.N,col2_row1*
X82280303Y-75223730D03*
D12*
G04 #@! TO.P, ,*
G04 #@! TO.N,*
X82130303Y-84023730D03*
G04 #@! TO.P, ,5*
G04 #@! TO.N,N/C*
X87280303Y-73123730D03*
D11*
G04 #@! TO.P, ,1*
G04 #@! TO.N,col2*
X92280303Y-75223730D03*
G04 #@! TD*
D16*
G04 #@! TO.P, ,*
G04 #@! TO.N,*
X92500303Y-64169730D03*
X82060303Y-64169730D03*
D15*
G04 #@! TO.P, ,4*
G04 #@! TO.N,N/C*
X88550303Y-64899730D03*
G04 #@! TO.P, ,3*
X86050303Y-64949730D03*
D14*
G04 #@! TO.P, ,1*
G04 #@! TO.N,col2*
X89800303Y-55469730D03*
G04 #@! TO.P, ,2*
G04 #@! TO.N,col2_row0*
X84760303Y-55469730D03*
D13*
G04 #@! TO.P, ,1*
G04 #@! TO.N,col2*
X91090303Y-57429730D03*
G04 #@! TO.P, ,2*
G04 #@! TO.N,col2_row0*
X83470303Y-57429730D03*
D12*
G04 #@! TO.P, ,*
G04 #@! TO.N,*
X92430303Y-64969730D03*
D11*
G04 #@! TO.P, ,2*
G04 #@! TO.N,col2_row0*
X82280303Y-56169730D03*
D12*
G04 #@! TO.P, ,*
G04 #@! TO.N,*
X82130303Y-64969730D03*
G04 #@! TO.P, ,5*
G04 #@! TO.N,N/C*
X87280303Y-54069730D03*
D11*
G04 #@! TO.P, ,1*
G04 #@! TO.N,col2*
X92280303Y-56169730D03*
G04 #@! TD*
D16*
G04 #@! TO.P, ,*
G04 #@! TO.N,*
X73447231Y-65403730D03*
X63007231Y-65403730D03*
D15*
G04 #@! TO.P, ,4*
G04 #@! TO.N,N/C*
X69497231Y-66133730D03*
G04 #@! TO.P, ,3*
X66997231Y-66183730D03*
D14*
G04 #@! TO.P, ,1*
G04 #@! TO.N,col1*
X70747231Y-56703730D03*
G04 #@! TO.P, ,2*
G04 #@! TO.N,col1_row0*
X65707231Y-56703730D03*
D13*
G04 #@! TO.P, ,1*
G04 #@! TO.N,col1*
X72037231Y-58663730D03*
G04 #@! TO.P, ,2*
G04 #@! TO.N,col1_row0*
X64417231Y-58663730D03*
D12*
G04 #@! TO.P, ,*
G04 #@! TO.N,*
X73377231Y-66203730D03*
D11*
G04 #@! TO.P, ,2*
G04 #@! TO.N,col1_row0*
X63227231Y-57403730D03*
D12*
G04 #@! TO.P, ,*
G04 #@! TO.N,*
X63077231Y-66203730D03*
G04 #@! TO.P, ,5*
G04 #@! TO.N,N/C*
X68227231Y-55303730D03*
D11*
G04 #@! TO.P, ,1*
G04 #@! TO.N,col1*
X73227231Y-57403730D03*
G04 #@! TD*
D16*
G04 #@! TO.P, ,*
G04 #@! TO.N,*
X73447231Y-84451829D03*
X63007231Y-84451829D03*
D15*
G04 #@! TO.P, ,4*
G04 #@! TO.N,N/C*
X69497231Y-85181829D03*
G04 #@! TO.P, ,3*
X66997231Y-85231829D03*
D14*
G04 #@! TO.P, ,1*
G04 #@! TO.N,col1*
X70747231Y-75751829D03*
G04 #@! TO.P, ,2*
G04 #@! TO.N,col1_row1*
X65707231Y-75751829D03*
D13*
G04 #@! TO.P, ,1*
G04 #@! TO.N,col1*
X72037231Y-77711829D03*
G04 #@! TO.P, ,2*
G04 #@! TO.N,col1_row1*
X64417231Y-77711829D03*
D12*
G04 #@! TO.P, ,*
G04 #@! TO.N,*
X73377231Y-85251829D03*
D11*
G04 #@! TO.P, ,2*
G04 #@! TO.N,col1_row1*
X63227231Y-76451829D03*
D12*
G04 #@! TO.P, ,*
G04 #@! TO.N,*
X63077231Y-85251829D03*
G04 #@! TO.P, ,5*
G04 #@! TO.N,N/C*
X68227231Y-74351829D03*
D11*
G04 #@! TO.P, ,1*
G04 #@! TO.N,col1*
X73227231Y-76451829D03*
G04 #@! TD*
D16*
G04 #@! TO.P, ,*
G04 #@! TO.N,*
X73447231Y-103500230D03*
X63007231Y-103500230D03*
D15*
G04 #@! TO.P, ,4*
G04 #@! TO.N,N/C*
X69497231Y-104230230D03*
G04 #@! TO.P, ,3*
X66997231Y-104280230D03*
D14*
G04 #@! TO.P, ,1*
G04 #@! TO.N,col1*
X70747231Y-94800230D03*
G04 #@! TO.P, ,2*
G04 #@! TO.N,col1_row2*
X65707231Y-94800230D03*
D13*
G04 #@! TO.P, ,1*
G04 #@! TO.N,col1*
X72037231Y-96760230D03*
G04 #@! TO.P, ,2*
G04 #@! TO.N,col1_row2*
X64417231Y-96760230D03*
D12*
G04 #@! TO.P, ,*
G04 #@! TO.N,*
X73377231Y-104300230D03*
D11*
G04 #@! TO.P, ,2*
G04 #@! TO.N,col1_row2*
X63227231Y-95500230D03*
D12*
G04 #@! TO.P, ,*
G04 #@! TO.N,*
X63077231Y-104300230D03*
G04 #@! TO.P, ,5*
G04 #@! TO.N,N/C*
X68227231Y-93400230D03*
D11*
G04 #@! TO.P, ,1*
G04 #@! TO.N,col1*
X73227231Y-95500230D03*
G04 #@! TD*
G04 #@! TO.P, ,1*
G04 #@! TO.N,col1*
X73227231Y-117133730D03*
D12*
G04 #@! TO.P, ,5*
G04 #@! TO.N,N/C*
X68227231Y-115033730D03*
G04 #@! TO.P, ,*
G04 #@! TO.N,*
X63077231Y-125933730D03*
D11*
G04 #@! TO.P, ,2*
G04 #@! TO.N,col1_row3*
X63227231Y-117133730D03*
D12*
G04 #@! TO.P, ,*
G04 #@! TO.N,*
X73377231Y-125933730D03*
D13*
G04 #@! TO.P, ,2*
G04 #@! TO.N,col1_row3*
X64417231Y-118393730D03*
G04 #@! TO.P, ,1*
G04 #@! TO.N,col1*
X72037231Y-118393730D03*
D14*
G04 #@! TO.P, ,2*
G04 #@! TO.N,col1_row3*
X65707231Y-116433730D03*
G04 #@! TO.P, ,1*
G04 #@! TO.N,col1*
X70747231Y-116433730D03*
D15*
G04 #@! TO.P, ,3*
G04 #@! TO.N,N/C*
X66997231Y-125913730D03*
G04 #@! TO.P, ,4*
X69497231Y-125863730D03*
D16*
G04 #@! TO.P, ,*
G04 #@! TO.N,*
X63007231Y-125133730D03*
X73447231Y-125133730D03*
G04 #@! TD*
D11*
G04 #@! TO.P, ,1*
G04 #@! TO.N,col0*
X54182000Y-117104000D03*
D12*
G04 #@! TO.P, ,5*
G04 #@! TO.N,N/C*
X49182000Y-115004000D03*
G04 #@! TO.P, ,*
G04 #@! TO.N,*
X44032000Y-125904000D03*
D11*
G04 #@! TO.P, ,2*
G04 #@! TO.N,col0_row3*
X44182000Y-117104000D03*
D12*
G04 #@! TO.P, ,*
G04 #@! TO.N,*
X54332000Y-125904000D03*
D13*
G04 #@! TO.P, ,2*
G04 #@! TO.N,col0_row3*
X45372000Y-118364000D03*
G04 #@! TO.P, ,1*
G04 #@! TO.N,col0*
X52992000Y-118364000D03*
D14*
G04 #@! TO.P, ,2*
G04 #@! TO.N,col0_row3*
X46662000Y-116404000D03*
G04 #@! TO.P, ,1*
G04 #@! TO.N,col0*
X51702000Y-116404000D03*
D15*
G04 #@! TO.P, ,3*
G04 #@! TO.N,N/C*
X47952000Y-125884000D03*
G04 #@! TO.P, ,4*
X50452000Y-125834000D03*
D16*
G04 #@! TO.P, ,*
G04 #@! TO.N,*
X43962000Y-125104000D03*
X54402000Y-125104000D03*
G04 #@! TD*
D11*
G04 #@! TO.P, ,1*
G04 #@! TO.N,col0*
X54182000Y-98054000D03*
D12*
G04 #@! TO.P, ,5*
G04 #@! TO.N,N/C*
X49182000Y-95954000D03*
G04 #@! TO.P, ,*
G04 #@! TO.N,*
X44032000Y-106854000D03*
D11*
G04 #@! TO.P, ,2*
G04 #@! TO.N,col0_row2*
X44182000Y-98054000D03*
D12*
G04 #@! TO.P, ,*
G04 #@! TO.N,*
X54332000Y-106854000D03*
D13*
G04 #@! TO.P, ,2*
G04 #@! TO.N,col0_row2*
X45372000Y-99314000D03*
G04 #@! TO.P, ,1*
G04 #@! TO.N,col0*
X52992000Y-99314000D03*
D14*
G04 #@! TO.P, ,2*
G04 #@! TO.N,col0_row2*
X46662000Y-97354000D03*
G04 #@! TO.P, ,1*
G04 #@! TO.N,col0*
X51702000Y-97354000D03*
D15*
G04 #@! TO.P, ,3*
G04 #@! TO.N,N/C*
X47952000Y-106834000D03*
G04 #@! TO.P, ,4*
X50452000Y-106784000D03*
D16*
G04 #@! TO.P, ,*
G04 #@! TO.N,*
X43962000Y-106054000D03*
X54402000Y-106054000D03*
G04 #@! TD*
D11*
G04 #@! TO.P, ,1*
G04 #@! TO.N,col0*
X54182000Y-79004000D03*
D12*
G04 #@! TO.P, ,5*
G04 #@! TO.N,N/C*
X49182000Y-76904000D03*
G04 #@! TO.P, ,*
G04 #@! TO.N,*
X44032000Y-87804000D03*
D11*
G04 #@! TO.P, ,2*
G04 #@! TO.N,col0_row1*
X44182000Y-79004000D03*
D12*
G04 #@! TO.P, ,*
G04 #@! TO.N,*
X54332000Y-87804000D03*
D13*
G04 #@! TO.P, ,2*
G04 #@! TO.N,col0_row1*
X45372000Y-80264000D03*
G04 #@! TO.P, ,1*
G04 #@! TO.N,col0*
X52992000Y-80264000D03*
D14*
G04 #@! TO.P, ,2*
G04 #@! TO.N,col0_row1*
X46662000Y-78304000D03*
G04 #@! TO.P, ,1*
G04 #@! TO.N,col0*
X51702000Y-78304000D03*
D15*
G04 #@! TO.P, ,3*
G04 #@! TO.N,N/C*
X47952000Y-87784000D03*
G04 #@! TO.P, ,4*
X50452000Y-87734000D03*
D16*
G04 #@! TO.P, ,*
G04 #@! TO.N,*
X43962000Y-87004000D03*
X54402000Y-87004000D03*
G04 #@! TD*
D17*
G04 #@! TO.P, ,2*
G04 #@! TO.N,BAT_SW*
X67818000Y-49530000D03*
D18*
G04 #@! TO.P, ,1*
G04 #@! TO.N,BAT0*
X70358000Y-49530000D03*
G04 #@! TD*
D19*
G04 #@! TO.P,REF\u002A\u002A,1*
G04 #@! TO.N,RESET_GND*
X80088000Y-47498000D03*
G04 #@! TO.P,REF\u002A\u002A,2*
G04 #@! TO.N,RESET*
X83488000Y-47498000D03*
G04 #@! TD*
D20*
G04 #@! TO.P,REF\u002A\u002A,1*
G04 #@! TO.N,N/C*
X54828000Y-49944000D03*
G04 #@! TO.P,REF\u002A\u002A,2*
G04 #@! TO.N,BAT_SW*
X51828000Y-49944000D03*
G04 #@! TO.P,REF\u002A\u002A,3*
G04 #@! TO.N,BAT_GND*
X50328000Y-49944000D03*
D21*
G04 #@! TO.P,REF\u002A\u002A,*
G04 #@! TO.N,*
X56228000Y-47084000D03*
X48928000Y-47084000D03*
X48928000Y-49294000D03*
X56228000Y-49294000D03*
G04 #@! TD*
D22*
G04 #@! TO.P,D0,1*
G04 #@! TO.N,N/C*
X146930303Y-53340000D03*
G04 #@! TO.P,D0,2*
X141930303Y-53340000D03*
D23*
G04 #@! TO.P,D0,1*
G04 #@! TO.N,row0*
X148330303Y-53340000D03*
D24*
G04 #@! TO.P,D0,2*
G04 #@! TO.N,col5_row0*
X140530303Y-53340000D03*
D25*
G04 #@! TO.N,N/C*
X143030303Y-53340000D03*
G04 #@! TO.P,D0,1*
X145830303Y-53340000D03*
G04 #@! TD*
D22*
G04 #@! TO.P,D0,1*
G04 #@! TO.N,N/C*
X146930303Y-72390000D03*
G04 #@! TO.P,D0,2*
X141930303Y-72390000D03*
D23*
G04 #@! TO.P,D0,1*
G04 #@! TO.N,row1*
X148330303Y-72390000D03*
D24*
G04 #@! TO.P,D0,2*
G04 #@! TO.N,col5_row1*
X140530303Y-72390000D03*
D25*
G04 #@! TO.N,N/C*
X143030303Y-72390000D03*
G04 #@! TO.P,D0,1*
X145830303Y-72390000D03*
G04 #@! TD*
D22*
G04 #@! TO.P,D0,1*
G04 #@! TO.N,N/C*
X146930303Y-91440000D03*
G04 #@! TO.P,D0,2*
X141930303Y-91440000D03*
D23*
G04 #@! TO.P,D0,1*
G04 #@! TO.N,row2*
X148330303Y-91440000D03*
D24*
G04 #@! TO.P,D0,2*
G04 #@! TO.N,col5_row2*
X140530303Y-91440000D03*
D25*
G04 #@! TO.N,N/C*
X143030303Y-91440000D03*
G04 #@! TO.P,D0,1*
X145830303Y-91440000D03*
G04 #@! TD*
D22*
G04 #@! TO.P,D0,1*
G04 #@! TO.N,N/C*
X147438303Y-111490000D03*
G04 #@! TO.P,D0,2*
X142438303Y-111490000D03*
D23*
G04 #@! TO.P,D0,1*
G04 #@! TO.N,row3*
X148838303Y-111490000D03*
D24*
G04 #@! TO.P,D0,2*
G04 #@! TO.N,col5_row3*
X141038303Y-111490000D03*
D25*
G04 #@! TO.N,N/C*
X143538303Y-111490000D03*
G04 #@! TO.P,D0,1*
X146338303Y-111490000D03*
G04 #@! TD*
D22*
G04 #@! TO.P,D0,1*
G04 #@! TO.N,N/C*
X128388303Y-111490000D03*
G04 #@! TO.P,D0,2*
X123388303Y-111490000D03*
D23*
G04 #@! TO.P,D0,1*
G04 #@! TO.N,row3*
X129788303Y-111490000D03*
D24*
G04 #@! TO.P,D0,2*
G04 #@! TO.N,col4_row3*
X121988303Y-111490000D03*
D25*
G04 #@! TO.N,N/C*
X124488303Y-111490000D03*
G04 #@! TO.P,D0,1*
X127288303Y-111490000D03*
G04 #@! TD*
D22*
G04 #@! TO.P,D0,1*
G04 #@! TO.N,N/C*
X109338303Y-111490000D03*
G04 #@! TO.P,D0,2*
X104338303Y-111490000D03*
D23*
G04 #@! TO.P,D0,1*
G04 #@! TO.N,row3*
X110738303Y-111490000D03*
D24*
G04 #@! TO.P,D0,2*
G04 #@! TO.N,col3_row3*
X102938303Y-111490000D03*
D25*
G04 #@! TO.N,N/C*
X105438303Y-111490000D03*
G04 #@! TO.P,D0,1*
X108238303Y-111490000D03*
G04 #@! TD*
D22*
G04 #@! TO.P,D0,1*
G04 #@! TO.N,N/C*
X90288303Y-111490000D03*
G04 #@! TO.P,D0,2*
X85288303Y-111490000D03*
D23*
G04 #@! TO.P,D0,1*
G04 #@! TO.N,row3*
X91688303Y-111490000D03*
D24*
G04 #@! TO.P,D0,2*
G04 #@! TO.N,col2_row3*
X83888303Y-111490000D03*
D25*
G04 #@! TO.N,N/C*
X86388303Y-111490000D03*
G04 #@! TO.P,D0,1*
X89188303Y-111490000D03*
G04 #@! TD*
D22*
G04 #@! TO.P,D0,1*
G04 #@! TO.N,N/C*
X127880303Y-88900000D03*
G04 #@! TO.P,D0,2*
X122880303Y-88900000D03*
D23*
G04 #@! TO.P,D0,1*
G04 #@! TO.N,row2*
X129280303Y-88900000D03*
D24*
G04 #@! TO.P,D0,2*
G04 #@! TO.N,col4_row2*
X121480303Y-88900000D03*
D25*
G04 #@! TO.N,N/C*
X123980303Y-88900000D03*
G04 #@! TO.P,D0,1*
X126780303Y-88900000D03*
G04 #@! TD*
D22*
G04 #@! TO.P,D0,1*
G04 #@! TO.N,N/C*
X127880303Y-69850000D03*
G04 #@! TO.P,D0,2*
X122880303Y-69850000D03*
D23*
G04 #@! TO.P,D0,1*
G04 #@! TO.N,row1*
X129280303Y-69850000D03*
D24*
G04 #@! TO.P,D0,2*
G04 #@! TO.N,col4_row1*
X121480303Y-69850000D03*
D25*
G04 #@! TO.N,N/C*
X123980303Y-69850000D03*
G04 #@! TO.P,D0,1*
X126780303Y-69850000D03*
G04 #@! TD*
D22*
G04 #@! TO.P,D0,1*
G04 #@! TO.N,N/C*
X127880303Y-50800000D03*
G04 #@! TO.P,D0,2*
X122880303Y-50800000D03*
D23*
G04 #@! TO.P,D0,1*
G04 #@! TO.N,row0*
X129280303Y-50800000D03*
D24*
G04 #@! TO.P,D0,2*
G04 #@! TO.N,col4_row0*
X121480303Y-50800000D03*
D25*
G04 #@! TO.N,N/C*
X123980303Y-50800000D03*
G04 #@! TO.P,D0,1*
X126780303Y-50800000D03*
G04 #@! TD*
D22*
G04 #@! TO.P,D0,1*
G04 #@! TO.N,N/C*
X108830303Y-49530000D03*
G04 #@! TO.P,D0,2*
X103830303Y-49530000D03*
D23*
G04 #@! TO.P,D0,1*
G04 #@! TO.N,row0*
X110230303Y-49530000D03*
D24*
G04 #@! TO.P,D0,2*
G04 #@! TO.N,col3_row0*
X102430303Y-49530000D03*
D25*
G04 #@! TO.N,N/C*
X104930303Y-49530000D03*
G04 #@! TO.P,D0,1*
X107730303Y-49530000D03*
G04 #@! TD*
D22*
G04 #@! TO.P,D0,1*
G04 #@! TO.N,N/C*
X108830303Y-68580000D03*
G04 #@! TO.P,D0,2*
X103830303Y-68580000D03*
D23*
G04 #@! TO.P,D0,1*
G04 #@! TO.N,row1*
X110230303Y-68580000D03*
D24*
G04 #@! TO.P,D0,2*
G04 #@! TO.N,col3_row1*
X102430303Y-68580000D03*
D25*
G04 #@! TO.N,N/C*
X104930303Y-68580000D03*
G04 #@! TO.P,D0,1*
X107730303Y-68580000D03*
G04 #@! TD*
D22*
G04 #@! TO.P,D0,1*
G04 #@! TO.N,N/C*
X108830303Y-87630000D03*
G04 #@! TO.P,D0,2*
X103830303Y-87630000D03*
D23*
G04 #@! TO.P,D0,1*
G04 #@! TO.N,row2*
X110230303Y-87630000D03*
D24*
G04 #@! TO.P,D0,2*
G04 #@! TO.N,col3_row2*
X102430303Y-87630000D03*
D25*
G04 #@! TO.N,N/C*
X104930303Y-87630000D03*
G04 #@! TO.P,D0,1*
X107730303Y-87630000D03*
G04 #@! TD*
D22*
G04 #@! TO.P,D0,1*
G04 #@! TO.N,N/C*
X89780303Y-88900000D03*
G04 #@! TO.P,D0,2*
X84780303Y-88900000D03*
D23*
G04 #@! TO.P,D0,1*
G04 #@! TO.N,row2*
X91180303Y-88900000D03*
D24*
G04 #@! TO.P,D0,2*
G04 #@! TO.N,col2_row2*
X83380303Y-88900000D03*
D25*
G04 #@! TO.N,N/C*
X85880303Y-88900000D03*
G04 #@! TO.P,D0,1*
X88680303Y-88900000D03*
G04 #@! TD*
D22*
G04 #@! TO.P,D0,1*
G04 #@! TO.N,N/C*
X89780303Y-69850000D03*
G04 #@! TO.P,D0,2*
X84780303Y-69850000D03*
D23*
G04 #@! TO.P,D0,1*
G04 #@! TO.N,row1*
X91180303Y-69850000D03*
D24*
G04 #@! TO.P,D0,2*
G04 #@! TO.N,col2_row1*
X83380303Y-69850000D03*
D25*
G04 #@! TO.N,N/C*
X85880303Y-69850000D03*
G04 #@! TO.P,D0,1*
X88680303Y-69850000D03*
G04 #@! TD*
D22*
G04 #@! TO.P,D0,1*
G04 #@! TO.N,N/C*
X89780303Y-50800000D03*
G04 #@! TO.P,D0,2*
X84780303Y-50800000D03*
D23*
G04 #@! TO.P,D0,1*
G04 #@! TO.N,row0*
X91180303Y-50800000D03*
D24*
G04 #@! TO.P,D0,2*
G04 #@! TO.N,col2_row0*
X83380303Y-50800000D03*
D25*
G04 #@! TO.N,N/C*
X85880303Y-50800000D03*
G04 #@! TO.P,D0,1*
X88680303Y-50800000D03*
G04 #@! TD*
D22*
G04 #@! TO.P,D0,1*
G04 #@! TO.N,N/C*
X70787231Y-52070000D03*
G04 #@! TO.P,D0,2*
X65787231Y-52070000D03*
D23*
G04 #@! TO.P,D0,1*
G04 #@! TO.N,row0*
X72187231Y-52070000D03*
D24*
G04 #@! TO.P,D0,2*
G04 #@! TO.N,col1_row0*
X64387231Y-52070000D03*
D25*
G04 #@! TO.N,N/C*
X66887231Y-52070000D03*
G04 #@! TO.P,D0,1*
X69687231Y-52070000D03*
G04 #@! TD*
D22*
G04 #@! TO.P,D0,1*
G04 #@! TO.N,N/C*
X70787231Y-71120000D03*
G04 #@! TO.P,D0,2*
X65787231Y-71120000D03*
D23*
G04 #@! TO.P,D0,1*
G04 #@! TO.N,row1*
X72187231Y-71120000D03*
D24*
G04 #@! TO.P,D0,2*
G04 #@! TO.N,col1_row1*
X64387231Y-71120000D03*
D25*
G04 #@! TO.N,N/C*
X66887231Y-71120000D03*
G04 #@! TO.P,D0,1*
X69687231Y-71120000D03*
G04 #@! TD*
D22*
G04 #@! TO.P,D0,1*
G04 #@! TO.N,N/C*
X70787231Y-90170000D03*
G04 #@! TO.P,D0,2*
X65787231Y-90170000D03*
D23*
G04 #@! TO.P,D0,1*
G04 #@! TO.N,row2*
X72187231Y-90170000D03*
D24*
G04 #@! TO.P,D0,2*
G04 #@! TO.N,col1_row2*
X64387231Y-90170000D03*
D25*
G04 #@! TO.N,N/C*
X66887231Y-90170000D03*
G04 #@! TO.P,D0,1*
X69687231Y-90170000D03*
G04 #@! TD*
D22*
G04 #@! TO.P,D0,1*
G04 #@! TO.N,N/C*
X71295231Y-111490000D03*
G04 #@! TO.P,D0,2*
X66295231Y-111490000D03*
D23*
G04 #@! TO.P,D0,1*
G04 #@! TO.N,row3*
X72695231Y-111490000D03*
D24*
G04 #@! TO.P,D0,2*
G04 #@! TO.N,col1_row3*
X64895231Y-111490000D03*
D25*
G04 #@! TO.N,N/C*
X67395231Y-111490000D03*
G04 #@! TO.P,D0,1*
X70195231Y-111490000D03*
G04 #@! TD*
D22*
G04 #@! TO.P,D0,1*
G04 #@! TO.N,N/C*
X52030000Y-111490000D03*
G04 #@! TO.P,D0,2*
X47030000Y-111490000D03*
D23*
G04 #@! TO.P,D0,1*
G04 #@! TO.N,row3*
X53430000Y-111490000D03*
D24*
G04 #@! TO.P,D0,2*
G04 #@! TO.N,col0_row3*
X45630000Y-111490000D03*
D25*
G04 #@! TO.N,N/C*
X48130000Y-111490000D03*
G04 #@! TO.P,D0,1*
X50930000Y-111490000D03*
G04 #@! TD*
D22*
G04 #@! TO.P,D0,1*
G04 #@! TO.N,N/C*
X52030000Y-92710000D03*
G04 #@! TO.P,D0,2*
X47030000Y-92710000D03*
D23*
G04 #@! TO.P,D0,1*
G04 #@! TO.N,row2*
X53430000Y-92710000D03*
D24*
G04 #@! TO.P,D0,2*
G04 #@! TO.N,col0_row2*
X45630000Y-92710000D03*
D25*
G04 #@! TO.N,N/C*
X48130000Y-92710000D03*
G04 #@! TO.P,D0,1*
X50930000Y-92710000D03*
G04 #@! TD*
D22*
G04 #@! TO.P,D0,1*
G04 #@! TO.N,N/C*
X51522000Y-73660000D03*
G04 #@! TO.P,D0,2*
X46522000Y-73660000D03*
D23*
G04 #@! TO.P,D0,1*
G04 #@! TO.N,row1*
X52922000Y-73660000D03*
D24*
G04 #@! TO.P,D0,2*
G04 #@! TO.N,col0_row1*
X45122000Y-73660000D03*
D25*
G04 #@! TO.N,N/C*
X47622000Y-73660000D03*
G04 #@! TO.P,D0,1*
X50422000Y-73660000D03*
G04 #@! TD*
G04 #@! TO.P,D0,1*
G04 #@! TO.N,N/C*
X50422000Y-54610000D03*
G04 #@! TO.P,D0,2*
X47622000Y-54610000D03*
D24*
G04 #@! TO.N,col0_row0*
X45122000Y-54610000D03*
D23*
G04 #@! TO.P,D0,1*
G04 #@! TO.N,row0*
X52922000Y-54610000D03*
D22*
G04 #@! TO.P,D0,2*
G04 #@! TO.N,N/C*
X46522000Y-54610000D03*
G04 #@! TO.P,D0,1*
X51522000Y-54610000D03*
G04 #@! TD*
D26*
G04 #@! TO.P,U1,24*
G04 #@! TO.N,BAT0*
X75907231Y-49530000D03*
G04 #@! TO.P,U1,12*
G04 #@! TO.N,col3*
X60667231Y-77470000D03*
G04 #@! TO.P,U1,23*
G04 #@! TO.N,BAT_GND*
X75907231Y-52070000D03*
G04 #@! TO.P,U1,22*
G04 #@! TO.N,RESET*
X75907231Y-54610000D03*
G04 #@! TO.P,U1,21*
G04 #@! TO.N,N/C*
X75907231Y-57150000D03*
G04 #@! TO.P,U1,20*
X75907231Y-59690000D03*
G04 #@! TO.P,U1,19*
X75907231Y-62230000D03*
G04 #@! TO.P,U1,18*
X75907231Y-64770000D03*
G04 #@! TO.P,U1,17*
X75907231Y-67310000D03*
G04 #@! TO.P,U1,16*
X75907231Y-69850000D03*
G04 #@! TO.P,U1,15*
X75907231Y-72390000D03*
G04 #@! TO.P,U1,14*
G04 #@! TO.N,col5*
X75907231Y-74930000D03*
G04 #@! TO.P,U1,13*
G04 #@! TO.N,col4*
X75907231Y-77470000D03*
G04 #@! TO.P,U1,11*
G04 #@! TO.N,col2*
X60667231Y-74930000D03*
G04 #@! TO.P,U1,10*
G04 #@! TO.N,col1*
X60667231Y-72390000D03*
G04 #@! TO.P,U1,9*
G04 #@! TO.N,col0*
X60667231Y-69850000D03*
G04 #@! TO.P,U1,8*
G04 #@! TO.N,row3*
X60667231Y-67310000D03*
G04 #@! TO.P,U1,7*
G04 #@! TO.N,row2*
X60667231Y-64770000D03*
G04 #@! TO.P,U1,6*
G04 #@! TO.N,row1*
X60667231Y-62230000D03*
G04 #@! TO.P,U1,5*
G04 #@! TO.N,row0*
X60667231Y-59690000D03*
G04 #@! TO.P,U1,4*
G04 #@! TO.N,N/C*
X60667231Y-57150000D03*
G04 #@! TO.P,U1,3*
G04 #@! TO.N,RESET_GND*
X60667231Y-54610000D03*
G04 #@! TO.P,U1,2*
G04 #@! TO.N,N/C*
X60667231Y-52070000D03*
D27*
G04 #@! TO.P,U1,1*
X60667231Y-49530000D03*
G04 #@! TD*
D28*
G04 #@! TO.N,row3*
X58330000Y-106590000D03*
G04 #@! TO.N,col3*
X107687518Y-84827518D03*
G04 #@! TO.N,row2*
X58383001Y-87666999D03*
G04 #@! TO.N,BAT_GND*
X57422999Y-49765001D03*
G04 #@! TO.N,RESET*
X81133616Y-49383616D03*
G04 #@! TO.N,RESET_GND*
X79248000Y-49530000D03*
G04 #@! TD*
D29*
G04 #@! TO.N,col0_row0*
X44746999Y-54099999D02*
X44746999Y-54610000D01*
X44746999Y-57338999D02*
X44746999Y-54099999D01*
X46662000Y-59254000D02*
X44746999Y-57338999D01*
G04 #@! TO.N,col1_row0*
X64012230Y-55008729D02*
X64012230Y-52070000D01*
X65707231Y-56703730D02*
X64012230Y-55008729D01*
G04 #@! TO.N,col2_row0*
X83005302Y-53714729D02*
X83005302Y-50800000D01*
X84760303Y-55469730D02*
X83005302Y-53714729D01*
G04 #@! TO.N,col3_row0*
X102055302Y-49019999D02*
X102055302Y-49530000D01*
X102055302Y-52194729D02*
X102055302Y-49530000D01*
X103810303Y-53949730D02*
X102055302Y-52194729D01*
G04 #@! TO.N,col4_row0*
X121105302Y-53464729D02*
X121105302Y-50800000D01*
X122860303Y-55219730D02*
X121105302Y-53464729D01*
G04 #@! TO.N,col5_row0*
X140155302Y-56004729D02*
X140155302Y-53340000D01*
X141910303Y-57759730D02*
X140155302Y-56004729D01*
G04 #@! TO.N,col0_row1*
X44746999Y-76388999D02*
X44746999Y-73660000D01*
X46662000Y-78304000D02*
X44746999Y-76388999D01*
G04 #@! TO.N,row3*
X73070232Y-110979999D02*
X73070232Y-112000001D01*
X73070232Y-112000001D02*
X73070232Y-111490000D01*
X58330000Y-106590000D02*
X68680233Y-106590000D01*
X92063304Y-110979999D02*
X92063304Y-111490000D01*
X90843188Y-109759883D02*
X92063304Y-110979999D01*
X71850117Y-109759883D02*
X90843188Y-109759883D01*
X68680233Y-106590000D02*
X71850117Y-109759883D01*
X71850117Y-109759883D02*
X73070232Y-110979999D01*
X111113304Y-110979999D02*
X111113304Y-111490000D01*
X109893188Y-109759883D02*
X111113304Y-110979999D01*
X130163304Y-110979999D02*
X130163304Y-111490000D01*
X128943188Y-109759883D02*
X130163304Y-110979999D01*
X109759883Y-109759883D02*
X128943188Y-109759883D01*
X90843188Y-109759883D02*
X109759883Y-109759883D01*
X109759883Y-109759883D02*
X109893188Y-109759883D01*
X149213304Y-110979999D02*
X149213304Y-111490000D01*
X147993188Y-109759883D02*
X149213304Y-110979999D01*
X128943188Y-109759883D02*
X147993188Y-109759883D01*
G04 #@! TO.N,col1_row1*
X64012230Y-74056828D02*
X64012230Y-71120000D01*
X65707231Y-75751829D02*
X64012230Y-74056828D01*
G04 #@! TO.N,col2_row1*
X83005302Y-72768729D02*
X83005302Y-69850000D01*
X84760303Y-74523730D02*
X83005302Y-72768729D01*
G04 #@! TO.N,col3_row1*
X102055302Y-71244729D02*
X102055302Y-68580000D01*
X103810303Y-72999730D02*
X102055302Y-71244729D01*
G04 #@! TO.N,col4_row1*
X121105302Y-72514729D02*
X121105302Y-69850000D01*
X122860303Y-74269730D02*
X121105302Y-72514729D01*
G04 #@! TO.N,col5_row1*
X140155302Y-75054729D02*
X140155302Y-72390000D01*
X141910303Y-76809730D02*
X140155302Y-75054729D01*
G04 #@! TO.N,col0_row2*
X45254999Y-95946999D02*
X45254999Y-92710000D01*
X46662000Y-97354000D02*
X45254999Y-95946999D01*
G04 #@! TO.N,col1_row2*
X64012230Y-93105229D02*
X64012230Y-90170000D01*
X65707231Y-94800230D02*
X64012230Y-93105229D01*
G04 #@! TO.N,col2_row2*
X83005302Y-91818729D02*
X83005302Y-88900000D01*
X84760303Y-93573730D02*
X83005302Y-91818729D01*
G04 #@! TO.N,col3_row2*
X102055302Y-90294729D02*
X102055302Y-87630000D01*
X103810303Y-92049730D02*
X102055302Y-90294729D01*
G04 #@! TO.N,col4_row2*
X121105302Y-91564729D02*
X121105302Y-88900000D01*
X122860303Y-93319730D02*
X121105302Y-91564729D01*
G04 #@! TO.N,col5_row2*
X140155302Y-94104729D02*
X140155302Y-91440000D01*
X141910303Y-95859730D02*
X140155302Y-94104729D01*
G04 #@! TO.N,col0_row3*
X45254999Y-114996999D02*
X45254999Y-111490000D01*
X46662000Y-116404000D02*
X45254999Y-114996999D01*
G04 #@! TO.N,col1_row3*
X64520230Y-115246729D02*
X64520230Y-111490000D01*
X65707231Y-116433730D02*
X64520230Y-115246729D01*
G04 #@! TO.N,col2_row3*
X83513302Y-115186729D02*
X83513302Y-111490000D01*
X84760303Y-116433730D02*
X83513302Y-115186729D01*
G04 #@! TO.N,col3_row3*
X102563302Y-115186729D02*
X102563302Y-111490000D01*
X103810303Y-116433730D02*
X102563302Y-115186729D01*
G04 #@! TO.N,col4_row3*
X121613302Y-115186729D02*
X121613302Y-111490000D01*
X122860303Y-116433730D02*
X121613302Y-115186729D01*
G04 #@! TO.N,col5_row3*
X140663302Y-115186729D02*
X140663302Y-111490000D01*
X141910303Y-116433730D02*
X140663302Y-115186729D01*
G04 #@! TO.N,col2*
X88125304Y-76198729D02*
X89800303Y-74523730D01*
X85924302Y-76198729D02*
X88125304Y-76198729D01*
X84171300Y-77951731D02*
X85924302Y-76198729D01*
X82765662Y-77951731D02*
X84171300Y-77951731D01*
X82002302Y-77188371D02*
X82765662Y-77951731D01*
X77966786Y-77188371D02*
X82002302Y-77188371D01*
X76178329Y-78976828D02*
X77966786Y-77188371D01*
X72131330Y-79687396D02*
X72841898Y-78976828D01*
X72131330Y-80528732D02*
X72131330Y-79687396D01*
X66871230Y-83076830D02*
X69583232Y-83076830D01*
X65402230Y-81607830D02*
X66871230Y-83076830D01*
X65402230Y-80642230D02*
X65402230Y-81607830D01*
X63939830Y-79179830D02*
X65402230Y-80642230D01*
X63712590Y-79179830D02*
X63939830Y-79179830D01*
X69583232Y-83076830D02*
X72131330Y-80528732D01*
X61868532Y-77335772D02*
X63712590Y-79179830D01*
X72841898Y-78976828D02*
X76178329Y-78976828D01*
X61868532Y-76893375D02*
X61868532Y-77335772D01*
X60667231Y-75692074D02*
X61868532Y-76893375D01*
X60667231Y-74930000D02*
X60667231Y-75692074D01*
G04 #@! TO.N,col3*
X106916305Y-85598731D02*
X107687518Y-84827518D01*
X75361331Y-85598731D02*
X106916305Y-85598731D01*
X74133232Y-86826830D02*
X75361331Y-85598731D01*
X66107230Y-86826830D02*
X74133232Y-86826830D01*
X65922230Y-86641830D02*
X66107230Y-86826830D01*
X65922230Y-85405826D02*
X65922230Y-86641830D01*
X60667231Y-80150827D02*
X65922230Y-85405826D01*
X60667231Y-77470000D02*
X60667231Y-80150827D01*
G04 #@! TO.N,row0*
X110605304Y-49019999D02*
X110605304Y-49530000D01*
X110605304Y-50040001D02*
X110605304Y-49019999D01*
X129655304Y-51310001D02*
X129655304Y-50800000D01*
X148705304Y-52829999D02*
X148705304Y-53340000D01*
X72562232Y-51559999D02*
X72562232Y-52070000D01*
X71097232Y-51494999D02*
X72497232Y-51494999D01*
X70547232Y-50944999D02*
X71097232Y-51494999D01*
X72497232Y-51494999D02*
X72562232Y-51559999D01*
X91555304Y-50289999D02*
X91555304Y-51310001D01*
X90940304Y-49674999D02*
X91555304Y-50289999D01*
X81784000Y-50731301D02*
X82840302Y-49674999D01*
X70426699Y-50731301D02*
X81784000Y-50731301D01*
X70213001Y-50944999D02*
X70426699Y-50731301D01*
X63847230Y-50944999D02*
X70213001Y-50944999D01*
X70213001Y-50944999D02*
X70547232Y-50944999D01*
X109990304Y-48404999D02*
X110605304Y-49019999D01*
X101890302Y-48404999D02*
X109990304Y-48404999D01*
X100620302Y-49674999D02*
X101890302Y-48404999D01*
X90533001Y-49674999D02*
X100620302Y-49674999D01*
X82840302Y-49674999D02*
X90533001Y-49674999D01*
X90533001Y-49674999D02*
X90940304Y-49674999D01*
X129655304Y-50289999D02*
X129655304Y-50800000D01*
X127770304Y-48404999D02*
X129655304Y-50289999D01*
X109990304Y-48404999D02*
X127770304Y-48404999D01*
X147418034Y-51542729D02*
X148705304Y-52829999D01*
X130908034Y-51542729D02*
X147418034Y-51542729D01*
X127770304Y-48404999D02*
X130908034Y-51542729D01*
X59465930Y-58488699D02*
X60667231Y-59690000D01*
X60090606Y-55948699D02*
X59465930Y-56573375D01*
X62230000Y-54962555D02*
X61243856Y-55948699D01*
X61243856Y-55948699D02*
X60090606Y-55948699D01*
X62230000Y-52562229D02*
X62230000Y-54962555D01*
X63847230Y-50944999D02*
X62230000Y-52562229D01*
X53297001Y-54985001D02*
X53297001Y-54610000D01*
X55237930Y-56925930D02*
X53297001Y-54985001D01*
X59465930Y-56925930D02*
X55237930Y-56925930D01*
X59465930Y-56573375D02*
X59465930Y-56925930D01*
X59465930Y-56925930D02*
X59465930Y-58488699D01*
G04 #@! TO.N,row1*
X53297001Y-73284999D02*
X53297001Y-73660000D01*
X56932999Y-69649001D02*
X53297001Y-73284999D01*
X56932999Y-65964232D02*
X56932999Y-69649001D01*
X60667231Y-62230000D02*
X56932999Y-65964232D01*
X71947232Y-69994999D02*
X72562232Y-70609999D01*
X72562232Y-70609999D02*
X72562232Y-71120000D01*
X62722229Y-71120000D02*
X63847230Y-69994999D01*
X63847230Y-69994999D02*
X71947232Y-69994999D01*
X58731002Y-71120000D02*
X62722229Y-71120000D01*
X57260003Y-69649001D02*
X58731002Y-71120000D01*
X56932999Y-69649001D02*
X57260003Y-69649001D01*
X91555304Y-69339999D02*
X91555304Y-69850000D01*
X90940304Y-68724999D02*
X91555304Y-69339999D01*
X82840302Y-68724999D02*
X90940304Y-68724999D01*
X80514000Y-71051301D02*
X82840302Y-68724999D01*
X73003534Y-71051301D02*
X80514000Y-71051301D01*
X71947232Y-69994999D02*
X73003534Y-71051301D01*
X110605304Y-68069999D02*
X110605304Y-68580000D01*
X109990304Y-67454999D02*
X110605304Y-68069999D01*
X92210304Y-67454999D02*
X109990304Y-67454999D01*
X90940304Y-68724999D02*
X92210304Y-67454999D01*
X129655304Y-69339999D02*
X129655304Y-69850000D01*
X109990304Y-67454999D02*
X127770304Y-67454999D01*
X148705304Y-71879999D02*
X148705304Y-72390000D01*
X145727652Y-68902347D02*
X148705304Y-71879999D01*
X129217653Y-68902347D02*
X145727652Y-68902347D01*
X127770304Y-67454999D02*
X129217653Y-68902347D01*
X129217653Y-68902347D02*
X129655304Y-69339999D01*
G04 #@! TO.N,row2*
X72562232Y-89659999D02*
X72562232Y-90170000D01*
X58383001Y-87666999D02*
X70569232Y-87666999D01*
X91555304Y-88389999D02*
X91555304Y-88900000D01*
X73515001Y-87774999D02*
X90940304Y-87774999D01*
X70569232Y-87666999D02*
X72096117Y-89193883D01*
X72096117Y-89193883D02*
X73515001Y-87774999D01*
X72096117Y-89193883D02*
X72562232Y-89659999D01*
X109990304Y-86504999D02*
X110605304Y-87119999D01*
X91117653Y-87952347D02*
X92565001Y-86504999D01*
X110605304Y-87119999D02*
X110605304Y-87630000D01*
X90940304Y-87774999D02*
X91117653Y-87952347D01*
X92565001Y-86504999D02*
X109990304Y-86504999D01*
X91117653Y-87952347D02*
X91555304Y-88389999D01*
X129655304Y-88389999D02*
X129655304Y-88900000D01*
X109990304Y-86504999D02*
X127770304Y-86504999D01*
X148705304Y-88644495D02*
X148705304Y-91440000D01*
X148013156Y-87952347D02*
X148705304Y-88644495D01*
X129217653Y-87952347D02*
X148013156Y-87952347D01*
X127770304Y-86504999D02*
X129217653Y-87952347D01*
X129217653Y-87952347D02*
X129655304Y-88389999D01*
G04 #@! TO.N,BAT0*
X75602220Y-49224989D02*
X75907231Y-49530000D01*
X70358000Y-49530000D02*
X75907231Y-49530000D01*
G04 #@! TO.N,BAT_SW*
X64625819Y-49530000D02*
X67818000Y-49530000D01*
X60228004Y-50731301D02*
X63424518Y-50731301D01*
X63424518Y-50731301D02*
X64625819Y-49530000D01*
X59940304Y-51019001D02*
X60228004Y-50731301D01*
X52903001Y-51019001D02*
X59940304Y-51019001D01*
X51828000Y-49944000D02*
X52903001Y-51019001D01*
G04 #@! TO.N,BAT_GND*
X50705999Y-47408999D02*
X54450001Y-47408999D01*
X50302999Y-47811999D02*
X50705999Y-47408999D01*
X50302999Y-49918999D02*
X50302999Y-47811999D01*
X54450001Y-47408999D02*
X55118000Y-48076998D01*
X50328000Y-49944000D02*
X50302999Y-49918999D01*
X57422999Y-49003997D02*
X57422999Y-49765001D01*
X56496000Y-48076998D02*
X57422999Y-49003997D01*
X55118000Y-48076998D02*
X56496000Y-48076998D01*
G04 #@! TO.N,RESET*
X83019232Y-47498000D02*
X81133616Y-49383616D01*
X83488000Y-47498000D02*
X83019232Y-47498000D01*
G04 #@! TO.N,RESET_GND*
X80088000Y-47498000D02*
X80088000Y-48690000D01*
X80088000Y-48690000D02*
X79248000Y-49530000D01*
X79248000Y-49530000D02*
X79248000Y-49530000D01*
G04 #@! TD*
M02*
