G04 #@! TF.GenerationSoftware,KiCad,Pcbnew,(5.1.8-0-10_14)*
G04 #@! TF.CreationDate,2021-01-07T13:30:25-06:00*
G04 #@! TF.ProjectId,halfboard,68616c66-626f-4617-9264-2e6b69636164,rev?*
G04 #@! TF.SameCoordinates,Original*
G04 #@! TF.FileFunction,Profile,NP*
%FSLAX46Y46*%
G04 Gerber Fmt 4.6, Leading zero omitted, Abs format (unit mm)*
G04 Created by KiCad (PCBNEW (5.1.8-0-10_14)) date 2021-01-07 13:30:25*
%MOMM*%
%LPD*%
G01*
G04 APERTURE LIST*
G04 #@! TA.AperFunction,Profile*
%ADD10C,0.050000*%
G04 #@! TD*
G04 APERTURE END LIST*
D10*
X181610000Y-80010000D02*
X186055000Y-80010000D01*
X196215000Y-80010000D02*
G75*
G02*
X186055000Y-80010000I-5080000J2540000D01*
G01*
X220490000Y-47752000D02*
G75*
G03*
X220490000Y-47752000I-1000000J0D01*
G01*
X200659999Y-47755161D02*
G75*
G02*
X202692043Y-45480110I2286043J3161D01*
G01*
X275830020Y-45480110D02*
X202692043Y-45480110D01*
X179322206Y-45480122D02*
G75*
G02*
X181610000Y-47752000I15861J-2271878D01*
G01*
X200660000Y-80010000D02*
X200660000Y-47755161D01*
X196215000Y-80010000D02*
X200660000Y-80010000D01*
X181610000Y-47752000D02*
X181610000Y-80010000D01*
X276590000Y-90932000D02*
G75*
G03*
X276590000Y-90932000I-1000000J0D01*
G01*
X163007795Y-133333910D02*
X275832054Y-133358666D01*
X278117967Y-131086777D02*
X278115933Y-47751999D01*
X179322206Y-45480122D02*
X162766068Y-45466002D01*
X160720000Y-47752001D02*
X160720000Y-131062033D01*
X160720000Y-47752001D02*
G75*
G02*
X162766068Y-45466002I2300067J0D01*
G01*
X275830020Y-45480110D02*
G75*
G02*
X278115933Y-47751999I13980J-2271890D01*
G01*
X275832054Y-133358666D02*
G75*
G03*
X278117967Y-131086777I13980J2271890D01*
G01*
X163007795Y-133333910D02*
G75*
G02*
X160720000Y-131062033I-15862J2271878D01*
G01*
X276844000Y-47752000D02*
G75*
G03*
X276844000Y-47752000I-1000000J0D01*
G01*
X163991933Y-47752001D02*
G75*
G03*
X163991933Y-47752001I-1000000J0D01*
G01*
X164068000Y-92456000D02*
G75*
G03*
X164068000Y-92456000I-1000000J0D01*
G01*
X220491426Y-131062032D02*
G75*
G03*
X220491426Y-131062032I-1000000J0D01*
G01*
X276844000Y-131086776D02*
G75*
G03*
X276844000Y-131086776I-1000000J0D01*
G01*
X163991933Y-131062032D02*
G75*
G03*
X163991933Y-131062032I-1000000J0D01*
G01*
X41309933Y-131062032D02*
G75*
G03*
X41309933Y-131062032I-1000000J0D01*
G01*
X154162000Y-131086776D02*
G75*
G03*
X154162000Y-131086776I-1000000J0D01*
G01*
X97809426Y-47752000D02*
G75*
G03*
X97809426Y-47752000I-1000000J0D01*
G01*
X97809426Y-131062032D02*
G75*
G03*
X97809426Y-131062032I-1000000J0D01*
G01*
X41386000Y-92456000D02*
G75*
G03*
X41386000Y-92456000I-1000000J0D01*
G01*
X41309933Y-47752001D02*
G75*
G03*
X41309933Y-47752001I-1000000J0D01*
G01*
X154162000Y-47752000D02*
G75*
G03*
X154162000Y-47752000I-1000000J0D01*
G01*
X40325795Y-133333910D02*
G75*
G02*
X38038000Y-131062033I-15862J2271878D01*
G01*
X153150054Y-133358666D02*
G75*
G03*
X155435967Y-131086777I13980J2271890D01*
G01*
X153148020Y-45480110D02*
G75*
G02*
X155433933Y-47751999I13980J-2271890D01*
G01*
X38038000Y-47752001D02*
G75*
G02*
X40084068Y-45466002I2300067J0D01*
G01*
X38038000Y-47752001D02*
X38038000Y-131062033D01*
X153148020Y-45480110D02*
X40084068Y-45466002D01*
X155435967Y-131086777D02*
X155433933Y-47751999D01*
X40325795Y-133333910D02*
X153150054Y-133358666D01*
X153908000Y-90932000D02*
G75*
G03*
X153908000Y-90932000I-1000000J0D01*
G01*
M02*
