G04 #@! TF.GenerationSoftware,KiCad,Pcbnew,5.1.9*
G04 #@! TF.CreationDate,2021-01-10T11:47:33-06:00*
G04 #@! TF.ProjectId,halfboard,68616c66-626f-4617-9264-2e6b69636164,rev?*
G04 #@! TF.SameCoordinates,Original*
G04 #@! TF.FileFunction,Legend,Top*
G04 #@! TF.FilePolarity,Positive*
%FSLAX46Y46*%
G04 Gerber Fmt 4.6, Leading zero omitted, Abs format (unit mm)*
G04 Created by KiCad (PCBNEW 5.1.9) date 2021-01-10 11:47:33*
%MOMM*%
%LPD*%
G01*
G04 APERTURE LIST*
%ADD10C,0.150000*%
%ADD11C,0.381000*%
%ADD12C,0.120000*%
G04 APERTURE END LIST*
D10*
X136351333Y-51704761D02*
X136351333Y-49704761D01*
X136351333Y-50657142D02*
X137494190Y-50657142D01*
X137494190Y-51704761D02*
X137494190Y-49704761D01*
X139303714Y-51704761D02*
X139303714Y-50657142D01*
X139208476Y-50466666D01*
X139018000Y-50371428D01*
X138637047Y-50371428D01*
X138446571Y-50466666D01*
X139303714Y-51609523D02*
X139113238Y-51704761D01*
X138637047Y-51704761D01*
X138446571Y-51609523D01*
X138351333Y-51419047D01*
X138351333Y-51228571D01*
X138446571Y-51038095D01*
X138637047Y-50942857D01*
X139113238Y-50942857D01*
X139303714Y-50847619D01*
X140541809Y-51704761D02*
X140351333Y-51609523D01*
X140256095Y-51419047D01*
X140256095Y-49704761D01*
X141018000Y-50371428D02*
X141779904Y-50371428D01*
X141303714Y-51704761D02*
X141303714Y-49990476D01*
X141398952Y-49800000D01*
X141589428Y-49704761D01*
X141779904Y-49704761D01*
X144637047Y-50657142D02*
X144922761Y-50752380D01*
X145018000Y-50847619D01*
X145113238Y-51038095D01*
X145113238Y-51323809D01*
X145018000Y-51514285D01*
X144922761Y-51609523D01*
X144732285Y-51704761D01*
X143970380Y-51704761D01*
X143970380Y-49704761D01*
X144637047Y-49704761D01*
X144827523Y-49800000D01*
X144922761Y-49895238D01*
X145018000Y-50085714D01*
X145018000Y-50276190D01*
X144922761Y-50466666D01*
X144827523Y-50561904D01*
X144637047Y-50657142D01*
X143970380Y-50657142D01*
X146256095Y-51704761D02*
X146065619Y-51609523D01*
X145970380Y-51514285D01*
X145875142Y-51323809D01*
X145875142Y-50752380D01*
X145970380Y-50561904D01*
X146065619Y-50466666D01*
X146256095Y-50371428D01*
X146541809Y-50371428D01*
X146732285Y-50466666D01*
X146827523Y-50561904D01*
X146922761Y-50752380D01*
X146922761Y-51323809D01*
X146827523Y-51514285D01*
X146732285Y-51609523D01*
X146541809Y-51704761D01*
X146256095Y-51704761D01*
X148637047Y-51704761D02*
X148637047Y-50657142D01*
X148541809Y-50466666D01*
X148351333Y-50371428D01*
X147970380Y-50371428D01*
X147779904Y-50466666D01*
X148637047Y-51609523D02*
X148446571Y-51704761D01*
X147970380Y-51704761D01*
X147779904Y-51609523D01*
X147684666Y-51419047D01*
X147684666Y-51228571D01*
X147779904Y-51038095D01*
X147970380Y-50942857D01*
X148446571Y-50942857D01*
X148637047Y-50847619D01*
X149589428Y-51704761D02*
X149589428Y-50371428D01*
X149589428Y-50752380D02*
X149684666Y-50561904D01*
X149779904Y-50466666D01*
X149970380Y-50371428D01*
X150160857Y-50371428D01*
X151684666Y-51704761D02*
X151684666Y-49704761D01*
X151684666Y-51609523D02*
X151494190Y-51704761D01*
X151113238Y-51704761D01*
X150922761Y-51609523D01*
X150827523Y-51514285D01*
X150732285Y-51323809D01*
X150732285Y-50752380D01*
X150827523Y-50561904D01*
X150922761Y-50466666D01*
X151113238Y-50371428D01*
X151494190Y-50371428D01*
X151684666Y-50466666D01*
D11*
G04 #@! TO.C,U1*
X61937231Y-48260000D02*
X61937231Y-50800000D01*
X61937231Y-50800000D02*
X59397231Y-50800000D01*
D12*
G04 #@! TO.C, *
X71688000Y-48200000D02*
X71688000Y-49530000D01*
X70358000Y-48200000D02*
X71688000Y-48200000D01*
X69088000Y-48200000D02*
X69088000Y-50860000D01*
X69088000Y-50860000D02*
X66488000Y-50860000D01*
X69088000Y-48200000D02*
X66488000Y-48200000D01*
X66488000Y-48200000D02*
X66488000Y-50860000D01*
G04 #@! TO.C,REF\u002A\u002A*
X81288000Y-45398000D02*
X80788000Y-45778000D01*
X80788000Y-45778000D02*
X80788000Y-46098000D01*
X81288000Y-45398000D02*
X82288000Y-45398000D01*
X82288000Y-45398000D02*
X82788000Y-45778000D01*
X82788000Y-45778000D02*
X82788000Y-46098000D01*
X80138000Y-48898000D02*
X83438000Y-48898000D01*
X80138000Y-48598000D02*
X80138000Y-48898000D01*
X83438000Y-48898000D02*
X83438000Y-48598000D01*
X80138000Y-46398000D02*
X80138000Y-46098000D01*
X80138000Y-46098000D02*
X83438000Y-46098000D01*
X83438000Y-46098000D02*
X83438000Y-46398000D01*
X51178000Y-49634000D02*
X50978000Y-49634000D01*
X53978000Y-45494000D02*
X53778000Y-45284000D01*
X52678000Y-45494000D02*
X52878000Y-45284000D01*
X53978000Y-46784000D02*
X53978000Y-45494000D01*
X53778000Y-45284000D02*
X52878000Y-45284000D01*
X52678000Y-45494000D02*
X52678000Y-46784000D01*
X55428000Y-46784000D02*
X49728000Y-46784000D01*
X54178000Y-49634000D02*
X52478000Y-49634000D01*
X56028000Y-48584000D02*
X56028000Y-47794000D01*
X49128000Y-47794000D02*
X49128000Y-48584000D01*
G04 #@! TO.C, *
D10*
G04 #@! TO.C,REF\u002A\u002A*
X80454666Y-44850380D02*
X80121333Y-44374190D01*
X79883238Y-44850380D02*
X79883238Y-43850380D01*
X80264190Y-43850380D01*
X80359428Y-43898000D01*
X80407047Y-43945619D01*
X80454666Y-44040857D01*
X80454666Y-44183714D01*
X80407047Y-44278952D01*
X80359428Y-44326571D01*
X80264190Y-44374190D01*
X79883238Y-44374190D01*
X80883238Y-44326571D02*
X81216571Y-44326571D01*
X81359428Y-44850380D02*
X80883238Y-44850380D01*
X80883238Y-43850380D01*
X81359428Y-43850380D01*
X82121333Y-44326571D02*
X81788000Y-44326571D01*
X81788000Y-44850380D02*
X81788000Y-43850380D01*
X82264190Y-43850380D01*
X82788000Y-43850380D02*
X82788000Y-44088476D01*
X82549904Y-43993238D02*
X82788000Y-44088476D01*
X83026095Y-43993238D01*
X82645142Y-44278952D02*
X82788000Y-44088476D01*
X82930857Y-44278952D01*
X83549904Y-43850380D02*
X83549904Y-44088476D01*
X83311809Y-43993238D02*
X83549904Y-44088476D01*
X83788000Y-43993238D01*
X83407047Y-44278952D02*
X83549904Y-44088476D01*
X83692761Y-44278952D01*
X51244666Y-52166380D02*
X50911333Y-51690190D01*
X50673238Y-52166380D02*
X50673238Y-51166380D01*
X51054190Y-51166380D01*
X51149428Y-51214000D01*
X51197047Y-51261619D01*
X51244666Y-51356857D01*
X51244666Y-51499714D01*
X51197047Y-51594952D01*
X51149428Y-51642571D01*
X51054190Y-51690190D01*
X50673238Y-51690190D01*
X51673238Y-51642571D02*
X52006571Y-51642571D01*
X52149428Y-52166380D02*
X51673238Y-52166380D01*
X51673238Y-51166380D01*
X52149428Y-51166380D01*
X52911333Y-51642571D02*
X52578000Y-51642571D01*
X52578000Y-52166380D02*
X52578000Y-51166380D01*
X53054190Y-51166380D01*
X53578000Y-51166380D02*
X53578000Y-51404476D01*
X53339904Y-51309238D02*
X53578000Y-51404476D01*
X53816095Y-51309238D01*
X53435142Y-51594952D02*
X53578000Y-51404476D01*
X53720857Y-51594952D01*
X54339904Y-51166380D02*
X54339904Y-51404476D01*
X54101809Y-51309238D02*
X54339904Y-51404476D01*
X54578000Y-51309238D01*
X54197047Y-51594952D02*
X54339904Y-51404476D01*
X54482761Y-51594952D01*
G04 #@! TD*
M02*
