G04 #@! TF.GenerationSoftware,KiCad,Pcbnew,(5.1.8-0-10_14)*
G04 #@! TF.CreationDate,2021-01-07T13:30:25-06:00*
G04 #@! TF.ProjectId,halfboard,68616c66-626f-4617-9264-2e6b69636164,rev?*
G04 #@! TF.SameCoordinates,Original*
G04 #@! TF.FileFunction,Other,Comment*
%FSLAX46Y46*%
G04 Gerber Fmt 4.6, Leading zero omitted, Abs format (unit mm)*
G04 Created by KiCad (PCBNEW (5.1.8-0-10_14)) date 2021-01-07 13:30:25*
%MOMM*%
%LPD*%
G01*
G04 APERTURE LIST*
%ADD10C,0.152400*%
G04 APERTURE END LIST*
D10*
G04 #@! TO.C, *
X151330303Y-69159730D02*
X137530303Y-69159730D01*
X137530303Y-69159730D02*
X137530303Y-55359730D01*
X137530303Y-55359730D02*
X151330303Y-55359730D01*
X151330303Y-55359730D02*
X151330303Y-69159730D01*
X151330303Y-88209730D02*
X137530303Y-88209730D01*
X137530303Y-88209730D02*
X137530303Y-74409730D01*
X137530303Y-74409730D02*
X151330303Y-74409730D01*
X151330303Y-74409730D02*
X151330303Y-88209730D01*
X151330303Y-107259730D02*
X137530303Y-107259730D01*
X137530303Y-107259730D02*
X137530303Y-93459730D01*
X137530303Y-93459730D02*
X151330303Y-93459730D01*
X151330303Y-93459730D02*
X151330303Y-107259730D01*
X151330303Y-127833730D02*
X137530303Y-127833730D01*
X137530303Y-127833730D02*
X137530303Y-114033730D01*
X137530303Y-114033730D02*
X151330303Y-114033730D01*
X151330303Y-114033730D02*
X151330303Y-127833730D01*
X132280303Y-127833730D02*
X118480303Y-127833730D01*
X118480303Y-127833730D02*
X118480303Y-114033730D01*
X118480303Y-114033730D02*
X132280303Y-114033730D01*
X132280303Y-114033730D02*
X132280303Y-127833730D01*
X113230303Y-127833730D02*
X99430303Y-127833730D01*
X99430303Y-127833730D02*
X99430303Y-114033730D01*
X99430303Y-114033730D02*
X113230303Y-114033730D01*
X113230303Y-114033730D02*
X113230303Y-127833730D01*
X94180303Y-127833730D02*
X80380303Y-127833730D01*
X80380303Y-127833730D02*
X80380303Y-114033730D01*
X80380303Y-114033730D02*
X94180303Y-114033730D01*
X94180303Y-114033730D02*
X94180303Y-127833730D01*
X132280303Y-104719730D02*
X118480303Y-104719730D01*
X118480303Y-104719730D02*
X118480303Y-90919730D01*
X118480303Y-90919730D02*
X132280303Y-90919730D01*
X132280303Y-90919730D02*
X132280303Y-104719730D01*
X132280303Y-85669730D02*
X118480303Y-85669730D01*
X118480303Y-85669730D02*
X118480303Y-71869730D01*
X118480303Y-71869730D02*
X132280303Y-71869730D01*
X132280303Y-71869730D02*
X132280303Y-85669730D01*
X132280303Y-66619730D02*
X118480303Y-66619730D01*
X118480303Y-66619730D02*
X118480303Y-52819730D01*
X118480303Y-52819730D02*
X132280303Y-52819730D01*
X132280303Y-52819730D02*
X132280303Y-66619730D01*
X113230303Y-65349730D02*
X99430303Y-65349730D01*
X99430303Y-65349730D02*
X99430303Y-51549730D01*
X99430303Y-51549730D02*
X113230303Y-51549730D01*
X113230303Y-51549730D02*
X113230303Y-65349730D01*
X113230303Y-84399730D02*
X99430303Y-84399730D01*
X99430303Y-84399730D02*
X99430303Y-70599730D01*
X99430303Y-70599730D02*
X113230303Y-70599730D01*
X113230303Y-70599730D02*
X113230303Y-84399730D01*
X113230303Y-103449730D02*
X99430303Y-103449730D01*
X99430303Y-103449730D02*
X99430303Y-89649730D01*
X99430303Y-89649730D02*
X113230303Y-89649730D01*
X113230303Y-89649730D02*
X113230303Y-103449730D01*
X94180303Y-104973730D02*
X80380303Y-104973730D01*
X80380303Y-104973730D02*
X80380303Y-91173730D01*
X80380303Y-91173730D02*
X94180303Y-91173730D01*
X94180303Y-91173730D02*
X94180303Y-104973730D01*
X94180303Y-85923730D02*
X80380303Y-85923730D01*
X80380303Y-85923730D02*
X80380303Y-72123730D01*
X80380303Y-72123730D02*
X94180303Y-72123730D01*
X94180303Y-72123730D02*
X94180303Y-85923730D01*
X94180303Y-66619730D02*
X80380303Y-66619730D01*
X80380303Y-66619730D02*
X80380303Y-52819730D01*
X80380303Y-52819730D02*
X94180303Y-52819730D01*
X94180303Y-52819730D02*
X94180303Y-66619730D01*
X75187231Y-68143730D02*
X61387231Y-68143730D01*
X61387231Y-68143730D02*
X61387231Y-54343730D01*
X61387231Y-54343730D02*
X75187231Y-54343730D01*
X75187231Y-54343730D02*
X75187231Y-68143730D01*
X75187231Y-87191829D02*
X61387231Y-87191829D01*
X61387231Y-87191829D02*
X61387231Y-73391829D01*
X61387231Y-73391829D02*
X75187231Y-73391829D01*
X75187231Y-73391829D02*
X75187231Y-87191829D01*
X75187231Y-106200230D02*
X61387231Y-106200230D01*
X61387231Y-106200230D02*
X61387231Y-92400230D01*
X61387231Y-92400230D02*
X75187231Y-92400230D01*
X75187231Y-92400230D02*
X75187231Y-106200230D01*
X75187231Y-127833730D02*
X61387231Y-127833730D01*
X61387231Y-127833730D02*
X61387231Y-114033730D01*
X61387231Y-114033730D02*
X75187231Y-114033730D01*
X75187231Y-114033730D02*
X75187231Y-127833730D01*
X55922000Y-127804000D02*
X42122000Y-127804000D01*
X42122000Y-127804000D02*
X42122000Y-114004000D01*
X42122000Y-114004000D02*
X55922000Y-114004000D01*
X55922000Y-114004000D02*
X55922000Y-127804000D01*
X55922000Y-108754000D02*
X42122000Y-108754000D01*
X42122000Y-108754000D02*
X42122000Y-94954000D01*
X42122000Y-94954000D02*
X55922000Y-94954000D01*
X55922000Y-94954000D02*
X55922000Y-108754000D01*
X55668000Y-89704000D02*
X41868000Y-89704000D01*
X41868000Y-89704000D02*
X41868000Y-75904000D01*
X41868000Y-75904000D02*
X55668000Y-75904000D01*
X55668000Y-75904000D02*
X55668000Y-89704000D01*
X55922000Y-70654000D02*
X42122000Y-70654000D01*
X42122000Y-70654000D02*
X42122000Y-56854000D01*
X42122000Y-56854000D02*
X55922000Y-56854000D01*
X55922000Y-56854000D02*
X55922000Y-70654000D01*
G04 #@! TD*
M02*
