G04 #@! TF.GenerationSoftware,KiCad,Pcbnew,5.1.9*
G04 #@! TF.CreationDate,2021-01-09T23:33:15-06:00*
G04 #@! TF.ProjectId,halfboard,68616c66-626f-4617-9264-2e6b69636164,rev?*
G04 #@! TF.SameCoordinates,Original*
G04 #@! TF.FileFunction,Other,Fab,Bot*
%FSLAX46Y46*%
G04 Gerber Fmt 4.6, Leading zero omitted, Abs format (unit mm)*
G04 Created by KiCad (PCBNEW 5.1.9) date 2021-01-09 23:33:15*
%MOMM*%
%LPD*%
G01*
G04 APERTURE LIST*
%ADD10C,0.100000*%
%ADD11C,0.150000*%
G04 APERTURE END LIST*
D10*
G04 #@! TO.C, *
X51178000Y-46864000D02*
X51178000Y-45564000D01*
X51178000Y-45564000D02*
X51378000Y-45364000D01*
X51378000Y-45364000D02*
X52228000Y-45364000D01*
X52228000Y-45364000D02*
X52428000Y-45564000D01*
X52428000Y-45564000D02*
X52478000Y-45614000D01*
X52478000Y-45614000D02*
X52478000Y-46914000D01*
X49228000Y-49514000D02*
X49228000Y-46914000D01*
X49228000Y-46914000D02*
X55928000Y-46914000D01*
X55928000Y-46914000D02*
X55928000Y-49514000D01*
X55928000Y-49514000D02*
X49228000Y-49514000D01*
G04 #@! TO.C,REF\u002A\u002A*
X82638000Y-46248000D02*
X82638000Y-45848000D01*
X82638000Y-45848000D02*
X82238000Y-45548000D01*
X82238000Y-45548000D02*
X81338000Y-45548000D01*
X81338000Y-45548000D02*
X80938000Y-45848000D01*
X80938000Y-45848000D02*
X80938000Y-46248000D01*
X83288000Y-46248000D02*
X80288000Y-46248000D01*
X80288000Y-46248000D02*
X80288000Y-48748000D01*
X80288000Y-48748000D02*
X83288000Y-48748000D01*
X83288000Y-48748000D02*
X83288000Y-46248000D01*
G04 #@! TD*
G04 #@! TO.C,REF\u002A\u002A*
D11*
G04 #@! TO.C, *
X58578000Y-44668761D02*
X58435142Y-44716380D01*
X58197047Y-44716380D01*
X58101809Y-44668761D01*
X58054190Y-44621142D01*
X58006571Y-44525904D01*
X58006571Y-44430666D01*
X58054190Y-44335428D01*
X58101809Y-44287809D01*
X58197047Y-44240190D01*
X58387523Y-44192571D01*
X58482761Y-44144952D01*
X58530380Y-44097333D01*
X58578000Y-44002095D01*
X58578000Y-43906857D01*
X58530380Y-43811619D01*
X58482761Y-43764000D01*
X58387523Y-43716380D01*
X58149428Y-43716380D01*
X58006571Y-43764000D01*
X57673238Y-43716380D02*
X57435142Y-44716380D01*
X57244666Y-44002095D01*
X57054190Y-44716380D01*
X56816095Y-43716380D01*
X56673238Y-44811619D02*
X55911333Y-44811619D01*
X55720857Y-44668761D02*
X55578000Y-44716380D01*
X55339904Y-44716380D01*
X55244666Y-44668761D01*
X55197047Y-44621142D01*
X55149428Y-44525904D01*
X55149428Y-44430666D01*
X55197047Y-44335428D01*
X55244666Y-44287809D01*
X55339904Y-44240190D01*
X55530380Y-44192571D01*
X55625619Y-44144952D01*
X55673238Y-44097333D01*
X55720857Y-44002095D01*
X55720857Y-43906857D01*
X55673238Y-43811619D01*
X55625619Y-43764000D01*
X55530380Y-43716380D01*
X55292285Y-43716380D01*
X55149428Y-43764000D01*
X54720857Y-44716380D02*
X54720857Y-43716380D01*
X54339904Y-43716380D01*
X54244666Y-43764000D01*
X54197047Y-43811619D01*
X54149428Y-43906857D01*
X54149428Y-44049714D01*
X54197047Y-44144952D01*
X54244666Y-44192571D01*
X54339904Y-44240190D01*
X54720857Y-44240190D01*
X53720857Y-44716380D02*
X53720857Y-43716380D01*
X53482761Y-43716380D01*
X53339904Y-43764000D01*
X53244666Y-43859238D01*
X53197047Y-43954476D01*
X53149428Y-44144952D01*
X53149428Y-44287809D01*
X53197047Y-44478285D01*
X53244666Y-44573523D01*
X53339904Y-44668761D01*
X53482761Y-44716380D01*
X53720857Y-44716380D01*
X52863714Y-43716380D02*
X52292285Y-43716380D01*
X52578000Y-44716380D02*
X52578000Y-43716380D01*
X52197047Y-44811619D02*
X51435142Y-44811619D01*
X51197047Y-44716380D02*
X51197047Y-43716380D01*
X50816095Y-43716380D01*
X50720857Y-43764000D01*
X50673238Y-43811619D01*
X50625619Y-43906857D01*
X50625619Y-44049714D01*
X50673238Y-44144952D01*
X50720857Y-44192571D01*
X50816095Y-44240190D01*
X51197047Y-44240190D01*
X49625619Y-44621142D02*
X49673238Y-44668761D01*
X49816095Y-44716380D01*
X49911333Y-44716380D01*
X50054190Y-44668761D01*
X50149428Y-44573523D01*
X50197047Y-44478285D01*
X50244666Y-44287809D01*
X50244666Y-44144952D01*
X50197047Y-43954476D01*
X50149428Y-43859238D01*
X50054190Y-43764000D01*
X49911333Y-43716380D01*
X49816095Y-43716380D01*
X49673238Y-43764000D01*
X49625619Y-43811619D01*
X49197047Y-44716380D02*
X49197047Y-43716380D01*
X48863714Y-44430666D01*
X48530380Y-43716380D01*
X48530380Y-44716380D01*
X47530380Y-44716380D02*
X48101809Y-44716380D01*
X47816095Y-44716380D02*
X47816095Y-43716380D01*
X47911333Y-43859238D01*
X48006571Y-43954476D01*
X48101809Y-44002095D01*
X47149428Y-43811619D02*
X47101809Y-43764000D01*
X47006571Y-43716380D01*
X46768476Y-43716380D01*
X46673238Y-43764000D01*
X46625619Y-43811619D01*
X46578000Y-43906857D01*
X46578000Y-44002095D01*
X46625619Y-44144952D01*
X47197047Y-44716380D01*
X46578000Y-44716380D01*
G04 #@! TO.C,REF\u002A\u002A*
X90883238Y-50402761D02*
X90740380Y-50450380D01*
X90502285Y-50450380D01*
X90407047Y-50402761D01*
X90359428Y-50355142D01*
X90311809Y-50259904D01*
X90311809Y-50164666D01*
X90359428Y-50069428D01*
X90407047Y-50021809D01*
X90502285Y-49974190D01*
X90692761Y-49926571D01*
X90788000Y-49878952D01*
X90835619Y-49831333D01*
X90883238Y-49736095D01*
X90883238Y-49640857D01*
X90835619Y-49545619D01*
X90788000Y-49498000D01*
X90692761Y-49450380D01*
X90454666Y-49450380D01*
X90311809Y-49498000D01*
X89978476Y-49450380D02*
X89740380Y-50450380D01*
X89549904Y-49736095D01*
X89359428Y-50450380D01*
X89121333Y-49450380D01*
X88978476Y-50545619D02*
X88216571Y-50545619D01*
X88026095Y-50402761D02*
X87883238Y-50450380D01*
X87645142Y-50450380D01*
X87549904Y-50402761D01*
X87502285Y-50355142D01*
X87454666Y-50259904D01*
X87454666Y-50164666D01*
X87502285Y-50069428D01*
X87549904Y-50021809D01*
X87645142Y-49974190D01*
X87835619Y-49926571D01*
X87930857Y-49878952D01*
X87978476Y-49831333D01*
X88026095Y-49736095D01*
X88026095Y-49640857D01*
X87978476Y-49545619D01*
X87930857Y-49498000D01*
X87835619Y-49450380D01*
X87597523Y-49450380D01*
X87454666Y-49498000D01*
X87026095Y-50450380D02*
X87026095Y-49450380D01*
X86645142Y-49450380D01*
X86549904Y-49498000D01*
X86502285Y-49545619D01*
X86454666Y-49640857D01*
X86454666Y-49783714D01*
X86502285Y-49878952D01*
X86549904Y-49926571D01*
X86645142Y-49974190D01*
X87026095Y-49974190D01*
X86073714Y-50402761D02*
X85930857Y-50450380D01*
X85692761Y-50450380D01*
X85597523Y-50402761D01*
X85549904Y-50355142D01*
X85502285Y-50259904D01*
X85502285Y-50164666D01*
X85549904Y-50069428D01*
X85597523Y-50021809D01*
X85692761Y-49974190D01*
X85883238Y-49926571D01*
X85978476Y-49878952D01*
X86026095Y-49831333D01*
X86073714Y-49736095D01*
X86073714Y-49640857D01*
X86026095Y-49545619D01*
X85978476Y-49498000D01*
X85883238Y-49450380D01*
X85645142Y-49450380D01*
X85502285Y-49498000D01*
X85216571Y-49450380D02*
X84645142Y-49450380D01*
X84930857Y-50450380D02*
X84930857Y-49450380D01*
X84549904Y-50545619D02*
X83788000Y-50545619D01*
X83216571Y-49926571D02*
X83073714Y-49974190D01*
X83026095Y-50021809D01*
X82978476Y-50117047D01*
X82978476Y-50259904D01*
X83026095Y-50355142D01*
X83073714Y-50402761D01*
X83168952Y-50450380D01*
X83549904Y-50450380D01*
X83549904Y-49450380D01*
X83216571Y-49450380D01*
X83121333Y-49498000D01*
X83073714Y-49545619D01*
X83026095Y-49640857D01*
X83026095Y-49736095D01*
X83073714Y-49831333D01*
X83121333Y-49878952D01*
X83216571Y-49926571D01*
X83549904Y-49926571D01*
X82645142Y-49450380D02*
X82026095Y-49450380D01*
X82359428Y-49831333D01*
X82216571Y-49831333D01*
X82121333Y-49878952D01*
X82073714Y-49926571D01*
X82026095Y-50021809D01*
X82026095Y-50259904D01*
X82073714Y-50355142D01*
X82121333Y-50402761D01*
X82216571Y-50450380D01*
X82502285Y-50450380D01*
X82597523Y-50402761D01*
X82645142Y-50355142D01*
X81597523Y-49450380D02*
X81597523Y-50259904D01*
X81549904Y-50355142D01*
X81502285Y-50402761D01*
X81407047Y-50450380D01*
X81216571Y-50450380D01*
X81121333Y-50402761D01*
X81073714Y-50355142D01*
X81026095Y-50259904D01*
X81026095Y-49450380D01*
X80549904Y-50069428D02*
X79788000Y-50069428D01*
X79407047Y-49450380D02*
X78788000Y-49450380D01*
X79121333Y-49831333D01*
X78978476Y-49831333D01*
X78883238Y-49878952D01*
X78835619Y-49926571D01*
X78788000Y-50021809D01*
X78788000Y-50259904D01*
X78835619Y-50355142D01*
X78883238Y-50402761D01*
X78978476Y-50450380D01*
X79264190Y-50450380D01*
X79359428Y-50402761D01*
X79407047Y-50355142D01*
X78168952Y-49450380D02*
X78073714Y-49450380D01*
X77978476Y-49498000D01*
X77930857Y-49545619D01*
X77883238Y-49640857D01*
X77835619Y-49831333D01*
X77835619Y-50069428D01*
X77883238Y-50259904D01*
X77930857Y-50355142D01*
X77978476Y-50402761D01*
X78073714Y-50450380D01*
X78168952Y-50450380D01*
X78264190Y-50402761D01*
X78311809Y-50355142D01*
X78359428Y-50259904D01*
X78407047Y-50069428D01*
X78407047Y-49831333D01*
X78359428Y-49640857D01*
X78311809Y-49545619D01*
X78264190Y-49498000D01*
X78168952Y-49450380D01*
X77216571Y-49450380D02*
X77121333Y-49450380D01*
X77026095Y-49498000D01*
X76978476Y-49545619D01*
X76930857Y-49640857D01*
X76883238Y-49831333D01*
X76883238Y-50069428D01*
X76930857Y-50259904D01*
X76978476Y-50355142D01*
X77026095Y-50402761D01*
X77121333Y-50450380D01*
X77216571Y-50450380D01*
X77311809Y-50402761D01*
X77359428Y-50355142D01*
X77407047Y-50259904D01*
X77454666Y-50069428D01*
X77454666Y-49831333D01*
X77407047Y-49640857D01*
X77359428Y-49545619D01*
X77311809Y-49498000D01*
X77216571Y-49450380D01*
X76264190Y-49450380D02*
X76168952Y-49450380D01*
X76073714Y-49498000D01*
X76026095Y-49545619D01*
X75978476Y-49640857D01*
X75930857Y-49831333D01*
X75930857Y-50069428D01*
X75978476Y-50259904D01*
X76026095Y-50355142D01*
X76073714Y-50402761D01*
X76168952Y-50450380D01*
X76264190Y-50450380D01*
X76359428Y-50402761D01*
X76407047Y-50355142D01*
X76454666Y-50259904D01*
X76502285Y-50069428D01*
X76502285Y-49831333D01*
X76454666Y-49640857D01*
X76407047Y-49545619D01*
X76359428Y-49498000D01*
X76264190Y-49450380D01*
X75502285Y-50450380D02*
X75502285Y-49450380D01*
X75121333Y-49450380D01*
X75026095Y-49498000D01*
X74978476Y-49545619D01*
X74930857Y-49640857D01*
X74930857Y-49783714D01*
X74978476Y-49878952D01*
X75026095Y-49926571D01*
X75121333Y-49974190D01*
X75502285Y-49974190D01*
X74502285Y-50069428D02*
X73740380Y-50069428D01*
X72930857Y-49926571D02*
X72788000Y-49974190D01*
X72740380Y-50021809D01*
X72692761Y-50117047D01*
X72692761Y-50259904D01*
X72740380Y-50355142D01*
X72788000Y-50402761D01*
X72883238Y-50450380D01*
X73264190Y-50450380D01*
X73264190Y-49450380D01*
X72930857Y-49450380D01*
X72835619Y-49498000D01*
X72788000Y-49545619D01*
X72740380Y-49640857D01*
X72740380Y-49736095D01*
X72788000Y-49831333D01*
X72835619Y-49878952D01*
X72930857Y-49926571D01*
X73264190Y-49926571D01*
X83121333Y-44850380D02*
X83454666Y-44374190D01*
X83692761Y-44850380D02*
X83692761Y-43850380D01*
X83311809Y-43850380D01*
X83216571Y-43898000D01*
X83168952Y-43945619D01*
X83121333Y-44040857D01*
X83121333Y-44183714D01*
X83168952Y-44278952D01*
X83216571Y-44326571D01*
X83311809Y-44374190D01*
X83692761Y-44374190D01*
X82692761Y-44326571D02*
X82359428Y-44326571D01*
X82216571Y-44850380D02*
X82692761Y-44850380D01*
X82692761Y-43850380D01*
X82216571Y-43850380D01*
X81454666Y-44326571D02*
X81788000Y-44326571D01*
X81788000Y-44850380D02*
X81788000Y-43850380D01*
X81311809Y-43850380D01*
X80788000Y-43850380D02*
X80788000Y-44088476D01*
X81026095Y-43993238D02*
X80788000Y-44088476D01*
X80549904Y-43993238D01*
X80930857Y-44278952D02*
X80788000Y-44088476D01*
X80645142Y-44278952D01*
X80026095Y-43850380D02*
X80026095Y-44088476D01*
X80264190Y-43993238D02*
X80026095Y-44088476D01*
X79788000Y-43993238D01*
X80168952Y-44278952D02*
X80026095Y-44088476D01*
X79883238Y-44278952D01*
G04 #@! TD*
M02*
