M48
; DRILL file {KiCad 5.1.9} date Sat Jan  9 23:33:20 2021
; FORMAT={-:-/ absolute / inch / decimal}
; #@! TF.CreationDate,2021-01-09T23:33:20-06:00
; #@! TF.GenerationSoftware,Kicad,Pcbnew,5.1.9
FMAT,2
INCH
T1C0.0157
T2C0.0295
T3C0.0394
T4C0.0430
T5C0.0472
T6C0.0590
T7C0.0591
T8C0.0596
T9C0.0630
T10C0.0315
T11C0.0354
T12C0.0670
T13C0.0748
T14C0.1969
%
G90
G05
T1
X2.2607Y-1.9593
X2.2965Y-4.1965
X2.2985Y-3.4515
X3.12Y-1.95
X3.1942Y-1.9442
X4.2397Y-3.3397
T3
X1.7765Y-2.15
X1.7765Y-2.9
X1.7965Y-3.65
X1.7965Y-4.3894
X2.0835Y-2.15
X2.0835Y-2.9
X2.1035Y-3.65
X2.1035Y-4.3894
X2.5349Y-2.05
X2.5349Y-2.8
X2.5349Y-3.55
X2.5549Y-4.3894
X2.67Y-1.95
X2.77Y-1.95
X2.842Y-2.05
X2.842Y-2.8
X2.842Y-3.55
X2.862Y-4.3894
X3.2827Y-2.0
X3.2827Y-2.75
X3.2827Y-3.5
X3.3027Y-4.3894
X3.5898Y-2.0
X3.5898Y-2.75
X3.5898Y-3.5
X3.6098Y-4.3894
X4.0327Y-1.95
X4.0327Y-2.7
X4.0327Y-3.45
X4.0527Y-4.3894
X4.3398Y-1.95
X4.3398Y-2.7
X4.3398Y-3.45
X4.3598Y-4.3894
X4.7827Y-2.0
X4.7827Y-2.75
X4.7827Y-3.5
X4.8027Y-4.3894
X5.0898Y-2.0
X5.0898Y-2.75
X5.0898Y-3.5
X5.1098Y-4.3894
X5.5327Y-2.1
X5.5327Y-2.85
X5.5327Y-3.6
X5.5527Y-4.3894
X5.8398Y-2.1
X5.8398Y-2.85
X5.8398Y-3.6
X5.8598Y-4.3894
T4
X2.3885Y-1.95
X2.3885Y-2.05
X2.3885Y-2.15
X2.3885Y-2.25
X2.3885Y-2.35
X2.3885Y-2.45
X2.3885Y-2.55
X2.3885Y-2.65
X2.3885Y-2.75
X2.3885Y-2.85
X2.3885Y-2.95
X2.3885Y-3.05
X2.9885Y-1.95
X2.9885Y-2.05
X2.9885Y-2.15
X2.9885Y-2.25
X2.9885Y-2.35
X2.9885Y-2.45
X2.9885Y-2.55
X2.9885Y-2.65
X2.9885Y-2.75
X2.9885Y-2.85
X2.9885Y-2.95
X2.9885Y-3.05
T5
X1.7308Y-2.6754
X1.7308Y-3.4254
X1.7308Y-4.1754
X1.7308Y-4.9254
X1.7394Y-2.3604
X1.7394Y-3.1104
X1.7394Y-3.8604
X1.7394Y-4.6104
X2.1331Y-2.3604
X2.1331Y-3.1104
X2.1331Y-3.8604
X2.1331Y-4.6104
X2.1418Y-2.6754
X2.1418Y-3.4254
X2.1418Y-4.1754
X2.1418Y-4.9254
X2.4806Y-2.5749
X2.4806Y-3.3249
X2.4806Y-4.0748
X2.4806Y-4.9265
X2.4893Y-2.26
X2.4893Y-3.0099
X2.4893Y-3.7599
X2.4893Y-4.6116
X2.883Y-2.26
X2.883Y-3.0099
X2.883Y-3.7599
X2.883Y-4.6116
X2.8916Y-2.5749
X2.8916Y-3.3249
X2.8916Y-4.0748
X2.8916Y-4.9265
X3.2307Y-2.5264
X3.2307Y-3.2765
X3.2307Y-4.0265
X3.2307Y-4.9265
X3.2394Y-2.2114
X3.2394Y-2.9616
X3.2394Y-3.7116
X3.2394Y-4.6116
X3.6331Y-2.2114
X3.6331Y-2.9616
X3.6331Y-3.7116
X3.6331Y-4.6116
X3.6417Y-2.5264
X3.6417Y-3.2765
X3.6417Y-4.0265
X3.6417Y-4.9265
X3.9807Y-2.4665
X3.9807Y-3.2165
X3.9807Y-3.9665
X3.9807Y-4.9265
X3.9894Y-2.1516
X3.9894Y-2.9016
X3.9894Y-3.6516
X3.9894Y-4.6116
X4.3831Y-2.1516
X4.3831Y-2.9016
X4.3831Y-3.6516
X4.3831Y-4.6116
X4.3917Y-2.4665
X4.3917Y-3.2165
X4.3917Y-3.9665
X4.3917Y-4.9265
X4.7307Y-2.5165
X4.7307Y-3.2665
X4.7307Y-4.0165
X4.7307Y-4.9265
X4.7394Y-2.2016
X4.7394Y-2.9516
X4.7394Y-3.7016
X4.7394Y-4.6116
X5.1331Y-2.2016
X5.1331Y-2.9516
X5.1331Y-3.7016
X5.1331Y-4.6116
X5.1417Y-2.5165
X5.1417Y-3.2665
X5.1417Y-4.0165
X5.1417Y-4.9265
X5.4807Y-2.6165
X5.4807Y-3.3665
X5.4807Y-4.1165
X5.4807Y-4.9265
X5.4894Y-2.3016
X5.4894Y-3.0516
X5.4894Y-3.8016
X5.4894Y-4.6116
X5.8831Y-2.3016
X5.8831Y-3.0516
X5.8831Y-3.8016
X5.8831Y-4.6116
X5.8917Y-2.6165
X5.8917Y-3.3665
X5.8917Y-4.1165
X5.8917Y-4.9265
T6
X1.7863Y-2.41
X1.7863Y-3.16
X1.7863Y-3.91
X1.7863Y-4.66
X2.0863Y-2.41
X2.0863Y-3.16
X2.0863Y-3.91
X2.0863Y-4.66
X2.5361Y-2.3096
X2.5361Y-3.0595
X2.5361Y-3.8095
X2.5361Y-4.6612
X2.8361Y-2.3096
X2.8361Y-3.0595
X2.8361Y-3.8095
X2.8361Y-4.6612
X3.2862Y-2.261
X3.2862Y-3.0112
X3.2862Y-3.7612
X3.2862Y-4.6612
X3.5862Y-2.261
X3.5862Y-3.0112
X3.5862Y-3.7612
X3.5862Y-4.6612
X4.0362Y-2.2012
X4.0362Y-2.9512
X4.0362Y-3.7012
X4.0362Y-4.6612
X4.3362Y-2.2012
X4.3362Y-2.9512
X4.3362Y-3.7012
X4.3362Y-4.6612
X4.7862Y-2.2512
X4.7862Y-3.0012
X4.7862Y-3.7512
X4.7862Y-4.6612
X5.0862Y-2.2512
X5.0862Y-3.0012
X5.0862Y-3.7512
X5.0862Y-4.6612
X5.5362Y-2.3512
X5.5362Y-3.1012
X5.5362Y-3.8512
X5.5362Y-4.6612
X5.8362Y-2.3512
X5.8362Y-3.1012
X5.8362Y-3.8512
X5.8362Y-4.6612
T7
X1.9363Y-2.2777
X1.9363Y-3.0277
X1.9363Y-3.7777
X1.9363Y-4.5277
X2.6861Y-2.1773
X2.6861Y-2.9272
X2.6861Y-3.6772
X2.6861Y-4.5289
X3.4362Y-2.1287
X3.4362Y-2.8789
X3.4362Y-3.6289
X3.4362Y-4.5289
X4.1862Y-2.0689
X4.1862Y-2.8189
X4.1862Y-3.5689
X4.1862Y-4.5289
X4.9362Y-2.1189
X4.9362Y-2.8689
X4.9362Y-3.6189
X4.9362Y-4.5289
X5.6862Y-2.2189
X5.6862Y-2.9689
X5.6862Y-3.7189
X5.6862Y-4.5289
T9
X1.7335Y-2.7069
X1.7335Y-3.4569
X1.7335Y-4.2069
X1.7335Y-4.9569
X2.1391Y-2.7069
X2.1391Y-3.4569
X2.1391Y-4.2069
X2.1391Y-4.9569
X2.4834Y-2.6064
X2.4834Y-3.3564
X2.4834Y-4.1063
X2.4834Y-4.958
X2.8889Y-2.6064
X2.8889Y-3.3564
X2.8889Y-4.1063
X2.8889Y-4.958
X3.2335Y-2.5579
X3.2335Y-3.308
X3.2335Y-4.058
X3.2335Y-4.958
X3.639Y-2.5579
X3.639Y-3.308
X3.639Y-4.058
X3.639Y-4.958
X3.9835Y-2.498
X3.9835Y-3.248
X3.9835Y-3.998
X3.9835Y-4.958
X4.389Y-2.498
X4.389Y-3.248
X4.389Y-3.998
X4.389Y-4.958
X4.7335Y-2.548
X4.7335Y-3.298
X4.7335Y-4.048
X4.7335Y-4.958
X5.139Y-2.548
X5.139Y-3.298
X5.139Y-4.048
X5.139Y-4.958
X5.4835Y-2.648
X5.4835Y-3.398
X5.4835Y-4.148
X5.4835Y-4.958
X5.889Y-2.648
X5.889Y-3.398
X5.889Y-4.148
X5.889Y-4.958
T10
X3.22Y-1.87
X3.22Y-1.87
T11
X2.0109Y-1.897
X2.0109Y-1.897
X2.1291Y-1.897
X2.1291Y-1.897
T12
X1.7363Y-2.51
X1.7363Y-3.26
X1.7363Y-4.01
X1.7363Y-4.76
X2.1363Y-2.51
X2.1363Y-3.26
X2.1363Y-4.01
X2.1363Y-4.76
X2.4861Y-2.4096
X2.4861Y-3.1595
X2.4861Y-3.9095
X2.4861Y-4.7612
X2.8861Y-2.4096
X2.8861Y-3.1595
X2.8861Y-3.9095
X2.8861Y-4.7612
X3.2362Y-2.361
X3.2362Y-3.1112
X3.2362Y-3.8612
X3.2362Y-4.7612
X3.6362Y-2.361
X3.6362Y-3.1112
X3.6362Y-3.8612
X3.6362Y-4.7612
X3.9862Y-2.3012
X3.9862Y-3.0512
X3.9862Y-3.8012
X3.9862Y-4.7612
X4.3862Y-2.3012
X4.3862Y-3.0512
X4.3862Y-3.8012
X4.3862Y-4.7612
X4.7362Y-2.3512
X4.7362Y-3.1012
X4.7362Y-3.8512
X4.7362Y-4.7612
X5.1362Y-2.3512
X5.1362Y-3.1012
X5.1362Y-3.8512
X5.1362Y-4.7612
X5.4862Y-2.4512
X5.4862Y-3.2012
X5.4862Y-3.9512
X5.4862Y-4.7612
X5.8862Y-2.4512
X5.8862Y-3.2012
X5.8862Y-3.9512
X5.8862Y-4.7612
T13
X1.7198Y-2.51
X1.7198Y-3.26
X1.7198Y-4.01
X1.7198Y-4.76
X2.1528Y-2.51
X2.1528Y-3.26
X2.1528Y-4.01
X2.1528Y-4.76
X2.4696Y-2.4096
X2.4696Y-3.1595
X2.4696Y-3.9095
X2.4696Y-4.7612
X2.9026Y-2.4096
X2.9026Y-3.1595
X2.9026Y-3.9095
X2.9026Y-4.7612
X3.2197Y-2.361
X3.2197Y-3.1112
X3.2197Y-3.8612
X3.2197Y-4.7612
X3.6528Y-2.361
X3.6528Y-3.1112
X3.6528Y-3.8612
X3.6528Y-4.7612
X3.9697Y-2.3012
X3.9697Y-3.0512
X3.9697Y-3.8012
X3.9697Y-4.7612
X4.4028Y-2.3012
X4.4028Y-3.0512
X4.4028Y-3.8012
X4.4028Y-4.7612
X4.7197Y-2.3512
X4.7197Y-3.1012
X4.7197Y-3.8512
X4.7197Y-4.7612
X5.1528Y-2.3512
X5.1528Y-3.1012
X5.1528Y-3.8512
X5.1528Y-4.7612
X5.4697Y-2.4512
X5.4697Y-3.2012
X5.4697Y-3.9512
X5.4697Y-4.7612
X5.9028Y-2.4512
X5.9028Y-3.2012
X5.9028Y-3.9512
X5.9028Y-4.7612
T14
X1.9363Y-2.51
X1.9363Y-3.26
X1.9363Y-4.01
X1.9363Y-4.76
X2.6861Y-2.4096
X2.6861Y-3.1595
X2.6861Y-3.9095
X2.6861Y-4.7612
X3.4362Y-2.361
X3.4362Y-3.1112
X3.4362Y-3.8612
X3.4362Y-4.7612
X4.1862Y-2.3012
X4.1862Y-3.0512
X4.1862Y-3.8012
X4.1862Y-4.7612
X4.9362Y-2.3512
X4.9362Y-3.1012
X4.9362Y-3.8512
X4.9362Y-4.7612
X5.6862Y-2.4512
X5.6862Y-3.2012
X5.6862Y-3.9512
X5.6862Y-4.7612
T2
G00X1.8879Y-2.6962
M15
G01X1.8879Y-2.7159
M16
G05
G00X1.8879Y-3.4462
M15
G01X1.8879Y-3.4659
M16
G05
G00X1.8879Y-4.1962
M15
G01X1.8879Y-4.2159
M16
G05
G00X1.8879Y-4.9462
M15
G01X1.8879Y-4.9659
M16
G05
G00X1.9863Y-2.6943
M15
G01X1.9863Y-2.7139
M16
G05
G00X1.9863Y-3.4443
M15
G01X1.9863Y-3.4639
M16
G05
G00X1.9863Y-4.1943
M15
G01X1.9863Y-4.2139
M16
G05
G00X1.9863Y-4.9443
M15
G01X1.9863Y-4.9639
M16
G05
G00X2.6377Y-2.5958
M15
G01X2.6377Y-2.6155
M16
G05
G00X2.6377Y-3.3457
M15
G01X2.6377Y-3.3654
M16
G05
G00X2.6377Y-4.0957
M15
G01X2.6377Y-4.1154
M16
G05
G00X2.6377Y-4.9474
M15
G01X2.6377Y-4.9671
M16
G05
G00X2.7361Y-2.5938
M15
G01X2.7361Y-2.6135
M16
G05
G00X2.7361Y-3.3438
M15
G01X2.7361Y-3.3635
M16
G05
G00X2.7361Y-4.0937
M15
G01X2.7361Y-4.1134
M16
G05
G00X2.7361Y-4.9454
M15
G01X2.7361Y-4.9651
M16
G05
G00X3.3878Y-2.5472
M15
G01X3.3878Y-2.5669
M16
G05
G00X3.3878Y-3.2974
M15
G01X3.3878Y-3.3171
M16
G05
G00X3.3878Y-4.0474
M15
G01X3.3878Y-4.0671
M16
G05
G00X3.3878Y-4.9474
M15
G01X3.3878Y-4.9671
M16
G05
G00X3.4862Y-2.5453
M15
G01X3.4862Y-2.565
M16
G05
G00X3.4862Y-3.2954
M15
G01X3.4862Y-3.3151
M16
G05
G00X3.4862Y-4.0454
M15
G01X3.4862Y-4.0651
M16
G05
G00X3.4862Y-4.9454
M15
G01X3.4862Y-4.9651
M16
G05
G00X4.1378Y-2.4874
M15
G01X4.1378Y-2.5071
M16
G05
G00X4.1378Y-3.2374
M15
G01X4.1378Y-3.2571
M16
G05
G00X4.1378Y-3.9874
M15
G01X4.1378Y-4.0071
M16
G05
G00X4.1378Y-4.9474
M15
G01X4.1378Y-4.9671
M16
G05
G00X4.2362Y-2.4854
M15
G01X4.2362Y-2.5051
M16
G05
G00X4.2362Y-3.2354
M15
G01X4.2362Y-3.2551
M16
G05
G00X4.2362Y-3.9854
M15
G01X4.2362Y-4.0051
M16
G05
G00X4.2362Y-4.9454
M15
G01X4.2362Y-4.9651
M16
G05
G00X4.8878Y-2.5374
M15
G01X4.8878Y-2.5571
M16
G05
G00X4.8878Y-3.2874
M15
G01X4.8878Y-3.3071
M16
G05
G00X4.8878Y-4.0374
M15
G01X4.8878Y-4.0571
M16
G05
G00X4.8878Y-4.9474
M15
G01X4.8878Y-4.9671
M16
G05
G00X4.9862Y-2.5354
M15
G01X4.9862Y-2.5551
M16
G05
G00X4.9862Y-3.2854
M15
G01X4.9862Y-3.3051
M16
G05
G00X4.9862Y-4.0354
M15
G01X4.9862Y-4.0551
M16
G05
G00X4.9862Y-4.9454
M15
G01X4.9862Y-4.9651
M16
G05
G00X5.6378Y-2.6374
M15
G01X5.6378Y-2.6571
M16
G05
G00X5.6378Y-3.3874
M15
G01X5.6378Y-3.4071
M16
G05
G00X5.6378Y-4.1374
M15
G01X5.6378Y-4.1571
M16
G05
G00X5.6378Y-4.9474
M15
G01X5.6378Y-4.9671
M16
G05
G00X5.7362Y-2.6354
M15
G01X5.7362Y-2.6551
M16
G05
G00X5.7362Y-3.3854
M15
G01X5.7362Y-3.4051
M16
G05
G00X5.7362Y-4.1354
M15
G01X5.7362Y-4.1551
M16
G05
G00X5.7362Y-4.9454
M15
G01X5.7362Y-4.9651
M16
G05
T8
G00X1.8371Y-2.3124
M15
G01X1.8371Y-2.3532
M16
G05
G00X1.8371Y-3.0624
M15
G01X1.8371Y-3.1032
M16
G05
G00X1.8371Y-3.8124
M15
G01X1.8371Y-3.8532
M16
G05
G00X1.8371Y-4.5624
M15
G01X1.8371Y-4.6032
M16
G05
G00X2.0355Y-2.3124
M15
G01X2.0355Y-2.3532
M16
G05
G00X2.0355Y-3.0624
M15
G01X2.0355Y-3.1032
M16
G05
G00X2.0355Y-3.8124
M15
G01X2.0355Y-3.8532
M16
G05
G00X2.0355Y-4.5624
M15
G01X2.0355Y-4.6032
M16
G05
G00X2.5869Y-2.212
M15
G01X2.5869Y-2.2528
M16
G05
G00X2.5869Y-2.9619
M15
G01X2.5869Y-3.0028
M16
G05
G00X2.5869Y-3.7119
M15
G01X2.5869Y-3.7527
M16
G05
G00X2.5869Y-4.5636
M15
G01X2.5869Y-4.6044
M16
G05
G00X2.7853Y-2.212
M15
G01X2.7853Y-2.2528
M16
G05
G00X2.7853Y-2.9619
M15
G01X2.7853Y-3.0028
M16
G05
G00X2.7853Y-3.7119
M15
G01X2.7853Y-3.7527
M16
G05
G00X2.7853Y-4.5636
M15
G01X2.7853Y-4.6044
M16
G05
G00X3.337Y-2.1634
M15
G01X3.337Y-2.2043
M16
G05
G00X3.337Y-2.9136
M15
G01X3.337Y-2.9544
M16
G05
G00X3.337Y-3.6636
M15
G01X3.337Y-3.7044
M16
G05
G00X3.337Y-4.5636
M15
G01X3.337Y-4.6044
M16
G05
G00X3.5354Y-2.1634
M15
G01X3.5354Y-2.2043
M16
G05
G00X3.5354Y-2.9136
M15
G01X3.5354Y-2.9544
M16
G05
G00X3.5354Y-3.6636
M15
G01X3.5354Y-3.7044
M16
G05
G00X3.5354Y-4.5636
M15
G01X3.5354Y-4.6044
M16
G05
G00X4.087Y-2.1036
M15
G01X4.087Y-2.1444
M16
G05
G00X4.087Y-2.8536
M15
G01X4.087Y-2.8944
M16
G05
G00X4.087Y-3.6036
M15
G01X4.087Y-3.6444
M16
G05
G00X4.087Y-4.5636
M15
G01X4.087Y-4.6044
M16
G05
G00X4.2854Y-2.1036
M15
G01X4.2854Y-2.1444
M16
G05
G00X4.2854Y-2.8536
M15
G01X4.2854Y-2.8944
M16
G05
G00X4.2854Y-3.6036
M15
G01X4.2854Y-3.6444
M16
G05
G00X4.2854Y-4.5636
M15
G01X4.2854Y-4.6044
M16
G05
G00X4.837Y-2.1536
M15
G01X4.837Y-2.1944
M16
G05
G00X4.837Y-2.9036
M15
G01X4.837Y-2.9444
M16
G05
G00X4.837Y-3.6536
M15
G01X4.837Y-3.6944
M16
G05
G00X4.837Y-4.5636
M15
G01X4.837Y-4.6044
M16
G05
G00X5.0354Y-2.1536
M15
G01X5.0354Y-2.1944
M16
G05
G00X5.0354Y-2.9036
M15
G01X5.0354Y-2.9444
M16
G05
G00X5.0354Y-3.6536
M15
G01X5.0354Y-3.6944
M16
G05
G00X5.0354Y-4.5636
M15
G01X5.0354Y-4.6044
M16
G05
G00X5.587Y-2.2536
M15
G01X5.587Y-2.2944
M16
G05
G00X5.587Y-3.0036
M15
G01X5.587Y-3.0444
M16
G05
G00X5.587Y-3.7536
M15
G01X5.587Y-3.7944
M16
G05
G00X5.587Y-4.5636
M15
G01X5.587Y-4.6044
M16
G05
G00X5.7854Y-2.2536
M15
G01X5.7854Y-2.2944
M16
G05
G00X5.7854Y-3.0036
M15
G01X5.7854Y-3.0444
M16
G05
G00X5.7854Y-3.7536
M15
G01X5.7854Y-3.7944
M16
G05
G00X5.7854Y-4.5636
M15
G01X5.7854Y-4.6044
M16
G05
T0
M30
