G04 #@! TF.GenerationSoftware,KiCad,Pcbnew,5.1.9*
G04 #@! TF.CreationDate,2021-01-09T20:22:18-06:00*
G04 #@! TF.ProjectId,halfboard,68616c66-626f-4617-9264-2e6b69636164,rev?*
G04 #@! TF.SameCoordinates,Original*
G04 #@! TF.FileFunction,Other,User*
%FSLAX46Y46*%
G04 Gerber Fmt 4.6, Leading zero omitted, Abs format (unit mm)*
G04 Created by KiCad (PCBNEW 5.1.9) date 2021-01-09 20:22:18*
%MOMM*%
%LPD*%
G01*
G04 APERTURE LIST*
%ADD10C,0.050000*%
G04 APERTURE END LIST*
D10*
G04 #@! TO.C, *
X72158000Y-51330000D02*
X72158000Y-47730000D01*
X66008000Y-51330000D02*
X72158000Y-51330000D01*
X66008000Y-47730000D02*
X66008000Y-51330000D01*
X72158000Y-47730000D02*
X66008000Y-47730000D01*
G04 #@! TO.C,REF\u002A\u002A*
X80538000Y-45848000D02*
X80538000Y-45148000D01*
X80538000Y-45148000D02*
X83038000Y-45148000D01*
X83038000Y-45148000D02*
X83038000Y-45848000D01*
X83038000Y-45848000D02*
X84188000Y-45848000D01*
X79388000Y-49148000D02*
X84188000Y-49148000D01*
X84188000Y-49148000D02*
X84188000Y-45848000D01*
X80538000Y-45848000D02*
X79388000Y-45848000D01*
X79388000Y-45848000D02*
X79388000Y-49148000D01*
X56978000Y-50964000D02*
X48178000Y-50964000D01*
X48178000Y-50964000D02*
X48178000Y-46414000D01*
X48178000Y-46414000D02*
X50928000Y-46414000D01*
X50928000Y-46414000D02*
X50928000Y-45114000D01*
X50928000Y-45114000D02*
X54228000Y-45114000D01*
X54228000Y-45114000D02*
X54228000Y-46414000D01*
X54228000Y-46414000D02*
X56978000Y-46414000D01*
X56978000Y-46414000D02*
X56978000Y-50964000D01*
G04 #@! TD*
M02*
