G04 #@! TF.GenerationSoftware,KiCad,Pcbnew,5.1.9*
G04 #@! TF.CreationDate,2021-01-10T11:47:33-06:00*
G04 #@! TF.ProjectId,halfboard,68616c66-626f-4617-9264-2e6b69636164,rev?*
G04 #@! TF.SameCoordinates,Original*
G04 #@! TF.FileFunction,Legend,Bot*
G04 #@! TF.FilePolarity,Positive*
%FSLAX46Y46*%
G04 Gerber Fmt 4.6, Leading zero omitted, Abs format (unit mm)*
G04 Created by KiCad (PCBNEW 5.1.9) date 2021-01-10 11:47:33*
%MOMM*%
%LPD*%
G01*
G04 APERTURE LIST*
%ADD10C,0.150000*%
%ADD11C,0.120000*%
G04 APERTURE END LIST*
D10*
X151684666Y-51704761D02*
X151684666Y-49704761D01*
X151684666Y-50657142D02*
X150541809Y-50657142D01*
X150541809Y-51704761D02*
X150541809Y-49704761D01*
X148732285Y-51704761D02*
X148732285Y-50657142D01*
X148827523Y-50466666D01*
X149018000Y-50371428D01*
X149398952Y-50371428D01*
X149589428Y-50466666D01*
X148732285Y-51609523D02*
X148922761Y-51704761D01*
X149398952Y-51704761D01*
X149589428Y-51609523D01*
X149684666Y-51419047D01*
X149684666Y-51228571D01*
X149589428Y-51038095D01*
X149398952Y-50942857D01*
X148922761Y-50942857D01*
X148732285Y-50847619D01*
X147494190Y-51704761D02*
X147684666Y-51609523D01*
X147779904Y-51419047D01*
X147779904Y-49704761D01*
X147018000Y-50371428D02*
X146256095Y-50371428D01*
X146732285Y-51704761D02*
X146732285Y-49990476D01*
X146637047Y-49800000D01*
X146446571Y-49704761D01*
X146256095Y-49704761D01*
X143398952Y-50657142D02*
X143113238Y-50752380D01*
X143018000Y-50847619D01*
X142922761Y-51038095D01*
X142922761Y-51323809D01*
X143018000Y-51514285D01*
X143113238Y-51609523D01*
X143303714Y-51704761D01*
X144065619Y-51704761D01*
X144065619Y-49704761D01*
X143398952Y-49704761D01*
X143208476Y-49800000D01*
X143113238Y-49895238D01*
X143018000Y-50085714D01*
X143018000Y-50276190D01*
X143113238Y-50466666D01*
X143208476Y-50561904D01*
X143398952Y-50657142D01*
X144065619Y-50657142D01*
X141779904Y-51704761D02*
X141970380Y-51609523D01*
X142065619Y-51514285D01*
X142160857Y-51323809D01*
X142160857Y-50752380D01*
X142065619Y-50561904D01*
X141970380Y-50466666D01*
X141779904Y-50371428D01*
X141494190Y-50371428D01*
X141303714Y-50466666D01*
X141208476Y-50561904D01*
X141113238Y-50752380D01*
X141113238Y-51323809D01*
X141208476Y-51514285D01*
X141303714Y-51609523D01*
X141494190Y-51704761D01*
X141779904Y-51704761D01*
X139398952Y-51704761D02*
X139398952Y-50657142D01*
X139494190Y-50466666D01*
X139684666Y-50371428D01*
X140065619Y-50371428D01*
X140256095Y-50466666D01*
X139398952Y-51609523D02*
X139589428Y-51704761D01*
X140065619Y-51704761D01*
X140256095Y-51609523D01*
X140351333Y-51419047D01*
X140351333Y-51228571D01*
X140256095Y-51038095D01*
X140065619Y-50942857D01*
X139589428Y-50942857D01*
X139398952Y-50847619D01*
X138446571Y-51704761D02*
X138446571Y-50371428D01*
X138446571Y-50752380D02*
X138351333Y-50561904D01*
X138256095Y-50466666D01*
X138065619Y-50371428D01*
X137875142Y-50371428D01*
X136351333Y-51704761D02*
X136351333Y-49704761D01*
X136351333Y-51609523D02*
X136541809Y-51704761D01*
X136922761Y-51704761D01*
X137113238Y-51609523D01*
X137208476Y-51514285D01*
X137303714Y-51323809D01*
X137303714Y-50752380D01*
X137208476Y-50561904D01*
X137113238Y-50466666D01*
X136922761Y-50371428D01*
X136541809Y-50371428D01*
X136351333Y-50466666D01*
D11*
G04 #@! TO.C, *
X53978000Y-49634000D02*
X54178000Y-49634000D01*
X51178000Y-45494000D02*
X51378000Y-45284000D01*
X52478000Y-45494000D02*
X52278000Y-45284000D01*
X51178000Y-46784000D02*
X51178000Y-45494000D01*
X51378000Y-45284000D02*
X52278000Y-45284000D01*
X52478000Y-45494000D02*
X52478000Y-46784000D01*
X49728000Y-46784000D02*
X55428000Y-46784000D01*
X50978000Y-49634000D02*
X52678000Y-49634000D01*
X49128000Y-48584000D02*
X49128000Y-47794000D01*
X56028000Y-47794000D02*
X56028000Y-48584000D01*
G04 #@! TO.C,REF\u002A\u002A*
X82288000Y-45398000D02*
X82788000Y-45778000D01*
X82788000Y-45778000D02*
X82788000Y-46098000D01*
X82288000Y-45398000D02*
X81288000Y-45398000D01*
X81288000Y-45398000D02*
X80788000Y-45778000D01*
X80788000Y-45778000D02*
X80788000Y-46098000D01*
X83438000Y-48898000D02*
X80138000Y-48898000D01*
X83438000Y-48598000D02*
X83438000Y-48898000D01*
X80138000Y-48898000D02*
X80138000Y-48598000D01*
X83438000Y-46398000D02*
X83438000Y-46098000D01*
X83438000Y-46098000D02*
X80138000Y-46098000D01*
X80138000Y-46098000D02*
X80138000Y-46398000D01*
G04 #@! TO.C, *
D10*
G04 #@! TO.C,REF\u002A\u002A*
X83121333Y-44850380D02*
X83454666Y-44374190D01*
X83692761Y-44850380D02*
X83692761Y-43850380D01*
X83311809Y-43850380D01*
X83216571Y-43898000D01*
X83168952Y-43945619D01*
X83121333Y-44040857D01*
X83121333Y-44183714D01*
X83168952Y-44278952D01*
X83216571Y-44326571D01*
X83311809Y-44374190D01*
X83692761Y-44374190D01*
X82692761Y-44326571D02*
X82359428Y-44326571D01*
X82216571Y-44850380D02*
X82692761Y-44850380D01*
X82692761Y-43850380D01*
X82216571Y-43850380D01*
X81454666Y-44326571D02*
X81788000Y-44326571D01*
X81788000Y-44850380D02*
X81788000Y-43850380D01*
X81311809Y-43850380D01*
X80788000Y-43850380D02*
X80788000Y-44088476D01*
X81026095Y-43993238D02*
X80788000Y-44088476D01*
X80549904Y-43993238D01*
X80930857Y-44278952D02*
X80788000Y-44088476D01*
X80645142Y-44278952D01*
X80026095Y-43850380D02*
X80026095Y-44088476D01*
X80264190Y-43993238D02*
X80026095Y-44088476D01*
X79788000Y-43993238D01*
X80168952Y-44278952D02*
X80026095Y-44088476D01*
X79883238Y-44278952D01*
G04 #@! TD*
M02*
