G04 #@! TF.GenerationSoftware,KiCad,Pcbnew,5.1.9*
G04 #@! TF.CreationDate,2021-01-18T19:30:39-06:00*
G04 #@! TF.ProjectId,halfboard,68616c66-626f-4617-9264-2e6b69636164,rev?*
G04 #@! TF.SameCoordinates,Original*
G04 #@! TF.FileFunction,Copper,L1,Top*
G04 #@! TF.FilePolarity,Positive*
%FSLAX46Y46*%
G04 Gerber Fmt 4.6, Leading zero omitted, Abs format (unit mm)*
G04 Created by KiCad (PCBNEW 5.1.9) date 2021-01-18 19:30:39*
%MOMM*%
%LPD*%
G01*
G04 APERTURE LIST*
G04 #@! TA.AperFunction,EtchedComponent*
%ADD10C,0.100000*%
G04 #@! TD*
G04 #@! TA.AperFunction,SMDPad,CuDef*
%ADD11R,1.600000X1.200000*%
G04 #@! TD*
G04 #@! TA.AperFunction,ComponentPad*
%ADD12C,1.600000*%
G04 #@! TD*
G04 #@! TA.AperFunction,ComponentPad*
%ADD13R,1.600000X1.600000*%
G04 #@! TD*
G04 #@! TA.AperFunction,SMDPad,CuDef*
%ADD14R,2.900000X0.500000*%
G04 #@! TD*
G04 #@! TA.AperFunction,ComponentPad*
%ADD15C,2.000000*%
G04 #@! TD*
G04 #@! TA.AperFunction,ComponentPad*
%ADD16R,1.500000X2.300000*%
G04 #@! TD*
G04 #@! TA.AperFunction,ComponentPad*
%ADD17O,2.300000X3.337000*%
G04 #@! TD*
G04 #@! TA.AperFunction,ComponentPad*
%ADD18C,2.286000*%
G04 #@! TD*
G04 #@! TA.AperFunction,ComponentPad*
%ADD19C,2.500000*%
G04 #@! TD*
G04 #@! TA.AperFunction,ComponentPad*
%ADD20C,2.200000*%
G04 #@! TD*
G04 #@! TA.AperFunction,ComponentPad*
%ADD21R,1.752600X1.752600*%
G04 #@! TD*
G04 #@! TA.AperFunction,ComponentPad*
%ADD22C,1.752600*%
G04 #@! TD*
G04 #@! TA.AperFunction,ComponentPad*
%ADD23O,1.700000X1.700000*%
G04 #@! TD*
G04 #@! TA.AperFunction,ComponentPad*
%ADD24R,1.700000X1.700000*%
G04 #@! TD*
G04 #@! TA.AperFunction,SMDPad,CuDef*
%ADD25R,0.900000X1.700000*%
G04 #@! TD*
G04 #@! TA.AperFunction,SMDPad,CuDef*
%ADD26R,0.700000X1.500000*%
G04 #@! TD*
G04 #@! TA.AperFunction,SMDPad,CuDef*
%ADD27R,1.000000X0.800000*%
G04 #@! TD*
G04 #@! TA.AperFunction,ViaPad*
%ADD28C,0.800000*%
G04 #@! TD*
G04 #@! TA.AperFunction,Conductor*
%ADD29C,0.250000*%
G04 #@! TD*
G04 APERTURE END LIST*
D10*
G04 #@! TO.C, *
G36*
X49588400Y-69240400D02*
G01*
X49182000Y-68834000D01*
X49182000Y-68453000D01*
X48674000Y-67945000D01*
X48166000Y-68453000D01*
X48166000Y-69469000D01*
X48470800Y-69773800D01*
X49588400Y-69773800D01*
X49588400Y-69240400D01*
G37*
X49588400Y-69240400D02*
X49182000Y-68834000D01*
X49182000Y-68453000D01*
X48674000Y-67945000D01*
X48166000Y-68453000D01*
X48166000Y-69469000D01*
X48470800Y-69773800D01*
X49588400Y-69773800D01*
X49588400Y-69240400D01*
G36*
X46565800Y-69692520D02*
G01*
X48674000Y-67584320D01*
X49182000Y-68092320D01*
X49182000Y-67386200D01*
X46565800Y-67386200D01*
X46565800Y-69692520D01*
G37*
X46565800Y-69692520D02*
X48674000Y-67584320D01*
X49182000Y-68092320D01*
X49182000Y-67386200D01*
X46565800Y-67386200D01*
X46565800Y-69692520D01*
G36*
X144836703Y-67746130D02*
G01*
X144430303Y-67339730D01*
X144430303Y-66958730D01*
X143922303Y-66450730D01*
X143414303Y-66958730D01*
X143414303Y-67974730D01*
X143719103Y-68279530D01*
X144836703Y-68279530D01*
X144836703Y-67746130D01*
G37*
X144836703Y-67746130D02*
X144430303Y-67339730D01*
X144430303Y-66958730D01*
X143922303Y-66450730D01*
X143414303Y-66958730D01*
X143414303Y-67974730D01*
X143719103Y-68279530D01*
X144836703Y-68279530D01*
X144836703Y-67746130D01*
G36*
X141814103Y-68198250D02*
G01*
X143922303Y-66090050D01*
X144430303Y-66598050D01*
X144430303Y-65891930D01*
X141814103Y-65891930D01*
X141814103Y-68198250D01*
G37*
X141814103Y-68198250D02*
X143922303Y-66090050D01*
X144430303Y-66598050D01*
X144430303Y-65891930D01*
X141814103Y-65891930D01*
X141814103Y-68198250D01*
G36*
X144836703Y-86796130D02*
G01*
X144430303Y-86389730D01*
X144430303Y-86008730D01*
X143922303Y-85500730D01*
X143414303Y-86008730D01*
X143414303Y-87024730D01*
X143719103Y-87329530D01*
X144836703Y-87329530D01*
X144836703Y-86796130D01*
G37*
X144836703Y-86796130D02*
X144430303Y-86389730D01*
X144430303Y-86008730D01*
X143922303Y-85500730D01*
X143414303Y-86008730D01*
X143414303Y-87024730D01*
X143719103Y-87329530D01*
X144836703Y-87329530D01*
X144836703Y-86796130D01*
G36*
X141814103Y-87248250D02*
G01*
X143922303Y-85140050D01*
X144430303Y-85648050D01*
X144430303Y-84941930D01*
X141814103Y-84941930D01*
X141814103Y-87248250D01*
G37*
X141814103Y-87248250D02*
X143922303Y-85140050D01*
X144430303Y-85648050D01*
X144430303Y-84941930D01*
X141814103Y-84941930D01*
X141814103Y-87248250D01*
G36*
X144836703Y-105846130D02*
G01*
X144430303Y-105439730D01*
X144430303Y-105058730D01*
X143922303Y-104550730D01*
X143414303Y-105058730D01*
X143414303Y-106074730D01*
X143719103Y-106379530D01*
X144836703Y-106379530D01*
X144836703Y-105846130D01*
G37*
X144836703Y-105846130D02*
X144430303Y-105439730D01*
X144430303Y-105058730D01*
X143922303Y-104550730D01*
X143414303Y-105058730D01*
X143414303Y-106074730D01*
X143719103Y-106379530D01*
X144836703Y-106379530D01*
X144836703Y-105846130D01*
G36*
X141814103Y-106298250D02*
G01*
X143922303Y-104190050D01*
X144430303Y-104698050D01*
X144430303Y-103991930D01*
X141814103Y-103991930D01*
X141814103Y-106298250D01*
G37*
X141814103Y-106298250D02*
X143922303Y-104190050D01*
X144430303Y-104698050D01*
X144430303Y-103991930D01*
X141814103Y-103991930D01*
X141814103Y-106298250D01*
G36*
X144836703Y-126420130D02*
G01*
X144430303Y-126013730D01*
X144430303Y-125632730D01*
X143922303Y-125124730D01*
X143414303Y-125632730D01*
X143414303Y-126648730D01*
X143719103Y-126953530D01*
X144836703Y-126953530D01*
X144836703Y-126420130D01*
G37*
X144836703Y-126420130D02*
X144430303Y-126013730D01*
X144430303Y-125632730D01*
X143922303Y-125124730D01*
X143414303Y-125632730D01*
X143414303Y-126648730D01*
X143719103Y-126953530D01*
X144836703Y-126953530D01*
X144836703Y-126420130D01*
G36*
X141814103Y-126872250D02*
G01*
X143922303Y-124764050D01*
X144430303Y-125272050D01*
X144430303Y-124565930D01*
X141814103Y-124565930D01*
X141814103Y-126872250D01*
G37*
X141814103Y-126872250D02*
X143922303Y-124764050D01*
X144430303Y-125272050D01*
X144430303Y-124565930D01*
X141814103Y-124565930D01*
X141814103Y-126872250D01*
G36*
X125786703Y-126420130D02*
G01*
X125380303Y-126013730D01*
X125380303Y-125632730D01*
X124872303Y-125124730D01*
X124364303Y-125632730D01*
X124364303Y-126648730D01*
X124669103Y-126953530D01*
X125786703Y-126953530D01*
X125786703Y-126420130D01*
G37*
X125786703Y-126420130D02*
X125380303Y-126013730D01*
X125380303Y-125632730D01*
X124872303Y-125124730D01*
X124364303Y-125632730D01*
X124364303Y-126648730D01*
X124669103Y-126953530D01*
X125786703Y-126953530D01*
X125786703Y-126420130D01*
G36*
X122764103Y-126872250D02*
G01*
X124872303Y-124764050D01*
X125380303Y-125272050D01*
X125380303Y-124565930D01*
X122764103Y-124565930D01*
X122764103Y-126872250D01*
G37*
X122764103Y-126872250D02*
X124872303Y-124764050D01*
X125380303Y-125272050D01*
X125380303Y-124565930D01*
X122764103Y-124565930D01*
X122764103Y-126872250D01*
G36*
X106736703Y-126420130D02*
G01*
X106330303Y-126013730D01*
X106330303Y-125632730D01*
X105822303Y-125124730D01*
X105314303Y-125632730D01*
X105314303Y-126648730D01*
X105619103Y-126953530D01*
X106736703Y-126953530D01*
X106736703Y-126420130D01*
G37*
X106736703Y-126420130D02*
X106330303Y-126013730D01*
X106330303Y-125632730D01*
X105822303Y-125124730D01*
X105314303Y-125632730D01*
X105314303Y-126648730D01*
X105619103Y-126953530D01*
X106736703Y-126953530D01*
X106736703Y-126420130D01*
G36*
X103714103Y-126872250D02*
G01*
X105822303Y-124764050D01*
X106330303Y-125272050D01*
X106330303Y-124565930D01*
X103714103Y-124565930D01*
X103714103Y-126872250D01*
G37*
X103714103Y-126872250D02*
X105822303Y-124764050D01*
X106330303Y-125272050D01*
X106330303Y-124565930D01*
X103714103Y-124565930D01*
X103714103Y-126872250D01*
G36*
X87686703Y-126420130D02*
G01*
X87280303Y-126013730D01*
X87280303Y-125632730D01*
X86772303Y-125124730D01*
X86264303Y-125632730D01*
X86264303Y-126648730D01*
X86569103Y-126953530D01*
X87686703Y-126953530D01*
X87686703Y-126420130D01*
G37*
X87686703Y-126420130D02*
X87280303Y-126013730D01*
X87280303Y-125632730D01*
X86772303Y-125124730D01*
X86264303Y-125632730D01*
X86264303Y-126648730D01*
X86569103Y-126953530D01*
X87686703Y-126953530D01*
X87686703Y-126420130D01*
G36*
X84664103Y-126872250D02*
G01*
X86772303Y-124764050D01*
X87280303Y-125272050D01*
X87280303Y-124565930D01*
X84664103Y-124565930D01*
X84664103Y-126872250D01*
G37*
X84664103Y-126872250D02*
X86772303Y-124764050D01*
X87280303Y-125272050D01*
X87280303Y-124565930D01*
X84664103Y-124565930D01*
X84664103Y-126872250D01*
G36*
X125786703Y-103306130D02*
G01*
X125380303Y-102899730D01*
X125380303Y-102518730D01*
X124872303Y-102010730D01*
X124364303Y-102518730D01*
X124364303Y-103534730D01*
X124669103Y-103839530D01*
X125786703Y-103839530D01*
X125786703Y-103306130D01*
G37*
X125786703Y-103306130D02*
X125380303Y-102899730D01*
X125380303Y-102518730D01*
X124872303Y-102010730D01*
X124364303Y-102518730D01*
X124364303Y-103534730D01*
X124669103Y-103839530D01*
X125786703Y-103839530D01*
X125786703Y-103306130D01*
G36*
X122764103Y-103758250D02*
G01*
X124872303Y-101650050D01*
X125380303Y-102158050D01*
X125380303Y-101451930D01*
X122764103Y-101451930D01*
X122764103Y-103758250D01*
G37*
X122764103Y-103758250D02*
X124872303Y-101650050D01*
X125380303Y-102158050D01*
X125380303Y-101451930D01*
X122764103Y-101451930D01*
X122764103Y-103758250D01*
G36*
X125786703Y-84256130D02*
G01*
X125380303Y-83849730D01*
X125380303Y-83468730D01*
X124872303Y-82960730D01*
X124364303Y-83468730D01*
X124364303Y-84484730D01*
X124669103Y-84789530D01*
X125786703Y-84789530D01*
X125786703Y-84256130D01*
G37*
X125786703Y-84256130D02*
X125380303Y-83849730D01*
X125380303Y-83468730D01*
X124872303Y-82960730D01*
X124364303Y-83468730D01*
X124364303Y-84484730D01*
X124669103Y-84789530D01*
X125786703Y-84789530D01*
X125786703Y-84256130D01*
G36*
X122764103Y-84708250D02*
G01*
X124872303Y-82600050D01*
X125380303Y-83108050D01*
X125380303Y-82401930D01*
X122764103Y-82401930D01*
X122764103Y-84708250D01*
G37*
X122764103Y-84708250D02*
X124872303Y-82600050D01*
X125380303Y-83108050D01*
X125380303Y-82401930D01*
X122764103Y-82401930D01*
X122764103Y-84708250D01*
G36*
X125786703Y-65206130D02*
G01*
X125380303Y-64799730D01*
X125380303Y-64418730D01*
X124872303Y-63910730D01*
X124364303Y-64418730D01*
X124364303Y-65434730D01*
X124669103Y-65739530D01*
X125786703Y-65739530D01*
X125786703Y-65206130D01*
G37*
X125786703Y-65206130D02*
X125380303Y-64799730D01*
X125380303Y-64418730D01*
X124872303Y-63910730D01*
X124364303Y-64418730D01*
X124364303Y-65434730D01*
X124669103Y-65739530D01*
X125786703Y-65739530D01*
X125786703Y-65206130D01*
G36*
X122764103Y-65658250D02*
G01*
X124872303Y-63550050D01*
X125380303Y-64058050D01*
X125380303Y-63351930D01*
X122764103Y-63351930D01*
X122764103Y-65658250D01*
G37*
X122764103Y-65658250D02*
X124872303Y-63550050D01*
X125380303Y-64058050D01*
X125380303Y-63351930D01*
X122764103Y-63351930D01*
X122764103Y-65658250D01*
G36*
X106736703Y-63936130D02*
G01*
X106330303Y-63529730D01*
X106330303Y-63148730D01*
X105822303Y-62640730D01*
X105314303Y-63148730D01*
X105314303Y-64164730D01*
X105619103Y-64469530D01*
X106736703Y-64469530D01*
X106736703Y-63936130D01*
G37*
X106736703Y-63936130D02*
X106330303Y-63529730D01*
X106330303Y-63148730D01*
X105822303Y-62640730D01*
X105314303Y-63148730D01*
X105314303Y-64164730D01*
X105619103Y-64469530D01*
X106736703Y-64469530D01*
X106736703Y-63936130D01*
G36*
X103714103Y-64388250D02*
G01*
X105822303Y-62280050D01*
X106330303Y-62788050D01*
X106330303Y-62081930D01*
X103714103Y-62081930D01*
X103714103Y-64388250D01*
G37*
X103714103Y-64388250D02*
X105822303Y-62280050D01*
X106330303Y-62788050D01*
X106330303Y-62081930D01*
X103714103Y-62081930D01*
X103714103Y-64388250D01*
G36*
X106736703Y-82986130D02*
G01*
X106330303Y-82579730D01*
X106330303Y-82198730D01*
X105822303Y-81690730D01*
X105314303Y-82198730D01*
X105314303Y-83214730D01*
X105619103Y-83519530D01*
X106736703Y-83519530D01*
X106736703Y-82986130D01*
G37*
X106736703Y-82986130D02*
X106330303Y-82579730D01*
X106330303Y-82198730D01*
X105822303Y-81690730D01*
X105314303Y-82198730D01*
X105314303Y-83214730D01*
X105619103Y-83519530D01*
X106736703Y-83519530D01*
X106736703Y-82986130D01*
G36*
X103714103Y-83438250D02*
G01*
X105822303Y-81330050D01*
X106330303Y-81838050D01*
X106330303Y-81131930D01*
X103714103Y-81131930D01*
X103714103Y-83438250D01*
G37*
X103714103Y-83438250D02*
X105822303Y-81330050D01*
X106330303Y-81838050D01*
X106330303Y-81131930D01*
X103714103Y-81131930D01*
X103714103Y-83438250D01*
G36*
X106736703Y-102036130D02*
G01*
X106330303Y-101629730D01*
X106330303Y-101248730D01*
X105822303Y-100740730D01*
X105314303Y-101248730D01*
X105314303Y-102264730D01*
X105619103Y-102569530D01*
X106736703Y-102569530D01*
X106736703Y-102036130D01*
G37*
X106736703Y-102036130D02*
X106330303Y-101629730D01*
X106330303Y-101248730D01*
X105822303Y-100740730D01*
X105314303Y-101248730D01*
X105314303Y-102264730D01*
X105619103Y-102569530D01*
X106736703Y-102569530D01*
X106736703Y-102036130D01*
G36*
X103714103Y-102488250D02*
G01*
X105822303Y-100380050D01*
X106330303Y-100888050D01*
X106330303Y-100181930D01*
X103714103Y-100181930D01*
X103714103Y-102488250D01*
G37*
X103714103Y-102488250D02*
X105822303Y-100380050D01*
X106330303Y-100888050D01*
X106330303Y-100181930D01*
X103714103Y-100181930D01*
X103714103Y-102488250D01*
G36*
X87686703Y-103560130D02*
G01*
X87280303Y-103153730D01*
X87280303Y-102772730D01*
X86772303Y-102264730D01*
X86264303Y-102772730D01*
X86264303Y-103788730D01*
X86569103Y-104093530D01*
X87686703Y-104093530D01*
X87686703Y-103560130D01*
G37*
X87686703Y-103560130D02*
X87280303Y-103153730D01*
X87280303Y-102772730D01*
X86772303Y-102264730D01*
X86264303Y-102772730D01*
X86264303Y-103788730D01*
X86569103Y-104093530D01*
X87686703Y-104093530D01*
X87686703Y-103560130D01*
G36*
X84664103Y-104012250D02*
G01*
X86772303Y-101904050D01*
X87280303Y-102412050D01*
X87280303Y-101705930D01*
X84664103Y-101705930D01*
X84664103Y-104012250D01*
G37*
X84664103Y-104012250D02*
X86772303Y-101904050D01*
X87280303Y-102412050D01*
X87280303Y-101705930D01*
X84664103Y-101705930D01*
X84664103Y-104012250D01*
G36*
X87686703Y-84510130D02*
G01*
X87280303Y-84103730D01*
X87280303Y-83722730D01*
X86772303Y-83214730D01*
X86264303Y-83722730D01*
X86264303Y-84738730D01*
X86569103Y-85043530D01*
X87686703Y-85043530D01*
X87686703Y-84510130D01*
G37*
X87686703Y-84510130D02*
X87280303Y-84103730D01*
X87280303Y-83722730D01*
X86772303Y-83214730D01*
X86264303Y-83722730D01*
X86264303Y-84738730D01*
X86569103Y-85043530D01*
X87686703Y-85043530D01*
X87686703Y-84510130D01*
G36*
X84664103Y-84962250D02*
G01*
X86772303Y-82854050D01*
X87280303Y-83362050D01*
X87280303Y-82655930D01*
X84664103Y-82655930D01*
X84664103Y-84962250D01*
G37*
X84664103Y-84962250D02*
X86772303Y-82854050D01*
X87280303Y-83362050D01*
X87280303Y-82655930D01*
X84664103Y-82655930D01*
X84664103Y-84962250D01*
G36*
X87686703Y-65456130D02*
G01*
X87280303Y-65049730D01*
X87280303Y-64668730D01*
X86772303Y-64160730D01*
X86264303Y-64668730D01*
X86264303Y-65684730D01*
X86569103Y-65989530D01*
X87686703Y-65989530D01*
X87686703Y-65456130D01*
G37*
X87686703Y-65456130D02*
X87280303Y-65049730D01*
X87280303Y-64668730D01*
X86772303Y-64160730D01*
X86264303Y-64668730D01*
X86264303Y-65684730D01*
X86569103Y-65989530D01*
X87686703Y-65989530D01*
X87686703Y-65456130D01*
G36*
X84664103Y-65908250D02*
G01*
X86772303Y-63800050D01*
X87280303Y-64308050D01*
X87280303Y-63601930D01*
X84664103Y-63601930D01*
X84664103Y-65908250D01*
G37*
X84664103Y-65908250D02*
X86772303Y-63800050D01*
X87280303Y-64308050D01*
X87280303Y-63601930D01*
X84664103Y-63601930D01*
X84664103Y-65908250D01*
G36*
X68633631Y-66690130D02*
G01*
X68227231Y-66283730D01*
X68227231Y-65902730D01*
X67719231Y-65394730D01*
X67211231Y-65902730D01*
X67211231Y-66918730D01*
X67516031Y-67223530D01*
X68633631Y-67223530D01*
X68633631Y-66690130D01*
G37*
X68633631Y-66690130D02*
X68227231Y-66283730D01*
X68227231Y-65902730D01*
X67719231Y-65394730D01*
X67211231Y-65902730D01*
X67211231Y-66918730D01*
X67516031Y-67223530D01*
X68633631Y-67223530D01*
X68633631Y-66690130D01*
G36*
X65611031Y-67142250D02*
G01*
X67719231Y-65034050D01*
X68227231Y-65542050D01*
X68227231Y-64835930D01*
X65611031Y-64835930D01*
X65611031Y-67142250D01*
G37*
X65611031Y-67142250D02*
X67719231Y-65034050D01*
X68227231Y-65542050D01*
X68227231Y-64835930D01*
X65611031Y-64835930D01*
X65611031Y-67142250D01*
G36*
X68633631Y-85738229D02*
G01*
X68227231Y-85331829D01*
X68227231Y-84950829D01*
X67719231Y-84442829D01*
X67211231Y-84950829D01*
X67211231Y-85966829D01*
X67516031Y-86271629D01*
X68633631Y-86271629D01*
X68633631Y-85738229D01*
G37*
X68633631Y-85738229D02*
X68227231Y-85331829D01*
X68227231Y-84950829D01*
X67719231Y-84442829D01*
X67211231Y-84950829D01*
X67211231Y-85966829D01*
X67516031Y-86271629D01*
X68633631Y-86271629D01*
X68633631Y-85738229D01*
G36*
X65611031Y-86190349D02*
G01*
X67719231Y-84082149D01*
X68227231Y-84590149D01*
X68227231Y-83884029D01*
X65611031Y-83884029D01*
X65611031Y-86190349D01*
G37*
X65611031Y-86190349D02*
X67719231Y-84082149D01*
X68227231Y-84590149D01*
X68227231Y-83884029D01*
X65611031Y-83884029D01*
X65611031Y-86190349D01*
G36*
X68633631Y-104786630D02*
G01*
X68227231Y-104380230D01*
X68227231Y-103999230D01*
X67719231Y-103491230D01*
X67211231Y-103999230D01*
X67211231Y-105015230D01*
X67516031Y-105320030D01*
X68633631Y-105320030D01*
X68633631Y-104786630D01*
G37*
X68633631Y-104786630D02*
X68227231Y-104380230D01*
X68227231Y-103999230D01*
X67719231Y-103491230D01*
X67211231Y-103999230D01*
X67211231Y-105015230D01*
X67516031Y-105320030D01*
X68633631Y-105320030D01*
X68633631Y-104786630D01*
G36*
X65611031Y-105238750D02*
G01*
X67719231Y-103130550D01*
X68227231Y-103638550D01*
X68227231Y-102932430D01*
X65611031Y-102932430D01*
X65611031Y-105238750D01*
G37*
X65611031Y-105238750D02*
X67719231Y-103130550D01*
X68227231Y-103638550D01*
X68227231Y-102932430D01*
X65611031Y-102932430D01*
X65611031Y-105238750D01*
G36*
X68633631Y-126420130D02*
G01*
X68227231Y-126013730D01*
X68227231Y-125632730D01*
X67719231Y-125124730D01*
X67211231Y-125632730D01*
X67211231Y-126648730D01*
X67516031Y-126953530D01*
X68633631Y-126953530D01*
X68633631Y-126420130D01*
G37*
X68633631Y-126420130D02*
X68227231Y-126013730D01*
X68227231Y-125632730D01*
X67719231Y-125124730D01*
X67211231Y-125632730D01*
X67211231Y-126648730D01*
X67516031Y-126953530D01*
X68633631Y-126953530D01*
X68633631Y-126420130D01*
G36*
X65611031Y-126872250D02*
G01*
X67719231Y-124764050D01*
X68227231Y-125272050D01*
X68227231Y-124565930D01*
X65611031Y-124565930D01*
X65611031Y-126872250D01*
G37*
X65611031Y-126872250D02*
X67719231Y-124764050D01*
X68227231Y-125272050D01*
X68227231Y-124565930D01*
X65611031Y-124565930D01*
X65611031Y-126872250D01*
G36*
X49588400Y-126390400D02*
G01*
X49182000Y-125984000D01*
X49182000Y-125603000D01*
X48674000Y-125095000D01*
X48166000Y-125603000D01*
X48166000Y-126619000D01*
X48470800Y-126923800D01*
X49588400Y-126923800D01*
X49588400Y-126390400D01*
G37*
X49588400Y-126390400D02*
X49182000Y-125984000D01*
X49182000Y-125603000D01*
X48674000Y-125095000D01*
X48166000Y-125603000D01*
X48166000Y-126619000D01*
X48470800Y-126923800D01*
X49588400Y-126923800D01*
X49588400Y-126390400D01*
G36*
X46565800Y-126842520D02*
G01*
X48674000Y-124734320D01*
X49182000Y-125242320D01*
X49182000Y-124536200D01*
X46565800Y-124536200D01*
X46565800Y-126842520D01*
G37*
X46565800Y-126842520D02*
X48674000Y-124734320D01*
X49182000Y-125242320D01*
X49182000Y-124536200D01*
X46565800Y-124536200D01*
X46565800Y-126842520D01*
G36*
X49588400Y-107340400D02*
G01*
X49182000Y-106934000D01*
X49182000Y-106553000D01*
X48674000Y-106045000D01*
X48166000Y-106553000D01*
X48166000Y-107569000D01*
X48470800Y-107873800D01*
X49588400Y-107873800D01*
X49588400Y-107340400D01*
G37*
X49588400Y-107340400D02*
X49182000Y-106934000D01*
X49182000Y-106553000D01*
X48674000Y-106045000D01*
X48166000Y-106553000D01*
X48166000Y-107569000D01*
X48470800Y-107873800D01*
X49588400Y-107873800D01*
X49588400Y-107340400D01*
G36*
X46565800Y-107792520D02*
G01*
X48674000Y-105684320D01*
X49182000Y-106192320D01*
X49182000Y-105486200D01*
X46565800Y-105486200D01*
X46565800Y-107792520D01*
G37*
X46565800Y-107792520D02*
X48674000Y-105684320D01*
X49182000Y-106192320D01*
X49182000Y-105486200D01*
X46565800Y-105486200D01*
X46565800Y-107792520D01*
G36*
X49588400Y-88290400D02*
G01*
X49182000Y-87884000D01*
X49182000Y-87503000D01*
X48674000Y-86995000D01*
X48166000Y-87503000D01*
X48166000Y-88519000D01*
X48470800Y-88823800D01*
X49588400Y-88823800D01*
X49588400Y-88290400D01*
G37*
X49588400Y-88290400D02*
X49182000Y-87884000D01*
X49182000Y-87503000D01*
X48674000Y-86995000D01*
X48166000Y-87503000D01*
X48166000Y-88519000D01*
X48470800Y-88823800D01*
X49588400Y-88823800D01*
X49588400Y-88290400D01*
G36*
X46565800Y-88742520D02*
G01*
X48674000Y-86634320D01*
X49182000Y-87142320D01*
X49182000Y-86436200D01*
X46565800Y-86436200D01*
X46565800Y-88742520D01*
G37*
X46565800Y-88742520D02*
X48674000Y-86634320D01*
X49182000Y-87142320D01*
X49182000Y-86436200D01*
X46565800Y-86436200D01*
X46565800Y-88742520D01*
G04 #@! TD*
D11*
G04 #@! TO.P, ,1*
G04 #@! TO.N,N/C*
X145830303Y-53340000D03*
G04 #@! TO.P, ,2*
X143030303Y-53340000D03*
D12*
X140530303Y-53340000D03*
D13*
G04 #@! TO.P, ,1*
X148330303Y-53340000D03*
D14*
G04 #@! TO.P, ,2*
X141930303Y-53340000D03*
G04 #@! TO.P, ,1*
X146930303Y-53340000D03*
G04 #@! TD*
D11*
G04 #@! TO.P, ,1*
G04 #@! TO.N,N/C*
X145830303Y-72390000D03*
G04 #@! TO.P, ,2*
X143030303Y-72390000D03*
D12*
X140530303Y-72390000D03*
D13*
G04 #@! TO.P, ,1*
X148330303Y-72390000D03*
D14*
G04 #@! TO.P, ,2*
X141930303Y-72390000D03*
G04 #@! TO.P, ,1*
X146930303Y-72390000D03*
G04 #@! TD*
D11*
G04 #@! TO.P, ,1*
G04 #@! TO.N,N/C*
X145830303Y-91440000D03*
G04 #@! TO.P, ,2*
X143030303Y-91440000D03*
D12*
X140530303Y-91440000D03*
D13*
G04 #@! TO.P, ,1*
X148330303Y-91440000D03*
D14*
G04 #@! TO.P, ,2*
X141930303Y-91440000D03*
G04 #@! TO.P, ,1*
X146930303Y-91440000D03*
G04 #@! TD*
D11*
G04 #@! TO.P, ,1*
G04 #@! TO.N,N/C*
X146338303Y-111490000D03*
G04 #@! TO.P, ,2*
X143538303Y-111490000D03*
D12*
X141038303Y-111490000D03*
D13*
G04 #@! TO.P, ,1*
X148838303Y-111490000D03*
D14*
G04 #@! TO.P, ,2*
X142438303Y-111490000D03*
G04 #@! TO.P, ,1*
X147438303Y-111490000D03*
G04 #@! TD*
D11*
G04 #@! TO.P, ,1*
G04 #@! TO.N,N/C*
X127288303Y-111490000D03*
G04 #@! TO.P, ,2*
X124488303Y-111490000D03*
D12*
X121988303Y-111490000D03*
D13*
G04 #@! TO.P, ,1*
X129788303Y-111490000D03*
D14*
G04 #@! TO.P, ,2*
X123388303Y-111490000D03*
G04 #@! TO.P, ,1*
X128388303Y-111490000D03*
G04 #@! TD*
D11*
G04 #@! TO.P, ,1*
G04 #@! TO.N,N/C*
X108238303Y-111490000D03*
G04 #@! TO.P, ,2*
X105438303Y-111490000D03*
D12*
X102938303Y-111490000D03*
D13*
G04 #@! TO.P, ,1*
X110738303Y-111490000D03*
D14*
G04 #@! TO.P, ,2*
X104338303Y-111490000D03*
G04 #@! TO.P, ,1*
X109338303Y-111490000D03*
G04 #@! TD*
D11*
G04 #@! TO.P, ,1*
G04 #@! TO.N,N/C*
X89188303Y-111490000D03*
G04 #@! TO.P, ,2*
X86388303Y-111490000D03*
D12*
X83888303Y-111490000D03*
D13*
G04 #@! TO.P, ,1*
X91688303Y-111490000D03*
D14*
G04 #@! TO.P, ,2*
X85288303Y-111490000D03*
G04 #@! TO.P, ,1*
X90288303Y-111490000D03*
G04 #@! TD*
D11*
G04 #@! TO.P, ,1*
G04 #@! TO.N,N/C*
X126780303Y-88900000D03*
G04 #@! TO.P, ,2*
X123980303Y-88900000D03*
D12*
X121480303Y-88900000D03*
D13*
G04 #@! TO.P, ,1*
X129280303Y-88900000D03*
D14*
G04 #@! TO.P, ,2*
X122880303Y-88900000D03*
G04 #@! TO.P, ,1*
X127880303Y-88900000D03*
G04 #@! TD*
D11*
G04 #@! TO.P, ,1*
G04 #@! TO.N,N/C*
X126780303Y-69850000D03*
G04 #@! TO.P, ,2*
X123980303Y-69850000D03*
D12*
X121480303Y-69850000D03*
D13*
G04 #@! TO.P, ,1*
X129280303Y-69850000D03*
D14*
G04 #@! TO.P, ,2*
X122880303Y-69850000D03*
G04 #@! TO.P, ,1*
X127880303Y-69850000D03*
G04 #@! TD*
D11*
G04 #@! TO.P, ,1*
G04 #@! TO.N,N/C*
X126780303Y-50800000D03*
G04 #@! TO.P, ,2*
X123980303Y-50800000D03*
D12*
X121480303Y-50800000D03*
D13*
G04 #@! TO.P, ,1*
X129280303Y-50800000D03*
D14*
G04 #@! TO.P, ,2*
X122880303Y-50800000D03*
G04 #@! TO.P, ,1*
X127880303Y-50800000D03*
G04 #@! TD*
D11*
G04 #@! TO.P, ,1*
G04 #@! TO.N,N/C*
X107730303Y-49530000D03*
G04 #@! TO.P, ,2*
X104930303Y-49530000D03*
D12*
X102430303Y-49530000D03*
D13*
G04 #@! TO.P, ,1*
X110230303Y-49530000D03*
D14*
G04 #@! TO.P, ,2*
X103830303Y-49530000D03*
G04 #@! TO.P, ,1*
X108830303Y-49530000D03*
G04 #@! TD*
D11*
G04 #@! TO.P, ,1*
G04 #@! TO.N,N/C*
X107730303Y-68580000D03*
G04 #@! TO.P, ,2*
X104930303Y-68580000D03*
D12*
X102430303Y-68580000D03*
D13*
G04 #@! TO.P, ,1*
X110230303Y-68580000D03*
D14*
G04 #@! TO.P, ,2*
X103830303Y-68580000D03*
G04 #@! TO.P, ,1*
X108830303Y-68580000D03*
G04 #@! TD*
D11*
G04 #@! TO.P, ,1*
G04 #@! TO.N,N/C*
X107730303Y-87630000D03*
G04 #@! TO.P, ,2*
X104930303Y-87630000D03*
D12*
X102430303Y-87630000D03*
D13*
G04 #@! TO.P, ,1*
X110230303Y-87630000D03*
D14*
G04 #@! TO.P, ,2*
X103830303Y-87630000D03*
G04 #@! TO.P, ,1*
X108830303Y-87630000D03*
G04 #@! TD*
D11*
G04 #@! TO.P, ,1*
G04 #@! TO.N,N/C*
X88680303Y-88900000D03*
G04 #@! TO.P, ,2*
X85880303Y-88900000D03*
D12*
X83380303Y-88900000D03*
D13*
G04 #@! TO.P, ,1*
X91180303Y-88900000D03*
D14*
G04 #@! TO.P, ,2*
X84780303Y-88900000D03*
G04 #@! TO.P, ,1*
X89780303Y-88900000D03*
G04 #@! TD*
D11*
G04 #@! TO.P, ,1*
G04 #@! TO.N,N/C*
X88680303Y-69850000D03*
G04 #@! TO.P, ,2*
X85880303Y-69850000D03*
D12*
X83380303Y-69850000D03*
D13*
G04 #@! TO.P, ,1*
X91180303Y-69850000D03*
D14*
G04 #@! TO.P, ,2*
X84780303Y-69850000D03*
G04 #@! TO.P, ,1*
X89780303Y-69850000D03*
G04 #@! TD*
D11*
G04 #@! TO.P, ,1*
G04 #@! TO.N,N/C*
X69687231Y-90170000D03*
G04 #@! TO.P, ,2*
X66887231Y-90170000D03*
D12*
X64387231Y-90170000D03*
D13*
G04 #@! TO.P, ,1*
X72187231Y-90170000D03*
D14*
G04 #@! TO.P, ,2*
X65787231Y-90170000D03*
G04 #@! TO.P, ,1*
X70787231Y-90170000D03*
G04 #@! TD*
D11*
G04 #@! TO.P, ,1*
G04 #@! TO.N,N/C*
X70195231Y-111490000D03*
G04 #@! TO.P, ,2*
X67395231Y-111490000D03*
D12*
X64895231Y-111490000D03*
D13*
G04 #@! TO.P, ,1*
X72695231Y-111490000D03*
D14*
G04 #@! TO.P, ,2*
X66295231Y-111490000D03*
G04 #@! TO.P, ,1*
X71295231Y-111490000D03*
G04 #@! TD*
D11*
G04 #@! TO.P, ,1*
G04 #@! TO.N,N/C*
X50930000Y-111490000D03*
G04 #@! TO.P, ,2*
X48130000Y-111490000D03*
D12*
X45630000Y-111490000D03*
D13*
G04 #@! TO.P, ,1*
X53430000Y-111490000D03*
D14*
G04 #@! TO.P, ,2*
X47030000Y-111490000D03*
G04 #@! TO.P, ,1*
X52030000Y-111490000D03*
G04 #@! TD*
D11*
G04 #@! TO.P, ,1*
G04 #@! TO.N,N/C*
X50930000Y-92710000D03*
G04 #@! TO.P, ,2*
X48130000Y-92710000D03*
D12*
X45630000Y-92710000D03*
D13*
G04 #@! TO.P, ,1*
X53430000Y-92710000D03*
D14*
G04 #@! TO.P, ,2*
X47030000Y-92710000D03*
G04 #@! TO.P, ,1*
X52030000Y-92710000D03*
G04 #@! TD*
D11*
G04 #@! TO.P, ,1*
G04 #@! TO.N,N/C*
X88680303Y-50800000D03*
G04 #@! TO.P, ,2*
X85880303Y-50800000D03*
D12*
X83380303Y-50800000D03*
D13*
G04 #@! TO.P, ,1*
X91180303Y-50800000D03*
D14*
G04 #@! TO.P, ,2*
X84780303Y-50800000D03*
G04 #@! TO.P, ,1*
X89780303Y-50800000D03*
G04 #@! TD*
D11*
G04 #@! TO.P, ,1*
G04 #@! TO.N,N/C*
X69687231Y-52070000D03*
G04 #@! TO.P, ,2*
X66887231Y-52070000D03*
D12*
X64387231Y-52070000D03*
D13*
G04 #@! TO.P, ,1*
X72187231Y-52070000D03*
D14*
G04 #@! TO.P, ,2*
X65787231Y-52070000D03*
G04 #@! TO.P, ,1*
X70787231Y-52070000D03*
G04 #@! TD*
D11*
G04 #@! TO.P, ,1*
G04 #@! TO.N,N/C*
X69687231Y-71120000D03*
G04 #@! TO.P, ,2*
X66887231Y-71120000D03*
D12*
X64387231Y-71120000D03*
D13*
G04 #@! TO.P, ,1*
X72187231Y-71120000D03*
D14*
G04 #@! TO.P, ,2*
X65787231Y-71120000D03*
G04 #@! TO.P, ,1*
X70787231Y-71120000D03*
G04 #@! TD*
D11*
G04 #@! TO.P, ,1*
G04 #@! TO.N,N/C*
X50422000Y-73660000D03*
G04 #@! TO.P, ,2*
X47622000Y-73660000D03*
D12*
X45122000Y-73660000D03*
D13*
G04 #@! TO.P, ,1*
X52922000Y-73660000D03*
D14*
G04 #@! TO.P, ,2*
X46522000Y-73660000D03*
G04 #@! TO.P, ,1*
X51522000Y-73660000D03*
G04 #@! TD*
D11*
G04 #@! TO.P, ,1*
G04 #@! TO.N,N/C*
X50422000Y-54610000D03*
G04 #@! TO.P, ,2*
X47622000Y-54610000D03*
D12*
X45122000Y-54610000D03*
D13*
G04 #@! TO.P, ,1*
X52922000Y-54610000D03*
D14*
G04 #@! TO.P, ,2*
X46522000Y-54610000D03*
G04 #@! TO.P, ,1*
X51522000Y-54610000D03*
G04 #@! TD*
D15*
G04 #@! TO.P, ,*
G04 #@! TO.N,*
X43962000Y-59554000D03*
X54402000Y-59554000D03*
D16*
G04 #@! TO.P, ,4*
G04 #@! TO.N,N/C*
X47912000Y-58824000D03*
G04 #@! TO.P, ,3*
X50412000Y-58774000D03*
D17*
G04 #@! TO.P, ,1*
G04 #@! TO.N,col0*
X46662000Y-68254000D03*
G04 #@! TO.P, ,2*
G04 #@! TO.N,col0_row0*
X51702000Y-68254000D03*
D18*
G04 #@! TO.P, ,1*
G04 #@! TO.N,col0*
X45372000Y-66294000D03*
G04 #@! TO.P, ,2*
G04 #@! TO.N,col0_row0*
X52992000Y-66294000D03*
D19*
G04 #@! TO.P, ,*
G04 #@! TO.N,*
X44032000Y-58754000D03*
D20*
G04 #@! TO.P, ,2*
G04 #@! TO.N,col0_row0*
X54182000Y-67554000D03*
D19*
G04 #@! TO.P, ,*
G04 #@! TO.N,*
X54332000Y-58754000D03*
G04 #@! TO.P, ,5*
G04 #@! TO.N,N/C*
X49182000Y-69654000D03*
D20*
G04 #@! TO.P, ,1*
G04 #@! TO.N,col0*
X44182000Y-67554000D03*
G04 #@! TD*
D15*
G04 #@! TO.P, ,*
G04 #@! TO.N,*
X139210303Y-58059730D03*
X149650303Y-58059730D03*
D16*
G04 #@! TO.P, ,4*
G04 #@! TO.N,N/C*
X143160303Y-57329730D03*
G04 #@! TO.P, ,3*
X145660303Y-57279730D03*
D17*
G04 #@! TO.P, ,1*
G04 #@! TO.N,col5*
X141910303Y-66759730D03*
G04 #@! TO.P, ,2*
G04 #@! TO.N,col5_row0*
X146950303Y-66759730D03*
D18*
G04 #@! TO.P, ,1*
G04 #@! TO.N,col5*
X140620303Y-64799730D03*
G04 #@! TO.P, ,2*
G04 #@! TO.N,col5_row0*
X148240303Y-64799730D03*
D19*
G04 #@! TO.P, ,*
G04 #@! TO.N,*
X139280303Y-57259730D03*
D20*
G04 #@! TO.P, ,2*
G04 #@! TO.N,col5_row0*
X149430303Y-66059730D03*
D19*
G04 #@! TO.P, ,*
G04 #@! TO.N,*
X149580303Y-57259730D03*
G04 #@! TO.P, ,5*
G04 #@! TO.N,N/C*
X144430303Y-68159730D03*
D20*
G04 #@! TO.P, ,1*
G04 #@! TO.N,col5*
X139430303Y-66059730D03*
G04 #@! TD*
D15*
G04 #@! TO.P, ,*
G04 #@! TO.N,*
X139210303Y-77109730D03*
X149650303Y-77109730D03*
D16*
G04 #@! TO.P, ,4*
G04 #@! TO.N,N/C*
X143160303Y-76379730D03*
G04 #@! TO.P, ,3*
X145660303Y-76329730D03*
D17*
G04 #@! TO.P, ,1*
G04 #@! TO.N,col5*
X141910303Y-85809730D03*
G04 #@! TO.P, ,2*
G04 #@! TO.N,col5_row1*
X146950303Y-85809730D03*
D18*
G04 #@! TO.P, ,1*
G04 #@! TO.N,col5*
X140620303Y-83849730D03*
G04 #@! TO.P, ,2*
G04 #@! TO.N,col5_row1*
X148240303Y-83849730D03*
D19*
G04 #@! TO.P, ,*
G04 #@! TO.N,*
X139280303Y-76309730D03*
D20*
G04 #@! TO.P, ,2*
G04 #@! TO.N,col5_row1*
X149430303Y-85109730D03*
D19*
G04 #@! TO.P, ,*
G04 #@! TO.N,*
X149580303Y-76309730D03*
G04 #@! TO.P, ,5*
G04 #@! TO.N,N/C*
X144430303Y-87209730D03*
D20*
G04 #@! TO.P, ,1*
G04 #@! TO.N,col5*
X139430303Y-85109730D03*
G04 #@! TD*
D15*
G04 #@! TO.P, ,*
G04 #@! TO.N,*
X139210303Y-96159730D03*
X149650303Y-96159730D03*
D16*
G04 #@! TO.P, ,4*
G04 #@! TO.N,N/C*
X143160303Y-95429730D03*
G04 #@! TO.P, ,3*
X145660303Y-95379730D03*
D17*
G04 #@! TO.P, ,1*
G04 #@! TO.N,col5*
X141910303Y-104859730D03*
G04 #@! TO.P, ,2*
G04 #@! TO.N,col5_row2*
X146950303Y-104859730D03*
D18*
G04 #@! TO.P, ,1*
G04 #@! TO.N,col5*
X140620303Y-102899730D03*
G04 #@! TO.P, ,2*
G04 #@! TO.N,col5_row2*
X148240303Y-102899730D03*
D19*
G04 #@! TO.P, ,*
G04 #@! TO.N,*
X139280303Y-95359730D03*
D20*
G04 #@! TO.P, ,2*
G04 #@! TO.N,col5_row2*
X149430303Y-104159730D03*
D19*
G04 #@! TO.P, ,*
G04 #@! TO.N,*
X149580303Y-95359730D03*
G04 #@! TO.P, ,5*
G04 #@! TO.N,N/C*
X144430303Y-106259730D03*
D20*
G04 #@! TO.P, ,1*
G04 #@! TO.N,col5*
X139430303Y-104159730D03*
G04 #@! TD*
D15*
G04 #@! TO.P, ,*
G04 #@! TO.N,*
X139210303Y-116733730D03*
X149650303Y-116733730D03*
D16*
G04 #@! TO.P, ,4*
G04 #@! TO.N,N/C*
X143160303Y-116003730D03*
G04 #@! TO.P, ,3*
X145660303Y-115953730D03*
D17*
G04 #@! TO.P, ,1*
G04 #@! TO.N,col5*
X141910303Y-125433730D03*
G04 #@! TO.P, ,2*
G04 #@! TO.N,col5_row3*
X146950303Y-125433730D03*
D18*
G04 #@! TO.P, ,1*
G04 #@! TO.N,col5*
X140620303Y-123473730D03*
G04 #@! TO.P, ,2*
G04 #@! TO.N,col5_row3*
X148240303Y-123473730D03*
D19*
G04 #@! TO.P, ,*
G04 #@! TO.N,*
X139280303Y-115933730D03*
D20*
G04 #@! TO.P, ,2*
G04 #@! TO.N,col5_row3*
X149430303Y-124733730D03*
D19*
G04 #@! TO.P, ,*
G04 #@! TO.N,*
X149580303Y-115933730D03*
G04 #@! TO.P, ,5*
G04 #@! TO.N,N/C*
X144430303Y-126833730D03*
D20*
G04 #@! TO.P, ,1*
G04 #@! TO.N,col5*
X139430303Y-124733730D03*
G04 #@! TD*
D15*
G04 #@! TO.P, ,*
G04 #@! TO.N,*
X120160303Y-116733730D03*
X130600303Y-116733730D03*
D16*
G04 #@! TO.P, ,4*
G04 #@! TO.N,N/C*
X124110303Y-116003730D03*
G04 #@! TO.P, ,3*
X126610303Y-115953730D03*
D17*
G04 #@! TO.P, ,1*
G04 #@! TO.N,col4*
X122860303Y-125433730D03*
G04 #@! TO.P, ,2*
G04 #@! TO.N,col4_row3*
X127900303Y-125433730D03*
D18*
G04 #@! TO.P, ,1*
G04 #@! TO.N,col4*
X121570303Y-123473730D03*
G04 #@! TO.P, ,2*
G04 #@! TO.N,col4_row3*
X129190303Y-123473730D03*
D19*
G04 #@! TO.P, ,*
G04 #@! TO.N,*
X120230303Y-115933730D03*
D20*
G04 #@! TO.P, ,2*
G04 #@! TO.N,col4_row3*
X130380303Y-124733730D03*
D19*
G04 #@! TO.P, ,*
G04 #@! TO.N,*
X130530303Y-115933730D03*
G04 #@! TO.P, ,5*
G04 #@! TO.N,N/C*
X125380303Y-126833730D03*
D20*
G04 #@! TO.P, ,1*
G04 #@! TO.N,col4*
X120380303Y-124733730D03*
G04 #@! TD*
D15*
G04 #@! TO.P, ,*
G04 #@! TO.N,*
X101110303Y-116733730D03*
X111550303Y-116733730D03*
D16*
G04 #@! TO.P, ,4*
G04 #@! TO.N,N/C*
X105060303Y-116003730D03*
G04 #@! TO.P, ,3*
X107560303Y-115953730D03*
D17*
G04 #@! TO.P, ,1*
G04 #@! TO.N,col3*
X103810303Y-125433730D03*
G04 #@! TO.P, ,2*
G04 #@! TO.N,col3_row3*
X108850303Y-125433730D03*
D18*
G04 #@! TO.P, ,1*
G04 #@! TO.N,col3*
X102520303Y-123473730D03*
G04 #@! TO.P, ,2*
G04 #@! TO.N,col3_row3*
X110140303Y-123473730D03*
D19*
G04 #@! TO.P, ,*
G04 #@! TO.N,*
X101180303Y-115933730D03*
D20*
G04 #@! TO.P, ,2*
G04 #@! TO.N,col3_row3*
X111330303Y-124733730D03*
D19*
G04 #@! TO.P, ,*
G04 #@! TO.N,*
X111480303Y-115933730D03*
G04 #@! TO.P, ,5*
G04 #@! TO.N,N/C*
X106330303Y-126833730D03*
D20*
G04 #@! TO.P, ,1*
G04 #@! TO.N,col3*
X101330303Y-124733730D03*
G04 #@! TD*
D15*
G04 #@! TO.P, ,*
G04 #@! TO.N,*
X82060303Y-116733730D03*
X92500303Y-116733730D03*
D16*
G04 #@! TO.P, ,4*
G04 #@! TO.N,N/C*
X86010303Y-116003730D03*
G04 #@! TO.P, ,3*
X88510303Y-115953730D03*
D17*
G04 #@! TO.P, ,1*
G04 #@! TO.N,col2*
X84760303Y-125433730D03*
G04 #@! TO.P, ,2*
G04 #@! TO.N,col2_row3*
X89800303Y-125433730D03*
D18*
G04 #@! TO.P, ,1*
G04 #@! TO.N,col2*
X83470303Y-123473730D03*
G04 #@! TO.P, ,2*
G04 #@! TO.N,col2_row3*
X91090303Y-123473730D03*
D19*
G04 #@! TO.P, ,*
G04 #@! TO.N,*
X82130303Y-115933730D03*
D20*
G04 #@! TO.P, ,2*
G04 #@! TO.N,col2_row3*
X92280303Y-124733730D03*
D19*
G04 #@! TO.P, ,*
G04 #@! TO.N,*
X92430303Y-115933730D03*
G04 #@! TO.P, ,5*
G04 #@! TO.N,N/C*
X87280303Y-126833730D03*
D20*
G04 #@! TO.P, ,1*
G04 #@! TO.N,col2*
X82280303Y-124733730D03*
G04 #@! TD*
D15*
G04 #@! TO.P, ,*
G04 #@! TO.N,*
X120160303Y-93619730D03*
X130600303Y-93619730D03*
D16*
G04 #@! TO.P, ,4*
G04 #@! TO.N,N/C*
X124110303Y-92889730D03*
G04 #@! TO.P, ,3*
X126610303Y-92839730D03*
D17*
G04 #@! TO.P, ,1*
G04 #@! TO.N,col4*
X122860303Y-102319730D03*
G04 #@! TO.P, ,2*
G04 #@! TO.N,col4_row2*
X127900303Y-102319730D03*
D18*
G04 #@! TO.P, ,1*
G04 #@! TO.N,col4*
X121570303Y-100359730D03*
G04 #@! TO.P, ,2*
G04 #@! TO.N,col4_row2*
X129190303Y-100359730D03*
D19*
G04 #@! TO.P, ,*
G04 #@! TO.N,*
X120230303Y-92819730D03*
D20*
G04 #@! TO.P, ,2*
G04 #@! TO.N,col4_row2*
X130380303Y-101619730D03*
D19*
G04 #@! TO.P, ,*
G04 #@! TO.N,*
X130530303Y-92819730D03*
G04 #@! TO.P, ,5*
G04 #@! TO.N,N/C*
X125380303Y-103719730D03*
D20*
G04 #@! TO.P, ,1*
G04 #@! TO.N,col4*
X120380303Y-101619730D03*
G04 #@! TD*
D15*
G04 #@! TO.P, ,*
G04 #@! TO.N,*
X120160303Y-74569730D03*
X130600303Y-74569730D03*
D16*
G04 #@! TO.P, ,4*
G04 #@! TO.N,N/C*
X124110303Y-73839730D03*
G04 #@! TO.P, ,3*
X126610303Y-73789730D03*
D17*
G04 #@! TO.P, ,1*
G04 #@! TO.N,col4*
X122860303Y-83269730D03*
G04 #@! TO.P, ,2*
G04 #@! TO.N,col4_row1*
X127900303Y-83269730D03*
D18*
G04 #@! TO.P, ,1*
G04 #@! TO.N,col4*
X121570303Y-81309730D03*
G04 #@! TO.P, ,2*
G04 #@! TO.N,col4_row1*
X129190303Y-81309730D03*
D19*
G04 #@! TO.P, ,*
G04 #@! TO.N,*
X120230303Y-73769730D03*
D20*
G04 #@! TO.P, ,2*
G04 #@! TO.N,col4_row1*
X130380303Y-82569730D03*
D19*
G04 #@! TO.P, ,*
G04 #@! TO.N,*
X130530303Y-73769730D03*
G04 #@! TO.P, ,5*
G04 #@! TO.N,N/C*
X125380303Y-84669730D03*
D20*
G04 #@! TO.P, ,1*
G04 #@! TO.N,col4*
X120380303Y-82569730D03*
G04 #@! TD*
D15*
G04 #@! TO.P, ,*
G04 #@! TO.N,*
X120160303Y-55519730D03*
X130600303Y-55519730D03*
D16*
G04 #@! TO.P, ,4*
G04 #@! TO.N,N/C*
X124110303Y-54789730D03*
G04 #@! TO.P, ,3*
X126610303Y-54739730D03*
D17*
G04 #@! TO.P, ,1*
G04 #@! TO.N,col4*
X122860303Y-64219730D03*
G04 #@! TO.P, ,2*
G04 #@! TO.N,col4_row0*
X127900303Y-64219730D03*
D18*
G04 #@! TO.P, ,1*
G04 #@! TO.N,col4*
X121570303Y-62259730D03*
G04 #@! TO.P, ,2*
G04 #@! TO.N,col4_row0*
X129190303Y-62259730D03*
D19*
G04 #@! TO.P, ,*
G04 #@! TO.N,*
X120230303Y-54719730D03*
D20*
G04 #@! TO.P, ,2*
G04 #@! TO.N,col4_row0*
X130380303Y-63519730D03*
D19*
G04 #@! TO.P, ,*
G04 #@! TO.N,*
X130530303Y-54719730D03*
G04 #@! TO.P, ,5*
G04 #@! TO.N,N/C*
X125380303Y-65619730D03*
D20*
G04 #@! TO.P, ,1*
G04 #@! TO.N,col4*
X120380303Y-63519730D03*
G04 #@! TD*
D15*
G04 #@! TO.P, ,*
G04 #@! TO.N,*
X101110303Y-54249730D03*
X111550303Y-54249730D03*
D16*
G04 #@! TO.P, ,4*
G04 #@! TO.N,N/C*
X105060303Y-53519730D03*
G04 #@! TO.P, ,3*
X107560303Y-53469730D03*
D17*
G04 #@! TO.P, ,1*
G04 #@! TO.N,col3*
X103810303Y-62949730D03*
G04 #@! TO.P, ,2*
G04 #@! TO.N,col3_row0*
X108850303Y-62949730D03*
D18*
G04 #@! TO.P, ,1*
G04 #@! TO.N,col3*
X102520303Y-60989730D03*
G04 #@! TO.P, ,2*
G04 #@! TO.N,col3_row0*
X110140303Y-60989730D03*
D19*
G04 #@! TO.P, ,*
G04 #@! TO.N,*
X101180303Y-53449730D03*
D20*
G04 #@! TO.P, ,2*
G04 #@! TO.N,col3_row0*
X111330303Y-62249730D03*
D19*
G04 #@! TO.P, ,*
G04 #@! TO.N,*
X111480303Y-53449730D03*
G04 #@! TO.P, ,5*
G04 #@! TO.N,N/C*
X106330303Y-64349730D03*
D20*
G04 #@! TO.P, ,1*
G04 #@! TO.N,col3*
X101330303Y-62249730D03*
G04 #@! TD*
D15*
G04 #@! TO.P, ,*
G04 #@! TO.N,*
X101110303Y-73299730D03*
X111550303Y-73299730D03*
D16*
G04 #@! TO.P, ,4*
G04 #@! TO.N,N/C*
X105060303Y-72569730D03*
G04 #@! TO.P, ,3*
X107560303Y-72519730D03*
D17*
G04 #@! TO.P, ,1*
G04 #@! TO.N,col3*
X103810303Y-81999730D03*
G04 #@! TO.P, ,2*
G04 #@! TO.N,col3_row1*
X108850303Y-81999730D03*
D18*
G04 #@! TO.P, ,1*
G04 #@! TO.N,col3*
X102520303Y-80039730D03*
G04 #@! TO.P, ,2*
G04 #@! TO.N,col3_row1*
X110140303Y-80039730D03*
D19*
G04 #@! TO.P, ,*
G04 #@! TO.N,*
X101180303Y-72499730D03*
D20*
G04 #@! TO.P, ,2*
G04 #@! TO.N,col3_row1*
X111330303Y-81299730D03*
D19*
G04 #@! TO.P, ,*
G04 #@! TO.N,*
X111480303Y-72499730D03*
G04 #@! TO.P, ,5*
G04 #@! TO.N,N/C*
X106330303Y-83399730D03*
D20*
G04 #@! TO.P, ,1*
G04 #@! TO.N,col3*
X101330303Y-81299730D03*
G04 #@! TD*
D15*
G04 #@! TO.P, ,*
G04 #@! TO.N,*
X101110303Y-92349730D03*
X111550303Y-92349730D03*
D16*
G04 #@! TO.P, ,4*
G04 #@! TO.N,N/C*
X105060303Y-91619730D03*
G04 #@! TO.P, ,3*
X107560303Y-91569730D03*
D17*
G04 #@! TO.P, ,1*
G04 #@! TO.N,col3*
X103810303Y-101049730D03*
G04 #@! TO.P, ,2*
G04 #@! TO.N,col3_row2*
X108850303Y-101049730D03*
D18*
G04 #@! TO.P, ,1*
G04 #@! TO.N,col3*
X102520303Y-99089730D03*
G04 #@! TO.P, ,2*
G04 #@! TO.N,col3_row2*
X110140303Y-99089730D03*
D19*
G04 #@! TO.P, ,*
G04 #@! TO.N,*
X101180303Y-91549730D03*
D20*
G04 #@! TO.P, ,2*
G04 #@! TO.N,col3_row2*
X111330303Y-100349730D03*
D19*
G04 #@! TO.P, ,*
G04 #@! TO.N,*
X111480303Y-91549730D03*
G04 #@! TO.P, ,5*
G04 #@! TO.N,N/C*
X106330303Y-102449730D03*
D20*
G04 #@! TO.P, ,1*
G04 #@! TO.N,col3*
X101330303Y-100349730D03*
G04 #@! TD*
D15*
G04 #@! TO.P, ,*
G04 #@! TO.N,*
X82060303Y-93873730D03*
X92500303Y-93873730D03*
D16*
G04 #@! TO.P, ,4*
G04 #@! TO.N,N/C*
X86010303Y-93143730D03*
G04 #@! TO.P, ,3*
X88510303Y-93093730D03*
D17*
G04 #@! TO.P, ,1*
G04 #@! TO.N,col2*
X84760303Y-102573730D03*
G04 #@! TO.P, ,2*
G04 #@! TO.N,col2_row2*
X89800303Y-102573730D03*
D18*
G04 #@! TO.P, ,1*
G04 #@! TO.N,col2*
X83470303Y-100613730D03*
G04 #@! TO.P, ,2*
G04 #@! TO.N,col2_row2*
X91090303Y-100613730D03*
D19*
G04 #@! TO.P, ,*
G04 #@! TO.N,*
X82130303Y-93073730D03*
D20*
G04 #@! TO.P, ,2*
G04 #@! TO.N,col2_row2*
X92280303Y-101873730D03*
D19*
G04 #@! TO.P, ,*
G04 #@! TO.N,*
X92430303Y-93073730D03*
G04 #@! TO.P, ,5*
G04 #@! TO.N,N/C*
X87280303Y-103973730D03*
D20*
G04 #@! TO.P, ,1*
G04 #@! TO.N,col2*
X82280303Y-101873730D03*
G04 #@! TD*
D15*
G04 #@! TO.P, ,*
G04 #@! TO.N,*
X82060303Y-74823730D03*
X92500303Y-74823730D03*
D16*
G04 #@! TO.P, ,4*
G04 #@! TO.N,N/C*
X86010303Y-74093730D03*
G04 #@! TO.P, ,3*
X88510303Y-74043730D03*
D17*
G04 #@! TO.P, ,1*
G04 #@! TO.N,col2*
X84760303Y-83523730D03*
G04 #@! TO.P, ,2*
G04 #@! TO.N,col2_row1*
X89800303Y-83523730D03*
D18*
G04 #@! TO.P, ,1*
G04 #@! TO.N,col2*
X83470303Y-81563730D03*
G04 #@! TO.P, ,2*
G04 #@! TO.N,col2_row1*
X91090303Y-81563730D03*
D19*
G04 #@! TO.P, ,*
G04 #@! TO.N,*
X82130303Y-74023730D03*
D20*
G04 #@! TO.P, ,2*
G04 #@! TO.N,col2_row1*
X92280303Y-82823730D03*
D19*
G04 #@! TO.P, ,*
G04 #@! TO.N,*
X92430303Y-74023730D03*
G04 #@! TO.P, ,5*
G04 #@! TO.N,N/C*
X87280303Y-84923730D03*
D20*
G04 #@! TO.P, ,1*
G04 #@! TO.N,col2*
X82280303Y-82823730D03*
G04 #@! TD*
D15*
G04 #@! TO.P, ,*
G04 #@! TO.N,*
X82060303Y-55769730D03*
X92500303Y-55769730D03*
D16*
G04 #@! TO.P, ,4*
G04 #@! TO.N,N/C*
X86010303Y-55039730D03*
G04 #@! TO.P, ,3*
X88510303Y-54989730D03*
D17*
G04 #@! TO.P, ,1*
G04 #@! TO.N,col2*
X84760303Y-64469730D03*
G04 #@! TO.P, ,2*
G04 #@! TO.N,col2_row0*
X89800303Y-64469730D03*
D18*
G04 #@! TO.P, ,1*
G04 #@! TO.N,col2*
X83470303Y-62509730D03*
G04 #@! TO.P, ,2*
G04 #@! TO.N,col2_row0*
X91090303Y-62509730D03*
D19*
G04 #@! TO.P, ,*
G04 #@! TO.N,*
X82130303Y-54969730D03*
D20*
G04 #@! TO.P, ,2*
G04 #@! TO.N,col2_row0*
X92280303Y-63769730D03*
D19*
G04 #@! TO.P, ,*
G04 #@! TO.N,*
X92430303Y-54969730D03*
G04 #@! TO.P, ,5*
G04 #@! TO.N,N/C*
X87280303Y-65869730D03*
D20*
G04 #@! TO.P, ,1*
G04 #@! TO.N,col2*
X82280303Y-63769730D03*
G04 #@! TD*
D15*
G04 #@! TO.P, ,*
G04 #@! TO.N,*
X63007231Y-57003730D03*
X73447231Y-57003730D03*
D16*
G04 #@! TO.P, ,4*
G04 #@! TO.N,N/C*
X66957231Y-56273730D03*
G04 #@! TO.P, ,3*
X69457231Y-56223730D03*
D17*
G04 #@! TO.P, ,1*
G04 #@! TO.N,col1*
X65707231Y-65703730D03*
G04 #@! TO.P, ,2*
G04 #@! TO.N,col1_row0*
X70747231Y-65703730D03*
D18*
G04 #@! TO.P, ,1*
G04 #@! TO.N,col1*
X64417231Y-63743730D03*
G04 #@! TO.P, ,2*
G04 #@! TO.N,col1_row0*
X72037231Y-63743730D03*
D19*
G04 #@! TO.P, ,*
G04 #@! TO.N,*
X63077231Y-56203730D03*
D20*
G04 #@! TO.P, ,2*
G04 #@! TO.N,col1_row0*
X73227231Y-65003730D03*
D19*
G04 #@! TO.P, ,*
G04 #@! TO.N,*
X73377231Y-56203730D03*
G04 #@! TO.P, ,5*
G04 #@! TO.N,N/C*
X68227231Y-67103730D03*
D20*
G04 #@! TO.P, ,1*
G04 #@! TO.N,col1*
X63227231Y-65003730D03*
G04 #@! TD*
D15*
G04 #@! TO.P, ,*
G04 #@! TO.N,*
X63007231Y-76051829D03*
X73447231Y-76051829D03*
D16*
G04 #@! TO.P, ,4*
G04 #@! TO.N,N/C*
X66957231Y-75321829D03*
G04 #@! TO.P, ,3*
X69457231Y-75271829D03*
D17*
G04 #@! TO.P, ,1*
G04 #@! TO.N,col1*
X65707231Y-84751829D03*
G04 #@! TO.P, ,2*
G04 #@! TO.N,col1_row1*
X70747231Y-84751829D03*
D18*
G04 #@! TO.P, ,1*
G04 #@! TO.N,col1*
X64417231Y-82791829D03*
G04 #@! TO.P, ,2*
G04 #@! TO.N,col1_row1*
X72037231Y-82791829D03*
D19*
G04 #@! TO.P, ,*
G04 #@! TO.N,*
X63077231Y-75251829D03*
D20*
G04 #@! TO.P, ,2*
G04 #@! TO.N,col1_row1*
X73227231Y-84051829D03*
D19*
G04 #@! TO.P, ,*
G04 #@! TO.N,*
X73377231Y-75251829D03*
G04 #@! TO.P, ,5*
G04 #@! TO.N,N/C*
X68227231Y-86151829D03*
D20*
G04 #@! TO.P, ,1*
G04 #@! TO.N,col1*
X63227231Y-84051829D03*
G04 #@! TD*
D15*
G04 #@! TO.P, ,*
G04 #@! TO.N,*
X63007231Y-95100230D03*
X73447231Y-95100230D03*
D16*
G04 #@! TO.P, ,4*
G04 #@! TO.N,N/C*
X66957231Y-94370230D03*
G04 #@! TO.P, ,3*
X69457231Y-94320230D03*
D17*
G04 #@! TO.P, ,1*
G04 #@! TO.N,col1*
X65707231Y-103800230D03*
G04 #@! TO.P, ,2*
G04 #@! TO.N,col1_row2*
X70747231Y-103800230D03*
D18*
G04 #@! TO.P, ,1*
G04 #@! TO.N,col1*
X64417231Y-101840230D03*
G04 #@! TO.P, ,2*
G04 #@! TO.N,col1_row2*
X72037231Y-101840230D03*
D19*
G04 #@! TO.P, ,*
G04 #@! TO.N,*
X63077231Y-94300230D03*
D20*
G04 #@! TO.P, ,2*
G04 #@! TO.N,col1_row2*
X73227231Y-103100230D03*
D19*
G04 #@! TO.P, ,*
G04 #@! TO.N,*
X73377231Y-94300230D03*
G04 #@! TO.P, ,5*
G04 #@! TO.N,N/C*
X68227231Y-105200230D03*
D20*
G04 #@! TO.P, ,1*
G04 #@! TO.N,col1*
X63227231Y-103100230D03*
G04 #@! TD*
D15*
G04 #@! TO.P, ,*
G04 #@! TO.N,*
X63007231Y-116733730D03*
X73447231Y-116733730D03*
D16*
G04 #@! TO.P, ,4*
G04 #@! TO.N,N/C*
X66957231Y-116003730D03*
G04 #@! TO.P, ,3*
X69457231Y-115953730D03*
D17*
G04 #@! TO.P, ,1*
G04 #@! TO.N,col1*
X65707231Y-125433730D03*
G04 #@! TO.P, ,2*
G04 #@! TO.N,col1_row3*
X70747231Y-125433730D03*
D18*
G04 #@! TO.P, ,1*
G04 #@! TO.N,col1*
X64417231Y-123473730D03*
G04 #@! TO.P, ,2*
G04 #@! TO.N,col1_row3*
X72037231Y-123473730D03*
D19*
G04 #@! TO.P, ,*
G04 #@! TO.N,*
X63077231Y-115933730D03*
D20*
G04 #@! TO.P, ,2*
G04 #@! TO.N,col1_row3*
X73227231Y-124733730D03*
D19*
G04 #@! TO.P, ,*
G04 #@! TO.N,*
X73377231Y-115933730D03*
G04 #@! TO.P, ,5*
G04 #@! TO.N,N/C*
X68227231Y-126833730D03*
D20*
G04 #@! TO.P, ,1*
G04 #@! TO.N,col1*
X63227231Y-124733730D03*
G04 #@! TD*
D15*
G04 #@! TO.P, ,*
G04 #@! TO.N,*
X43962000Y-116704000D03*
X54402000Y-116704000D03*
D16*
G04 #@! TO.P, ,4*
G04 #@! TO.N,N/C*
X47912000Y-115974000D03*
G04 #@! TO.P, ,3*
X50412000Y-115924000D03*
D17*
G04 #@! TO.P, ,1*
G04 #@! TO.N,col0*
X46662000Y-125404000D03*
G04 #@! TO.P, ,2*
G04 #@! TO.N,col0_row3*
X51702000Y-125404000D03*
D18*
G04 #@! TO.P, ,1*
G04 #@! TO.N,col0*
X45372000Y-123444000D03*
G04 #@! TO.P, ,2*
G04 #@! TO.N,col0_row3*
X52992000Y-123444000D03*
D19*
G04 #@! TO.P, ,*
G04 #@! TO.N,*
X44032000Y-115904000D03*
D20*
G04 #@! TO.P, ,2*
G04 #@! TO.N,col0_row3*
X54182000Y-124704000D03*
D19*
G04 #@! TO.P, ,*
G04 #@! TO.N,*
X54332000Y-115904000D03*
G04 #@! TO.P, ,5*
G04 #@! TO.N,N/C*
X49182000Y-126804000D03*
D20*
G04 #@! TO.P, ,1*
G04 #@! TO.N,col0*
X44182000Y-124704000D03*
G04 #@! TD*
D15*
G04 #@! TO.P, ,*
G04 #@! TO.N,*
X43962000Y-97654000D03*
X54402000Y-97654000D03*
D16*
G04 #@! TO.P, ,4*
G04 #@! TO.N,N/C*
X47912000Y-96924000D03*
G04 #@! TO.P, ,3*
X50412000Y-96874000D03*
D17*
G04 #@! TO.P, ,1*
G04 #@! TO.N,col0*
X46662000Y-106354000D03*
G04 #@! TO.P, ,2*
G04 #@! TO.N,col0_row2*
X51702000Y-106354000D03*
D18*
G04 #@! TO.P, ,1*
G04 #@! TO.N,col0*
X45372000Y-104394000D03*
G04 #@! TO.P, ,2*
G04 #@! TO.N,col0_row2*
X52992000Y-104394000D03*
D19*
G04 #@! TO.P, ,*
G04 #@! TO.N,*
X44032000Y-96854000D03*
D20*
G04 #@! TO.P, ,2*
G04 #@! TO.N,col0_row2*
X54182000Y-105654000D03*
D19*
G04 #@! TO.P, ,*
G04 #@! TO.N,*
X54332000Y-96854000D03*
G04 #@! TO.P, ,5*
G04 #@! TO.N,N/C*
X49182000Y-107754000D03*
D20*
G04 #@! TO.P, ,1*
G04 #@! TO.N,col0*
X44182000Y-105654000D03*
G04 #@! TD*
D15*
G04 #@! TO.P, ,*
G04 #@! TO.N,*
X43962000Y-78604000D03*
X54402000Y-78604000D03*
D16*
G04 #@! TO.P, ,4*
G04 #@! TO.N,N/C*
X47912000Y-77874000D03*
G04 #@! TO.P, ,3*
X50412000Y-77824000D03*
D17*
G04 #@! TO.P, ,1*
G04 #@! TO.N,col0*
X46662000Y-87304000D03*
G04 #@! TO.P, ,2*
G04 #@! TO.N,col0_row1*
X51702000Y-87304000D03*
D18*
G04 #@! TO.P, ,1*
G04 #@! TO.N,col0*
X45372000Y-85344000D03*
G04 #@! TO.P, ,2*
G04 #@! TO.N,col0_row1*
X52992000Y-85344000D03*
D19*
G04 #@! TO.P, ,*
G04 #@! TO.N,*
X44032000Y-77804000D03*
D20*
G04 #@! TO.P, ,2*
G04 #@! TO.N,col0_row1*
X54182000Y-86604000D03*
D19*
G04 #@! TO.P, ,*
G04 #@! TO.N,*
X54332000Y-77804000D03*
G04 #@! TO.P, ,5*
G04 #@! TO.N,N/C*
X49182000Y-88704000D03*
D20*
G04 #@! TO.P, ,1*
G04 #@! TO.N,col0*
X44182000Y-86604000D03*
G04 #@! TD*
D21*
G04 #@! TO.P,U1,1*
G04 #@! TO.N,N/C*
X60667231Y-49530000D03*
D22*
G04 #@! TO.P,U1,2*
X60667231Y-52070000D03*
G04 #@! TO.P,U1,3*
G04 #@! TO.N,RESET_GND*
X60667231Y-54610000D03*
G04 #@! TO.P,U1,4*
G04 #@! TO.N,N/C*
X60667231Y-57150000D03*
G04 #@! TO.P,U1,5*
G04 #@! TO.N,row0*
X60667231Y-59690000D03*
G04 #@! TO.P,U1,6*
G04 #@! TO.N,row1*
X60667231Y-62230000D03*
G04 #@! TO.P,U1,7*
G04 #@! TO.N,row2*
X60667231Y-64770000D03*
G04 #@! TO.P,U1,8*
G04 #@! TO.N,row3*
X60667231Y-67310000D03*
G04 #@! TO.P,U1,9*
G04 #@! TO.N,col0*
X60667231Y-69850000D03*
G04 #@! TO.P,U1,10*
G04 #@! TO.N,N/C*
X60667231Y-72390000D03*
G04 #@! TO.P,U1,11*
G04 #@! TO.N,col2*
X60667231Y-74930000D03*
G04 #@! TO.P,U1,13*
G04 #@! TO.N,col4*
X75907231Y-77470000D03*
G04 #@! TO.P,U1,14*
G04 #@! TO.N,N/C*
X75907231Y-74930000D03*
G04 #@! TO.P,U1,15*
G04 #@! TO.N,col3*
X75907231Y-72390000D03*
G04 #@! TO.P,U1,16*
G04 #@! TO.N,col5*
X75907231Y-69850000D03*
G04 #@! TO.P,U1,17*
G04 #@! TO.N,N/C*
X75907231Y-67310000D03*
G04 #@! TO.P,U1,18*
X75907231Y-64770000D03*
G04 #@! TO.P,U1,19*
X75907231Y-62230000D03*
G04 #@! TO.P,U1,20*
X75907231Y-59690000D03*
G04 #@! TO.P,U1,21*
X75907231Y-57150000D03*
G04 #@! TO.P,U1,22*
G04 #@! TO.N,RESET*
X75907231Y-54610000D03*
G04 #@! TO.P,U1,23*
G04 #@! TO.N,BAT_GND*
X75907231Y-52070000D03*
G04 #@! TO.P,U1,12*
G04 #@! TO.N,col1*
X60667231Y-77470000D03*
G04 #@! TO.P,U1,24*
G04 #@! TO.N,BAT0*
X75907231Y-49530000D03*
G04 #@! TD*
D23*
G04 #@! TO.P, ,2*
G04 #@! TO.N,BAT0*
X77470000Y-109220000D03*
D24*
G04 #@! TO.P, ,1*
G04 #@! TO.N,BAT_SW*
X80010000Y-109220000D03*
G04 #@! TD*
D25*
G04 #@! TO.P, ,1*
G04 #@! TO.N,RESET_GND*
X47068000Y-47498000D03*
G04 #@! TO.P, ,2*
G04 #@! TO.N,RESET*
X50468000Y-47498000D03*
G04 #@! TD*
D26*
G04 #@! TO.P, ,1*
G04 #@! TO.N,N/C*
X133132000Y-129126000D03*
G04 #@! TO.P, ,2*
G04 #@! TO.N,BAT_SW*
X136132000Y-129126000D03*
G04 #@! TO.P, ,3*
G04 #@! TO.N,BAT_GND*
X137632000Y-129126000D03*
D27*
G04 #@! TO.P, ,*
G04 #@! TO.N,*
X131732000Y-131986000D03*
X139032000Y-131986000D03*
X139032000Y-129776000D03*
X131732000Y-129776000D03*
G04 #@! TD*
D28*
G04 #@! TO.N,row3*
X78644884Y-111664884D03*
X91506652Y-110423348D03*
G04 #@! TO.N,col2*
X60960000Y-85090000D03*
X60960000Y-85090000D03*
X60960000Y-109220000D03*
G04 #@! TO.N,col3*
X96520000Y-63500000D03*
G04 #@! TO.N,row1*
X76200000Y-80010000D03*
X91117653Y-70797653D03*
G04 #@! TO.N,row2*
X58420000Y-69850000D03*
X75855001Y-89244999D03*
X91117653Y-87952347D03*
G04 #@! TO.N,BAT_SW*
X134839001Y-128050999D03*
G04 #@! TO.N,BAT_GND*
X132060501Y-130829499D03*
G04 #@! TO.N,RESET*
X51562000Y-47498000D03*
G04 #@! TO.N,RESET_GND*
X51656999Y-48673001D03*
G04 #@! TD*
D29*
G04 #@! TO.N,col0_row0*
X44746999Y-54099999D02*
X44746999Y-54610000D01*
X44746999Y-55120001D02*
X44746999Y-54099999D01*
X45720000Y-59117002D02*
X45720000Y-56093002D01*
X45720000Y-56093002D02*
X44746999Y-55120001D01*
X46901999Y-60299001D02*
X45720000Y-59117002D01*
X50139001Y-60299001D02*
X46901999Y-60299001D01*
X52992000Y-63152000D02*
X50139001Y-60299001D01*
X52992000Y-66294000D02*
X52992000Y-63152000D01*
G04 #@! TO.N,col2_row0*
X83005302Y-51310001D02*
X83005302Y-50800000D01*
X83705304Y-52010003D02*
X83005302Y-51310001D01*
X83705304Y-55219733D02*
X83705304Y-52010003D01*
X85000302Y-56514731D02*
X83705304Y-55219733D01*
X88006306Y-56514731D02*
X85000302Y-56514731D01*
X91090303Y-59598728D02*
X88006306Y-56514731D01*
X91090303Y-62509730D02*
X91090303Y-59598728D01*
G04 #@! TO.N,col3_row0*
X102055302Y-50040001D02*
X102055302Y-49530000D01*
X102755304Y-50740003D02*
X102055302Y-50040001D01*
X102755304Y-53699733D02*
X102755304Y-50740003D01*
X104050302Y-54994731D02*
X102755304Y-53699733D01*
X107064731Y-54994731D02*
X104050302Y-54994731D01*
X110140303Y-58070303D02*
X107064731Y-54994731D01*
X110140303Y-60989730D02*
X110140303Y-58070303D01*
G04 #@! TO.N,col4_row0*
X121105302Y-50289999D02*
X121105302Y-50800000D01*
X121105302Y-51310001D02*
X121105302Y-50289999D01*
X121920000Y-55084429D02*
X121920000Y-52124699D01*
X123100302Y-56264731D02*
X121920000Y-55084429D01*
X126106306Y-56264731D02*
X123100302Y-56264731D01*
X129190303Y-59348728D02*
X126106306Y-56264731D01*
X121920000Y-52124699D02*
X121105302Y-51310001D01*
X129190303Y-62259730D02*
X129190303Y-59348728D01*
G04 #@! TO.N,col5_row0*
X140155302Y-53850001D02*
X140155302Y-53340000D01*
X140855304Y-57509733D02*
X140855304Y-54550003D01*
X142150302Y-58804731D02*
X140855304Y-57509733D01*
X145156306Y-58804731D02*
X142150302Y-58804731D01*
X148240303Y-61888728D02*
X145156306Y-58804731D01*
X140855304Y-54550003D02*
X140155302Y-53850001D01*
X148240303Y-64799730D02*
X148240303Y-61888728D01*
G04 #@! TO.N,col0_row1*
X45607001Y-75030003D02*
X44746999Y-74170001D01*
X45607001Y-78054003D02*
X45607001Y-75030003D01*
X46901999Y-79349001D02*
X45607001Y-78054003D01*
X50139001Y-79349001D02*
X46901999Y-79349001D01*
X52992000Y-82202000D02*
X50139001Y-79349001D01*
X44746999Y-74170001D02*
X44746999Y-73660000D01*
X52992000Y-85344000D02*
X52992000Y-82202000D01*
G04 #@! TO.N,row3*
X60667231Y-67310000D02*
X59908410Y-67310000D01*
X49869999Y-91784999D02*
X49530000Y-92124998D01*
X51110003Y-91784999D02*
X49869999Y-91784999D01*
X55957001Y-86938001D02*
X51110003Y-91784999D01*
X55957001Y-71261409D02*
X55957001Y-86938001D01*
X59908410Y-67310000D02*
X55957001Y-71261409D01*
X53805001Y-111114999D02*
X53805001Y-111490000D01*
X55957001Y-101241999D02*
X55957001Y-108962999D01*
X52756999Y-98041997D02*
X55957001Y-101241999D01*
X52756999Y-96733997D02*
X52756999Y-98041997D01*
X49530000Y-93506998D02*
X52756999Y-96733997D01*
X49530000Y-92124998D02*
X49530000Y-93506998D01*
X73070232Y-112000001D02*
X73070232Y-111490000D01*
X73070232Y-110979999D02*
X73070232Y-112000001D01*
X56605001Y-109945001D02*
X72035234Y-109945001D01*
X55790000Y-109130000D02*
X56605001Y-109945001D01*
X55957001Y-108962999D02*
X55790000Y-109130000D01*
X55790000Y-109130000D02*
X53805001Y-111114999D01*
X72035234Y-109945001D02*
X72485116Y-110394884D01*
X72485116Y-110394884D02*
X73070232Y-110979999D01*
X73755116Y-111664884D02*
X78644884Y-111664884D01*
X72485116Y-110394884D02*
X73755116Y-111664884D01*
X73755116Y-111664884D02*
X73850232Y-111760000D01*
X78644884Y-111664884D02*
X78644884Y-111664884D01*
X111113304Y-110979999D02*
X111113304Y-111490000D01*
X110156654Y-110023349D02*
X111113304Y-110979999D01*
X91906651Y-110023349D02*
X110156654Y-110023349D01*
X91506652Y-110423348D02*
X91906651Y-110023349D01*
X130163304Y-112000001D02*
X130163304Y-111490000D01*
X130163304Y-110979999D02*
X130163304Y-112000001D01*
X129206654Y-110023349D02*
X130163304Y-110979999D01*
X149213304Y-110979999D02*
X149213304Y-111490000D01*
X148256654Y-110023349D02*
X149213304Y-110979999D01*
X129073349Y-110023349D02*
X148256654Y-110023349D01*
X110156654Y-110023349D02*
X129073349Y-110023349D01*
X129073349Y-110023349D02*
X129206654Y-110023349D01*
G04 #@! TO.N,col1_row1*
X64012230Y-71630001D02*
X64012230Y-71120000D01*
X64652232Y-72270003D02*
X64012230Y-71630001D01*
X64652232Y-75501832D02*
X64652232Y-72270003D01*
X65947230Y-76796830D02*
X64652232Y-75501832D01*
X68953234Y-76796830D02*
X65947230Y-76796830D01*
X72037231Y-79880827D02*
X68953234Y-76796830D01*
X72037231Y-82791829D02*
X72037231Y-79880827D01*
G04 #@! TO.N,col2_row1*
X83005302Y-70360001D02*
X83005302Y-69850000D01*
X83705304Y-71060003D02*
X83005302Y-70360001D01*
X83705304Y-74273733D02*
X83705304Y-71060003D01*
X85000302Y-75568731D02*
X83705304Y-74273733D01*
X88006306Y-75568731D02*
X85000302Y-75568731D01*
X91090303Y-78652728D02*
X88006306Y-75568731D01*
X91090303Y-81563730D02*
X91090303Y-78652728D01*
G04 #@! TO.N,col3_row1*
X104880574Y-69505001D02*
X102470302Y-69505001D01*
X106485302Y-71109729D02*
X104880574Y-69505001D01*
X106485302Y-73929731D02*
X106485302Y-71109729D01*
X102470302Y-69505001D02*
X102055302Y-69090001D01*
X106550302Y-73994731D02*
X106485302Y-73929731D01*
X108284731Y-73994731D02*
X106550302Y-73994731D01*
X110140303Y-75850303D02*
X108284731Y-73994731D01*
X102055302Y-68069999D02*
X102055302Y-68580000D01*
X102055302Y-69090001D02*
X102055302Y-68069999D01*
X110140303Y-80039730D02*
X110140303Y-75850303D01*
G04 #@! TO.N,col4_row1*
X121105302Y-70360001D02*
X121105302Y-69850000D01*
X121805304Y-71060003D02*
X121105302Y-70360001D01*
X121805304Y-74019733D02*
X121805304Y-71060003D01*
X123100302Y-75314731D02*
X121805304Y-74019733D01*
X126114731Y-75314731D02*
X123100302Y-75314731D01*
X129190303Y-78390303D02*
X126114731Y-75314731D01*
X129190303Y-81309730D02*
X129190303Y-78390303D01*
G04 #@! TO.N,col5_row1*
X140155302Y-71879999D02*
X140155302Y-72390000D01*
X140970000Y-73714699D02*
X140155302Y-72900001D01*
X140970000Y-76674429D02*
X140970000Y-73714699D01*
X142780300Y-78484729D02*
X140970000Y-76674429D01*
X145786304Y-78484729D02*
X142780300Y-78484729D01*
X148240303Y-80938728D02*
X145786304Y-78484729D01*
X140155302Y-72900001D02*
X140155302Y-71879999D01*
X148240303Y-83849730D02*
X148240303Y-80938728D01*
G04 #@! TO.N,col0_row2*
X45254999Y-93220001D02*
X45254999Y-92710000D01*
X45630000Y-93595002D02*
X45254999Y-93220001D01*
X45630000Y-97127002D02*
X45630000Y-93595002D01*
X51409001Y-98399001D02*
X46901999Y-98399001D01*
X52992000Y-99982000D02*
X51409001Y-98399001D01*
X46901999Y-98399001D02*
X45630000Y-97127002D01*
X52992000Y-104394000D02*
X52992000Y-99982000D01*
G04 #@! TO.N,col1_row2*
X64012230Y-90680001D02*
X64012230Y-90170000D01*
X64652232Y-94550233D02*
X64652232Y-91320003D01*
X64652232Y-91320003D02*
X64012230Y-90680001D01*
X65947230Y-95845231D02*
X64652232Y-94550233D01*
X68953234Y-95845231D02*
X65947230Y-95845231D01*
X72037231Y-98929228D02*
X68953234Y-95845231D01*
X72037231Y-101840230D02*
X72037231Y-98929228D01*
G04 #@! TO.N,col2_row2*
X83005302Y-89410001D02*
X83005302Y-88389999D01*
X83420302Y-89825001D02*
X83005302Y-89410001D01*
X83005302Y-88389999D02*
X83005302Y-88900000D01*
X85176576Y-89825001D02*
X83420302Y-89825001D01*
X87435302Y-92083727D02*
X85176576Y-89825001D01*
X87435302Y-94503731D02*
X87435302Y-92083727D01*
X87500302Y-94568731D02*
X87435302Y-94503731D01*
X89488731Y-94568731D02*
X87500302Y-94568731D01*
X91090303Y-96170303D02*
X89488731Y-94568731D01*
X91090303Y-100613730D02*
X91090303Y-96170303D01*
G04 #@! TO.N,col3_row2*
X102755304Y-88840003D02*
X102055302Y-88140001D01*
X102755304Y-91799733D02*
X102755304Y-88840003D01*
X102055302Y-88140001D02*
X102055302Y-87630000D01*
X104680300Y-93724729D02*
X102755304Y-91799733D01*
X107686304Y-93724729D02*
X104680300Y-93724729D01*
X110140303Y-96178728D02*
X107686304Y-93724729D01*
X110140303Y-99089730D02*
X110140303Y-96178728D01*
G04 #@! TO.N,col4_row2*
X121105302Y-89410001D02*
X121105302Y-88900000D01*
X121805304Y-93069733D02*
X121805304Y-90110003D01*
X123100302Y-94364731D02*
X121805304Y-93069733D01*
X126106306Y-94364731D02*
X123100302Y-94364731D01*
X129190303Y-97448728D02*
X126106306Y-94364731D01*
X121805304Y-90110003D02*
X121105302Y-89410001D01*
X129190303Y-100359730D02*
X129190303Y-97448728D01*
G04 #@! TO.N,col5_row2*
X140855304Y-92650003D02*
X140155302Y-91950001D01*
X142150302Y-96904731D02*
X140855304Y-95609733D01*
X140155302Y-91950001D02*
X140155302Y-91440000D01*
X140855304Y-95609733D02*
X140855304Y-92650003D01*
X145156306Y-96904731D02*
X142150302Y-96904731D01*
X148240303Y-99988728D02*
X145156306Y-96904731D01*
X148240303Y-102899730D02*
X148240303Y-99988728D01*
G04 #@! TO.N,col0_row3*
X45254999Y-112000001D02*
X45254999Y-111490000D01*
X45607001Y-112352003D02*
X45254999Y-112000001D01*
X46901999Y-117449001D02*
X45607001Y-116154003D01*
X50139001Y-117449001D02*
X46901999Y-117449001D01*
X52992000Y-120302000D02*
X50139001Y-117449001D01*
X45607001Y-116154003D02*
X45607001Y-112352003D01*
X52992000Y-123444000D02*
X52992000Y-120302000D01*
G04 #@! TO.N,col1_row3*
X64520230Y-112000001D02*
X64520230Y-111490000D01*
X64770000Y-112249771D02*
X64520230Y-112000001D01*
X64770000Y-116301501D02*
X64770000Y-112249771D01*
X65947230Y-117478731D02*
X64770000Y-116301501D01*
X69218731Y-117478731D02*
X65947230Y-117478731D01*
X72037231Y-120297231D02*
X69218731Y-117478731D01*
X72037231Y-123473730D02*
X72037231Y-120297231D01*
G04 #@! TO.N,col2_row3*
X83513302Y-112000001D02*
X83513302Y-111490000D01*
X83888303Y-112375002D02*
X83513302Y-112000001D01*
X83888303Y-116366732D02*
X83888303Y-112375002D01*
X85000302Y-117478731D02*
X83888303Y-116366732D01*
X88268731Y-117478731D02*
X85000302Y-117478731D01*
X91090303Y-120300303D02*
X88268731Y-117478731D01*
X91090303Y-123473730D02*
X91090303Y-120300303D01*
G04 #@! TO.N,col3_row3*
X102938303Y-116366732D02*
X102938303Y-112375002D01*
X102938303Y-112375002D02*
X102563302Y-112000001D01*
X104050302Y-117478731D02*
X102938303Y-116366732D01*
X102563302Y-112000001D02*
X102563302Y-111490000D01*
X107318731Y-117478731D02*
X104050302Y-117478731D01*
X110140303Y-120300303D02*
X107318731Y-117478731D01*
X110140303Y-123473730D02*
X110140303Y-120300303D01*
G04 #@! TO.N,col4_row3*
X121613302Y-112000001D02*
X121613302Y-111490000D01*
X121988303Y-112375002D02*
X121613302Y-112000001D01*
X123730300Y-118108729D02*
X121988303Y-116366732D01*
X126736304Y-118108729D02*
X123730300Y-118108729D01*
X129190303Y-120562728D02*
X126736304Y-118108729D01*
X121988303Y-116366732D02*
X121988303Y-112375002D01*
X129190303Y-123473730D02*
X129190303Y-120562728D01*
G04 #@! TO.N,col5_row3*
X140663302Y-112000001D02*
X140663302Y-111490000D01*
X141038303Y-112375002D02*
X140663302Y-112000001D01*
X142150302Y-117478731D02*
X141038303Y-116366732D01*
X145156306Y-117478731D02*
X142150302Y-117478731D01*
X148240303Y-120562728D02*
X145156306Y-117478731D01*
X141038303Y-116366732D02*
X141038303Y-112375002D01*
X148240303Y-123473730D02*
X148240303Y-120562728D01*
G04 #@! TO.N,col2*
X59465930Y-83595930D02*
X60960000Y-85090000D01*
X59465930Y-76131301D02*
X59465930Y-83595930D01*
X60667231Y-74930000D02*
X59465930Y-76131301D01*
X60960000Y-85090000D02*
X60960000Y-85090000D01*
X60960000Y-85090000D02*
X60960000Y-85090000D01*
X78834999Y-105319034D02*
X82280303Y-101873730D01*
X78834999Y-109594003D02*
X78834999Y-105319034D01*
X78034001Y-110395001D02*
X78834999Y-109594003D01*
X76905999Y-110395001D02*
X78034001Y-110395001D01*
X75730998Y-109220000D02*
X76905999Y-110395001D01*
X60960000Y-109220000D02*
X75730998Y-109220000D01*
X82280303Y-109234699D02*
X82280303Y-101873730D01*
X80505302Y-111009700D02*
X82280303Y-109234699D01*
X80505302Y-122125175D02*
X80505302Y-111009700D01*
X81853857Y-123473730D02*
X80505302Y-122125175D01*
X83470303Y-123473730D02*
X81853857Y-123473730D01*
X82255302Y-82848731D02*
X82280303Y-82823730D01*
X82255302Y-89440001D02*
X82255302Y-82848731D01*
X83705304Y-90890003D02*
X82255302Y-89440001D01*
X83705304Y-100378729D02*
X83705304Y-90890003D01*
X83470303Y-100613730D02*
X83705304Y-100378729D01*
X80555302Y-65494731D02*
X82280303Y-63769730D01*
X80555302Y-75279731D02*
X80555302Y-65494731D01*
X83470303Y-78194732D02*
X80555302Y-75279731D01*
X83470303Y-81563730D02*
X83470303Y-78194732D01*
X82280303Y-101803730D02*
X83470303Y-100613730D01*
X82280303Y-101873730D02*
X82280303Y-101803730D01*
G04 #@! TO.N,col3*
X100080033Y-63500000D02*
X101330303Y-62249730D01*
X96520000Y-63500000D02*
X100080033Y-63500000D01*
G04 #@! TO.N,row0*
X58377001Y-59690000D02*
X53297001Y-54610000D01*
X60667231Y-59690000D02*
X58377001Y-59690000D01*
X72562232Y-52580001D02*
X72562232Y-52070000D01*
X71802230Y-53340003D02*
X72562232Y-52580001D01*
X70417232Y-57748731D02*
X71802230Y-56363733D01*
X71802230Y-56363733D02*
X71802230Y-53340003D01*
X66711269Y-57748731D02*
X70417232Y-57748731D01*
X64770000Y-59690000D02*
X66711269Y-57748731D01*
X60667231Y-59690000D02*
X64770000Y-59690000D01*
X91555304Y-50289999D02*
X91555304Y-50800000D01*
X91490304Y-50224999D02*
X91555304Y-50289999D01*
X90090304Y-50224999D02*
X91490304Y-50224999D01*
X75330606Y-48328699D02*
X88194004Y-48328699D01*
X74705930Y-48953375D02*
X75330606Y-48328699D01*
X74705930Y-50436303D02*
X74705930Y-48953375D01*
X71802230Y-53340003D02*
X74705930Y-50436303D01*
X110605304Y-49019999D02*
X110605304Y-49530000D01*
X109990304Y-48404999D02*
X110605304Y-49019999D01*
X101012953Y-49282348D02*
X101890302Y-48404999D01*
X89147652Y-49282348D02*
X101012953Y-49282348D01*
X88194004Y-48328699D02*
X89147652Y-49282348D01*
X89147652Y-49282348D02*
X90090304Y-50224999D01*
X144280304Y-48404999D02*
X148705304Y-52829999D01*
X148705304Y-52829999D02*
X148705304Y-53340000D01*
X101890302Y-48404999D02*
X109364999Y-48404999D01*
X109364999Y-48404999D02*
X109990304Y-48404999D01*
X128125001Y-48404999D02*
X129655304Y-49935302D01*
X109364999Y-48404999D02*
X128125001Y-48404999D01*
X129655304Y-49935302D02*
X129655304Y-50800000D01*
X128125001Y-48404999D02*
X144280304Y-48404999D01*
G04 #@! TO.N,row1*
X53297001Y-73284999D02*
X53297001Y-73660000D01*
X59465930Y-67116070D02*
X53297001Y-73284999D01*
X60667231Y-62230000D02*
X59465930Y-63431301D01*
X72562232Y-70609999D02*
X72562232Y-71120000D01*
X71802233Y-69850000D02*
X72562232Y-70609999D01*
X65964499Y-69850000D02*
X71802233Y-69850000D01*
X62223198Y-66108699D02*
X65964499Y-69850000D01*
X59465930Y-65346625D02*
X60228004Y-66108699D01*
X60228004Y-66108699D02*
X62223198Y-66108699D01*
X59465930Y-63724070D02*
X59465930Y-65346625D01*
X59465930Y-63431301D02*
X59465930Y-63724070D01*
X59465930Y-63724070D02*
X59465930Y-67116070D01*
X71802230Y-76367830D02*
X75444400Y-80010000D01*
X71802230Y-74495828D02*
X71802230Y-76367830D01*
X72562232Y-73735826D02*
X71802230Y-74495828D01*
X72562232Y-70609999D02*
X72562232Y-73735826D01*
X75444400Y-80010000D02*
X76200000Y-80010000D01*
X76200000Y-80010000D02*
X76200000Y-80010000D01*
X110605304Y-68069999D02*
X110605304Y-68580000D01*
X110605304Y-69090001D02*
X110605304Y-68069999D01*
X129040304Y-68724999D02*
X129655304Y-69339999D01*
X110970307Y-68724999D02*
X129040304Y-68724999D01*
X129655304Y-69339999D02*
X129655304Y-69850000D01*
X148705304Y-71879999D02*
X148705304Y-72390000D01*
X146560036Y-69734731D02*
X148705304Y-71879999D01*
X130050036Y-69734731D02*
X146560036Y-69734731D01*
X129040304Y-68724999D02*
X130050036Y-69734731D01*
X109990304Y-67454999D02*
X110605304Y-68069999D01*
X94460307Y-67454999D02*
X109990304Y-67454999D01*
X91117653Y-70797653D02*
X94460307Y-67454999D01*
G04 #@! TO.N,row2*
X58420000Y-69850000D02*
X58420000Y-84475002D01*
X72562232Y-89659999D02*
X72562232Y-90170000D01*
X72147232Y-89244999D02*
X72562232Y-89659999D01*
X67947232Y-89244999D02*
X72147232Y-89244999D01*
X65447572Y-86745339D02*
X67947232Y-89244999D01*
X60690337Y-86745339D02*
X65447572Y-86745339D01*
X58420000Y-84475002D02*
X60690337Y-86745339D01*
X72147232Y-89244999D02*
X75855001Y-89244999D01*
X75855001Y-89244999D02*
X75855001Y-89244999D01*
X110605304Y-87119999D02*
X110605304Y-87630000D01*
X109990304Y-86504999D02*
X110605304Y-87119999D01*
X92565001Y-86504999D02*
X109990304Y-86504999D01*
X91117653Y-87952347D02*
X92565001Y-86504999D01*
X129655304Y-88389999D02*
X129655304Y-88900000D01*
X109990304Y-86504999D02*
X127770304Y-86504999D01*
X148705304Y-90929999D02*
X148705304Y-91440000D01*
X148290304Y-90514999D02*
X148705304Y-90929999D01*
X142562347Y-87952347D02*
X145124999Y-90514999D01*
X129217653Y-87952347D02*
X142562347Y-87952347D01*
X127770304Y-86504999D02*
X129217653Y-87952347D01*
X145124999Y-90514999D02*
X148290304Y-90514999D01*
X129217653Y-87952347D02*
X129655304Y-88389999D01*
X53805001Y-92334999D02*
X53805001Y-92710000D01*
X58420000Y-87720000D02*
X53805001Y-92334999D01*
X58420000Y-84475002D02*
X58420000Y-87720000D01*
G04 #@! TO.N,BAT0*
X77108532Y-108858532D02*
X77470000Y-109220000D01*
X77108532Y-50731301D02*
X77108532Y-108858532D01*
X75907231Y-49530000D02*
X77108532Y-50731301D01*
G04 #@! TO.N,BAT_SW*
X135056999Y-128050999D02*
X136132000Y-129126000D01*
X132521999Y-128050999D02*
X134839001Y-128050999D01*
X132164267Y-128408731D02*
X132521999Y-128050999D01*
X83846302Y-128408731D02*
X132164267Y-128408731D01*
X80010000Y-124572429D02*
X83846302Y-128408731D01*
X80010000Y-109220000D02*
X80010000Y-124572429D01*
X134839001Y-128050999D02*
X135056999Y-128050999D01*
G04 #@! TO.N,BAT_GND*
X132892003Y-131661001D02*
X132060501Y-130829499D01*
X137254001Y-131661001D02*
X132892003Y-131661001D01*
X137657001Y-131258001D02*
X137254001Y-131661001D01*
X137657001Y-129151001D02*
X137657001Y-131258001D01*
X137632000Y-129126000D02*
X137657001Y-129151001D01*
X132060501Y-130829499D02*
X132041002Y-130810000D01*
G04 #@! TO.N,RESET*
X50468000Y-47498000D02*
X51562000Y-47498000D01*
G04 #@! TO.N,RESET_GND*
X48243001Y-48673001D02*
X51656999Y-48673001D01*
X47068000Y-47498000D02*
X48243001Y-48673001D01*
G04 #@! TD*
M02*
