G04 #@! TF.GenerationSoftware,KiCad,Pcbnew,(5.1.8-0-10_14)*
G04 #@! TF.CreationDate,2021-01-07T13:30:25-06:00*
G04 #@! TF.ProjectId,halfboard,68616c66-626f-4617-9264-2e6b69636164,rev?*
G04 #@! TF.SameCoordinates,Original*
G04 #@! TF.FileFunction,Soldermask,Bot*
G04 #@! TF.FilePolarity,Negative*
%FSLAX46Y46*%
G04 Gerber Fmt 4.6, Leading zero omitted, Abs format (unit mm)*
G04 Created by KiCad (PCBNEW (5.1.8-0-10_14)) date 2021-01-07 13:30:25*
%MOMM*%
%LPD*%
G01*
G04 APERTURE LIST*
%ADD10O,1.700000X1.700000*%
%ADD11R,1.700000X1.700000*%
%ADD12C,0.800000*%
%ADD13C,0.900000*%
%ADD14R,0.700000X1.500000*%
%ADD15R,1.000000X0.800000*%
%ADD16R,0.900000X1.700000*%
%ADD17C,2.000000*%
%ADD18R,1.600000X1.600000*%
%ADD19C,1.600000*%
%ADD20R,1.600000X1.200000*%
%ADD21C,1.752600*%
%ADD22R,1.752600X1.752600*%
G04 APERTURE END LIST*
D10*
G04 #@! TO.C, *
X67818000Y-49530000D03*
D11*
X70358000Y-49530000D03*
G04 #@! TD*
D12*
G04 #@! TO.C,REF\u002A\u002A*
X81788000Y-47498000D03*
G04 #@! TD*
D13*
G04 #@! TO.C,REF\u002A\u002A*
X54078000Y-48184000D03*
X51078000Y-48184000D03*
G04 #@! TD*
G04 #@! TO.C,REF\u002A\u002A*
X51078000Y-48184000D03*
X54078000Y-48184000D03*
D14*
X50328000Y-49944000D03*
X53328000Y-49944000D03*
X54828000Y-49944000D03*
D15*
X48928000Y-47084000D03*
X56228000Y-47084000D03*
X56228000Y-49294000D03*
X48928000Y-49294000D03*
G04 #@! TD*
D12*
G04 #@! TO.C,REF\u002A\u002A*
X81788000Y-47498000D03*
D16*
X80088000Y-47498000D03*
X83488000Y-47498000D03*
G04 #@! TD*
D17*
G04 #@! TO.C, *
X139430303Y-66059730D03*
X144430303Y-68159730D03*
X149430303Y-66059730D03*
G04 #@! TD*
D18*
G04 #@! TO.C,D0*
X148330303Y-53340000D03*
D19*
X140530303Y-53340000D03*
D20*
X145830303Y-53340000D03*
X143030303Y-53340000D03*
G04 #@! TD*
D17*
G04 #@! TO.C, *
X139430303Y-85109730D03*
X144430303Y-87209730D03*
X149430303Y-85109730D03*
G04 #@! TD*
D18*
G04 #@! TO.C,D0*
X148330303Y-72390000D03*
D19*
X140530303Y-72390000D03*
D20*
X145830303Y-72390000D03*
X143030303Y-72390000D03*
G04 #@! TD*
D17*
G04 #@! TO.C, *
X139430303Y-104159730D03*
X144430303Y-106259730D03*
X149430303Y-104159730D03*
G04 #@! TD*
D18*
G04 #@! TO.C,D0*
X148330303Y-91440000D03*
D19*
X140530303Y-91440000D03*
D20*
X145830303Y-91440000D03*
X143030303Y-91440000D03*
G04 #@! TD*
D17*
G04 #@! TO.C, *
X139430303Y-124733730D03*
X144430303Y-126833730D03*
X149430303Y-124733730D03*
G04 #@! TD*
D18*
G04 #@! TO.C,D0*
X148330303Y-111760000D03*
D19*
X140530303Y-111760000D03*
D20*
X145830303Y-111760000D03*
X143030303Y-111760000D03*
G04 #@! TD*
D17*
G04 #@! TO.C, *
X120380303Y-124733730D03*
X125380303Y-126833730D03*
X130380303Y-124733730D03*
G04 #@! TD*
D18*
G04 #@! TO.C,D0*
X129280303Y-111760000D03*
D19*
X121480303Y-111760000D03*
D20*
X126780303Y-111760000D03*
X123980303Y-111760000D03*
G04 #@! TD*
D17*
G04 #@! TO.C, *
X101330303Y-124733730D03*
X106330303Y-126833730D03*
X111330303Y-124733730D03*
G04 #@! TD*
D18*
G04 #@! TO.C,D0*
X110230303Y-111760000D03*
D19*
X102430303Y-111760000D03*
D20*
X107730303Y-111760000D03*
X104930303Y-111760000D03*
G04 #@! TD*
D17*
G04 #@! TO.C, *
X82280303Y-124733730D03*
X87280303Y-126833730D03*
X92280303Y-124733730D03*
G04 #@! TD*
D18*
G04 #@! TO.C,D0*
X91180303Y-111760000D03*
D19*
X83380303Y-111760000D03*
D20*
X88680303Y-111760000D03*
X85880303Y-111760000D03*
G04 #@! TD*
D17*
G04 #@! TO.C, *
X120380303Y-101619730D03*
X125380303Y-103719730D03*
X130380303Y-101619730D03*
G04 #@! TD*
D18*
G04 #@! TO.C,D0*
X129280303Y-88900000D03*
D19*
X121480303Y-88900000D03*
D20*
X126780303Y-88900000D03*
X123980303Y-88900000D03*
G04 #@! TD*
D17*
G04 #@! TO.C, *
X120380303Y-82569730D03*
X125380303Y-84669730D03*
X130380303Y-82569730D03*
G04 #@! TD*
D18*
G04 #@! TO.C,D0*
X129280303Y-69850000D03*
D19*
X121480303Y-69850000D03*
D20*
X126780303Y-69850000D03*
X123980303Y-69850000D03*
G04 #@! TD*
D17*
G04 #@! TO.C, *
X120380303Y-63519730D03*
X125380303Y-65619730D03*
X130380303Y-63519730D03*
G04 #@! TD*
D18*
G04 #@! TO.C,D0*
X129280303Y-50800000D03*
D19*
X121480303Y-50800000D03*
D20*
X126780303Y-50800000D03*
X123980303Y-50800000D03*
G04 #@! TD*
D17*
G04 #@! TO.C, *
X101330303Y-62249730D03*
X106330303Y-64349730D03*
X111330303Y-62249730D03*
G04 #@! TD*
D18*
G04 #@! TO.C,D0*
X110230303Y-49530000D03*
D19*
X102430303Y-49530000D03*
D20*
X107730303Y-49530000D03*
X104930303Y-49530000D03*
G04 #@! TD*
D17*
G04 #@! TO.C, *
X101330303Y-81299730D03*
X106330303Y-83399730D03*
X111330303Y-81299730D03*
G04 #@! TD*
D18*
G04 #@! TO.C,D0*
X110230303Y-68580000D03*
D19*
X102430303Y-68580000D03*
D20*
X107730303Y-68580000D03*
X104930303Y-68580000D03*
G04 #@! TD*
D17*
G04 #@! TO.C, *
X101330303Y-100349730D03*
X106330303Y-102449730D03*
X111330303Y-100349730D03*
G04 #@! TD*
D18*
G04 #@! TO.C,D0*
X110230303Y-87630000D03*
D19*
X102430303Y-87630000D03*
D20*
X107730303Y-87630000D03*
X104930303Y-87630000D03*
G04 #@! TD*
D17*
G04 #@! TO.C, *
X82280303Y-101873730D03*
X87280303Y-103973730D03*
X92280303Y-101873730D03*
G04 #@! TD*
D18*
G04 #@! TO.C,D0*
X91180303Y-88900000D03*
D19*
X83380303Y-88900000D03*
D20*
X88680303Y-88900000D03*
X85880303Y-88900000D03*
G04 #@! TD*
D17*
G04 #@! TO.C, *
X82280303Y-82823730D03*
X87280303Y-84923730D03*
X92280303Y-82823730D03*
G04 #@! TD*
D18*
G04 #@! TO.C,D0*
X91180303Y-69850000D03*
D19*
X83380303Y-69850000D03*
D20*
X88680303Y-69850000D03*
X85880303Y-69850000D03*
G04 #@! TD*
D17*
G04 #@! TO.C, *
X82280303Y-63519730D03*
X87280303Y-65619730D03*
X92280303Y-63519730D03*
G04 #@! TD*
D18*
G04 #@! TO.C,D0*
X91180303Y-50800000D03*
D19*
X83380303Y-50800000D03*
D20*
X88680303Y-50800000D03*
X85880303Y-50800000D03*
G04 #@! TD*
D17*
G04 #@! TO.C, *
X63287231Y-65043730D03*
X68287231Y-67143730D03*
X73287231Y-65043730D03*
G04 #@! TD*
D18*
G04 #@! TO.C,D0*
X72187231Y-52070000D03*
D19*
X64387231Y-52070000D03*
D20*
X69687231Y-52070000D03*
X66887231Y-52070000D03*
G04 #@! TD*
D17*
G04 #@! TO.C, *
X63287231Y-84091829D03*
X68287231Y-86191829D03*
X73287231Y-84091829D03*
G04 #@! TD*
D18*
G04 #@! TO.C,D0*
X72187231Y-71120000D03*
D19*
X64387231Y-71120000D03*
D20*
X69687231Y-71120000D03*
X66887231Y-71120000D03*
G04 #@! TD*
D17*
G04 #@! TO.C, *
X63287231Y-103100230D03*
X68287231Y-105200230D03*
X73287231Y-103100230D03*
G04 #@! TD*
D18*
G04 #@! TO.C,D0*
X72187231Y-90170000D03*
D19*
X64387231Y-90170000D03*
D20*
X69687231Y-90170000D03*
X66887231Y-90170000D03*
G04 #@! TD*
D17*
G04 #@! TO.C, *
X63287231Y-124733730D03*
X68287231Y-126833730D03*
X73287231Y-124733730D03*
G04 #@! TD*
D18*
G04 #@! TO.C,D0*
X72187231Y-111760000D03*
D19*
X64387231Y-111760000D03*
D20*
X69687231Y-111760000D03*
X66887231Y-111760000D03*
G04 #@! TD*
D17*
G04 #@! TO.C, *
X44022000Y-124704000D03*
X49022000Y-126804000D03*
X54022000Y-124704000D03*
G04 #@! TD*
D18*
G04 #@! TO.C,D0*
X52922000Y-111760000D03*
D19*
X45122000Y-111760000D03*
D20*
X50422000Y-111760000D03*
X47622000Y-111760000D03*
G04 #@! TD*
D17*
G04 #@! TO.C, *
X44022000Y-105654000D03*
X49022000Y-107754000D03*
X54022000Y-105654000D03*
G04 #@! TD*
D18*
G04 #@! TO.C,D0*
X52922000Y-92710000D03*
D19*
X45122000Y-92710000D03*
D20*
X50422000Y-92710000D03*
X47622000Y-92710000D03*
G04 #@! TD*
D17*
G04 #@! TO.C, *
X43768000Y-86604000D03*
X48768000Y-88704000D03*
X53768000Y-86604000D03*
G04 #@! TD*
D18*
G04 #@! TO.C,D0*
X52922000Y-73660000D03*
D19*
X45122000Y-73660000D03*
D20*
X50422000Y-73660000D03*
X47622000Y-73660000D03*
G04 #@! TD*
D17*
G04 #@! TO.C, *
X54022000Y-67554000D03*
X49022000Y-69654000D03*
X44022000Y-67554000D03*
G04 #@! TD*
D20*
G04 #@! TO.C,D0*
X47622000Y-54610000D03*
X50422000Y-54610000D03*
D19*
X45122000Y-54610000D03*
D18*
X52922000Y-54610000D03*
G04 #@! TD*
D21*
G04 #@! TO.C,U1*
X75907231Y-49530000D03*
X60667231Y-77470000D03*
X75907231Y-52070000D03*
X75907231Y-54610000D03*
X75907231Y-57150000D03*
X75907231Y-59690000D03*
X75907231Y-62230000D03*
X75907231Y-64770000D03*
X75907231Y-67310000D03*
X75907231Y-69850000D03*
X75907231Y-72390000D03*
X75907231Y-74930000D03*
X75907231Y-77470000D03*
X60667231Y-74930000D03*
X60667231Y-72390000D03*
X60667231Y-69850000D03*
X60667231Y-67310000D03*
X60667231Y-64770000D03*
X60667231Y-62230000D03*
X60667231Y-59690000D03*
X60667231Y-57150000D03*
X60667231Y-54610000D03*
X60667231Y-52070000D03*
D22*
X60667231Y-49530000D03*
G04 #@! TD*
M02*
