M48
; DRILL file {KiCad 5.1.9} date Mon Jan 18 19:30:44 2021
; FORMAT={-:-/ absolute / inch / decimal}
; #@! TF.CreationDate,2021-01-18T19:30:44-06:00
; #@! TF.GenerationSoftware,Kicad,Pcbnew,5.1.9
FMAT,2
INCH
T1C0.0157
T2C0.0295
T3C0.0394
T4C0.0430
T5C0.0472
T6C0.0590
T7C0.0591
T8C0.0596
T9C0.0630
T10C0.0315
T11C0.0354
T12C0.0670
T13C0.0748
T14C0.1969
%
G90
G05
T1
X2.03Y-1.87
X2.0337Y-1.9163
X2.3Y-2.75
X2.4Y-3.35
X2.4Y-3.35
X2.4Y-4.3
X2.9864Y-3.5136
X3.0Y-3.15
X3.0963Y-4.3963
X3.5873Y-2.7873
X3.5873Y-3.4627
X3.6026Y-4.3474
X3.8Y-2.5
X5.1992Y-5.1508
X5.3086Y-5.0414
T3
X1.7765Y-2.15
X1.7765Y-2.9
X1.7965Y-3.65
X1.7965Y-4.3894
X2.0835Y-2.15
X2.0835Y-2.9
X2.1035Y-3.65
X2.1035Y-4.3894
X2.5349Y-2.05
X2.5349Y-2.8
X2.5349Y-3.55
X2.5549Y-4.3894
X2.842Y-2.05
X2.842Y-2.8
X2.842Y-3.55
X2.862Y-4.3894
X3.05Y-4.3
X3.15Y-4.3
X3.2827Y-2.0
X3.2827Y-2.75
X3.2827Y-3.5
X3.3027Y-4.3894
X3.5898Y-2.0
X3.5898Y-2.75
X3.5898Y-3.5
X3.6098Y-4.3894
X4.0327Y-1.95
X4.0327Y-2.7
X4.0327Y-3.45
X4.0527Y-4.3894
X4.3398Y-1.95
X4.3398Y-2.7
X4.3398Y-3.45
X4.3598Y-4.3894
X4.7827Y-2.0
X4.7827Y-2.75
X4.7827Y-3.5
X4.8027Y-4.3894
X5.0898Y-2.0
X5.0898Y-2.75
X5.0898Y-3.5
X5.1098Y-4.3894
X5.5327Y-2.1
X5.5327Y-2.85
X5.5327Y-3.6
X5.5527Y-4.3894
X5.8398Y-2.1
X5.8398Y-2.85
X5.8398Y-3.6
X5.8598Y-4.3894
T4
X2.3885Y-1.95
X2.3885Y-2.05
X2.3885Y-2.15
X2.3885Y-2.25
X2.3885Y-2.35
X2.3885Y-2.45
X2.3885Y-2.55
X2.3885Y-2.65
X2.3885Y-2.75
X2.3885Y-2.85
X2.3885Y-2.95
X2.3885Y-3.05
X2.9885Y-1.95
X2.9885Y-2.05
X2.9885Y-2.15
X2.9885Y-2.25
X2.9885Y-2.35
X2.9885Y-2.45
X2.9885Y-2.55
X2.9885Y-2.65
X2.9885Y-2.75
X2.9885Y-2.85
X2.9885Y-2.95
X2.9885Y-3.05
T5
X1.7308Y-2.3446
X1.7308Y-3.0946
X1.7308Y-3.8446
X1.7308Y-4.5946
X1.7394Y-2.6596
X1.7394Y-3.4096
X1.7394Y-4.1596
X1.7394Y-4.9096
X2.1331Y-2.6596
X2.1331Y-3.4096
X2.1331Y-4.1596
X2.1331Y-4.9096
X2.1418Y-2.3446
X2.1418Y-3.0946
X2.1418Y-3.8446
X2.1418Y-4.5946
X2.4806Y-2.2442
X2.4806Y-2.9942
X2.4806Y-3.7441
X2.4806Y-4.5958
X2.4893Y-2.5592
X2.4893Y-3.3091
X2.4893Y-4.0591
X2.4893Y-4.9108
X2.883Y-2.5592
X2.883Y-3.3091
X2.883Y-4.0591
X2.883Y-4.9108
X2.8916Y-2.2442
X2.8916Y-2.9942
X2.8916Y-3.7441
X2.8916Y-4.5958
X3.2307Y-2.1957
X3.2307Y-2.9458
X3.2307Y-3.6958
X3.2307Y-4.5958
X3.2394Y-2.5106
X3.2394Y-3.2608
X3.2394Y-4.0108
X3.2394Y-4.9108
X3.6331Y-2.5106
X3.6331Y-3.2608
X3.6331Y-4.0108
X3.6331Y-4.9108
X3.6417Y-2.1957
X3.6417Y-2.9458
X3.6417Y-3.6958
X3.6417Y-4.5958
X3.9807Y-2.1358
X3.9807Y-2.8858
X3.9807Y-3.6358
X3.9807Y-4.5958
X3.9894Y-2.4508
X3.9894Y-3.2008
X3.9894Y-3.9508
X3.9894Y-4.9108
X4.3831Y-2.4508
X4.3831Y-3.2008
X4.3831Y-3.9508
X4.3831Y-4.9108
X4.3917Y-2.1358
X4.3917Y-2.8858
X4.3917Y-3.6358
X4.3917Y-4.5958
X4.7307Y-2.1858
X4.7307Y-2.9358
X4.7307Y-3.6858
X4.7307Y-4.5958
X4.7394Y-2.5008
X4.7394Y-3.2508
X4.7394Y-4.0008
X4.7394Y-4.9108
X5.1331Y-2.5008
X5.1331Y-3.2508
X5.1331Y-4.0008
X5.1331Y-4.9108
X5.1417Y-2.1858
X5.1417Y-2.9358
X5.1417Y-3.6858
X5.1417Y-4.5958
X5.4807Y-2.2858
X5.4807Y-3.0358
X5.4807Y-3.7858
X5.4807Y-4.5958
X5.4894Y-2.6008
X5.4894Y-3.3508
X5.4894Y-4.1008
X5.4894Y-4.9108
X5.8831Y-2.6008
X5.8831Y-3.3508
X5.8831Y-4.1008
X5.8831Y-4.9108
X5.8917Y-2.2858
X5.8917Y-3.0358
X5.8917Y-3.7858
X5.8917Y-4.5958
T6
X1.7863Y-2.61
X1.7863Y-3.36
X1.7863Y-4.11
X1.7863Y-4.86
X2.0863Y-2.61
X2.0863Y-3.36
X2.0863Y-4.11
X2.0863Y-4.86
X2.5361Y-2.5096
X2.5361Y-3.2595
X2.5361Y-4.0095
X2.5361Y-4.8612
X2.8361Y-2.5096
X2.8361Y-3.2595
X2.8361Y-4.0095
X2.8361Y-4.8612
X3.2862Y-2.461
X3.2862Y-3.2112
X3.2862Y-3.9612
X3.2862Y-4.8612
X3.5862Y-2.461
X3.5862Y-3.2112
X3.5862Y-3.9612
X3.5862Y-4.8612
X4.0362Y-2.4012
X4.0362Y-3.1512
X4.0362Y-3.9012
X4.0362Y-4.8612
X4.3362Y-2.4012
X4.3362Y-3.1512
X4.3362Y-3.9012
X4.3362Y-4.8612
X4.7862Y-2.4512
X4.7862Y-3.2012
X4.7862Y-3.9512
X4.7862Y-4.8612
X5.0862Y-2.4512
X5.0862Y-3.2012
X5.0862Y-3.9512
X5.0862Y-4.8612
X5.5362Y-2.5512
X5.5362Y-3.3012
X5.5362Y-4.0512
X5.5362Y-4.8612
X5.8362Y-2.5512
X5.8362Y-3.3012
X5.8362Y-4.0512
X5.8362Y-4.8612
T7
X1.9363Y-2.7423
X1.9363Y-3.4923
X1.9363Y-4.2423
X1.9363Y-4.9923
X2.6861Y-2.6419
X2.6861Y-3.3918
X2.6861Y-4.1417
X2.6861Y-4.9935
X3.4362Y-2.5933
X3.4362Y-3.3435
X3.4362Y-4.0935
X3.4362Y-4.9935
X4.1862Y-2.5335
X4.1862Y-3.2835
X4.1862Y-4.0335
X4.1862Y-4.9935
X4.9362Y-2.5835
X4.9362Y-3.3335
X4.9362Y-4.0835
X4.9362Y-4.9935
X5.6862Y-2.6835
X5.6862Y-3.4335
X5.6862Y-4.1835
X5.6862Y-4.9935
T9
X1.7335Y-2.3131
X1.7335Y-3.0631
X1.7335Y-3.8131
X1.7335Y-4.5631
X2.1391Y-2.3131
X2.1391Y-3.0631
X2.1391Y-3.8131
X2.1391Y-4.5631
X2.4834Y-2.2127
X2.4834Y-2.9627
X2.4834Y-3.7126
X2.4834Y-4.5643
X2.8889Y-2.2127
X2.8889Y-2.9627
X2.8889Y-3.7126
X2.8889Y-4.5643
X3.2335Y-2.1642
X3.2335Y-2.9143
X3.2335Y-3.6643
X3.2335Y-4.5643
X3.639Y-2.1642
X3.639Y-2.9143
X3.639Y-3.6643
X3.639Y-4.5643
X3.9835Y-2.1043
X3.9835Y-2.8543
X3.9835Y-3.6043
X3.9835Y-4.5643
X4.389Y-2.1043
X4.389Y-2.8543
X4.389Y-3.6043
X4.389Y-4.5643
X4.7335Y-2.1543
X4.7335Y-2.9043
X4.7335Y-3.6543
X4.7335Y-4.5643
X5.139Y-2.1543
X5.139Y-2.9043
X5.139Y-3.6543
X5.139Y-4.5643
X5.4835Y-2.2543
X5.4835Y-3.0043
X5.4835Y-3.7543
X5.4835Y-4.5643
X5.889Y-2.2543
X5.889Y-3.0043
X5.889Y-3.7543
X5.889Y-4.5643
T10
X1.92Y-1.87
X1.92Y-1.87
T11
X5.2709Y-5.153
X5.2709Y-5.153
X5.3891Y-5.153
X5.3891Y-5.153
T12
X1.7363Y-2.51
X1.7363Y-3.26
X1.7363Y-4.01
X1.7363Y-4.76
X2.1363Y-2.51
X2.1363Y-3.26
X2.1363Y-4.01
X2.1363Y-4.76
X2.4861Y-2.4096
X2.4861Y-3.1595
X2.4861Y-3.9095
X2.4861Y-4.7612
X2.8861Y-2.4096
X2.8861Y-3.1595
X2.8861Y-3.9095
X2.8861Y-4.7612
X3.2362Y-2.361
X3.2362Y-3.1112
X3.2362Y-3.8612
X3.2362Y-4.7612
X3.6362Y-2.361
X3.6362Y-3.1112
X3.6362Y-3.8612
X3.6362Y-4.7612
X3.9862Y-2.3012
X3.9862Y-3.0512
X3.9862Y-3.8012
X3.9862Y-4.7612
X4.3862Y-2.3012
X4.3862Y-3.0512
X4.3862Y-3.8012
X4.3862Y-4.7612
X4.7362Y-2.3512
X4.7362Y-3.1012
X4.7362Y-3.8512
X4.7362Y-4.7612
X5.1362Y-2.3512
X5.1362Y-3.1012
X5.1362Y-3.8512
X5.1362Y-4.7612
X5.4862Y-2.4512
X5.4862Y-3.2012
X5.4862Y-3.9512
X5.4862Y-4.7612
X5.8862Y-2.4512
X5.8862Y-3.2012
X5.8862Y-3.9512
X5.8862Y-4.7612
T13
X1.7198Y-2.51
X1.7198Y-3.26
X1.7198Y-4.01
X1.7198Y-4.76
X2.1528Y-2.51
X2.1528Y-3.26
X2.1528Y-4.01
X2.1528Y-4.76
X2.4696Y-2.4096
X2.4696Y-3.1595
X2.4696Y-3.9095
X2.4696Y-4.7612
X2.9026Y-2.4096
X2.9026Y-3.1595
X2.9026Y-3.9095
X2.9026Y-4.7612
X3.2197Y-2.361
X3.2197Y-3.1112
X3.2197Y-3.8612
X3.2197Y-4.7612
X3.6528Y-2.361
X3.6528Y-3.1112
X3.6528Y-3.8612
X3.6528Y-4.7612
X3.9697Y-2.3012
X3.9697Y-3.0512
X3.9697Y-3.8012
X3.9697Y-4.7612
X4.4028Y-2.3012
X4.4028Y-3.0512
X4.4028Y-3.8012
X4.4028Y-4.7612
X4.7197Y-2.3512
X4.7197Y-3.1012
X4.7197Y-3.8512
X4.7197Y-4.7612
X5.1528Y-2.3512
X5.1528Y-3.1012
X5.1528Y-3.8512
X5.1528Y-4.7612
X5.4697Y-2.4512
X5.4697Y-3.2012
X5.4697Y-3.9512
X5.4697Y-4.7612
X5.9028Y-2.4512
X5.9028Y-3.2012
X5.9028Y-3.9512
X5.9028Y-4.7612
T14
X1.9363Y-2.51
X1.9363Y-3.26
X1.9363Y-4.01
X1.9363Y-4.76
X2.6861Y-2.4096
X2.6861Y-3.1595
X2.6861Y-3.9095
X2.6861Y-4.7612
X3.4362Y-2.361
X3.4362Y-3.1112
X3.4362Y-3.8612
X3.4362Y-4.7612
X4.1862Y-2.3012
X4.1862Y-3.0512
X4.1862Y-3.8012
X4.1862Y-4.7612
X4.9362Y-2.3512
X4.9362Y-3.1012
X4.9362Y-3.8512
X4.9362Y-4.7612
X5.6862Y-2.4512
X5.6862Y-3.2012
X5.6862Y-3.9512
X5.6862Y-4.7612
T2
G00X1.8863Y-2.3257
M15
G01X1.8863Y-2.3061
M16
G05
G00X1.8863Y-3.0757
M15
G01X1.8863Y-3.0561
M16
G05
G00X1.8863Y-3.8257
M15
G01X1.8863Y-3.8061
M16
G05
G00X1.8863Y-4.5757
M15
G01X1.8863Y-4.5561
M16
G05
G00X1.9847Y-2.3238
M15
G01X1.9847Y-2.3041
M16
G05
G00X1.9847Y-3.0738
M15
G01X1.9847Y-3.0541
M16
G05
G00X1.9847Y-3.8238
M15
G01X1.9847Y-3.8041
M16
G05
G00X1.9847Y-4.5738
M15
G01X1.9847Y-4.5541
M16
G05
G00X2.6361Y-2.2253
M15
G01X2.6361Y-2.2057
M16
G05
G00X2.6361Y-2.9753
M15
G01X2.6361Y-2.9556
M16
G05
G00X2.6361Y-3.7252
M15
G01X2.6361Y-3.7055
M16
G05
G00X2.6361Y-4.5769
M15
G01X2.6361Y-4.5572
M16
G05
G00X2.7345Y-2.2234
M15
G01X2.7345Y-2.2037
M16
G05
G00X2.7345Y-2.9733
M15
G01X2.7345Y-2.9536
M16
G05
G00X2.7345Y-3.7232
M15
G01X2.7345Y-3.7036
M16
G05
G00X2.7345Y-4.575
M15
G01X2.7345Y-4.5553
M16
G05
G00X3.3862Y-2.1768
M15
G01X3.3862Y-2.1571
M16
G05
G00X3.3862Y-2.9269
M15
G01X3.3862Y-2.9072
M16
G05
G00X3.3862Y-3.6769
M15
G01X3.3862Y-3.6572
M16
G05
G00X3.3862Y-4.5769
M15
G01X3.3862Y-4.5572
M16
G05
G00X3.4847Y-2.1748
M15
G01X3.4847Y-2.1551
M16
G05
G00X3.4847Y-2.9249
M15
G01X3.4847Y-2.9053
M16
G05
G00X3.4847Y-3.6749
M15
G01X3.4847Y-3.6553
M16
G05
G00X3.4847Y-4.575
M15
G01X3.4847Y-4.5553
M16
G05
G00X4.1362Y-2.1169
M15
G01X4.1362Y-2.0972
M16
G05
G00X4.1362Y-2.8669
M15
G01X4.1362Y-2.8472
M16
G05
G00X4.1362Y-3.6169
M15
G01X4.1362Y-3.5972
M16
G05
G00X4.1362Y-4.5769
M15
G01X4.1362Y-4.5572
M16
G05
G00X4.2347Y-2.1149
M15
G01X4.2347Y-2.0953
M16
G05
G00X4.2347Y-2.8649
M15
G01X4.2347Y-2.8453
M16
G05
G00X4.2347Y-3.6149
M15
G01X4.2347Y-3.5953
M16
G05
G00X4.2347Y-4.575
M15
G01X4.2347Y-4.5553
M16
G05
G00X4.8862Y-2.1669
M15
G01X4.8862Y-2.1472
M16
G05
G00X4.8862Y-2.9169
M15
G01X4.8862Y-2.8972
M16
G05
G00X4.8862Y-3.6669
M15
G01X4.8862Y-3.6472
M16
G05
G00X4.8862Y-4.5769
M15
G01X4.8862Y-4.5572
M16
G05
G00X4.9847Y-2.165
M15
G01X4.9847Y-2.1453
M16
G05
G00X4.9847Y-2.915
M15
G01X4.9847Y-2.8953
M16
G05
G00X4.9847Y-3.6649
M15
G01X4.9847Y-3.6453
M16
G05
G00X4.9847Y-4.575
M15
G01X4.9847Y-4.5553
M16
G05
G00X5.6362Y-2.2669
M15
G01X5.6362Y-2.2472
M16
G05
G00X5.6362Y-3.0169
M15
G01X5.6362Y-2.9972
M16
G05
G00X5.6362Y-3.7669
M15
G01X5.6362Y-3.7472
M16
G05
G00X5.6362Y-4.5769
M15
G01X5.6362Y-4.5572
M16
G05
G00X5.7347Y-2.2649
M15
G01X5.7347Y-2.2453
M16
G05
G00X5.7347Y-3.0149
M15
G01X5.7347Y-2.9953
M16
G05
G00X5.7347Y-3.7649
M15
G01X5.7347Y-3.7453
M16
G05
G00X5.7347Y-4.575
M15
G01X5.7347Y-4.5553
M16
G05
T8
G00X1.8371Y-2.7076
M15
G01X1.8371Y-2.6668
M16
G05
G00X1.8371Y-3.4576
M15
G01X1.8371Y-3.4168
M16
G05
G00X1.8371Y-4.2076
M15
G01X1.8371Y-4.1668
M16
G05
G00X1.8371Y-4.9576
M15
G01X1.8371Y-4.9168
M16
G05
G00X2.0355Y-2.7076
M15
G01X2.0355Y-2.6668
M16
G05
G00X2.0355Y-3.4576
M15
G01X2.0355Y-3.4168
M16
G05
G00X2.0355Y-4.2076
M15
G01X2.0355Y-4.1668
M16
G05
G00X2.0355Y-4.9576
M15
G01X2.0355Y-4.9168
M16
G05
G00X2.5869Y-2.6072
M15
G01X2.5869Y-2.5663
M16
G05
G00X2.5869Y-3.3571
M15
G01X2.5869Y-3.3163
M16
G05
G00X2.5869Y-4.107
M15
G01X2.5869Y-4.0662
M16
G05
G00X2.5869Y-4.9587
M15
G01X2.5869Y-4.9179
M16
G05
G00X2.7853Y-2.6072
M15
G01X2.7853Y-2.5663
M16
G05
G00X2.7853Y-3.3571
M15
G01X2.7853Y-3.3163
M16
G05
G00X2.7853Y-4.107
M15
G01X2.7853Y-4.0662
M16
G05
G00X2.7853Y-4.9587
M15
G01X2.7853Y-4.9179
M16
G05
G00X3.337Y-2.5586
M15
G01X3.337Y-2.5178
M16
G05
G00X3.337Y-3.3087
M15
G01X3.337Y-3.2679
M16
G05
G00X3.337Y-4.0587
M15
G01X3.337Y-4.0179
M16
G05
G00X3.337Y-4.9587
M15
G01X3.337Y-4.9179
M16
G05
G00X3.5354Y-2.5586
M15
G01X3.5354Y-2.5178
M16
G05
G00X3.5354Y-3.3087
M15
G01X3.5354Y-3.2679
M16
G05
G00X3.5354Y-4.0587
M15
G01X3.5354Y-4.0179
M16
G05
G00X3.5354Y-4.9587
M15
G01X3.5354Y-4.9179
M16
G05
G00X4.087Y-2.4987
M15
G01X4.087Y-2.4579
M16
G05
G00X4.087Y-3.2487
M15
G01X4.087Y-3.2079
M16
G05
G00X4.087Y-3.9987
M15
G01X4.087Y-3.9579
M16
G05
G00X4.087Y-4.9587
M15
G01X4.087Y-4.9179
M16
G05
G00X4.2854Y-2.4987
M15
G01X4.2854Y-2.4579
M16
G05
G00X4.2854Y-3.2487
M15
G01X4.2854Y-3.2079
M16
G05
G00X4.2854Y-3.9987
M15
G01X4.2854Y-3.9579
M16
G05
G00X4.2854Y-4.9587
M15
G01X4.2854Y-4.9179
M16
G05
G00X4.837Y-2.5487
M15
G01X4.837Y-2.5079
M16
G05
G00X4.837Y-3.2987
M15
G01X4.837Y-3.2579
M16
G05
G00X4.837Y-4.0487
M15
G01X4.837Y-4.0079
M16
G05
G00X4.837Y-4.9587
M15
G01X4.837Y-4.9179
M16
G05
G00X5.0354Y-2.5487
M15
G01X5.0354Y-2.5079
M16
G05
G00X5.0354Y-3.2987
M15
G01X5.0354Y-3.2579
M16
G05
G00X5.0354Y-4.0487
M15
G01X5.0354Y-4.0079
M16
G05
G00X5.0354Y-4.9587
M15
G01X5.0354Y-4.9179
M16
G05
G00X5.587Y-2.6487
M15
G01X5.587Y-2.6079
M16
G05
G00X5.587Y-3.3987
M15
G01X5.587Y-3.3579
M16
G05
G00X5.587Y-4.1487
M15
G01X5.587Y-4.1079
M16
G05
G00X5.587Y-4.9587
M15
G01X5.587Y-4.9179
M16
G05
G00X5.7854Y-2.6487
M15
G01X5.7854Y-2.6079
M16
G05
G00X5.7854Y-3.3987
M15
G01X5.7854Y-3.3579
M16
G05
G00X5.7854Y-4.1487
M15
G01X5.7854Y-4.1079
M16
G05
G00X5.7854Y-4.9587
M15
G01X5.7854Y-4.9179
M16
G05
T0
M30
