M48
; DRILL file {KiCad (5.1.8-0-10_14)} date Thursday, January 07, 2021 at 01:30:28 PM
; FORMAT={-:-/ absolute / inch / decimal}
; #@! TF.CreationDate,2021-01-07T13:30:28-06:00
; #@! TF.GenerationSoftware,Kicad,Pcbnew,(5.1.8-0-10_14)
FMAT,2
INCH
T1C0.0157
T2C0.0394
T3C0.0430
T4C0.0472
T5C0.0315
T6C0.0354
T7C0.0472
T8C0.0669
T9C0.1339
%
G90
G05
T1
X2.0747Y-4.3453
X2.1268Y-3.6068
X2.2607Y-1.9593
X2.27Y-2.8
X2.27Y-2.8
X3.12Y-1.95
X3.22Y-1.95
T2
X2.67Y-1.95
X2.77Y-1.95
X5.5327Y-4.4
X5.8398Y-4.4
X4.0327Y-1.95
X4.3398Y-1.95
X2.5349Y-4.4
X2.842Y-4.4
X3.2827Y-4.4
X3.5898Y-4.4
X3.2827Y-3.5
X3.5898Y-3.5
X1.7765Y-4.4
X2.0835Y-4.4
X5.5327Y-2.85
X5.8398Y-2.85
X2.5349Y-2.05
X2.842Y-2.05
X4.7827Y-3.5
X5.0898Y-3.5
X4.7827Y-4.4
X5.0898Y-4.4
X2.5349Y-3.55
X2.842Y-3.55
X1.7765Y-2.15
X2.0835Y-2.15
X3.2827Y-2.0
X3.5898Y-2.0
X5.5327Y-3.6
X5.8398Y-3.6
X4.7827Y-2.75
X5.0898Y-2.75
X4.0327Y-2.7
X4.3398Y-2.7
X2.5349Y-2.8
X2.842Y-2.8
X1.7765Y-2.9
X2.0835Y-2.9
X4.0327Y-3.45
X4.3398Y-3.45
X3.2827Y-2.75
X3.5898Y-2.75
X4.0327Y-4.4
X4.3398Y-4.4
X5.5327Y-2.1
X5.8398Y-2.1
X4.7827Y-2.0
X5.0898Y-2.0
X1.7765Y-3.65
X2.0835Y-3.65
T3
X2.3885Y-1.95
X2.3885Y-2.05
X2.3885Y-2.15
X2.3885Y-2.25
X2.3885Y-2.35
X2.3885Y-2.45
X2.3885Y-2.55
X2.3885Y-2.65
X2.3885Y-2.75
X2.3885Y-2.85
X2.3885Y-2.95
X2.3885Y-3.05
X2.9885Y-1.95
X2.9885Y-2.05
X2.9885Y-2.15
X2.9885Y-2.25
X2.9885Y-2.35
X2.9885Y-2.45
X2.9885Y-2.55
X2.9885Y-2.65
X2.9885Y-2.75
X2.9885Y-2.85
X2.9885Y-2.95
X2.9885Y-3.05
T4
X2.4916Y-4.9108
X2.6885Y-4.9935
X2.8853Y-4.9108
X4.7394Y-4.9108
X4.9362Y-4.9935
X5.1331Y-4.9108
X5.4894Y-3.3508
X5.6862Y-3.4335
X5.8831Y-3.3508
X4.7394Y-4.0008
X4.9362Y-4.0835
X5.1331Y-4.0008
X2.4916Y-2.5608
X2.6885Y-2.6435
X2.8853Y-2.5608
X3.2394Y-4.0108
X3.4362Y-4.0935
X3.6331Y-4.0108
X3.9894Y-3.9508
X4.1862Y-4.0335
X4.3831Y-3.9508
X2.4916Y-4.0591
X2.6885Y-4.1417
X2.8853Y-4.0591
X1.7331Y-2.6596
X1.93Y-2.7423
X2.1269Y-2.6596
X4.7394Y-3.2508
X4.9362Y-3.3335
X5.1331Y-3.2508
X3.9894Y-4.9108
X4.1862Y-4.9935
X4.3831Y-4.9108
X3.2394Y-2.5008
X3.4362Y-2.5835
X3.6331Y-2.5008
X3.9894Y-3.2008
X4.1862Y-3.2835
X4.3831Y-3.2008
X5.4894Y-4.9108
X5.6862Y-4.9935
X5.8831Y-4.9108
X2.4916Y-3.3107
X2.6885Y-3.3934
X2.8853Y-3.3107
X1.7231Y-3.4096
X1.92Y-3.4923
X2.1169Y-3.4096
X4.7394Y-2.5008
X4.9362Y-2.5835
X5.1331Y-2.5008
X3.2394Y-3.2608
X3.4362Y-3.3435
X3.6331Y-3.2608
X5.4894Y-2.6008
X5.6862Y-2.6835
X5.8831Y-2.6008
X1.7331Y-4.1596
X1.93Y-4.2423
X2.1269Y-4.1596
X1.7331Y-4.9096
X1.93Y-4.9923
X2.1269Y-4.9096
X3.2394Y-4.9108
X3.4362Y-4.9935
X3.6331Y-4.9108
X5.4894Y-4.1008
X5.6862Y-4.1835
X5.8831Y-4.1008
X3.9894Y-2.4508
X4.1862Y-2.5335
X4.3831Y-2.4508
T5
X3.22Y-1.87
X3.22Y-1.87
T6
X2.0109Y-1.897
X2.1291Y-1.897
X2.0109Y-1.897
X2.1291Y-1.897
T7
X3.9807Y-3.6358
X4.3917Y-3.6358
X2.483Y-3.7441
X2.894Y-3.7441
X1.7245Y-2.3446
X2.1355Y-2.3446
X4.7307Y-2.9358
X5.1417Y-2.9358
X3.9807Y-4.5958
X4.3917Y-4.5958
X3.2307Y-2.1858
X3.6417Y-2.1858
X3.9807Y-2.8858
X4.3917Y-2.8858
X5.4807Y-4.5958
X5.8917Y-4.5958
X2.483Y-2.9957
X2.894Y-2.9957
X1.7145Y-3.0946
X2.1255Y-3.0946
X4.7307Y-2.1858
X5.1417Y-2.1858
X3.2307Y-2.9458
X3.6417Y-2.9458
X5.4807Y-2.2858
X5.8917Y-2.2858
X1.7245Y-3.8446
X2.1355Y-3.8446
X1.7245Y-4.5946
X2.1355Y-4.5946
X3.2307Y-4.5958
X3.6417Y-4.5958
X5.4807Y-3.7858
X5.8917Y-3.7858
X3.9807Y-2.1358
X4.3917Y-2.1358
X2.483Y-4.5958
X2.894Y-4.5958
X4.7307Y-4.5958
X5.1417Y-4.5958
X5.4807Y-3.0358
X5.8917Y-3.0358
X4.7307Y-3.6858
X5.1417Y-3.6858
X2.483Y-2.2458
X2.894Y-2.2458
X3.2307Y-3.6958
X3.6417Y-3.6958
T8
X3.2197Y-3.8612
X3.6528Y-3.8612
X3.9697Y-3.8012
X4.4028Y-3.8012
X2.4719Y-3.9095
X2.905Y-3.9095
X1.7135Y-2.51
X2.1465Y-2.51
X4.7197Y-3.1012
X5.1528Y-3.1012
X3.9697Y-4.7612
X4.4028Y-4.7612
X3.2197Y-2.3512
X3.6528Y-2.3512
X3.9697Y-3.0512
X4.4028Y-3.0512
X5.4697Y-4.7612
X5.9028Y-4.7612
X2.4719Y-3.1611
X2.905Y-3.1611
X1.7035Y-3.26
X2.1365Y-3.26
X4.7197Y-2.3512
X5.1528Y-2.3512
X3.2197Y-3.1112
X3.6528Y-3.1112
X5.4697Y-2.4512
X5.9028Y-2.4512
X1.7135Y-4.01
X2.1465Y-4.01
X1.7135Y-4.76
X2.1465Y-4.76
X3.2197Y-4.7612
X3.6528Y-4.7612
X5.4697Y-3.9512
X5.9028Y-3.9512
X3.9697Y-2.3012
X4.4028Y-2.3012
X2.4719Y-4.7612
X2.905Y-4.7612
X4.7197Y-4.7612
X5.1528Y-4.7612
X5.4697Y-3.2012
X5.9028Y-3.2012
X4.7197Y-3.8512
X5.1528Y-3.8512
X2.4719Y-2.4112
X2.905Y-2.4112
T9
X2.6885Y-4.7612
X4.9362Y-4.7612
X5.6862Y-3.2012
X4.9362Y-3.8512
X2.6885Y-2.4112
X3.4362Y-3.8612
X4.1862Y-3.8012
X2.6885Y-3.9095
X1.93Y-2.51
X4.9362Y-3.1012
X4.1862Y-4.7612
X3.4362Y-2.3512
X4.1862Y-3.0512
X5.6862Y-4.7612
X2.6885Y-3.1611
X1.92Y-3.26
X4.9362Y-2.3512
X3.4362Y-3.1112
X5.6862Y-2.4512
X1.93Y-4.01
X1.93Y-4.76
X3.4362Y-4.7612
X5.6862Y-3.9512
X4.1862Y-2.3012
T0
M30
