G04 #@! TF.GenerationSoftware,KiCad,Pcbnew,5.1.9*
G04 #@! TF.CreationDate,2021-01-09T23:20:46-06:00*
G04 #@! TF.ProjectId,halfboard,68616c66-626f-4617-9264-2e6b69636164,rev?*
G04 #@! TF.SameCoordinates,Original*
G04 #@! TF.FileFunction,OtherDrawing,Comment*
%FSLAX46Y46*%
G04 Gerber Fmt 4.6, Leading zero omitted, Abs format (unit mm)*
G04 Created by KiCad (PCBNEW 5.1.9) date 2021-01-09 23:20:46*
%MOMM*%
%LPD*%
G01*
G04 APERTURE LIST*
%ADD10C,0.152400*%
G04 APERTURE END LIST*
D10*
G04 #@! TO.C,REF\u002A\u002A*
X39784000Y-73152000D02*
X39784000Y-54356000D01*
X58580000Y-73152000D02*
X39784000Y-73152000D01*
X58580000Y-54356000D02*
X58580000Y-73152000D01*
X39784000Y-54356000D02*
X58580000Y-54356000D01*
G04 #@! TO.C, *
X135032303Y-71657730D02*
X135032303Y-52861730D01*
X153828303Y-71657730D02*
X135032303Y-71657730D01*
X153828303Y-52861730D02*
X153828303Y-71657730D01*
X135032303Y-52861730D02*
X153828303Y-52861730D01*
X135032303Y-90707730D02*
X135032303Y-71911730D01*
X153828303Y-90707730D02*
X135032303Y-90707730D01*
X153828303Y-71911730D02*
X153828303Y-90707730D01*
X135032303Y-71911730D02*
X153828303Y-71911730D01*
X135032303Y-109757730D02*
X135032303Y-90961730D01*
X153828303Y-109757730D02*
X135032303Y-109757730D01*
X153828303Y-90961730D02*
X153828303Y-109757730D01*
X135032303Y-90961730D02*
X153828303Y-90961730D01*
X135032303Y-130331730D02*
X135032303Y-111535730D01*
X153828303Y-130331730D02*
X135032303Y-130331730D01*
X153828303Y-111535730D02*
X153828303Y-130331730D01*
X135032303Y-111535730D02*
X153828303Y-111535730D01*
X115982303Y-130331730D02*
X115982303Y-111535730D01*
X134778303Y-130331730D02*
X115982303Y-130331730D01*
X134778303Y-111535730D02*
X134778303Y-130331730D01*
X115982303Y-111535730D02*
X134778303Y-111535730D01*
X96932303Y-130331730D02*
X96932303Y-111535730D01*
X115728303Y-130331730D02*
X96932303Y-130331730D01*
X115728303Y-111535730D02*
X115728303Y-130331730D01*
X96932303Y-111535730D02*
X115728303Y-111535730D01*
X77882303Y-130331730D02*
X77882303Y-111535730D01*
X96678303Y-130331730D02*
X77882303Y-130331730D01*
X96678303Y-111535730D02*
X96678303Y-130331730D01*
X77882303Y-111535730D02*
X96678303Y-111535730D01*
X115982303Y-107217730D02*
X115982303Y-88421730D01*
X134778303Y-107217730D02*
X115982303Y-107217730D01*
X134778303Y-88421730D02*
X134778303Y-107217730D01*
X115982303Y-88421730D02*
X134778303Y-88421730D01*
X115982303Y-88167730D02*
X115982303Y-69371730D01*
X134778303Y-88167730D02*
X115982303Y-88167730D01*
X134778303Y-69371730D02*
X134778303Y-88167730D01*
X115982303Y-69371730D02*
X134778303Y-69371730D01*
X115982303Y-69117730D02*
X115982303Y-50321730D01*
X134778303Y-69117730D02*
X115982303Y-69117730D01*
X134778303Y-50321730D02*
X134778303Y-69117730D01*
X115982303Y-50321730D02*
X134778303Y-50321730D01*
X96932303Y-67847730D02*
X96932303Y-49051730D01*
X115728303Y-67847730D02*
X96932303Y-67847730D01*
X115728303Y-49051730D02*
X115728303Y-67847730D01*
X96932303Y-49051730D02*
X115728303Y-49051730D01*
X96932303Y-86897730D02*
X96932303Y-68101730D01*
X115728303Y-86897730D02*
X96932303Y-86897730D01*
X115728303Y-68101730D02*
X115728303Y-86897730D01*
X96932303Y-68101730D02*
X115728303Y-68101730D01*
X96932303Y-105947730D02*
X96932303Y-87151730D01*
X115728303Y-105947730D02*
X96932303Y-105947730D01*
X115728303Y-87151730D02*
X115728303Y-105947730D01*
X96932303Y-87151730D02*
X115728303Y-87151730D01*
X77882303Y-107471730D02*
X77882303Y-88675730D01*
X96678303Y-107471730D02*
X77882303Y-107471730D01*
X96678303Y-88675730D02*
X96678303Y-107471730D01*
X77882303Y-88675730D02*
X96678303Y-88675730D01*
X77882303Y-88421730D02*
X77882303Y-69625730D01*
X96678303Y-88421730D02*
X77882303Y-88421730D01*
X96678303Y-69625730D02*
X96678303Y-88421730D01*
X77882303Y-69625730D02*
X96678303Y-69625730D01*
X77882303Y-69367730D02*
X77882303Y-50571730D01*
X96678303Y-69367730D02*
X77882303Y-69367730D01*
X96678303Y-50571730D02*
X96678303Y-69367730D01*
X77882303Y-50571730D02*
X96678303Y-50571730D01*
X58829231Y-70601730D02*
X58829231Y-51805730D01*
X77625231Y-70601730D02*
X58829231Y-70601730D01*
X77625231Y-51805730D02*
X77625231Y-70601730D01*
X58829231Y-51805730D02*
X77625231Y-51805730D01*
X58829231Y-89649829D02*
X58829231Y-70853829D01*
X77625231Y-89649829D02*
X58829231Y-89649829D01*
X77625231Y-70853829D02*
X77625231Y-89649829D01*
X58829231Y-70853829D02*
X77625231Y-70853829D01*
X58829231Y-108698230D02*
X58829231Y-89902230D01*
X77625231Y-108698230D02*
X58829231Y-108698230D01*
X77625231Y-89902230D02*
X77625231Y-108698230D01*
X58829231Y-89902230D02*
X77625231Y-89902230D01*
X58829231Y-111535730D02*
X77625231Y-111535730D01*
X77625231Y-111535730D02*
X77625231Y-130331730D01*
X77625231Y-130331730D02*
X58829231Y-130331730D01*
X58829231Y-130331730D02*
X58829231Y-111535730D01*
X39784000Y-111506000D02*
X58580000Y-111506000D01*
X58580000Y-111506000D02*
X58580000Y-130302000D01*
X58580000Y-130302000D02*
X39784000Y-130302000D01*
X39784000Y-130302000D02*
X39784000Y-111506000D01*
X39784000Y-92456000D02*
X58580000Y-92456000D01*
X58580000Y-92456000D02*
X58580000Y-111252000D01*
X58580000Y-111252000D02*
X39784000Y-111252000D01*
X39784000Y-111252000D02*
X39784000Y-92456000D01*
X39784000Y-73406000D02*
X58580000Y-73406000D01*
X58580000Y-73406000D02*
X58580000Y-92202000D01*
X58580000Y-92202000D02*
X39784000Y-92202000D01*
X39784000Y-92202000D02*
X39784000Y-73406000D01*
G04 #@! TD*
M02*
