G04 #@! TF.GenerationSoftware,KiCad,Pcbnew,5.1.9*
G04 #@! TF.CreationDate,2021-01-18T19:30:39-06:00*
G04 #@! TF.ProjectId,halfboard,68616c66-626f-4617-9264-2e6b69636164,rev?*
G04 #@! TF.SameCoordinates,Original*
G04 #@! TF.FileFunction,Legend,Bot*
G04 #@! TF.FilePolarity,Positive*
%FSLAX46Y46*%
G04 Gerber Fmt 4.6, Leading zero omitted, Abs format (unit mm)*
G04 Created by KiCad (PCBNEW 5.1.9) date 2021-01-18 19:30:39*
%MOMM*%
%LPD*%
G01*
G04 APERTURE LIST*
%ADD10C,0.150000*%
%ADD11C,0.120000*%
G04 APERTURE END LIST*
D10*
X151684666Y-51704761D02*
X151684666Y-49704761D01*
X151684666Y-50657142D02*
X150541809Y-50657142D01*
X150541809Y-51704761D02*
X150541809Y-49704761D01*
X148732285Y-51704761D02*
X148732285Y-50657142D01*
X148827523Y-50466666D01*
X149018000Y-50371428D01*
X149398952Y-50371428D01*
X149589428Y-50466666D01*
X148732285Y-51609523D02*
X148922761Y-51704761D01*
X149398952Y-51704761D01*
X149589428Y-51609523D01*
X149684666Y-51419047D01*
X149684666Y-51228571D01*
X149589428Y-51038095D01*
X149398952Y-50942857D01*
X148922761Y-50942857D01*
X148732285Y-50847619D01*
X147494190Y-51704761D02*
X147684666Y-51609523D01*
X147779904Y-51419047D01*
X147779904Y-49704761D01*
X147018000Y-50371428D02*
X146256095Y-50371428D01*
X146732285Y-51704761D02*
X146732285Y-49990476D01*
X146637047Y-49800000D01*
X146446571Y-49704761D01*
X146256095Y-49704761D01*
X143398952Y-50657142D02*
X143113238Y-50752380D01*
X143018000Y-50847619D01*
X142922761Y-51038095D01*
X142922761Y-51323809D01*
X143018000Y-51514285D01*
X143113238Y-51609523D01*
X143303714Y-51704761D01*
X144065619Y-51704761D01*
X144065619Y-49704761D01*
X143398952Y-49704761D01*
X143208476Y-49800000D01*
X143113238Y-49895238D01*
X143018000Y-50085714D01*
X143018000Y-50276190D01*
X143113238Y-50466666D01*
X143208476Y-50561904D01*
X143398952Y-50657142D01*
X144065619Y-50657142D01*
X141779904Y-51704761D02*
X141970380Y-51609523D01*
X142065619Y-51514285D01*
X142160857Y-51323809D01*
X142160857Y-50752380D01*
X142065619Y-50561904D01*
X141970380Y-50466666D01*
X141779904Y-50371428D01*
X141494190Y-50371428D01*
X141303714Y-50466666D01*
X141208476Y-50561904D01*
X141113238Y-50752380D01*
X141113238Y-51323809D01*
X141208476Y-51514285D01*
X141303714Y-51609523D01*
X141494190Y-51704761D01*
X141779904Y-51704761D01*
X139398952Y-51704761D02*
X139398952Y-50657142D01*
X139494190Y-50466666D01*
X139684666Y-50371428D01*
X140065619Y-50371428D01*
X140256095Y-50466666D01*
X139398952Y-51609523D02*
X139589428Y-51704761D01*
X140065619Y-51704761D01*
X140256095Y-51609523D01*
X140351333Y-51419047D01*
X140351333Y-51228571D01*
X140256095Y-51038095D01*
X140065619Y-50942857D01*
X139589428Y-50942857D01*
X139398952Y-50847619D01*
X138446571Y-51704761D02*
X138446571Y-50371428D01*
X138446571Y-50752380D02*
X138351333Y-50561904D01*
X138256095Y-50466666D01*
X138065619Y-50371428D01*
X137875142Y-50371428D01*
X136351333Y-51704761D02*
X136351333Y-49704761D01*
X136351333Y-51609523D02*
X136541809Y-51704761D01*
X136922761Y-51704761D01*
X137113238Y-51609523D01*
X137208476Y-51514285D01*
X137303714Y-51323809D01*
X137303714Y-50752380D01*
X137208476Y-50561904D01*
X137113238Y-50466666D01*
X136922761Y-50371428D01*
X136541809Y-50371428D01*
X136351333Y-50466666D01*
D11*
G04 #@! TO.C, *
X131932000Y-131276000D02*
X131932000Y-130486000D01*
X138832000Y-130486000D02*
X138832000Y-131276000D01*
X136982000Y-129436000D02*
X135282000Y-129436000D01*
X138232000Y-132286000D02*
X132532000Y-132286000D01*
X135482000Y-133576000D02*
X135482000Y-132286000D01*
X136582000Y-133786000D02*
X135682000Y-133786000D01*
X136782000Y-132286000D02*
X136782000Y-133576000D01*
X135482000Y-133576000D02*
X135682000Y-133786000D01*
X136782000Y-133576000D02*
X136582000Y-133786000D01*
X133982000Y-129436000D02*
X133782000Y-129436000D01*
X47118000Y-46098000D02*
X47118000Y-46398000D01*
X50418000Y-46098000D02*
X47118000Y-46098000D01*
X50418000Y-46398000D02*
X50418000Y-46098000D01*
X47118000Y-48898000D02*
X47118000Y-48598000D01*
X50418000Y-48598000D02*
X50418000Y-48898000D01*
X50418000Y-48898000D02*
X47118000Y-48898000D01*
X47768000Y-45778000D02*
X47768000Y-46098000D01*
X48268000Y-45398000D02*
X47768000Y-45778000D01*
X49268000Y-45398000D02*
X48268000Y-45398000D01*
X49768000Y-45778000D02*
X49768000Y-46098000D01*
X49268000Y-45398000D02*
X49768000Y-45778000D01*
D10*
G04 #@! TD*
M02*
