G04 #@! TF.GenerationSoftware,KiCad,Pcbnew,5.1.9*
G04 #@! TF.CreationDate,2021-01-09T23:33:15-06:00*
G04 #@! TF.ProjectId,halfboard,68616c66-626f-4617-9264-2e6b69636164,rev?*
G04 #@! TF.SameCoordinates,Original*
G04 #@! TF.FileFunction,Other,Fab,Top*
%FSLAX46Y46*%
G04 Gerber Fmt 4.6, Leading zero omitted, Abs format (unit mm)*
G04 Created by KiCad (PCBNEW 5.1.9) date 2021-01-09 23:33:15*
%MOMM*%
%LPD*%
G01*
G04 APERTURE LIST*
%ADD10C,0.100000*%
%ADD11C,0.150000*%
G04 APERTURE END LIST*
D10*
G04 #@! TO.C, *
X70993000Y-48260000D02*
X71628000Y-48895000D01*
X66548000Y-48260000D02*
X70993000Y-48260000D01*
X66548000Y-50800000D02*
X66548000Y-48260000D01*
X71628000Y-50800000D02*
X66548000Y-50800000D01*
X71628000Y-48895000D02*
X71628000Y-50800000D01*
G04 #@! TO.C,REF\u002A\u002A*
X80938000Y-46248000D02*
X80938000Y-45848000D01*
X80938000Y-45848000D02*
X81338000Y-45548000D01*
X81338000Y-45548000D02*
X82238000Y-45548000D01*
X82238000Y-45548000D02*
X82638000Y-45848000D01*
X82638000Y-45848000D02*
X82638000Y-46248000D01*
X80288000Y-46248000D02*
X83288000Y-46248000D01*
X83288000Y-46248000D02*
X83288000Y-48748000D01*
X83288000Y-48748000D02*
X80288000Y-48748000D01*
X80288000Y-48748000D02*
X80288000Y-46248000D01*
X53978000Y-46864000D02*
X53978000Y-45564000D01*
X53978000Y-45564000D02*
X53778000Y-45364000D01*
X53778000Y-45364000D02*
X52928000Y-45364000D01*
X52928000Y-45364000D02*
X52728000Y-45564000D01*
X52728000Y-45564000D02*
X52678000Y-45614000D01*
X52678000Y-45614000D02*
X52678000Y-46914000D01*
X55928000Y-49514000D02*
X55928000Y-46914000D01*
X55928000Y-46914000D02*
X49228000Y-46914000D01*
X49228000Y-46914000D02*
X49228000Y-49514000D01*
X49228000Y-49514000D02*
X55928000Y-49514000D01*
G04 #@! TD*
G04 #@! TO.C, *
D11*
G04 #@! TO.C,REF\u002A\u002A*
X80454666Y-44850380D02*
X80121333Y-44374190D01*
X79883238Y-44850380D02*
X79883238Y-43850380D01*
X80264190Y-43850380D01*
X80359428Y-43898000D01*
X80407047Y-43945619D01*
X80454666Y-44040857D01*
X80454666Y-44183714D01*
X80407047Y-44278952D01*
X80359428Y-44326571D01*
X80264190Y-44374190D01*
X79883238Y-44374190D01*
X80883238Y-44326571D02*
X81216571Y-44326571D01*
X81359428Y-44850380D02*
X80883238Y-44850380D01*
X80883238Y-43850380D01*
X81359428Y-43850380D01*
X82121333Y-44326571D02*
X81788000Y-44326571D01*
X81788000Y-44850380D02*
X81788000Y-43850380D01*
X82264190Y-43850380D01*
X82788000Y-43850380D02*
X82788000Y-44088476D01*
X82549904Y-43993238D02*
X82788000Y-44088476D01*
X83026095Y-43993238D01*
X82645142Y-44278952D02*
X82788000Y-44088476D01*
X82930857Y-44278952D01*
X83549904Y-43850380D02*
X83549904Y-44088476D01*
X83311809Y-43993238D02*
X83549904Y-44088476D01*
X83788000Y-43993238D01*
X83407047Y-44278952D02*
X83549904Y-44088476D01*
X83692761Y-44278952D01*
X46578000Y-44668761D02*
X46720857Y-44716380D01*
X46958952Y-44716380D01*
X47054190Y-44668761D01*
X47101809Y-44621142D01*
X47149428Y-44525904D01*
X47149428Y-44430666D01*
X47101809Y-44335428D01*
X47054190Y-44287809D01*
X46958952Y-44240190D01*
X46768476Y-44192571D01*
X46673238Y-44144952D01*
X46625619Y-44097333D01*
X46578000Y-44002095D01*
X46578000Y-43906857D01*
X46625619Y-43811619D01*
X46673238Y-43764000D01*
X46768476Y-43716380D01*
X47006571Y-43716380D01*
X47149428Y-43764000D01*
X47482761Y-43716380D02*
X47720857Y-44716380D01*
X47911333Y-44002095D01*
X48101809Y-44716380D01*
X48339904Y-43716380D01*
X48482761Y-44811619D02*
X49244666Y-44811619D01*
X49435142Y-44668761D02*
X49578000Y-44716380D01*
X49816095Y-44716380D01*
X49911333Y-44668761D01*
X49958952Y-44621142D01*
X50006571Y-44525904D01*
X50006571Y-44430666D01*
X49958952Y-44335428D01*
X49911333Y-44287809D01*
X49816095Y-44240190D01*
X49625619Y-44192571D01*
X49530380Y-44144952D01*
X49482761Y-44097333D01*
X49435142Y-44002095D01*
X49435142Y-43906857D01*
X49482761Y-43811619D01*
X49530380Y-43764000D01*
X49625619Y-43716380D01*
X49863714Y-43716380D01*
X50006571Y-43764000D01*
X50435142Y-44716380D02*
X50435142Y-43716380D01*
X50816095Y-43716380D01*
X50911333Y-43764000D01*
X50958952Y-43811619D01*
X51006571Y-43906857D01*
X51006571Y-44049714D01*
X50958952Y-44144952D01*
X50911333Y-44192571D01*
X50816095Y-44240190D01*
X50435142Y-44240190D01*
X51435142Y-44716380D02*
X51435142Y-43716380D01*
X51673238Y-43716380D01*
X51816095Y-43764000D01*
X51911333Y-43859238D01*
X51958952Y-43954476D01*
X52006571Y-44144952D01*
X52006571Y-44287809D01*
X51958952Y-44478285D01*
X51911333Y-44573523D01*
X51816095Y-44668761D01*
X51673238Y-44716380D01*
X51435142Y-44716380D01*
X52292285Y-43716380D02*
X52863714Y-43716380D01*
X52578000Y-44716380D02*
X52578000Y-43716380D01*
X52958952Y-44811619D02*
X53720857Y-44811619D01*
X53958952Y-44716380D02*
X53958952Y-43716380D01*
X54339904Y-43716380D01*
X54435142Y-43764000D01*
X54482761Y-43811619D01*
X54530380Y-43906857D01*
X54530380Y-44049714D01*
X54482761Y-44144952D01*
X54435142Y-44192571D01*
X54339904Y-44240190D01*
X53958952Y-44240190D01*
X55530380Y-44621142D02*
X55482761Y-44668761D01*
X55339904Y-44716380D01*
X55244666Y-44716380D01*
X55101809Y-44668761D01*
X55006571Y-44573523D01*
X54958952Y-44478285D01*
X54911333Y-44287809D01*
X54911333Y-44144952D01*
X54958952Y-43954476D01*
X55006571Y-43859238D01*
X55101809Y-43764000D01*
X55244666Y-43716380D01*
X55339904Y-43716380D01*
X55482761Y-43764000D01*
X55530380Y-43811619D01*
X55958952Y-44716380D02*
X55958952Y-43716380D01*
X56292285Y-44430666D01*
X56625619Y-43716380D01*
X56625619Y-44716380D01*
X57625619Y-44716380D02*
X57054190Y-44716380D01*
X57339904Y-44716380D02*
X57339904Y-43716380D01*
X57244666Y-43859238D01*
X57149428Y-43954476D01*
X57054190Y-44002095D01*
X58006571Y-43811619D02*
X58054190Y-43764000D01*
X58149428Y-43716380D01*
X58387523Y-43716380D01*
X58482761Y-43764000D01*
X58530380Y-43811619D01*
X58578000Y-43906857D01*
X58578000Y-44002095D01*
X58530380Y-44144952D01*
X57958952Y-44716380D01*
X58578000Y-44716380D01*
G04 #@! TD*
M02*
