G04 #@! TF.GenerationSoftware,KiCad,Pcbnew,5.1.9*
G04 #@! TF.CreationDate,2021-01-18T19:30:39-06:00*
G04 #@! TF.ProjectId,halfboard,68616c66-626f-4617-9264-2e6b69636164,rev?*
G04 #@! TF.SameCoordinates,Original*
G04 #@! TF.FileFunction,Soldermask,Bot*
G04 #@! TF.FilePolarity,Negative*
%FSLAX46Y46*%
G04 Gerber Fmt 4.6, Leading zero omitted, Abs format (unit mm)*
G04 Created by KiCad (PCBNEW 5.1.9) date 2021-01-18 19:30:39*
%MOMM*%
%LPD*%
G01*
G04 APERTURE LIST*
%ADD10C,0.100000*%
%ADD11R,1.600000X1.200000*%
%ADD12C,1.600000*%
%ADD13R,1.600000X1.600000*%
%ADD14C,2.000000*%
%ADD15R,1.500000X2.300000*%
%ADD16C,1.193800*%
%ADD17O,2.300000X3.337000*%
%ADD18C,2.286000*%
%ADD19C,2.500000*%
%ADD20C,2.200000*%
%ADD21C,1.900000*%
%ADD22C,5.000000*%
%ADD23C,1.752600*%
%ADD24O,1.700000X1.700000*%
%ADD25R,1.700000X1.700000*%
%ADD26C,0.800000*%
%ADD27C,0.900000*%
%ADD28R,0.700000X1.500000*%
%ADD29R,1.000000X0.800000*%
%ADD30R,0.900000X1.700000*%
G04 APERTURE END LIST*
D10*
G04 #@! TO.C, *
G36*
X49182000Y-67386200D02*
G01*
X50198000Y-67386200D01*
X50198000Y-68707000D01*
X49182000Y-68707000D01*
X49182000Y-67386200D01*
G37*
X49182000Y-67386200D02*
X50198000Y-67386200D01*
X50198000Y-68707000D01*
X49182000Y-68707000D01*
X49182000Y-67386200D01*
G36*
X144430303Y-65891930D02*
G01*
X145446303Y-65891930D01*
X145446303Y-67212730D01*
X144430303Y-67212730D01*
X144430303Y-65891930D01*
G37*
X144430303Y-65891930D02*
X145446303Y-65891930D01*
X145446303Y-67212730D01*
X144430303Y-67212730D01*
X144430303Y-65891930D01*
G36*
X144430303Y-84941930D02*
G01*
X145446303Y-84941930D01*
X145446303Y-86262730D01*
X144430303Y-86262730D01*
X144430303Y-84941930D01*
G37*
X144430303Y-84941930D02*
X145446303Y-84941930D01*
X145446303Y-86262730D01*
X144430303Y-86262730D01*
X144430303Y-84941930D01*
G36*
X144430303Y-103991930D02*
G01*
X145446303Y-103991930D01*
X145446303Y-105312730D01*
X144430303Y-105312730D01*
X144430303Y-103991930D01*
G37*
X144430303Y-103991930D02*
X145446303Y-103991930D01*
X145446303Y-105312730D01*
X144430303Y-105312730D01*
X144430303Y-103991930D01*
G36*
X144430303Y-124565930D02*
G01*
X145446303Y-124565930D01*
X145446303Y-125886730D01*
X144430303Y-125886730D01*
X144430303Y-124565930D01*
G37*
X144430303Y-124565930D02*
X145446303Y-124565930D01*
X145446303Y-125886730D01*
X144430303Y-125886730D01*
X144430303Y-124565930D01*
G36*
X125380303Y-124565930D02*
G01*
X126396303Y-124565930D01*
X126396303Y-125886730D01*
X125380303Y-125886730D01*
X125380303Y-124565930D01*
G37*
X125380303Y-124565930D02*
X126396303Y-124565930D01*
X126396303Y-125886730D01*
X125380303Y-125886730D01*
X125380303Y-124565930D01*
G36*
X106330303Y-124565930D02*
G01*
X107346303Y-124565930D01*
X107346303Y-125886730D01*
X106330303Y-125886730D01*
X106330303Y-124565930D01*
G37*
X106330303Y-124565930D02*
X107346303Y-124565930D01*
X107346303Y-125886730D01*
X106330303Y-125886730D01*
X106330303Y-124565930D01*
G36*
X87280303Y-124565930D02*
G01*
X88296303Y-124565930D01*
X88296303Y-125886730D01*
X87280303Y-125886730D01*
X87280303Y-124565930D01*
G37*
X87280303Y-124565930D02*
X88296303Y-124565930D01*
X88296303Y-125886730D01*
X87280303Y-125886730D01*
X87280303Y-124565930D01*
G36*
X125380303Y-101451930D02*
G01*
X126396303Y-101451930D01*
X126396303Y-102772730D01*
X125380303Y-102772730D01*
X125380303Y-101451930D01*
G37*
X125380303Y-101451930D02*
X126396303Y-101451930D01*
X126396303Y-102772730D01*
X125380303Y-102772730D01*
X125380303Y-101451930D01*
G36*
X125380303Y-82401930D02*
G01*
X126396303Y-82401930D01*
X126396303Y-83722730D01*
X125380303Y-83722730D01*
X125380303Y-82401930D01*
G37*
X125380303Y-82401930D02*
X126396303Y-82401930D01*
X126396303Y-83722730D01*
X125380303Y-83722730D01*
X125380303Y-82401930D01*
G36*
X125380303Y-63351930D02*
G01*
X126396303Y-63351930D01*
X126396303Y-64672730D01*
X125380303Y-64672730D01*
X125380303Y-63351930D01*
G37*
X125380303Y-63351930D02*
X126396303Y-63351930D01*
X126396303Y-64672730D01*
X125380303Y-64672730D01*
X125380303Y-63351930D01*
G36*
X106330303Y-62081930D02*
G01*
X107346303Y-62081930D01*
X107346303Y-63402730D01*
X106330303Y-63402730D01*
X106330303Y-62081930D01*
G37*
X106330303Y-62081930D02*
X107346303Y-62081930D01*
X107346303Y-63402730D01*
X106330303Y-63402730D01*
X106330303Y-62081930D01*
G36*
X106330303Y-81131930D02*
G01*
X107346303Y-81131930D01*
X107346303Y-82452730D01*
X106330303Y-82452730D01*
X106330303Y-81131930D01*
G37*
X106330303Y-81131930D02*
X107346303Y-81131930D01*
X107346303Y-82452730D01*
X106330303Y-82452730D01*
X106330303Y-81131930D01*
G36*
X106330303Y-100181930D02*
G01*
X107346303Y-100181930D01*
X107346303Y-101502730D01*
X106330303Y-101502730D01*
X106330303Y-100181930D01*
G37*
X106330303Y-100181930D02*
X107346303Y-100181930D01*
X107346303Y-101502730D01*
X106330303Y-101502730D01*
X106330303Y-100181930D01*
G36*
X87280303Y-101705930D02*
G01*
X88296303Y-101705930D01*
X88296303Y-103026730D01*
X87280303Y-103026730D01*
X87280303Y-101705930D01*
G37*
X87280303Y-101705930D02*
X88296303Y-101705930D01*
X88296303Y-103026730D01*
X87280303Y-103026730D01*
X87280303Y-101705930D01*
G36*
X87280303Y-82655930D02*
G01*
X88296303Y-82655930D01*
X88296303Y-83976730D01*
X87280303Y-83976730D01*
X87280303Y-82655930D01*
G37*
X87280303Y-82655930D02*
X88296303Y-82655930D01*
X88296303Y-83976730D01*
X87280303Y-83976730D01*
X87280303Y-82655930D01*
G36*
X87280303Y-63601930D02*
G01*
X88296303Y-63601930D01*
X88296303Y-64922730D01*
X87280303Y-64922730D01*
X87280303Y-63601930D01*
G37*
X87280303Y-63601930D02*
X88296303Y-63601930D01*
X88296303Y-64922730D01*
X87280303Y-64922730D01*
X87280303Y-63601930D01*
G36*
X68227231Y-64835930D02*
G01*
X69243231Y-64835930D01*
X69243231Y-66156730D01*
X68227231Y-66156730D01*
X68227231Y-64835930D01*
G37*
X68227231Y-64835930D02*
X69243231Y-64835930D01*
X69243231Y-66156730D01*
X68227231Y-66156730D01*
X68227231Y-64835930D01*
G36*
X68227231Y-83884029D02*
G01*
X69243231Y-83884029D01*
X69243231Y-85204829D01*
X68227231Y-85204829D01*
X68227231Y-83884029D01*
G37*
X68227231Y-83884029D02*
X69243231Y-83884029D01*
X69243231Y-85204829D01*
X68227231Y-85204829D01*
X68227231Y-83884029D01*
G36*
X68227231Y-102932430D02*
G01*
X69243231Y-102932430D01*
X69243231Y-104253230D01*
X68227231Y-104253230D01*
X68227231Y-102932430D01*
G37*
X68227231Y-102932430D02*
X69243231Y-102932430D01*
X69243231Y-104253230D01*
X68227231Y-104253230D01*
X68227231Y-102932430D01*
G36*
X68227231Y-124565930D02*
G01*
X69243231Y-124565930D01*
X69243231Y-125886730D01*
X68227231Y-125886730D01*
X68227231Y-124565930D01*
G37*
X68227231Y-124565930D02*
X69243231Y-124565930D01*
X69243231Y-125886730D01*
X68227231Y-125886730D01*
X68227231Y-124565930D01*
G36*
X49182000Y-124536200D02*
G01*
X50198000Y-124536200D01*
X50198000Y-125857000D01*
X49182000Y-125857000D01*
X49182000Y-124536200D01*
G37*
X49182000Y-124536200D02*
X50198000Y-124536200D01*
X50198000Y-125857000D01*
X49182000Y-125857000D01*
X49182000Y-124536200D01*
G36*
X49182000Y-105486200D02*
G01*
X50198000Y-105486200D01*
X50198000Y-106807000D01*
X49182000Y-106807000D01*
X49182000Y-105486200D01*
G37*
X49182000Y-105486200D02*
X50198000Y-105486200D01*
X50198000Y-106807000D01*
X49182000Y-106807000D01*
X49182000Y-105486200D01*
G36*
X49182000Y-86436200D02*
G01*
X50198000Y-86436200D01*
X50198000Y-87757000D01*
X49182000Y-87757000D01*
X49182000Y-86436200D01*
G37*
X49182000Y-86436200D02*
X50198000Y-86436200D01*
X50198000Y-87757000D01*
X49182000Y-87757000D01*
X49182000Y-86436200D01*
G04 #@! TD*
D11*
G04 #@! TO.C, *
X143030303Y-53340000D03*
X145830303Y-53340000D03*
D12*
X140530303Y-53340000D03*
D13*
X148330303Y-53340000D03*
G04 #@! TD*
D11*
G04 #@! TO.C, *
X143030303Y-72390000D03*
X145830303Y-72390000D03*
D12*
X140530303Y-72390000D03*
D13*
X148330303Y-72390000D03*
G04 #@! TD*
D11*
G04 #@! TO.C, *
X143030303Y-91440000D03*
X145830303Y-91440000D03*
D12*
X140530303Y-91440000D03*
D13*
X148330303Y-91440000D03*
G04 #@! TD*
D11*
G04 #@! TO.C, *
X143538303Y-111490000D03*
X146338303Y-111490000D03*
D12*
X141038303Y-111490000D03*
D13*
X148838303Y-111490000D03*
G04 #@! TD*
D11*
G04 #@! TO.C, *
X124488303Y-111490000D03*
X127288303Y-111490000D03*
D12*
X121988303Y-111490000D03*
D13*
X129788303Y-111490000D03*
G04 #@! TD*
D11*
G04 #@! TO.C, *
X105438303Y-111490000D03*
X108238303Y-111490000D03*
D12*
X102938303Y-111490000D03*
D13*
X110738303Y-111490000D03*
G04 #@! TD*
D11*
G04 #@! TO.C, *
X86388303Y-111490000D03*
X89188303Y-111490000D03*
D12*
X83888303Y-111490000D03*
D13*
X91688303Y-111490000D03*
G04 #@! TD*
D11*
G04 #@! TO.C, *
X123980303Y-88900000D03*
X126780303Y-88900000D03*
D12*
X121480303Y-88900000D03*
D13*
X129280303Y-88900000D03*
G04 #@! TD*
D11*
G04 #@! TO.C, *
X123980303Y-69850000D03*
X126780303Y-69850000D03*
D12*
X121480303Y-69850000D03*
D13*
X129280303Y-69850000D03*
G04 #@! TD*
D11*
G04 #@! TO.C, *
X123980303Y-50800000D03*
X126780303Y-50800000D03*
D12*
X121480303Y-50800000D03*
D13*
X129280303Y-50800000D03*
G04 #@! TD*
D11*
G04 #@! TO.C, *
X104930303Y-49530000D03*
X107730303Y-49530000D03*
D12*
X102430303Y-49530000D03*
D13*
X110230303Y-49530000D03*
G04 #@! TD*
D11*
G04 #@! TO.C, *
X104930303Y-68580000D03*
X107730303Y-68580000D03*
D12*
X102430303Y-68580000D03*
D13*
X110230303Y-68580000D03*
G04 #@! TD*
D11*
G04 #@! TO.C, *
X104930303Y-87630000D03*
X107730303Y-87630000D03*
D12*
X102430303Y-87630000D03*
D13*
X110230303Y-87630000D03*
G04 #@! TD*
D11*
G04 #@! TO.C, *
X85880303Y-88900000D03*
X88680303Y-88900000D03*
D12*
X83380303Y-88900000D03*
D13*
X91180303Y-88900000D03*
G04 #@! TD*
D11*
G04 #@! TO.C, *
X85880303Y-69850000D03*
X88680303Y-69850000D03*
D12*
X83380303Y-69850000D03*
D13*
X91180303Y-69850000D03*
G04 #@! TD*
D11*
G04 #@! TO.C, *
X66887231Y-90170000D03*
X69687231Y-90170000D03*
D12*
X64387231Y-90170000D03*
D13*
X72187231Y-90170000D03*
G04 #@! TD*
D11*
G04 #@! TO.C, *
X67395231Y-111490000D03*
X70195231Y-111490000D03*
D12*
X64895231Y-111490000D03*
D13*
X72695231Y-111490000D03*
G04 #@! TD*
D11*
G04 #@! TO.C, *
X48130000Y-111490000D03*
X50930000Y-111490000D03*
D12*
X45630000Y-111490000D03*
D13*
X53430000Y-111490000D03*
G04 #@! TD*
D11*
G04 #@! TO.C, *
X48130000Y-92710000D03*
X50930000Y-92710000D03*
D12*
X45630000Y-92710000D03*
D13*
X53430000Y-92710000D03*
G04 #@! TD*
D11*
G04 #@! TO.C, *
X85880303Y-50800000D03*
X88680303Y-50800000D03*
D12*
X83380303Y-50800000D03*
D13*
X91180303Y-50800000D03*
G04 #@! TD*
D11*
G04 #@! TO.C, *
X66887231Y-52070000D03*
X69687231Y-52070000D03*
D12*
X64387231Y-52070000D03*
D13*
X72187231Y-52070000D03*
G04 #@! TD*
D11*
G04 #@! TO.C, *
X66887231Y-71120000D03*
X69687231Y-71120000D03*
D12*
X64387231Y-71120000D03*
D13*
X72187231Y-71120000D03*
G04 #@! TD*
D11*
G04 #@! TO.C, *
X47622000Y-73660000D03*
X50422000Y-73660000D03*
D12*
X45122000Y-73660000D03*
D13*
X52922000Y-73660000D03*
G04 #@! TD*
D11*
G04 #@! TO.C, *
X47622000Y-54610000D03*
X50422000Y-54610000D03*
D12*
X45122000Y-54610000D03*
D13*
X52922000Y-54610000D03*
G04 #@! TD*
D14*
G04 #@! TO.C, *
X43962000Y-59554000D03*
X54402000Y-59554000D03*
D15*
X47912000Y-58824000D03*
X50412000Y-58774000D03*
D16*
X44102000Y-63754000D03*
X54262000Y-63754000D03*
D17*
X46662000Y-68254000D03*
X51702000Y-68254000D03*
D18*
X45372000Y-66294000D03*
X52992000Y-66294000D03*
D19*
X44032000Y-58754000D03*
D20*
X54182000Y-67554000D03*
D19*
X54332000Y-58754000D03*
X49182000Y-69654000D03*
D20*
X44182000Y-67554000D03*
D21*
X43682000Y-63754000D03*
X54682000Y-63754000D03*
D22*
X49182000Y-63754000D03*
G04 #@! TD*
D14*
G04 #@! TO.C, *
X139210303Y-58059730D03*
X149650303Y-58059730D03*
D15*
X143160303Y-57329730D03*
X145660303Y-57279730D03*
D16*
X139350303Y-62259730D03*
X149510303Y-62259730D03*
D17*
X141910303Y-66759730D03*
X146950303Y-66759730D03*
D18*
X140620303Y-64799730D03*
X148240303Y-64799730D03*
D19*
X139280303Y-57259730D03*
D20*
X149430303Y-66059730D03*
D19*
X149580303Y-57259730D03*
X144430303Y-68159730D03*
D20*
X139430303Y-66059730D03*
D21*
X138930303Y-62259730D03*
X149930303Y-62259730D03*
D22*
X144430303Y-62259730D03*
G04 #@! TD*
D14*
G04 #@! TO.C, *
X139210303Y-77109730D03*
X149650303Y-77109730D03*
D15*
X143160303Y-76379730D03*
X145660303Y-76329730D03*
D16*
X139350303Y-81309730D03*
X149510303Y-81309730D03*
D17*
X141910303Y-85809730D03*
X146950303Y-85809730D03*
D18*
X140620303Y-83849730D03*
X148240303Y-83849730D03*
D19*
X139280303Y-76309730D03*
D20*
X149430303Y-85109730D03*
D19*
X149580303Y-76309730D03*
X144430303Y-87209730D03*
D20*
X139430303Y-85109730D03*
D21*
X138930303Y-81309730D03*
X149930303Y-81309730D03*
D22*
X144430303Y-81309730D03*
G04 #@! TD*
D14*
G04 #@! TO.C, *
X139210303Y-96159730D03*
X149650303Y-96159730D03*
D15*
X143160303Y-95429730D03*
X145660303Y-95379730D03*
D16*
X139350303Y-100359730D03*
X149510303Y-100359730D03*
D17*
X141910303Y-104859730D03*
X146950303Y-104859730D03*
D18*
X140620303Y-102899730D03*
X148240303Y-102899730D03*
D19*
X139280303Y-95359730D03*
D20*
X149430303Y-104159730D03*
D19*
X149580303Y-95359730D03*
X144430303Y-106259730D03*
D20*
X139430303Y-104159730D03*
D21*
X138930303Y-100359730D03*
X149930303Y-100359730D03*
D22*
X144430303Y-100359730D03*
G04 #@! TD*
D14*
G04 #@! TO.C, *
X139210303Y-116733730D03*
X149650303Y-116733730D03*
D15*
X143160303Y-116003730D03*
X145660303Y-115953730D03*
D16*
X139350303Y-120933730D03*
X149510303Y-120933730D03*
D17*
X141910303Y-125433730D03*
X146950303Y-125433730D03*
D18*
X140620303Y-123473730D03*
X148240303Y-123473730D03*
D19*
X139280303Y-115933730D03*
D20*
X149430303Y-124733730D03*
D19*
X149580303Y-115933730D03*
X144430303Y-126833730D03*
D20*
X139430303Y-124733730D03*
D21*
X138930303Y-120933730D03*
X149930303Y-120933730D03*
D22*
X144430303Y-120933730D03*
G04 #@! TD*
D14*
G04 #@! TO.C, *
X120160303Y-116733730D03*
X130600303Y-116733730D03*
D15*
X124110303Y-116003730D03*
X126610303Y-115953730D03*
D16*
X120300303Y-120933730D03*
X130460303Y-120933730D03*
D17*
X122860303Y-125433730D03*
X127900303Y-125433730D03*
D18*
X121570303Y-123473730D03*
X129190303Y-123473730D03*
D19*
X120230303Y-115933730D03*
D20*
X130380303Y-124733730D03*
D19*
X130530303Y-115933730D03*
X125380303Y-126833730D03*
D20*
X120380303Y-124733730D03*
D21*
X119880303Y-120933730D03*
X130880303Y-120933730D03*
D22*
X125380303Y-120933730D03*
G04 #@! TD*
D14*
G04 #@! TO.C, *
X101110303Y-116733730D03*
X111550303Y-116733730D03*
D15*
X105060303Y-116003730D03*
X107560303Y-115953730D03*
D16*
X101250303Y-120933730D03*
X111410303Y-120933730D03*
D17*
X103810303Y-125433730D03*
X108850303Y-125433730D03*
D18*
X102520303Y-123473730D03*
X110140303Y-123473730D03*
D19*
X101180303Y-115933730D03*
D20*
X111330303Y-124733730D03*
D19*
X111480303Y-115933730D03*
X106330303Y-126833730D03*
D20*
X101330303Y-124733730D03*
D21*
X100830303Y-120933730D03*
X111830303Y-120933730D03*
D22*
X106330303Y-120933730D03*
G04 #@! TD*
D14*
G04 #@! TO.C, *
X82060303Y-116733730D03*
X92500303Y-116733730D03*
D15*
X86010303Y-116003730D03*
X88510303Y-115953730D03*
D16*
X82200303Y-120933730D03*
X92360303Y-120933730D03*
D17*
X84760303Y-125433730D03*
X89800303Y-125433730D03*
D18*
X83470303Y-123473730D03*
X91090303Y-123473730D03*
D19*
X82130303Y-115933730D03*
D20*
X92280303Y-124733730D03*
D19*
X92430303Y-115933730D03*
X87280303Y-126833730D03*
D20*
X82280303Y-124733730D03*
D21*
X81780303Y-120933730D03*
X92780303Y-120933730D03*
D22*
X87280303Y-120933730D03*
G04 #@! TD*
D14*
G04 #@! TO.C, *
X120160303Y-93619730D03*
X130600303Y-93619730D03*
D15*
X124110303Y-92889730D03*
X126610303Y-92839730D03*
D16*
X120300303Y-97819730D03*
X130460303Y-97819730D03*
D17*
X122860303Y-102319730D03*
X127900303Y-102319730D03*
D18*
X121570303Y-100359730D03*
X129190303Y-100359730D03*
D19*
X120230303Y-92819730D03*
D20*
X130380303Y-101619730D03*
D19*
X130530303Y-92819730D03*
X125380303Y-103719730D03*
D20*
X120380303Y-101619730D03*
D21*
X119880303Y-97819730D03*
X130880303Y-97819730D03*
D22*
X125380303Y-97819730D03*
G04 #@! TD*
D14*
G04 #@! TO.C, *
X120160303Y-74569730D03*
X130600303Y-74569730D03*
D15*
X124110303Y-73839730D03*
X126610303Y-73789730D03*
D16*
X120300303Y-78769730D03*
X130460303Y-78769730D03*
D17*
X122860303Y-83269730D03*
X127900303Y-83269730D03*
D18*
X121570303Y-81309730D03*
X129190303Y-81309730D03*
D19*
X120230303Y-73769730D03*
D20*
X130380303Y-82569730D03*
D19*
X130530303Y-73769730D03*
X125380303Y-84669730D03*
D20*
X120380303Y-82569730D03*
D21*
X119880303Y-78769730D03*
X130880303Y-78769730D03*
D22*
X125380303Y-78769730D03*
G04 #@! TD*
D14*
G04 #@! TO.C, *
X120160303Y-55519730D03*
X130600303Y-55519730D03*
D15*
X124110303Y-54789730D03*
X126610303Y-54739730D03*
D16*
X120300303Y-59719730D03*
X130460303Y-59719730D03*
D17*
X122860303Y-64219730D03*
X127900303Y-64219730D03*
D18*
X121570303Y-62259730D03*
X129190303Y-62259730D03*
D19*
X120230303Y-54719730D03*
D20*
X130380303Y-63519730D03*
D19*
X130530303Y-54719730D03*
X125380303Y-65619730D03*
D20*
X120380303Y-63519730D03*
D21*
X119880303Y-59719730D03*
X130880303Y-59719730D03*
D22*
X125380303Y-59719730D03*
G04 #@! TD*
D14*
G04 #@! TO.C, *
X101110303Y-54249730D03*
X111550303Y-54249730D03*
D15*
X105060303Y-53519730D03*
X107560303Y-53469730D03*
D16*
X101250303Y-58449730D03*
X111410303Y-58449730D03*
D17*
X103810303Y-62949730D03*
X108850303Y-62949730D03*
D18*
X102520303Y-60989730D03*
X110140303Y-60989730D03*
D19*
X101180303Y-53449730D03*
D20*
X111330303Y-62249730D03*
D19*
X111480303Y-53449730D03*
X106330303Y-64349730D03*
D20*
X101330303Y-62249730D03*
D21*
X100830303Y-58449730D03*
X111830303Y-58449730D03*
D22*
X106330303Y-58449730D03*
G04 #@! TD*
D14*
G04 #@! TO.C, *
X101110303Y-73299730D03*
X111550303Y-73299730D03*
D15*
X105060303Y-72569730D03*
X107560303Y-72519730D03*
D16*
X101250303Y-77499730D03*
X111410303Y-77499730D03*
D17*
X103810303Y-81999730D03*
X108850303Y-81999730D03*
D18*
X102520303Y-80039730D03*
X110140303Y-80039730D03*
D19*
X101180303Y-72499730D03*
D20*
X111330303Y-81299730D03*
D19*
X111480303Y-72499730D03*
X106330303Y-83399730D03*
D20*
X101330303Y-81299730D03*
D21*
X100830303Y-77499730D03*
X111830303Y-77499730D03*
D22*
X106330303Y-77499730D03*
G04 #@! TD*
D14*
G04 #@! TO.C, *
X101110303Y-92349730D03*
X111550303Y-92349730D03*
D15*
X105060303Y-91619730D03*
X107560303Y-91569730D03*
D16*
X101250303Y-96549730D03*
X111410303Y-96549730D03*
D17*
X103810303Y-101049730D03*
X108850303Y-101049730D03*
D18*
X102520303Y-99089730D03*
X110140303Y-99089730D03*
D19*
X101180303Y-91549730D03*
D20*
X111330303Y-100349730D03*
D19*
X111480303Y-91549730D03*
X106330303Y-102449730D03*
D20*
X101330303Y-100349730D03*
D21*
X100830303Y-96549730D03*
X111830303Y-96549730D03*
D22*
X106330303Y-96549730D03*
G04 #@! TD*
D14*
G04 #@! TO.C, *
X82060303Y-93873730D03*
X92500303Y-93873730D03*
D15*
X86010303Y-93143730D03*
X88510303Y-93093730D03*
D16*
X82200303Y-98073730D03*
X92360303Y-98073730D03*
D17*
X84760303Y-102573730D03*
X89800303Y-102573730D03*
D18*
X83470303Y-100613730D03*
X91090303Y-100613730D03*
D19*
X82130303Y-93073730D03*
D20*
X92280303Y-101873730D03*
D19*
X92430303Y-93073730D03*
X87280303Y-103973730D03*
D20*
X82280303Y-101873730D03*
D21*
X81780303Y-98073730D03*
X92780303Y-98073730D03*
D22*
X87280303Y-98073730D03*
G04 #@! TD*
D14*
G04 #@! TO.C, *
X82060303Y-74823730D03*
X92500303Y-74823730D03*
D15*
X86010303Y-74093730D03*
X88510303Y-74043730D03*
D16*
X82200303Y-79023730D03*
X92360303Y-79023730D03*
D17*
X84760303Y-83523730D03*
X89800303Y-83523730D03*
D18*
X83470303Y-81563730D03*
X91090303Y-81563730D03*
D19*
X82130303Y-74023730D03*
D20*
X92280303Y-82823730D03*
D19*
X92430303Y-74023730D03*
X87280303Y-84923730D03*
D20*
X82280303Y-82823730D03*
D21*
X81780303Y-79023730D03*
X92780303Y-79023730D03*
D22*
X87280303Y-79023730D03*
G04 #@! TD*
D14*
G04 #@! TO.C, *
X82060303Y-55769730D03*
X92500303Y-55769730D03*
D15*
X86010303Y-55039730D03*
X88510303Y-54989730D03*
D16*
X82200303Y-59969730D03*
X92360303Y-59969730D03*
D17*
X84760303Y-64469730D03*
X89800303Y-64469730D03*
D18*
X83470303Y-62509730D03*
X91090303Y-62509730D03*
D19*
X82130303Y-54969730D03*
D20*
X92280303Y-63769730D03*
D19*
X92430303Y-54969730D03*
X87280303Y-65869730D03*
D20*
X82280303Y-63769730D03*
D21*
X81780303Y-59969730D03*
X92780303Y-59969730D03*
D22*
X87280303Y-59969730D03*
G04 #@! TD*
D14*
G04 #@! TO.C, *
X63007231Y-57003730D03*
X73447231Y-57003730D03*
D15*
X66957231Y-56273730D03*
X69457231Y-56223730D03*
D16*
X63147231Y-61203730D03*
X73307231Y-61203730D03*
D17*
X65707231Y-65703730D03*
X70747231Y-65703730D03*
D18*
X64417231Y-63743730D03*
X72037231Y-63743730D03*
D19*
X63077231Y-56203730D03*
D20*
X73227231Y-65003730D03*
D19*
X73377231Y-56203730D03*
X68227231Y-67103730D03*
D20*
X63227231Y-65003730D03*
D21*
X62727231Y-61203730D03*
X73727231Y-61203730D03*
D22*
X68227231Y-61203730D03*
G04 #@! TD*
D14*
G04 #@! TO.C, *
X63007231Y-76051829D03*
X73447231Y-76051829D03*
D15*
X66957231Y-75321829D03*
X69457231Y-75271829D03*
D16*
X63147231Y-80251829D03*
X73307231Y-80251829D03*
D17*
X65707231Y-84751829D03*
X70747231Y-84751829D03*
D18*
X64417231Y-82791829D03*
X72037231Y-82791829D03*
D19*
X63077231Y-75251829D03*
D20*
X73227231Y-84051829D03*
D19*
X73377231Y-75251829D03*
X68227231Y-86151829D03*
D20*
X63227231Y-84051829D03*
D21*
X62727231Y-80251829D03*
X73727231Y-80251829D03*
D22*
X68227231Y-80251829D03*
G04 #@! TD*
D14*
G04 #@! TO.C, *
X63007231Y-95100230D03*
X73447231Y-95100230D03*
D15*
X66957231Y-94370230D03*
X69457231Y-94320230D03*
D16*
X63147231Y-99300230D03*
X73307231Y-99300230D03*
D17*
X65707231Y-103800230D03*
X70747231Y-103800230D03*
D18*
X64417231Y-101840230D03*
X72037231Y-101840230D03*
D19*
X63077231Y-94300230D03*
D20*
X73227231Y-103100230D03*
D19*
X73377231Y-94300230D03*
X68227231Y-105200230D03*
D20*
X63227231Y-103100230D03*
D21*
X62727231Y-99300230D03*
X73727231Y-99300230D03*
D22*
X68227231Y-99300230D03*
G04 #@! TD*
D14*
G04 #@! TO.C, *
X63007231Y-116733730D03*
X73447231Y-116733730D03*
D15*
X66957231Y-116003730D03*
X69457231Y-115953730D03*
D16*
X63147231Y-120933730D03*
X73307231Y-120933730D03*
D17*
X65707231Y-125433730D03*
X70747231Y-125433730D03*
D18*
X64417231Y-123473730D03*
X72037231Y-123473730D03*
D19*
X63077231Y-115933730D03*
D20*
X73227231Y-124733730D03*
D19*
X73377231Y-115933730D03*
X68227231Y-126833730D03*
D20*
X63227231Y-124733730D03*
D21*
X62727231Y-120933730D03*
X73727231Y-120933730D03*
D22*
X68227231Y-120933730D03*
G04 #@! TD*
D14*
G04 #@! TO.C, *
X43962000Y-116704000D03*
X54402000Y-116704000D03*
D15*
X47912000Y-115974000D03*
X50412000Y-115924000D03*
D16*
X44102000Y-120904000D03*
X54262000Y-120904000D03*
D17*
X46662000Y-125404000D03*
X51702000Y-125404000D03*
D18*
X45372000Y-123444000D03*
X52992000Y-123444000D03*
D19*
X44032000Y-115904000D03*
D20*
X54182000Y-124704000D03*
D19*
X54332000Y-115904000D03*
X49182000Y-126804000D03*
D20*
X44182000Y-124704000D03*
D21*
X43682000Y-120904000D03*
X54682000Y-120904000D03*
D22*
X49182000Y-120904000D03*
G04 #@! TD*
D14*
G04 #@! TO.C, *
X43962000Y-97654000D03*
X54402000Y-97654000D03*
D15*
X47912000Y-96924000D03*
X50412000Y-96874000D03*
D16*
X44102000Y-101854000D03*
X54262000Y-101854000D03*
D17*
X46662000Y-106354000D03*
X51702000Y-106354000D03*
D18*
X45372000Y-104394000D03*
X52992000Y-104394000D03*
D19*
X44032000Y-96854000D03*
D20*
X54182000Y-105654000D03*
D19*
X54332000Y-96854000D03*
X49182000Y-107754000D03*
D20*
X44182000Y-105654000D03*
D21*
X43682000Y-101854000D03*
X54682000Y-101854000D03*
D22*
X49182000Y-101854000D03*
G04 #@! TD*
D14*
G04 #@! TO.C, *
X43962000Y-78604000D03*
X54402000Y-78604000D03*
D15*
X47912000Y-77874000D03*
X50412000Y-77824000D03*
D16*
X44102000Y-82804000D03*
X54262000Y-82804000D03*
D17*
X46662000Y-87304000D03*
X51702000Y-87304000D03*
D18*
X45372000Y-85344000D03*
X52992000Y-85344000D03*
D19*
X44032000Y-77804000D03*
D20*
X54182000Y-86604000D03*
D19*
X54332000Y-77804000D03*
X49182000Y-88704000D03*
D20*
X44182000Y-86604000D03*
D21*
X43682000Y-82804000D03*
X54682000Y-82804000D03*
D22*
X49182000Y-82804000D03*
G04 #@! TD*
D23*
G04 #@! TO.C,U1*
X60667231Y-52070000D03*
X60667231Y-54610000D03*
X60667231Y-57150000D03*
X60667231Y-59690000D03*
X60667231Y-62230000D03*
X60667231Y-64770000D03*
X60667231Y-67310000D03*
X60667231Y-69850000D03*
X60667231Y-72390000D03*
X60667231Y-74930000D03*
X75907231Y-77470000D03*
X75907231Y-74930000D03*
X75907231Y-72390000D03*
X75907231Y-69850000D03*
X75907231Y-67310000D03*
X75907231Y-64770000D03*
X75907231Y-62230000D03*
X75907231Y-59690000D03*
X75907231Y-57150000D03*
X75907231Y-54610000D03*
X75907231Y-52070000D03*
X60667231Y-77470000D03*
X75907231Y-49530000D03*
G04 #@! TD*
D24*
G04 #@! TO.C, *
X77470000Y-109220000D03*
D25*
X80010000Y-109220000D03*
G04 #@! TD*
D26*
G04 #@! TO.C, *
X48768000Y-47498000D03*
G04 #@! TD*
D27*
G04 #@! TO.C, *
X133882000Y-130886000D03*
X136882000Y-130886000D03*
G04 #@! TD*
G04 #@! TO.C, *
X136882000Y-130886000D03*
X133882000Y-130886000D03*
D28*
X137632000Y-129126000D03*
X134632000Y-129126000D03*
X133132000Y-129126000D03*
D29*
X139032000Y-131986000D03*
X131732000Y-131986000D03*
X131732000Y-129776000D03*
X139032000Y-129776000D03*
G04 #@! TD*
D26*
G04 #@! TO.C, *
X48768000Y-47498000D03*
D30*
X47068000Y-47498000D03*
X50468000Y-47498000D03*
G04 #@! TD*
M02*
