G04 #@! TF.GenerationSoftware,KiCad,Pcbnew,(5.1.8-0-10_14)*
G04 #@! TF.CreationDate,2021-01-07T13:30:25-06:00*
G04 #@! TF.ProjectId,halfboard,68616c66-626f-4617-9264-2e6b69636164,rev?*
G04 #@! TF.SameCoordinates,Original*
G04 #@! TF.FileFunction,OtherDrawing,Comment*
%FSLAX46Y46*%
G04 Gerber Fmt 4.6, Leading zero omitted, Abs format (unit mm)*
G04 Created by KiCad (PCBNEW (5.1.8-0-10_14)) date 2021-01-07 13:30:25*
%MOMM*%
%LPD*%
G01*
G04 APERTURE LIST*
%ADD10C,0.152400*%
G04 APERTURE END LIST*
D10*
G04 #@! TO.C, *
X153430303Y-70759730D02*
X135430303Y-70759730D01*
X135430303Y-70759730D02*
X135430303Y-53759730D01*
X135430303Y-53759730D02*
X153430303Y-53759730D01*
X153430303Y-53759730D02*
X153430303Y-70759730D01*
X153430303Y-89809730D02*
X135430303Y-89809730D01*
X135430303Y-89809730D02*
X135430303Y-72809730D01*
X135430303Y-72809730D02*
X153430303Y-72809730D01*
X153430303Y-72809730D02*
X153430303Y-89809730D01*
X153430303Y-108859730D02*
X135430303Y-108859730D01*
X135430303Y-108859730D02*
X135430303Y-91859730D01*
X135430303Y-91859730D02*
X153430303Y-91859730D01*
X153430303Y-91859730D02*
X153430303Y-108859730D01*
X153430303Y-129433730D02*
X135430303Y-129433730D01*
X135430303Y-129433730D02*
X135430303Y-112433730D01*
X135430303Y-112433730D02*
X153430303Y-112433730D01*
X153430303Y-112433730D02*
X153430303Y-129433730D01*
X134380303Y-129433730D02*
X116380303Y-129433730D01*
X116380303Y-129433730D02*
X116380303Y-112433730D01*
X116380303Y-112433730D02*
X134380303Y-112433730D01*
X134380303Y-112433730D02*
X134380303Y-129433730D01*
X115330303Y-129433730D02*
X97330303Y-129433730D01*
X97330303Y-129433730D02*
X97330303Y-112433730D01*
X97330303Y-112433730D02*
X115330303Y-112433730D01*
X115330303Y-112433730D02*
X115330303Y-129433730D01*
X96280303Y-129433730D02*
X78280303Y-129433730D01*
X78280303Y-129433730D02*
X78280303Y-112433730D01*
X78280303Y-112433730D02*
X96280303Y-112433730D01*
X96280303Y-112433730D02*
X96280303Y-129433730D01*
X134380303Y-106319730D02*
X116380303Y-106319730D01*
X116380303Y-106319730D02*
X116380303Y-89319730D01*
X116380303Y-89319730D02*
X134380303Y-89319730D01*
X134380303Y-89319730D02*
X134380303Y-106319730D01*
X134380303Y-87269730D02*
X116380303Y-87269730D01*
X116380303Y-87269730D02*
X116380303Y-70269730D01*
X116380303Y-70269730D02*
X134380303Y-70269730D01*
X134380303Y-70269730D02*
X134380303Y-87269730D01*
X134380303Y-68219730D02*
X116380303Y-68219730D01*
X116380303Y-68219730D02*
X116380303Y-51219730D01*
X116380303Y-51219730D02*
X134380303Y-51219730D01*
X134380303Y-51219730D02*
X134380303Y-68219730D01*
X115330303Y-66949730D02*
X97330303Y-66949730D01*
X97330303Y-66949730D02*
X97330303Y-49949730D01*
X97330303Y-49949730D02*
X115330303Y-49949730D01*
X115330303Y-49949730D02*
X115330303Y-66949730D01*
X115330303Y-85999730D02*
X97330303Y-85999730D01*
X97330303Y-85999730D02*
X97330303Y-68999730D01*
X97330303Y-68999730D02*
X115330303Y-68999730D01*
X115330303Y-68999730D02*
X115330303Y-85999730D01*
X115330303Y-105049730D02*
X97330303Y-105049730D01*
X97330303Y-105049730D02*
X97330303Y-88049730D01*
X97330303Y-88049730D02*
X115330303Y-88049730D01*
X115330303Y-88049730D02*
X115330303Y-105049730D01*
X96280303Y-106573730D02*
X78280303Y-106573730D01*
X78280303Y-106573730D02*
X78280303Y-89573730D01*
X78280303Y-89573730D02*
X96280303Y-89573730D01*
X96280303Y-89573730D02*
X96280303Y-106573730D01*
X96280303Y-87523730D02*
X78280303Y-87523730D01*
X78280303Y-87523730D02*
X78280303Y-70523730D01*
X78280303Y-70523730D02*
X96280303Y-70523730D01*
X96280303Y-70523730D02*
X96280303Y-87523730D01*
X96280303Y-68219730D02*
X78280303Y-68219730D01*
X78280303Y-68219730D02*
X78280303Y-51219730D01*
X78280303Y-51219730D02*
X96280303Y-51219730D01*
X96280303Y-51219730D02*
X96280303Y-68219730D01*
X77287231Y-69743730D02*
X59287231Y-69743730D01*
X59287231Y-69743730D02*
X59287231Y-52743730D01*
X59287231Y-52743730D02*
X77287231Y-52743730D01*
X77287231Y-52743730D02*
X77287231Y-69743730D01*
X77287231Y-88791829D02*
X59287231Y-88791829D01*
X59287231Y-88791829D02*
X59287231Y-71791829D01*
X59287231Y-71791829D02*
X77287231Y-71791829D01*
X77287231Y-71791829D02*
X77287231Y-88791829D01*
X77287231Y-107800230D02*
X59287231Y-107800230D01*
X59287231Y-107800230D02*
X59287231Y-90800230D01*
X59287231Y-90800230D02*
X77287231Y-90800230D01*
X77287231Y-90800230D02*
X77287231Y-107800230D01*
X77287231Y-129433730D02*
X59287231Y-129433730D01*
X59287231Y-129433730D02*
X59287231Y-112433730D01*
X59287231Y-112433730D02*
X77287231Y-112433730D01*
X77287231Y-112433730D02*
X77287231Y-129433730D01*
X58022000Y-129404000D02*
X40022000Y-129404000D01*
X40022000Y-129404000D02*
X40022000Y-112404000D01*
X40022000Y-112404000D02*
X58022000Y-112404000D01*
X58022000Y-112404000D02*
X58022000Y-129404000D01*
X58022000Y-110354000D02*
X40022000Y-110354000D01*
X40022000Y-110354000D02*
X40022000Y-93354000D01*
X40022000Y-93354000D02*
X58022000Y-93354000D01*
X58022000Y-93354000D02*
X58022000Y-110354000D01*
X57768000Y-91304000D02*
X39768000Y-91304000D01*
X39768000Y-91304000D02*
X39768000Y-74304000D01*
X39768000Y-74304000D02*
X57768000Y-74304000D01*
X57768000Y-74304000D02*
X57768000Y-91304000D01*
X58022000Y-72254000D02*
X40022000Y-72254000D01*
X40022000Y-72254000D02*
X40022000Y-55254000D01*
X40022000Y-55254000D02*
X58022000Y-55254000D01*
X58022000Y-55254000D02*
X58022000Y-72254000D01*
G04 #@! TD*
M02*
