G04 #@! TF.GenerationSoftware,KiCad,Pcbnew,5.1.9*
G04 #@! TF.CreationDate,2021-01-09T23:20:46-06:00*
G04 #@! TF.ProjectId,halfboard,68616c66-626f-4617-9264-2e6b69636164,rev?*
G04 #@! TF.SameCoordinates,Original*
G04 #@! TF.FileFunction,Legend,Top*
G04 #@! TF.FilePolarity,Positive*
%FSLAX46Y46*%
G04 Gerber Fmt 4.6, Leading zero omitted, Abs format (unit mm)*
G04 Created by KiCad (PCBNEW 5.1.9) date 2021-01-09 23:20:46*
%MOMM*%
%LPD*%
G01*
G04 APERTURE LIST*
%ADD10C,0.150000*%
%ADD11C,0.381000*%
%ADD12C,0.120000*%
G04 APERTURE END LIST*
D10*
X136351333Y-51704761D02*
X136351333Y-49704761D01*
X136351333Y-50657142D02*
X137494190Y-50657142D01*
X137494190Y-51704761D02*
X137494190Y-49704761D01*
X139303714Y-51704761D02*
X139303714Y-50657142D01*
X139208476Y-50466666D01*
X139018000Y-50371428D01*
X138637047Y-50371428D01*
X138446571Y-50466666D01*
X139303714Y-51609523D02*
X139113238Y-51704761D01*
X138637047Y-51704761D01*
X138446571Y-51609523D01*
X138351333Y-51419047D01*
X138351333Y-51228571D01*
X138446571Y-51038095D01*
X138637047Y-50942857D01*
X139113238Y-50942857D01*
X139303714Y-50847619D01*
X140541809Y-51704761D02*
X140351333Y-51609523D01*
X140256095Y-51419047D01*
X140256095Y-49704761D01*
X141018000Y-50371428D02*
X141779904Y-50371428D01*
X141303714Y-51704761D02*
X141303714Y-49990476D01*
X141398952Y-49800000D01*
X141589428Y-49704761D01*
X141779904Y-49704761D01*
X144637047Y-50657142D02*
X144922761Y-50752380D01*
X145018000Y-50847619D01*
X145113238Y-51038095D01*
X145113238Y-51323809D01*
X145018000Y-51514285D01*
X144922761Y-51609523D01*
X144732285Y-51704761D01*
X143970380Y-51704761D01*
X143970380Y-49704761D01*
X144637047Y-49704761D01*
X144827523Y-49800000D01*
X144922761Y-49895238D01*
X145018000Y-50085714D01*
X145018000Y-50276190D01*
X144922761Y-50466666D01*
X144827523Y-50561904D01*
X144637047Y-50657142D01*
X143970380Y-50657142D01*
X146256095Y-51704761D02*
X146065619Y-51609523D01*
X145970380Y-51514285D01*
X145875142Y-51323809D01*
X145875142Y-50752380D01*
X145970380Y-50561904D01*
X146065619Y-50466666D01*
X146256095Y-50371428D01*
X146541809Y-50371428D01*
X146732285Y-50466666D01*
X146827523Y-50561904D01*
X146922761Y-50752380D01*
X146922761Y-51323809D01*
X146827523Y-51514285D01*
X146732285Y-51609523D01*
X146541809Y-51704761D01*
X146256095Y-51704761D01*
X148637047Y-51704761D02*
X148637047Y-50657142D01*
X148541809Y-50466666D01*
X148351333Y-50371428D01*
X147970380Y-50371428D01*
X147779904Y-50466666D01*
X148637047Y-51609523D02*
X148446571Y-51704761D01*
X147970380Y-51704761D01*
X147779904Y-51609523D01*
X147684666Y-51419047D01*
X147684666Y-51228571D01*
X147779904Y-51038095D01*
X147970380Y-50942857D01*
X148446571Y-50942857D01*
X148637047Y-50847619D01*
X149589428Y-51704761D02*
X149589428Y-50371428D01*
X149589428Y-50752380D02*
X149684666Y-50561904D01*
X149779904Y-50466666D01*
X149970380Y-50371428D01*
X150160857Y-50371428D01*
X151684666Y-51704761D02*
X151684666Y-49704761D01*
X151684666Y-51609523D02*
X151494190Y-51704761D01*
X151113238Y-51704761D01*
X150922761Y-51609523D01*
X150827523Y-51514285D01*
X150732285Y-51323809D01*
X150732285Y-50752380D01*
X150827523Y-50561904D01*
X150922761Y-50466666D01*
X151113238Y-50371428D01*
X151494190Y-50371428D01*
X151684666Y-50466666D01*
D11*
G04 #@! TO.C,U1*
X61937231Y-50800000D02*
X59397231Y-50800000D01*
X61937231Y-48260000D02*
X61937231Y-50800000D01*
D10*
G04 #@! TO.C,REF\u002A\u002A*
X42182000Y-71254000D02*
G75*
G02*
X41682000Y-70754000I0J500000D01*
G01*
X41682000Y-56754000D02*
G75*
G02*
X42182000Y-56254000I500000J0D01*
G01*
X56182000Y-56254000D02*
G75*
G02*
X56682000Y-56754000I0J-500000D01*
G01*
X56682000Y-70754000D02*
G75*
G02*
X56182000Y-71254000I-500000J0D01*
G01*
X41682000Y-56754000D02*
X41682000Y-58754000D01*
X42182000Y-56254000D02*
X54182000Y-56254000D01*
X41682000Y-70754000D02*
X41682000Y-58754000D01*
X42182000Y-71254000D02*
X44182000Y-71254000D01*
X56182000Y-71254000D02*
X44182000Y-71254000D01*
X56682000Y-70754000D02*
X56682000Y-58754000D01*
X56682000Y-56754000D02*
X56682000Y-58754000D01*
X56182000Y-56254000D02*
X54182000Y-56254000D01*
G04 #@! TO.C, *
X136930303Y-55259730D02*
X136930303Y-57259730D01*
X137430303Y-54759730D02*
X149430303Y-54759730D01*
X136930303Y-69259730D02*
X136930303Y-57259730D01*
X137430303Y-69759730D02*
X139430303Y-69759730D01*
X151430303Y-69759730D02*
X139430303Y-69759730D01*
X151930303Y-69259730D02*
X151930303Y-57259730D01*
X151930303Y-55259730D02*
X151930303Y-57259730D01*
X151430303Y-54759730D02*
X149430303Y-54759730D01*
X137430303Y-69759730D02*
G75*
G02*
X136930303Y-69259730I0J500000D01*
G01*
X136930303Y-55259730D02*
G75*
G02*
X137430303Y-54759730I500000J0D01*
G01*
X151430303Y-54759730D02*
G75*
G02*
X151930303Y-55259730I0J-500000D01*
G01*
X151930303Y-69259730D02*
G75*
G02*
X151430303Y-69759730I-500000J0D01*
G01*
X136930303Y-74309730D02*
X136930303Y-76309730D01*
X137430303Y-73809730D02*
X149430303Y-73809730D01*
X136930303Y-88309730D02*
X136930303Y-76309730D01*
X137430303Y-88809730D02*
X139430303Y-88809730D01*
X151430303Y-88809730D02*
X139430303Y-88809730D01*
X151930303Y-88309730D02*
X151930303Y-76309730D01*
X151930303Y-74309730D02*
X151930303Y-76309730D01*
X151430303Y-73809730D02*
X149430303Y-73809730D01*
X137430303Y-88809730D02*
G75*
G02*
X136930303Y-88309730I0J500000D01*
G01*
X136930303Y-74309730D02*
G75*
G02*
X137430303Y-73809730I500000J0D01*
G01*
X151430303Y-73809730D02*
G75*
G02*
X151930303Y-74309730I0J-500000D01*
G01*
X151930303Y-88309730D02*
G75*
G02*
X151430303Y-88809730I-500000J0D01*
G01*
X136930303Y-93359730D02*
X136930303Y-95359730D01*
X137430303Y-92859730D02*
X149430303Y-92859730D01*
X136930303Y-107359730D02*
X136930303Y-95359730D01*
X137430303Y-107859730D02*
X139430303Y-107859730D01*
X151430303Y-107859730D02*
X139430303Y-107859730D01*
X151930303Y-107359730D02*
X151930303Y-95359730D01*
X151930303Y-93359730D02*
X151930303Y-95359730D01*
X151430303Y-92859730D02*
X149430303Y-92859730D01*
X137430303Y-107859730D02*
G75*
G02*
X136930303Y-107359730I0J500000D01*
G01*
X136930303Y-93359730D02*
G75*
G02*
X137430303Y-92859730I500000J0D01*
G01*
X151430303Y-92859730D02*
G75*
G02*
X151930303Y-93359730I0J-500000D01*
G01*
X151930303Y-107359730D02*
G75*
G02*
X151430303Y-107859730I-500000J0D01*
G01*
X136930303Y-113933730D02*
X136930303Y-115933730D01*
X137430303Y-113433730D02*
X149430303Y-113433730D01*
X136930303Y-127933730D02*
X136930303Y-115933730D01*
X137430303Y-128433730D02*
X139430303Y-128433730D01*
X151430303Y-128433730D02*
X139430303Y-128433730D01*
X151930303Y-127933730D02*
X151930303Y-115933730D01*
X151930303Y-113933730D02*
X151930303Y-115933730D01*
X151430303Y-113433730D02*
X149430303Y-113433730D01*
X137430303Y-128433730D02*
G75*
G02*
X136930303Y-127933730I0J500000D01*
G01*
X136930303Y-113933730D02*
G75*
G02*
X137430303Y-113433730I500000J0D01*
G01*
X151430303Y-113433730D02*
G75*
G02*
X151930303Y-113933730I0J-500000D01*
G01*
X151930303Y-127933730D02*
G75*
G02*
X151430303Y-128433730I-500000J0D01*
G01*
X117880303Y-113933730D02*
X117880303Y-115933730D01*
X118380303Y-113433730D02*
X130380303Y-113433730D01*
X117880303Y-127933730D02*
X117880303Y-115933730D01*
X118380303Y-128433730D02*
X120380303Y-128433730D01*
X132380303Y-128433730D02*
X120380303Y-128433730D01*
X132880303Y-127933730D02*
X132880303Y-115933730D01*
X132880303Y-113933730D02*
X132880303Y-115933730D01*
X132380303Y-113433730D02*
X130380303Y-113433730D01*
X118380303Y-128433730D02*
G75*
G02*
X117880303Y-127933730I0J500000D01*
G01*
X117880303Y-113933730D02*
G75*
G02*
X118380303Y-113433730I500000J0D01*
G01*
X132380303Y-113433730D02*
G75*
G02*
X132880303Y-113933730I0J-500000D01*
G01*
X132880303Y-127933730D02*
G75*
G02*
X132380303Y-128433730I-500000J0D01*
G01*
X98830303Y-113933730D02*
X98830303Y-115933730D01*
X99330303Y-113433730D02*
X111330303Y-113433730D01*
X98830303Y-127933730D02*
X98830303Y-115933730D01*
X99330303Y-128433730D02*
X101330303Y-128433730D01*
X113330303Y-128433730D02*
X101330303Y-128433730D01*
X113830303Y-127933730D02*
X113830303Y-115933730D01*
X113830303Y-113933730D02*
X113830303Y-115933730D01*
X113330303Y-113433730D02*
X111330303Y-113433730D01*
X99330303Y-128433730D02*
G75*
G02*
X98830303Y-127933730I0J500000D01*
G01*
X98830303Y-113933730D02*
G75*
G02*
X99330303Y-113433730I500000J0D01*
G01*
X113330303Y-113433730D02*
G75*
G02*
X113830303Y-113933730I0J-500000D01*
G01*
X113830303Y-127933730D02*
G75*
G02*
X113330303Y-128433730I-500000J0D01*
G01*
X79780303Y-113933730D02*
X79780303Y-115933730D01*
X80280303Y-113433730D02*
X92280303Y-113433730D01*
X79780303Y-127933730D02*
X79780303Y-115933730D01*
X80280303Y-128433730D02*
X82280303Y-128433730D01*
X94280303Y-128433730D02*
X82280303Y-128433730D01*
X94780303Y-127933730D02*
X94780303Y-115933730D01*
X94780303Y-113933730D02*
X94780303Y-115933730D01*
X94280303Y-113433730D02*
X92280303Y-113433730D01*
X80280303Y-128433730D02*
G75*
G02*
X79780303Y-127933730I0J500000D01*
G01*
X79780303Y-113933730D02*
G75*
G02*
X80280303Y-113433730I500000J0D01*
G01*
X94280303Y-113433730D02*
G75*
G02*
X94780303Y-113933730I0J-500000D01*
G01*
X94780303Y-127933730D02*
G75*
G02*
X94280303Y-128433730I-500000J0D01*
G01*
X117880303Y-90819730D02*
X117880303Y-92819730D01*
X118380303Y-90319730D02*
X130380303Y-90319730D01*
X117880303Y-104819730D02*
X117880303Y-92819730D01*
X118380303Y-105319730D02*
X120380303Y-105319730D01*
X132380303Y-105319730D02*
X120380303Y-105319730D01*
X132880303Y-104819730D02*
X132880303Y-92819730D01*
X132880303Y-90819730D02*
X132880303Y-92819730D01*
X132380303Y-90319730D02*
X130380303Y-90319730D01*
X118380303Y-105319730D02*
G75*
G02*
X117880303Y-104819730I0J500000D01*
G01*
X117880303Y-90819730D02*
G75*
G02*
X118380303Y-90319730I500000J0D01*
G01*
X132380303Y-90319730D02*
G75*
G02*
X132880303Y-90819730I0J-500000D01*
G01*
X132880303Y-104819730D02*
G75*
G02*
X132380303Y-105319730I-500000J0D01*
G01*
X117880303Y-71769730D02*
X117880303Y-73769730D01*
X118380303Y-71269730D02*
X130380303Y-71269730D01*
X117880303Y-85769730D02*
X117880303Y-73769730D01*
X118380303Y-86269730D02*
X120380303Y-86269730D01*
X132380303Y-86269730D02*
X120380303Y-86269730D01*
X132880303Y-85769730D02*
X132880303Y-73769730D01*
X132880303Y-71769730D02*
X132880303Y-73769730D01*
X132380303Y-71269730D02*
X130380303Y-71269730D01*
X118380303Y-86269730D02*
G75*
G02*
X117880303Y-85769730I0J500000D01*
G01*
X117880303Y-71769730D02*
G75*
G02*
X118380303Y-71269730I500000J0D01*
G01*
X132380303Y-71269730D02*
G75*
G02*
X132880303Y-71769730I0J-500000D01*
G01*
X132880303Y-85769730D02*
G75*
G02*
X132380303Y-86269730I-500000J0D01*
G01*
X117880303Y-52719730D02*
X117880303Y-54719730D01*
X118380303Y-52219730D02*
X130380303Y-52219730D01*
X117880303Y-66719730D02*
X117880303Y-54719730D01*
X118380303Y-67219730D02*
X120380303Y-67219730D01*
X132380303Y-67219730D02*
X120380303Y-67219730D01*
X132880303Y-66719730D02*
X132880303Y-54719730D01*
X132880303Y-52719730D02*
X132880303Y-54719730D01*
X132380303Y-52219730D02*
X130380303Y-52219730D01*
X118380303Y-67219730D02*
G75*
G02*
X117880303Y-66719730I0J500000D01*
G01*
X117880303Y-52719730D02*
G75*
G02*
X118380303Y-52219730I500000J0D01*
G01*
X132380303Y-52219730D02*
G75*
G02*
X132880303Y-52719730I0J-500000D01*
G01*
X132880303Y-66719730D02*
G75*
G02*
X132380303Y-67219730I-500000J0D01*
G01*
X98830303Y-51449730D02*
X98830303Y-53449730D01*
X99330303Y-50949730D02*
X111330303Y-50949730D01*
X98830303Y-65449730D02*
X98830303Y-53449730D01*
X99330303Y-65949730D02*
X101330303Y-65949730D01*
X113330303Y-65949730D02*
X101330303Y-65949730D01*
X113830303Y-65449730D02*
X113830303Y-53449730D01*
X113830303Y-51449730D02*
X113830303Y-53449730D01*
X113330303Y-50949730D02*
X111330303Y-50949730D01*
X99330303Y-65949730D02*
G75*
G02*
X98830303Y-65449730I0J500000D01*
G01*
X98830303Y-51449730D02*
G75*
G02*
X99330303Y-50949730I500000J0D01*
G01*
X113330303Y-50949730D02*
G75*
G02*
X113830303Y-51449730I0J-500000D01*
G01*
X113830303Y-65449730D02*
G75*
G02*
X113330303Y-65949730I-500000J0D01*
G01*
X98830303Y-70499730D02*
X98830303Y-72499730D01*
X99330303Y-69999730D02*
X111330303Y-69999730D01*
X98830303Y-84499730D02*
X98830303Y-72499730D01*
X99330303Y-84999730D02*
X101330303Y-84999730D01*
X113330303Y-84999730D02*
X101330303Y-84999730D01*
X113830303Y-84499730D02*
X113830303Y-72499730D01*
X113830303Y-70499730D02*
X113830303Y-72499730D01*
X113330303Y-69999730D02*
X111330303Y-69999730D01*
X99330303Y-84999730D02*
G75*
G02*
X98830303Y-84499730I0J500000D01*
G01*
X98830303Y-70499730D02*
G75*
G02*
X99330303Y-69999730I500000J0D01*
G01*
X113330303Y-69999730D02*
G75*
G02*
X113830303Y-70499730I0J-500000D01*
G01*
X113830303Y-84499730D02*
G75*
G02*
X113330303Y-84999730I-500000J0D01*
G01*
X98830303Y-89549730D02*
X98830303Y-91549730D01*
X99330303Y-89049730D02*
X111330303Y-89049730D01*
X98830303Y-103549730D02*
X98830303Y-91549730D01*
X99330303Y-104049730D02*
X101330303Y-104049730D01*
X113330303Y-104049730D02*
X101330303Y-104049730D01*
X113830303Y-103549730D02*
X113830303Y-91549730D01*
X113830303Y-89549730D02*
X113830303Y-91549730D01*
X113330303Y-89049730D02*
X111330303Y-89049730D01*
X99330303Y-104049730D02*
G75*
G02*
X98830303Y-103549730I0J500000D01*
G01*
X98830303Y-89549730D02*
G75*
G02*
X99330303Y-89049730I500000J0D01*
G01*
X113330303Y-89049730D02*
G75*
G02*
X113830303Y-89549730I0J-500000D01*
G01*
X113830303Y-103549730D02*
G75*
G02*
X113330303Y-104049730I-500000J0D01*
G01*
X79780303Y-91073730D02*
X79780303Y-93073730D01*
X80280303Y-90573730D02*
X92280303Y-90573730D01*
X79780303Y-105073730D02*
X79780303Y-93073730D01*
X80280303Y-105573730D02*
X82280303Y-105573730D01*
X94280303Y-105573730D02*
X82280303Y-105573730D01*
X94780303Y-105073730D02*
X94780303Y-93073730D01*
X94780303Y-91073730D02*
X94780303Y-93073730D01*
X94280303Y-90573730D02*
X92280303Y-90573730D01*
X80280303Y-105573730D02*
G75*
G02*
X79780303Y-105073730I0J500000D01*
G01*
X79780303Y-91073730D02*
G75*
G02*
X80280303Y-90573730I500000J0D01*
G01*
X94280303Y-90573730D02*
G75*
G02*
X94780303Y-91073730I0J-500000D01*
G01*
X94780303Y-105073730D02*
G75*
G02*
X94280303Y-105573730I-500000J0D01*
G01*
X79780303Y-72023730D02*
X79780303Y-74023730D01*
X80280303Y-71523730D02*
X92280303Y-71523730D01*
X79780303Y-86023730D02*
X79780303Y-74023730D01*
X80280303Y-86523730D02*
X82280303Y-86523730D01*
X94280303Y-86523730D02*
X82280303Y-86523730D01*
X94780303Y-86023730D02*
X94780303Y-74023730D01*
X94780303Y-72023730D02*
X94780303Y-74023730D01*
X94280303Y-71523730D02*
X92280303Y-71523730D01*
X80280303Y-86523730D02*
G75*
G02*
X79780303Y-86023730I0J500000D01*
G01*
X79780303Y-72023730D02*
G75*
G02*
X80280303Y-71523730I500000J0D01*
G01*
X94280303Y-71523730D02*
G75*
G02*
X94780303Y-72023730I0J-500000D01*
G01*
X94780303Y-86023730D02*
G75*
G02*
X94280303Y-86523730I-500000J0D01*
G01*
X79780303Y-52969730D02*
X79780303Y-54969730D01*
X80280303Y-52469730D02*
X92280303Y-52469730D01*
X79780303Y-66969730D02*
X79780303Y-54969730D01*
X80280303Y-67469730D02*
X82280303Y-67469730D01*
X94280303Y-67469730D02*
X82280303Y-67469730D01*
X94780303Y-66969730D02*
X94780303Y-54969730D01*
X94780303Y-52969730D02*
X94780303Y-54969730D01*
X94280303Y-52469730D02*
X92280303Y-52469730D01*
X80280303Y-67469730D02*
G75*
G02*
X79780303Y-66969730I0J500000D01*
G01*
X79780303Y-52969730D02*
G75*
G02*
X80280303Y-52469730I500000J0D01*
G01*
X94280303Y-52469730D02*
G75*
G02*
X94780303Y-52969730I0J-500000D01*
G01*
X94780303Y-66969730D02*
G75*
G02*
X94280303Y-67469730I-500000J0D01*
G01*
X60727231Y-54203730D02*
X60727231Y-56203730D01*
X61227231Y-53703730D02*
X73227231Y-53703730D01*
X60727231Y-68203730D02*
X60727231Y-56203730D01*
X61227231Y-68703730D02*
X63227231Y-68703730D01*
X75227231Y-68703730D02*
X63227231Y-68703730D01*
X75727231Y-68203730D02*
X75727231Y-56203730D01*
X75727231Y-54203730D02*
X75727231Y-56203730D01*
X75227231Y-53703730D02*
X73227231Y-53703730D01*
X61227231Y-68703730D02*
G75*
G02*
X60727231Y-68203730I0J500000D01*
G01*
X60727231Y-54203730D02*
G75*
G02*
X61227231Y-53703730I500000J0D01*
G01*
X75227231Y-53703730D02*
G75*
G02*
X75727231Y-54203730I0J-500000D01*
G01*
X75727231Y-68203730D02*
G75*
G02*
X75227231Y-68703730I-500000J0D01*
G01*
X60727231Y-73251829D02*
X60727231Y-75251829D01*
X61227231Y-72751829D02*
X73227231Y-72751829D01*
X60727231Y-87251829D02*
X60727231Y-75251829D01*
X61227231Y-87751829D02*
X63227231Y-87751829D01*
X75227231Y-87751829D02*
X63227231Y-87751829D01*
X75727231Y-87251829D02*
X75727231Y-75251829D01*
X75727231Y-73251829D02*
X75727231Y-75251829D01*
X75227231Y-72751829D02*
X73227231Y-72751829D01*
X61227231Y-87751829D02*
G75*
G02*
X60727231Y-87251829I0J500000D01*
G01*
X60727231Y-73251829D02*
G75*
G02*
X61227231Y-72751829I500000J0D01*
G01*
X75227231Y-72751829D02*
G75*
G02*
X75727231Y-73251829I0J-500000D01*
G01*
X75727231Y-87251829D02*
G75*
G02*
X75227231Y-87751829I-500000J0D01*
G01*
X60727231Y-92300230D02*
X60727231Y-94300230D01*
X61227231Y-91800230D02*
X73227231Y-91800230D01*
X60727231Y-106300230D02*
X60727231Y-94300230D01*
X61227231Y-106800230D02*
X63227231Y-106800230D01*
X75227231Y-106800230D02*
X63227231Y-106800230D01*
X75727231Y-106300230D02*
X75727231Y-94300230D01*
X75727231Y-92300230D02*
X75727231Y-94300230D01*
X75227231Y-91800230D02*
X73227231Y-91800230D01*
X61227231Y-106800230D02*
G75*
G02*
X60727231Y-106300230I0J500000D01*
G01*
X60727231Y-92300230D02*
G75*
G02*
X61227231Y-91800230I500000J0D01*
G01*
X75227231Y-91800230D02*
G75*
G02*
X75727231Y-92300230I0J-500000D01*
G01*
X75727231Y-106300230D02*
G75*
G02*
X75227231Y-106800230I-500000J0D01*
G01*
X75227231Y-113433730D02*
X73227231Y-113433730D01*
X75727231Y-113933730D02*
X75727231Y-115933730D01*
X75727231Y-127933730D02*
X75727231Y-115933730D01*
X75227231Y-128433730D02*
X63227231Y-128433730D01*
X61227231Y-128433730D02*
X63227231Y-128433730D01*
X60727231Y-127933730D02*
X60727231Y-115933730D01*
X61227231Y-113433730D02*
X73227231Y-113433730D01*
X60727231Y-113933730D02*
X60727231Y-115933730D01*
X75727231Y-127933730D02*
G75*
G02*
X75227231Y-128433730I-500000J0D01*
G01*
X75227231Y-113433730D02*
G75*
G02*
X75727231Y-113933730I0J-500000D01*
G01*
X60727231Y-113933730D02*
G75*
G02*
X61227231Y-113433730I500000J0D01*
G01*
X61227231Y-128433730D02*
G75*
G02*
X60727231Y-127933730I0J500000D01*
G01*
X56182000Y-113404000D02*
X54182000Y-113404000D01*
X56682000Y-113904000D02*
X56682000Y-115904000D01*
X56682000Y-127904000D02*
X56682000Y-115904000D01*
X56182000Y-128404000D02*
X44182000Y-128404000D01*
X42182000Y-128404000D02*
X44182000Y-128404000D01*
X41682000Y-127904000D02*
X41682000Y-115904000D01*
X42182000Y-113404000D02*
X54182000Y-113404000D01*
X41682000Y-113904000D02*
X41682000Y-115904000D01*
X56682000Y-127904000D02*
G75*
G02*
X56182000Y-128404000I-500000J0D01*
G01*
X56182000Y-113404000D02*
G75*
G02*
X56682000Y-113904000I0J-500000D01*
G01*
X41682000Y-113904000D02*
G75*
G02*
X42182000Y-113404000I500000J0D01*
G01*
X42182000Y-128404000D02*
G75*
G02*
X41682000Y-127904000I0J500000D01*
G01*
X56182000Y-94354000D02*
X54182000Y-94354000D01*
X56682000Y-94854000D02*
X56682000Y-96854000D01*
X56682000Y-108854000D02*
X56682000Y-96854000D01*
X56182000Y-109354000D02*
X44182000Y-109354000D01*
X42182000Y-109354000D02*
X44182000Y-109354000D01*
X41682000Y-108854000D02*
X41682000Y-96854000D01*
X42182000Y-94354000D02*
X54182000Y-94354000D01*
X41682000Y-94854000D02*
X41682000Y-96854000D01*
X56682000Y-108854000D02*
G75*
G02*
X56182000Y-109354000I-500000J0D01*
G01*
X56182000Y-94354000D02*
G75*
G02*
X56682000Y-94854000I0J-500000D01*
G01*
X41682000Y-94854000D02*
G75*
G02*
X42182000Y-94354000I500000J0D01*
G01*
X42182000Y-109354000D02*
G75*
G02*
X41682000Y-108854000I0J500000D01*
G01*
X56182000Y-75304000D02*
X54182000Y-75304000D01*
X56682000Y-75804000D02*
X56682000Y-77804000D01*
X56682000Y-89804000D02*
X56682000Y-77804000D01*
X56182000Y-90304000D02*
X44182000Y-90304000D01*
X42182000Y-90304000D02*
X44182000Y-90304000D01*
X41682000Y-89804000D02*
X41682000Y-77804000D01*
X42182000Y-75304000D02*
X54182000Y-75304000D01*
X41682000Y-75804000D02*
X41682000Y-77804000D01*
X56682000Y-89804000D02*
G75*
G02*
X56182000Y-90304000I-500000J0D01*
G01*
X56182000Y-75304000D02*
G75*
G02*
X56682000Y-75804000I0J-500000D01*
G01*
X41682000Y-75804000D02*
G75*
G02*
X42182000Y-75304000I500000J0D01*
G01*
X42182000Y-90304000D02*
G75*
G02*
X41682000Y-89804000I0J500000D01*
G01*
D12*
X66488000Y-48200000D02*
X66488000Y-50860000D01*
X69088000Y-48200000D02*
X66488000Y-48200000D01*
X69088000Y-50860000D02*
X66488000Y-50860000D01*
X69088000Y-48200000D02*
X69088000Y-50860000D01*
X70358000Y-48200000D02*
X71688000Y-48200000D01*
X71688000Y-48200000D02*
X71688000Y-49530000D01*
G04 #@! TO.C,REF\u002A\u002A*
X83438000Y-46098000D02*
X83438000Y-46398000D01*
X80138000Y-46098000D02*
X83438000Y-46098000D01*
X80138000Y-46398000D02*
X80138000Y-46098000D01*
X83438000Y-48898000D02*
X83438000Y-48598000D01*
X80138000Y-48598000D02*
X80138000Y-48898000D01*
X80138000Y-48898000D02*
X83438000Y-48898000D01*
X82788000Y-45778000D02*
X82788000Y-46098000D01*
X82288000Y-45398000D02*
X82788000Y-45778000D01*
X81288000Y-45398000D02*
X82288000Y-45398000D01*
X80788000Y-45778000D02*
X80788000Y-46098000D01*
X81288000Y-45398000D02*
X80788000Y-45778000D01*
X49128000Y-47794000D02*
X49128000Y-48584000D01*
X56028000Y-48584000D02*
X56028000Y-47794000D01*
X54178000Y-49634000D02*
X52478000Y-49634000D01*
X55428000Y-46784000D02*
X49728000Y-46784000D01*
X52678000Y-45494000D02*
X52678000Y-46784000D01*
X53778000Y-45284000D02*
X52878000Y-45284000D01*
X53978000Y-46784000D02*
X53978000Y-45494000D01*
X52678000Y-45494000D02*
X52878000Y-45284000D01*
X53978000Y-45494000D02*
X53778000Y-45284000D01*
X51178000Y-49634000D02*
X50978000Y-49634000D01*
D10*
G04 #@! TO.C,D0*
X141890303Y-54102000D02*
X146970303Y-54102000D01*
X146970303Y-54102000D02*
X146970303Y-52578000D01*
X146970303Y-52578000D02*
X141890303Y-52578000D01*
X141890303Y-52578000D02*
X141890303Y-54102000D01*
X141890303Y-54102000D02*
X142398303Y-54102000D01*
X146589303Y-54102000D02*
X146589303Y-52578000D01*
X146716303Y-52578000D02*
X146716303Y-54102000D01*
X146843303Y-54102000D02*
X146843303Y-52578000D01*
X146462303Y-52578000D02*
X146462303Y-54102000D01*
X146335303Y-54102000D02*
X146335303Y-52578000D01*
X146208303Y-54102000D02*
X146208303Y-52578000D01*
X141890303Y-73152000D02*
X146970303Y-73152000D01*
X146970303Y-73152000D02*
X146970303Y-71628000D01*
X146970303Y-71628000D02*
X141890303Y-71628000D01*
X141890303Y-71628000D02*
X141890303Y-73152000D01*
X141890303Y-73152000D02*
X142398303Y-73152000D01*
X146589303Y-73152000D02*
X146589303Y-71628000D01*
X146716303Y-71628000D02*
X146716303Y-73152000D01*
X146843303Y-73152000D02*
X146843303Y-71628000D01*
X146462303Y-71628000D02*
X146462303Y-73152000D01*
X146335303Y-73152000D02*
X146335303Y-71628000D01*
X146208303Y-73152000D02*
X146208303Y-71628000D01*
X141890303Y-92202000D02*
X146970303Y-92202000D01*
X146970303Y-92202000D02*
X146970303Y-90678000D01*
X146970303Y-90678000D02*
X141890303Y-90678000D01*
X141890303Y-90678000D02*
X141890303Y-92202000D01*
X141890303Y-92202000D02*
X142398303Y-92202000D01*
X146589303Y-92202000D02*
X146589303Y-90678000D01*
X146716303Y-90678000D02*
X146716303Y-92202000D01*
X146843303Y-92202000D02*
X146843303Y-90678000D01*
X146462303Y-90678000D02*
X146462303Y-92202000D01*
X146335303Y-92202000D02*
X146335303Y-90678000D01*
X146208303Y-92202000D02*
X146208303Y-90678000D01*
X142398303Y-112252000D02*
X147478303Y-112252000D01*
X147478303Y-112252000D02*
X147478303Y-110728000D01*
X147478303Y-110728000D02*
X142398303Y-110728000D01*
X142398303Y-110728000D02*
X142398303Y-112252000D01*
X142398303Y-112252000D02*
X142906303Y-112252000D01*
X147097303Y-112252000D02*
X147097303Y-110728000D01*
X147224303Y-110728000D02*
X147224303Y-112252000D01*
X147351303Y-112252000D02*
X147351303Y-110728000D01*
X146970303Y-110728000D02*
X146970303Y-112252000D01*
X146843303Y-112252000D02*
X146843303Y-110728000D01*
X146716303Y-112252000D02*
X146716303Y-110728000D01*
X123348303Y-112252000D02*
X128428303Y-112252000D01*
X128428303Y-112252000D02*
X128428303Y-110728000D01*
X128428303Y-110728000D02*
X123348303Y-110728000D01*
X123348303Y-110728000D02*
X123348303Y-112252000D01*
X123348303Y-112252000D02*
X123856303Y-112252000D01*
X128047303Y-112252000D02*
X128047303Y-110728000D01*
X128174303Y-110728000D02*
X128174303Y-112252000D01*
X128301303Y-112252000D02*
X128301303Y-110728000D01*
X127920303Y-110728000D02*
X127920303Y-112252000D01*
X127793303Y-112252000D02*
X127793303Y-110728000D01*
X127666303Y-112252000D02*
X127666303Y-110728000D01*
X104298303Y-112252000D02*
X109378303Y-112252000D01*
X109378303Y-112252000D02*
X109378303Y-110728000D01*
X109378303Y-110728000D02*
X104298303Y-110728000D01*
X104298303Y-110728000D02*
X104298303Y-112252000D01*
X104298303Y-112252000D02*
X104806303Y-112252000D01*
X108997303Y-112252000D02*
X108997303Y-110728000D01*
X109124303Y-110728000D02*
X109124303Y-112252000D01*
X109251303Y-112252000D02*
X109251303Y-110728000D01*
X108870303Y-110728000D02*
X108870303Y-112252000D01*
X108743303Y-112252000D02*
X108743303Y-110728000D01*
X108616303Y-112252000D02*
X108616303Y-110728000D01*
X85248303Y-112252000D02*
X90328303Y-112252000D01*
X90328303Y-112252000D02*
X90328303Y-110728000D01*
X90328303Y-110728000D02*
X85248303Y-110728000D01*
X85248303Y-110728000D02*
X85248303Y-112252000D01*
X85248303Y-112252000D02*
X85756303Y-112252000D01*
X89947303Y-112252000D02*
X89947303Y-110728000D01*
X90074303Y-110728000D02*
X90074303Y-112252000D01*
X90201303Y-112252000D02*
X90201303Y-110728000D01*
X89820303Y-110728000D02*
X89820303Y-112252000D01*
X89693303Y-112252000D02*
X89693303Y-110728000D01*
X89566303Y-112252000D02*
X89566303Y-110728000D01*
X122840303Y-89662000D02*
X127920303Y-89662000D01*
X127920303Y-89662000D02*
X127920303Y-88138000D01*
X127920303Y-88138000D02*
X122840303Y-88138000D01*
X122840303Y-88138000D02*
X122840303Y-89662000D01*
X122840303Y-89662000D02*
X123348303Y-89662000D01*
X127539303Y-89662000D02*
X127539303Y-88138000D01*
X127666303Y-88138000D02*
X127666303Y-89662000D01*
X127793303Y-89662000D02*
X127793303Y-88138000D01*
X127412303Y-88138000D02*
X127412303Y-89662000D01*
X127285303Y-89662000D02*
X127285303Y-88138000D01*
X127158303Y-89662000D02*
X127158303Y-88138000D01*
X122840303Y-70612000D02*
X127920303Y-70612000D01*
X127920303Y-70612000D02*
X127920303Y-69088000D01*
X127920303Y-69088000D02*
X122840303Y-69088000D01*
X122840303Y-69088000D02*
X122840303Y-70612000D01*
X122840303Y-70612000D02*
X123348303Y-70612000D01*
X127539303Y-70612000D02*
X127539303Y-69088000D01*
X127666303Y-69088000D02*
X127666303Y-70612000D01*
X127793303Y-70612000D02*
X127793303Y-69088000D01*
X127412303Y-69088000D02*
X127412303Y-70612000D01*
X127285303Y-70612000D02*
X127285303Y-69088000D01*
X127158303Y-70612000D02*
X127158303Y-69088000D01*
X122840303Y-51562000D02*
X127920303Y-51562000D01*
X127920303Y-51562000D02*
X127920303Y-50038000D01*
X127920303Y-50038000D02*
X122840303Y-50038000D01*
X122840303Y-50038000D02*
X122840303Y-51562000D01*
X122840303Y-51562000D02*
X123348303Y-51562000D01*
X127539303Y-51562000D02*
X127539303Y-50038000D01*
X127666303Y-50038000D02*
X127666303Y-51562000D01*
X127793303Y-51562000D02*
X127793303Y-50038000D01*
X127412303Y-50038000D02*
X127412303Y-51562000D01*
X127285303Y-51562000D02*
X127285303Y-50038000D01*
X127158303Y-51562000D02*
X127158303Y-50038000D01*
X103790303Y-50292000D02*
X108870303Y-50292000D01*
X108870303Y-50292000D02*
X108870303Y-48768000D01*
X108870303Y-48768000D02*
X103790303Y-48768000D01*
X103790303Y-48768000D02*
X103790303Y-50292000D01*
X103790303Y-50292000D02*
X104298303Y-50292000D01*
X108489303Y-50292000D02*
X108489303Y-48768000D01*
X108616303Y-48768000D02*
X108616303Y-50292000D01*
X108743303Y-50292000D02*
X108743303Y-48768000D01*
X108362303Y-48768000D02*
X108362303Y-50292000D01*
X108235303Y-50292000D02*
X108235303Y-48768000D01*
X108108303Y-50292000D02*
X108108303Y-48768000D01*
X103790303Y-69342000D02*
X108870303Y-69342000D01*
X108870303Y-69342000D02*
X108870303Y-67818000D01*
X108870303Y-67818000D02*
X103790303Y-67818000D01*
X103790303Y-67818000D02*
X103790303Y-69342000D01*
X103790303Y-69342000D02*
X104298303Y-69342000D01*
X108489303Y-69342000D02*
X108489303Y-67818000D01*
X108616303Y-67818000D02*
X108616303Y-69342000D01*
X108743303Y-69342000D02*
X108743303Y-67818000D01*
X108362303Y-67818000D02*
X108362303Y-69342000D01*
X108235303Y-69342000D02*
X108235303Y-67818000D01*
X108108303Y-69342000D02*
X108108303Y-67818000D01*
X103790303Y-88392000D02*
X108870303Y-88392000D01*
X108870303Y-88392000D02*
X108870303Y-86868000D01*
X108870303Y-86868000D02*
X103790303Y-86868000D01*
X103790303Y-86868000D02*
X103790303Y-88392000D01*
X103790303Y-88392000D02*
X104298303Y-88392000D01*
X108489303Y-88392000D02*
X108489303Y-86868000D01*
X108616303Y-86868000D02*
X108616303Y-88392000D01*
X108743303Y-88392000D02*
X108743303Y-86868000D01*
X108362303Y-86868000D02*
X108362303Y-88392000D01*
X108235303Y-88392000D02*
X108235303Y-86868000D01*
X108108303Y-88392000D02*
X108108303Y-86868000D01*
X84740303Y-89662000D02*
X89820303Y-89662000D01*
X89820303Y-89662000D02*
X89820303Y-88138000D01*
X89820303Y-88138000D02*
X84740303Y-88138000D01*
X84740303Y-88138000D02*
X84740303Y-89662000D01*
X84740303Y-89662000D02*
X85248303Y-89662000D01*
X89439303Y-89662000D02*
X89439303Y-88138000D01*
X89566303Y-88138000D02*
X89566303Y-89662000D01*
X89693303Y-89662000D02*
X89693303Y-88138000D01*
X89312303Y-88138000D02*
X89312303Y-89662000D01*
X89185303Y-89662000D02*
X89185303Y-88138000D01*
X89058303Y-89662000D02*
X89058303Y-88138000D01*
X84740303Y-70612000D02*
X89820303Y-70612000D01*
X89820303Y-70612000D02*
X89820303Y-69088000D01*
X89820303Y-69088000D02*
X84740303Y-69088000D01*
X84740303Y-69088000D02*
X84740303Y-70612000D01*
X84740303Y-70612000D02*
X85248303Y-70612000D01*
X89439303Y-70612000D02*
X89439303Y-69088000D01*
X89566303Y-69088000D02*
X89566303Y-70612000D01*
X89693303Y-70612000D02*
X89693303Y-69088000D01*
X89312303Y-69088000D02*
X89312303Y-70612000D01*
X89185303Y-70612000D02*
X89185303Y-69088000D01*
X89058303Y-70612000D02*
X89058303Y-69088000D01*
X84740303Y-51562000D02*
X89820303Y-51562000D01*
X89820303Y-51562000D02*
X89820303Y-50038000D01*
X89820303Y-50038000D02*
X84740303Y-50038000D01*
X84740303Y-50038000D02*
X84740303Y-51562000D01*
X84740303Y-51562000D02*
X85248303Y-51562000D01*
X89439303Y-51562000D02*
X89439303Y-50038000D01*
X89566303Y-50038000D02*
X89566303Y-51562000D01*
X89693303Y-51562000D02*
X89693303Y-50038000D01*
X89312303Y-50038000D02*
X89312303Y-51562000D01*
X89185303Y-51562000D02*
X89185303Y-50038000D01*
X89058303Y-51562000D02*
X89058303Y-50038000D01*
X65747231Y-52832000D02*
X70827231Y-52832000D01*
X70827231Y-52832000D02*
X70827231Y-51308000D01*
X70827231Y-51308000D02*
X65747231Y-51308000D01*
X65747231Y-51308000D02*
X65747231Y-52832000D01*
X65747231Y-52832000D02*
X66255231Y-52832000D01*
X70446231Y-52832000D02*
X70446231Y-51308000D01*
X70573231Y-51308000D02*
X70573231Y-52832000D01*
X70700231Y-52832000D02*
X70700231Y-51308000D01*
X70319231Y-51308000D02*
X70319231Y-52832000D01*
X70192231Y-52832000D02*
X70192231Y-51308000D01*
X70065231Y-52832000D02*
X70065231Y-51308000D01*
X65747231Y-71882000D02*
X70827231Y-71882000D01*
X70827231Y-71882000D02*
X70827231Y-70358000D01*
X70827231Y-70358000D02*
X65747231Y-70358000D01*
X65747231Y-70358000D02*
X65747231Y-71882000D01*
X65747231Y-71882000D02*
X66255231Y-71882000D01*
X70446231Y-71882000D02*
X70446231Y-70358000D01*
X70573231Y-70358000D02*
X70573231Y-71882000D01*
X70700231Y-71882000D02*
X70700231Y-70358000D01*
X70319231Y-70358000D02*
X70319231Y-71882000D01*
X70192231Y-71882000D02*
X70192231Y-70358000D01*
X70065231Y-71882000D02*
X70065231Y-70358000D01*
X65747231Y-90932000D02*
X70827231Y-90932000D01*
X70827231Y-90932000D02*
X70827231Y-89408000D01*
X70827231Y-89408000D02*
X65747231Y-89408000D01*
X65747231Y-89408000D02*
X65747231Y-90932000D01*
X65747231Y-90932000D02*
X66255231Y-90932000D01*
X70446231Y-90932000D02*
X70446231Y-89408000D01*
X70573231Y-89408000D02*
X70573231Y-90932000D01*
X70700231Y-90932000D02*
X70700231Y-89408000D01*
X70319231Y-89408000D02*
X70319231Y-90932000D01*
X70192231Y-90932000D02*
X70192231Y-89408000D01*
X70065231Y-90932000D02*
X70065231Y-89408000D01*
X66255231Y-112252000D02*
X71335231Y-112252000D01*
X71335231Y-112252000D02*
X71335231Y-110728000D01*
X71335231Y-110728000D02*
X66255231Y-110728000D01*
X66255231Y-110728000D02*
X66255231Y-112252000D01*
X66255231Y-112252000D02*
X66763231Y-112252000D01*
X70954231Y-112252000D02*
X70954231Y-110728000D01*
X71081231Y-110728000D02*
X71081231Y-112252000D01*
X71208231Y-112252000D02*
X71208231Y-110728000D01*
X70827231Y-110728000D02*
X70827231Y-112252000D01*
X70700231Y-112252000D02*
X70700231Y-110728000D01*
X70573231Y-112252000D02*
X70573231Y-110728000D01*
X46990000Y-112252000D02*
X52070000Y-112252000D01*
X52070000Y-112252000D02*
X52070000Y-110728000D01*
X52070000Y-110728000D02*
X46990000Y-110728000D01*
X46990000Y-110728000D02*
X46990000Y-112252000D01*
X46990000Y-112252000D02*
X47498000Y-112252000D01*
X51689000Y-112252000D02*
X51689000Y-110728000D01*
X51816000Y-110728000D02*
X51816000Y-112252000D01*
X51943000Y-112252000D02*
X51943000Y-110728000D01*
X51562000Y-110728000D02*
X51562000Y-112252000D01*
X51435000Y-112252000D02*
X51435000Y-110728000D01*
X51308000Y-112252000D02*
X51308000Y-110728000D01*
X46990000Y-93472000D02*
X52070000Y-93472000D01*
X52070000Y-93472000D02*
X52070000Y-91948000D01*
X52070000Y-91948000D02*
X46990000Y-91948000D01*
X46990000Y-91948000D02*
X46990000Y-93472000D01*
X46990000Y-93472000D02*
X47498000Y-93472000D01*
X51689000Y-93472000D02*
X51689000Y-91948000D01*
X51816000Y-91948000D02*
X51816000Y-93472000D01*
X51943000Y-93472000D02*
X51943000Y-91948000D01*
X51562000Y-91948000D02*
X51562000Y-93472000D01*
X51435000Y-93472000D02*
X51435000Y-91948000D01*
X51308000Y-93472000D02*
X51308000Y-91948000D01*
X46482000Y-74422000D02*
X51562000Y-74422000D01*
X51562000Y-74422000D02*
X51562000Y-72898000D01*
X51562000Y-72898000D02*
X46482000Y-72898000D01*
X46482000Y-72898000D02*
X46482000Y-74422000D01*
X46482000Y-74422000D02*
X46990000Y-74422000D01*
X51181000Y-74422000D02*
X51181000Y-72898000D01*
X51308000Y-72898000D02*
X51308000Y-74422000D01*
X51435000Y-74422000D02*
X51435000Y-72898000D01*
X51054000Y-72898000D02*
X51054000Y-74422000D01*
X50927000Y-74422000D02*
X50927000Y-72898000D01*
X50800000Y-74422000D02*
X50800000Y-72898000D01*
X46482000Y-55372000D02*
X51562000Y-55372000D01*
X51562000Y-55372000D02*
X51562000Y-53848000D01*
X51562000Y-53848000D02*
X46482000Y-53848000D01*
X46482000Y-53848000D02*
X46482000Y-55372000D01*
X46482000Y-55372000D02*
X46990000Y-55372000D01*
X51181000Y-55372000D02*
X51181000Y-53848000D01*
X51308000Y-53848000D02*
X51308000Y-55372000D01*
X51435000Y-55372000D02*
X51435000Y-53848000D01*
X51054000Y-53848000D02*
X51054000Y-55372000D01*
X50927000Y-55372000D02*
X50927000Y-53848000D01*
X50800000Y-55372000D02*
X50800000Y-53848000D01*
G04 #@! TO.C,REF\u002A\u002A*
X47848666Y-55951380D02*
X47515333Y-55475190D01*
X47277238Y-55951380D02*
X47277238Y-54951380D01*
X47658190Y-54951380D01*
X47753428Y-54999000D01*
X47801047Y-55046619D01*
X47848666Y-55141857D01*
X47848666Y-55284714D01*
X47801047Y-55379952D01*
X47753428Y-55427571D01*
X47658190Y-55475190D01*
X47277238Y-55475190D01*
X48277238Y-55427571D02*
X48610571Y-55427571D01*
X48753428Y-55951380D02*
X48277238Y-55951380D01*
X48277238Y-54951380D01*
X48753428Y-54951380D01*
X49515333Y-55427571D02*
X49182000Y-55427571D01*
X49182000Y-55951380D02*
X49182000Y-54951380D01*
X49658190Y-54951380D01*
X50182000Y-54951380D02*
X50182000Y-55189476D01*
X49943904Y-55094238D02*
X50182000Y-55189476D01*
X50420095Y-55094238D01*
X50039142Y-55379952D02*
X50182000Y-55189476D01*
X50324857Y-55379952D01*
X50943904Y-54951380D02*
X50943904Y-55189476D01*
X50705809Y-55094238D02*
X50943904Y-55189476D01*
X51182000Y-55094238D01*
X50801047Y-55379952D02*
X50943904Y-55189476D01*
X51086761Y-55379952D01*
G04 #@! TO.C, *
G04 #@! TO.C,REF\u002A\u002A*
X80454666Y-44850380D02*
X80121333Y-44374190D01*
X79883238Y-44850380D02*
X79883238Y-43850380D01*
X80264190Y-43850380D01*
X80359428Y-43898000D01*
X80407047Y-43945619D01*
X80454666Y-44040857D01*
X80454666Y-44183714D01*
X80407047Y-44278952D01*
X80359428Y-44326571D01*
X80264190Y-44374190D01*
X79883238Y-44374190D01*
X80883238Y-44326571D02*
X81216571Y-44326571D01*
X81359428Y-44850380D02*
X80883238Y-44850380D01*
X80883238Y-43850380D01*
X81359428Y-43850380D01*
X82121333Y-44326571D02*
X81788000Y-44326571D01*
X81788000Y-44850380D02*
X81788000Y-43850380D01*
X82264190Y-43850380D01*
X82788000Y-43850380D02*
X82788000Y-44088476D01*
X82549904Y-43993238D02*
X82788000Y-44088476D01*
X83026095Y-43993238D01*
X82645142Y-44278952D02*
X82788000Y-44088476D01*
X82930857Y-44278952D01*
X83549904Y-43850380D02*
X83549904Y-44088476D01*
X83311809Y-43993238D02*
X83549904Y-44088476D01*
X83788000Y-43993238D01*
X83407047Y-44278952D02*
X83549904Y-44088476D01*
X83692761Y-44278952D01*
X51244666Y-52166380D02*
X50911333Y-51690190D01*
X50673238Y-52166380D02*
X50673238Y-51166380D01*
X51054190Y-51166380D01*
X51149428Y-51214000D01*
X51197047Y-51261619D01*
X51244666Y-51356857D01*
X51244666Y-51499714D01*
X51197047Y-51594952D01*
X51149428Y-51642571D01*
X51054190Y-51690190D01*
X50673238Y-51690190D01*
X51673238Y-51642571D02*
X52006571Y-51642571D01*
X52149428Y-52166380D02*
X51673238Y-52166380D01*
X51673238Y-51166380D01*
X52149428Y-51166380D01*
X52911333Y-51642571D02*
X52578000Y-51642571D01*
X52578000Y-52166380D02*
X52578000Y-51166380D01*
X53054190Y-51166380D01*
X53578000Y-51166380D02*
X53578000Y-51404476D01*
X53339904Y-51309238D02*
X53578000Y-51404476D01*
X53816095Y-51309238D01*
X53435142Y-51594952D02*
X53578000Y-51404476D01*
X53720857Y-51594952D01*
X54339904Y-51166380D02*
X54339904Y-51404476D01*
X54101809Y-51309238D02*
X54339904Y-51404476D01*
X54578000Y-51309238D01*
X54197047Y-51594952D02*
X54339904Y-51404476D01*
X54482761Y-51594952D01*
G04 #@! TO.C,D0*
X143814426Y-55101904D02*
X143814426Y-54301904D01*
X144004903Y-54301904D01*
X144119188Y-54340000D01*
X144195379Y-54416190D01*
X144233474Y-54492380D01*
X144271569Y-54644761D01*
X144271569Y-54759047D01*
X144233474Y-54911428D01*
X144195379Y-54987619D01*
X144119188Y-55063809D01*
X144004903Y-55101904D01*
X143814426Y-55101904D01*
X144766807Y-54301904D02*
X144842998Y-54301904D01*
X144919188Y-54340000D01*
X144957283Y-54378095D01*
X144995379Y-54454285D01*
X145033474Y-54606666D01*
X145033474Y-54797142D01*
X144995379Y-54949523D01*
X144957283Y-55025714D01*
X144919188Y-55063809D01*
X144842998Y-55101904D01*
X144766807Y-55101904D01*
X144690617Y-55063809D01*
X144652522Y-55025714D01*
X144614426Y-54949523D01*
X144576331Y-54797142D01*
X144576331Y-54606666D01*
X144614426Y-54454285D01*
X144652522Y-54378095D01*
X144690617Y-54340000D01*
X144766807Y-54301904D01*
X143814426Y-74151904D02*
X143814426Y-73351904D01*
X144004903Y-73351904D01*
X144119188Y-73390000D01*
X144195379Y-73466190D01*
X144233474Y-73542380D01*
X144271569Y-73694761D01*
X144271569Y-73809047D01*
X144233474Y-73961428D01*
X144195379Y-74037619D01*
X144119188Y-74113809D01*
X144004903Y-74151904D01*
X143814426Y-74151904D01*
X144766807Y-73351904D02*
X144842998Y-73351904D01*
X144919188Y-73390000D01*
X144957283Y-73428095D01*
X144995379Y-73504285D01*
X145033474Y-73656666D01*
X145033474Y-73847142D01*
X144995379Y-73999523D01*
X144957283Y-74075714D01*
X144919188Y-74113809D01*
X144842998Y-74151904D01*
X144766807Y-74151904D01*
X144690617Y-74113809D01*
X144652522Y-74075714D01*
X144614426Y-73999523D01*
X144576331Y-73847142D01*
X144576331Y-73656666D01*
X144614426Y-73504285D01*
X144652522Y-73428095D01*
X144690617Y-73390000D01*
X144766807Y-73351904D01*
X143814426Y-93201904D02*
X143814426Y-92401904D01*
X144004903Y-92401904D01*
X144119188Y-92440000D01*
X144195379Y-92516190D01*
X144233474Y-92592380D01*
X144271569Y-92744761D01*
X144271569Y-92859047D01*
X144233474Y-93011428D01*
X144195379Y-93087619D01*
X144119188Y-93163809D01*
X144004903Y-93201904D01*
X143814426Y-93201904D01*
X144766807Y-92401904D02*
X144842998Y-92401904D01*
X144919188Y-92440000D01*
X144957283Y-92478095D01*
X144995379Y-92554285D01*
X145033474Y-92706666D01*
X145033474Y-92897142D01*
X144995379Y-93049523D01*
X144957283Y-93125714D01*
X144919188Y-93163809D01*
X144842998Y-93201904D01*
X144766807Y-93201904D01*
X144690617Y-93163809D01*
X144652522Y-93125714D01*
X144614426Y-93049523D01*
X144576331Y-92897142D01*
X144576331Y-92706666D01*
X144614426Y-92554285D01*
X144652522Y-92478095D01*
X144690617Y-92440000D01*
X144766807Y-92401904D01*
X144322426Y-113251904D02*
X144322426Y-112451904D01*
X144512903Y-112451904D01*
X144627188Y-112490000D01*
X144703379Y-112566190D01*
X144741474Y-112642380D01*
X144779569Y-112794761D01*
X144779569Y-112909047D01*
X144741474Y-113061428D01*
X144703379Y-113137619D01*
X144627188Y-113213809D01*
X144512903Y-113251904D01*
X144322426Y-113251904D01*
X145274807Y-112451904D02*
X145350998Y-112451904D01*
X145427188Y-112490000D01*
X145465283Y-112528095D01*
X145503379Y-112604285D01*
X145541474Y-112756666D01*
X145541474Y-112947142D01*
X145503379Y-113099523D01*
X145465283Y-113175714D01*
X145427188Y-113213809D01*
X145350998Y-113251904D01*
X145274807Y-113251904D01*
X145198617Y-113213809D01*
X145160522Y-113175714D01*
X145122426Y-113099523D01*
X145084331Y-112947142D01*
X145084331Y-112756666D01*
X145122426Y-112604285D01*
X145160522Y-112528095D01*
X145198617Y-112490000D01*
X145274807Y-112451904D01*
X125272426Y-113251904D02*
X125272426Y-112451904D01*
X125462903Y-112451904D01*
X125577188Y-112490000D01*
X125653379Y-112566190D01*
X125691474Y-112642380D01*
X125729569Y-112794761D01*
X125729569Y-112909047D01*
X125691474Y-113061428D01*
X125653379Y-113137619D01*
X125577188Y-113213809D01*
X125462903Y-113251904D01*
X125272426Y-113251904D01*
X126224807Y-112451904D02*
X126300998Y-112451904D01*
X126377188Y-112490000D01*
X126415283Y-112528095D01*
X126453379Y-112604285D01*
X126491474Y-112756666D01*
X126491474Y-112947142D01*
X126453379Y-113099523D01*
X126415283Y-113175714D01*
X126377188Y-113213809D01*
X126300998Y-113251904D01*
X126224807Y-113251904D01*
X126148617Y-113213809D01*
X126110522Y-113175714D01*
X126072426Y-113099523D01*
X126034331Y-112947142D01*
X126034331Y-112756666D01*
X126072426Y-112604285D01*
X126110522Y-112528095D01*
X126148617Y-112490000D01*
X126224807Y-112451904D01*
X106222426Y-113251904D02*
X106222426Y-112451904D01*
X106412903Y-112451904D01*
X106527188Y-112490000D01*
X106603379Y-112566190D01*
X106641474Y-112642380D01*
X106679569Y-112794761D01*
X106679569Y-112909047D01*
X106641474Y-113061428D01*
X106603379Y-113137619D01*
X106527188Y-113213809D01*
X106412903Y-113251904D01*
X106222426Y-113251904D01*
X107174807Y-112451904D02*
X107250998Y-112451904D01*
X107327188Y-112490000D01*
X107365283Y-112528095D01*
X107403379Y-112604285D01*
X107441474Y-112756666D01*
X107441474Y-112947142D01*
X107403379Y-113099523D01*
X107365283Y-113175714D01*
X107327188Y-113213809D01*
X107250998Y-113251904D01*
X107174807Y-113251904D01*
X107098617Y-113213809D01*
X107060522Y-113175714D01*
X107022426Y-113099523D01*
X106984331Y-112947142D01*
X106984331Y-112756666D01*
X107022426Y-112604285D01*
X107060522Y-112528095D01*
X107098617Y-112490000D01*
X107174807Y-112451904D01*
X87172426Y-113251904D02*
X87172426Y-112451904D01*
X87362903Y-112451904D01*
X87477188Y-112490000D01*
X87553379Y-112566190D01*
X87591474Y-112642380D01*
X87629569Y-112794761D01*
X87629569Y-112909047D01*
X87591474Y-113061428D01*
X87553379Y-113137619D01*
X87477188Y-113213809D01*
X87362903Y-113251904D01*
X87172426Y-113251904D01*
X88124807Y-112451904D02*
X88200998Y-112451904D01*
X88277188Y-112490000D01*
X88315283Y-112528095D01*
X88353379Y-112604285D01*
X88391474Y-112756666D01*
X88391474Y-112947142D01*
X88353379Y-113099523D01*
X88315283Y-113175714D01*
X88277188Y-113213809D01*
X88200998Y-113251904D01*
X88124807Y-113251904D01*
X88048617Y-113213809D01*
X88010522Y-113175714D01*
X87972426Y-113099523D01*
X87934331Y-112947142D01*
X87934331Y-112756666D01*
X87972426Y-112604285D01*
X88010522Y-112528095D01*
X88048617Y-112490000D01*
X88124807Y-112451904D01*
X124764426Y-90661904D02*
X124764426Y-89861904D01*
X124954903Y-89861904D01*
X125069188Y-89900000D01*
X125145379Y-89976190D01*
X125183474Y-90052380D01*
X125221569Y-90204761D01*
X125221569Y-90319047D01*
X125183474Y-90471428D01*
X125145379Y-90547619D01*
X125069188Y-90623809D01*
X124954903Y-90661904D01*
X124764426Y-90661904D01*
X125716807Y-89861904D02*
X125792998Y-89861904D01*
X125869188Y-89900000D01*
X125907283Y-89938095D01*
X125945379Y-90014285D01*
X125983474Y-90166666D01*
X125983474Y-90357142D01*
X125945379Y-90509523D01*
X125907283Y-90585714D01*
X125869188Y-90623809D01*
X125792998Y-90661904D01*
X125716807Y-90661904D01*
X125640617Y-90623809D01*
X125602522Y-90585714D01*
X125564426Y-90509523D01*
X125526331Y-90357142D01*
X125526331Y-90166666D01*
X125564426Y-90014285D01*
X125602522Y-89938095D01*
X125640617Y-89900000D01*
X125716807Y-89861904D01*
X124764426Y-71611904D02*
X124764426Y-70811904D01*
X124954903Y-70811904D01*
X125069188Y-70850000D01*
X125145379Y-70926190D01*
X125183474Y-71002380D01*
X125221569Y-71154761D01*
X125221569Y-71269047D01*
X125183474Y-71421428D01*
X125145379Y-71497619D01*
X125069188Y-71573809D01*
X124954903Y-71611904D01*
X124764426Y-71611904D01*
X125716807Y-70811904D02*
X125792998Y-70811904D01*
X125869188Y-70850000D01*
X125907283Y-70888095D01*
X125945379Y-70964285D01*
X125983474Y-71116666D01*
X125983474Y-71307142D01*
X125945379Y-71459523D01*
X125907283Y-71535714D01*
X125869188Y-71573809D01*
X125792998Y-71611904D01*
X125716807Y-71611904D01*
X125640617Y-71573809D01*
X125602522Y-71535714D01*
X125564426Y-71459523D01*
X125526331Y-71307142D01*
X125526331Y-71116666D01*
X125564426Y-70964285D01*
X125602522Y-70888095D01*
X125640617Y-70850000D01*
X125716807Y-70811904D01*
X124764426Y-52561904D02*
X124764426Y-51761904D01*
X124954903Y-51761904D01*
X125069188Y-51800000D01*
X125145379Y-51876190D01*
X125183474Y-51952380D01*
X125221569Y-52104761D01*
X125221569Y-52219047D01*
X125183474Y-52371428D01*
X125145379Y-52447619D01*
X125069188Y-52523809D01*
X124954903Y-52561904D01*
X124764426Y-52561904D01*
X125716807Y-51761904D02*
X125792998Y-51761904D01*
X125869188Y-51800000D01*
X125907283Y-51838095D01*
X125945379Y-51914285D01*
X125983474Y-52066666D01*
X125983474Y-52257142D01*
X125945379Y-52409523D01*
X125907283Y-52485714D01*
X125869188Y-52523809D01*
X125792998Y-52561904D01*
X125716807Y-52561904D01*
X125640617Y-52523809D01*
X125602522Y-52485714D01*
X125564426Y-52409523D01*
X125526331Y-52257142D01*
X125526331Y-52066666D01*
X125564426Y-51914285D01*
X125602522Y-51838095D01*
X125640617Y-51800000D01*
X125716807Y-51761904D01*
X105714426Y-51291904D02*
X105714426Y-50491904D01*
X105904903Y-50491904D01*
X106019188Y-50530000D01*
X106095379Y-50606190D01*
X106133474Y-50682380D01*
X106171569Y-50834761D01*
X106171569Y-50949047D01*
X106133474Y-51101428D01*
X106095379Y-51177619D01*
X106019188Y-51253809D01*
X105904903Y-51291904D01*
X105714426Y-51291904D01*
X106666807Y-50491904D02*
X106742998Y-50491904D01*
X106819188Y-50530000D01*
X106857283Y-50568095D01*
X106895379Y-50644285D01*
X106933474Y-50796666D01*
X106933474Y-50987142D01*
X106895379Y-51139523D01*
X106857283Y-51215714D01*
X106819188Y-51253809D01*
X106742998Y-51291904D01*
X106666807Y-51291904D01*
X106590617Y-51253809D01*
X106552522Y-51215714D01*
X106514426Y-51139523D01*
X106476331Y-50987142D01*
X106476331Y-50796666D01*
X106514426Y-50644285D01*
X106552522Y-50568095D01*
X106590617Y-50530000D01*
X106666807Y-50491904D01*
X105714426Y-70341904D02*
X105714426Y-69541904D01*
X105904903Y-69541904D01*
X106019188Y-69580000D01*
X106095379Y-69656190D01*
X106133474Y-69732380D01*
X106171569Y-69884761D01*
X106171569Y-69999047D01*
X106133474Y-70151428D01*
X106095379Y-70227619D01*
X106019188Y-70303809D01*
X105904903Y-70341904D01*
X105714426Y-70341904D01*
X106666807Y-69541904D02*
X106742998Y-69541904D01*
X106819188Y-69580000D01*
X106857283Y-69618095D01*
X106895379Y-69694285D01*
X106933474Y-69846666D01*
X106933474Y-70037142D01*
X106895379Y-70189523D01*
X106857283Y-70265714D01*
X106819188Y-70303809D01*
X106742998Y-70341904D01*
X106666807Y-70341904D01*
X106590617Y-70303809D01*
X106552522Y-70265714D01*
X106514426Y-70189523D01*
X106476331Y-70037142D01*
X106476331Y-69846666D01*
X106514426Y-69694285D01*
X106552522Y-69618095D01*
X106590617Y-69580000D01*
X106666807Y-69541904D01*
X105714426Y-89391904D02*
X105714426Y-88591904D01*
X105904903Y-88591904D01*
X106019188Y-88630000D01*
X106095379Y-88706190D01*
X106133474Y-88782380D01*
X106171569Y-88934761D01*
X106171569Y-89049047D01*
X106133474Y-89201428D01*
X106095379Y-89277619D01*
X106019188Y-89353809D01*
X105904903Y-89391904D01*
X105714426Y-89391904D01*
X106666807Y-88591904D02*
X106742998Y-88591904D01*
X106819188Y-88630000D01*
X106857283Y-88668095D01*
X106895379Y-88744285D01*
X106933474Y-88896666D01*
X106933474Y-89087142D01*
X106895379Y-89239523D01*
X106857283Y-89315714D01*
X106819188Y-89353809D01*
X106742998Y-89391904D01*
X106666807Y-89391904D01*
X106590617Y-89353809D01*
X106552522Y-89315714D01*
X106514426Y-89239523D01*
X106476331Y-89087142D01*
X106476331Y-88896666D01*
X106514426Y-88744285D01*
X106552522Y-88668095D01*
X106590617Y-88630000D01*
X106666807Y-88591904D01*
X86664426Y-90661904D02*
X86664426Y-89861904D01*
X86854903Y-89861904D01*
X86969188Y-89900000D01*
X87045379Y-89976190D01*
X87083474Y-90052380D01*
X87121569Y-90204761D01*
X87121569Y-90319047D01*
X87083474Y-90471428D01*
X87045379Y-90547619D01*
X86969188Y-90623809D01*
X86854903Y-90661904D01*
X86664426Y-90661904D01*
X87616807Y-89861904D02*
X87692998Y-89861904D01*
X87769188Y-89900000D01*
X87807283Y-89938095D01*
X87845379Y-90014285D01*
X87883474Y-90166666D01*
X87883474Y-90357142D01*
X87845379Y-90509523D01*
X87807283Y-90585714D01*
X87769188Y-90623809D01*
X87692998Y-90661904D01*
X87616807Y-90661904D01*
X87540617Y-90623809D01*
X87502522Y-90585714D01*
X87464426Y-90509523D01*
X87426331Y-90357142D01*
X87426331Y-90166666D01*
X87464426Y-90014285D01*
X87502522Y-89938095D01*
X87540617Y-89900000D01*
X87616807Y-89861904D01*
X86664426Y-71611904D02*
X86664426Y-70811904D01*
X86854903Y-70811904D01*
X86969188Y-70850000D01*
X87045379Y-70926190D01*
X87083474Y-71002380D01*
X87121569Y-71154761D01*
X87121569Y-71269047D01*
X87083474Y-71421428D01*
X87045379Y-71497619D01*
X86969188Y-71573809D01*
X86854903Y-71611904D01*
X86664426Y-71611904D01*
X87616807Y-70811904D02*
X87692998Y-70811904D01*
X87769188Y-70850000D01*
X87807283Y-70888095D01*
X87845379Y-70964285D01*
X87883474Y-71116666D01*
X87883474Y-71307142D01*
X87845379Y-71459523D01*
X87807283Y-71535714D01*
X87769188Y-71573809D01*
X87692998Y-71611904D01*
X87616807Y-71611904D01*
X87540617Y-71573809D01*
X87502522Y-71535714D01*
X87464426Y-71459523D01*
X87426331Y-71307142D01*
X87426331Y-71116666D01*
X87464426Y-70964285D01*
X87502522Y-70888095D01*
X87540617Y-70850000D01*
X87616807Y-70811904D01*
X86664426Y-52561904D02*
X86664426Y-51761904D01*
X86854903Y-51761904D01*
X86969188Y-51800000D01*
X87045379Y-51876190D01*
X87083474Y-51952380D01*
X87121569Y-52104761D01*
X87121569Y-52219047D01*
X87083474Y-52371428D01*
X87045379Y-52447619D01*
X86969188Y-52523809D01*
X86854903Y-52561904D01*
X86664426Y-52561904D01*
X87616807Y-51761904D02*
X87692998Y-51761904D01*
X87769188Y-51800000D01*
X87807283Y-51838095D01*
X87845379Y-51914285D01*
X87883474Y-52066666D01*
X87883474Y-52257142D01*
X87845379Y-52409523D01*
X87807283Y-52485714D01*
X87769188Y-52523809D01*
X87692998Y-52561904D01*
X87616807Y-52561904D01*
X87540617Y-52523809D01*
X87502522Y-52485714D01*
X87464426Y-52409523D01*
X87426331Y-52257142D01*
X87426331Y-52066666D01*
X87464426Y-51914285D01*
X87502522Y-51838095D01*
X87540617Y-51800000D01*
X87616807Y-51761904D01*
X67671354Y-53831904D02*
X67671354Y-53031904D01*
X67861831Y-53031904D01*
X67976116Y-53070000D01*
X68052307Y-53146190D01*
X68090402Y-53222380D01*
X68128497Y-53374761D01*
X68128497Y-53489047D01*
X68090402Y-53641428D01*
X68052307Y-53717619D01*
X67976116Y-53793809D01*
X67861831Y-53831904D01*
X67671354Y-53831904D01*
X68623735Y-53031904D02*
X68699926Y-53031904D01*
X68776116Y-53070000D01*
X68814211Y-53108095D01*
X68852307Y-53184285D01*
X68890402Y-53336666D01*
X68890402Y-53527142D01*
X68852307Y-53679523D01*
X68814211Y-53755714D01*
X68776116Y-53793809D01*
X68699926Y-53831904D01*
X68623735Y-53831904D01*
X68547545Y-53793809D01*
X68509450Y-53755714D01*
X68471354Y-53679523D01*
X68433259Y-53527142D01*
X68433259Y-53336666D01*
X68471354Y-53184285D01*
X68509450Y-53108095D01*
X68547545Y-53070000D01*
X68623735Y-53031904D01*
X67671354Y-72881904D02*
X67671354Y-72081904D01*
X67861831Y-72081904D01*
X67976116Y-72120000D01*
X68052307Y-72196190D01*
X68090402Y-72272380D01*
X68128497Y-72424761D01*
X68128497Y-72539047D01*
X68090402Y-72691428D01*
X68052307Y-72767619D01*
X67976116Y-72843809D01*
X67861831Y-72881904D01*
X67671354Y-72881904D01*
X68623735Y-72081904D02*
X68699926Y-72081904D01*
X68776116Y-72120000D01*
X68814211Y-72158095D01*
X68852307Y-72234285D01*
X68890402Y-72386666D01*
X68890402Y-72577142D01*
X68852307Y-72729523D01*
X68814211Y-72805714D01*
X68776116Y-72843809D01*
X68699926Y-72881904D01*
X68623735Y-72881904D01*
X68547545Y-72843809D01*
X68509450Y-72805714D01*
X68471354Y-72729523D01*
X68433259Y-72577142D01*
X68433259Y-72386666D01*
X68471354Y-72234285D01*
X68509450Y-72158095D01*
X68547545Y-72120000D01*
X68623735Y-72081904D01*
X67671354Y-91931904D02*
X67671354Y-91131904D01*
X67861831Y-91131904D01*
X67976116Y-91170000D01*
X68052307Y-91246190D01*
X68090402Y-91322380D01*
X68128497Y-91474761D01*
X68128497Y-91589047D01*
X68090402Y-91741428D01*
X68052307Y-91817619D01*
X67976116Y-91893809D01*
X67861831Y-91931904D01*
X67671354Y-91931904D01*
X68623735Y-91131904D02*
X68699926Y-91131904D01*
X68776116Y-91170000D01*
X68814211Y-91208095D01*
X68852307Y-91284285D01*
X68890402Y-91436666D01*
X68890402Y-91627142D01*
X68852307Y-91779523D01*
X68814211Y-91855714D01*
X68776116Y-91893809D01*
X68699926Y-91931904D01*
X68623735Y-91931904D01*
X68547545Y-91893809D01*
X68509450Y-91855714D01*
X68471354Y-91779523D01*
X68433259Y-91627142D01*
X68433259Y-91436666D01*
X68471354Y-91284285D01*
X68509450Y-91208095D01*
X68547545Y-91170000D01*
X68623735Y-91131904D01*
X68179354Y-113251904D02*
X68179354Y-112451904D01*
X68369831Y-112451904D01*
X68484116Y-112490000D01*
X68560307Y-112566190D01*
X68598402Y-112642380D01*
X68636497Y-112794761D01*
X68636497Y-112909047D01*
X68598402Y-113061428D01*
X68560307Y-113137619D01*
X68484116Y-113213809D01*
X68369831Y-113251904D01*
X68179354Y-113251904D01*
X69131735Y-112451904D02*
X69207926Y-112451904D01*
X69284116Y-112490000D01*
X69322211Y-112528095D01*
X69360307Y-112604285D01*
X69398402Y-112756666D01*
X69398402Y-112947142D01*
X69360307Y-113099523D01*
X69322211Y-113175714D01*
X69284116Y-113213809D01*
X69207926Y-113251904D01*
X69131735Y-113251904D01*
X69055545Y-113213809D01*
X69017450Y-113175714D01*
X68979354Y-113099523D01*
X68941259Y-112947142D01*
X68941259Y-112756666D01*
X68979354Y-112604285D01*
X69017450Y-112528095D01*
X69055545Y-112490000D01*
X69131735Y-112451904D01*
X48914123Y-113251904D02*
X48914123Y-112451904D01*
X49104600Y-112451904D01*
X49218885Y-112490000D01*
X49295076Y-112566190D01*
X49333171Y-112642380D01*
X49371266Y-112794761D01*
X49371266Y-112909047D01*
X49333171Y-113061428D01*
X49295076Y-113137619D01*
X49218885Y-113213809D01*
X49104600Y-113251904D01*
X48914123Y-113251904D01*
X49866504Y-112451904D02*
X49942695Y-112451904D01*
X50018885Y-112490000D01*
X50056980Y-112528095D01*
X50095076Y-112604285D01*
X50133171Y-112756666D01*
X50133171Y-112947142D01*
X50095076Y-113099523D01*
X50056980Y-113175714D01*
X50018885Y-113213809D01*
X49942695Y-113251904D01*
X49866504Y-113251904D01*
X49790314Y-113213809D01*
X49752219Y-113175714D01*
X49714123Y-113099523D01*
X49676028Y-112947142D01*
X49676028Y-112756666D01*
X49714123Y-112604285D01*
X49752219Y-112528095D01*
X49790314Y-112490000D01*
X49866504Y-112451904D01*
X48914123Y-94471904D02*
X48914123Y-93671904D01*
X49104600Y-93671904D01*
X49218885Y-93710000D01*
X49295076Y-93786190D01*
X49333171Y-93862380D01*
X49371266Y-94014761D01*
X49371266Y-94129047D01*
X49333171Y-94281428D01*
X49295076Y-94357619D01*
X49218885Y-94433809D01*
X49104600Y-94471904D01*
X48914123Y-94471904D01*
X49866504Y-93671904D02*
X49942695Y-93671904D01*
X50018885Y-93710000D01*
X50056980Y-93748095D01*
X50095076Y-93824285D01*
X50133171Y-93976666D01*
X50133171Y-94167142D01*
X50095076Y-94319523D01*
X50056980Y-94395714D01*
X50018885Y-94433809D01*
X49942695Y-94471904D01*
X49866504Y-94471904D01*
X49790314Y-94433809D01*
X49752219Y-94395714D01*
X49714123Y-94319523D01*
X49676028Y-94167142D01*
X49676028Y-93976666D01*
X49714123Y-93824285D01*
X49752219Y-93748095D01*
X49790314Y-93710000D01*
X49866504Y-93671904D01*
X48406123Y-75421904D02*
X48406123Y-74621904D01*
X48596600Y-74621904D01*
X48710885Y-74660000D01*
X48787076Y-74736190D01*
X48825171Y-74812380D01*
X48863266Y-74964761D01*
X48863266Y-75079047D01*
X48825171Y-75231428D01*
X48787076Y-75307619D01*
X48710885Y-75383809D01*
X48596600Y-75421904D01*
X48406123Y-75421904D01*
X49358504Y-74621904D02*
X49434695Y-74621904D01*
X49510885Y-74660000D01*
X49548980Y-74698095D01*
X49587076Y-74774285D01*
X49625171Y-74926666D01*
X49625171Y-75117142D01*
X49587076Y-75269523D01*
X49548980Y-75345714D01*
X49510885Y-75383809D01*
X49434695Y-75421904D01*
X49358504Y-75421904D01*
X49282314Y-75383809D01*
X49244219Y-75345714D01*
X49206123Y-75269523D01*
X49168028Y-75117142D01*
X49168028Y-74926666D01*
X49206123Y-74774285D01*
X49244219Y-74698095D01*
X49282314Y-74660000D01*
X49358504Y-74621904D01*
X48406123Y-56371904D02*
X48406123Y-55571904D01*
X48596600Y-55571904D01*
X48710885Y-55610000D01*
X48787076Y-55686190D01*
X48825171Y-55762380D01*
X48863266Y-55914761D01*
X48863266Y-56029047D01*
X48825171Y-56181428D01*
X48787076Y-56257619D01*
X48710885Y-56333809D01*
X48596600Y-56371904D01*
X48406123Y-56371904D01*
X49358504Y-55571904D02*
X49434695Y-55571904D01*
X49510885Y-55610000D01*
X49548980Y-55648095D01*
X49587076Y-55724285D01*
X49625171Y-55876666D01*
X49625171Y-56067142D01*
X49587076Y-56219523D01*
X49548980Y-56295714D01*
X49510885Y-56333809D01*
X49434695Y-56371904D01*
X49358504Y-56371904D01*
X49282314Y-56333809D01*
X49244219Y-56295714D01*
X49206123Y-56219523D01*
X49168028Y-56067142D01*
X49168028Y-55876666D01*
X49206123Y-55724285D01*
X49244219Y-55648095D01*
X49282314Y-55610000D01*
X49358504Y-55571904D01*
G04 #@! TD*
M02*
