M48
; DRILL file {KiCad 5.1.9} date Mon Jan 25 17:48:57 2021
; FORMAT={-:-/ absolute / inch / decimal}
; #@! TF.CreationDate,2021-01-25T17:48:57-06:00
; #@! TF.GenerationSoftware,Kicad,Pcbnew,5.1.9
FMAT,2
INCH
T1C0.0157
T2C0.0394
T3C0.0430
T4C0.0472
T5C0.0492
T6C0.0590
T7C0.0596
T8C0.0354
T9C0.0670
T10C0.0709
T11C0.1890
%
G90
G05
T1
X4.0973Y-2.1027
X4.1082Y-2.2818
X5.028Y-3.193
X7.0923Y-5.3477
X7.1056Y-5.2444
T2
X3.7465Y-3.03
X3.7565Y-3.78
X3.7565Y-4.53
X3.7565Y-4.64
X4.0535Y-3.03
X4.0635Y-3.78
X4.0635Y-4.53
X4.0635Y-4.64
X4.5016Y-4.64
X4.5065Y-2.93
X4.5065Y-3.68
X4.5065Y-4.43
X4.8087Y-4.64
X4.8135Y-2.93
X4.8135Y-3.68
X4.8135Y-4.43
X5.058Y-4.455
X5.058Y-4.555
X5.2565Y-2.88
X5.2565Y-3.63
X5.2565Y-4.38
X5.2565Y-4.64
X5.5635Y-2.88
X5.5635Y-3.63
X5.5635Y-4.38
X5.5635Y-4.64
X5.9965Y-4.33
X5.9965Y-4.64
X6.0065Y-3.57
X6.0165Y-2.82
X6.3035Y-4.33
X6.3035Y-4.64
X6.3135Y-3.57
X6.3235Y-2.82
X6.7465Y-4.64
X6.7565Y-3.62
X6.7565Y-4.38
X6.7613Y-2.87
X7.0535Y-4.64
X7.0635Y-3.62
X7.0635Y-4.38
X7.0684Y-2.87
X7.4965Y-4.64
X7.5013Y-4.47
X7.5065Y-2.97
X7.5113Y-3.72
X7.8035Y-4.64
X7.8084Y-4.47
X7.8135Y-2.97
X7.8184Y-3.72
T3
X4.36Y-2.15
X4.36Y-2.25
X4.36Y-2.35
X4.36Y-2.45
X4.36Y-2.55
X4.36Y-2.65
X4.36Y-2.75
X4.36Y-2.85
X4.36Y-2.95
X4.36Y-3.05
X4.36Y-3.15
X4.36Y-3.25
X4.96Y-2.15
X4.96Y-2.25
X4.96Y-2.35
X4.96Y-2.45
X4.96Y-2.55
X4.96Y-2.65
X4.96Y-2.75
X4.96Y-2.85
X4.96Y-2.95
X4.96Y-3.05
X4.96Y-3.15
X4.96Y-3.25
T4
X3.7005Y-4.0436
X3.7008Y-2.5436
X3.7008Y-3.2936
X3.7008Y-4.7936
X3.7032Y-4.0121
X3.7035Y-2.5121
X3.7035Y-3.2621
X3.7035Y-4.7621
X3.7091Y-4.3586
X3.7094Y-2.8586
X3.7094Y-3.6086
X3.7094Y-5.1086
X3.906Y-4.4413
X3.9063Y-2.9413
X3.9063Y-3.6913
X3.9063Y-5.1913
X4.1029Y-4.3586
X4.1031Y-2.8586
X4.1031Y-3.6086
X4.1031Y-5.1086
X4.1088Y-4.0121
X4.1091Y-2.5121
X4.1091Y-3.2621
X4.1091Y-4.7621
X4.1115Y-4.0436
X4.1118Y-2.5436
X4.1118Y-3.2936
X4.1118Y-4.7936
X4.4505Y-4.7946
X4.4506Y-2.4432
X4.4506Y-3.1932
X4.4506Y-3.9431
X4.4532Y-4.7631
X4.4534Y-2.4117
X4.4534Y-3.1617
X4.4534Y-3.9116
X4.4591Y-5.1096
X4.4593Y-2.7582
X4.4593Y-3.5081
X4.4593Y-4.2581
X4.656Y-5.1923
X4.6561Y-2.8409
X4.6561Y-3.5908
X4.6561Y-4.3407
X4.8529Y-5.1096
X4.853Y-2.7582
X4.853Y-3.5081
X4.853Y-4.2581
X4.8588Y-4.7631
X4.8589Y-2.4117
X4.8589Y-3.1617
X4.8589Y-3.9116
X4.8615Y-4.7946
X4.8616Y-2.4432
X4.8616Y-3.1932
X4.8616Y-3.9431
X5.2007Y-2.3947
X5.2007Y-3.1448
X5.2007Y-3.8948
X5.2007Y-4.7948
X5.2035Y-2.3632
X5.2035Y-3.1133
X5.2035Y-3.8633
X5.2035Y-4.7633
X5.2094Y-2.7096
X5.2094Y-3.4598
X5.2094Y-4.2098
X5.2094Y-5.1098
X5.4062Y-2.7923
X5.4062Y-3.5425
X5.4062Y-4.2925
X5.4062Y-5.1925
X5.6031Y-2.7096
X5.6031Y-3.4598
X5.6031Y-4.2098
X5.6031Y-5.1098
X5.609Y-2.3632
X5.609Y-3.1133
X5.609Y-3.8633
X5.609Y-4.7633
X5.6117Y-2.3947
X5.6117Y-3.1448
X5.6117Y-3.8948
X5.6117Y-4.7948
X5.9507Y-2.3348
X5.9507Y-3.0848
X5.9507Y-3.8348
X5.9507Y-4.7948
X5.9535Y-2.3033
X5.9535Y-3.0533
X5.9535Y-3.8033
X5.9535Y-4.7633
X5.9594Y-2.6498
X5.9594Y-3.3998
X5.9594Y-4.1498
X5.9594Y-5.1098
X6.1562Y-2.7325
X6.1562Y-3.4825
X6.1562Y-4.2325
X6.1562Y-5.1925
X6.3531Y-2.6498
X6.3531Y-3.3998
X6.3531Y-4.1498
X6.3531Y-5.1098
X6.359Y-2.3033
X6.359Y-3.0533
X6.359Y-3.8033
X6.359Y-4.7633
X6.3617Y-2.3348
X6.3617Y-3.0848
X6.3617Y-3.8348
X6.3617Y-4.7948
X6.7007Y-2.3848
X6.7007Y-3.1348
X6.7007Y-3.8848
X6.7007Y-4.7948
X6.7035Y-2.3533
X6.7035Y-3.1033
X6.7035Y-3.8533
X6.7035Y-4.7633
X6.7094Y-2.6998
X6.7094Y-3.4498
X6.7094Y-4.1998
X6.7094Y-5.1098
X6.9062Y-2.7825
X6.9062Y-3.5325
X6.9062Y-4.2825
X6.9062Y-5.1925
X7.1031Y-2.6998
X7.1031Y-3.4498
X7.1031Y-4.1998
X7.1031Y-5.1098
X7.109Y-2.3533
X7.109Y-3.1033
X7.109Y-3.8533
X7.109Y-4.7633
X7.1117Y-2.3848
X7.1117Y-3.1348
X7.1117Y-3.8848
X7.1117Y-4.7948
X7.4507Y-2.4848
X7.4507Y-3.2348
X7.4507Y-3.9848
X7.4507Y-4.7948
X7.4535Y-2.4533
X7.4535Y-3.2033
X7.4535Y-3.9533
X7.4535Y-4.7633
X7.4594Y-2.7998
X7.4594Y-3.5498
X7.4594Y-4.2998
X7.4594Y-5.1098
X7.6562Y-2.8825
X7.6562Y-3.6325
X7.6562Y-4.3825
X7.6562Y-5.1925
X7.8531Y-2.7998
X7.8531Y-3.5498
X7.8531Y-4.2998
X7.8531Y-5.1098
X7.859Y-2.4533
X7.859Y-3.2033
X7.859Y-3.9533
X7.859Y-4.7633
X7.8617Y-2.4848
X7.8617Y-3.2348
X7.8617Y-3.9848
X7.8617Y-4.7948
T5
X3.856Y-4.0149
X3.8563Y-2.5149
X3.8563Y-3.2649
X3.8563Y-4.7649
X3.9544Y-4.0129
X3.9547Y-2.5129
X3.9547Y-3.2629
X3.9547Y-4.7629
X4.606Y-4.7659
X4.6061Y-2.4145
X4.6061Y-3.1644
X4.6061Y-3.9144
X4.7044Y-4.7639
X4.7045Y-2.4125
X4.7045Y-3.1625
X4.7045Y-3.9124
X5.3562Y-2.3659
X5.3562Y-3.1161
X5.3562Y-3.8661
X5.3562Y-4.7661
X5.4547Y-2.3639
X5.4547Y-3.1141
X5.4547Y-3.8641
X5.4547Y-4.7641
X6.1062Y-2.3061
X6.1062Y-3.0561
X6.1062Y-3.8061
X6.1062Y-4.7661
X6.2047Y-2.3041
X6.2047Y-3.0541
X6.2047Y-3.8041
X6.2047Y-4.7641
X6.8562Y-2.3561
X6.8562Y-3.1061
X6.8562Y-3.8561
X6.8562Y-4.7661
X6.9547Y-2.3541
X6.9547Y-3.1041
X6.9547Y-3.8541
X6.9547Y-4.7641
X7.6062Y-2.4561
X7.6062Y-3.2061
X7.6062Y-3.9561
X7.6062Y-4.7661
X7.7047Y-2.4541
X7.7047Y-3.2041
X7.7047Y-3.9541
X7.7047Y-4.7641
T6
X3.756Y-4.309
X3.7563Y-2.809
X3.7563Y-3.559
X3.7563Y-5.059
X4.056Y-4.309
X4.0563Y-2.809
X4.0563Y-3.559
X4.0563Y-5.059
X4.506Y-5.06
X4.5061Y-2.7086
X4.5061Y-3.4585
X4.5061Y-4.2085
X4.806Y-5.06
X4.8061Y-2.7086
X4.8061Y-3.4585
X4.8061Y-4.2085
X5.2562Y-2.66
X5.2562Y-3.4102
X5.2562Y-4.1602
X5.2562Y-5.0602
X5.5562Y-2.66
X5.5562Y-3.4102
X5.5562Y-4.1602
X5.5562Y-5.0602
X6.0062Y-2.6002
X6.0062Y-3.3502
X6.0062Y-4.1002
X6.0062Y-5.0602
X6.3062Y-2.6002
X6.3062Y-3.3502
X6.3062Y-4.1002
X6.3062Y-5.0602
X6.7562Y-2.6502
X6.7562Y-3.4002
X6.7562Y-4.1502
X6.7562Y-5.0602
X7.0562Y-2.6502
X7.0562Y-3.4002
X7.0562Y-4.1502
X7.0562Y-5.0602
X7.5062Y-2.7502
X7.5062Y-3.5002
X7.5062Y-4.2502
X7.5062Y-5.0602
X7.8062Y-2.7502
X7.8062Y-3.5002
X7.8062Y-4.2502
X7.8062Y-5.0602
T8
X7.2299Y-5.356
X7.2309Y-5.355
X7.3481Y-5.356
X7.3491Y-5.355
T9
X3.706Y-4.209
X3.7063Y-2.709
X3.7063Y-3.459
X3.7063Y-4.959
X4.106Y-4.209
X4.1063Y-2.709
X4.1063Y-3.459
X4.1063Y-4.959
X4.456Y-4.96
X4.4561Y-2.6086
X4.4561Y-3.3585
X4.4561Y-4.1085
X4.856Y-4.96
X4.8561Y-2.6086
X4.8561Y-3.3585
X4.8561Y-4.1085
X5.2062Y-2.56
X5.2062Y-3.3102
X5.2062Y-4.0602
X5.2062Y-4.9602
X5.6062Y-2.56
X5.6062Y-3.3102
X5.6062Y-4.0602
X5.6062Y-4.9602
X5.9562Y-2.5002
X5.9562Y-3.2502
X5.9562Y-4.0002
X5.9562Y-4.9602
X6.3562Y-2.5002
X6.3562Y-3.2502
X6.3562Y-4.0002
X6.3562Y-4.9602
X6.7062Y-2.5502
X6.7062Y-3.3002
X6.7062Y-4.0502
X6.7062Y-4.9602
X7.1062Y-2.5502
X7.1062Y-3.3002
X7.1062Y-4.0502
X7.1062Y-4.9602
X7.4562Y-2.6502
X7.4562Y-3.4002
X7.4562Y-4.1502
X7.4562Y-4.9602
X7.8562Y-2.6502
X7.8562Y-3.4002
X7.8562Y-4.1502
X7.8562Y-4.9602
T10
X3.6895Y-4.209
X3.6898Y-2.709
X3.6898Y-3.459
X3.6898Y-4.959
X4.1225Y-4.209
X4.1228Y-2.709
X4.1228Y-3.459
X4.1228Y-4.959
X4.4395Y-4.96
X4.4396Y-2.6086
X4.4396Y-3.3585
X4.4396Y-4.1085
X4.8725Y-4.96
X4.8726Y-2.6086
X4.8726Y-3.3585
X4.8726Y-4.1085
X5.1897Y-2.56
X5.1897Y-3.3102
X5.1897Y-4.0602
X5.1897Y-4.9602
X5.6228Y-2.56
X5.6228Y-3.3102
X5.6228Y-4.0602
X5.6228Y-4.9602
X5.9397Y-2.5002
X5.9397Y-3.2502
X5.9397Y-4.0002
X5.9397Y-4.9602
X6.3728Y-2.5002
X6.3728Y-3.2502
X6.3728Y-4.0002
X6.3728Y-4.9602
X6.6897Y-2.5502
X6.6897Y-3.3002
X6.6897Y-4.0502
X6.6897Y-4.9602
X7.1228Y-2.5502
X7.1228Y-3.3002
X7.1228Y-4.0502
X7.1228Y-4.9602
X7.4397Y-2.6502
X7.4397Y-3.4002
X7.4397Y-4.1502
X7.4397Y-4.9602
X7.8728Y-2.6502
X7.8728Y-3.4002
X7.8728Y-4.1502
X7.8728Y-4.9602
T11
X3.906Y-4.209
X3.9063Y-2.709
X3.9063Y-3.459
X3.9063Y-4.959
X4.656Y-4.96
X4.6561Y-2.6086
X4.6561Y-3.3585
X4.6561Y-4.1085
X5.4062Y-2.56
X5.4062Y-3.3102
X5.4062Y-4.0602
X5.4062Y-4.9602
X6.1562Y-2.5002
X6.1562Y-3.2502
X6.1562Y-4.0002
X6.1562Y-4.9602
X6.9062Y-2.5502
X6.9062Y-3.3002
X6.9062Y-4.0502
X6.9062Y-4.9602
X7.6562Y-2.6502
X7.6562Y-3.4002
X7.6562Y-4.1502
X7.6562Y-4.9602
T7
G00X3.8068Y-4.4066
M15
G01X3.8068Y-4.3658
M16
G05
G00X3.8071Y-2.9066
M15
G01X3.8071Y-2.8658
M16
G05
G00X3.8071Y-3.6566
M15
G01X3.8071Y-3.6158
M16
G05
G00X3.8071Y-5.1566
M15
G01X3.8071Y-5.1158
M16
G05
G00X4.0052Y-4.4066
M15
G01X4.0052Y-4.3658
M16
G05
G00X4.0055Y-2.9066
M15
G01X4.0055Y-2.8658
M16
G05
G00X4.0055Y-3.6566
M15
G01X4.0055Y-3.6158
M16
G05
G00X4.0055Y-5.1566
M15
G01X4.0055Y-5.1158
M16
G05
G00X4.5568Y-5.1576
M15
G01X4.5568Y-5.1168
M16
G05
G00X4.5569Y-2.8062
M15
G01X4.5569Y-2.7653
M16
G05
G00X4.5569Y-3.5561
M15
G01X4.5569Y-3.5153
M16
G05
G00X4.5569Y-4.306
M15
G01X4.5569Y-4.2652
M16
G05
G00X4.7552Y-5.1576
M15
G01X4.7552Y-5.1168
M16
G05
G00X4.7553Y-2.8062
M15
G01X4.7553Y-2.7653
M16
G05
G00X4.7553Y-3.5561
M15
G01X4.7553Y-3.5153
M16
G05
G00X4.7553Y-4.306
M15
G01X4.7553Y-4.2652
M16
G05
G00X5.307Y-2.7576
M15
G01X5.307Y-2.7168
M16
G05
G00X5.307Y-3.5077
M15
G01X5.307Y-3.4669
M16
G05
G00X5.307Y-4.2577
M15
G01X5.307Y-4.2169
M16
G05
G00X5.307Y-5.1577
M15
G01X5.307Y-5.1169
M16
G05
G00X5.5054Y-2.7576
M15
G01X5.5054Y-2.7168
M16
G05
G00X5.5054Y-3.5077
M15
G01X5.5054Y-3.4669
M16
G05
G00X5.5054Y-4.2577
M15
G01X5.5054Y-4.2169
M16
G05
G00X5.5054Y-5.1577
M15
G01X5.5054Y-5.1169
M16
G05
G00X6.057Y-2.6977
M15
G01X6.057Y-2.6569
M16
G05
G00X6.057Y-3.4477
M15
G01X6.057Y-3.4069
M16
G05
G00X6.057Y-4.1977
M15
G01X6.057Y-4.1569
M16
G05
G00X6.057Y-5.1577
M15
G01X6.057Y-5.1169
M16
G05
G00X6.2554Y-2.6977
M15
G01X6.2554Y-2.6569
M16
G05
G00X6.2554Y-3.4477
M15
G01X6.2554Y-3.4069
M16
G05
G00X6.2554Y-4.1977
M15
G01X6.2554Y-4.1569
M16
G05
G00X6.2554Y-5.1577
M15
G01X6.2554Y-5.1169
M16
G05
G00X6.807Y-2.7477
M15
G01X6.807Y-2.7069
M16
G05
G00X6.807Y-3.4977
M15
G01X6.807Y-3.4569
M16
G05
G00X6.807Y-4.2477
M15
G01X6.807Y-4.2069
M16
G05
G00X6.807Y-5.1577
M15
G01X6.807Y-5.1169
M16
G05
G00X7.0054Y-2.7477
M15
G01X7.0054Y-2.7069
M16
G05
G00X7.0054Y-3.4977
M15
G01X7.0054Y-3.4569
M16
G05
G00X7.0054Y-4.2477
M15
G01X7.0054Y-4.2069
M16
G05
G00X7.0054Y-5.1577
M15
G01X7.0054Y-5.1169
M16
G05
G00X7.557Y-2.8477
M15
G01X7.557Y-2.8069
M16
G05
G00X7.557Y-3.5977
M15
G01X7.557Y-3.5569
M16
G05
G00X7.557Y-4.3477
M15
G01X7.557Y-4.3069
M16
G05
G00X7.557Y-5.1577
M15
G01X7.557Y-5.1169
M16
G05
G00X7.7554Y-2.8477
M15
G01X7.7554Y-2.8069
M16
G05
G00X7.7554Y-3.5977
M15
G01X7.7554Y-3.5569
M16
G05
G00X7.7554Y-4.3477
M15
G01X7.7554Y-4.3069
M16
G05
G00X7.7554Y-5.1577
M15
G01X7.7554Y-5.1169
M16
G05
T0
M30
