G04 #@! TF.GenerationSoftware,KiCad,Pcbnew,5.1.9*
G04 #@! TF.CreationDate,2021-01-25T17:48:52-06:00*
G04 #@! TF.ProjectId,halfboard,68616c66-626f-4617-9264-2e6b69636164,rev?*
G04 #@! TF.SameCoordinates,Original*
G04 #@! TF.FileFunction,Other,ECO2*
%FSLAX46Y46*%
G04 Gerber Fmt 4.6, Leading zero omitted, Abs format (unit mm)*
G04 Created by KiCad (PCBNEW 5.1.9) date 2021-01-25 17:48:52*
%MOMM*%
%LPD*%
G01*
G04 APERTURE LIST*
%ADD10C,0.152400*%
G04 APERTURE END LIST*
D10*
G04 #@! TO.C,SW24*
X201453303Y-131992890D02*
X201453303Y-132973330D01*
X202266103Y-131992890D02*
X201453303Y-131992890D01*
X202266103Y-128492770D02*
X202266103Y-131992890D01*
X201453303Y-128492770D02*
X202266103Y-128492770D01*
X201453303Y-123483890D02*
X201453303Y-128492770D01*
X202266103Y-123483890D02*
X201453303Y-123483890D01*
X202266103Y-119983770D02*
X202266103Y-123483890D01*
X201453303Y-119983770D02*
X202266103Y-119983770D01*
X201453303Y-119003330D02*
X201453303Y-119983770D01*
X187483303Y-119003330D02*
X201453303Y-119003330D01*
X187483303Y-119983770D02*
X187483303Y-119003330D01*
X186670503Y-119983770D02*
X187483303Y-119983770D01*
X186670503Y-123483890D02*
X186670503Y-119983770D01*
X187483303Y-123483890D02*
X186670503Y-123483890D01*
X187483303Y-128492770D02*
X187483303Y-123483890D01*
X186670503Y-128492770D02*
X187483303Y-128492770D01*
X186670503Y-131992890D02*
X186670503Y-128492770D01*
X187483303Y-131992890D02*
X186670503Y-131992890D01*
X187483303Y-132973330D02*
X187483303Y-131992890D01*
X201453303Y-132973330D02*
X187483303Y-132973330D01*
G04 #@! TO.C,SW23*
X182403303Y-131992890D02*
X182403303Y-132973330D01*
X183216103Y-131992890D02*
X182403303Y-131992890D01*
X183216103Y-128492770D02*
X183216103Y-131992890D01*
X182403303Y-128492770D02*
X183216103Y-128492770D01*
X182403303Y-123483890D02*
X182403303Y-128492770D01*
X183216103Y-123483890D02*
X182403303Y-123483890D01*
X183216103Y-119983770D02*
X183216103Y-123483890D01*
X182403303Y-119983770D02*
X183216103Y-119983770D01*
X182403303Y-119003330D02*
X182403303Y-119983770D01*
X168433303Y-119003330D02*
X182403303Y-119003330D01*
X168433303Y-119983770D02*
X168433303Y-119003330D01*
X167620503Y-119983770D02*
X168433303Y-119983770D01*
X167620503Y-123483890D02*
X167620503Y-119983770D01*
X168433303Y-123483890D02*
X167620503Y-123483890D01*
X168433303Y-128492770D02*
X168433303Y-123483890D01*
X167620503Y-128492770D02*
X168433303Y-128492770D01*
X167620503Y-131992890D02*
X167620503Y-128492770D01*
X168433303Y-131992890D02*
X167620503Y-131992890D01*
X168433303Y-132973330D02*
X168433303Y-131992890D01*
X182403303Y-132973330D02*
X168433303Y-132973330D01*
G04 #@! TO.C,SW22*
X163353303Y-131992890D02*
X163353303Y-132973330D01*
X164166103Y-131992890D02*
X163353303Y-131992890D01*
X164166103Y-128492770D02*
X164166103Y-131992890D01*
X163353303Y-128492770D02*
X164166103Y-128492770D01*
X163353303Y-123483890D02*
X163353303Y-128492770D01*
X164166103Y-123483890D02*
X163353303Y-123483890D01*
X164166103Y-119983770D02*
X164166103Y-123483890D01*
X163353303Y-119983770D02*
X164166103Y-119983770D01*
X163353303Y-119003330D02*
X163353303Y-119983770D01*
X149383303Y-119003330D02*
X163353303Y-119003330D01*
X149383303Y-119983770D02*
X149383303Y-119003330D01*
X148570503Y-119983770D02*
X149383303Y-119983770D01*
X148570503Y-123483890D02*
X148570503Y-119983770D01*
X149383303Y-123483890D02*
X148570503Y-123483890D01*
X149383303Y-128492770D02*
X149383303Y-123483890D01*
X148570503Y-128492770D02*
X149383303Y-128492770D01*
X148570503Y-131992890D02*
X148570503Y-128492770D01*
X149383303Y-131992890D02*
X148570503Y-131992890D01*
X149383303Y-132973330D02*
X149383303Y-131992890D01*
X163353303Y-132973330D02*
X149383303Y-132973330D01*
G04 #@! TO.C,SW21*
X144303303Y-131992890D02*
X144303303Y-132973330D01*
X145116103Y-131992890D02*
X144303303Y-131992890D01*
X145116103Y-128492770D02*
X145116103Y-131992890D01*
X144303303Y-128492770D02*
X145116103Y-128492770D01*
X144303303Y-123483890D02*
X144303303Y-128492770D01*
X145116103Y-123483890D02*
X144303303Y-123483890D01*
X145116103Y-119983770D02*
X145116103Y-123483890D01*
X144303303Y-119983770D02*
X145116103Y-119983770D01*
X144303303Y-119003330D02*
X144303303Y-119983770D01*
X130333303Y-119003330D02*
X144303303Y-119003330D01*
X130333303Y-119983770D02*
X130333303Y-119003330D01*
X129520503Y-119983770D02*
X130333303Y-119983770D01*
X129520503Y-123483890D02*
X129520503Y-119983770D01*
X130333303Y-123483890D02*
X129520503Y-123483890D01*
X130333303Y-128492770D02*
X130333303Y-123483890D01*
X129520503Y-128492770D02*
X130333303Y-128492770D01*
X129520503Y-131992890D02*
X129520503Y-128492770D01*
X130333303Y-131992890D02*
X129520503Y-131992890D01*
X130333303Y-132973330D02*
X130333303Y-131992890D01*
X144303303Y-132973330D02*
X130333303Y-132973330D01*
G04 #@! TO.C,SW20*
X125247400Y-131988560D02*
X125247400Y-132969000D01*
X126060200Y-131988560D02*
X125247400Y-131988560D01*
X126060200Y-128488440D02*
X126060200Y-131988560D01*
X125247400Y-128488440D02*
X126060200Y-128488440D01*
X125247400Y-123479560D02*
X125247400Y-128488440D01*
X126060200Y-123479560D02*
X125247400Y-123479560D01*
X126060200Y-119979440D02*
X126060200Y-123479560D01*
X125247400Y-119979440D02*
X126060200Y-119979440D01*
X125247400Y-118999000D02*
X125247400Y-119979440D01*
X111277400Y-118999000D02*
X125247400Y-118999000D01*
X111277400Y-119979440D02*
X111277400Y-118999000D01*
X110464600Y-119979440D02*
X111277400Y-119979440D01*
X110464600Y-123479560D02*
X110464600Y-119979440D01*
X111277400Y-123479560D02*
X110464600Y-123479560D01*
X111277400Y-128488440D02*
X111277400Y-123479560D01*
X110464600Y-128488440D02*
X111277400Y-128488440D01*
X110464600Y-131988560D02*
X110464600Y-128488440D01*
X111277400Y-131988560D02*
X110464600Y-131988560D01*
X111277400Y-132969000D02*
X111277400Y-131988560D01*
X125247400Y-132969000D02*
X111277400Y-132969000D01*
G04 #@! TO.C,SW19*
X106205000Y-131963160D02*
X106205000Y-132943600D01*
X107017800Y-131963160D02*
X106205000Y-131963160D01*
X107017800Y-128463040D02*
X107017800Y-131963160D01*
X106205000Y-128463040D02*
X107017800Y-128463040D01*
X106205000Y-123454160D02*
X106205000Y-128463040D01*
X107017800Y-123454160D02*
X106205000Y-123454160D01*
X107017800Y-119954040D02*
X107017800Y-123454160D01*
X106205000Y-119954040D02*
X107017800Y-119954040D01*
X106205000Y-118973600D02*
X106205000Y-119954040D01*
X92235000Y-118973600D02*
X106205000Y-118973600D01*
X92235000Y-119954040D02*
X92235000Y-118973600D01*
X91422200Y-119954040D02*
X92235000Y-119954040D01*
X91422200Y-123454160D02*
X91422200Y-119954040D01*
X92235000Y-123454160D02*
X91422200Y-123454160D01*
X92235000Y-128463040D02*
X92235000Y-123454160D01*
X91422200Y-128463040D02*
X92235000Y-128463040D01*
X91422200Y-131963160D02*
X91422200Y-128463040D01*
X92235000Y-131963160D02*
X91422200Y-131963160D01*
X92235000Y-132943600D02*
X92235000Y-131963160D01*
X106205000Y-132943600D02*
X92235000Y-132943600D01*
G04 #@! TO.C,SW18*
X201453303Y-111418890D02*
X201453303Y-112399330D01*
X202266103Y-111418890D02*
X201453303Y-111418890D01*
X202266103Y-107918770D02*
X202266103Y-111418890D01*
X201453303Y-107918770D02*
X202266103Y-107918770D01*
X201453303Y-102909890D02*
X201453303Y-107918770D01*
X202266103Y-102909890D02*
X201453303Y-102909890D01*
X202266103Y-99409770D02*
X202266103Y-102909890D01*
X201453303Y-99409770D02*
X202266103Y-99409770D01*
X201453303Y-98429330D02*
X201453303Y-99409770D01*
X187483303Y-98429330D02*
X201453303Y-98429330D01*
X187483303Y-99409770D02*
X187483303Y-98429330D01*
X186670503Y-99409770D02*
X187483303Y-99409770D01*
X186670503Y-102909890D02*
X186670503Y-99409770D01*
X187483303Y-102909890D02*
X186670503Y-102909890D01*
X187483303Y-107918770D02*
X187483303Y-102909890D01*
X186670503Y-107918770D02*
X187483303Y-107918770D01*
X186670503Y-111418890D02*
X186670503Y-107918770D01*
X187483303Y-111418890D02*
X186670503Y-111418890D01*
X187483303Y-112399330D02*
X187483303Y-111418890D01*
X201453303Y-112399330D02*
X187483303Y-112399330D01*
G04 #@! TO.C,SW17*
X182403303Y-108878890D02*
X182403303Y-109859330D01*
X183216103Y-108878890D02*
X182403303Y-108878890D01*
X183216103Y-105378770D02*
X183216103Y-108878890D01*
X182403303Y-105378770D02*
X183216103Y-105378770D01*
X182403303Y-100369890D02*
X182403303Y-105378770D01*
X183216103Y-100369890D02*
X182403303Y-100369890D01*
X183216103Y-96869770D02*
X183216103Y-100369890D01*
X182403303Y-96869770D02*
X183216103Y-96869770D01*
X182403303Y-95889330D02*
X182403303Y-96869770D01*
X168433303Y-95889330D02*
X182403303Y-95889330D01*
X168433303Y-96869770D02*
X168433303Y-95889330D01*
X167620503Y-96869770D02*
X168433303Y-96869770D01*
X167620503Y-100369890D02*
X167620503Y-96869770D01*
X168433303Y-100369890D02*
X167620503Y-100369890D01*
X168433303Y-105378770D02*
X168433303Y-100369890D01*
X167620503Y-105378770D02*
X168433303Y-105378770D01*
X167620503Y-108878890D02*
X167620503Y-105378770D01*
X168433303Y-108878890D02*
X167620503Y-108878890D01*
X168433303Y-109859330D02*
X168433303Y-108878890D01*
X182403303Y-109859330D02*
X168433303Y-109859330D01*
G04 #@! TO.C,SW16*
X163353303Y-107608890D02*
X163353303Y-108589330D01*
X164166103Y-107608890D02*
X163353303Y-107608890D01*
X164166103Y-104108770D02*
X164166103Y-107608890D01*
X163353303Y-104108770D02*
X164166103Y-104108770D01*
X163353303Y-99099890D02*
X163353303Y-104108770D01*
X164166103Y-99099890D02*
X163353303Y-99099890D01*
X164166103Y-95599770D02*
X164166103Y-99099890D01*
X163353303Y-95599770D02*
X164166103Y-95599770D01*
X163353303Y-94619330D02*
X163353303Y-95599770D01*
X149383303Y-94619330D02*
X163353303Y-94619330D01*
X149383303Y-95599770D02*
X149383303Y-94619330D01*
X148570503Y-95599770D02*
X149383303Y-95599770D01*
X148570503Y-99099890D02*
X148570503Y-95599770D01*
X149383303Y-99099890D02*
X148570503Y-99099890D01*
X149383303Y-104108770D02*
X149383303Y-99099890D01*
X148570503Y-104108770D02*
X149383303Y-104108770D01*
X148570503Y-107608890D02*
X148570503Y-104108770D01*
X149383303Y-107608890D02*
X148570503Y-107608890D01*
X149383303Y-108589330D02*
X149383303Y-107608890D01*
X163353303Y-108589330D02*
X149383303Y-108589330D01*
G04 #@! TO.C,SW15*
X144303303Y-109132890D02*
X144303303Y-110113330D01*
X145116103Y-109132890D02*
X144303303Y-109132890D01*
X145116103Y-105632770D02*
X145116103Y-109132890D01*
X144303303Y-105632770D02*
X145116103Y-105632770D01*
X144303303Y-100623890D02*
X144303303Y-105632770D01*
X145116103Y-100623890D02*
X144303303Y-100623890D01*
X145116103Y-97123770D02*
X145116103Y-100623890D01*
X144303303Y-97123770D02*
X145116103Y-97123770D01*
X144303303Y-96143330D02*
X144303303Y-97123770D01*
X130333303Y-96143330D02*
X144303303Y-96143330D01*
X130333303Y-97123770D02*
X130333303Y-96143330D01*
X129520503Y-97123770D02*
X130333303Y-97123770D01*
X129520503Y-100623890D02*
X129520503Y-97123770D01*
X130333303Y-100623890D02*
X129520503Y-100623890D01*
X130333303Y-105632770D02*
X130333303Y-100623890D01*
X129520503Y-105632770D02*
X130333303Y-105632770D01*
X129520503Y-109132890D02*
X129520503Y-105632770D01*
X130333303Y-109132890D02*
X129520503Y-109132890D01*
X130333303Y-110113330D02*
X130333303Y-109132890D01*
X144303303Y-110113330D02*
X130333303Y-110113330D01*
G04 #@! TO.C,SW14*
X125250231Y-110359390D02*
X125250231Y-111339830D01*
X126063031Y-110359390D02*
X125250231Y-110359390D01*
X126063031Y-106859270D02*
X126063031Y-110359390D01*
X125250231Y-106859270D02*
X126063031Y-106859270D01*
X125250231Y-101850390D02*
X125250231Y-106859270D01*
X126063031Y-101850390D02*
X125250231Y-101850390D01*
X126063031Y-98350270D02*
X126063031Y-101850390D01*
X125250231Y-98350270D02*
X126063031Y-98350270D01*
X125250231Y-97369830D02*
X125250231Y-98350270D01*
X111280231Y-97369830D02*
X125250231Y-97369830D01*
X111280231Y-98350270D02*
X111280231Y-97369830D01*
X110467431Y-98350270D02*
X111280231Y-98350270D01*
X110467431Y-101850390D02*
X110467431Y-98350270D01*
X111280231Y-101850390D02*
X110467431Y-101850390D01*
X111280231Y-106859270D02*
X111280231Y-101850390D01*
X110467431Y-106859270D02*
X111280231Y-106859270D01*
X110467431Y-110359390D02*
X110467431Y-106859270D01*
X111280231Y-110359390D02*
X110467431Y-110359390D01*
X111280231Y-111339830D02*
X111280231Y-110359390D01*
X125250231Y-111339830D02*
X111280231Y-111339830D01*
G04 #@! TO.C,SW13*
X106197400Y-112913160D02*
X106197400Y-113893600D01*
X107010200Y-112913160D02*
X106197400Y-112913160D01*
X107010200Y-109413040D02*
X107010200Y-112913160D01*
X106197400Y-109413040D02*
X107010200Y-109413040D01*
X106197400Y-104404160D02*
X106197400Y-109413040D01*
X107010200Y-104404160D02*
X106197400Y-104404160D01*
X107010200Y-100904040D02*
X107010200Y-104404160D01*
X106197400Y-100904040D02*
X107010200Y-100904040D01*
X106197400Y-99923600D02*
X106197400Y-100904040D01*
X92227400Y-99923600D02*
X106197400Y-99923600D01*
X92227400Y-100904040D02*
X92227400Y-99923600D01*
X91414600Y-100904040D02*
X92227400Y-100904040D01*
X91414600Y-104404160D02*
X91414600Y-100904040D01*
X92227400Y-104404160D02*
X91414600Y-104404160D01*
X92227400Y-109413040D02*
X92227400Y-104404160D01*
X91414600Y-109413040D02*
X92227400Y-109413040D01*
X91414600Y-112913160D02*
X91414600Y-109413040D01*
X92227400Y-112913160D02*
X91414600Y-112913160D01*
X92227400Y-113893600D02*
X92227400Y-112913160D01*
X106197400Y-113893600D02*
X92227400Y-113893600D01*
G04 #@! TO.C,SW12*
X201453303Y-92368890D02*
X201453303Y-93349330D01*
X202266103Y-92368890D02*
X201453303Y-92368890D01*
X202266103Y-88868770D02*
X202266103Y-92368890D01*
X201453303Y-88868770D02*
X202266103Y-88868770D01*
X201453303Y-83859890D02*
X201453303Y-88868770D01*
X202266103Y-83859890D02*
X201453303Y-83859890D01*
X202266103Y-80359770D02*
X202266103Y-83859890D01*
X201453303Y-80359770D02*
X202266103Y-80359770D01*
X201453303Y-79379330D02*
X201453303Y-80359770D01*
X187483303Y-79379330D02*
X201453303Y-79379330D01*
X187483303Y-80359770D02*
X187483303Y-79379330D01*
X186670503Y-80359770D02*
X187483303Y-80359770D01*
X186670503Y-83859890D02*
X186670503Y-80359770D01*
X187483303Y-83859890D02*
X186670503Y-83859890D01*
X187483303Y-88868770D02*
X187483303Y-83859890D01*
X186670503Y-88868770D02*
X187483303Y-88868770D01*
X186670503Y-92368890D02*
X186670503Y-88868770D01*
X187483303Y-92368890D02*
X186670503Y-92368890D01*
X187483303Y-93349330D02*
X187483303Y-92368890D01*
X201453303Y-93349330D02*
X187483303Y-93349330D01*
G04 #@! TO.C,SW11*
X182403303Y-89828890D02*
X182403303Y-90809330D01*
X183216103Y-89828890D02*
X182403303Y-89828890D01*
X183216103Y-86328770D02*
X183216103Y-89828890D01*
X182403303Y-86328770D02*
X183216103Y-86328770D01*
X182403303Y-81319890D02*
X182403303Y-86328770D01*
X183216103Y-81319890D02*
X182403303Y-81319890D01*
X183216103Y-77819770D02*
X183216103Y-81319890D01*
X182403303Y-77819770D02*
X183216103Y-77819770D01*
X182403303Y-76839330D02*
X182403303Y-77819770D01*
X168433303Y-76839330D02*
X182403303Y-76839330D01*
X168433303Y-77819770D02*
X168433303Y-76839330D01*
X167620503Y-77819770D02*
X168433303Y-77819770D01*
X167620503Y-81319890D02*
X167620503Y-77819770D01*
X168433303Y-81319890D02*
X167620503Y-81319890D01*
X168433303Y-86328770D02*
X168433303Y-81319890D01*
X167620503Y-86328770D02*
X168433303Y-86328770D01*
X167620503Y-89828890D02*
X167620503Y-86328770D01*
X168433303Y-89828890D02*
X167620503Y-89828890D01*
X168433303Y-90809330D02*
X168433303Y-89828890D01*
X182403303Y-90809330D02*
X168433303Y-90809330D01*
G04 #@! TO.C,SW10*
X163353303Y-88558890D02*
X163353303Y-89539330D01*
X164166103Y-88558890D02*
X163353303Y-88558890D01*
X164166103Y-85058770D02*
X164166103Y-88558890D01*
X163353303Y-85058770D02*
X164166103Y-85058770D01*
X163353303Y-80049890D02*
X163353303Y-85058770D01*
X164166103Y-80049890D02*
X163353303Y-80049890D01*
X164166103Y-76549770D02*
X164166103Y-80049890D01*
X163353303Y-76549770D02*
X164166103Y-76549770D01*
X163353303Y-75569330D02*
X163353303Y-76549770D01*
X149383303Y-75569330D02*
X163353303Y-75569330D01*
X149383303Y-76549770D02*
X149383303Y-75569330D01*
X148570503Y-76549770D02*
X149383303Y-76549770D01*
X148570503Y-80049890D02*
X148570503Y-76549770D01*
X149383303Y-80049890D02*
X148570503Y-80049890D01*
X149383303Y-85058770D02*
X149383303Y-80049890D01*
X148570503Y-85058770D02*
X149383303Y-85058770D01*
X148570503Y-88558890D02*
X148570503Y-85058770D01*
X149383303Y-88558890D02*
X148570503Y-88558890D01*
X149383303Y-89539330D02*
X149383303Y-88558890D01*
X163353303Y-89539330D02*
X149383303Y-89539330D01*
G04 #@! TO.C,SW9*
X144303303Y-90082890D02*
X144303303Y-91063330D01*
X145116103Y-90082890D02*
X144303303Y-90082890D01*
X145116103Y-86582770D02*
X145116103Y-90082890D01*
X144303303Y-86582770D02*
X145116103Y-86582770D01*
X144303303Y-81573890D02*
X144303303Y-86582770D01*
X145116103Y-81573890D02*
X144303303Y-81573890D01*
X145116103Y-78073770D02*
X145116103Y-81573890D01*
X144303303Y-78073770D02*
X145116103Y-78073770D01*
X144303303Y-77093330D02*
X144303303Y-78073770D01*
X130333303Y-77093330D02*
X144303303Y-77093330D01*
X130333303Y-78073770D02*
X130333303Y-77093330D01*
X129520503Y-78073770D02*
X130333303Y-78073770D01*
X129520503Y-81573890D02*
X129520503Y-78073770D01*
X130333303Y-81573890D02*
X129520503Y-81573890D01*
X130333303Y-86582770D02*
X130333303Y-81573890D01*
X129520503Y-86582770D02*
X130333303Y-86582770D01*
X129520503Y-90082890D02*
X129520503Y-86582770D01*
X130333303Y-90082890D02*
X129520503Y-90082890D01*
X130333303Y-91063330D02*
X130333303Y-90082890D01*
X144303303Y-91063330D02*
X130333303Y-91063330D01*
G04 #@! TO.C,SW8*
X125250231Y-91310989D02*
X125250231Y-92291429D01*
X126063031Y-91310989D02*
X125250231Y-91310989D01*
X126063031Y-87810869D02*
X126063031Y-91310989D01*
X125250231Y-87810869D02*
X126063031Y-87810869D01*
X125250231Y-82801989D02*
X125250231Y-87810869D01*
X126063031Y-82801989D02*
X125250231Y-82801989D01*
X126063031Y-79301869D02*
X126063031Y-82801989D01*
X125250231Y-79301869D02*
X126063031Y-79301869D01*
X125250231Y-78321429D02*
X125250231Y-79301869D01*
X111280231Y-78321429D02*
X125250231Y-78321429D01*
X111280231Y-79301869D02*
X111280231Y-78321429D01*
X110467431Y-79301869D02*
X111280231Y-79301869D01*
X110467431Y-82801989D02*
X110467431Y-79301869D01*
X111280231Y-82801989D02*
X110467431Y-82801989D01*
X111280231Y-87810869D02*
X111280231Y-82801989D01*
X110467431Y-87810869D02*
X111280231Y-87810869D01*
X110467431Y-91310989D02*
X110467431Y-87810869D01*
X111280231Y-91310989D02*
X110467431Y-91310989D01*
X111280231Y-92291429D02*
X111280231Y-91310989D01*
X125250231Y-92291429D02*
X111280231Y-92291429D01*
G04 #@! TO.C,SW7*
X106205000Y-93863160D02*
X106205000Y-94843600D01*
X107017800Y-93863160D02*
X106205000Y-93863160D01*
X107017800Y-90363040D02*
X107017800Y-93863160D01*
X106205000Y-90363040D02*
X107017800Y-90363040D01*
X106205000Y-85354160D02*
X106205000Y-90363040D01*
X107017800Y-85354160D02*
X106205000Y-85354160D01*
X107017800Y-81854040D02*
X107017800Y-85354160D01*
X106205000Y-81854040D02*
X107017800Y-81854040D01*
X106205000Y-80873600D02*
X106205000Y-81854040D01*
X92235000Y-80873600D02*
X106205000Y-80873600D01*
X92235000Y-81854040D02*
X92235000Y-80873600D01*
X91422200Y-81854040D02*
X92235000Y-81854040D01*
X91422200Y-85354160D02*
X91422200Y-81854040D01*
X92235000Y-85354160D02*
X91422200Y-85354160D01*
X92235000Y-90363040D02*
X92235000Y-85354160D01*
X91422200Y-90363040D02*
X92235000Y-90363040D01*
X91422200Y-93863160D02*
X91422200Y-90363040D01*
X92235000Y-93863160D02*
X91422200Y-93863160D01*
X92235000Y-94843600D02*
X92235000Y-93863160D01*
X106205000Y-94843600D02*
X92235000Y-94843600D01*
G04 #@! TO.C,SW6*
X201453303Y-73318890D02*
X201453303Y-74299330D01*
X202266103Y-73318890D02*
X201453303Y-73318890D01*
X202266103Y-69818770D02*
X202266103Y-73318890D01*
X201453303Y-69818770D02*
X202266103Y-69818770D01*
X201453303Y-64809890D02*
X201453303Y-69818770D01*
X202266103Y-64809890D02*
X201453303Y-64809890D01*
X202266103Y-61309770D02*
X202266103Y-64809890D01*
X201453303Y-61309770D02*
X202266103Y-61309770D01*
X201453303Y-60329330D02*
X201453303Y-61309770D01*
X187483303Y-60329330D02*
X201453303Y-60329330D01*
X187483303Y-61309770D02*
X187483303Y-60329330D01*
X186670503Y-61309770D02*
X187483303Y-61309770D01*
X186670503Y-64809890D02*
X186670503Y-61309770D01*
X187483303Y-64809890D02*
X186670503Y-64809890D01*
X187483303Y-69818770D02*
X187483303Y-64809890D01*
X186670503Y-69818770D02*
X187483303Y-69818770D01*
X186670503Y-73318890D02*
X186670503Y-69818770D01*
X187483303Y-73318890D02*
X186670503Y-73318890D01*
X187483303Y-74299330D02*
X187483303Y-73318890D01*
X201453303Y-74299330D02*
X187483303Y-74299330D01*
G04 #@! TO.C,SW5*
X182403303Y-70778890D02*
X182403303Y-71759330D01*
X183216103Y-70778890D02*
X182403303Y-70778890D01*
X183216103Y-67278770D02*
X183216103Y-70778890D01*
X182403303Y-67278770D02*
X183216103Y-67278770D01*
X182403303Y-62269890D02*
X182403303Y-67278770D01*
X183216103Y-62269890D02*
X182403303Y-62269890D01*
X183216103Y-58769770D02*
X183216103Y-62269890D01*
X182403303Y-58769770D02*
X183216103Y-58769770D01*
X182403303Y-57789330D02*
X182403303Y-58769770D01*
X168433303Y-57789330D02*
X182403303Y-57789330D01*
X168433303Y-58769770D02*
X168433303Y-57789330D01*
X167620503Y-58769770D02*
X168433303Y-58769770D01*
X167620503Y-62269890D02*
X167620503Y-58769770D01*
X168433303Y-62269890D02*
X167620503Y-62269890D01*
X168433303Y-67278770D02*
X168433303Y-62269890D01*
X167620503Y-67278770D02*
X168433303Y-67278770D01*
X167620503Y-70778890D02*
X167620503Y-67278770D01*
X168433303Y-70778890D02*
X167620503Y-70778890D01*
X168433303Y-71759330D02*
X168433303Y-70778890D01*
X182403303Y-71759330D02*
X168433303Y-71759330D01*
G04 #@! TO.C,SW4*
X163353303Y-69508890D02*
X163353303Y-70489330D01*
X164166103Y-69508890D02*
X163353303Y-69508890D01*
X164166103Y-66008770D02*
X164166103Y-69508890D01*
X163353303Y-66008770D02*
X164166103Y-66008770D01*
X163353303Y-60999890D02*
X163353303Y-66008770D01*
X164166103Y-60999890D02*
X163353303Y-60999890D01*
X164166103Y-57499770D02*
X164166103Y-60999890D01*
X163353303Y-57499770D02*
X164166103Y-57499770D01*
X163353303Y-56519330D02*
X163353303Y-57499770D01*
X149383303Y-56519330D02*
X163353303Y-56519330D01*
X149383303Y-57499770D02*
X149383303Y-56519330D01*
X148570503Y-57499770D02*
X149383303Y-57499770D01*
X148570503Y-60999890D02*
X148570503Y-57499770D01*
X149383303Y-60999890D02*
X148570503Y-60999890D01*
X149383303Y-66008770D02*
X149383303Y-60999890D01*
X148570503Y-66008770D02*
X149383303Y-66008770D01*
X148570503Y-69508890D02*
X148570503Y-66008770D01*
X149383303Y-69508890D02*
X148570503Y-69508890D01*
X149383303Y-70489330D02*
X149383303Y-69508890D01*
X163353303Y-70489330D02*
X149383303Y-70489330D01*
G04 #@! TO.C,SW3*
X144303303Y-71028890D02*
X144303303Y-72009330D01*
X145116103Y-71028890D02*
X144303303Y-71028890D01*
X145116103Y-67528770D02*
X145116103Y-71028890D01*
X144303303Y-67528770D02*
X145116103Y-67528770D01*
X144303303Y-62519890D02*
X144303303Y-67528770D01*
X145116103Y-62519890D02*
X144303303Y-62519890D01*
X145116103Y-59019770D02*
X145116103Y-62519890D01*
X144303303Y-59019770D02*
X145116103Y-59019770D01*
X144303303Y-58039330D02*
X144303303Y-59019770D01*
X130333303Y-58039330D02*
X144303303Y-58039330D01*
X130333303Y-59019770D02*
X130333303Y-58039330D01*
X129520503Y-59019770D02*
X130333303Y-59019770D01*
X129520503Y-62519890D02*
X129520503Y-59019770D01*
X130333303Y-62519890D02*
X129520503Y-62519890D01*
X130333303Y-67528770D02*
X130333303Y-62519890D01*
X129520503Y-67528770D02*
X130333303Y-67528770D01*
X129520503Y-71028890D02*
X129520503Y-67528770D01*
X130333303Y-71028890D02*
X129520503Y-71028890D01*
X130333303Y-72009330D02*
X130333303Y-71028890D01*
X144303303Y-72009330D02*
X130333303Y-72009330D01*
G04 #@! TO.C,SW2*
X125250231Y-72262890D02*
X125250231Y-73243330D01*
X126063031Y-72262890D02*
X125250231Y-72262890D01*
X126063031Y-68762770D02*
X126063031Y-72262890D01*
X125250231Y-68762770D02*
X126063031Y-68762770D01*
X125250231Y-63753890D02*
X125250231Y-68762770D01*
X126063031Y-63753890D02*
X125250231Y-63753890D01*
X126063031Y-60253770D02*
X126063031Y-63753890D01*
X125250231Y-60253770D02*
X126063031Y-60253770D01*
X125250231Y-59273330D02*
X125250231Y-60253770D01*
X111280231Y-59273330D02*
X125250231Y-59273330D01*
X111280231Y-60253770D02*
X111280231Y-59273330D01*
X110467431Y-60253770D02*
X111280231Y-60253770D01*
X110467431Y-63753890D02*
X110467431Y-60253770D01*
X111280231Y-63753890D02*
X110467431Y-63753890D01*
X111280231Y-68762770D02*
X111280231Y-63753890D01*
X110467431Y-68762770D02*
X111280231Y-68762770D01*
X110467431Y-72262890D02*
X110467431Y-68762770D01*
X111280231Y-72262890D02*
X110467431Y-72262890D01*
X111280231Y-73243330D02*
X111280231Y-72262890D01*
X125250231Y-73243330D02*
X111280231Y-73243330D01*
G04 #@! TO.C,SW1*
X106205000Y-74813160D02*
X106205000Y-75793600D01*
X107017800Y-74813160D02*
X106205000Y-74813160D01*
X107017800Y-71313040D02*
X107017800Y-74813160D01*
X106205000Y-71313040D02*
X107017800Y-71313040D01*
X106205000Y-66304160D02*
X106205000Y-71313040D01*
X107017800Y-66304160D02*
X106205000Y-66304160D01*
X107017800Y-62804040D02*
X107017800Y-66304160D01*
X106205000Y-62804040D02*
X107017800Y-62804040D01*
X106205000Y-61823600D02*
X106205000Y-62804040D01*
X92235000Y-61823600D02*
X106205000Y-61823600D01*
X92235000Y-62804040D02*
X92235000Y-61823600D01*
X91422200Y-62804040D02*
X92235000Y-62804040D01*
X91422200Y-66304160D02*
X91422200Y-62804040D01*
X92235000Y-66304160D02*
X91422200Y-66304160D01*
X92235000Y-71313040D02*
X92235000Y-66304160D01*
X91422200Y-71313040D02*
X92235000Y-71313040D01*
X91422200Y-74813160D02*
X91422200Y-71313040D01*
X92235000Y-74813160D02*
X91422200Y-74813160D01*
X92235000Y-75793600D02*
X92235000Y-74813160D01*
X106205000Y-75793600D02*
X92235000Y-75793600D01*
G04 #@! TO.C, *
X106205000Y-93863160D02*
X106205000Y-94843600D01*
X107017800Y-93863160D02*
X106205000Y-93863160D01*
X107017800Y-90363040D02*
X107017800Y-93863160D01*
X106205000Y-90363040D02*
X107017800Y-90363040D01*
X106205000Y-85354160D02*
X106205000Y-90363040D01*
X107017800Y-85354160D02*
X106205000Y-85354160D01*
X107017800Y-81854040D02*
X107017800Y-85354160D01*
X106205000Y-81854040D02*
X107017800Y-81854040D01*
X106205000Y-80873600D02*
X106205000Y-81854040D01*
X92235000Y-80873600D02*
X106205000Y-80873600D01*
X92235000Y-81854040D02*
X92235000Y-80873600D01*
X91422200Y-81854040D02*
X92235000Y-81854040D01*
X91422200Y-85354160D02*
X91422200Y-81854040D01*
X92235000Y-85354160D02*
X91422200Y-85354160D01*
X92235000Y-90363040D02*
X92235000Y-85354160D01*
X91422200Y-90363040D02*
X92235000Y-90363040D01*
X91422200Y-93863160D02*
X91422200Y-90363040D01*
X92235000Y-93863160D02*
X91422200Y-93863160D01*
X92235000Y-94843600D02*
X92235000Y-93863160D01*
X106205000Y-94843600D02*
X92235000Y-94843600D01*
X163353303Y-88558890D02*
X163353303Y-89539330D01*
X164166103Y-88558890D02*
X163353303Y-88558890D01*
X164166103Y-85058770D02*
X164166103Y-88558890D01*
X163353303Y-85058770D02*
X164166103Y-85058770D01*
X163353303Y-80049890D02*
X163353303Y-85058770D01*
X164166103Y-80049890D02*
X163353303Y-80049890D01*
X164166103Y-76549770D02*
X164166103Y-80049890D01*
X163353303Y-76549770D02*
X164166103Y-76549770D01*
X163353303Y-75569330D02*
X163353303Y-76549770D01*
X149383303Y-75569330D02*
X163353303Y-75569330D01*
X149383303Y-76549770D02*
X149383303Y-75569330D01*
X148570503Y-76549770D02*
X149383303Y-76549770D01*
X148570503Y-80049890D02*
X148570503Y-76549770D01*
X149383303Y-80049890D02*
X148570503Y-80049890D01*
X149383303Y-85058770D02*
X149383303Y-80049890D01*
X148570503Y-85058770D02*
X149383303Y-85058770D01*
X148570503Y-88558890D02*
X148570503Y-85058770D01*
X149383303Y-88558890D02*
X148570503Y-88558890D01*
X149383303Y-89539330D02*
X149383303Y-88558890D01*
X163353303Y-89539330D02*
X149383303Y-89539330D01*
X144303303Y-90082890D02*
X144303303Y-91063330D01*
X145116103Y-90082890D02*
X144303303Y-90082890D01*
X145116103Y-86582770D02*
X145116103Y-90082890D01*
X144303303Y-86582770D02*
X145116103Y-86582770D01*
X144303303Y-81573890D02*
X144303303Y-86582770D01*
X145116103Y-81573890D02*
X144303303Y-81573890D01*
X145116103Y-78073770D02*
X145116103Y-81573890D01*
X144303303Y-78073770D02*
X145116103Y-78073770D01*
X144303303Y-77093330D02*
X144303303Y-78073770D01*
X130333303Y-77093330D02*
X144303303Y-77093330D01*
X130333303Y-78073770D02*
X130333303Y-77093330D01*
X129520503Y-78073770D02*
X130333303Y-78073770D01*
X129520503Y-81573890D02*
X129520503Y-78073770D01*
X130333303Y-81573890D02*
X129520503Y-81573890D01*
X130333303Y-86582770D02*
X130333303Y-81573890D01*
X129520503Y-86582770D02*
X130333303Y-86582770D01*
X129520503Y-90082890D02*
X129520503Y-86582770D01*
X130333303Y-90082890D02*
X129520503Y-90082890D01*
X130333303Y-91063330D02*
X130333303Y-90082890D01*
X144303303Y-91063330D02*
X130333303Y-91063330D01*
X163353303Y-131992890D02*
X163353303Y-132973330D01*
X164166103Y-131992890D02*
X163353303Y-131992890D01*
X164166103Y-128492770D02*
X164166103Y-131992890D01*
X163353303Y-128492770D02*
X164166103Y-128492770D01*
X163353303Y-123483890D02*
X163353303Y-128492770D01*
X164166103Y-123483890D02*
X163353303Y-123483890D01*
X164166103Y-119983770D02*
X164166103Y-123483890D01*
X163353303Y-119983770D02*
X164166103Y-119983770D01*
X163353303Y-119003330D02*
X163353303Y-119983770D01*
X149383303Y-119003330D02*
X163353303Y-119003330D01*
X149383303Y-119983770D02*
X149383303Y-119003330D01*
X148570503Y-119983770D02*
X149383303Y-119983770D01*
X148570503Y-123483890D02*
X148570503Y-119983770D01*
X149383303Y-123483890D02*
X148570503Y-123483890D01*
X149383303Y-128492770D02*
X149383303Y-123483890D01*
X148570503Y-128492770D02*
X149383303Y-128492770D01*
X148570503Y-131992890D02*
X148570503Y-128492770D01*
X149383303Y-131992890D02*
X148570503Y-131992890D01*
X149383303Y-132973330D02*
X149383303Y-131992890D01*
X163353303Y-132973330D02*
X149383303Y-132973330D01*
X201453303Y-73318890D02*
X201453303Y-74299330D01*
X202266103Y-73318890D02*
X201453303Y-73318890D01*
X202266103Y-69818770D02*
X202266103Y-73318890D01*
X201453303Y-69818770D02*
X202266103Y-69818770D01*
X201453303Y-64809890D02*
X201453303Y-69818770D01*
X202266103Y-64809890D02*
X201453303Y-64809890D01*
X202266103Y-61309770D02*
X202266103Y-64809890D01*
X201453303Y-61309770D02*
X202266103Y-61309770D01*
X201453303Y-60329330D02*
X201453303Y-61309770D01*
X187483303Y-60329330D02*
X201453303Y-60329330D01*
X187483303Y-61309770D02*
X187483303Y-60329330D01*
X186670503Y-61309770D02*
X187483303Y-61309770D01*
X186670503Y-64809890D02*
X186670503Y-61309770D01*
X187483303Y-64809890D02*
X186670503Y-64809890D01*
X187483303Y-69818770D02*
X187483303Y-64809890D01*
X186670503Y-69818770D02*
X187483303Y-69818770D01*
X186670503Y-73318890D02*
X186670503Y-69818770D01*
X187483303Y-73318890D02*
X186670503Y-73318890D01*
X187483303Y-74299330D02*
X187483303Y-73318890D01*
X201453303Y-74299330D02*
X187483303Y-74299330D01*
X144303303Y-109132890D02*
X144303303Y-110113330D01*
X145116103Y-109132890D02*
X144303303Y-109132890D01*
X145116103Y-105632770D02*
X145116103Y-109132890D01*
X144303303Y-105632770D02*
X145116103Y-105632770D01*
X144303303Y-100623890D02*
X144303303Y-105632770D01*
X145116103Y-100623890D02*
X144303303Y-100623890D01*
X145116103Y-97123770D02*
X145116103Y-100623890D01*
X144303303Y-97123770D02*
X145116103Y-97123770D01*
X144303303Y-96143330D02*
X144303303Y-97123770D01*
X130333303Y-96143330D02*
X144303303Y-96143330D01*
X130333303Y-97123770D02*
X130333303Y-96143330D01*
X129520503Y-97123770D02*
X130333303Y-97123770D01*
X129520503Y-100623890D02*
X129520503Y-97123770D01*
X130333303Y-100623890D02*
X129520503Y-100623890D01*
X130333303Y-105632770D02*
X130333303Y-100623890D01*
X129520503Y-105632770D02*
X130333303Y-105632770D01*
X129520503Y-109132890D02*
X129520503Y-105632770D01*
X130333303Y-109132890D02*
X129520503Y-109132890D01*
X130333303Y-110113330D02*
X130333303Y-109132890D01*
X144303303Y-110113330D02*
X130333303Y-110113330D01*
X106205000Y-74813160D02*
X106205000Y-75793600D01*
X107017800Y-74813160D02*
X106205000Y-74813160D01*
X107017800Y-71313040D02*
X107017800Y-74813160D01*
X106205000Y-71313040D02*
X107017800Y-71313040D01*
X106205000Y-66304160D02*
X106205000Y-71313040D01*
X107017800Y-66304160D02*
X106205000Y-66304160D01*
X107017800Y-62804040D02*
X107017800Y-66304160D01*
X106205000Y-62804040D02*
X107017800Y-62804040D01*
X106205000Y-61823600D02*
X106205000Y-62804040D01*
X92235000Y-61823600D02*
X106205000Y-61823600D01*
X92235000Y-62804040D02*
X92235000Y-61823600D01*
X91422200Y-62804040D02*
X92235000Y-62804040D01*
X91422200Y-66304160D02*
X91422200Y-62804040D01*
X92235000Y-66304160D02*
X91422200Y-66304160D01*
X92235000Y-71313040D02*
X92235000Y-66304160D01*
X91422200Y-71313040D02*
X92235000Y-71313040D01*
X91422200Y-74813160D02*
X91422200Y-71313040D01*
X92235000Y-74813160D02*
X91422200Y-74813160D01*
X92235000Y-75793600D02*
X92235000Y-74813160D01*
X106205000Y-75793600D02*
X92235000Y-75793600D01*
X182403303Y-70778890D02*
X182403303Y-71759330D01*
X183216103Y-70778890D02*
X182403303Y-70778890D01*
X183216103Y-67278770D02*
X183216103Y-70778890D01*
X182403303Y-67278770D02*
X183216103Y-67278770D01*
X182403303Y-62269890D02*
X182403303Y-67278770D01*
X183216103Y-62269890D02*
X182403303Y-62269890D01*
X183216103Y-58769770D02*
X183216103Y-62269890D01*
X182403303Y-58769770D02*
X183216103Y-58769770D01*
X182403303Y-57789330D02*
X182403303Y-58769770D01*
X168433303Y-57789330D02*
X182403303Y-57789330D01*
X168433303Y-58769770D02*
X168433303Y-57789330D01*
X167620503Y-58769770D02*
X168433303Y-58769770D01*
X167620503Y-62269890D02*
X167620503Y-58769770D01*
X168433303Y-62269890D02*
X167620503Y-62269890D01*
X168433303Y-67278770D02*
X168433303Y-62269890D01*
X167620503Y-67278770D02*
X168433303Y-67278770D01*
X167620503Y-70778890D02*
X167620503Y-67278770D01*
X168433303Y-70778890D02*
X167620503Y-70778890D01*
X168433303Y-71759330D02*
X168433303Y-70778890D01*
X182403303Y-71759330D02*
X168433303Y-71759330D01*
X144303303Y-131992890D02*
X144303303Y-132973330D01*
X145116103Y-131992890D02*
X144303303Y-131992890D01*
X145116103Y-128492770D02*
X145116103Y-131992890D01*
X144303303Y-128492770D02*
X145116103Y-128492770D01*
X144303303Y-123483890D02*
X144303303Y-128492770D01*
X145116103Y-123483890D02*
X144303303Y-123483890D01*
X145116103Y-119983770D02*
X145116103Y-123483890D01*
X144303303Y-119983770D02*
X145116103Y-119983770D01*
X144303303Y-119003330D02*
X144303303Y-119983770D01*
X130333303Y-119003330D02*
X144303303Y-119003330D01*
X130333303Y-119983770D02*
X130333303Y-119003330D01*
X129520503Y-119983770D02*
X130333303Y-119983770D01*
X129520503Y-123483890D02*
X129520503Y-119983770D01*
X130333303Y-123483890D02*
X129520503Y-123483890D01*
X130333303Y-128492770D02*
X130333303Y-123483890D01*
X129520503Y-128492770D02*
X130333303Y-128492770D01*
X129520503Y-131992890D02*
X129520503Y-128492770D01*
X130333303Y-131992890D02*
X129520503Y-131992890D01*
X130333303Y-132973330D02*
X130333303Y-131992890D01*
X144303303Y-132973330D02*
X130333303Y-132973330D01*
X163353303Y-107608890D02*
X163353303Y-108589330D01*
X164166103Y-107608890D02*
X163353303Y-107608890D01*
X164166103Y-104108770D02*
X164166103Y-107608890D01*
X163353303Y-104108770D02*
X164166103Y-104108770D01*
X163353303Y-99099890D02*
X163353303Y-104108770D01*
X164166103Y-99099890D02*
X163353303Y-99099890D01*
X164166103Y-95599770D02*
X164166103Y-99099890D01*
X163353303Y-95599770D02*
X164166103Y-95599770D01*
X163353303Y-94619330D02*
X163353303Y-95599770D01*
X149383303Y-94619330D02*
X163353303Y-94619330D01*
X149383303Y-95599770D02*
X149383303Y-94619330D01*
X148570503Y-95599770D02*
X149383303Y-95599770D01*
X148570503Y-99099890D02*
X148570503Y-95599770D01*
X149383303Y-99099890D02*
X148570503Y-99099890D01*
X149383303Y-104108770D02*
X149383303Y-99099890D01*
X148570503Y-104108770D02*
X149383303Y-104108770D01*
X148570503Y-107608890D02*
X148570503Y-104108770D01*
X149383303Y-107608890D02*
X148570503Y-107608890D01*
X149383303Y-108589330D02*
X149383303Y-107608890D01*
X163353303Y-108589330D02*
X149383303Y-108589330D01*
X125250231Y-110359390D02*
X125250231Y-111339830D01*
X126063031Y-110359390D02*
X125250231Y-110359390D01*
X126063031Y-106859270D02*
X126063031Y-110359390D01*
X125250231Y-106859270D02*
X126063031Y-106859270D01*
X125250231Y-101850390D02*
X125250231Y-106859270D01*
X126063031Y-101850390D02*
X125250231Y-101850390D01*
X126063031Y-98350270D02*
X126063031Y-101850390D01*
X125250231Y-98350270D02*
X126063031Y-98350270D01*
X125250231Y-97369830D02*
X125250231Y-98350270D01*
X111280231Y-97369830D02*
X125250231Y-97369830D01*
X111280231Y-98350270D02*
X111280231Y-97369830D01*
X110467431Y-98350270D02*
X111280231Y-98350270D01*
X110467431Y-101850390D02*
X110467431Y-98350270D01*
X111280231Y-101850390D02*
X110467431Y-101850390D01*
X111280231Y-106859270D02*
X111280231Y-101850390D01*
X110467431Y-106859270D02*
X111280231Y-106859270D01*
X110467431Y-110359390D02*
X110467431Y-106859270D01*
X111280231Y-110359390D02*
X110467431Y-110359390D01*
X111280231Y-111339830D02*
X111280231Y-110359390D01*
X125250231Y-111339830D02*
X111280231Y-111339830D01*
X182403303Y-89828890D02*
X182403303Y-90809330D01*
X183216103Y-89828890D02*
X182403303Y-89828890D01*
X183216103Y-86328770D02*
X183216103Y-89828890D01*
X182403303Y-86328770D02*
X183216103Y-86328770D01*
X182403303Y-81319890D02*
X182403303Y-86328770D01*
X183216103Y-81319890D02*
X182403303Y-81319890D01*
X183216103Y-77819770D02*
X183216103Y-81319890D01*
X182403303Y-77819770D02*
X183216103Y-77819770D01*
X182403303Y-76839330D02*
X182403303Y-77819770D01*
X168433303Y-76839330D02*
X182403303Y-76839330D01*
X168433303Y-77819770D02*
X168433303Y-76839330D01*
X167620503Y-77819770D02*
X168433303Y-77819770D01*
X167620503Y-81319890D02*
X167620503Y-77819770D01*
X168433303Y-81319890D02*
X167620503Y-81319890D01*
X168433303Y-86328770D02*
X168433303Y-81319890D01*
X167620503Y-86328770D02*
X168433303Y-86328770D01*
X167620503Y-89828890D02*
X167620503Y-86328770D01*
X168433303Y-89828890D02*
X167620503Y-89828890D01*
X168433303Y-90809330D02*
X168433303Y-89828890D01*
X182403303Y-90809330D02*
X168433303Y-90809330D01*
X201453303Y-111418890D02*
X201453303Y-112399330D01*
X202266103Y-111418890D02*
X201453303Y-111418890D01*
X202266103Y-107918770D02*
X202266103Y-111418890D01*
X201453303Y-107918770D02*
X202266103Y-107918770D01*
X201453303Y-102909890D02*
X201453303Y-107918770D01*
X202266103Y-102909890D02*
X201453303Y-102909890D01*
X202266103Y-99409770D02*
X202266103Y-102909890D01*
X201453303Y-99409770D02*
X202266103Y-99409770D01*
X201453303Y-98429330D02*
X201453303Y-99409770D01*
X187483303Y-98429330D02*
X201453303Y-98429330D01*
X187483303Y-99409770D02*
X187483303Y-98429330D01*
X186670503Y-99409770D02*
X187483303Y-99409770D01*
X186670503Y-102909890D02*
X186670503Y-99409770D01*
X187483303Y-102909890D02*
X186670503Y-102909890D01*
X187483303Y-107918770D02*
X187483303Y-102909890D01*
X186670503Y-107918770D02*
X187483303Y-107918770D01*
X186670503Y-111418890D02*
X186670503Y-107918770D01*
X187483303Y-111418890D02*
X186670503Y-111418890D01*
X187483303Y-112399330D02*
X187483303Y-111418890D01*
X201453303Y-112399330D02*
X187483303Y-112399330D01*
X201453303Y-131992890D02*
X201453303Y-132973330D01*
X202266103Y-131992890D02*
X201453303Y-131992890D01*
X202266103Y-128492770D02*
X202266103Y-131992890D01*
X201453303Y-128492770D02*
X202266103Y-128492770D01*
X201453303Y-123483890D02*
X201453303Y-128492770D01*
X202266103Y-123483890D02*
X201453303Y-123483890D01*
X202266103Y-119983770D02*
X202266103Y-123483890D01*
X201453303Y-119983770D02*
X202266103Y-119983770D01*
X201453303Y-119003330D02*
X201453303Y-119983770D01*
X187483303Y-119003330D02*
X201453303Y-119003330D01*
X187483303Y-119983770D02*
X187483303Y-119003330D01*
X186670503Y-119983770D02*
X187483303Y-119983770D01*
X186670503Y-123483890D02*
X186670503Y-119983770D01*
X187483303Y-123483890D02*
X186670503Y-123483890D01*
X187483303Y-128492770D02*
X187483303Y-123483890D01*
X186670503Y-128492770D02*
X187483303Y-128492770D01*
X186670503Y-131992890D02*
X186670503Y-128492770D01*
X187483303Y-131992890D02*
X186670503Y-131992890D01*
X187483303Y-132973330D02*
X187483303Y-131992890D01*
X201453303Y-132973330D02*
X187483303Y-132973330D01*
X125250231Y-131992890D02*
X125250231Y-132973330D01*
X126063031Y-131992890D02*
X125250231Y-131992890D01*
X126063031Y-128492770D02*
X126063031Y-131992890D01*
X125250231Y-128492770D02*
X126063031Y-128492770D01*
X125250231Y-123483890D02*
X125250231Y-128492770D01*
X126063031Y-123483890D02*
X125250231Y-123483890D01*
X126063031Y-119983770D02*
X126063031Y-123483890D01*
X125250231Y-119983770D02*
X126063031Y-119983770D01*
X125250231Y-119003330D02*
X125250231Y-119983770D01*
X111280231Y-119003330D02*
X125250231Y-119003330D01*
X111280231Y-119983770D02*
X111280231Y-119003330D01*
X110467431Y-119983770D02*
X111280231Y-119983770D01*
X110467431Y-123483890D02*
X110467431Y-119983770D01*
X111280231Y-123483890D02*
X110467431Y-123483890D01*
X111280231Y-128492770D02*
X111280231Y-123483890D01*
X110467431Y-128492770D02*
X111280231Y-128492770D01*
X110467431Y-131992890D02*
X110467431Y-128492770D01*
X111280231Y-131992890D02*
X110467431Y-131992890D01*
X111280231Y-132973330D02*
X111280231Y-131992890D01*
X125250231Y-132973330D02*
X111280231Y-132973330D01*
X163353303Y-69508890D02*
X163353303Y-70489330D01*
X164166103Y-69508890D02*
X163353303Y-69508890D01*
X164166103Y-66008770D02*
X164166103Y-69508890D01*
X163353303Y-66008770D02*
X164166103Y-66008770D01*
X163353303Y-60999890D02*
X163353303Y-66008770D01*
X164166103Y-60999890D02*
X163353303Y-60999890D01*
X164166103Y-57499770D02*
X164166103Y-60999890D01*
X163353303Y-57499770D02*
X164166103Y-57499770D01*
X163353303Y-56519330D02*
X163353303Y-57499770D01*
X149383303Y-56519330D02*
X163353303Y-56519330D01*
X149383303Y-57499770D02*
X149383303Y-56519330D01*
X148570503Y-57499770D02*
X149383303Y-57499770D01*
X148570503Y-60999890D02*
X148570503Y-57499770D01*
X149383303Y-60999890D02*
X148570503Y-60999890D01*
X149383303Y-66008770D02*
X149383303Y-60999890D01*
X148570503Y-66008770D02*
X149383303Y-66008770D01*
X148570503Y-69508890D02*
X148570503Y-66008770D01*
X149383303Y-69508890D02*
X148570503Y-69508890D01*
X149383303Y-70489330D02*
X149383303Y-69508890D01*
X163353303Y-70489330D02*
X149383303Y-70489330D01*
X144303303Y-71028890D02*
X144303303Y-72009330D01*
X145116103Y-71028890D02*
X144303303Y-71028890D01*
X145116103Y-67528770D02*
X145116103Y-71028890D01*
X144303303Y-67528770D02*
X145116103Y-67528770D01*
X144303303Y-62519890D02*
X144303303Y-67528770D01*
X145116103Y-62519890D02*
X144303303Y-62519890D01*
X145116103Y-59019770D02*
X145116103Y-62519890D01*
X144303303Y-59019770D02*
X145116103Y-59019770D01*
X144303303Y-58039330D02*
X144303303Y-59019770D01*
X130333303Y-58039330D02*
X144303303Y-58039330D01*
X130333303Y-59019770D02*
X130333303Y-58039330D01*
X129520503Y-59019770D02*
X130333303Y-59019770D01*
X129520503Y-62519890D02*
X129520503Y-59019770D01*
X130333303Y-62519890D02*
X129520503Y-62519890D01*
X130333303Y-67528770D02*
X130333303Y-62519890D01*
X129520503Y-67528770D02*
X130333303Y-67528770D01*
X129520503Y-71028890D02*
X129520503Y-67528770D01*
X130333303Y-71028890D02*
X129520503Y-71028890D01*
X130333303Y-72009330D02*
X130333303Y-71028890D01*
X144303303Y-72009330D02*
X130333303Y-72009330D01*
X182403303Y-108878890D02*
X182403303Y-109859330D01*
X183216103Y-108878890D02*
X182403303Y-108878890D01*
X183216103Y-105378770D02*
X183216103Y-108878890D01*
X182403303Y-105378770D02*
X183216103Y-105378770D01*
X182403303Y-100369890D02*
X182403303Y-105378770D01*
X183216103Y-100369890D02*
X182403303Y-100369890D01*
X183216103Y-96869770D02*
X183216103Y-100369890D01*
X182403303Y-96869770D02*
X183216103Y-96869770D01*
X182403303Y-95889330D02*
X182403303Y-96869770D01*
X168433303Y-95889330D02*
X182403303Y-95889330D01*
X168433303Y-96869770D02*
X168433303Y-95889330D01*
X167620503Y-96869770D02*
X168433303Y-96869770D01*
X167620503Y-100369890D02*
X167620503Y-96869770D01*
X168433303Y-100369890D02*
X167620503Y-100369890D01*
X168433303Y-105378770D02*
X168433303Y-100369890D01*
X167620503Y-105378770D02*
X168433303Y-105378770D01*
X167620503Y-108878890D02*
X167620503Y-105378770D01*
X168433303Y-108878890D02*
X167620503Y-108878890D01*
X168433303Y-109859330D02*
X168433303Y-108878890D01*
X182403303Y-109859330D02*
X168433303Y-109859330D01*
X106205000Y-112913160D02*
X106205000Y-113893600D01*
X107017800Y-112913160D02*
X106205000Y-112913160D01*
X107017800Y-109413040D02*
X107017800Y-112913160D01*
X106205000Y-109413040D02*
X107017800Y-109413040D01*
X106205000Y-104404160D02*
X106205000Y-109413040D01*
X107017800Y-104404160D02*
X106205000Y-104404160D01*
X107017800Y-100904040D02*
X107017800Y-104404160D01*
X106205000Y-100904040D02*
X107017800Y-100904040D01*
X106205000Y-99923600D02*
X106205000Y-100904040D01*
X92235000Y-99923600D02*
X106205000Y-99923600D01*
X92235000Y-100904040D02*
X92235000Y-99923600D01*
X91422200Y-100904040D02*
X92235000Y-100904040D01*
X91422200Y-104404160D02*
X91422200Y-100904040D01*
X92235000Y-104404160D02*
X91422200Y-104404160D01*
X92235000Y-109413040D02*
X92235000Y-104404160D01*
X91422200Y-109413040D02*
X92235000Y-109413040D01*
X91422200Y-112913160D02*
X91422200Y-109413040D01*
X92235000Y-112913160D02*
X91422200Y-112913160D01*
X92235000Y-113893600D02*
X92235000Y-112913160D01*
X106205000Y-113893600D02*
X92235000Y-113893600D01*
X106205000Y-131963160D02*
X106205000Y-132943600D01*
X107017800Y-131963160D02*
X106205000Y-131963160D01*
X107017800Y-128463040D02*
X107017800Y-131963160D01*
X106205000Y-128463040D02*
X107017800Y-128463040D01*
X106205000Y-123454160D02*
X106205000Y-128463040D01*
X107017800Y-123454160D02*
X106205000Y-123454160D01*
X107017800Y-119954040D02*
X107017800Y-123454160D01*
X106205000Y-119954040D02*
X107017800Y-119954040D01*
X106205000Y-118973600D02*
X106205000Y-119954040D01*
X92235000Y-118973600D02*
X106205000Y-118973600D01*
X92235000Y-119954040D02*
X92235000Y-118973600D01*
X91422200Y-119954040D02*
X92235000Y-119954040D01*
X91422200Y-123454160D02*
X91422200Y-119954040D01*
X92235000Y-123454160D02*
X91422200Y-123454160D01*
X92235000Y-128463040D02*
X92235000Y-123454160D01*
X91422200Y-128463040D02*
X92235000Y-128463040D01*
X91422200Y-131963160D02*
X91422200Y-128463040D01*
X92235000Y-131963160D02*
X91422200Y-131963160D01*
X92235000Y-132943600D02*
X92235000Y-131963160D01*
X106205000Y-132943600D02*
X92235000Y-132943600D01*
X125250231Y-91310989D02*
X125250231Y-92291429D01*
X126063031Y-91310989D02*
X125250231Y-91310989D01*
X126063031Y-87810869D02*
X126063031Y-91310989D01*
X125250231Y-87810869D02*
X126063031Y-87810869D01*
X125250231Y-82801989D02*
X125250231Y-87810869D01*
X126063031Y-82801989D02*
X125250231Y-82801989D01*
X126063031Y-79301869D02*
X126063031Y-82801989D01*
X125250231Y-79301869D02*
X126063031Y-79301869D01*
X125250231Y-78321429D02*
X125250231Y-79301869D01*
X111280231Y-78321429D02*
X125250231Y-78321429D01*
X111280231Y-79301869D02*
X111280231Y-78321429D01*
X110467431Y-79301869D02*
X111280231Y-79301869D01*
X110467431Y-82801989D02*
X110467431Y-79301869D01*
X111280231Y-82801989D02*
X110467431Y-82801989D01*
X111280231Y-87810869D02*
X111280231Y-82801989D01*
X110467431Y-87810869D02*
X111280231Y-87810869D01*
X110467431Y-91310989D02*
X110467431Y-87810869D01*
X111280231Y-91310989D02*
X110467431Y-91310989D01*
X111280231Y-92291429D02*
X111280231Y-91310989D01*
X125250231Y-92291429D02*
X111280231Y-92291429D01*
X125250231Y-72262890D02*
X125250231Y-73243330D01*
X126063031Y-72262890D02*
X125250231Y-72262890D01*
X126063031Y-68762770D02*
X126063031Y-72262890D01*
X125250231Y-68762770D02*
X126063031Y-68762770D01*
X125250231Y-63753890D02*
X125250231Y-68762770D01*
X126063031Y-63753890D02*
X125250231Y-63753890D01*
X126063031Y-60253770D02*
X126063031Y-63753890D01*
X125250231Y-60253770D02*
X126063031Y-60253770D01*
X125250231Y-59273330D02*
X125250231Y-60253770D01*
X111280231Y-59273330D02*
X125250231Y-59273330D01*
X111280231Y-60253770D02*
X111280231Y-59273330D01*
X110467431Y-60253770D02*
X111280231Y-60253770D01*
X110467431Y-63753890D02*
X110467431Y-60253770D01*
X111280231Y-63753890D02*
X110467431Y-63753890D01*
X111280231Y-68762770D02*
X111280231Y-63753890D01*
X110467431Y-68762770D02*
X111280231Y-68762770D01*
X110467431Y-72262890D02*
X110467431Y-68762770D01*
X111280231Y-72262890D02*
X110467431Y-72262890D01*
X111280231Y-73243330D02*
X111280231Y-72262890D01*
X125250231Y-73243330D02*
X111280231Y-73243330D01*
X182403303Y-131992890D02*
X182403303Y-132973330D01*
X183216103Y-131992890D02*
X182403303Y-131992890D01*
X183216103Y-128492770D02*
X183216103Y-131992890D01*
X182403303Y-128492770D02*
X183216103Y-128492770D01*
X182403303Y-123483890D02*
X182403303Y-128492770D01*
X183216103Y-123483890D02*
X182403303Y-123483890D01*
X183216103Y-119983770D02*
X183216103Y-123483890D01*
X182403303Y-119983770D02*
X183216103Y-119983770D01*
X182403303Y-119003330D02*
X182403303Y-119983770D01*
X168433303Y-119003330D02*
X182403303Y-119003330D01*
X168433303Y-119983770D02*
X168433303Y-119003330D01*
X167620503Y-119983770D02*
X168433303Y-119983770D01*
X167620503Y-123483890D02*
X167620503Y-119983770D01*
X168433303Y-123483890D02*
X167620503Y-123483890D01*
X168433303Y-128492770D02*
X168433303Y-123483890D01*
X167620503Y-128492770D02*
X168433303Y-128492770D01*
X167620503Y-131992890D02*
X167620503Y-128492770D01*
X168433303Y-131992890D02*
X167620503Y-131992890D01*
X168433303Y-132973330D02*
X168433303Y-131992890D01*
X182403303Y-132973330D02*
X168433303Y-132973330D01*
X201453303Y-92368890D02*
X201453303Y-93349330D01*
X202266103Y-92368890D02*
X201453303Y-92368890D01*
X202266103Y-88868770D02*
X202266103Y-92368890D01*
X201453303Y-88868770D02*
X202266103Y-88868770D01*
X201453303Y-83859890D02*
X201453303Y-88868770D01*
X202266103Y-83859890D02*
X201453303Y-83859890D01*
X202266103Y-80359770D02*
X202266103Y-83859890D01*
X201453303Y-80359770D02*
X202266103Y-80359770D01*
X201453303Y-79379330D02*
X201453303Y-80359770D01*
X187483303Y-79379330D02*
X201453303Y-79379330D01*
X187483303Y-80359770D02*
X187483303Y-79379330D01*
X186670503Y-80359770D02*
X187483303Y-80359770D01*
X186670503Y-83859890D02*
X186670503Y-80359770D01*
X187483303Y-83859890D02*
X186670503Y-83859890D01*
X187483303Y-88868770D02*
X187483303Y-83859890D01*
X186670503Y-88868770D02*
X187483303Y-88868770D01*
X186670503Y-92368890D02*
X186670503Y-88868770D01*
X187483303Y-92368890D02*
X186670503Y-92368890D01*
X187483303Y-93349330D02*
X187483303Y-92368890D01*
X201453303Y-93349330D02*
X187483303Y-93349330D01*
G04 #@! TD*
M02*
