G04 #@! TF.GenerationSoftware,KiCad,Pcbnew,5.1.9*
G04 #@! TF.CreationDate,2021-01-25T17:48:52-06:00*
G04 #@! TF.ProjectId,halfboard,68616c66-626f-4617-9264-2e6b69636164,rev?*
G04 #@! TF.SameCoordinates,Original*
G04 #@! TF.FileFunction,Other,Fab,Bot*
%FSLAX46Y46*%
G04 Gerber Fmt 4.6, Leading zero omitted, Abs format (unit mm)*
G04 Created by KiCad (PCBNEW 5.1.9) date 2021-01-25 17:48:52*
%MOMM*%
%LPD*%
G01*
G04 APERTURE LIST*
%ADD10C,0.100000*%
%ADD11C,0.150000*%
G04 APERTURE END LIST*
D10*
G04 #@! TO.C,RESET2*
X102666400Y-53957800D02*
X102666400Y-54457800D01*
X102666400Y-58157800D02*
X102666400Y-57657800D01*
X96266400Y-53957800D02*
X96266400Y-54457800D01*
X96266400Y-58157800D02*
X96266400Y-57657800D01*
X102166400Y-58157800D02*
X102166400Y-57657800D01*
X101166400Y-58157800D02*
X102666400Y-58157800D01*
X102666400Y-57657800D02*
X101666400Y-57657800D01*
X96766400Y-58157800D02*
X96766400Y-57657800D01*
X97766400Y-58157800D02*
X96266400Y-58157800D01*
X96266400Y-57657800D02*
X97266400Y-57657800D01*
X96766400Y-53957800D02*
X96766400Y-54457800D01*
X96266400Y-54457800D02*
X97266400Y-54457800D01*
X97766400Y-53957800D02*
X96266400Y-53957800D01*
X101166400Y-53957800D02*
X102666400Y-53957800D01*
X102166400Y-53957800D02*
X102166400Y-54457800D01*
X102666400Y-54457800D02*
X101666400Y-54457800D01*
X97466400Y-57057800D02*
X98466400Y-58057800D01*
X98466400Y-58057800D02*
X100466400Y-58057800D01*
X100466400Y-58057800D02*
X101466400Y-57057800D01*
X101466400Y-57057800D02*
X101466400Y-55057800D01*
X101466400Y-55057800D02*
X100466400Y-54057800D01*
X100466400Y-54057800D02*
X98466400Y-54057800D01*
X98466400Y-54057800D02*
X97466400Y-55057800D01*
X97466400Y-55057800D02*
X97466400Y-57057800D01*
X96866400Y-57257800D02*
X96866400Y-54857800D01*
X96866400Y-54857800D02*
X98266400Y-53457800D01*
X98266400Y-53457800D02*
X100666400Y-53457800D01*
X100666400Y-53457800D02*
X102066400Y-54857800D01*
X102066400Y-54857800D02*
X102066400Y-57257800D01*
X102066400Y-57257800D02*
X100666400Y-58657800D01*
X100666400Y-58657800D02*
X98266400Y-58657800D01*
X98266400Y-58657800D02*
X96866400Y-57257800D01*
X100466400Y-56057800D02*
G75*
G03*
X100466400Y-56057800I-1000000J0D01*
G01*
G04 #@! TO.C,PWR_SW2*
X186540600Y-137362200D02*
X186540600Y-138662200D01*
X186540600Y-138662200D02*
X186340600Y-138862200D01*
X186340600Y-138862200D02*
X185490600Y-138862200D01*
X185490600Y-138862200D02*
X185290600Y-138662200D01*
X185290600Y-138662200D02*
X185240600Y-138612200D01*
X185240600Y-138612200D02*
X185240600Y-137312200D01*
X188490600Y-134712200D02*
X188490600Y-137312200D01*
X188490600Y-137312200D02*
X181790600Y-137312200D01*
X181790600Y-137312200D02*
X181790600Y-134712200D01*
X181790600Y-134712200D02*
X188490600Y-134712200D01*
G04 #@! TD*
G04 #@! TO.C,RESET2*
D11*
X102728304Y-52712561D02*
X102585447Y-52760180D01*
X102347352Y-52760180D01*
X102252114Y-52712561D01*
X102204495Y-52664942D01*
X102156876Y-52569704D01*
X102156876Y-52474466D01*
X102204495Y-52379228D01*
X102252114Y-52331609D01*
X102347352Y-52283990D01*
X102537828Y-52236371D01*
X102633066Y-52188752D01*
X102680685Y-52141133D01*
X102728304Y-52045895D01*
X102728304Y-51950657D01*
X102680685Y-51855419D01*
X102633066Y-51807800D01*
X102537828Y-51760180D01*
X102299733Y-51760180D01*
X102156876Y-51807800D01*
X101823542Y-51760180D02*
X101585447Y-52760180D01*
X101394971Y-52045895D01*
X101204495Y-52760180D01*
X100966400Y-51760180D01*
X100823542Y-52855419D02*
X100061638Y-52855419D01*
X99823542Y-52760180D02*
X99823542Y-51760180D01*
X99442590Y-51760180D01*
X99347352Y-51807800D01*
X99299733Y-51855419D01*
X99252114Y-51950657D01*
X99252114Y-52093514D01*
X99299733Y-52188752D01*
X99347352Y-52236371D01*
X99442590Y-52283990D01*
X99823542Y-52283990D01*
X98823542Y-51760180D02*
X98823542Y-52569704D01*
X98775923Y-52664942D01*
X98728304Y-52712561D01*
X98633066Y-52760180D01*
X98442590Y-52760180D01*
X98347352Y-52712561D01*
X98299733Y-52664942D01*
X98252114Y-52569704D01*
X98252114Y-51760180D01*
X97823542Y-52712561D02*
X97680685Y-52760180D01*
X97442590Y-52760180D01*
X97347352Y-52712561D01*
X97299733Y-52664942D01*
X97252114Y-52569704D01*
X97252114Y-52474466D01*
X97299733Y-52379228D01*
X97347352Y-52331609D01*
X97442590Y-52283990D01*
X97633066Y-52236371D01*
X97728304Y-52188752D01*
X97775923Y-52141133D01*
X97823542Y-52045895D01*
X97823542Y-51950657D01*
X97775923Y-51855419D01*
X97728304Y-51807800D01*
X97633066Y-51760180D01*
X97394971Y-51760180D01*
X97252114Y-51807800D01*
X96823542Y-52760180D02*
X96823542Y-51760180D01*
X96823542Y-52236371D02*
X96252114Y-52236371D01*
X96252114Y-52760180D02*
X96252114Y-51760180D01*
X101394971Y-60260180D02*
X101728304Y-59783990D01*
X101966400Y-60260180D02*
X101966400Y-59260180D01*
X101585447Y-59260180D01*
X101490209Y-59307800D01*
X101442590Y-59355419D01*
X101394971Y-59450657D01*
X101394971Y-59593514D01*
X101442590Y-59688752D01*
X101490209Y-59736371D01*
X101585447Y-59783990D01*
X101966400Y-59783990D01*
X100966400Y-59736371D02*
X100633066Y-59736371D01*
X100490209Y-60260180D02*
X100966400Y-60260180D01*
X100966400Y-59260180D01*
X100490209Y-59260180D01*
X100109257Y-60212561D02*
X99966400Y-60260180D01*
X99728304Y-60260180D01*
X99633066Y-60212561D01*
X99585447Y-60164942D01*
X99537828Y-60069704D01*
X99537828Y-59974466D01*
X99585447Y-59879228D01*
X99633066Y-59831609D01*
X99728304Y-59783990D01*
X99918780Y-59736371D01*
X100014019Y-59688752D01*
X100061638Y-59641133D01*
X100109257Y-59545895D01*
X100109257Y-59450657D01*
X100061638Y-59355419D01*
X100014019Y-59307800D01*
X99918780Y-59260180D01*
X99680685Y-59260180D01*
X99537828Y-59307800D01*
X99109257Y-59736371D02*
X98775923Y-59736371D01*
X98633066Y-60260180D02*
X99109257Y-60260180D01*
X99109257Y-59260180D01*
X98633066Y-59260180D01*
X98347352Y-59260180D02*
X97775923Y-59260180D01*
X98061638Y-60260180D02*
X98061638Y-59260180D01*
X97490209Y-59355419D02*
X97442590Y-59307800D01*
X97347352Y-59260180D01*
X97109257Y-59260180D01*
X97014019Y-59307800D01*
X96966400Y-59355419D01*
X96918780Y-59450657D01*
X96918780Y-59545895D01*
X96966400Y-59688752D01*
X97537828Y-60260180D01*
X96918780Y-60260180D01*
G04 #@! TO.C,PWR_SW2*
X188212028Y-140366961D02*
X188069171Y-140414580D01*
X187831076Y-140414580D01*
X187735838Y-140366961D01*
X187688219Y-140319342D01*
X187640600Y-140224104D01*
X187640600Y-140128866D01*
X187688219Y-140033628D01*
X187735838Y-139986009D01*
X187831076Y-139938390D01*
X188021552Y-139890771D01*
X188116790Y-139843152D01*
X188164409Y-139795533D01*
X188212028Y-139700295D01*
X188212028Y-139605057D01*
X188164409Y-139509819D01*
X188116790Y-139462200D01*
X188021552Y-139414580D01*
X187783457Y-139414580D01*
X187640600Y-139462200D01*
X187307266Y-139414580D02*
X187069171Y-140414580D01*
X186878695Y-139700295D01*
X186688219Y-140414580D01*
X186450123Y-139414580D01*
X186307266Y-140509819D02*
X185545361Y-140509819D01*
X185354885Y-140366961D02*
X185212028Y-140414580D01*
X184973933Y-140414580D01*
X184878695Y-140366961D01*
X184831076Y-140319342D01*
X184783457Y-140224104D01*
X184783457Y-140128866D01*
X184831076Y-140033628D01*
X184878695Y-139986009D01*
X184973933Y-139938390D01*
X185164409Y-139890771D01*
X185259647Y-139843152D01*
X185307266Y-139795533D01*
X185354885Y-139700295D01*
X185354885Y-139605057D01*
X185307266Y-139509819D01*
X185259647Y-139462200D01*
X185164409Y-139414580D01*
X184926314Y-139414580D01*
X184783457Y-139462200D01*
X184354885Y-140414580D02*
X184354885Y-139414580D01*
X183973933Y-139414580D01*
X183878695Y-139462200D01*
X183831076Y-139509819D01*
X183783457Y-139605057D01*
X183783457Y-139747914D01*
X183831076Y-139843152D01*
X183878695Y-139890771D01*
X183973933Y-139938390D01*
X184354885Y-139938390D01*
X183402504Y-140366961D02*
X183259647Y-140414580D01*
X183021552Y-140414580D01*
X182926314Y-140366961D01*
X182878695Y-140319342D01*
X182831076Y-140224104D01*
X182831076Y-140128866D01*
X182878695Y-140033628D01*
X182926314Y-139986009D01*
X183021552Y-139938390D01*
X183212028Y-139890771D01*
X183307266Y-139843152D01*
X183354885Y-139795533D01*
X183402504Y-139700295D01*
X183402504Y-139605057D01*
X183354885Y-139509819D01*
X183307266Y-139462200D01*
X183212028Y-139414580D01*
X182973933Y-139414580D01*
X182831076Y-139462200D01*
X182545361Y-139414580D02*
X181973933Y-139414580D01*
X182259647Y-140414580D02*
X182259647Y-139414580D01*
X188378695Y-132964580D02*
X188378695Y-131964580D01*
X187997742Y-131964580D01*
X187902504Y-132012200D01*
X187854885Y-132059819D01*
X187807266Y-132155057D01*
X187807266Y-132297914D01*
X187854885Y-132393152D01*
X187902504Y-132440771D01*
X187997742Y-132488390D01*
X188378695Y-132488390D01*
X187473933Y-131964580D02*
X187235838Y-132964580D01*
X187045361Y-132250295D01*
X186854885Y-132964580D01*
X186616790Y-131964580D01*
X185664409Y-132964580D02*
X185997742Y-132488390D01*
X186235838Y-132964580D02*
X186235838Y-131964580D01*
X185854885Y-131964580D01*
X185759647Y-132012200D01*
X185712028Y-132059819D01*
X185664409Y-132155057D01*
X185664409Y-132297914D01*
X185712028Y-132393152D01*
X185759647Y-132440771D01*
X185854885Y-132488390D01*
X186235838Y-132488390D01*
X185473933Y-133059819D02*
X184712028Y-133059819D01*
X184521552Y-132916961D02*
X184378695Y-132964580D01*
X184140600Y-132964580D01*
X184045361Y-132916961D01*
X183997742Y-132869342D01*
X183950123Y-132774104D01*
X183950123Y-132678866D01*
X183997742Y-132583628D01*
X184045361Y-132536009D01*
X184140600Y-132488390D01*
X184331076Y-132440771D01*
X184426314Y-132393152D01*
X184473933Y-132345533D01*
X184521552Y-132250295D01*
X184521552Y-132155057D01*
X184473933Y-132059819D01*
X184426314Y-132012200D01*
X184331076Y-131964580D01*
X184092980Y-131964580D01*
X183950123Y-132012200D01*
X183616790Y-131964580D02*
X183378695Y-132964580D01*
X183188219Y-132250295D01*
X182997742Y-132964580D01*
X182759647Y-131964580D01*
X182426314Y-132059819D02*
X182378695Y-132012200D01*
X182283457Y-131964580D01*
X182045361Y-131964580D01*
X181950123Y-132012200D01*
X181902504Y-132059819D01*
X181854885Y-132155057D01*
X181854885Y-132250295D01*
X181902504Y-132393152D01*
X182473933Y-132964580D01*
X181854885Y-132964580D01*
G04 #@! TO.C, *
G04 #@! TD*
M02*
