G04 #@! TF.GenerationSoftware,KiCad,Pcbnew,(5.1.8-0-10_14)*
G04 #@! TF.CreationDate,2021-01-19T05:30:42-06:00*
G04 #@! TF.ProjectId,halfboard,68616c66-626f-4617-9264-2e6b69636164,rev?*
G04 #@! TF.SameCoordinates,Original*
G04 #@! TF.FileFunction,Copper,L2,Bot*
G04 #@! TF.FilePolarity,Positive*
%FSLAX46Y46*%
G04 Gerber Fmt 4.6, Leading zero omitted, Abs format (unit mm)*
G04 Created by KiCad (PCBNEW (5.1.8-0-10_14)) date 2021-01-19 05:30:42*
%MOMM*%
%LPD*%
G01*
G04 APERTURE LIST*
G04 #@! TA.AperFunction,EtchedComponent*
%ADD10C,0.100000*%
G04 #@! TD*
G04 #@! TA.AperFunction,ComponentPad*
%ADD11R,1.752600X1.752600*%
G04 #@! TD*
G04 #@! TA.AperFunction,ComponentPad*
%ADD12C,1.752600*%
G04 #@! TD*
G04 #@! TA.AperFunction,ComponentPad*
%ADD13O,1.700000X1.700000*%
G04 #@! TD*
G04 #@! TA.AperFunction,ComponentPad*
%ADD14R,1.700000X1.700000*%
G04 #@! TD*
G04 #@! TA.AperFunction,SMDPad,CuDef*
%ADD15R,2.900000X0.500000*%
G04 #@! TD*
G04 #@! TA.AperFunction,SMDPad,CuDef*
%ADD16R,1.600000X1.200000*%
G04 #@! TD*
G04 #@! TA.AperFunction,ComponentPad*
%ADD17C,1.600000*%
G04 #@! TD*
G04 #@! TA.AperFunction,ComponentPad*
%ADD18R,1.600000X1.600000*%
G04 #@! TD*
G04 #@! TA.AperFunction,ComponentPad*
%ADD19C,2.000000*%
G04 #@! TD*
G04 #@! TA.AperFunction,ComponentPad*
%ADD20R,1.500000X2.300000*%
G04 #@! TD*
G04 #@! TA.AperFunction,ComponentPad*
%ADD21O,2.300000X3.337000*%
G04 #@! TD*
G04 #@! TA.AperFunction,ComponentPad*
%ADD22C,2.286000*%
G04 #@! TD*
G04 #@! TA.AperFunction,ComponentPad*
%ADD23C,2.500000*%
G04 #@! TD*
G04 #@! TA.AperFunction,ComponentPad*
%ADD24C,2.200000*%
G04 #@! TD*
G04 #@! TA.AperFunction,SMDPad,CuDef*
%ADD25R,0.700000X1.500000*%
G04 #@! TD*
G04 #@! TA.AperFunction,SMDPad,CuDef*
%ADD26R,1.000000X0.800000*%
G04 #@! TD*
G04 #@! TA.AperFunction,SMDPad,CuDef*
%ADD27R,0.900000X1.700000*%
G04 #@! TD*
G04 #@! TA.AperFunction,ViaPad*
%ADD28C,0.800000*%
G04 #@! TD*
G04 #@! TA.AperFunction,Conductor*
%ADD29C,0.250000*%
G04 #@! TD*
G04 APERTURE END LIST*
D10*
G04 #@! TO.C, *
G36*
X48775600Y-69240400D02*
G01*
X49182000Y-68834000D01*
X49182000Y-68453000D01*
X49690000Y-67945000D01*
X50198000Y-68453000D01*
X50198000Y-69469000D01*
X49893200Y-69773800D01*
X48775600Y-69773800D01*
X48775600Y-69240400D01*
G37*
X48775600Y-69240400D02*
X49182000Y-68834000D01*
X49182000Y-68453000D01*
X49690000Y-67945000D01*
X50198000Y-68453000D01*
X50198000Y-69469000D01*
X49893200Y-69773800D01*
X48775600Y-69773800D01*
X48775600Y-69240400D01*
G36*
X51798200Y-69692520D02*
G01*
X49690000Y-67584320D01*
X49182000Y-68092320D01*
X49182000Y-67386200D01*
X51798200Y-67386200D01*
X51798200Y-69692520D01*
G37*
X51798200Y-69692520D02*
X49690000Y-67584320D01*
X49182000Y-68092320D01*
X49182000Y-67386200D01*
X51798200Y-67386200D01*
X51798200Y-69692520D01*
G36*
X144023903Y-67746130D02*
G01*
X144430303Y-67339730D01*
X144430303Y-66958730D01*
X144938303Y-66450730D01*
X145446303Y-66958730D01*
X145446303Y-67974730D01*
X145141503Y-68279530D01*
X144023903Y-68279530D01*
X144023903Y-67746130D01*
G37*
X144023903Y-67746130D02*
X144430303Y-67339730D01*
X144430303Y-66958730D01*
X144938303Y-66450730D01*
X145446303Y-66958730D01*
X145446303Y-67974730D01*
X145141503Y-68279530D01*
X144023903Y-68279530D01*
X144023903Y-67746130D01*
G36*
X147046503Y-68198250D02*
G01*
X144938303Y-66090050D01*
X144430303Y-66598050D01*
X144430303Y-65891930D01*
X147046503Y-65891930D01*
X147046503Y-68198250D01*
G37*
X147046503Y-68198250D02*
X144938303Y-66090050D01*
X144430303Y-66598050D01*
X144430303Y-65891930D01*
X147046503Y-65891930D01*
X147046503Y-68198250D01*
G36*
X144023903Y-86796130D02*
G01*
X144430303Y-86389730D01*
X144430303Y-86008730D01*
X144938303Y-85500730D01*
X145446303Y-86008730D01*
X145446303Y-87024730D01*
X145141503Y-87329530D01*
X144023903Y-87329530D01*
X144023903Y-86796130D01*
G37*
X144023903Y-86796130D02*
X144430303Y-86389730D01*
X144430303Y-86008730D01*
X144938303Y-85500730D01*
X145446303Y-86008730D01*
X145446303Y-87024730D01*
X145141503Y-87329530D01*
X144023903Y-87329530D01*
X144023903Y-86796130D01*
G36*
X147046503Y-87248250D02*
G01*
X144938303Y-85140050D01*
X144430303Y-85648050D01*
X144430303Y-84941930D01*
X147046503Y-84941930D01*
X147046503Y-87248250D01*
G37*
X147046503Y-87248250D02*
X144938303Y-85140050D01*
X144430303Y-85648050D01*
X144430303Y-84941930D01*
X147046503Y-84941930D01*
X147046503Y-87248250D01*
G36*
X144023903Y-105846130D02*
G01*
X144430303Y-105439730D01*
X144430303Y-105058730D01*
X144938303Y-104550730D01*
X145446303Y-105058730D01*
X145446303Y-106074730D01*
X145141503Y-106379530D01*
X144023903Y-106379530D01*
X144023903Y-105846130D01*
G37*
X144023903Y-105846130D02*
X144430303Y-105439730D01*
X144430303Y-105058730D01*
X144938303Y-104550730D01*
X145446303Y-105058730D01*
X145446303Y-106074730D01*
X145141503Y-106379530D01*
X144023903Y-106379530D01*
X144023903Y-105846130D01*
G36*
X147046503Y-106298250D02*
G01*
X144938303Y-104190050D01*
X144430303Y-104698050D01*
X144430303Y-103991930D01*
X147046503Y-103991930D01*
X147046503Y-106298250D01*
G37*
X147046503Y-106298250D02*
X144938303Y-104190050D01*
X144430303Y-104698050D01*
X144430303Y-103991930D01*
X147046503Y-103991930D01*
X147046503Y-106298250D01*
G36*
X144023903Y-126420130D02*
G01*
X144430303Y-126013730D01*
X144430303Y-125632730D01*
X144938303Y-125124730D01*
X145446303Y-125632730D01*
X145446303Y-126648730D01*
X145141503Y-126953530D01*
X144023903Y-126953530D01*
X144023903Y-126420130D01*
G37*
X144023903Y-126420130D02*
X144430303Y-126013730D01*
X144430303Y-125632730D01*
X144938303Y-125124730D01*
X145446303Y-125632730D01*
X145446303Y-126648730D01*
X145141503Y-126953530D01*
X144023903Y-126953530D01*
X144023903Y-126420130D01*
G36*
X147046503Y-126872250D02*
G01*
X144938303Y-124764050D01*
X144430303Y-125272050D01*
X144430303Y-124565930D01*
X147046503Y-124565930D01*
X147046503Y-126872250D01*
G37*
X147046503Y-126872250D02*
X144938303Y-124764050D01*
X144430303Y-125272050D01*
X144430303Y-124565930D01*
X147046503Y-124565930D01*
X147046503Y-126872250D01*
G36*
X124973903Y-126420130D02*
G01*
X125380303Y-126013730D01*
X125380303Y-125632730D01*
X125888303Y-125124730D01*
X126396303Y-125632730D01*
X126396303Y-126648730D01*
X126091503Y-126953530D01*
X124973903Y-126953530D01*
X124973903Y-126420130D01*
G37*
X124973903Y-126420130D02*
X125380303Y-126013730D01*
X125380303Y-125632730D01*
X125888303Y-125124730D01*
X126396303Y-125632730D01*
X126396303Y-126648730D01*
X126091503Y-126953530D01*
X124973903Y-126953530D01*
X124973903Y-126420130D01*
G36*
X127996503Y-126872250D02*
G01*
X125888303Y-124764050D01*
X125380303Y-125272050D01*
X125380303Y-124565930D01*
X127996503Y-124565930D01*
X127996503Y-126872250D01*
G37*
X127996503Y-126872250D02*
X125888303Y-124764050D01*
X125380303Y-125272050D01*
X125380303Y-124565930D01*
X127996503Y-124565930D01*
X127996503Y-126872250D01*
G36*
X105923903Y-126420130D02*
G01*
X106330303Y-126013730D01*
X106330303Y-125632730D01*
X106838303Y-125124730D01*
X107346303Y-125632730D01*
X107346303Y-126648730D01*
X107041503Y-126953530D01*
X105923903Y-126953530D01*
X105923903Y-126420130D01*
G37*
X105923903Y-126420130D02*
X106330303Y-126013730D01*
X106330303Y-125632730D01*
X106838303Y-125124730D01*
X107346303Y-125632730D01*
X107346303Y-126648730D01*
X107041503Y-126953530D01*
X105923903Y-126953530D01*
X105923903Y-126420130D01*
G36*
X108946503Y-126872250D02*
G01*
X106838303Y-124764050D01*
X106330303Y-125272050D01*
X106330303Y-124565930D01*
X108946503Y-124565930D01*
X108946503Y-126872250D01*
G37*
X108946503Y-126872250D02*
X106838303Y-124764050D01*
X106330303Y-125272050D01*
X106330303Y-124565930D01*
X108946503Y-124565930D01*
X108946503Y-126872250D01*
G36*
X86873903Y-126420130D02*
G01*
X87280303Y-126013730D01*
X87280303Y-125632730D01*
X87788303Y-125124730D01*
X88296303Y-125632730D01*
X88296303Y-126648730D01*
X87991503Y-126953530D01*
X86873903Y-126953530D01*
X86873903Y-126420130D01*
G37*
X86873903Y-126420130D02*
X87280303Y-126013730D01*
X87280303Y-125632730D01*
X87788303Y-125124730D01*
X88296303Y-125632730D01*
X88296303Y-126648730D01*
X87991503Y-126953530D01*
X86873903Y-126953530D01*
X86873903Y-126420130D01*
G36*
X89896503Y-126872250D02*
G01*
X87788303Y-124764050D01*
X87280303Y-125272050D01*
X87280303Y-124565930D01*
X89896503Y-124565930D01*
X89896503Y-126872250D01*
G37*
X89896503Y-126872250D02*
X87788303Y-124764050D01*
X87280303Y-125272050D01*
X87280303Y-124565930D01*
X89896503Y-124565930D01*
X89896503Y-126872250D01*
G36*
X124973903Y-103306130D02*
G01*
X125380303Y-102899730D01*
X125380303Y-102518730D01*
X125888303Y-102010730D01*
X126396303Y-102518730D01*
X126396303Y-103534730D01*
X126091503Y-103839530D01*
X124973903Y-103839530D01*
X124973903Y-103306130D01*
G37*
X124973903Y-103306130D02*
X125380303Y-102899730D01*
X125380303Y-102518730D01*
X125888303Y-102010730D01*
X126396303Y-102518730D01*
X126396303Y-103534730D01*
X126091503Y-103839530D01*
X124973903Y-103839530D01*
X124973903Y-103306130D01*
G36*
X127996503Y-103758250D02*
G01*
X125888303Y-101650050D01*
X125380303Y-102158050D01*
X125380303Y-101451930D01*
X127996503Y-101451930D01*
X127996503Y-103758250D01*
G37*
X127996503Y-103758250D02*
X125888303Y-101650050D01*
X125380303Y-102158050D01*
X125380303Y-101451930D01*
X127996503Y-101451930D01*
X127996503Y-103758250D01*
G36*
X124973903Y-84256130D02*
G01*
X125380303Y-83849730D01*
X125380303Y-83468730D01*
X125888303Y-82960730D01*
X126396303Y-83468730D01*
X126396303Y-84484730D01*
X126091503Y-84789530D01*
X124973903Y-84789530D01*
X124973903Y-84256130D01*
G37*
X124973903Y-84256130D02*
X125380303Y-83849730D01*
X125380303Y-83468730D01*
X125888303Y-82960730D01*
X126396303Y-83468730D01*
X126396303Y-84484730D01*
X126091503Y-84789530D01*
X124973903Y-84789530D01*
X124973903Y-84256130D01*
G36*
X127996503Y-84708250D02*
G01*
X125888303Y-82600050D01*
X125380303Y-83108050D01*
X125380303Y-82401930D01*
X127996503Y-82401930D01*
X127996503Y-84708250D01*
G37*
X127996503Y-84708250D02*
X125888303Y-82600050D01*
X125380303Y-83108050D01*
X125380303Y-82401930D01*
X127996503Y-82401930D01*
X127996503Y-84708250D01*
G36*
X124973903Y-65206130D02*
G01*
X125380303Y-64799730D01*
X125380303Y-64418730D01*
X125888303Y-63910730D01*
X126396303Y-64418730D01*
X126396303Y-65434730D01*
X126091503Y-65739530D01*
X124973903Y-65739530D01*
X124973903Y-65206130D01*
G37*
X124973903Y-65206130D02*
X125380303Y-64799730D01*
X125380303Y-64418730D01*
X125888303Y-63910730D01*
X126396303Y-64418730D01*
X126396303Y-65434730D01*
X126091503Y-65739530D01*
X124973903Y-65739530D01*
X124973903Y-65206130D01*
G36*
X127996503Y-65658250D02*
G01*
X125888303Y-63550050D01*
X125380303Y-64058050D01*
X125380303Y-63351930D01*
X127996503Y-63351930D01*
X127996503Y-65658250D01*
G37*
X127996503Y-65658250D02*
X125888303Y-63550050D01*
X125380303Y-64058050D01*
X125380303Y-63351930D01*
X127996503Y-63351930D01*
X127996503Y-65658250D01*
G36*
X105923903Y-63936130D02*
G01*
X106330303Y-63529730D01*
X106330303Y-63148730D01*
X106838303Y-62640730D01*
X107346303Y-63148730D01*
X107346303Y-64164730D01*
X107041503Y-64469530D01*
X105923903Y-64469530D01*
X105923903Y-63936130D01*
G37*
X105923903Y-63936130D02*
X106330303Y-63529730D01*
X106330303Y-63148730D01*
X106838303Y-62640730D01*
X107346303Y-63148730D01*
X107346303Y-64164730D01*
X107041503Y-64469530D01*
X105923903Y-64469530D01*
X105923903Y-63936130D01*
G36*
X108946503Y-64388250D02*
G01*
X106838303Y-62280050D01*
X106330303Y-62788050D01*
X106330303Y-62081930D01*
X108946503Y-62081930D01*
X108946503Y-64388250D01*
G37*
X108946503Y-64388250D02*
X106838303Y-62280050D01*
X106330303Y-62788050D01*
X106330303Y-62081930D01*
X108946503Y-62081930D01*
X108946503Y-64388250D01*
G36*
X105923903Y-82986130D02*
G01*
X106330303Y-82579730D01*
X106330303Y-82198730D01*
X106838303Y-81690730D01*
X107346303Y-82198730D01*
X107346303Y-83214730D01*
X107041503Y-83519530D01*
X105923903Y-83519530D01*
X105923903Y-82986130D01*
G37*
X105923903Y-82986130D02*
X106330303Y-82579730D01*
X106330303Y-82198730D01*
X106838303Y-81690730D01*
X107346303Y-82198730D01*
X107346303Y-83214730D01*
X107041503Y-83519530D01*
X105923903Y-83519530D01*
X105923903Y-82986130D01*
G36*
X108946503Y-83438250D02*
G01*
X106838303Y-81330050D01*
X106330303Y-81838050D01*
X106330303Y-81131930D01*
X108946503Y-81131930D01*
X108946503Y-83438250D01*
G37*
X108946503Y-83438250D02*
X106838303Y-81330050D01*
X106330303Y-81838050D01*
X106330303Y-81131930D01*
X108946503Y-81131930D01*
X108946503Y-83438250D01*
G36*
X105923903Y-102036130D02*
G01*
X106330303Y-101629730D01*
X106330303Y-101248730D01*
X106838303Y-100740730D01*
X107346303Y-101248730D01*
X107346303Y-102264730D01*
X107041503Y-102569530D01*
X105923903Y-102569530D01*
X105923903Y-102036130D01*
G37*
X105923903Y-102036130D02*
X106330303Y-101629730D01*
X106330303Y-101248730D01*
X106838303Y-100740730D01*
X107346303Y-101248730D01*
X107346303Y-102264730D01*
X107041503Y-102569530D01*
X105923903Y-102569530D01*
X105923903Y-102036130D01*
G36*
X108946503Y-102488250D02*
G01*
X106838303Y-100380050D01*
X106330303Y-100888050D01*
X106330303Y-100181930D01*
X108946503Y-100181930D01*
X108946503Y-102488250D01*
G37*
X108946503Y-102488250D02*
X106838303Y-100380050D01*
X106330303Y-100888050D01*
X106330303Y-100181930D01*
X108946503Y-100181930D01*
X108946503Y-102488250D01*
G36*
X86873903Y-103560130D02*
G01*
X87280303Y-103153730D01*
X87280303Y-102772730D01*
X87788303Y-102264730D01*
X88296303Y-102772730D01*
X88296303Y-103788730D01*
X87991503Y-104093530D01*
X86873903Y-104093530D01*
X86873903Y-103560130D01*
G37*
X86873903Y-103560130D02*
X87280303Y-103153730D01*
X87280303Y-102772730D01*
X87788303Y-102264730D01*
X88296303Y-102772730D01*
X88296303Y-103788730D01*
X87991503Y-104093530D01*
X86873903Y-104093530D01*
X86873903Y-103560130D01*
G36*
X89896503Y-104012250D02*
G01*
X87788303Y-101904050D01*
X87280303Y-102412050D01*
X87280303Y-101705930D01*
X89896503Y-101705930D01*
X89896503Y-104012250D01*
G37*
X89896503Y-104012250D02*
X87788303Y-101904050D01*
X87280303Y-102412050D01*
X87280303Y-101705930D01*
X89896503Y-101705930D01*
X89896503Y-104012250D01*
G36*
X86873903Y-84510130D02*
G01*
X87280303Y-84103730D01*
X87280303Y-83722730D01*
X87788303Y-83214730D01*
X88296303Y-83722730D01*
X88296303Y-84738730D01*
X87991503Y-85043530D01*
X86873903Y-85043530D01*
X86873903Y-84510130D01*
G37*
X86873903Y-84510130D02*
X87280303Y-84103730D01*
X87280303Y-83722730D01*
X87788303Y-83214730D01*
X88296303Y-83722730D01*
X88296303Y-84738730D01*
X87991503Y-85043530D01*
X86873903Y-85043530D01*
X86873903Y-84510130D01*
G36*
X89896503Y-84962250D02*
G01*
X87788303Y-82854050D01*
X87280303Y-83362050D01*
X87280303Y-82655930D01*
X89896503Y-82655930D01*
X89896503Y-84962250D01*
G37*
X89896503Y-84962250D02*
X87788303Y-82854050D01*
X87280303Y-83362050D01*
X87280303Y-82655930D01*
X89896503Y-82655930D01*
X89896503Y-84962250D01*
G36*
X86873903Y-65456130D02*
G01*
X87280303Y-65049730D01*
X87280303Y-64668730D01*
X87788303Y-64160730D01*
X88296303Y-64668730D01*
X88296303Y-65684730D01*
X87991503Y-65989530D01*
X86873903Y-65989530D01*
X86873903Y-65456130D01*
G37*
X86873903Y-65456130D02*
X87280303Y-65049730D01*
X87280303Y-64668730D01*
X87788303Y-64160730D01*
X88296303Y-64668730D01*
X88296303Y-65684730D01*
X87991503Y-65989530D01*
X86873903Y-65989530D01*
X86873903Y-65456130D01*
G36*
X89896503Y-65908250D02*
G01*
X87788303Y-63800050D01*
X87280303Y-64308050D01*
X87280303Y-63601930D01*
X89896503Y-63601930D01*
X89896503Y-65908250D01*
G37*
X89896503Y-65908250D02*
X87788303Y-63800050D01*
X87280303Y-64308050D01*
X87280303Y-63601930D01*
X89896503Y-63601930D01*
X89896503Y-65908250D01*
G36*
X67820831Y-66690130D02*
G01*
X68227231Y-66283730D01*
X68227231Y-65902730D01*
X68735231Y-65394730D01*
X69243231Y-65902730D01*
X69243231Y-66918730D01*
X68938431Y-67223530D01*
X67820831Y-67223530D01*
X67820831Y-66690130D01*
G37*
X67820831Y-66690130D02*
X68227231Y-66283730D01*
X68227231Y-65902730D01*
X68735231Y-65394730D01*
X69243231Y-65902730D01*
X69243231Y-66918730D01*
X68938431Y-67223530D01*
X67820831Y-67223530D01*
X67820831Y-66690130D01*
G36*
X70843431Y-67142250D02*
G01*
X68735231Y-65034050D01*
X68227231Y-65542050D01*
X68227231Y-64835930D01*
X70843431Y-64835930D01*
X70843431Y-67142250D01*
G37*
X70843431Y-67142250D02*
X68735231Y-65034050D01*
X68227231Y-65542050D01*
X68227231Y-64835930D01*
X70843431Y-64835930D01*
X70843431Y-67142250D01*
G36*
X67820831Y-85738229D02*
G01*
X68227231Y-85331829D01*
X68227231Y-84950829D01*
X68735231Y-84442829D01*
X69243231Y-84950829D01*
X69243231Y-85966829D01*
X68938431Y-86271629D01*
X67820831Y-86271629D01*
X67820831Y-85738229D01*
G37*
X67820831Y-85738229D02*
X68227231Y-85331829D01*
X68227231Y-84950829D01*
X68735231Y-84442829D01*
X69243231Y-84950829D01*
X69243231Y-85966829D01*
X68938431Y-86271629D01*
X67820831Y-86271629D01*
X67820831Y-85738229D01*
G36*
X70843431Y-86190349D02*
G01*
X68735231Y-84082149D01*
X68227231Y-84590149D01*
X68227231Y-83884029D01*
X70843431Y-83884029D01*
X70843431Y-86190349D01*
G37*
X70843431Y-86190349D02*
X68735231Y-84082149D01*
X68227231Y-84590149D01*
X68227231Y-83884029D01*
X70843431Y-83884029D01*
X70843431Y-86190349D01*
G36*
X67820831Y-104786630D02*
G01*
X68227231Y-104380230D01*
X68227231Y-103999230D01*
X68735231Y-103491230D01*
X69243231Y-103999230D01*
X69243231Y-105015230D01*
X68938431Y-105320030D01*
X67820831Y-105320030D01*
X67820831Y-104786630D01*
G37*
X67820831Y-104786630D02*
X68227231Y-104380230D01*
X68227231Y-103999230D01*
X68735231Y-103491230D01*
X69243231Y-103999230D01*
X69243231Y-105015230D01*
X68938431Y-105320030D01*
X67820831Y-105320030D01*
X67820831Y-104786630D01*
G36*
X70843431Y-105238750D02*
G01*
X68735231Y-103130550D01*
X68227231Y-103638550D01*
X68227231Y-102932430D01*
X70843431Y-102932430D01*
X70843431Y-105238750D01*
G37*
X70843431Y-105238750D02*
X68735231Y-103130550D01*
X68227231Y-103638550D01*
X68227231Y-102932430D01*
X70843431Y-102932430D01*
X70843431Y-105238750D01*
G36*
X67820831Y-126420130D02*
G01*
X68227231Y-126013730D01*
X68227231Y-125632730D01*
X68735231Y-125124730D01*
X69243231Y-125632730D01*
X69243231Y-126648730D01*
X68938431Y-126953530D01*
X67820831Y-126953530D01*
X67820831Y-126420130D01*
G37*
X67820831Y-126420130D02*
X68227231Y-126013730D01*
X68227231Y-125632730D01*
X68735231Y-125124730D01*
X69243231Y-125632730D01*
X69243231Y-126648730D01*
X68938431Y-126953530D01*
X67820831Y-126953530D01*
X67820831Y-126420130D01*
G36*
X70843431Y-126872250D02*
G01*
X68735231Y-124764050D01*
X68227231Y-125272050D01*
X68227231Y-124565930D01*
X70843431Y-124565930D01*
X70843431Y-126872250D01*
G37*
X70843431Y-126872250D02*
X68735231Y-124764050D01*
X68227231Y-125272050D01*
X68227231Y-124565930D01*
X70843431Y-124565930D01*
X70843431Y-126872250D01*
G36*
X48775600Y-126390400D02*
G01*
X49182000Y-125984000D01*
X49182000Y-125603000D01*
X49690000Y-125095000D01*
X50198000Y-125603000D01*
X50198000Y-126619000D01*
X49893200Y-126923800D01*
X48775600Y-126923800D01*
X48775600Y-126390400D01*
G37*
X48775600Y-126390400D02*
X49182000Y-125984000D01*
X49182000Y-125603000D01*
X49690000Y-125095000D01*
X50198000Y-125603000D01*
X50198000Y-126619000D01*
X49893200Y-126923800D01*
X48775600Y-126923800D01*
X48775600Y-126390400D01*
G36*
X51798200Y-126842520D02*
G01*
X49690000Y-124734320D01*
X49182000Y-125242320D01*
X49182000Y-124536200D01*
X51798200Y-124536200D01*
X51798200Y-126842520D01*
G37*
X51798200Y-126842520D02*
X49690000Y-124734320D01*
X49182000Y-125242320D01*
X49182000Y-124536200D01*
X51798200Y-124536200D01*
X51798200Y-126842520D01*
G36*
X48775600Y-107340400D02*
G01*
X49182000Y-106934000D01*
X49182000Y-106553000D01*
X49690000Y-106045000D01*
X50198000Y-106553000D01*
X50198000Y-107569000D01*
X49893200Y-107873800D01*
X48775600Y-107873800D01*
X48775600Y-107340400D01*
G37*
X48775600Y-107340400D02*
X49182000Y-106934000D01*
X49182000Y-106553000D01*
X49690000Y-106045000D01*
X50198000Y-106553000D01*
X50198000Y-107569000D01*
X49893200Y-107873800D01*
X48775600Y-107873800D01*
X48775600Y-107340400D01*
G36*
X51798200Y-107792520D02*
G01*
X49690000Y-105684320D01*
X49182000Y-106192320D01*
X49182000Y-105486200D01*
X51798200Y-105486200D01*
X51798200Y-107792520D01*
G37*
X51798200Y-107792520D02*
X49690000Y-105684320D01*
X49182000Y-106192320D01*
X49182000Y-105486200D01*
X51798200Y-105486200D01*
X51798200Y-107792520D01*
G36*
X48775600Y-88290400D02*
G01*
X49182000Y-87884000D01*
X49182000Y-87503000D01*
X49690000Y-86995000D01*
X50198000Y-87503000D01*
X50198000Y-88519000D01*
X49893200Y-88823800D01*
X48775600Y-88823800D01*
X48775600Y-88290400D01*
G37*
X48775600Y-88290400D02*
X49182000Y-87884000D01*
X49182000Y-87503000D01*
X49690000Y-86995000D01*
X50198000Y-87503000D01*
X50198000Y-88519000D01*
X49893200Y-88823800D01*
X48775600Y-88823800D01*
X48775600Y-88290400D01*
G36*
X51798200Y-88742520D02*
G01*
X49690000Y-86634320D01*
X49182000Y-87142320D01*
X49182000Y-86436200D01*
X51798200Y-86436200D01*
X51798200Y-88742520D01*
G37*
X51798200Y-88742520D02*
X49690000Y-86634320D01*
X49182000Y-87142320D01*
X49182000Y-86436200D01*
X51798200Y-86436200D01*
X51798200Y-88742520D01*
G04 #@! TD*
D11*
G04 #@! TO.P,U1,1*
G04 #@! TO.N,N/C*
X60667231Y-49530000D03*
D12*
G04 #@! TO.P,U1,2*
X60667231Y-52070000D03*
G04 #@! TO.P,U1,3*
G04 #@! TO.N,RESET_GND*
X60667231Y-54610000D03*
G04 #@! TO.P,U1,4*
G04 #@! TO.N,N/C*
X60667231Y-57150000D03*
G04 #@! TO.P,U1,5*
G04 #@! TO.N,row0*
X60667231Y-59690000D03*
G04 #@! TO.P,U1,6*
G04 #@! TO.N,row1*
X60667231Y-62230000D03*
G04 #@! TO.P,U1,7*
G04 #@! TO.N,row2*
X60667231Y-64770000D03*
G04 #@! TO.P,U1,8*
G04 #@! TO.N,row3*
X60667231Y-67310000D03*
G04 #@! TO.P,U1,9*
G04 #@! TO.N,col0*
X60667231Y-69850000D03*
G04 #@! TO.P,U1,10*
G04 #@! TO.N,N/C*
X60667231Y-72390000D03*
G04 #@! TO.P,U1,11*
G04 #@! TO.N,col2*
X60667231Y-74930000D03*
G04 #@! TO.P,U1,13*
G04 #@! TO.N,col4*
X75907231Y-77470000D03*
G04 #@! TO.P,U1,14*
G04 #@! TO.N,N/C*
X75907231Y-74930000D03*
G04 #@! TO.P,U1,15*
G04 #@! TO.N,col3*
X75907231Y-72390000D03*
G04 #@! TO.P,U1,16*
G04 #@! TO.N,col5*
X75907231Y-69850000D03*
G04 #@! TO.P,U1,17*
G04 #@! TO.N,N/C*
X75907231Y-67310000D03*
G04 #@! TO.P,U1,18*
X75907231Y-64770000D03*
G04 #@! TO.P,U1,19*
X75907231Y-62230000D03*
G04 #@! TO.P,U1,20*
X75907231Y-59690000D03*
G04 #@! TO.P,U1,21*
X75907231Y-57150000D03*
G04 #@! TO.P,U1,22*
G04 #@! TO.N,RESET*
X75907231Y-54610000D03*
G04 #@! TO.P,U1,23*
G04 #@! TO.N,BAT_GND*
X75907231Y-52070000D03*
G04 #@! TO.P,U1,12*
G04 #@! TO.N,col1*
X60667231Y-77470000D03*
G04 #@! TO.P,U1,24*
G04 #@! TO.N,BAT0*
X75907231Y-49530000D03*
G04 #@! TD*
D13*
G04 #@! TO.P, ,2*
G04 #@! TO.N,BAT0*
X77470000Y-109220000D03*
D14*
G04 #@! TO.P, ,1*
G04 #@! TO.N,BAT_SW*
X80010000Y-109220000D03*
G04 #@! TD*
D15*
G04 #@! TO.P, ,2*
G04 #@! TO.N,N/C*
X141930303Y-53340000D03*
D16*
X143030303Y-53340000D03*
G04 #@! TO.P, ,1*
X145830303Y-53340000D03*
D15*
X146930303Y-53340000D03*
D17*
G04 #@! TO.P, ,2*
X140530303Y-53340000D03*
D18*
G04 #@! TO.P, ,1*
X148330303Y-53340000D03*
G04 #@! TD*
D15*
G04 #@! TO.P, ,2*
G04 #@! TO.N,N/C*
X141930303Y-72390000D03*
D16*
X143030303Y-72390000D03*
G04 #@! TO.P, ,1*
X145830303Y-72390000D03*
D15*
X146930303Y-72390000D03*
D17*
G04 #@! TO.P, ,2*
X140530303Y-72390000D03*
D18*
G04 #@! TO.P, ,1*
X148330303Y-72390000D03*
G04 #@! TD*
D15*
G04 #@! TO.P, ,2*
G04 #@! TO.N,N/C*
X141930303Y-91440000D03*
D16*
X143030303Y-91440000D03*
G04 #@! TO.P, ,1*
X145830303Y-91440000D03*
D15*
X146930303Y-91440000D03*
D17*
G04 #@! TO.P, ,2*
X140530303Y-91440000D03*
D18*
G04 #@! TO.P, ,1*
X148330303Y-91440000D03*
G04 #@! TD*
D15*
G04 #@! TO.P, ,2*
G04 #@! TO.N,N/C*
X142438303Y-111490000D03*
D16*
X143538303Y-111490000D03*
G04 #@! TO.P, ,1*
X146338303Y-111490000D03*
D15*
X147438303Y-111490000D03*
D17*
G04 #@! TO.P, ,2*
X141038303Y-111490000D03*
D18*
G04 #@! TO.P, ,1*
X148838303Y-111490000D03*
G04 #@! TD*
D15*
G04 #@! TO.P, ,2*
G04 #@! TO.N,N/C*
X123388303Y-111490000D03*
D16*
X124488303Y-111490000D03*
G04 #@! TO.P, ,1*
X127288303Y-111490000D03*
D15*
X128388303Y-111490000D03*
D17*
G04 #@! TO.P, ,2*
X121988303Y-111490000D03*
D18*
G04 #@! TO.P, ,1*
X129788303Y-111490000D03*
G04 #@! TD*
D15*
G04 #@! TO.P, ,2*
G04 #@! TO.N,N/C*
X104338303Y-111490000D03*
D16*
X105438303Y-111490000D03*
G04 #@! TO.P, ,1*
X108238303Y-111490000D03*
D15*
X109338303Y-111490000D03*
D17*
G04 #@! TO.P, ,2*
X102938303Y-111490000D03*
D18*
G04 #@! TO.P, ,1*
X110738303Y-111490000D03*
G04 #@! TD*
D15*
G04 #@! TO.P, ,2*
G04 #@! TO.N,N/C*
X85288303Y-111490000D03*
D16*
X86388303Y-111490000D03*
G04 #@! TO.P, ,1*
X89188303Y-111490000D03*
D15*
X90288303Y-111490000D03*
D17*
G04 #@! TO.P, ,2*
X83888303Y-111490000D03*
D18*
G04 #@! TO.P, ,1*
X91688303Y-111490000D03*
G04 #@! TD*
D15*
G04 #@! TO.P, ,2*
G04 #@! TO.N,N/C*
X122880303Y-88900000D03*
D16*
X123980303Y-88900000D03*
G04 #@! TO.P, ,1*
X126780303Y-88900000D03*
D15*
X127880303Y-88900000D03*
D17*
G04 #@! TO.P, ,2*
X121480303Y-88900000D03*
D18*
G04 #@! TO.P, ,1*
X129280303Y-88900000D03*
G04 #@! TD*
D15*
G04 #@! TO.P, ,2*
G04 #@! TO.N,N/C*
X122880303Y-69850000D03*
D16*
X123980303Y-69850000D03*
G04 #@! TO.P, ,1*
X126780303Y-69850000D03*
D15*
X127880303Y-69850000D03*
D17*
G04 #@! TO.P, ,2*
X121480303Y-69850000D03*
D18*
G04 #@! TO.P, ,1*
X129280303Y-69850000D03*
G04 #@! TD*
D15*
G04 #@! TO.P, ,2*
G04 #@! TO.N,N/C*
X122880303Y-50800000D03*
D16*
X123980303Y-50800000D03*
G04 #@! TO.P, ,1*
X126780303Y-50800000D03*
D15*
X127880303Y-50800000D03*
D17*
G04 #@! TO.P, ,2*
X121480303Y-50800000D03*
D18*
G04 #@! TO.P, ,1*
X129280303Y-50800000D03*
G04 #@! TD*
D15*
G04 #@! TO.P, ,2*
G04 #@! TO.N,N/C*
X103830303Y-49530000D03*
D16*
X104930303Y-49530000D03*
G04 #@! TO.P, ,1*
X107730303Y-49530000D03*
D15*
X108830303Y-49530000D03*
D17*
G04 #@! TO.P, ,2*
X102430303Y-49530000D03*
D18*
G04 #@! TO.P, ,1*
X110230303Y-49530000D03*
G04 #@! TD*
D15*
G04 #@! TO.P, ,2*
G04 #@! TO.N,N/C*
X103830303Y-68580000D03*
D16*
X104930303Y-68580000D03*
G04 #@! TO.P, ,1*
X107730303Y-68580000D03*
D15*
X108830303Y-68580000D03*
D17*
G04 #@! TO.P, ,2*
X102430303Y-68580000D03*
D18*
G04 #@! TO.P, ,1*
X110230303Y-68580000D03*
G04 #@! TD*
D15*
G04 #@! TO.P, ,2*
G04 #@! TO.N,N/C*
X103830303Y-87630000D03*
D16*
X104930303Y-87630000D03*
G04 #@! TO.P, ,1*
X107730303Y-87630000D03*
D15*
X108830303Y-87630000D03*
D17*
G04 #@! TO.P, ,2*
X102430303Y-87630000D03*
D18*
G04 #@! TO.P, ,1*
X110230303Y-87630000D03*
G04 #@! TD*
D15*
G04 #@! TO.P, ,2*
G04 #@! TO.N,N/C*
X84780303Y-88900000D03*
D16*
X85880303Y-88900000D03*
G04 #@! TO.P, ,1*
X88680303Y-88900000D03*
D15*
X89780303Y-88900000D03*
D17*
G04 #@! TO.P, ,2*
X83380303Y-88900000D03*
D18*
G04 #@! TO.P, ,1*
X91180303Y-88900000D03*
G04 #@! TD*
D15*
G04 #@! TO.P, ,2*
G04 #@! TO.N,N/C*
X84780303Y-69850000D03*
D16*
X85880303Y-69850000D03*
G04 #@! TO.P, ,1*
X88680303Y-69850000D03*
D15*
X89780303Y-69850000D03*
D17*
G04 #@! TO.P, ,2*
X83380303Y-69850000D03*
D18*
G04 #@! TO.P, ,1*
X91180303Y-69850000D03*
G04 #@! TD*
D15*
G04 #@! TO.P, ,2*
G04 #@! TO.N,N/C*
X65787231Y-90170000D03*
D16*
X66887231Y-90170000D03*
G04 #@! TO.P, ,1*
X69687231Y-90170000D03*
D15*
X70787231Y-90170000D03*
D17*
G04 #@! TO.P, ,2*
X64387231Y-90170000D03*
D18*
G04 #@! TO.P, ,1*
X72187231Y-90170000D03*
G04 #@! TD*
D15*
G04 #@! TO.P, ,2*
G04 #@! TO.N,N/C*
X66295231Y-111490000D03*
D16*
X67395231Y-111490000D03*
G04 #@! TO.P, ,1*
X70195231Y-111490000D03*
D15*
X71295231Y-111490000D03*
D17*
G04 #@! TO.P, ,2*
X64895231Y-111490000D03*
D18*
G04 #@! TO.P, ,1*
X72695231Y-111490000D03*
G04 #@! TD*
D15*
G04 #@! TO.P, ,2*
G04 #@! TO.N,N/C*
X47030000Y-111490000D03*
D16*
X48130000Y-111490000D03*
G04 #@! TO.P, ,1*
X50930000Y-111490000D03*
D15*
X52030000Y-111490000D03*
D17*
G04 #@! TO.P, ,2*
X45630000Y-111490000D03*
D18*
G04 #@! TO.P, ,1*
X53430000Y-111490000D03*
G04 #@! TD*
D15*
G04 #@! TO.P, ,2*
G04 #@! TO.N,N/C*
X47030000Y-92710000D03*
D16*
X48130000Y-92710000D03*
G04 #@! TO.P, ,1*
X50930000Y-92710000D03*
D15*
X52030000Y-92710000D03*
D17*
G04 #@! TO.P, ,2*
X45630000Y-92710000D03*
D18*
G04 #@! TO.P, ,1*
X53430000Y-92710000D03*
G04 #@! TD*
D15*
G04 #@! TO.P, ,2*
G04 #@! TO.N,N/C*
X84780303Y-50800000D03*
D16*
X85880303Y-50800000D03*
G04 #@! TO.P, ,1*
X88680303Y-50800000D03*
D15*
X89780303Y-50800000D03*
D17*
G04 #@! TO.P, ,2*
X83380303Y-50800000D03*
D18*
G04 #@! TO.P, ,1*
X91180303Y-50800000D03*
G04 #@! TD*
D15*
G04 #@! TO.P, ,2*
G04 #@! TO.N,N/C*
X65787231Y-52070000D03*
D16*
X66887231Y-52070000D03*
G04 #@! TO.P, ,1*
X69687231Y-52070000D03*
D15*
X70787231Y-52070000D03*
D17*
G04 #@! TO.P, ,2*
X64387231Y-52070000D03*
D18*
G04 #@! TO.P, ,1*
X72187231Y-52070000D03*
G04 #@! TD*
D15*
G04 #@! TO.P, ,2*
G04 #@! TO.N,N/C*
X65787231Y-71120000D03*
D16*
X66887231Y-71120000D03*
G04 #@! TO.P, ,1*
X69687231Y-71120000D03*
D15*
X70787231Y-71120000D03*
D17*
G04 #@! TO.P, ,2*
X64387231Y-71120000D03*
D18*
G04 #@! TO.P, ,1*
X72187231Y-71120000D03*
G04 #@! TD*
D15*
G04 #@! TO.P, ,2*
G04 #@! TO.N,N/C*
X46522000Y-73660000D03*
D16*
X47622000Y-73660000D03*
G04 #@! TO.P, ,1*
X50422000Y-73660000D03*
D15*
X51522000Y-73660000D03*
D17*
G04 #@! TO.P, ,2*
X45122000Y-73660000D03*
D18*
G04 #@! TO.P, ,1*
X52922000Y-73660000D03*
G04 #@! TD*
D15*
G04 #@! TO.P, ,2*
G04 #@! TO.N,N/C*
X46522000Y-54610000D03*
D16*
X47622000Y-54610000D03*
G04 #@! TO.P, ,1*
X50422000Y-54610000D03*
D15*
X51522000Y-54610000D03*
D17*
G04 #@! TO.P, ,2*
X45122000Y-54610000D03*
D18*
G04 #@! TO.P, ,1*
X52922000Y-54610000D03*
G04 #@! TD*
D19*
G04 #@! TO.P, ,*
G04 #@! TO.N,*
X43962000Y-59554000D03*
X54402000Y-59554000D03*
D20*
G04 #@! TO.P, ,4*
G04 #@! TO.N,N/C*
X47912000Y-58824000D03*
G04 #@! TO.P, ,3*
X50412000Y-58774000D03*
D21*
G04 #@! TO.P, ,1*
G04 #@! TO.N,col0*
X46662000Y-68254000D03*
G04 #@! TO.P, ,2*
G04 #@! TO.N,col0_row0*
X51702000Y-68254000D03*
D22*
G04 #@! TO.P, ,1*
G04 #@! TO.N,col0*
X45372000Y-66294000D03*
G04 #@! TO.P, ,2*
G04 #@! TO.N,col0_row0*
X52992000Y-66294000D03*
D23*
G04 #@! TO.P, ,*
G04 #@! TO.N,*
X44032000Y-58754000D03*
D24*
G04 #@! TO.P, ,2*
G04 #@! TO.N,col0_row0*
X54182000Y-67554000D03*
D23*
G04 #@! TO.P, ,*
G04 #@! TO.N,*
X54332000Y-58754000D03*
G04 #@! TO.P, ,5*
G04 #@! TO.N,N/C*
X49182000Y-69654000D03*
D24*
G04 #@! TO.P, ,1*
G04 #@! TO.N,col0*
X44182000Y-67554000D03*
G04 #@! TD*
D19*
G04 #@! TO.P, ,*
G04 #@! TO.N,*
X139210303Y-58059730D03*
X149650303Y-58059730D03*
D20*
G04 #@! TO.P, ,4*
G04 #@! TO.N,N/C*
X143160303Y-57329730D03*
G04 #@! TO.P, ,3*
X145660303Y-57279730D03*
D21*
G04 #@! TO.P, ,1*
G04 #@! TO.N,col5*
X141910303Y-66759730D03*
G04 #@! TO.P, ,2*
G04 #@! TO.N,col5_row0*
X146950303Y-66759730D03*
D22*
G04 #@! TO.P, ,1*
G04 #@! TO.N,col5*
X140620303Y-64799730D03*
G04 #@! TO.P, ,2*
G04 #@! TO.N,col5_row0*
X148240303Y-64799730D03*
D23*
G04 #@! TO.P, ,*
G04 #@! TO.N,*
X139280303Y-57259730D03*
D24*
G04 #@! TO.P, ,2*
G04 #@! TO.N,col5_row0*
X149430303Y-66059730D03*
D23*
G04 #@! TO.P, ,*
G04 #@! TO.N,*
X149580303Y-57259730D03*
G04 #@! TO.P, ,5*
G04 #@! TO.N,N/C*
X144430303Y-68159730D03*
D24*
G04 #@! TO.P, ,1*
G04 #@! TO.N,col5*
X139430303Y-66059730D03*
G04 #@! TD*
D19*
G04 #@! TO.P, ,*
G04 #@! TO.N,*
X139210303Y-77109730D03*
X149650303Y-77109730D03*
D20*
G04 #@! TO.P, ,4*
G04 #@! TO.N,N/C*
X143160303Y-76379730D03*
G04 #@! TO.P, ,3*
X145660303Y-76329730D03*
D21*
G04 #@! TO.P, ,1*
G04 #@! TO.N,col5*
X141910303Y-85809730D03*
G04 #@! TO.P, ,2*
G04 #@! TO.N,col5_row1*
X146950303Y-85809730D03*
D22*
G04 #@! TO.P, ,1*
G04 #@! TO.N,col5*
X140620303Y-83849730D03*
G04 #@! TO.P, ,2*
G04 #@! TO.N,col5_row1*
X148240303Y-83849730D03*
D23*
G04 #@! TO.P, ,*
G04 #@! TO.N,*
X139280303Y-76309730D03*
D24*
G04 #@! TO.P, ,2*
G04 #@! TO.N,col5_row1*
X149430303Y-85109730D03*
D23*
G04 #@! TO.P, ,*
G04 #@! TO.N,*
X149580303Y-76309730D03*
G04 #@! TO.P, ,5*
G04 #@! TO.N,N/C*
X144430303Y-87209730D03*
D24*
G04 #@! TO.P, ,1*
G04 #@! TO.N,col5*
X139430303Y-85109730D03*
G04 #@! TD*
D19*
G04 #@! TO.P, ,*
G04 #@! TO.N,*
X139210303Y-96159730D03*
X149650303Y-96159730D03*
D20*
G04 #@! TO.P, ,4*
G04 #@! TO.N,N/C*
X143160303Y-95429730D03*
G04 #@! TO.P, ,3*
X145660303Y-95379730D03*
D21*
G04 #@! TO.P, ,1*
G04 #@! TO.N,col5*
X141910303Y-104859730D03*
G04 #@! TO.P, ,2*
G04 #@! TO.N,col5_row2*
X146950303Y-104859730D03*
D22*
G04 #@! TO.P, ,1*
G04 #@! TO.N,col5*
X140620303Y-102899730D03*
G04 #@! TO.P, ,2*
G04 #@! TO.N,col5_row2*
X148240303Y-102899730D03*
D23*
G04 #@! TO.P, ,*
G04 #@! TO.N,*
X139280303Y-95359730D03*
D24*
G04 #@! TO.P, ,2*
G04 #@! TO.N,col5_row2*
X149430303Y-104159730D03*
D23*
G04 #@! TO.P, ,*
G04 #@! TO.N,*
X149580303Y-95359730D03*
G04 #@! TO.P, ,5*
G04 #@! TO.N,N/C*
X144430303Y-106259730D03*
D24*
G04 #@! TO.P, ,1*
G04 #@! TO.N,col5*
X139430303Y-104159730D03*
G04 #@! TD*
D19*
G04 #@! TO.P, ,*
G04 #@! TO.N,*
X139210303Y-116733730D03*
X149650303Y-116733730D03*
D20*
G04 #@! TO.P, ,4*
G04 #@! TO.N,N/C*
X143160303Y-116003730D03*
G04 #@! TO.P, ,3*
X145660303Y-115953730D03*
D21*
G04 #@! TO.P, ,1*
G04 #@! TO.N,col5*
X141910303Y-125433730D03*
G04 #@! TO.P, ,2*
G04 #@! TO.N,col5_row3*
X146950303Y-125433730D03*
D22*
G04 #@! TO.P, ,1*
G04 #@! TO.N,col5*
X140620303Y-123473730D03*
G04 #@! TO.P, ,2*
G04 #@! TO.N,col5_row3*
X148240303Y-123473730D03*
D23*
G04 #@! TO.P, ,*
G04 #@! TO.N,*
X139280303Y-115933730D03*
D24*
G04 #@! TO.P, ,2*
G04 #@! TO.N,col5_row3*
X149430303Y-124733730D03*
D23*
G04 #@! TO.P, ,*
G04 #@! TO.N,*
X149580303Y-115933730D03*
G04 #@! TO.P, ,5*
G04 #@! TO.N,N/C*
X144430303Y-126833730D03*
D24*
G04 #@! TO.P, ,1*
G04 #@! TO.N,col5*
X139430303Y-124733730D03*
G04 #@! TD*
D19*
G04 #@! TO.P, ,*
G04 #@! TO.N,*
X120160303Y-116733730D03*
X130600303Y-116733730D03*
D20*
G04 #@! TO.P, ,4*
G04 #@! TO.N,N/C*
X124110303Y-116003730D03*
G04 #@! TO.P, ,3*
X126610303Y-115953730D03*
D21*
G04 #@! TO.P, ,1*
G04 #@! TO.N,col4*
X122860303Y-125433730D03*
G04 #@! TO.P, ,2*
G04 #@! TO.N,col4_row3*
X127900303Y-125433730D03*
D22*
G04 #@! TO.P, ,1*
G04 #@! TO.N,col4*
X121570303Y-123473730D03*
G04 #@! TO.P, ,2*
G04 #@! TO.N,col4_row3*
X129190303Y-123473730D03*
D23*
G04 #@! TO.P, ,*
G04 #@! TO.N,*
X120230303Y-115933730D03*
D24*
G04 #@! TO.P, ,2*
G04 #@! TO.N,col4_row3*
X130380303Y-124733730D03*
D23*
G04 #@! TO.P, ,*
G04 #@! TO.N,*
X130530303Y-115933730D03*
G04 #@! TO.P, ,5*
G04 #@! TO.N,N/C*
X125380303Y-126833730D03*
D24*
G04 #@! TO.P, ,1*
G04 #@! TO.N,col4*
X120380303Y-124733730D03*
G04 #@! TD*
D19*
G04 #@! TO.P, ,*
G04 #@! TO.N,*
X101110303Y-116733730D03*
X111550303Y-116733730D03*
D20*
G04 #@! TO.P, ,4*
G04 #@! TO.N,N/C*
X105060303Y-116003730D03*
G04 #@! TO.P, ,3*
X107560303Y-115953730D03*
D21*
G04 #@! TO.P, ,1*
G04 #@! TO.N,col3*
X103810303Y-125433730D03*
G04 #@! TO.P, ,2*
G04 #@! TO.N,col3_row3*
X108850303Y-125433730D03*
D22*
G04 #@! TO.P, ,1*
G04 #@! TO.N,col3*
X102520303Y-123473730D03*
G04 #@! TO.P, ,2*
G04 #@! TO.N,col3_row3*
X110140303Y-123473730D03*
D23*
G04 #@! TO.P, ,*
G04 #@! TO.N,*
X101180303Y-115933730D03*
D24*
G04 #@! TO.P, ,2*
G04 #@! TO.N,col3_row3*
X111330303Y-124733730D03*
D23*
G04 #@! TO.P, ,*
G04 #@! TO.N,*
X111480303Y-115933730D03*
G04 #@! TO.P, ,5*
G04 #@! TO.N,N/C*
X106330303Y-126833730D03*
D24*
G04 #@! TO.P, ,1*
G04 #@! TO.N,col3*
X101330303Y-124733730D03*
G04 #@! TD*
D19*
G04 #@! TO.P, ,*
G04 #@! TO.N,*
X82060303Y-116733730D03*
X92500303Y-116733730D03*
D20*
G04 #@! TO.P, ,4*
G04 #@! TO.N,N/C*
X86010303Y-116003730D03*
G04 #@! TO.P, ,3*
X88510303Y-115953730D03*
D21*
G04 #@! TO.P, ,1*
G04 #@! TO.N,col2*
X84760303Y-125433730D03*
G04 #@! TO.P, ,2*
G04 #@! TO.N,col2_row3*
X89800303Y-125433730D03*
D22*
G04 #@! TO.P, ,1*
G04 #@! TO.N,col2*
X83470303Y-123473730D03*
G04 #@! TO.P, ,2*
G04 #@! TO.N,col2_row3*
X91090303Y-123473730D03*
D23*
G04 #@! TO.P, ,*
G04 #@! TO.N,*
X82130303Y-115933730D03*
D24*
G04 #@! TO.P, ,2*
G04 #@! TO.N,col2_row3*
X92280303Y-124733730D03*
D23*
G04 #@! TO.P, ,*
G04 #@! TO.N,*
X92430303Y-115933730D03*
G04 #@! TO.P, ,5*
G04 #@! TO.N,N/C*
X87280303Y-126833730D03*
D24*
G04 #@! TO.P, ,1*
G04 #@! TO.N,col2*
X82280303Y-124733730D03*
G04 #@! TD*
D19*
G04 #@! TO.P, ,*
G04 #@! TO.N,*
X120160303Y-93619730D03*
X130600303Y-93619730D03*
D20*
G04 #@! TO.P, ,4*
G04 #@! TO.N,N/C*
X124110303Y-92889730D03*
G04 #@! TO.P, ,3*
X126610303Y-92839730D03*
D21*
G04 #@! TO.P, ,1*
G04 #@! TO.N,col4*
X122860303Y-102319730D03*
G04 #@! TO.P, ,2*
G04 #@! TO.N,col4_row2*
X127900303Y-102319730D03*
D22*
G04 #@! TO.P, ,1*
G04 #@! TO.N,col4*
X121570303Y-100359730D03*
G04 #@! TO.P, ,2*
G04 #@! TO.N,col4_row2*
X129190303Y-100359730D03*
D23*
G04 #@! TO.P, ,*
G04 #@! TO.N,*
X120230303Y-92819730D03*
D24*
G04 #@! TO.P, ,2*
G04 #@! TO.N,col4_row2*
X130380303Y-101619730D03*
D23*
G04 #@! TO.P, ,*
G04 #@! TO.N,*
X130530303Y-92819730D03*
G04 #@! TO.P, ,5*
G04 #@! TO.N,N/C*
X125380303Y-103719730D03*
D24*
G04 #@! TO.P, ,1*
G04 #@! TO.N,col4*
X120380303Y-101619730D03*
G04 #@! TD*
D19*
G04 #@! TO.P, ,*
G04 #@! TO.N,*
X120160303Y-74569730D03*
X130600303Y-74569730D03*
D20*
G04 #@! TO.P, ,4*
G04 #@! TO.N,N/C*
X124110303Y-73839730D03*
G04 #@! TO.P, ,3*
X126610303Y-73789730D03*
D21*
G04 #@! TO.P, ,1*
G04 #@! TO.N,col4*
X122860303Y-83269730D03*
G04 #@! TO.P, ,2*
G04 #@! TO.N,col4_row1*
X127900303Y-83269730D03*
D22*
G04 #@! TO.P, ,1*
G04 #@! TO.N,col4*
X121570303Y-81309730D03*
G04 #@! TO.P, ,2*
G04 #@! TO.N,col4_row1*
X129190303Y-81309730D03*
D23*
G04 #@! TO.P, ,*
G04 #@! TO.N,*
X120230303Y-73769730D03*
D24*
G04 #@! TO.P, ,2*
G04 #@! TO.N,col4_row1*
X130380303Y-82569730D03*
D23*
G04 #@! TO.P, ,*
G04 #@! TO.N,*
X130530303Y-73769730D03*
G04 #@! TO.P, ,5*
G04 #@! TO.N,N/C*
X125380303Y-84669730D03*
D24*
G04 #@! TO.P, ,1*
G04 #@! TO.N,col4*
X120380303Y-82569730D03*
G04 #@! TD*
D19*
G04 #@! TO.P, ,*
G04 #@! TO.N,*
X120160303Y-55519730D03*
X130600303Y-55519730D03*
D20*
G04 #@! TO.P, ,4*
G04 #@! TO.N,N/C*
X124110303Y-54789730D03*
G04 #@! TO.P, ,3*
X126610303Y-54739730D03*
D21*
G04 #@! TO.P, ,1*
G04 #@! TO.N,col4*
X122860303Y-64219730D03*
G04 #@! TO.P, ,2*
G04 #@! TO.N,col4_row0*
X127900303Y-64219730D03*
D22*
G04 #@! TO.P, ,1*
G04 #@! TO.N,col4*
X121570303Y-62259730D03*
G04 #@! TO.P, ,2*
G04 #@! TO.N,col4_row0*
X129190303Y-62259730D03*
D23*
G04 #@! TO.P, ,*
G04 #@! TO.N,*
X120230303Y-54719730D03*
D24*
G04 #@! TO.P, ,2*
G04 #@! TO.N,col4_row0*
X130380303Y-63519730D03*
D23*
G04 #@! TO.P, ,*
G04 #@! TO.N,*
X130530303Y-54719730D03*
G04 #@! TO.P, ,5*
G04 #@! TO.N,N/C*
X125380303Y-65619730D03*
D24*
G04 #@! TO.P, ,1*
G04 #@! TO.N,col4*
X120380303Y-63519730D03*
G04 #@! TD*
D19*
G04 #@! TO.P, ,*
G04 #@! TO.N,*
X101110303Y-54249730D03*
X111550303Y-54249730D03*
D20*
G04 #@! TO.P, ,4*
G04 #@! TO.N,N/C*
X105060303Y-53519730D03*
G04 #@! TO.P, ,3*
X107560303Y-53469730D03*
D21*
G04 #@! TO.P, ,1*
G04 #@! TO.N,col3*
X103810303Y-62949730D03*
G04 #@! TO.P, ,2*
G04 #@! TO.N,col3_row0*
X108850303Y-62949730D03*
D22*
G04 #@! TO.P, ,1*
G04 #@! TO.N,col3*
X102520303Y-60989730D03*
G04 #@! TO.P, ,2*
G04 #@! TO.N,col3_row0*
X110140303Y-60989730D03*
D23*
G04 #@! TO.P, ,*
G04 #@! TO.N,*
X101180303Y-53449730D03*
D24*
G04 #@! TO.P, ,2*
G04 #@! TO.N,col3_row0*
X111330303Y-62249730D03*
D23*
G04 #@! TO.P, ,*
G04 #@! TO.N,*
X111480303Y-53449730D03*
G04 #@! TO.P, ,5*
G04 #@! TO.N,N/C*
X106330303Y-64349730D03*
D24*
G04 #@! TO.P, ,1*
G04 #@! TO.N,col3*
X101330303Y-62249730D03*
G04 #@! TD*
D19*
G04 #@! TO.P, ,*
G04 #@! TO.N,*
X101110303Y-73299730D03*
X111550303Y-73299730D03*
D20*
G04 #@! TO.P, ,4*
G04 #@! TO.N,N/C*
X105060303Y-72569730D03*
G04 #@! TO.P, ,3*
X107560303Y-72519730D03*
D21*
G04 #@! TO.P, ,1*
G04 #@! TO.N,col3*
X103810303Y-81999730D03*
G04 #@! TO.P, ,2*
G04 #@! TO.N,col3_row1*
X108850303Y-81999730D03*
D22*
G04 #@! TO.P, ,1*
G04 #@! TO.N,col3*
X102520303Y-80039730D03*
G04 #@! TO.P, ,2*
G04 #@! TO.N,col3_row1*
X110140303Y-80039730D03*
D23*
G04 #@! TO.P, ,*
G04 #@! TO.N,*
X101180303Y-72499730D03*
D24*
G04 #@! TO.P, ,2*
G04 #@! TO.N,col3_row1*
X111330303Y-81299730D03*
D23*
G04 #@! TO.P, ,*
G04 #@! TO.N,*
X111480303Y-72499730D03*
G04 #@! TO.P, ,5*
G04 #@! TO.N,N/C*
X106330303Y-83399730D03*
D24*
G04 #@! TO.P, ,1*
G04 #@! TO.N,col3*
X101330303Y-81299730D03*
G04 #@! TD*
D19*
G04 #@! TO.P, ,*
G04 #@! TO.N,*
X101110303Y-92349730D03*
X111550303Y-92349730D03*
D20*
G04 #@! TO.P, ,4*
G04 #@! TO.N,N/C*
X105060303Y-91619730D03*
G04 #@! TO.P, ,3*
X107560303Y-91569730D03*
D21*
G04 #@! TO.P, ,1*
G04 #@! TO.N,col3*
X103810303Y-101049730D03*
G04 #@! TO.P, ,2*
G04 #@! TO.N,col3_row2*
X108850303Y-101049730D03*
D22*
G04 #@! TO.P, ,1*
G04 #@! TO.N,col3*
X102520303Y-99089730D03*
G04 #@! TO.P, ,2*
G04 #@! TO.N,col3_row2*
X110140303Y-99089730D03*
D23*
G04 #@! TO.P, ,*
G04 #@! TO.N,*
X101180303Y-91549730D03*
D24*
G04 #@! TO.P, ,2*
G04 #@! TO.N,col3_row2*
X111330303Y-100349730D03*
D23*
G04 #@! TO.P, ,*
G04 #@! TO.N,*
X111480303Y-91549730D03*
G04 #@! TO.P, ,5*
G04 #@! TO.N,N/C*
X106330303Y-102449730D03*
D24*
G04 #@! TO.P, ,1*
G04 #@! TO.N,col3*
X101330303Y-100349730D03*
G04 #@! TD*
D19*
G04 #@! TO.P, ,*
G04 #@! TO.N,*
X82060303Y-93873730D03*
X92500303Y-93873730D03*
D20*
G04 #@! TO.P, ,4*
G04 #@! TO.N,N/C*
X86010303Y-93143730D03*
G04 #@! TO.P, ,3*
X88510303Y-93093730D03*
D21*
G04 #@! TO.P, ,1*
G04 #@! TO.N,col2*
X84760303Y-102573730D03*
G04 #@! TO.P, ,2*
G04 #@! TO.N,col2_row2*
X89800303Y-102573730D03*
D22*
G04 #@! TO.P, ,1*
G04 #@! TO.N,col2*
X83470303Y-100613730D03*
G04 #@! TO.P, ,2*
G04 #@! TO.N,col2_row2*
X91090303Y-100613730D03*
D23*
G04 #@! TO.P, ,*
G04 #@! TO.N,*
X82130303Y-93073730D03*
D24*
G04 #@! TO.P, ,2*
G04 #@! TO.N,col2_row2*
X92280303Y-101873730D03*
D23*
G04 #@! TO.P, ,*
G04 #@! TO.N,*
X92430303Y-93073730D03*
G04 #@! TO.P, ,5*
G04 #@! TO.N,N/C*
X87280303Y-103973730D03*
D24*
G04 #@! TO.P, ,1*
G04 #@! TO.N,col2*
X82280303Y-101873730D03*
G04 #@! TD*
D19*
G04 #@! TO.P, ,*
G04 #@! TO.N,*
X82060303Y-74823730D03*
X92500303Y-74823730D03*
D20*
G04 #@! TO.P, ,4*
G04 #@! TO.N,N/C*
X86010303Y-74093730D03*
G04 #@! TO.P, ,3*
X88510303Y-74043730D03*
D21*
G04 #@! TO.P, ,1*
G04 #@! TO.N,col2*
X84760303Y-83523730D03*
G04 #@! TO.P, ,2*
G04 #@! TO.N,col2_row1*
X89800303Y-83523730D03*
D22*
G04 #@! TO.P, ,1*
G04 #@! TO.N,col2*
X83470303Y-81563730D03*
G04 #@! TO.P, ,2*
G04 #@! TO.N,col2_row1*
X91090303Y-81563730D03*
D23*
G04 #@! TO.P, ,*
G04 #@! TO.N,*
X82130303Y-74023730D03*
D24*
G04 #@! TO.P, ,2*
G04 #@! TO.N,col2_row1*
X92280303Y-82823730D03*
D23*
G04 #@! TO.P, ,*
G04 #@! TO.N,*
X92430303Y-74023730D03*
G04 #@! TO.P, ,5*
G04 #@! TO.N,N/C*
X87280303Y-84923730D03*
D24*
G04 #@! TO.P, ,1*
G04 #@! TO.N,col2*
X82280303Y-82823730D03*
G04 #@! TD*
D19*
G04 #@! TO.P, ,*
G04 #@! TO.N,*
X82060303Y-55769730D03*
X92500303Y-55769730D03*
D20*
G04 #@! TO.P, ,4*
G04 #@! TO.N,N/C*
X86010303Y-55039730D03*
G04 #@! TO.P, ,3*
X88510303Y-54989730D03*
D21*
G04 #@! TO.P, ,1*
G04 #@! TO.N,col2*
X84760303Y-64469730D03*
G04 #@! TO.P, ,2*
G04 #@! TO.N,col2_row0*
X89800303Y-64469730D03*
D22*
G04 #@! TO.P, ,1*
G04 #@! TO.N,col2*
X83470303Y-62509730D03*
G04 #@! TO.P, ,2*
G04 #@! TO.N,col2_row0*
X91090303Y-62509730D03*
D23*
G04 #@! TO.P, ,*
G04 #@! TO.N,*
X82130303Y-54969730D03*
D24*
G04 #@! TO.P, ,2*
G04 #@! TO.N,col2_row0*
X92280303Y-63769730D03*
D23*
G04 #@! TO.P, ,*
G04 #@! TO.N,*
X92430303Y-54969730D03*
G04 #@! TO.P, ,5*
G04 #@! TO.N,N/C*
X87280303Y-65869730D03*
D24*
G04 #@! TO.P, ,1*
G04 #@! TO.N,col2*
X82280303Y-63769730D03*
G04 #@! TD*
D19*
G04 #@! TO.P, ,*
G04 #@! TO.N,*
X63007231Y-57003730D03*
X73447231Y-57003730D03*
D20*
G04 #@! TO.P, ,4*
G04 #@! TO.N,N/C*
X66957231Y-56273730D03*
G04 #@! TO.P, ,3*
X69457231Y-56223730D03*
D21*
G04 #@! TO.P, ,1*
G04 #@! TO.N,col1*
X65707231Y-65703730D03*
G04 #@! TO.P, ,2*
G04 #@! TO.N,col1_row0*
X70747231Y-65703730D03*
D22*
G04 #@! TO.P, ,1*
G04 #@! TO.N,col1*
X64417231Y-63743730D03*
G04 #@! TO.P, ,2*
G04 #@! TO.N,col1_row0*
X72037231Y-63743730D03*
D23*
G04 #@! TO.P, ,*
G04 #@! TO.N,*
X63077231Y-56203730D03*
D24*
G04 #@! TO.P, ,2*
G04 #@! TO.N,col1_row0*
X73227231Y-65003730D03*
D23*
G04 #@! TO.P, ,*
G04 #@! TO.N,*
X73377231Y-56203730D03*
G04 #@! TO.P, ,5*
G04 #@! TO.N,N/C*
X68227231Y-67103730D03*
D24*
G04 #@! TO.P, ,1*
G04 #@! TO.N,col1*
X63227231Y-65003730D03*
G04 #@! TD*
D19*
G04 #@! TO.P, ,*
G04 #@! TO.N,*
X63007231Y-76051829D03*
X73447231Y-76051829D03*
D20*
G04 #@! TO.P, ,4*
G04 #@! TO.N,N/C*
X66957231Y-75321829D03*
G04 #@! TO.P, ,3*
X69457231Y-75271829D03*
D21*
G04 #@! TO.P, ,1*
G04 #@! TO.N,col1*
X65707231Y-84751829D03*
G04 #@! TO.P, ,2*
G04 #@! TO.N,col1_row1*
X70747231Y-84751829D03*
D22*
G04 #@! TO.P, ,1*
G04 #@! TO.N,col1*
X64417231Y-82791829D03*
G04 #@! TO.P, ,2*
G04 #@! TO.N,col1_row1*
X72037231Y-82791829D03*
D23*
G04 #@! TO.P, ,*
G04 #@! TO.N,*
X63077231Y-75251829D03*
D24*
G04 #@! TO.P, ,2*
G04 #@! TO.N,col1_row1*
X73227231Y-84051829D03*
D23*
G04 #@! TO.P, ,*
G04 #@! TO.N,*
X73377231Y-75251829D03*
G04 #@! TO.P, ,5*
G04 #@! TO.N,N/C*
X68227231Y-86151829D03*
D24*
G04 #@! TO.P, ,1*
G04 #@! TO.N,col1*
X63227231Y-84051829D03*
G04 #@! TD*
D19*
G04 #@! TO.P, ,*
G04 #@! TO.N,*
X63007231Y-95100230D03*
X73447231Y-95100230D03*
D20*
G04 #@! TO.P, ,4*
G04 #@! TO.N,N/C*
X66957231Y-94370230D03*
G04 #@! TO.P, ,3*
X69457231Y-94320230D03*
D21*
G04 #@! TO.P, ,1*
G04 #@! TO.N,col1*
X65707231Y-103800230D03*
G04 #@! TO.P, ,2*
G04 #@! TO.N,col1_row2*
X70747231Y-103800230D03*
D22*
G04 #@! TO.P, ,1*
G04 #@! TO.N,col1*
X64417231Y-101840230D03*
G04 #@! TO.P, ,2*
G04 #@! TO.N,col1_row2*
X72037231Y-101840230D03*
D23*
G04 #@! TO.P, ,*
G04 #@! TO.N,*
X63077231Y-94300230D03*
D24*
G04 #@! TO.P, ,2*
G04 #@! TO.N,col1_row2*
X73227231Y-103100230D03*
D23*
G04 #@! TO.P, ,*
G04 #@! TO.N,*
X73377231Y-94300230D03*
G04 #@! TO.P, ,5*
G04 #@! TO.N,N/C*
X68227231Y-105200230D03*
D24*
G04 #@! TO.P, ,1*
G04 #@! TO.N,col1*
X63227231Y-103100230D03*
G04 #@! TD*
D19*
G04 #@! TO.P, ,*
G04 #@! TO.N,*
X63007231Y-116733730D03*
X73447231Y-116733730D03*
D20*
G04 #@! TO.P, ,4*
G04 #@! TO.N,N/C*
X66957231Y-116003730D03*
G04 #@! TO.P, ,3*
X69457231Y-115953730D03*
D21*
G04 #@! TO.P, ,1*
G04 #@! TO.N,col1*
X65707231Y-125433730D03*
G04 #@! TO.P, ,2*
G04 #@! TO.N,col1_row3*
X70747231Y-125433730D03*
D22*
G04 #@! TO.P, ,1*
G04 #@! TO.N,col1*
X64417231Y-123473730D03*
G04 #@! TO.P, ,2*
G04 #@! TO.N,col1_row3*
X72037231Y-123473730D03*
D23*
G04 #@! TO.P, ,*
G04 #@! TO.N,*
X63077231Y-115933730D03*
D24*
G04 #@! TO.P, ,2*
G04 #@! TO.N,col1_row3*
X73227231Y-124733730D03*
D23*
G04 #@! TO.P, ,*
G04 #@! TO.N,*
X73377231Y-115933730D03*
G04 #@! TO.P, ,5*
G04 #@! TO.N,N/C*
X68227231Y-126833730D03*
D24*
G04 #@! TO.P, ,1*
G04 #@! TO.N,col1*
X63227231Y-124733730D03*
G04 #@! TD*
D19*
G04 #@! TO.P, ,*
G04 #@! TO.N,*
X43962000Y-116704000D03*
X54402000Y-116704000D03*
D20*
G04 #@! TO.P, ,4*
G04 #@! TO.N,N/C*
X47912000Y-115974000D03*
G04 #@! TO.P, ,3*
X50412000Y-115924000D03*
D21*
G04 #@! TO.P, ,1*
G04 #@! TO.N,col0*
X46662000Y-125404000D03*
G04 #@! TO.P, ,2*
G04 #@! TO.N,col0_row3*
X51702000Y-125404000D03*
D22*
G04 #@! TO.P, ,1*
G04 #@! TO.N,col0*
X45372000Y-123444000D03*
G04 #@! TO.P, ,2*
G04 #@! TO.N,col0_row3*
X52992000Y-123444000D03*
D23*
G04 #@! TO.P, ,*
G04 #@! TO.N,*
X44032000Y-115904000D03*
D24*
G04 #@! TO.P, ,2*
G04 #@! TO.N,col0_row3*
X54182000Y-124704000D03*
D23*
G04 #@! TO.P, ,*
G04 #@! TO.N,*
X54332000Y-115904000D03*
G04 #@! TO.P, ,5*
G04 #@! TO.N,N/C*
X49182000Y-126804000D03*
D24*
G04 #@! TO.P, ,1*
G04 #@! TO.N,col0*
X44182000Y-124704000D03*
G04 #@! TD*
D19*
G04 #@! TO.P, ,*
G04 #@! TO.N,*
X43962000Y-97654000D03*
X54402000Y-97654000D03*
D20*
G04 #@! TO.P, ,4*
G04 #@! TO.N,N/C*
X47912000Y-96924000D03*
G04 #@! TO.P, ,3*
X50412000Y-96874000D03*
D21*
G04 #@! TO.P, ,1*
G04 #@! TO.N,col0*
X46662000Y-106354000D03*
G04 #@! TO.P, ,2*
G04 #@! TO.N,col0_row2*
X51702000Y-106354000D03*
D22*
G04 #@! TO.P, ,1*
G04 #@! TO.N,col0*
X45372000Y-104394000D03*
G04 #@! TO.P, ,2*
G04 #@! TO.N,col0_row2*
X52992000Y-104394000D03*
D23*
G04 #@! TO.P, ,*
G04 #@! TO.N,*
X44032000Y-96854000D03*
D24*
G04 #@! TO.P, ,2*
G04 #@! TO.N,col0_row2*
X54182000Y-105654000D03*
D23*
G04 #@! TO.P, ,*
G04 #@! TO.N,*
X54332000Y-96854000D03*
G04 #@! TO.P, ,5*
G04 #@! TO.N,N/C*
X49182000Y-107754000D03*
D24*
G04 #@! TO.P, ,1*
G04 #@! TO.N,col0*
X44182000Y-105654000D03*
G04 #@! TD*
D19*
G04 #@! TO.P, ,*
G04 #@! TO.N,*
X43962000Y-78604000D03*
X54402000Y-78604000D03*
D20*
G04 #@! TO.P, ,4*
G04 #@! TO.N,N/C*
X47912000Y-77874000D03*
G04 #@! TO.P, ,3*
X50412000Y-77824000D03*
D21*
G04 #@! TO.P, ,1*
G04 #@! TO.N,col0*
X46662000Y-87304000D03*
G04 #@! TO.P, ,2*
G04 #@! TO.N,col0_row1*
X51702000Y-87304000D03*
D22*
G04 #@! TO.P, ,1*
G04 #@! TO.N,col0*
X45372000Y-85344000D03*
G04 #@! TO.P, ,2*
G04 #@! TO.N,col0_row1*
X52992000Y-85344000D03*
D23*
G04 #@! TO.P, ,*
G04 #@! TO.N,*
X44032000Y-77804000D03*
D24*
G04 #@! TO.P, ,2*
G04 #@! TO.N,col0_row1*
X54182000Y-86604000D03*
D23*
G04 #@! TO.P, ,*
G04 #@! TO.N,*
X54332000Y-77804000D03*
G04 #@! TO.P, ,5*
G04 #@! TO.N,N/C*
X49182000Y-88704000D03*
D24*
G04 #@! TO.P, ,1*
G04 #@! TO.N,col0*
X44182000Y-86604000D03*
G04 #@! TD*
D25*
G04 #@! TO.P, ,1*
G04 #@! TO.N,N/C*
X137632000Y-129126000D03*
G04 #@! TO.P, ,2*
G04 #@! TO.N,BAT_SW*
X134632000Y-129126000D03*
G04 #@! TO.P, ,3*
G04 #@! TO.N,BAT_GND*
X133132000Y-129126000D03*
D26*
G04 #@! TO.P, ,*
G04 #@! TO.N,*
X139032000Y-131986000D03*
X131732000Y-131986000D03*
X131732000Y-129776000D03*
X139032000Y-129776000D03*
G04 #@! TD*
D27*
G04 #@! TO.P, ,2*
G04 #@! TO.N,RESET_GND*
X47068000Y-47498000D03*
G04 #@! TO.P, ,1*
G04 #@! TO.N,RESET*
X50468000Y-47498000D03*
G04 #@! TD*
D28*
G04 #@! TO.N,row3*
X78644884Y-111664884D03*
X91506652Y-110423348D03*
G04 #@! TO.N,col2*
X60960000Y-85090000D03*
X60960000Y-85090000D03*
X60960000Y-109220000D03*
G04 #@! TO.N,col3*
X96520000Y-63500000D03*
G04 #@! TO.N,row1*
X76200000Y-80010000D03*
X91117653Y-70797653D03*
G04 #@! TO.N,row2*
X58420000Y-69850000D03*
X75855001Y-89244999D03*
X91117653Y-87952347D03*
G04 #@! TO.N,BAT_SW*
X134839001Y-128050999D03*
G04 #@! TO.N,BAT_GND*
X132060501Y-130829499D03*
G04 #@! TO.N,RESET*
X51562000Y-47498000D03*
G04 #@! TO.N,RESET_GND*
X51656999Y-48673001D03*
G04 #@! TD*
D29*
G04 #@! TO.N,col1_row0*
X64012230Y-52580001D02*
X64012230Y-52070000D01*
X64652232Y-53220003D02*
X64012230Y-52580001D01*
X64652232Y-56453733D02*
X64652232Y-53220003D01*
X65947230Y-57748731D02*
X64652232Y-56453733D01*
X68953234Y-57748731D02*
X65947230Y-57748731D01*
X72037231Y-60832728D02*
X68953234Y-57748731D01*
X72037231Y-63743730D02*
X72037231Y-60832728D01*
G04 #@! TO.N,row3*
X92063304Y-110979999D02*
X92063304Y-111490000D01*
X91448304Y-110364999D02*
X91506652Y-110423348D01*
X83348302Y-110364999D02*
X91448304Y-110364999D01*
X82048417Y-111664884D02*
X83348302Y-110364999D01*
X78644884Y-111664884D02*
X82048417Y-111664884D01*
X91506652Y-110423348D02*
X92063304Y-110979999D01*
G04 #@! TO.N,col0*
X44229001Y-105536999D02*
X45372000Y-104394000D01*
X44229001Y-111754003D02*
X44229001Y-105536999D01*
X45607001Y-113132003D02*
X44229001Y-111754003D01*
X45607001Y-123208999D02*
X45607001Y-113132003D01*
X45372000Y-123444000D02*
X45607001Y-123208999D01*
X44504999Y-86211001D02*
X45372000Y-85344000D01*
X44504999Y-93250001D02*
X44504999Y-86211001D01*
X46170001Y-94915003D02*
X44504999Y-93250001D01*
X46170001Y-103595999D02*
X46170001Y-94915003D01*
X45372000Y-104394000D02*
X46170001Y-103595999D01*
X43996999Y-67669001D02*
X45372000Y-66294000D01*
X43996999Y-74200001D02*
X43996999Y-67669001D01*
X45607001Y-85108999D02*
X45607001Y-75810003D01*
X45607001Y-75810003D02*
X43996999Y-74200001D01*
X45372000Y-85344000D02*
X45607001Y-85108999D01*
X59288230Y-71229001D02*
X60667231Y-69850000D01*
X45372000Y-68175002D02*
X48425999Y-71229001D01*
X48425999Y-71229001D02*
X59288230Y-71229001D01*
X45372000Y-66294000D02*
X45372000Y-68175002D01*
G04 #@! TO.N,col1*
X63274232Y-102983229D02*
X64417231Y-101840230D01*
X63274232Y-111534003D02*
X63274232Y-102983229D01*
X64652232Y-112912003D02*
X63274232Y-111534003D01*
X64652232Y-123238729D02*
X64652232Y-112912003D01*
X64417231Y-123473730D02*
X64652232Y-123238729D01*
X63262230Y-83946830D02*
X64417231Y-82791829D01*
X63262230Y-90710001D02*
X63262230Y-83946830D01*
X64927232Y-92375003D02*
X63262230Y-90710001D01*
X64927232Y-101330229D02*
X64927232Y-92375003D01*
X64417231Y-101840230D02*
X64927232Y-101330229D01*
X64652232Y-82556828D02*
X64417231Y-82791829D01*
X63227231Y-71607926D02*
X64652232Y-73032927D01*
X63227231Y-65003730D02*
X63227231Y-71607926D01*
X62230000Y-77470000D02*
X64652232Y-79892232D01*
X60667231Y-77470000D02*
X62230000Y-77470000D01*
X64652232Y-79892232D02*
X64652232Y-82556828D01*
X64652232Y-73032927D02*
X64652232Y-79892232D01*
G04 #@! TO.N,col2*
X60960000Y-85090000D02*
X60960000Y-109220000D01*
X60960000Y-109220000D02*
X60960000Y-109220000D01*
G04 #@! TO.N,col3*
X101330303Y-111547002D02*
X101330303Y-100349730D01*
X102755304Y-112972003D02*
X101330303Y-111547002D01*
X102755304Y-123238729D02*
X102755304Y-112972003D01*
X102520303Y-123473730D02*
X102755304Y-123238729D01*
X101305302Y-88170001D02*
X101305302Y-81324731D01*
X102970304Y-89835003D02*
X101305302Y-88170001D01*
X102970304Y-98639729D02*
X102970304Y-89835003D01*
X101305302Y-81324731D02*
X101330303Y-81299730D01*
X102520303Y-99089730D02*
X102970304Y-98639729D01*
X101305302Y-69120001D02*
X101305302Y-62274731D01*
X102970304Y-70785003D02*
X101305302Y-69120001D01*
X102970304Y-79589729D02*
X102970304Y-70785003D01*
X101305302Y-62274731D02*
X101330303Y-62249730D01*
X102520303Y-80039730D02*
X102970304Y-79589729D01*
X79572232Y-68724999D02*
X91295001Y-68724999D01*
X75907231Y-72390000D02*
X79572232Y-68724999D01*
X91295001Y-68724999D02*
X96520000Y-63500000D01*
X96520000Y-63500000D02*
X96520000Y-63500000D01*
G04 #@! TO.N,col4*
X120380303Y-111547002D02*
X120380303Y-101619730D01*
X121805304Y-123238729D02*
X121805304Y-112972003D01*
X121805304Y-112972003D02*
X120380303Y-111547002D01*
X121570303Y-123473730D02*
X121805304Y-123238729D01*
X120355302Y-82594731D02*
X120380303Y-82569730D01*
X120355302Y-89440001D02*
X120355302Y-82594731D01*
X122020304Y-91105003D02*
X120355302Y-89440001D01*
X122020304Y-99909729D02*
X122020304Y-91105003D01*
X121570303Y-100359730D02*
X122020304Y-99909729D01*
X119280304Y-64619729D02*
X120380303Y-63519730D01*
X119280304Y-69315003D02*
X119280304Y-64619729D01*
X121805304Y-71840003D02*
X119280304Y-69315003D01*
X121805304Y-74525731D02*
X121805304Y-71840003D01*
X121570303Y-74760732D02*
X121805304Y-74525731D01*
X121570303Y-81309730D02*
X121570303Y-74760732D01*
X99555302Y-57837729D02*
X101768302Y-55624729D01*
X99555302Y-69729733D02*
X99555302Y-57837729D01*
X101768302Y-55624729D02*
X117945636Y-55624729D01*
X93086306Y-76198729D02*
X99555302Y-69729733D01*
X82718302Y-76198729D02*
X93086306Y-76198729D01*
X78182030Y-80735001D02*
X82718302Y-76198729D01*
X75851999Y-80735001D02*
X78182030Y-80735001D01*
X121570303Y-59249396D02*
X121570303Y-62259730D01*
X75474999Y-80358001D02*
X75851999Y-80735001D01*
X75474999Y-77902232D02*
X75474999Y-80358001D01*
X117945636Y-55624729D02*
X121570303Y-59249396D01*
X75907231Y-77470000D02*
X75474999Y-77902232D01*
G04 #@! TO.N,col5*
X139430303Y-124663730D02*
X140620303Y-123473730D01*
X139430303Y-124733730D02*
X139430303Y-124663730D01*
X139430303Y-111547002D02*
X139430303Y-104159730D01*
X140855304Y-112972003D02*
X139430303Y-111547002D01*
X140855304Y-122605302D02*
X140855304Y-112972003D01*
X140620303Y-122840303D02*
X140855304Y-122605302D01*
X140620303Y-123473730D02*
X140620303Y-122840303D01*
X139405302Y-85134731D02*
X139430303Y-85109730D01*
X139405302Y-91980001D02*
X139405302Y-85134731D01*
X141070304Y-93645003D02*
X139405302Y-91980001D01*
X141070304Y-102449729D02*
X141070304Y-93645003D01*
X140620303Y-102899730D02*
X141070304Y-102449729D01*
X139405302Y-66084731D02*
X139430303Y-66059730D01*
X139405302Y-72930001D02*
X139405302Y-66084731D01*
X140855304Y-74380003D02*
X139405302Y-72930001D01*
X140855304Y-77065731D02*
X140855304Y-74380003D01*
X140620303Y-77300732D02*
X140855304Y-77065731D01*
X140620303Y-83849730D02*
X140620303Y-77300732D01*
X137655302Y-64284729D02*
X139430303Y-66059730D01*
X131286304Y-53144729D02*
X137655302Y-59513727D01*
X121724729Y-53144729D02*
X131286304Y-53144729D01*
X100424302Y-51874729D02*
X120454729Y-51874729D01*
X137655302Y-59513727D02*
X137655302Y-64284729D01*
X85924302Y-57144729D02*
X95154302Y-57144729D01*
X84455302Y-58613729D02*
X85924302Y-57144729D01*
X84455302Y-60324698D02*
X84455302Y-58613729D01*
X83738271Y-61041729D02*
X84455302Y-60324698D01*
X95154302Y-57144729D02*
X100424302Y-51874729D01*
X82765662Y-61041729D02*
X83738271Y-61041729D01*
X120454729Y-51874729D02*
X121724729Y-53144729D01*
X77810821Y-65996570D02*
X82765662Y-61041729D01*
X77810821Y-67946410D02*
X77810821Y-65996570D01*
X75907231Y-69850000D02*
X77810821Y-67946410D01*
G04 #@! TO.N,row1*
X91555304Y-69339999D02*
X91555304Y-69850000D01*
X91555304Y-70360001D02*
X91555304Y-69339999D01*
X90940304Y-70975001D02*
X91117653Y-70797653D01*
X80590300Y-70975001D02*
X90940304Y-70975001D01*
X77558542Y-74006759D02*
X80590300Y-70975001D01*
X77558542Y-78651458D02*
X77558542Y-74006759D01*
X76200000Y-80010000D02*
X77558542Y-78651458D01*
X91117653Y-70797653D02*
X91555304Y-70360001D01*
G04 #@! TO.N,row2*
X60667231Y-64770000D02*
X58420000Y-67017231D01*
X58420000Y-67017231D02*
X58420000Y-69850000D01*
X58420000Y-69850000D02*
X58420000Y-69850000D01*
X91555304Y-89410001D02*
X91555304Y-88900000D01*
X91555304Y-88389999D02*
X91555304Y-89410001D01*
X77325001Y-87774999D02*
X90940304Y-87774999D01*
X90940304Y-87774999D02*
X91117653Y-87952347D01*
X75855001Y-89244999D02*
X77325001Y-87774999D01*
X91117653Y-87952347D02*
X91555304Y-88389999D01*
G04 #@! TO.N,BAT_SW*
X134632000Y-128258000D02*
X134839001Y-128050999D01*
X134632000Y-129126000D02*
X134632000Y-128258000D01*
G04 #@! TO.N,BAT_GND*
X133132000Y-129758000D02*
X132060501Y-130829499D01*
X133132000Y-129126000D02*
X133132000Y-129758000D01*
X130552037Y-130829499D02*
X132060501Y-130829499D01*
X128131269Y-128408731D02*
X130552037Y-130829499D01*
X75002232Y-78342927D02*
X75002232Y-119564661D01*
X74705930Y-78046625D02*
X75002232Y-78342927D01*
X74705930Y-76893375D02*
X74705930Y-78046625D01*
X77108532Y-74353375D02*
X77108532Y-75506625D01*
X83846302Y-128408731D02*
X128131269Y-128408731D01*
X76346458Y-73591301D02*
X77108532Y-74353375D01*
X74705930Y-72966625D02*
X75330606Y-73591301D01*
X74930000Y-68580000D02*
X74705930Y-68804070D01*
X74667956Y-52070000D02*
X71802230Y-54935726D01*
X71802230Y-57362925D02*
X75330606Y-60891301D01*
X75002232Y-119564661D02*
X83846302Y-128408731D01*
X71802230Y-54935726D02*
X71802230Y-57362925D01*
X75330606Y-73591301D02*
X76346458Y-73591301D01*
X76346458Y-60891301D02*
X77108532Y-61653375D01*
X75907231Y-52070000D02*
X74667956Y-52070000D01*
X74705930Y-67886625D02*
X74930000Y-68110695D01*
X75468004Y-76131301D02*
X74705930Y-76893375D01*
X75330606Y-60891301D02*
X76346458Y-60891301D01*
X74705930Y-68804070D02*
X74705930Y-72966625D01*
X77108532Y-61653375D02*
X77108532Y-62806625D01*
X74930000Y-63500000D02*
X74705930Y-63724070D01*
X77108532Y-75506625D02*
X76483856Y-76131301D01*
X76415157Y-63500000D02*
X74930000Y-63500000D01*
X77108532Y-62806625D02*
X76415157Y-63500000D01*
X74705930Y-63724070D02*
X74705930Y-67886625D01*
X76483856Y-76131301D02*
X75468004Y-76131301D01*
X74930000Y-68110695D02*
X74930000Y-68580000D01*
G04 #@! TO.N,RESET*
X77108532Y-51493375D02*
X77108532Y-53408699D01*
X76483856Y-50868699D02*
X77108532Y-51493375D01*
X77108532Y-53408699D02*
X75907231Y-54610000D01*
X73170932Y-50868699D02*
X76483856Y-50868699D01*
X69800233Y-47498000D02*
X73170932Y-50868699D01*
X50468000Y-47498000D02*
X51562000Y-47498000D01*
X51562000Y-47498000D02*
X69800233Y-47498000D01*
G04 #@! TO.N,RESET_GND*
X54730232Y-48673001D02*
X60667231Y-54610000D01*
X48243001Y-48673001D02*
X51656999Y-48673001D01*
X47068000Y-47498000D02*
X48243001Y-48673001D01*
X51656999Y-48673001D02*
X54730232Y-48673001D01*
G04 #@! TD*
M02*
