G04 #@! TF.GenerationSoftware,KiCad,Pcbnew,5.1.9*
G04 #@! TF.CreationDate,2021-01-25T17:48:52-06:00*
G04 #@! TF.ProjectId,halfboard,68616c66-626f-4617-9264-2e6b69636164,rev?*
G04 #@! TF.SameCoordinates,Original*
G04 #@! TF.FileFunction,Legend,Bot*
G04 #@! TF.FilePolarity,Positive*
%FSLAX46Y46*%
G04 Gerber Fmt 4.6, Leading zero omitted, Abs format (unit mm)*
G04 Created by KiCad (PCBNEW 5.1.9) date 2021-01-25 17:48:52*
%MOMM*%
%LPD*%
G01*
G04 APERTURE LIST*
%ADD10C,0.150000*%
%ADD11C,0.120000*%
G04 APERTURE END LIST*
D10*
X201053306Y-56759361D02*
X200803306Y-54759361D01*
X200922354Y-55711742D02*
X199779497Y-55711742D01*
X199910449Y-56759361D02*
X199660449Y-54759361D01*
X198100925Y-56759361D02*
X197969973Y-55711742D01*
X198041401Y-55521266D01*
X198219973Y-55426028D01*
X198600925Y-55426028D01*
X198803306Y-55521266D01*
X198089020Y-56664123D02*
X198291401Y-56759361D01*
X198767592Y-56759361D01*
X198946163Y-56664123D01*
X199017592Y-56473647D01*
X198993782Y-56283171D01*
X198874735Y-56092695D01*
X198672354Y-55997457D01*
X198196163Y-55997457D01*
X197993782Y-55902219D01*
X196862830Y-56759361D02*
X197041401Y-56664123D01*
X197112830Y-56473647D01*
X196898544Y-54759361D01*
X196219973Y-55426028D02*
X195458068Y-55426028D01*
X196100925Y-56759361D02*
X195886639Y-55045076D01*
X195767592Y-54854600D01*
X195565211Y-54759361D01*
X195374735Y-54759361D01*
X194958068Y-56759361D02*
X194708068Y-54759361D01*
X194803306Y-55521266D02*
X194600925Y-55426028D01*
X194219973Y-55426028D01*
X194041401Y-55521266D01*
X193958068Y-55616504D01*
X193886639Y-55806980D01*
X193958068Y-56378409D01*
X194077116Y-56568885D01*
X194184258Y-56664123D01*
X194386639Y-56759361D01*
X194767592Y-56759361D01*
X194946163Y-56664123D01*
X192862830Y-56759361D02*
X193041401Y-56664123D01*
X193124735Y-56568885D01*
X193196163Y-56378409D01*
X193124735Y-55806980D01*
X193005687Y-55616504D01*
X192898544Y-55521266D01*
X192696163Y-55426028D01*
X192410449Y-55426028D01*
X192231877Y-55521266D01*
X192148544Y-55616504D01*
X192077116Y-55806980D01*
X192148544Y-56378409D01*
X192267592Y-56568885D01*
X192374735Y-56664123D01*
X192577116Y-56759361D01*
X192862830Y-56759361D01*
X190481877Y-56759361D02*
X190350925Y-55711742D01*
X190422354Y-55521266D01*
X190600925Y-55426028D01*
X190981877Y-55426028D01*
X191184258Y-55521266D01*
X190469973Y-56664123D02*
X190672354Y-56759361D01*
X191148544Y-56759361D01*
X191327116Y-56664123D01*
X191398544Y-56473647D01*
X191374735Y-56283171D01*
X191255687Y-56092695D01*
X191053306Y-55997457D01*
X190577116Y-55997457D01*
X190374735Y-55902219D01*
X189529497Y-56759361D02*
X189362830Y-55426028D01*
X189410449Y-55806980D02*
X189291401Y-55616504D01*
X189184258Y-55521266D01*
X188981877Y-55426028D01*
X188791401Y-55426028D01*
X187434258Y-56759361D02*
X187184258Y-54759361D01*
X187422354Y-56664123D02*
X187624735Y-56759361D01*
X188005687Y-56759361D01*
X188184258Y-56664123D01*
X188267592Y-56568885D01*
X188339020Y-56378409D01*
X188267592Y-55806980D01*
X188148544Y-55616504D01*
X188041401Y-55521266D01*
X187839020Y-55426028D01*
X187458068Y-55426028D01*
X187279497Y-55521266D01*
D11*
G04 #@! TO.C,RESET2*
X97766400Y-53757800D02*
X98216400Y-53307800D01*
X101166400Y-53757800D02*
X100716400Y-53307800D01*
X101166400Y-58357800D02*
X100716400Y-58807800D01*
X97766400Y-58357800D02*
X98216400Y-58807800D01*
X102216400Y-57057800D02*
X102216400Y-55057800D01*
X98216400Y-53307800D02*
X100716400Y-53307800D01*
X96716400Y-57057800D02*
X96716400Y-55057800D01*
X98216400Y-58807800D02*
X100716400Y-58807800D01*
G04 #@! TO.C,PWR_SW2*
X183740600Y-134592200D02*
X183540600Y-134592200D01*
X186540600Y-138732200D02*
X186340600Y-138942200D01*
X185240600Y-138732200D02*
X185440600Y-138942200D01*
X186540600Y-137442200D02*
X186540600Y-138732200D01*
X186340600Y-138942200D02*
X185440600Y-138942200D01*
X185240600Y-138732200D02*
X185240600Y-137442200D01*
X187990600Y-137442200D02*
X182290600Y-137442200D01*
X186740600Y-134592200D02*
X185040600Y-134592200D01*
X188590600Y-135642200D02*
X188590600Y-136432200D01*
X181690600Y-136432200D02*
X181690600Y-135642200D01*
G04 #@! TO.C,RESET2*
D10*
X101394971Y-60260180D02*
X101728304Y-59783990D01*
X101966400Y-60260180D02*
X101966400Y-59260180D01*
X101585447Y-59260180D01*
X101490209Y-59307800D01*
X101442590Y-59355419D01*
X101394971Y-59450657D01*
X101394971Y-59593514D01*
X101442590Y-59688752D01*
X101490209Y-59736371D01*
X101585447Y-59783990D01*
X101966400Y-59783990D01*
X100966400Y-59736371D02*
X100633066Y-59736371D01*
X100490209Y-60260180D02*
X100966400Y-60260180D01*
X100966400Y-59260180D01*
X100490209Y-59260180D01*
X100109257Y-60212561D02*
X99966400Y-60260180D01*
X99728304Y-60260180D01*
X99633066Y-60212561D01*
X99585447Y-60164942D01*
X99537828Y-60069704D01*
X99537828Y-59974466D01*
X99585447Y-59879228D01*
X99633066Y-59831609D01*
X99728304Y-59783990D01*
X99918780Y-59736371D01*
X100014019Y-59688752D01*
X100061638Y-59641133D01*
X100109257Y-59545895D01*
X100109257Y-59450657D01*
X100061638Y-59355419D01*
X100014019Y-59307800D01*
X99918780Y-59260180D01*
X99680685Y-59260180D01*
X99537828Y-59307800D01*
X99109257Y-59736371D02*
X98775923Y-59736371D01*
X98633066Y-60260180D02*
X99109257Y-60260180D01*
X99109257Y-59260180D01*
X98633066Y-59260180D01*
X98347352Y-59260180D02*
X97775923Y-59260180D01*
X98061638Y-60260180D02*
X98061638Y-59260180D01*
X97490209Y-59355419D02*
X97442590Y-59307800D01*
X97347352Y-59260180D01*
X97109257Y-59260180D01*
X97014019Y-59307800D01*
X96966400Y-59355419D01*
X96918780Y-59450657D01*
X96918780Y-59545895D01*
X96966400Y-59688752D01*
X97537828Y-60260180D01*
X96918780Y-60260180D01*
G04 #@! TO.C,PWR_SW2*
X188378695Y-132964580D02*
X188378695Y-131964580D01*
X187997742Y-131964580D01*
X187902504Y-132012200D01*
X187854885Y-132059819D01*
X187807266Y-132155057D01*
X187807266Y-132297914D01*
X187854885Y-132393152D01*
X187902504Y-132440771D01*
X187997742Y-132488390D01*
X188378695Y-132488390D01*
X187473933Y-131964580D02*
X187235838Y-132964580D01*
X187045361Y-132250295D01*
X186854885Y-132964580D01*
X186616790Y-131964580D01*
X185664409Y-132964580D02*
X185997742Y-132488390D01*
X186235838Y-132964580D02*
X186235838Y-131964580D01*
X185854885Y-131964580D01*
X185759647Y-132012200D01*
X185712028Y-132059819D01*
X185664409Y-132155057D01*
X185664409Y-132297914D01*
X185712028Y-132393152D01*
X185759647Y-132440771D01*
X185854885Y-132488390D01*
X186235838Y-132488390D01*
X185473933Y-133059819D02*
X184712028Y-133059819D01*
X184521552Y-132916961D02*
X184378695Y-132964580D01*
X184140600Y-132964580D01*
X184045361Y-132916961D01*
X183997742Y-132869342D01*
X183950123Y-132774104D01*
X183950123Y-132678866D01*
X183997742Y-132583628D01*
X184045361Y-132536009D01*
X184140600Y-132488390D01*
X184331076Y-132440771D01*
X184426314Y-132393152D01*
X184473933Y-132345533D01*
X184521552Y-132250295D01*
X184521552Y-132155057D01*
X184473933Y-132059819D01*
X184426314Y-132012200D01*
X184331076Y-131964580D01*
X184092980Y-131964580D01*
X183950123Y-132012200D01*
X183616790Y-131964580D02*
X183378695Y-132964580D01*
X183188219Y-132250295D01*
X182997742Y-132964580D01*
X182759647Y-131964580D01*
X182426314Y-132059819D02*
X182378695Y-132012200D01*
X182283457Y-131964580D01*
X182045361Y-131964580D01*
X181950123Y-132012200D01*
X181902504Y-132059819D01*
X181854885Y-132155057D01*
X181854885Y-132250295D01*
X181902504Y-132393152D01*
X182473933Y-132964580D01*
X181854885Y-132964580D01*
G04 #@! TO.C, *
G04 #@! TD*
M02*
