G04 #@! TF.GenerationSoftware,KiCad,Pcbnew,(5.1.8-0-10_14)*
G04 #@! TF.CreationDate,2021-01-19T05:30:42-06:00*
G04 #@! TF.ProjectId,halfboard,68616c66-626f-4617-9264-2e6b69636164,rev?*
G04 #@! TF.SameCoordinates,Original*
G04 #@! TF.FileFunction,Legend,Top*
G04 #@! TF.FilePolarity,Positive*
%FSLAX46Y46*%
G04 Gerber Fmt 4.6, Leading zero omitted, Abs format (unit mm)*
G04 Created by KiCad (PCBNEW (5.1.8-0-10_14)) date 2021-01-19 05:30:42*
%MOMM*%
%LPD*%
G01*
G04 APERTURE LIST*
%ADD10C,0.150000*%
G04 APERTURE END LIST*
D10*
X136163550Y-51704761D02*
X136413550Y-49704761D01*
X136294502Y-50657142D02*
X137437360Y-50657142D01*
X137306407Y-51704761D02*
X137556407Y-49704761D01*
X139115931Y-51704761D02*
X139246883Y-50657142D01*
X139175455Y-50466666D01*
X138996883Y-50371428D01*
X138615931Y-50371428D01*
X138413550Y-50466666D01*
X139127836Y-51609523D02*
X138925455Y-51704761D01*
X138449264Y-51704761D01*
X138270693Y-51609523D01*
X138199264Y-51419047D01*
X138223074Y-51228571D01*
X138342122Y-51038095D01*
X138544502Y-50942857D01*
X139020693Y-50942857D01*
X139223074Y-50847619D01*
X140354026Y-51704761D02*
X140175455Y-51609523D01*
X140104026Y-51419047D01*
X140318312Y-49704761D01*
X140996883Y-50371428D02*
X141758788Y-50371428D01*
X141115931Y-51704761D02*
X141330217Y-49990476D01*
X141449264Y-49800000D01*
X141651645Y-49704761D01*
X141842122Y-49704761D01*
X144580217Y-50657142D02*
X144854026Y-50752380D01*
X144937360Y-50847619D01*
X145008788Y-51038095D01*
X144973074Y-51323809D01*
X144854026Y-51514285D01*
X144746883Y-51609523D01*
X144544502Y-51704761D01*
X143782598Y-51704761D01*
X144032598Y-49704761D01*
X144699264Y-49704761D01*
X144877836Y-49800000D01*
X144961169Y-49895238D01*
X145032598Y-50085714D01*
X145008788Y-50276190D01*
X144889741Y-50466666D01*
X144782598Y-50561904D01*
X144580217Y-50657142D01*
X143913550Y-50657142D01*
X146068312Y-51704761D02*
X145889741Y-51609523D01*
X145806407Y-51514285D01*
X145734979Y-51323809D01*
X145806407Y-50752380D01*
X145925455Y-50561904D01*
X146032598Y-50466666D01*
X146234979Y-50371428D01*
X146520693Y-50371428D01*
X146699264Y-50466666D01*
X146782598Y-50561904D01*
X146854026Y-50752380D01*
X146782598Y-51323809D01*
X146663550Y-51514285D01*
X146556407Y-51609523D01*
X146354026Y-51704761D01*
X146068312Y-51704761D01*
X148449264Y-51704761D02*
X148580217Y-50657142D01*
X148508788Y-50466666D01*
X148330217Y-50371428D01*
X147949264Y-50371428D01*
X147746883Y-50466666D01*
X148461169Y-51609523D02*
X148258788Y-51704761D01*
X147782598Y-51704761D01*
X147604026Y-51609523D01*
X147532598Y-51419047D01*
X147556407Y-51228571D01*
X147675455Y-51038095D01*
X147877836Y-50942857D01*
X148354026Y-50942857D01*
X148556407Y-50847619D01*
X149401645Y-51704761D02*
X149568312Y-50371428D01*
X149520693Y-50752380D02*
X149639741Y-50561904D01*
X149746883Y-50466666D01*
X149949264Y-50371428D01*
X150139741Y-50371428D01*
X151496883Y-51704761D02*
X151746883Y-49704761D01*
X151508788Y-51609523D02*
X151306407Y-51704761D01*
X150925455Y-51704761D01*
X150746883Y-51609523D01*
X150663550Y-51514285D01*
X150592122Y-51323809D01*
X150663550Y-50752380D01*
X150782598Y-50561904D01*
X150889741Y-50466666D01*
X151092122Y-50371428D01*
X151473074Y-50371428D01*
X151651645Y-50466666D01*
G04 #@! TO.C, *
G04 #@! TD*
M02*
