G04 #@! TF.GenerationSoftware,KiCad,Pcbnew,5.1.9*
G04 #@! TF.CreationDate,2021-01-19T21:25:47-06:00*
G04 #@! TF.ProjectId,halfboard,68616c66-626f-4617-9264-2e6b69636164,rev?*
G04 #@! TF.SameCoordinates,Original*
G04 #@! TF.FileFunction,Paste,Top*
G04 #@! TF.FilePolarity,Positive*
%FSLAX46Y46*%
G04 Gerber Fmt 4.6, Leading zero omitted, Abs format (unit mm)*
G04 Created by KiCad (PCBNEW 5.1.9) date 2021-01-19 21:25:47*
%MOMM*%
%LPD*%
G01*
G04 APERTURE LIST*
%ADD10R,0.700000X1.500000*%
%ADD11R,1.000000X0.800000*%
%ADD12R,0.900000X1.700000*%
%ADD13R,1.600000X1.200000*%
G04 APERTURE END LIST*
D10*
G04 #@! TO.C, *
X133132000Y-129126000D03*
X136132000Y-129126000D03*
X137632000Y-129126000D03*
D11*
X131732000Y-131986000D03*
X139032000Y-131986000D03*
X139032000Y-129776000D03*
X131732000Y-129776000D03*
G04 #@! TD*
D12*
G04 #@! TO.C, *
X47068000Y-47498000D03*
X50468000Y-47498000D03*
G04 #@! TD*
D13*
G04 #@! TO.C, *
X145830303Y-53340000D03*
X143030303Y-53340000D03*
G04 #@! TD*
G04 #@! TO.C, *
X145830303Y-72390000D03*
X143030303Y-72390000D03*
G04 #@! TD*
G04 #@! TO.C, *
X145830303Y-91440000D03*
X143030303Y-91440000D03*
G04 #@! TD*
G04 #@! TO.C, *
X146338303Y-111490000D03*
X143538303Y-111490000D03*
G04 #@! TD*
G04 #@! TO.C, *
X127288303Y-111490000D03*
X124488303Y-111490000D03*
G04 #@! TD*
G04 #@! TO.C, *
X108238303Y-111490000D03*
X105438303Y-111490000D03*
G04 #@! TD*
G04 #@! TO.C, *
X89188303Y-111490000D03*
X86388303Y-111490000D03*
G04 #@! TD*
G04 #@! TO.C, *
X126780303Y-88900000D03*
X123980303Y-88900000D03*
G04 #@! TD*
G04 #@! TO.C, *
X126780303Y-69850000D03*
X123980303Y-69850000D03*
G04 #@! TD*
G04 #@! TO.C, *
X126780303Y-50800000D03*
X123980303Y-50800000D03*
G04 #@! TD*
G04 #@! TO.C, *
X107730303Y-49530000D03*
X104930303Y-49530000D03*
G04 #@! TD*
G04 #@! TO.C, *
X107730303Y-68580000D03*
X104930303Y-68580000D03*
G04 #@! TD*
G04 #@! TO.C, *
X107730303Y-87630000D03*
X104930303Y-87630000D03*
G04 #@! TD*
G04 #@! TO.C, *
X88680303Y-88900000D03*
X85880303Y-88900000D03*
G04 #@! TD*
G04 #@! TO.C, *
X88680303Y-69850000D03*
X85880303Y-69850000D03*
G04 #@! TD*
G04 #@! TO.C, *
X69687231Y-90170000D03*
X66887231Y-90170000D03*
G04 #@! TD*
G04 #@! TO.C, *
X70195231Y-111490000D03*
X67395231Y-111490000D03*
G04 #@! TD*
G04 #@! TO.C, *
X50930000Y-111490000D03*
X48130000Y-111490000D03*
G04 #@! TD*
G04 #@! TO.C, *
X50930000Y-92710000D03*
X48130000Y-92710000D03*
G04 #@! TD*
G04 #@! TO.C, *
X88680303Y-50800000D03*
X85880303Y-50800000D03*
G04 #@! TD*
G04 #@! TO.C, *
X69687231Y-52070000D03*
X66887231Y-52070000D03*
G04 #@! TD*
G04 #@! TO.C, *
X69687231Y-71120000D03*
X66887231Y-71120000D03*
G04 #@! TD*
G04 #@! TO.C, *
X50422000Y-73660000D03*
X47622000Y-73660000D03*
G04 #@! TD*
G04 #@! TO.C, *
X50422000Y-54610000D03*
X47622000Y-54610000D03*
G04 #@! TD*
M02*
