G04 #@! TF.GenerationSoftware,KiCad,Pcbnew,5.1.9*
G04 #@! TF.CreationDate,2021-01-19T21:25:47-06:00*
G04 #@! TF.ProjectId,halfboard,68616c66-626f-4617-9264-2e6b69636164,rev?*
G04 #@! TF.SameCoordinates,Original*
G04 #@! TF.FileFunction,Other,Comment*
%FSLAX46Y46*%
G04 Gerber Fmt 4.6, Leading zero omitted, Abs format (unit mm)*
G04 Created by KiCad (PCBNEW 5.1.9) date 2021-01-19 21:25:47*
%MOMM*%
%LPD*%
G01*
G04 APERTURE LIST*
%ADD10C,0.152400*%
G04 APERTURE END LIST*
D10*
G04 #@! TO.C, *
X55532000Y-57404000D02*
X55532000Y-70104000D01*
X42832000Y-57404000D02*
X55532000Y-57404000D01*
X42832000Y-70104000D02*
X42832000Y-57404000D01*
X55532000Y-70104000D02*
X42832000Y-70104000D01*
X150780303Y-55909730D02*
X150780303Y-68609730D01*
X138080303Y-55909730D02*
X150780303Y-55909730D01*
X138080303Y-68609730D02*
X138080303Y-55909730D01*
X150780303Y-68609730D02*
X138080303Y-68609730D01*
X150780303Y-74959730D02*
X150780303Y-87659730D01*
X138080303Y-74959730D02*
X150780303Y-74959730D01*
X138080303Y-87659730D02*
X138080303Y-74959730D01*
X150780303Y-87659730D02*
X138080303Y-87659730D01*
X150780303Y-94009730D02*
X150780303Y-106709730D01*
X138080303Y-94009730D02*
X150780303Y-94009730D01*
X138080303Y-106709730D02*
X138080303Y-94009730D01*
X150780303Y-106709730D02*
X138080303Y-106709730D01*
X150780303Y-114583730D02*
X150780303Y-127283730D01*
X138080303Y-114583730D02*
X150780303Y-114583730D01*
X138080303Y-127283730D02*
X138080303Y-114583730D01*
X150780303Y-127283730D02*
X138080303Y-127283730D01*
X131730303Y-114583730D02*
X131730303Y-127283730D01*
X119030303Y-114583730D02*
X131730303Y-114583730D01*
X119030303Y-127283730D02*
X119030303Y-114583730D01*
X131730303Y-127283730D02*
X119030303Y-127283730D01*
X112680303Y-114583730D02*
X112680303Y-127283730D01*
X99980303Y-114583730D02*
X112680303Y-114583730D01*
X99980303Y-127283730D02*
X99980303Y-114583730D01*
X112680303Y-127283730D02*
X99980303Y-127283730D01*
X93630303Y-114583730D02*
X93630303Y-127283730D01*
X80930303Y-114583730D02*
X93630303Y-114583730D01*
X80930303Y-127283730D02*
X80930303Y-114583730D01*
X93630303Y-127283730D02*
X80930303Y-127283730D01*
X131730303Y-91469730D02*
X131730303Y-104169730D01*
X119030303Y-91469730D02*
X131730303Y-91469730D01*
X119030303Y-104169730D02*
X119030303Y-91469730D01*
X131730303Y-104169730D02*
X119030303Y-104169730D01*
X131730303Y-72419730D02*
X131730303Y-85119730D01*
X119030303Y-72419730D02*
X131730303Y-72419730D01*
X119030303Y-85119730D02*
X119030303Y-72419730D01*
X131730303Y-85119730D02*
X119030303Y-85119730D01*
X131730303Y-53369730D02*
X131730303Y-66069730D01*
X119030303Y-53369730D02*
X131730303Y-53369730D01*
X119030303Y-66069730D02*
X119030303Y-53369730D01*
X131730303Y-66069730D02*
X119030303Y-66069730D01*
X112680303Y-52099730D02*
X112680303Y-64799730D01*
X99980303Y-52099730D02*
X112680303Y-52099730D01*
X99980303Y-64799730D02*
X99980303Y-52099730D01*
X112680303Y-64799730D02*
X99980303Y-64799730D01*
X112680303Y-71149730D02*
X112680303Y-83849730D01*
X99980303Y-71149730D02*
X112680303Y-71149730D01*
X99980303Y-83849730D02*
X99980303Y-71149730D01*
X112680303Y-83849730D02*
X99980303Y-83849730D01*
X112680303Y-90199730D02*
X112680303Y-102899730D01*
X99980303Y-90199730D02*
X112680303Y-90199730D01*
X99980303Y-102899730D02*
X99980303Y-90199730D01*
X112680303Y-102899730D02*
X99980303Y-102899730D01*
X93630303Y-91723730D02*
X93630303Y-104423730D01*
X80930303Y-91723730D02*
X93630303Y-91723730D01*
X80930303Y-104423730D02*
X80930303Y-91723730D01*
X93630303Y-104423730D02*
X80930303Y-104423730D01*
X93630303Y-72673730D02*
X93630303Y-85373730D01*
X80930303Y-72673730D02*
X93630303Y-72673730D01*
X80930303Y-85373730D02*
X80930303Y-72673730D01*
X93630303Y-85373730D02*
X80930303Y-85373730D01*
X93630303Y-53619730D02*
X93630303Y-66319730D01*
X80930303Y-53619730D02*
X93630303Y-53619730D01*
X80930303Y-66319730D02*
X80930303Y-53619730D01*
X93630303Y-66319730D02*
X80930303Y-66319730D01*
X74577231Y-54853730D02*
X74577231Y-67553730D01*
X61877231Y-54853730D02*
X74577231Y-54853730D01*
X61877231Y-67553730D02*
X61877231Y-54853730D01*
X74577231Y-67553730D02*
X61877231Y-67553730D01*
X74577231Y-73901829D02*
X74577231Y-86601829D01*
X61877231Y-73901829D02*
X74577231Y-73901829D01*
X61877231Y-86601829D02*
X61877231Y-73901829D01*
X74577231Y-86601829D02*
X61877231Y-86601829D01*
X74577231Y-92950230D02*
X74577231Y-105650230D01*
X61877231Y-92950230D02*
X74577231Y-92950230D01*
X61877231Y-105650230D02*
X61877231Y-92950230D01*
X74577231Y-105650230D02*
X61877231Y-105650230D01*
X74577231Y-114583730D02*
X74577231Y-127283730D01*
X61877231Y-114583730D02*
X74577231Y-114583730D01*
X61877231Y-127283730D02*
X61877231Y-114583730D01*
X74577231Y-127283730D02*
X61877231Y-127283730D01*
X55532000Y-114554000D02*
X55532000Y-127254000D01*
X42832000Y-114554000D02*
X55532000Y-114554000D01*
X42832000Y-127254000D02*
X42832000Y-114554000D01*
X55532000Y-127254000D02*
X42832000Y-127254000D01*
X55532000Y-95504000D02*
X55532000Y-108204000D01*
X42832000Y-95504000D02*
X55532000Y-95504000D01*
X42832000Y-108204000D02*
X42832000Y-95504000D01*
X55532000Y-108204000D02*
X42832000Y-108204000D01*
X55532000Y-76454000D02*
X55532000Y-89154000D01*
X42832000Y-76454000D02*
X55532000Y-76454000D01*
X42832000Y-89154000D02*
X42832000Y-76454000D01*
X55532000Y-89154000D02*
X42832000Y-89154000D01*
G04 #@! TD*
M02*
