G04 #@! TF.GenerationSoftware,KiCad,Pcbnew,(5.1.8-0-10_14)*
G04 #@! TF.CreationDate,2021-01-19T08:17:26-06:00*
G04 #@! TF.ProjectId,halfboard-bottom,68616c66-626f-4617-9264-2d626f74746f,rev?*
G04 #@! TF.SameCoordinates,Original*
G04 #@! TF.FileFunction,Profile,NP*
%FSLAX46Y46*%
G04 Gerber Fmt 4.6, Leading zero omitted, Abs format (unit mm)*
G04 Created by KiCad (PCBNEW (5.1.8-0-10_14)) date 2021-01-19 08:17:26*
%MOMM*%
%LPD*%
G01*
G04 APERTURE LIST*
G04 #@! TA.AperFunction,Profile*
%ADD10C,0.050000*%
G04 #@! TD*
G04 APERTURE END LIST*
D10*
X64770000Y-83820000D02*
X69215000Y-83820000D01*
X79375000Y-83820000D02*
G75*
G02*
X69215000Y-83820000I-5080000J2540000D01*
G01*
X103650000Y-51562000D02*
G75*
G03*
X103650000Y-51562000I-1000000J0D01*
G01*
X83819999Y-51565161D02*
G75*
G02*
X85852043Y-49290110I2286043J3161D01*
G01*
X158990020Y-49290110D02*
X85852043Y-49290110D01*
X62482206Y-49290122D02*
G75*
G02*
X64770000Y-51562000I15861J-2271878D01*
G01*
X83820000Y-83820000D02*
X83820000Y-51565161D01*
X79375000Y-83820000D02*
X83820000Y-83820000D01*
X64770000Y-51562000D02*
X64770000Y-83820000D01*
X159750000Y-94742000D02*
G75*
G03*
X159750000Y-94742000I-1000000J0D01*
G01*
X46167795Y-137143910D02*
X158992054Y-137168666D01*
X161277967Y-134896777D02*
X161275933Y-51561999D01*
X62482206Y-49290122D02*
X45926068Y-49276002D01*
X43880000Y-51562001D02*
X43880000Y-134872033D01*
X43880000Y-51562001D02*
G75*
G02*
X45926068Y-49276002I2300067J0D01*
G01*
X158990020Y-49290110D02*
G75*
G02*
X161275933Y-51561999I13980J-2271890D01*
G01*
X158992054Y-137168666D02*
G75*
G03*
X161277967Y-134896777I13980J2271890D01*
G01*
X46167795Y-137143910D02*
G75*
G02*
X43880000Y-134872033I-15862J2271878D01*
G01*
X160004000Y-51562000D02*
G75*
G03*
X160004000Y-51562000I-1000000J0D01*
G01*
X47151933Y-51562001D02*
G75*
G03*
X47151933Y-51562001I-1000000J0D01*
G01*
X47228000Y-96266000D02*
G75*
G03*
X47228000Y-96266000I-1000000J0D01*
G01*
X103651426Y-134872032D02*
G75*
G03*
X103651426Y-134872032I-1000000J0D01*
G01*
X160004000Y-134896776D02*
G75*
G03*
X160004000Y-134896776I-1000000J0D01*
G01*
X47151933Y-134872032D02*
G75*
G03*
X47151933Y-134872032I-1000000J0D01*
G01*
M02*
