%TF.GenerationSoftware,KiCad,Pcbnew,(5.1.8-0-10_14)*%
%TF.CreationDate,2021-01-26T12:58:30-06:00*%
%TF.ProjectId,halfboard-middle,68616c66-626f-4617-9264-2d6d6964646c,rev?*%
%TF.SameCoordinates,Original*%
%TF.FileFunction,Profile,NP*%
%FSLAX46Y46*%
G04 Gerber Fmt 4.6, Leading zero omitted, Abs format (unit mm)*
G04 Created by KiCad (PCBNEW (5.1.8-0-10_14)) date 2021-01-26 12:58:30*
%MOMM*%
%LPD*%
G01*
G04 APERTURE LIST*
%TA.AperFunction,Profile*%
%ADD10C,0.050000*%
%TD*%
G04 APERTURE END LIST*
D10*
X189230000Y-129794000D02*
X189230000Y-135636000D01*
X179324000Y-129794000D02*
X189230000Y-129794000D01*
X179324000Y-134620000D02*
X179324000Y-129794000D01*
X100584000Y-46736000D02*
X100584000Y-43434000D01*
X94488000Y-46736000D02*
X100584000Y-46736000D01*
X94488000Y-42926000D02*
X94488000Y-46736000D01*
X196926200Y-52070000D02*
X189560200Y-52070000D01*
X189560200Y-52070000D02*
X189560200Y-120396000D01*
X196926200Y-120396000D02*
X196926200Y-52070000D01*
X177876200Y-49530000D02*
X170510200Y-49530000D01*
X170510200Y-49530000D02*
X170510200Y-117856000D01*
X177876200Y-117856000D02*
X177876200Y-49530000D01*
X158826200Y-48768000D02*
X151460200Y-48768000D01*
X151460200Y-48768000D02*
X151460200Y-117094000D01*
X158826200Y-117094000D02*
X158826200Y-48768000D01*
X139522200Y-49530000D02*
X132156200Y-49530000D01*
X132156200Y-49530000D02*
X132156200Y-117856000D01*
X139522200Y-117856000D02*
X139522200Y-49530000D01*
X120472200Y-51308000D02*
X113106200Y-51308000D01*
X113106200Y-51308000D02*
X113106200Y-119634000D01*
X120472200Y-119634000D02*
X120472200Y-51308000D01*
X94056200Y-53594000D02*
X94056200Y-121920000D01*
X101422200Y-121920000D02*
X101422200Y-53594000D01*
X101422200Y-53594000D02*
X94056200Y-53594000D01*
X94056200Y-53594000D02*
X101422200Y-53594000D01*
X104950260Y-44718122D02*
X88900328Y-44704002D01*
X86854260Y-46990001D02*
G75*
G02*
X88900328Y-44704002I2300067J0D01*
G01*
X126796800Y-79248000D02*
X126796800Y-46993161D01*
X122034300Y-79248000D02*
X126796800Y-79248000D01*
X107238800Y-79248000D02*
X111874300Y-79248000D01*
X90126193Y-46990001D02*
G75*
G03*
X90126193Y-46990001I-1000000J0D01*
G01*
X104950260Y-44704000D02*
G75*
G02*
X107238054Y-46975878I15861J-2271878D01*
G01*
X107240594Y-46975878D02*
X107240594Y-79233878D01*
X122034300Y-79248000D02*
G75*
G02*
X111874300Y-79248000I-5080000J2540000D01*
G01*
X126794259Y-46993161D02*
G75*
G02*
X128826303Y-44718110I2286043J3161D01*
G01*
X146628226Y-46990000D02*
G75*
G03*
X146628226Y-46990000I-1000000J0D01*
G01*
X86856800Y-46990001D02*
X86856800Y-130300033D01*
X90128733Y-130300032D02*
G75*
G03*
X90128733Y-130300032I-1000000J0D01*
G01*
X202980800Y-46990000D02*
G75*
G03*
X202980800Y-46990000I-1000000J0D01*
G01*
X202980800Y-130324776D02*
G75*
G03*
X202980800Y-130324776I-1000000J0D01*
G01*
X90128733Y-46990001D02*
G75*
G03*
X90128733Y-46990001I-1000000J0D01*
G01*
X90204800Y-91694000D02*
G75*
G03*
X90204800Y-91694000I-1000000J0D01*
G01*
X146628226Y-130300032D02*
G75*
G03*
X146628226Y-130300032I-1000000J0D01*
G01*
X89144595Y-132571910D02*
G75*
G02*
X86856800Y-130300033I-15862J2271878D01*
G01*
X201968854Y-132596666D02*
G75*
G03*
X204254767Y-130324777I13980J2271890D01*
G01*
X201966820Y-44718110D02*
G75*
G02*
X204252733Y-46989999I13980J-2271890D01*
G01*
X86856800Y-46990001D02*
G75*
G02*
X88902868Y-44704002I2300067J0D01*
G01*
X204254767Y-130324777D02*
X204252733Y-46989999D01*
X89144595Y-132571910D02*
X201968854Y-132596666D01*
X105016300Y-56007000D02*
X105016300Y-69977000D01*
X90986300Y-69977000D02*
X90986300Y-56007000D01*
X105012800Y-113157000D02*
X105012800Y-127127000D01*
X90982800Y-94107000D02*
X105012800Y-94107000D01*
X90982800Y-108077000D02*
X90982800Y-94107000D01*
X105012800Y-75057000D02*
X105012800Y-89027000D01*
X90982800Y-75057000D02*
X105012800Y-75057000D01*
X90982800Y-89027000D02*
X90982800Y-75057000D01*
X129079969Y-66228070D02*
X129079969Y-52228070D01*
X143109969Y-66228070D02*
X129079969Y-66228070D01*
X143109969Y-52228070D02*
X143109969Y-66228070D01*
X129109969Y-52228070D02*
X143109969Y-52228070D01*
X110029969Y-127188070D02*
X110029969Y-113188070D01*
X124059969Y-127188070D02*
X110029969Y-127188070D01*
X124059969Y-113188070D02*
X124059969Y-127188070D01*
X110059969Y-113188070D02*
X124059969Y-113188070D01*
X129079969Y-127188070D02*
X129079969Y-113188070D01*
X143109969Y-127188070D02*
X129079969Y-127188070D01*
X143109969Y-113188070D02*
X143109969Y-127188070D01*
X129109969Y-113188070D02*
X143109969Y-113188070D01*
X204254767Y-130324777D02*
X204252733Y-46989999D01*
X148129969Y-83754070D02*
X148129969Y-69754070D01*
X162159969Y-83754070D02*
X148129969Y-83754070D01*
X162159969Y-69754070D02*
X162159969Y-83754070D01*
X148159969Y-69754070D02*
X162159969Y-69754070D01*
X167179969Y-85024070D02*
X167179969Y-71024070D01*
X181209969Y-85024070D02*
X167179969Y-85024070D01*
X181209969Y-71024070D02*
X181209969Y-85024070D01*
X167209969Y-71024070D02*
X181209969Y-71024070D01*
X186229969Y-87564070D02*
X186229969Y-73564070D01*
X200259969Y-87564070D02*
X186229969Y-87564070D01*
X200259969Y-73564070D02*
X200259969Y-87564070D01*
X186259969Y-73564070D02*
X200259969Y-73564070D01*
X186229969Y-68514070D02*
X186229969Y-54514070D01*
X167209969Y-90074070D02*
X181209969Y-90074070D01*
X148129969Y-102804070D02*
X148129969Y-88804070D01*
X162159969Y-102804070D02*
X148129969Y-102804070D01*
X162159969Y-88804070D02*
X162159969Y-102804070D01*
X148159969Y-88804070D02*
X162159969Y-88804070D01*
X200259969Y-68514070D02*
X186229969Y-68514070D01*
X200259969Y-54514070D02*
X200259969Y-68514070D01*
X186259969Y-54514070D02*
X200259969Y-54514070D01*
X167179969Y-65974070D02*
X167179969Y-51974070D01*
X181209969Y-65974070D02*
X167179969Y-65974070D01*
X181209969Y-51974070D02*
X181209969Y-65974070D01*
X167209969Y-51974070D02*
X181209969Y-51974070D01*
X148129969Y-64704070D02*
X148129969Y-50704070D01*
X162159969Y-64704070D02*
X148129969Y-64704070D01*
X162159969Y-50704070D02*
X162159969Y-64704070D01*
X148159969Y-50704070D02*
X162159969Y-50704070D01*
X90979969Y-89088070D02*
X90979969Y-75088070D01*
X105009969Y-89088070D02*
X90979969Y-89088070D01*
X105009969Y-75088070D02*
X105009969Y-89088070D01*
X90979969Y-108138070D02*
X90979969Y-94138070D01*
X105009969Y-108138070D02*
X90979969Y-108138070D01*
X105009969Y-94138070D02*
X105009969Y-108138070D01*
X90979969Y-127137270D02*
X90979969Y-113137270D01*
X105009969Y-127137270D02*
X90979969Y-127137270D01*
X105009969Y-113137270D02*
X105009969Y-127137270D01*
X90979969Y-113137270D02*
X105009969Y-113137270D01*
X90979969Y-69987270D02*
X90979969Y-55987270D01*
X105009969Y-69987270D02*
X90979969Y-69987270D01*
X105009969Y-55987270D02*
X105009969Y-69987270D01*
X90979969Y-55987270D02*
X105009969Y-55987270D01*
X201968854Y-132596666D02*
G75*
G03*
X204254767Y-130324777I13980J2271890D01*
G01*
X86856800Y-46990001D02*
G75*
G02*
X88902868Y-44704002I2300067J0D01*
G01*
X90128733Y-46990001D02*
G75*
G03*
X90128733Y-46990001I-1000000J0D01*
G01*
X202980800Y-130324776D02*
G75*
G03*
X202980800Y-130324776I-1000000J0D01*
G01*
X86856800Y-46990001D02*
X86856800Y-130300033D01*
X201966820Y-44718110D02*
G75*
G02*
X204252733Y-46989999I13980J-2271890D01*
G01*
X89144595Y-132571910D02*
G75*
G02*
X86856800Y-130300033I-15862J2271878D01*
G01*
X90128733Y-130300032D02*
G75*
G03*
X90128733Y-130300032I-1000000J0D01*
G01*
X202980800Y-46990000D02*
G75*
G03*
X202980800Y-46990000I-1000000J0D01*
G01*
X105459006Y-44718122D02*
X88902868Y-44704002D01*
X146628226Y-130300032D02*
G75*
G03*
X146628226Y-130300032I-1000000J0D01*
G01*
X90204800Y-91694000D02*
G75*
G03*
X90204800Y-91694000I-1000000J0D01*
G01*
X202726800Y-90170000D02*
G75*
G03*
X202726800Y-90170000I-1000000J0D01*
G01*
X148129969Y-127188070D02*
X148129969Y-113188070D01*
X162159969Y-127188070D02*
X148129969Y-127188070D01*
X162159969Y-113188070D02*
X162159969Y-127188070D01*
X148159969Y-113188070D02*
X162159969Y-113188070D01*
X167179969Y-127188070D02*
X167179969Y-113188070D01*
X181209969Y-127188070D02*
X167179969Y-127188070D01*
X181209969Y-113188070D02*
X181209969Y-127188070D01*
X167209969Y-113188070D02*
X181209969Y-113188070D01*
X186229969Y-127188070D02*
X186229969Y-113188070D01*
X200259969Y-127188070D02*
X186229969Y-127188070D01*
X200259969Y-113188070D02*
X200259969Y-127188070D01*
X186259969Y-113188070D02*
X200259969Y-113188070D01*
X186229969Y-106614070D02*
X186229969Y-92614070D01*
X200259969Y-106614070D02*
X186229969Y-106614070D01*
X200259969Y-92614070D02*
X200259969Y-106614070D01*
X186259969Y-92614070D02*
X200259969Y-92614070D01*
X167179969Y-104074070D02*
X167179969Y-90074070D01*
X181209969Y-104074070D02*
X167179969Y-104074070D01*
X181209969Y-90074070D02*
X181209969Y-104074070D01*
X110059969Y-91547270D02*
X124059969Y-91547270D01*
X110029969Y-86497270D02*
X110029969Y-72497270D01*
X124059969Y-86497270D02*
X110029969Y-86497270D01*
X124059969Y-72497270D02*
X124059969Y-86497270D01*
X110059969Y-72497270D02*
X124059969Y-72497270D01*
X129079969Y-85278070D02*
X129079969Y-71278070D01*
X143109969Y-85278070D02*
X129079969Y-85278070D01*
X143109969Y-71278070D02*
X143109969Y-85278070D01*
X129109969Y-71278070D02*
X143109969Y-71278070D01*
X201966820Y-44718110D02*
X128828843Y-44718110D01*
X89144595Y-132571910D02*
X201968854Y-132596666D01*
X129079969Y-104328070D02*
X129079969Y-90328070D01*
X143109969Y-104328070D02*
X129079969Y-104328070D01*
X143109969Y-90328070D02*
X143109969Y-104328070D01*
X129109969Y-90328070D02*
X143109969Y-90328070D01*
X110029969Y-105547270D02*
X110029969Y-91547270D01*
X124059969Y-105547270D02*
X110029969Y-105547270D01*
X124059969Y-91547270D02*
X124059969Y-105547270D01*
X146626800Y-46990000D02*
G75*
G03*
X146626800Y-46990000I-1000000J0D01*
G01*
M02*
