%TF.GenerationSoftware,KiCad,Pcbnew,(5.1.8-0-10_14)*%
%TF.CreationDate,2021-01-26T12:58:30-06:00*%
%TF.ProjectId,halfboard-middle,68616c66-626f-4617-9264-2d6d6964646c,rev?*%
%TF.SameCoordinates,Original*%
%TF.FileFunction,Copper,L1,Top*%
%TF.FilePolarity,Positive*%
%FSLAX46Y46*%
G04 Gerber Fmt 4.6, Leading zero omitted, Abs format (unit mm)*
G04 Created by KiCad (PCBNEW (5.1.8-0-10_14)) date 2021-01-26 12:58:30*
%MOMM*%
%LPD*%
G01*
G04 APERTURE LIST*
%TA.AperFunction,NonConductor*%
%ADD10C,0.254000*%
%TD*%
%TA.AperFunction,NonConductor*%
%ADD11C,0.100000*%
%TD*%
G04 APERTURE END LIST*
D10*
X207644034Y-40766737D02*
X206884001Y-140837740D01*
X82933290Y-135768182D01*
X84586678Y-46957583D01*
X86196800Y-46957583D01*
X86196801Y-130332452D01*
X86197026Y-130334734D01*
X86197037Y-130336352D01*
X86199394Y-130358782D01*
X86200171Y-130366669D01*
X86200171Y-130396159D01*
X86201134Y-130405324D01*
X86250560Y-130845964D01*
X86262991Y-130904447D01*
X86274616Y-130963156D01*
X86277341Y-130971959D01*
X86411413Y-131394607D01*
X86434974Y-131449578D01*
X86457774Y-131504896D01*
X86462157Y-131513002D01*
X86675769Y-131901558D01*
X86709542Y-131950881D01*
X86742667Y-132000739D01*
X86748541Y-132007839D01*
X87033555Y-132347506D01*
X87076269Y-132389334D01*
X87118446Y-132431807D01*
X87125587Y-132437631D01*
X87471149Y-132715469D01*
X87521202Y-132748222D01*
X87570795Y-132781674D01*
X87578929Y-132785998D01*
X87578937Y-132786002D01*
X87971878Y-132991427D01*
X88027331Y-133013831D01*
X88082486Y-133037016D01*
X88091308Y-133039679D01*
X88516671Y-133164870D01*
X88575390Y-133176071D01*
X88634027Y-133188108D01*
X88643198Y-133189007D01*
X89082480Y-133228985D01*
X89112032Y-133231902D01*
X178664000Y-133251552D01*
X178664000Y-134652418D01*
X178673550Y-134749382D01*
X178711290Y-134873792D01*
X178772575Y-134988449D01*
X178855052Y-135088948D01*
X178955550Y-135171425D01*
X179070207Y-135232710D01*
X179194617Y-135270450D01*
X179324000Y-135283193D01*
X179453382Y-135270450D01*
X179577792Y-135232710D01*
X179692449Y-135171425D01*
X179792948Y-135088948D01*
X179875425Y-134988450D01*
X179936710Y-134873793D01*
X179974450Y-134749383D01*
X179984000Y-134652419D01*
X179984000Y-133251842D01*
X188570001Y-133253726D01*
X188570001Y-135668419D01*
X188579551Y-135765383D01*
X188617291Y-135889793D01*
X188678576Y-136004450D01*
X188761053Y-136104948D01*
X188861551Y-136187425D01*
X188976208Y-136248710D01*
X189100618Y-136286450D01*
X189230000Y-136299193D01*
X189359383Y-136286450D01*
X189483793Y-136248710D01*
X189598450Y-136187425D01*
X189698948Y-136104948D01*
X189781425Y-136004450D01*
X189842710Y-135889793D01*
X189880450Y-135765383D01*
X189890000Y-135668419D01*
X189890000Y-133254015D01*
X201969115Y-133256666D01*
X201969157Y-133256666D01*
X202001128Y-133256673D01*
X202030921Y-133253745D01*
X202058511Y-133253938D01*
X202067682Y-133253039D01*
X202508657Y-133206691D01*
X202567244Y-133194664D01*
X202626014Y-133183454D01*
X202634836Y-133180790D01*
X203058410Y-133049672D01*
X203113561Y-133026488D01*
X203169019Y-133004082D01*
X203177156Y-132999756D01*
X203567195Y-132788861D01*
X203616762Y-132755428D01*
X203666841Y-132722657D01*
X203673982Y-132716833D01*
X204015630Y-132434197D01*
X204057769Y-132391762D01*
X204100519Y-132349899D01*
X204106393Y-132342798D01*
X204386638Y-131999185D01*
X204419743Y-131949359D01*
X204453538Y-131900002D01*
X204457921Y-131891896D01*
X204666085Y-131500394D01*
X204688865Y-131445126D01*
X204712446Y-131390108D01*
X204715171Y-131381304D01*
X204843329Y-130956825D01*
X204854949Y-130898137D01*
X204867385Y-130839634D01*
X204868348Y-130830469D01*
X204911617Y-130389183D01*
X204911617Y-130389172D01*
X204914767Y-130357179D01*
X204912732Y-46957564D01*
X204909418Y-46923925D01*
X204909441Y-46896299D01*
X204908485Y-46887134D01*
X204859423Y-46446452D01*
X204847043Y-46387972D01*
X204835465Y-46329241D01*
X204832747Y-46320436D01*
X204699025Y-45897677D01*
X204675517Y-45842703D01*
X204652757Y-45787352D01*
X204648380Y-45779243D01*
X204435091Y-45390508D01*
X204401343Y-45341132D01*
X204368273Y-45291268D01*
X204362405Y-45284163D01*
X204077672Y-44944261D01*
X204034965Y-44902371D01*
X203992853Y-44859893D01*
X203985716Y-44854063D01*
X203640384Y-44575937D01*
X203590363Y-44543145D01*
X203540793Y-44509650D01*
X203532660Y-44505317D01*
X203139884Y-44299565D01*
X203084436Y-44277109D01*
X203029315Y-44253884D01*
X203020495Y-44251213D01*
X202595235Y-44125669D01*
X202536492Y-44114413D01*
X202477896Y-44102334D01*
X202468728Y-44101428D01*
X202468726Y-44101428D01*
X202029285Y-44061069D01*
X201999239Y-44058110D01*
X128796424Y-44058110D01*
X128699460Y-44067660D01*
X128683365Y-44072542D01*
X128513954Y-44099463D01*
X128472438Y-44110300D01*
X128430312Y-44118396D01*
X128421494Y-44121072D01*
X127995472Y-44253594D01*
X127940368Y-44276847D01*
X127884927Y-44299336D01*
X127876801Y-44303672D01*
X127876796Y-44303674D01*
X127876792Y-44303677D01*
X127484628Y-44516420D01*
X127435112Y-44549919D01*
X127385073Y-44582762D01*
X127377940Y-44588597D01*
X127034563Y-44873464D01*
X126992467Y-44915972D01*
X126949790Y-44957880D01*
X126943926Y-44964989D01*
X126662420Y-45311126D01*
X126629388Y-45360993D01*
X126595659Y-45410399D01*
X126591287Y-45418511D01*
X126382373Y-45812734D01*
X126359657Y-45868064D01*
X126336164Y-45923086D01*
X126333452Y-45931893D01*
X126205089Y-46359186D01*
X126193554Y-46417868D01*
X126181195Y-46476411D01*
X126180244Y-46485577D01*
X126137321Y-46929665D01*
X126137356Y-46955103D01*
X126136801Y-46960742D01*
X126136800Y-78588000D01*
X124719969Y-78588000D01*
X124719969Y-72529689D01*
X124723162Y-72497270D01*
X124710419Y-72367887D01*
X124672679Y-72243477D01*
X124611394Y-72128820D01*
X124528917Y-72028322D01*
X124428419Y-71945845D01*
X124313762Y-71884560D01*
X124189352Y-71846820D01*
X124092388Y-71837270D01*
X124059969Y-71834077D01*
X124027550Y-71837270D01*
X121132200Y-71837270D01*
X121132200Y-51340419D01*
X121135393Y-51308000D01*
X121122650Y-51178617D01*
X121084910Y-51054207D01*
X121023625Y-50939550D01*
X120941148Y-50839052D01*
X120840650Y-50756575D01*
X120725993Y-50695290D01*
X120601583Y-50657550D01*
X120504619Y-50648000D01*
X120472200Y-50644807D01*
X120439781Y-50648000D01*
X113138619Y-50648000D01*
X113106200Y-50644807D01*
X113073781Y-50648000D01*
X112976817Y-50657550D01*
X112852407Y-50695290D01*
X112737750Y-50756575D01*
X112637252Y-50839052D01*
X112554775Y-50939550D01*
X112493490Y-51054207D01*
X112455750Y-51178617D01*
X112443007Y-51308000D01*
X112446200Y-51340419D01*
X112446200Y-71837270D01*
X110062388Y-71837270D01*
X110029969Y-71834077D01*
X109900587Y-71846820D01*
X109776177Y-71884560D01*
X109661520Y-71945845D01*
X109561022Y-72028322D01*
X109478545Y-72128820D01*
X109417260Y-72243477D01*
X109379520Y-72367887D01*
X109369970Y-72464851D01*
X109369970Y-78588000D01*
X107900594Y-78588000D01*
X107900594Y-46943459D01*
X107894683Y-46883443D01*
X107894683Y-46879752D01*
X107893720Y-46870587D01*
X107891234Y-46848422D01*
X107891044Y-46846495D01*
X107891002Y-46846357D01*
X107844294Y-46429946D01*
X107831861Y-46371457D01*
X107820238Y-46312754D01*
X107817513Y-46303951D01*
X107683441Y-45881304D01*
X107659880Y-45826332D01*
X107637081Y-45771017D01*
X107632697Y-45762911D01*
X107632697Y-45762910D01*
X107632694Y-45762906D01*
X107419086Y-45374354D01*
X107385299Y-45325009D01*
X107352187Y-45275171D01*
X107346313Y-45268071D01*
X107061298Y-44928404D01*
X107018568Y-44886560D01*
X106976410Y-44844106D01*
X106969268Y-44838282D01*
X106623707Y-44560443D01*
X106573655Y-44527690D01*
X106524060Y-44494237D01*
X106515928Y-44489914D01*
X106515924Y-44489911D01*
X106515920Y-44489909D01*
X106122977Y-44284484D01*
X106067545Y-44262088D01*
X106012369Y-44238894D01*
X106003547Y-44236231D01*
X105861141Y-44194319D01*
X105827926Y-44167012D01*
X105713321Y-44105629D01*
X105588943Y-44067783D01*
X105491987Y-44058150D01*
X105132346Y-44057843D01*
X105010078Y-44046716D01*
X104881271Y-44047616D01*
X104832693Y-44057588D01*
X101244000Y-44054527D01*
X101244000Y-43401581D01*
X101234450Y-43304617D01*
X101196710Y-43180207D01*
X101135425Y-43065550D01*
X101052948Y-42965052D01*
X100952450Y-42882575D01*
X100837793Y-42821290D01*
X100713383Y-42783550D01*
X100584000Y-42770807D01*
X100454618Y-42783550D01*
X100330208Y-42821290D01*
X100215551Y-42882575D01*
X100115053Y-42965052D01*
X100032576Y-43065550D01*
X99971291Y-43180207D01*
X99933551Y-43304617D01*
X99924001Y-43401581D01*
X99924001Y-44053401D01*
X95148000Y-44049328D01*
X95148000Y-42893581D01*
X95138450Y-42796617D01*
X95100710Y-42672207D01*
X95039425Y-42557550D01*
X94956948Y-42457052D01*
X94856449Y-42374575D01*
X94741792Y-42313290D01*
X94617382Y-42275550D01*
X94488000Y-42262807D01*
X94358617Y-42275550D01*
X94234207Y-42313290D01*
X94119550Y-42374575D01*
X94019052Y-42457052D01*
X93936575Y-42557551D01*
X93875290Y-42672208D01*
X93837550Y-42796618D01*
X93828000Y-42893582D01*
X93828000Y-44048203D01*
X88871012Y-44043975D01*
X88871000Y-44043976D01*
X88868490Y-44043974D01*
X88771518Y-44053439D01*
X88752672Y-44059138D01*
X88588930Y-44084984D01*
X88547519Y-44095747D01*
X88505488Y-44103765D01*
X88496666Y-44106429D01*
X88067847Y-44239170D01*
X88012721Y-44262344D01*
X87957239Y-44284759D01*
X87949103Y-44289086D01*
X87554234Y-44502591D01*
X87504650Y-44536036D01*
X87454587Y-44568796D01*
X87447446Y-44574620D01*
X87101567Y-44860756D01*
X87059428Y-44903191D01*
X87016678Y-44945054D01*
X87010804Y-44952155D01*
X86727089Y-45300023D01*
X86693974Y-45349865D01*
X86660189Y-45399206D01*
X86655806Y-45407312D01*
X86445063Y-45803663D01*
X86422270Y-45858964D01*
X86398703Y-45913949D01*
X86395978Y-45922753D01*
X86266233Y-46352488D01*
X86254613Y-46411172D01*
X86242177Y-46469680D01*
X86241214Y-46478845D01*
X86197410Y-46925597D01*
X86197410Y-46951389D01*
X86196800Y-46957583D01*
X84586678Y-46957583D01*
X84706653Y-40513258D01*
X207644034Y-40766737D01*
%TA.AperFunction,NonConductor*%
D11*
G36*
X207644034Y-40766737D02*
G01*
X206884001Y-140837740D01*
X82933290Y-135768182D01*
X84586678Y-46957583D01*
X86196800Y-46957583D01*
X86196801Y-130332452D01*
X86197026Y-130334734D01*
X86197037Y-130336352D01*
X86199394Y-130358782D01*
X86200171Y-130366669D01*
X86200171Y-130396159D01*
X86201134Y-130405324D01*
X86250560Y-130845964D01*
X86262991Y-130904447D01*
X86274616Y-130963156D01*
X86277341Y-130971959D01*
X86411413Y-131394607D01*
X86434974Y-131449578D01*
X86457774Y-131504896D01*
X86462157Y-131513002D01*
X86675769Y-131901558D01*
X86709542Y-131950881D01*
X86742667Y-132000739D01*
X86748541Y-132007839D01*
X87033555Y-132347506D01*
X87076269Y-132389334D01*
X87118446Y-132431807D01*
X87125587Y-132437631D01*
X87471149Y-132715469D01*
X87521202Y-132748222D01*
X87570795Y-132781674D01*
X87578929Y-132785998D01*
X87578937Y-132786002D01*
X87971878Y-132991427D01*
X88027331Y-133013831D01*
X88082486Y-133037016D01*
X88091308Y-133039679D01*
X88516671Y-133164870D01*
X88575390Y-133176071D01*
X88634027Y-133188108D01*
X88643198Y-133189007D01*
X89082480Y-133228985D01*
X89112032Y-133231902D01*
X178664000Y-133251552D01*
X178664000Y-134652418D01*
X178673550Y-134749382D01*
X178711290Y-134873792D01*
X178772575Y-134988449D01*
X178855052Y-135088948D01*
X178955550Y-135171425D01*
X179070207Y-135232710D01*
X179194617Y-135270450D01*
X179324000Y-135283193D01*
X179453382Y-135270450D01*
X179577792Y-135232710D01*
X179692449Y-135171425D01*
X179792948Y-135088948D01*
X179875425Y-134988450D01*
X179936710Y-134873793D01*
X179974450Y-134749383D01*
X179984000Y-134652419D01*
X179984000Y-133251842D01*
X188570001Y-133253726D01*
X188570001Y-135668419D01*
X188579551Y-135765383D01*
X188617291Y-135889793D01*
X188678576Y-136004450D01*
X188761053Y-136104948D01*
X188861551Y-136187425D01*
X188976208Y-136248710D01*
X189100618Y-136286450D01*
X189230000Y-136299193D01*
X189359383Y-136286450D01*
X189483793Y-136248710D01*
X189598450Y-136187425D01*
X189698948Y-136104948D01*
X189781425Y-136004450D01*
X189842710Y-135889793D01*
X189880450Y-135765383D01*
X189890000Y-135668419D01*
X189890000Y-133254015D01*
X201969115Y-133256666D01*
X201969157Y-133256666D01*
X202001128Y-133256673D01*
X202030921Y-133253745D01*
X202058511Y-133253938D01*
X202067682Y-133253039D01*
X202508657Y-133206691D01*
X202567244Y-133194664D01*
X202626014Y-133183454D01*
X202634836Y-133180790D01*
X203058410Y-133049672D01*
X203113561Y-133026488D01*
X203169019Y-133004082D01*
X203177156Y-132999756D01*
X203567195Y-132788861D01*
X203616762Y-132755428D01*
X203666841Y-132722657D01*
X203673982Y-132716833D01*
X204015630Y-132434197D01*
X204057769Y-132391762D01*
X204100519Y-132349899D01*
X204106393Y-132342798D01*
X204386638Y-131999185D01*
X204419743Y-131949359D01*
X204453538Y-131900002D01*
X204457921Y-131891896D01*
X204666085Y-131500394D01*
X204688865Y-131445126D01*
X204712446Y-131390108D01*
X204715171Y-131381304D01*
X204843329Y-130956825D01*
X204854949Y-130898137D01*
X204867385Y-130839634D01*
X204868348Y-130830469D01*
X204911617Y-130389183D01*
X204911617Y-130389172D01*
X204914767Y-130357179D01*
X204912732Y-46957564D01*
X204909418Y-46923925D01*
X204909441Y-46896299D01*
X204908485Y-46887134D01*
X204859423Y-46446452D01*
X204847043Y-46387972D01*
X204835465Y-46329241D01*
X204832747Y-46320436D01*
X204699025Y-45897677D01*
X204675517Y-45842703D01*
X204652757Y-45787352D01*
X204648380Y-45779243D01*
X204435091Y-45390508D01*
X204401343Y-45341132D01*
X204368273Y-45291268D01*
X204362405Y-45284163D01*
X204077672Y-44944261D01*
X204034965Y-44902371D01*
X203992853Y-44859893D01*
X203985716Y-44854063D01*
X203640384Y-44575937D01*
X203590363Y-44543145D01*
X203540793Y-44509650D01*
X203532660Y-44505317D01*
X203139884Y-44299565D01*
X203084436Y-44277109D01*
X203029315Y-44253884D01*
X203020495Y-44251213D01*
X202595235Y-44125669D01*
X202536492Y-44114413D01*
X202477896Y-44102334D01*
X202468728Y-44101428D01*
X202468726Y-44101428D01*
X202029285Y-44061069D01*
X201999239Y-44058110D01*
X128796424Y-44058110D01*
X128699460Y-44067660D01*
X128683365Y-44072542D01*
X128513954Y-44099463D01*
X128472438Y-44110300D01*
X128430312Y-44118396D01*
X128421494Y-44121072D01*
X127995472Y-44253594D01*
X127940368Y-44276847D01*
X127884927Y-44299336D01*
X127876801Y-44303672D01*
X127876796Y-44303674D01*
X127876792Y-44303677D01*
X127484628Y-44516420D01*
X127435112Y-44549919D01*
X127385073Y-44582762D01*
X127377940Y-44588597D01*
X127034563Y-44873464D01*
X126992467Y-44915972D01*
X126949790Y-44957880D01*
X126943926Y-44964989D01*
X126662420Y-45311126D01*
X126629388Y-45360993D01*
X126595659Y-45410399D01*
X126591287Y-45418511D01*
X126382373Y-45812734D01*
X126359657Y-45868064D01*
X126336164Y-45923086D01*
X126333452Y-45931893D01*
X126205089Y-46359186D01*
X126193554Y-46417868D01*
X126181195Y-46476411D01*
X126180244Y-46485577D01*
X126137321Y-46929665D01*
X126137356Y-46955103D01*
X126136801Y-46960742D01*
X126136800Y-78588000D01*
X124719969Y-78588000D01*
X124719969Y-72529689D01*
X124723162Y-72497270D01*
X124710419Y-72367887D01*
X124672679Y-72243477D01*
X124611394Y-72128820D01*
X124528917Y-72028322D01*
X124428419Y-71945845D01*
X124313762Y-71884560D01*
X124189352Y-71846820D01*
X124092388Y-71837270D01*
X124059969Y-71834077D01*
X124027550Y-71837270D01*
X121132200Y-71837270D01*
X121132200Y-51340419D01*
X121135393Y-51308000D01*
X121122650Y-51178617D01*
X121084910Y-51054207D01*
X121023625Y-50939550D01*
X120941148Y-50839052D01*
X120840650Y-50756575D01*
X120725993Y-50695290D01*
X120601583Y-50657550D01*
X120504619Y-50648000D01*
X120472200Y-50644807D01*
X120439781Y-50648000D01*
X113138619Y-50648000D01*
X113106200Y-50644807D01*
X113073781Y-50648000D01*
X112976817Y-50657550D01*
X112852407Y-50695290D01*
X112737750Y-50756575D01*
X112637252Y-50839052D01*
X112554775Y-50939550D01*
X112493490Y-51054207D01*
X112455750Y-51178617D01*
X112443007Y-51308000D01*
X112446200Y-51340419D01*
X112446200Y-71837270D01*
X110062388Y-71837270D01*
X110029969Y-71834077D01*
X109900587Y-71846820D01*
X109776177Y-71884560D01*
X109661520Y-71945845D01*
X109561022Y-72028322D01*
X109478545Y-72128820D01*
X109417260Y-72243477D01*
X109379520Y-72367887D01*
X109369970Y-72464851D01*
X109369970Y-78588000D01*
X107900594Y-78588000D01*
X107900594Y-46943459D01*
X107894683Y-46883443D01*
X107894683Y-46879752D01*
X107893720Y-46870587D01*
X107891234Y-46848422D01*
X107891044Y-46846495D01*
X107891002Y-46846357D01*
X107844294Y-46429946D01*
X107831861Y-46371457D01*
X107820238Y-46312754D01*
X107817513Y-46303951D01*
X107683441Y-45881304D01*
X107659880Y-45826332D01*
X107637081Y-45771017D01*
X107632697Y-45762911D01*
X107632697Y-45762910D01*
X107632694Y-45762906D01*
X107419086Y-45374354D01*
X107385299Y-45325009D01*
X107352187Y-45275171D01*
X107346313Y-45268071D01*
X107061298Y-44928404D01*
X107018568Y-44886560D01*
X106976410Y-44844106D01*
X106969268Y-44838282D01*
X106623707Y-44560443D01*
X106573655Y-44527690D01*
X106524060Y-44494237D01*
X106515928Y-44489914D01*
X106515924Y-44489911D01*
X106515920Y-44489909D01*
X106122977Y-44284484D01*
X106067545Y-44262088D01*
X106012369Y-44238894D01*
X106003547Y-44236231D01*
X105861141Y-44194319D01*
X105827926Y-44167012D01*
X105713321Y-44105629D01*
X105588943Y-44067783D01*
X105491987Y-44058150D01*
X105132346Y-44057843D01*
X105010078Y-44046716D01*
X104881271Y-44047616D01*
X104832693Y-44057588D01*
X101244000Y-44054527D01*
X101244000Y-43401581D01*
X101234450Y-43304617D01*
X101196710Y-43180207D01*
X101135425Y-43065550D01*
X101052948Y-42965052D01*
X100952450Y-42882575D01*
X100837793Y-42821290D01*
X100713383Y-42783550D01*
X100584000Y-42770807D01*
X100454618Y-42783550D01*
X100330208Y-42821290D01*
X100215551Y-42882575D01*
X100115053Y-42965052D01*
X100032576Y-43065550D01*
X99971291Y-43180207D01*
X99933551Y-43304617D01*
X99924001Y-43401581D01*
X99924001Y-44053401D01*
X95148000Y-44049328D01*
X95148000Y-42893581D01*
X95138450Y-42796617D01*
X95100710Y-42672207D01*
X95039425Y-42557550D01*
X94956948Y-42457052D01*
X94856449Y-42374575D01*
X94741792Y-42313290D01*
X94617382Y-42275550D01*
X94488000Y-42262807D01*
X94358617Y-42275550D01*
X94234207Y-42313290D01*
X94119550Y-42374575D01*
X94019052Y-42457052D01*
X93936575Y-42557551D01*
X93875290Y-42672208D01*
X93837550Y-42796618D01*
X93828000Y-42893582D01*
X93828000Y-44048203D01*
X88871012Y-44043975D01*
X88871000Y-44043976D01*
X88868490Y-44043974D01*
X88771518Y-44053439D01*
X88752672Y-44059138D01*
X88588930Y-44084984D01*
X88547519Y-44095747D01*
X88505488Y-44103765D01*
X88496666Y-44106429D01*
X88067847Y-44239170D01*
X88012721Y-44262344D01*
X87957239Y-44284759D01*
X87949103Y-44289086D01*
X87554234Y-44502591D01*
X87504650Y-44536036D01*
X87454587Y-44568796D01*
X87447446Y-44574620D01*
X87101567Y-44860756D01*
X87059428Y-44903191D01*
X87016678Y-44945054D01*
X87010804Y-44952155D01*
X86727089Y-45300023D01*
X86693974Y-45349865D01*
X86660189Y-45399206D01*
X86655806Y-45407312D01*
X86445063Y-45803663D01*
X86422270Y-45858964D01*
X86398703Y-45913949D01*
X86395978Y-45922753D01*
X86266233Y-46352488D01*
X86254613Y-46411172D01*
X86242177Y-46469680D01*
X86241214Y-46478845D01*
X86197410Y-46925597D01*
X86197410Y-46951389D01*
X86196800Y-46957583D01*
X84586678Y-46957583D01*
X84706653Y-40513258D01*
X207644034Y-40766737D01*
G37*
%TD.AperFunction*%
D10*
X93828001Y-45368337D02*
X93828001Y-46703571D01*
X93824807Y-46736000D01*
X93837550Y-46865383D01*
X93875290Y-46989793D01*
X93936575Y-47104450D01*
X94019052Y-47204948D01*
X94119550Y-47287425D01*
X94234207Y-47348710D01*
X94358617Y-47386450D01*
X94455581Y-47396000D01*
X94488000Y-47399193D01*
X94520419Y-47396000D01*
X100551581Y-47396000D01*
X100584000Y-47399193D01*
X100616419Y-47396000D01*
X100713383Y-47386450D01*
X100837793Y-47348710D01*
X100952450Y-47287425D01*
X101052948Y-47204948D01*
X101135425Y-47104450D01*
X101196710Y-46989793D01*
X101234450Y-46865383D01*
X101247193Y-46736000D01*
X101244000Y-46703581D01*
X101244000Y-45374861D01*
X104982098Y-45378150D01*
X104986515Y-45377719D01*
X105071830Y-45377792D01*
X105267578Y-45395606D01*
X105568777Y-45484254D01*
X105847026Y-45629719D01*
X106091718Y-45826458D01*
X106293539Y-46066979D01*
X106444795Y-46342113D01*
X106539734Y-46641396D01*
X106580594Y-47005673D01*
X106580595Y-79197356D01*
X106575607Y-79248000D01*
X106588350Y-79377383D01*
X106626090Y-79501793D01*
X106687375Y-79616450D01*
X106769852Y-79716948D01*
X106870350Y-79799425D01*
X106985007Y-79860710D01*
X107109417Y-79898450D01*
X107206381Y-79908000D01*
X109369969Y-79908000D01*
X109369969Y-86464851D01*
X109366776Y-86497270D01*
X109379519Y-86626653D01*
X109417259Y-86751063D01*
X109478544Y-86865720D01*
X109517855Y-86913620D01*
X109561021Y-86966218D01*
X109661519Y-87048695D01*
X109776176Y-87109980D01*
X109900586Y-87147720D01*
X110029969Y-87160463D01*
X110062388Y-87157270D01*
X112446201Y-87157270D01*
X112446201Y-90887270D01*
X110062388Y-90887270D01*
X110029969Y-90884077D01*
X109900587Y-90896820D01*
X109776177Y-90934560D01*
X109661520Y-90995845D01*
X109561022Y-91078322D01*
X109478545Y-91178820D01*
X109417260Y-91293477D01*
X109379520Y-91417887D01*
X109369970Y-91514851D01*
X109369969Y-105514851D01*
X109366776Y-105547270D01*
X109379519Y-105676653D01*
X109417259Y-105801063D01*
X109478544Y-105915720D01*
X109517855Y-105963620D01*
X109561021Y-106016218D01*
X109661519Y-106098695D01*
X109776176Y-106159980D01*
X109900586Y-106197720D01*
X110029969Y-106210463D01*
X110062388Y-106207270D01*
X112446201Y-106207270D01*
X112446201Y-112528070D01*
X110062388Y-112528070D01*
X110029969Y-112524877D01*
X109900587Y-112537620D01*
X109776177Y-112575360D01*
X109661520Y-112636645D01*
X109561022Y-112719122D01*
X109478545Y-112819620D01*
X109417260Y-112934277D01*
X109379520Y-113058687D01*
X109369970Y-113155651D01*
X109369969Y-127155651D01*
X109366776Y-127188070D01*
X109379519Y-127317453D01*
X109417259Y-127441863D01*
X109478544Y-127556520D01*
X109561021Y-127657018D01*
X109661519Y-127739495D01*
X109776176Y-127800780D01*
X109900586Y-127838520D01*
X110029969Y-127851263D01*
X110062388Y-127848070D01*
X124027550Y-127848070D01*
X124059969Y-127851263D01*
X124092388Y-127848070D01*
X124189352Y-127838520D01*
X124313762Y-127800780D01*
X124428419Y-127739495D01*
X124528917Y-127657018D01*
X124611394Y-127556520D01*
X124672679Y-127441863D01*
X124710419Y-127317453D01*
X124723162Y-127188070D01*
X124719969Y-127155651D01*
X124719969Y-113220489D01*
X124723162Y-113188070D01*
X124710419Y-113058687D01*
X124672679Y-112934277D01*
X124611394Y-112819620D01*
X124528917Y-112719122D01*
X124428419Y-112636645D01*
X124313762Y-112575360D01*
X124189352Y-112537620D01*
X124092388Y-112528070D01*
X124059969Y-112524877D01*
X124027550Y-112528070D01*
X121132200Y-112528070D01*
X121132200Y-106207270D01*
X124027550Y-106207270D01*
X124059969Y-106210463D01*
X124092388Y-106207270D01*
X124189352Y-106197720D01*
X124313762Y-106159980D01*
X124428419Y-106098695D01*
X124528917Y-106016218D01*
X124611394Y-105915720D01*
X124672679Y-105801063D01*
X124710419Y-105676653D01*
X124723162Y-105547270D01*
X124719969Y-105514851D01*
X124719969Y-91579689D01*
X124723162Y-91547270D01*
X124710419Y-91417887D01*
X124672679Y-91293477D01*
X124611394Y-91178820D01*
X124528917Y-91078322D01*
X124428419Y-90995845D01*
X124313762Y-90934560D01*
X124189352Y-90896820D01*
X124092388Y-90887270D01*
X124059969Y-90884077D01*
X124027550Y-90887270D01*
X121132200Y-90887270D01*
X121132200Y-87157270D01*
X124027550Y-87157270D01*
X124059969Y-87160463D01*
X124092388Y-87157270D01*
X124189352Y-87147720D01*
X124313762Y-87109980D01*
X124428419Y-87048695D01*
X124528917Y-86966218D01*
X124611394Y-86865720D01*
X124672679Y-86751063D01*
X124710419Y-86626653D01*
X124723162Y-86497270D01*
X124719969Y-86464851D01*
X124719969Y-79908000D01*
X126764381Y-79908000D01*
X126796800Y-79911193D01*
X126829219Y-79908000D01*
X126926183Y-79898450D01*
X127050593Y-79860710D01*
X127165250Y-79799425D01*
X127265748Y-79716948D01*
X127348225Y-79616450D01*
X127409510Y-79501793D01*
X127447250Y-79377383D01*
X127459993Y-79248000D01*
X127456800Y-79215581D01*
X127456800Y-66228070D01*
X128416776Y-66228070D01*
X128429519Y-66357453D01*
X128467259Y-66481863D01*
X128528544Y-66596520D01*
X128611021Y-66697018D01*
X128711519Y-66779495D01*
X128826176Y-66840780D01*
X128950586Y-66878520D01*
X129079969Y-66891263D01*
X129112388Y-66888070D01*
X131496200Y-66888070D01*
X131496200Y-70618070D01*
X129112388Y-70618070D01*
X129079969Y-70614877D01*
X128950587Y-70627620D01*
X128826177Y-70665360D01*
X128711520Y-70726645D01*
X128611022Y-70809122D01*
X128528545Y-70909620D01*
X128467260Y-71024277D01*
X128429520Y-71148687D01*
X128419970Y-71245651D01*
X128419969Y-85245651D01*
X128416776Y-85278070D01*
X128429519Y-85407453D01*
X128467259Y-85531863D01*
X128528544Y-85646520D01*
X128611021Y-85747018D01*
X128711519Y-85829495D01*
X128826176Y-85890780D01*
X128950586Y-85928520D01*
X129079969Y-85941263D01*
X129112388Y-85938070D01*
X131496201Y-85938070D01*
X131496201Y-89668070D01*
X129112388Y-89668070D01*
X129079969Y-89664877D01*
X128950587Y-89677620D01*
X128826177Y-89715360D01*
X128711520Y-89776645D01*
X128611022Y-89859122D01*
X128528545Y-89959620D01*
X128467260Y-90074277D01*
X128429520Y-90198687D01*
X128419970Y-90295651D01*
X128419969Y-104295651D01*
X128416776Y-104328070D01*
X128429519Y-104457453D01*
X128467259Y-104581863D01*
X128528544Y-104696520D01*
X128611021Y-104797018D01*
X128711519Y-104879495D01*
X128826176Y-104940780D01*
X128950586Y-104978520D01*
X129079969Y-104991263D01*
X129112388Y-104988070D01*
X131496201Y-104988070D01*
X131496201Y-112528070D01*
X129112388Y-112528070D01*
X129079969Y-112524877D01*
X128950587Y-112537620D01*
X128826177Y-112575360D01*
X128711520Y-112636645D01*
X128611022Y-112719122D01*
X128528545Y-112819620D01*
X128467260Y-112934277D01*
X128429520Y-113058687D01*
X128419970Y-113155651D01*
X128419969Y-127155651D01*
X128416776Y-127188070D01*
X128429519Y-127317453D01*
X128467259Y-127441863D01*
X128528544Y-127556520D01*
X128611021Y-127657018D01*
X128711519Y-127739495D01*
X128826176Y-127800780D01*
X128950586Y-127838520D01*
X129079969Y-127851263D01*
X129112388Y-127848070D01*
X143077550Y-127848070D01*
X143109969Y-127851263D01*
X143142388Y-127848070D01*
X143239352Y-127838520D01*
X143363762Y-127800780D01*
X143478419Y-127739495D01*
X143578917Y-127657018D01*
X143661394Y-127556520D01*
X143722679Y-127441863D01*
X143760419Y-127317453D01*
X143773162Y-127188070D01*
X143769969Y-127155651D01*
X143769969Y-113220489D01*
X143773162Y-113188070D01*
X143760419Y-113058687D01*
X143722679Y-112934277D01*
X143661394Y-112819620D01*
X143578917Y-112719122D01*
X143478419Y-112636645D01*
X143363762Y-112575360D01*
X143239352Y-112537620D01*
X143142388Y-112528070D01*
X143109969Y-112524877D01*
X143077550Y-112528070D01*
X140182200Y-112528070D01*
X140182200Y-104988070D01*
X143077550Y-104988070D01*
X143109969Y-104991263D01*
X143142388Y-104988070D01*
X143239352Y-104978520D01*
X143363762Y-104940780D01*
X143478419Y-104879495D01*
X143578917Y-104797018D01*
X143661394Y-104696520D01*
X143722679Y-104581863D01*
X143760419Y-104457453D01*
X143773162Y-104328070D01*
X143769969Y-104295651D01*
X143769969Y-90360489D01*
X143773162Y-90328070D01*
X143760419Y-90198687D01*
X143722679Y-90074277D01*
X143661394Y-89959620D01*
X143578917Y-89859122D01*
X143478419Y-89776645D01*
X143363762Y-89715360D01*
X143239352Y-89677620D01*
X143142388Y-89668070D01*
X143109969Y-89664877D01*
X143077550Y-89668070D01*
X140182200Y-89668070D01*
X140182200Y-85938070D01*
X143077550Y-85938070D01*
X143109969Y-85941263D01*
X143142388Y-85938070D01*
X143239352Y-85928520D01*
X143363762Y-85890780D01*
X143478419Y-85829495D01*
X143578917Y-85747018D01*
X143661394Y-85646520D01*
X143722679Y-85531863D01*
X143760419Y-85407453D01*
X143773162Y-85278070D01*
X143769969Y-85245651D01*
X143769969Y-71310489D01*
X143773162Y-71278070D01*
X143760419Y-71148687D01*
X143722679Y-71024277D01*
X143661394Y-70909620D01*
X143578917Y-70809122D01*
X143478419Y-70726645D01*
X143363762Y-70665360D01*
X143239352Y-70627620D01*
X143142388Y-70618070D01*
X143109969Y-70614877D01*
X143077550Y-70618070D01*
X140182200Y-70618070D01*
X140182200Y-66888070D01*
X143077550Y-66888070D01*
X143109969Y-66891263D01*
X143142388Y-66888070D01*
X143239352Y-66878520D01*
X143363762Y-66840780D01*
X143478419Y-66779495D01*
X143578917Y-66697018D01*
X143661394Y-66596520D01*
X143722679Y-66481863D01*
X143760419Y-66357453D01*
X143773162Y-66228070D01*
X143769969Y-66195651D01*
X143769969Y-64704070D01*
X147466776Y-64704070D01*
X147479519Y-64833453D01*
X147517259Y-64957863D01*
X147578544Y-65072520D01*
X147661021Y-65173018D01*
X147761519Y-65255495D01*
X147876176Y-65316780D01*
X148000586Y-65354520D01*
X148129969Y-65367263D01*
X148162388Y-65364070D01*
X150800200Y-65364070D01*
X150800200Y-69094070D01*
X148162388Y-69094070D01*
X148129969Y-69090877D01*
X148000587Y-69103620D01*
X147876177Y-69141360D01*
X147761520Y-69202645D01*
X147661022Y-69285122D01*
X147578545Y-69385620D01*
X147517260Y-69500277D01*
X147479520Y-69624687D01*
X147469970Y-69721651D01*
X147469969Y-83721651D01*
X147466776Y-83754070D01*
X147479519Y-83883453D01*
X147517259Y-84007863D01*
X147578544Y-84122520D01*
X147661021Y-84223018D01*
X147761519Y-84305495D01*
X147876176Y-84366780D01*
X148000586Y-84404520D01*
X148129969Y-84417263D01*
X148162388Y-84414070D01*
X150800201Y-84414070D01*
X150800201Y-88144070D01*
X148162388Y-88144070D01*
X148129969Y-88140877D01*
X148000587Y-88153620D01*
X147876177Y-88191360D01*
X147761520Y-88252645D01*
X147661022Y-88335122D01*
X147578545Y-88435620D01*
X147517260Y-88550277D01*
X147479520Y-88674687D01*
X147469970Y-88771651D01*
X147469969Y-102771651D01*
X147466776Y-102804070D01*
X147479519Y-102933453D01*
X147517259Y-103057863D01*
X147578544Y-103172520D01*
X147661021Y-103273018D01*
X147761519Y-103355495D01*
X147876176Y-103416780D01*
X148000586Y-103454520D01*
X148129969Y-103467263D01*
X148162388Y-103464070D01*
X150800201Y-103464070D01*
X150800201Y-112528070D01*
X148162388Y-112528070D01*
X148129969Y-112524877D01*
X148000587Y-112537620D01*
X147876177Y-112575360D01*
X147761520Y-112636645D01*
X147661022Y-112719122D01*
X147578545Y-112819620D01*
X147517260Y-112934277D01*
X147479520Y-113058687D01*
X147469970Y-113155651D01*
X147469969Y-127155651D01*
X147466776Y-127188070D01*
X147479519Y-127317453D01*
X147517259Y-127441863D01*
X147578544Y-127556520D01*
X147661021Y-127657018D01*
X147761519Y-127739495D01*
X147876176Y-127800780D01*
X148000586Y-127838520D01*
X148129969Y-127851263D01*
X148162388Y-127848070D01*
X162127550Y-127848070D01*
X162159969Y-127851263D01*
X162192388Y-127848070D01*
X162289352Y-127838520D01*
X162413762Y-127800780D01*
X162528419Y-127739495D01*
X162628917Y-127657018D01*
X162711394Y-127556520D01*
X162772679Y-127441863D01*
X162810419Y-127317453D01*
X162823162Y-127188070D01*
X162819969Y-127155651D01*
X162819969Y-113220489D01*
X162823162Y-113188070D01*
X162810419Y-113058687D01*
X162772679Y-112934277D01*
X162711394Y-112819620D01*
X162628917Y-112719122D01*
X162528419Y-112636645D01*
X162413762Y-112575360D01*
X162289352Y-112537620D01*
X162192388Y-112528070D01*
X162159969Y-112524877D01*
X162127550Y-112528070D01*
X159486200Y-112528070D01*
X159486200Y-103464070D01*
X162127550Y-103464070D01*
X162159969Y-103467263D01*
X162192388Y-103464070D01*
X162219904Y-103461360D01*
X162289352Y-103454520D01*
X162413762Y-103416780D01*
X162528419Y-103355495D01*
X162628917Y-103273018D01*
X162711394Y-103172520D01*
X162772679Y-103057863D01*
X162810419Y-102933453D01*
X162819969Y-102836489D01*
X162819969Y-102836488D01*
X162823162Y-102804070D01*
X162819969Y-102771651D01*
X162819969Y-88836489D01*
X162823162Y-88804070D01*
X162810419Y-88674687D01*
X162772679Y-88550277D01*
X162711394Y-88435620D01*
X162628917Y-88335122D01*
X162528419Y-88252645D01*
X162413762Y-88191360D01*
X162289352Y-88153620D01*
X162192388Y-88144070D01*
X162159969Y-88140877D01*
X162127550Y-88144070D01*
X159486200Y-88144070D01*
X159486200Y-84414070D01*
X162127550Y-84414070D01*
X162159969Y-84417263D01*
X162192388Y-84414070D01*
X162219904Y-84411360D01*
X162289352Y-84404520D01*
X162413762Y-84366780D01*
X162528419Y-84305495D01*
X162628917Y-84223018D01*
X162711394Y-84122520D01*
X162772679Y-84007863D01*
X162810419Y-83883453D01*
X162819969Y-83786489D01*
X162819969Y-83786488D01*
X162823162Y-83754070D01*
X162819969Y-83721651D01*
X162819969Y-69786489D01*
X162823162Y-69754070D01*
X162810419Y-69624687D01*
X162772679Y-69500277D01*
X162711394Y-69385620D01*
X162628917Y-69285122D01*
X162528419Y-69202645D01*
X162413762Y-69141360D01*
X162289352Y-69103620D01*
X162192388Y-69094070D01*
X162159969Y-69090877D01*
X162127550Y-69094070D01*
X159486200Y-69094070D01*
X159486200Y-65974070D01*
X166516776Y-65974070D01*
X166529519Y-66103453D01*
X166567259Y-66227863D01*
X166628544Y-66342520D01*
X166711021Y-66443018D01*
X166811519Y-66525495D01*
X166926176Y-66586780D01*
X167050586Y-66624520D01*
X167179969Y-66637263D01*
X167212388Y-66634070D01*
X169850200Y-66634070D01*
X169850200Y-70364070D01*
X167212388Y-70364070D01*
X167179969Y-70360877D01*
X167050587Y-70373620D01*
X166926177Y-70411360D01*
X166811520Y-70472645D01*
X166711022Y-70555122D01*
X166628545Y-70655620D01*
X166567260Y-70770277D01*
X166529520Y-70894687D01*
X166519970Y-70991651D01*
X166519969Y-84991651D01*
X166516776Y-85024070D01*
X166529519Y-85153453D01*
X166567259Y-85277863D01*
X166628544Y-85392520D01*
X166711021Y-85493018D01*
X166811519Y-85575495D01*
X166926176Y-85636780D01*
X167050586Y-85674520D01*
X167179969Y-85687263D01*
X167212388Y-85684070D01*
X169850201Y-85684070D01*
X169850201Y-89414070D01*
X167212388Y-89414070D01*
X167179969Y-89410877D01*
X167050587Y-89423620D01*
X166926177Y-89461360D01*
X166811520Y-89522645D01*
X166711022Y-89605122D01*
X166628545Y-89705620D01*
X166567260Y-89820277D01*
X166529520Y-89944687D01*
X166519970Y-90041651D01*
X166519969Y-104041651D01*
X166516776Y-104074070D01*
X166529519Y-104203453D01*
X166567259Y-104327863D01*
X166628544Y-104442520D01*
X166711021Y-104543018D01*
X166811519Y-104625495D01*
X166926176Y-104686780D01*
X167050586Y-104724520D01*
X167179969Y-104737263D01*
X167212388Y-104734070D01*
X169850201Y-104734070D01*
X169850201Y-112528070D01*
X167212388Y-112528070D01*
X167179969Y-112524877D01*
X167050587Y-112537620D01*
X166926177Y-112575360D01*
X166811520Y-112636645D01*
X166711022Y-112719122D01*
X166628545Y-112819620D01*
X166567260Y-112934277D01*
X166529520Y-113058687D01*
X166519970Y-113155651D01*
X166519969Y-127155651D01*
X166516776Y-127188070D01*
X166529519Y-127317453D01*
X166567259Y-127441863D01*
X166628544Y-127556520D01*
X166711021Y-127657018D01*
X166811519Y-127739495D01*
X166926176Y-127800780D01*
X167050586Y-127838520D01*
X167179969Y-127851263D01*
X167212388Y-127848070D01*
X181177550Y-127848070D01*
X181209969Y-127851263D01*
X181242388Y-127848070D01*
X181339352Y-127838520D01*
X181463762Y-127800780D01*
X181578419Y-127739495D01*
X181678917Y-127657018D01*
X181761394Y-127556520D01*
X181822679Y-127441863D01*
X181860419Y-127317453D01*
X181873162Y-127188070D01*
X181869969Y-127155651D01*
X181869969Y-113220489D01*
X181873162Y-113188070D01*
X181860419Y-113058687D01*
X181822679Y-112934277D01*
X181761394Y-112819620D01*
X181678917Y-112719122D01*
X181578419Y-112636645D01*
X181463762Y-112575360D01*
X181339352Y-112537620D01*
X181242388Y-112528070D01*
X181209969Y-112524877D01*
X181177550Y-112528070D01*
X178536200Y-112528070D01*
X178536200Y-104734070D01*
X181177550Y-104734070D01*
X181209969Y-104737263D01*
X181242388Y-104734070D01*
X181339352Y-104724520D01*
X181463762Y-104686780D01*
X181578419Y-104625495D01*
X181678917Y-104543018D01*
X181761394Y-104442520D01*
X181822679Y-104327863D01*
X181860419Y-104203453D01*
X181873162Y-104074070D01*
X181869969Y-104041651D01*
X181869969Y-90106489D01*
X181873162Y-90074070D01*
X181860419Y-89944687D01*
X181822679Y-89820277D01*
X181761394Y-89705620D01*
X181678917Y-89605122D01*
X181578419Y-89522645D01*
X181463762Y-89461360D01*
X181339352Y-89423620D01*
X181242388Y-89414070D01*
X181209969Y-89410877D01*
X181177550Y-89414070D01*
X178536200Y-89414070D01*
X178536200Y-85684070D01*
X181177550Y-85684070D01*
X181209969Y-85687263D01*
X181242388Y-85684070D01*
X181339352Y-85674520D01*
X181463762Y-85636780D01*
X181578419Y-85575495D01*
X181678917Y-85493018D01*
X181761394Y-85392520D01*
X181822679Y-85277863D01*
X181860419Y-85153453D01*
X181873162Y-85024070D01*
X181869969Y-84991651D01*
X181869969Y-71056489D01*
X181873162Y-71024070D01*
X181860419Y-70894687D01*
X181822679Y-70770277D01*
X181761394Y-70655620D01*
X181678917Y-70555122D01*
X181578419Y-70472645D01*
X181463762Y-70411360D01*
X181339352Y-70373620D01*
X181242388Y-70364070D01*
X181209969Y-70360877D01*
X181177550Y-70364070D01*
X178536200Y-70364070D01*
X178536200Y-68514070D01*
X185566776Y-68514070D01*
X185579519Y-68643453D01*
X185617259Y-68767863D01*
X185678544Y-68882520D01*
X185761021Y-68983018D01*
X185861519Y-69065495D01*
X185976176Y-69126780D01*
X186100586Y-69164520D01*
X186229969Y-69177263D01*
X186262388Y-69174070D01*
X188900200Y-69174070D01*
X188900200Y-72904070D01*
X186262388Y-72904070D01*
X186229969Y-72900877D01*
X186100587Y-72913620D01*
X185976177Y-72951360D01*
X185861520Y-73012645D01*
X185761022Y-73095122D01*
X185678545Y-73195620D01*
X185617260Y-73310277D01*
X185579520Y-73434687D01*
X185569970Y-73531651D01*
X185569969Y-87531651D01*
X185566776Y-87564070D01*
X185579519Y-87693453D01*
X185617259Y-87817863D01*
X185678544Y-87932520D01*
X185761021Y-88033018D01*
X185861519Y-88115495D01*
X185976176Y-88176780D01*
X186100586Y-88214520D01*
X186229969Y-88227263D01*
X186262388Y-88224070D01*
X188900201Y-88224070D01*
X188900201Y-91954070D01*
X186262388Y-91954070D01*
X186229969Y-91950877D01*
X186100587Y-91963620D01*
X185976177Y-92001360D01*
X185861520Y-92062645D01*
X185761022Y-92145122D01*
X185678545Y-92245620D01*
X185617260Y-92360277D01*
X185579520Y-92484687D01*
X185569970Y-92581651D01*
X185569969Y-106581651D01*
X185566776Y-106614070D01*
X185579519Y-106743453D01*
X185617259Y-106867863D01*
X185678544Y-106982520D01*
X185761021Y-107083018D01*
X185861519Y-107165495D01*
X185976176Y-107226780D01*
X186100586Y-107264520D01*
X186229969Y-107277263D01*
X186262388Y-107274070D01*
X188900201Y-107274070D01*
X188900201Y-112528070D01*
X186262388Y-112528070D01*
X186229969Y-112524877D01*
X186100587Y-112537620D01*
X185976177Y-112575360D01*
X185861520Y-112636645D01*
X185761022Y-112719122D01*
X185678545Y-112819620D01*
X185617260Y-112934277D01*
X185579520Y-113058687D01*
X185569970Y-113155651D01*
X185569969Y-127155651D01*
X185566776Y-127188070D01*
X185579519Y-127317453D01*
X185617259Y-127441863D01*
X185678544Y-127556520D01*
X185761021Y-127657018D01*
X185861519Y-127739495D01*
X185976176Y-127800780D01*
X186100586Y-127838520D01*
X186229969Y-127851263D01*
X186262388Y-127848070D01*
X200227550Y-127848070D01*
X200259969Y-127851263D01*
X200292388Y-127848070D01*
X200389352Y-127838520D01*
X200513762Y-127800780D01*
X200628419Y-127739495D01*
X200728917Y-127657018D01*
X200811394Y-127556520D01*
X200872679Y-127441863D01*
X200910419Y-127317453D01*
X200923162Y-127188070D01*
X200919969Y-127155651D01*
X200919969Y-113220489D01*
X200923162Y-113188070D01*
X200910419Y-113058687D01*
X200872679Y-112934277D01*
X200811394Y-112819620D01*
X200728917Y-112719122D01*
X200628419Y-112636645D01*
X200513762Y-112575360D01*
X200389352Y-112537620D01*
X200292388Y-112528070D01*
X200259969Y-112524877D01*
X200227550Y-112528070D01*
X197586200Y-112528070D01*
X197586200Y-107274070D01*
X200227550Y-107274070D01*
X200259969Y-107277263D01*
X200292388Y-107274070D01*
X200389352Y-107264520D01*
X200513762Y-107226780D01*
X200628419Y-107165495D01*
X200728917Y-107083018D01*
X200811394Y-106982520D01*
X200872679Y-106867863D01*
X200910419Y-106743453D01*
X200923162Y-106614070D01*
X200919969Y-106581651D01*
X200919969Y-92646489D01*
X200923162Y-92614070D01*
X200910419Y-92484687D01*
X200872679Y-92360277D01*
X200811394Y-92245620D01*
X200728917Y-92145122D01*
X200628419Y-92062645D01*
X200513762Y-92001360D01*
X200389352Y-91963620D01*
X200292388Y-91954070D01*
X200259969Y-91950877D01*
X200227550Y-91954070D01*
X197586200Y-91954070D01*
X197586200Y-90005331D01*
X200054890Y-90005331D01*
X200054890Y-90334669D01*
X200119140Y-90657678D01*
X200245172Y-90961947D01*
X200428142Y-91235781D01*
X200661019Y-91468658D01*
X200934853Y-91651628D01*
X201239122Y-91777660D01*
X201562131Y-91841910D01*
X201891469Y-91841910D01*
X202214478Y-91777660D01*
X202518747Y-91651628D01*
X202792581Y-91468658D01*
X203025458Y-91235781D01*
X203208428Y-90961947D01*
X203334460Y-90657678D01*
X203398710Y-90334669D01*
X203398710Y-90005331D01*
X203334460Y-89682322D01*
X203208428Y-89378053D01*
X203025458Y-89104219D01*
X202792581Y-88871342D01*
X202518747Y-88688372D01*
X202214478Y-88562340D01*
X201891469Y-88498090D01*
X201562131Y-88498090D01*
X201239122Y-88562340D01*
X200934853Y-88688372D01*
X200661019Y-88871342D01*
X200428142Y-89104219D01*
X200245172Y-89378053D01*
X200119140Y-89682322D01*
X200054890Y-90005331D01*
X197586200Y-90005331D01*
X197586200Y-88224070D01*
X200227550Y-88224070D01*
X200259969Y-88227263D01*
X200292388Y-88224070D01*
X200389352Y-88214520D01*
X200513762Y-88176780D01*
X200628419Y-88115495D01*
X200728917Y-88033018D01*
X200811394Y-87932520D01*
X200872679Y-87817863D01*
X200910419Y-87693453D01*
X200923162Y-87564070D01*
X200919969Y-87531651D01*
X200919969Y-73596489D01*
X200923162Y-73564070D01*
X200910419Y-73434687D01*
X200872679Y-73310277D01*
X200811394Y-73195620D01*
X200728917Y-73095122D01*
X200628419Y-73012645D01*
X200513762Y-72951360D01*
X200389352Y-72913620D01*
X200292388Y-72904070D01*
X200259969Y-72900877D01*
X200227550Y-72904070D01*
X197586200Y-72904070D01*
X197586200Y-69174070D01*
X200227550Y-69174070D01*
X200259969Y-69177263D01*
X200292388Y-69174070D01*
X200389352Y-69164520D01*
X200513762Y-69126780D01*
X200628419Y-69065495D01*
X200728917Y-68983018D01*
X200811394Y-68882520D01*
X200872679Y-68767863D01*
X200910419Y-68643453D01*
X200923162Y-68514070D01*
X200919969Y-68481651D01*
X200919969Y-54546489D01*
X200923162Y-54514070D01*
X200910419Y-54384687D01*
X200872679Y-54260277D01*
X200811394Y-54145620D01*
X200728917Y-54045122D01*
X200628419Y-53962645D01*
X200513762Y-53901360D01*
X200389352Y-53863620D01*
X200292388Y-53854070D01*
X200259969Y-53850877D01*
X200227550Y-53854070D01*
X197586200Y-53854070D01*
X197586200Y-52102419D01*
X197589393Y-52070000D01*
X197576650Y-51940617D01*
X197538910Y-51816207D01*
X197477625Y-51701550D01*
X197395148Y-51601052D01*
X197294650Y-51518575D01*
X197179993Y-51457290D01*
X197055583Y-51419550D01*
X196958619Y-51410000D01*
X196926200Y-51406807D01*
X196893781Y-51410000D01*
X189592619Y-51410000D01*
X189560200Y-51406807D01*
X189527781Y-51410000D01*
X189430817Y-51419550D01*
X189306407Y-51457290D01*
X189191750Y-51518575D01*
X189091252Y-51601052D01*
X189008775Y-51701550D01*
X188947490Y-51816207D01*
X188909750Y-51940617D01*
X188897007Y-52070000D01*
X188900200Y-52102419D01*
X188900200Y-53854070D01*
X186262388Y-53854070D01*
X186229969Y-53850877D01*
X186100587Y-53863620D01*
X185976177Y-53901360D01*
X185861520Y-53962645D01*
X185761022Y-54045122D01*
X185678545Y-54145620D01*
X185617260Y-54260277D01*
X185579520Y-54384687D01*
X185569970Y-54481651D01*
X185569969Y-68481651D01*
X185566776Y-68514070D01*
X178536200Y-68514070D01*
X178536200Y-66634070D01*
X181177550Y-66634070D01*
X181209969Y-66637263D01*
X181242388Y-66634070D01*
X181339352Y-66624520D01*
X181463762Y-66586780D01*
X181578419Y-66525495D01*
X181678917Y-66443018D01*
X181761394Y-66342520D01*
X181822679Y-66227863D01*
X181860419Y-66103453D01*
X181873162Y-65974070D01*
X181869969Y-65941651D01*
X181869969Y-52006489D01*
X181873162Y-51974070D01*
X181860419Y-51844687D01*
X181822679Y-51720277D01*
X181761394Y-51605620D01*
X181678917Y-51505122D01*
X181578419Y-51422645D01*
X181463762Y-51361360D01*
X181339352Y-51323620D01*
X181242388Y-51314070D01*
X181209969Y-51310877D01*
X181177550Y-51314070D01*
X178536200Y-51314070D01*
X178536200Y-49562419D01*
X178539393Y-49530000D01*
X178526650Y-49400617D01*
X178488910Y-49276207D01*
X178427625Y-49161550D01*
X178345148Y-49061052D01*
X178244650Y-48978575D01*
X178129993Y-48917290D01*
X178005583Y-48879550D01*
X177908619Y-48870000D01*
X177876200Y-48866807D01*
X177843781Y-48870000D01*
X170542619Y-48870000D01*
X170510200Y-48866807D01*
X170477781Y-48870000D01*
X170380817Y-48879550D01*
X170256407Y-48917290D01*
X170141750Y-48978575D01*
X170041252Y-49061052D01*
X169958775Y-49161550D01*
X169897490Y-49276207D01*
X169859750Y-49400617D01*
X169847007Y-49530000D01*
X169850200Y-49562419D01*
X169850200Y-51314070D01*
X167212388Y-51314070D01*
X167179969Y-51310877D01*
X167050587Y-51323620D01*
X166926177Y-51361360D01*
X166811520Y-51422645D01*
X166711022Y-51505122D01*
X166628545Y-51605620D01*
X166567260Y-51720277D01*
X166529520Y-51844687D01*
X166519970Y-51941651D01*
X166519969Y-65941651D01*
X166516776Y-65974070D01*
X159486200Y-65974070D01*
X159486200Y-65364070D01*
X162127550Y-65364070D01*
X162159969Y-65367263D01*
X162192388Y-65364070D01*
X162219904Y-65361360D01*
X162289352Y-65354520D01*
X162413762Y-65316780D01*
X162528419Y-65255495D01*
X162628917Y-65173018D01*
X162711394Y-65072520D01*
X162772679Y-64957863D01*
X162810419Y-64833453D01*
X162819969Y-64736489D01*
X162819969Y-64736488D01*
X162823162Y-64704070D01*
X162819969Y-64671651D01*
X162819969Y-50736489D01*
X162823162Y-50704070D01*
X162810419Y-50574687D01*
X162772679Y-50450277D01*
X162711394Y-50335620D01*
X162628917Y-50235122D01*
X162528419Y-50152645D01*
X162413762Y-50091360D01*
X162289352Y-50053620D01*
X162192388Y-50044070D01*
X162159969Y-50040877D01*
X162127550Y-50044070D01*
X159486200Y-50044070D01*
X159486200Y-48800419D01*
X159489393Y-48768000D01*
X159476650Y-48638617D01*
X159438910Y-48514207D01*
X159377625Y-48399550D01*
X159295148Y-48299052D01*
X159194650Y-48216575D01*
X159079993Y-48155290D01*
X158955583Y-48117550D01*
X158858619Y-48108000D01*
X158826200Y-48104807D01*
X158793781Y-48108000D01*
X151492619Y-48108000D01*
X151460200Y-48104807D01*
X151427781Y-48108000D01*
X151330817Y-48117550D01*
X151206407Y-48155290D01*
X151091750Y-48216575D01*
X150991252Y-48299052D01*
X150908775Y-48399550D01*
X150847490Y-48514207D01*
X150809750Y-48638617D01*
X150797007Y-48768000D01*
X150800200Y-48800419D01*
X150800200Y-50044070D01*
X148162388Y-50044070D01*
X148129969Y-50040877D01*
X148000587Y-50053620D01*
X147876177Y-50091360D01*
X147761520Y-50152645D01*
X147661022Y-50235122D01*
X147578545Y-50335620D01*
X147517260Y-50450277D01*
X147479520Y-50574687D01*
X147469970Y-50671651D01*
X147469969Y-64671651D01*
X147466776Y-64704070D01*
X143769969Y-64704070D01*
X143769969Y-52260489D01*
X143773162Y-52228070D01*
X143760419Y-52098687D01*
X143722679Y-51974277D01*
X143661394Y-51859620D01*
X143578917Y-51759122D01*
X143478419Y-51676645D01*
X143363762Y-51615360D01*
X143239352Y-51577620D01*
X143142388Y-51568070D01*
X143109969Y-51564877D01*
X143077550Y-51568070D01*
X140182200Y-51568070D01*
X140182200Y-49562419D01*
X140185393Y-49530000D01*
X140172650Y-49400617D01*
X140134910Y-49276207D01*
X140073625Y-49161550D01*
X139991148Y-49061052D01*
X139890650Y-48978575D01*
X139775993Y-48917290D01*
X139651583Y-48879550D01*
X139554619Y-48870000D01*
X139522200Y-48866807D01*
X139489781Y-48870000D01*
X132188619Y-48870000D01*
X132156200Y-48866807D01*
X132123781Y-48870000D01*
X132026817Y-48879550D01*
X131902407Y-48917290D01*
X131787750Y-48978575D01*
X131687252Y-49061052D01*
X131604775Y-49161550D01*
X131543490Y-49276207D01*
X131505750Y-49400617D01*
X131493007Y-49530000D01*
X131496200Y-49562419D01*
X131496200Y-51568070D01*
X129112388Y-51568070D01*
X129079969Y-51564877D01*
X128950587Y-51577620D01*
X128826177Y-51615360D01*
X128711520Y-51676645D01*
X128611022Y-51759122D01*
X128528545Y-51859620D01*
X128467260Y-51974277D01*
X128429520Y-52098687D01*
X128419970Y-52195651D01*
X128419969Y-66195651D01*
X128416776Y-66228070D01*
X127456800Y-66228070D01*
X127456800Y-46998708D01*
X127487896Y-46676981D01*
X127579022Y-46373645D01*
X127727332Y-46093782D01*
X127927176Y-45848056D01*
X128170940Y-45645828D01*
X128449343Y-45494798D01*
X128768119Y-45395637D01*
X128878418Y-45378110D01*
X145160388Y-45378110D01*
X145139122Y-45382340D01*
X144834853Y-45508372D01*
X144561019Y-45691342D01*
X144328142Y-45924219D01*
X144145172Y-46198053D01*
X144019140Y-46502322D01*
X143954890Y-46825331D01*
X143954890Y-47154669D01*
X144019140Y-47477678D01*
X144145172Y-47781947D01*
X144328142Y-48055781D01*
X144561019Y-48288658D01*
X144834853Y-48471628D01*
X145139122Y-48597660D01*
X145462131Y-48661910D01*
X145792895Y-48661910D01*
X146115904Y-48597660D01*
X146420173Y-48471628D01*
X146694007Y-48288658D01*
X146926884Y-48055781D01*
X147109854Y-47781947D01*
X147235886Y-47477678D01*
X147300136Y-47154669D01*
X147300136Y-46825331D01*
X147235886Y-46502322D01*
X147109854Y-46198053D01*
X146926884Y-45924219D01*
X146694007Y-45691342D01*
X146420173Y-45508372D01*
X146115904Y-45382340D01*
X146094638Y-45378110D01*
X201514388Y-45378110D01*
X201493122Y-45382340D01*
X201188853Y-45508372D01*
X200915019Y-45691342D01*
X200682142Y-45924219D01*
X200499172Y-46198053D01*
X200373140Y-46502322D01*
X200308890Y-46825331D01*
X200308890Y-47154669D01*
X200373140Y-47477678D01*
X200499172Y-47781947D01*
X200682142Y-48055781D01*
X200915019Y-48288658D01*
X201188853Y-48471628D01*
X201493122Y-48597660D01*
X201816131Y-48661910D01*
X202145469Y-48661910D01*
X202468478Y-48597660D01*
X202772747Y-48471628D01*
X203046581Y-48288658D01*
X203279458Y-48055781D01*
X203462428Y-47781947D01*
X203588460Y-47477678D01*
X203592745Y-47456135D01*
X203594756Y-129868751D01*
X203588460Y-129837098D01*
X203462428Y-129532829D01*
X203279458Y-129258995D01*
X203046581Y-129026118D01*
X202772747Y-128843148D01*
X202468478Y-128717116D01*
X202145469Y-128652866D01*
X201816131Y-128652866D01*
X201493122Y-128717116D01*
X201188853Y-128843148D01*
X200915019Y-129026118D01*
X200682142Y-129258995D01*
X200499172Y-129532829D01*
X200373140Y-129837098D01*
X200308890Y-130160107D01*
X200308890Y-130489445D01*
X200373140Y-130812454D01*
X200499172Y-131116723D01*
X200682142Y-131390557D01*
X200915019Y-131623434D01*
X201188853Y-131806404D01*
X201493122Y-131932436D01*
X201513890Y-131936567D01*
X189890000Y-131934016D01*
X189890000Y-129826419D01*
X189893193Y-129794000D01*
X189880450Y-129664617D01*
X189842710Y-129540207D01*
X189781425Y-129425550D01*
X189698948Y-129325052D01*
X189598450Y-129242575D01*
X189483793Y-129181290D01*
X189359383Y-129143550D01*
X189262419Y-129134000D01*
X189230000Y-129130807D01*
X189197581Y-129134000D01*
X179356419Y-129134000D01*
X179324000Y-129130807D01*
X179291581Y-129134000D01*
X179194617Y-129143550D01*
X179070207Y-129181290D01*
X178955550Y-129242575D01*
X178855052Y-129325052D01*
X178772575Y-129425550D01*
X178711290Y-129540207D01*
X178673550Y-129664617D01*
X178660807Y-129794000D01*
X178664001Y-129826429D01*
X178664001Y-131931553D01*
X146031943Y-131924393D01*
X146115904Y-131907692D01*
X146420173Y-131781660D01*
X146694007Y-131598690D01*
X146926884Y-131365813D01*
X147109854Y-131091979D01*
X147235886Y-130787710D01*
X147300136Y-130464701D01*
X147300136Y-130135363D01*
X147235886Y-129812354D01*
X147109854Y-129508085D01*
X146926884Y-129234251D01*
X146694007Y-129001374D01*
X146420173Y-128818404D01*
X146115904Y-128692372D01*
X145792895Y-128628122D01*
X145463557Y-128628122D01*
X145140548Y-128692372D01*
X144836279Y-128818404D01*
X144562445Y-129001374D01*
X144329568Y-129234251D01*
X144146598Y-129508085D01*
X144020566Y-129812354D01*
X143956316Y-130135363D01*
X143956316Y-130464701D01*
X144020566Y-130787710D01*
X144146598Y-131091979D01*
X144329568Y-131365813D01*
X144562445Y-131598690D01*
X144836279Y-131781660D01*
X145140548Y-131907692D01*
X145223617Y-131924215D01*
X89594709Y-131912009D01*
X89616411Y-131907692D01*
X89920680Y-131781660D01*
X90194514Y-131598690D01*
X90427391Y-131365813D01*
X90610361Y-131091979D01*
X90736393Y-130787710D01*
X90800643Y-130464701D01*
X90800643Y-130135363D01*
X90736393Y-129812354D01*
X90610361Y-129508085D01*
X90427391Y-129234251D01*
X90194514Y-129001374D01*
X89920680Y-128818404D01*
X89616411Y-128692372D01*
X89293402Y-128628122D01*
X88964064Y-128628122D01*
X88641055Y-128692372D01*
X88336786Y-128818404D01*
X88062952Y-129001374D01*
X87830075Y-129234251D01*
X87647105Y-129508085D01*
X87521073Y-129812354D01*
X87516800Y-129833836D01*
X87516800Y-91529331D01*
X87532890Y-91529331D01*
X87532890Y-91858669D01*
X87597140Y-92181678D01*
X87723172Y-92485947D01*
X87906142Y-92759781D01*
X88139019Y-92992658D01*
X88412853Y-93175628D01*
X88717122Y-93301660D01*
X89040131Y-93365910D01*
X89369469Y-93365910D01*
X89692478Y-93301660D01*
X89996747Y-93175628D01*
X90270581Y-92992658D01*
X90503458Y-92759781D01*
X90686428Y-92485947D01*
X90812460Y-92181678D01*
X90876710Y-91858669D01*
X90876710Y-91529331D01*
X90812460Y-91206322D01*
X90686428Y-90902053D01*
X90503458Y-90628219D01*
X90270581Y-90395342D01*
X89996747Y-90212372D01*
X89692478Y-90086340D01*
X89369469Y-90022090D01*
X89040131Y-90022090D01*
X88717122Y-90086340D01*
X88412853Y-90212372D01*
X88139019Y-90395342D01*
X87906142Y-90628219D01*
X87723172Y-90902053D01*
X87597140Y-91206322D01*
X87532890Y-91529331D01*
X87516800Y-91529331D01*
X87516800Y-55987270D01*
X90316776Y-55987270D01*
X90319970Y-56019699D01*
X90319969Y-69954851D01*
X90316776Y-69987270D01*
X90329519Y-70116653D01*
X90367259Y-70241063D01*
X90428544Y-70355720D01*
X90474207Y-70411360D01*
X90511021Y-70456218D01*
X90611519Y-70538695D01*
X90726176Y-70599980D01*
X90850586Y-70637720D01*
X90979969Y-70650463D01*
X91012388Y-70647270D01*
X93396200Y-70647270D01*
X93396200Y-74397000D01*
X91015219Y-74397000D01*
X90982800Y-74393807D01*
X90950381Y-74397000D01*
X90853417Y-74406550D01*
X90729007Y-74444290D01*
X90614350Y-74505575D01*
X90513852Y-74588052D01*
X90431375Y-74688550D01*
X90370090Y-74803207D01*
X90332350Y-74927617D01*
X90319607Y-75057000D01*
X90319970Y-75060686D01*
X90319969Y-89055651D01*
X90316776Y-89088070D01*
X90329519Y-89217453D01*
X90367259Y-89341863D01*
X90428544Y-89456520D01*
X90460902Y-89495948D01*
X90511021Y-89557018D01*
X90611519Y-89639495D01*
X90726176Y-89700780D01*
X90850586Y-89738520D01*
X90979969Y-89751263D01*
X91012388Y-89748070D01*
X93396201Y-89748070D01*
X93396201Y-93447000D01*
X91015219Y-93447000D01*
X90982800Y-93443807D01*
X90950381Y-93447000D01*
X90853417Y-93456550D01*
X90729007Y-93494290D01*
X90614350Y-93555575D01*
X90513852Y-93638052D01*
X90431375Y-93738550D01*
X90370090Y-93853207D01*
X90332350Y-93977617D01*
X90319607Y-94107000D01*
X90319970Y-94110686D01*
X90319969Y-108105651D01*
X90316776Y-108138070D01*
X90329519Y-108267453D01*
X90367259Y-108391863D01*
X90428544Y-108506520D01*
X90460902Y-108545948D01*
X90511021Y-108607018D01*
X90611519Y-108689495D01*
X90726176Y-108750780D01*
X90850586Y-108788520D01*
X90979969Y-108801263D01*
X91012388Y-108798070D01*
X93396201Y-108798070D01*
X93396201Y-112477270D01*
X91012388Y-112477270D01*
X90979969Y-112474077D01*
X90947550Y-112477270D01*
X90850586Y-112486820D01*
X90726176Y-112524560D01*
X90611519Y-112585845D01*
X90511021Y-112668322D01*
X90428544Y-112768820D01*
X90367259Y-112883477D01*
X90329519Y-113007887D01*
X90316776Y-113137270D01*
X90319970Y-113169699D01*
X90319969Y-127104851D01*
X90316776Y-127137270D01*
X90329519Y-127266653D01*
X90367259Y-127391063D01*
X90428544Y-127505720D01*
X90470234Y-127556519D01*
X90511021Y-127606218D01*
X90611519Y-127688695D01*
X90726176Y-127749980D01*
X90850586Y-127787720D01*
X90979969Y-127800463D01*
X91012388Y-127797270D01*
X104977550Y-127797270D01*
X105009969Y-127800463D01*
X105042388Y-127797270D01*
X105139352Y-127787720D01*
X105263762Y-127749980D01*
X105378419Y-127688695D01*
X105478917Y-127606218D01*
X105561394Y-127505720D01*
X105622679Y-127391063D01*
X105660419Y-127266653D01*
X105660556Y-127265265D01*
X105663250Y-127256383D01*
X105672800Y-127159419D01*
X105672800Y-127140945D01*
X105673162Y-127137270D01*
X105672800Y-127133595D01*
X105672800Y-113140945D01*
X105673162Y-113137270D01*
X105672800Y-113133595D01*
X105672800Y-113124581D01*
X105663250Y-113027617D01*
X105661935Y-113023283D01*
X105660419Y-113007887D01*
X105622679Y-112883477D01*
X105561394Y-112768820D01*
X105478917Y-112668322D01*
X105378419Y-112585845D01*
X105263762Y-112524560D01*
X105139352Y-112486820D01*
X105042388Y-112477270D01*
X105009969Y-112474077D01*
X104977550Y-112477270D01*
X102082200Y-112477270D01*
X102082200Y-108798070D01*
X104977550Y-108798070D01*
X105009969Y-108801263D01*
X105042388Y-108798070D01*
X105139352Y-108788520D01*
X105263762Y-108750780D01*
X105378419Y-108689495D01*
X105478917Y-108607018D01*
X105561394Y-108506520D01*
X105622679Y-108391863D01*
X105660419Y-108267453D01*
X105673162Y-108138070D01*
X105669969Y-108105651D01*
X105669969Y-94168163D01*
X105675993Y-94107000D01*
X105663250Y-93977617D01*
X105625510Y-93853207D01*
X105564225Y-93738550D01*
X105481748Y-93638052D01*
X105381250Y-93555575D01*
X105266593Y-93494290D01*
X105142183Y-93456550D01*
X105045219Y-93447000D01*
X102082200Y-93447000D01*
X102082200Y-89748070D01*
X104977550Y-89748070D01*
X105009969Y-89751263D01*
X105042388Y-89748070D01*
X105139352Y-89738520D01*
X105263762Y-89700780D01*
X105378419Y-89639495D01*
X105478917Y-89557018D01*
X105561394Y-89456520D01*
X105622679Y-89341863D01*
X105660419Y-89217453D01*
X105673162Y-89088070D01*
X105671570Y-89071907D01*
X105672800Y-89059419D01*
X105672800Y-75089419D01*
X105675993Y-75057000D01*
X105663250Y-74927617D01*
X105625510Y-74803207D01*
X105564225Y-74688550D01*
X105481748Y-74588052D01*
X105381250Y-74505575D01*
X105266593Y-74444290D01*
X105142183Y-74406550D01*
X105045219Y-74397000D01*
X105012800Y-74393807D01*
X104980381Y-74397000D01*
X102082200Y-74397000D01*
X102082200Y-70647270D01*
X104977550Y-70647270D01*
X105009969Y-70650463D01*
X105042388Y-70647270D01*
X105139352Y-70637720D01*
X105263762Y-70599980D01*
X105378419Y-70538695D01*
X105478917Y-70456218D01*
X105561394Y-70355720D01*
X105565311Y-70348391D01*
X105567725Y-70345450D01*
X105629010Y-70230793D01*
X105666750Y-70106383D01*
X105676300Y-70009419D01*
X105676300Y-55974581D01*
X105666750Y-55877617D01*
X105629010Y-55753207D01*
X105628210Y-55751711D01*
X105622679Y-55733477D01*
X105561394Y-55618820D01*
X105478917Y-55518322D01*
X105378419Y-55435845D01*
X105263762Y-55374560D01*
X105139352Y-55336820D01*
X105042388Y-55327270D01*
X105009969Y-55324077D01*
X104977550Y-55327270D01*
X102082200Y-55327270D01*
X102082200Y-53626419D01*
X102085393Y-53594000D01*
X102072650Y-53464617D01*
X102034910Y-53340207D01*
X101973625Y-53225550D01*
X101891148Y-53125052D01*
X101790650Y-53042575D01*
X101675993Y-52981290D01*
X101551583Y-52943550D01*
X101454619Y-52934000D01*
X101422200Y-52930807D01*
X101389781Y-52934000D01*
X94088619Y-52934000D01*
X94056200Y-52930807D01*
X94023781Y-52934000D01*
X93926817Y-52943550D01*
X93802407Y-52981290D01*
X93687750Y-53042575D01*
X93587252Y-53125052D01*
X93504775Y-53225550D01*
X93443490Y-53340207D01*
X93405750Y-53464617D01*
X93393007Y-53594000D01*
X93396200Y-53626419D01*
X93396200Y-55327270D01*
X91012388Y-55327270D01*
X90979969Y-55324077D01*
X90947550Y-55327270D01*
X90850586Y-55336820D01*
X90726176Y-55374560D01*
X90611519Y-55435845D01*
X90511021Y-55518322D01*
X90428544Y-55618820D01*
X90367259Y-55733477D01*
X90329519Y-55857887D01*
X90316776Y-55987270D01*
X87516800Y-55987270D01*
X87516800Y-47468967D01*
X87518533Y-47477679D01*
X87644565Y-47781948D01*
X87827535Y-48055782D01*
X88060412Y-48288659D01*
X88334246Y-48471629D01*
X88638515Y-48597661D01*
X88961524Y-48661911D01*
X89293402Y-48661911D01*
X89616411Y-48597661D01*
X89920680Y-48471629D01*
X90194514Y-48288659D01*
X90427391Y-48055782D01*
X90610361Y-47781948D01*
X90736393Y-47477679D01*
X90800643Y-47154670D01*
X90800643Y-46825332D01*
X90736393Y-46502323D01*
X90610361Y-46198054D01*
X90427391Y-45924220D01*
X90194514Y-45691343D01*
X89920680Y-45508373D01*
X89616411Y-45382341D01*
X89526986Y-45364553D01*
X93828001Y-45368337D01*
%TA.AperFunction,NonConductor*%
D11*
G36*
X93828001Y-45368337D02*
G01*
X93828001Y-46703571D01*
X93824807Y-46736000D01*
X93837550Y-46865383D01*
X93875290Y-46989793D01*
X93936575Y-47104450D01*
X94019052Y-47204948D01*
X94119550Y-47287425D01*
X94234207Y-47348710D01*
X94358617Y-47386450D01*
X94455581Y-47396000D01*
X94488000Y-47399193D01*
X94520419Y-47396000D01*
X100551581Y-47396000D01*
X100584000Y-47399193D01*
X100616419Y-47396000D01*
X100713383Y-47386450D01*
X100837793Y-47348710D01*
X100952450Y-47287425D01*
X101052948Y-47204948D01*
X101135425Y-47104450D01*
X101196710Y-46989793D01*
X101234450Y-46865383D01*
X101247193Y-46736000D01*
X101244000Y-46703581D01*
X101244000Y-45374861D01*
X104982098Y-45378150D01*
X104986515Y-45377719D01*
X105071830Y-45377792D01*
X105267578Y-45395606D01*
X105568777Y-45484254D01*
X105847026Y-45629719D01*
X106091718Y-45826458D01*
X106293539Y-46066979D01*
X106444795Y-46342113D01*
X106539734Y-46641396D01*
X106580594Y-47005673D01*
X106580595Y-79197356D01*
X106575607Y-79248000D01*
X106588350Y-79377383D01*
X106626090Y-79501793D01*
X106687375Y-79616450D01*
X106769852Y-79716948D01*
X106870350Y-79799425D01*
X106985007Y-79860710D01*
X107109417Y-79898450D01*
X107206381Y-79908000D01*
X109369969Y-79908000D01*
X109369969Y-86464851D01*
X109366776Y-86497270D01*
X109379519Y-86626653D01*
X109417259Y-86751063D01*
X109478544Y-86865720D01*
X109517855Y-86913620D01*
X109561021Y-86966218D01*
X109661519Y-87048695D01*
X109776176Y-87109980D01*
X109900586Y-87147720D01*
X110029969Y-87160463D01*
X110062388Y-87157270D01*
X112446201Y-87157270D01*
X112446201Y-90887270D01*
X110062388Y-90887270D01*
X110029969Y-90884077D01*
X109900587Y-90896820D01*
X109776177Y-90934560D01*
X109661520Y-90995845D01*
X109561022Y-91078322D01*
X109478545Y-91178820D01*
X109417260Y-91293477D01*
X109379520Y-91417887D01*
X109369970Y-91514851D01*
X109369969Y-105514851D01*
X109366776Y-105547270D01*
X109379519Y-105676653D01*
X109417259Y-105801063D01*
X109478544Y-105915720D01*
X109517855Y-105963620D01*
X109561021Y-106016218D01*
X109661519Y-106098695D01*
X109776176Y-106159980D01*
X109900586Y-106197720D01*
X110029969Y-106210463D01*
X110062388Y-106207270D01*
X112446201Y-106207270D01*
X112446201Y-112528070D01*
X110062388Y-112528070D01*
X110029969Y-112524877D01*
X109900587Y-112537620D01*
X109776177Y-112575360D01*
X109661520Y-112636645D01*
X109561022Y-112719122D01*
X109478545Y-112819620D01*
X109417260Y-112934277D01*
X109379520Y-113058687D01*
X109369970Y-113155651D01*
X109369969Y-127155651D01*
X109366776Y-127188070D01*
X109379519Y-127317453D01*
X109417259Y-127441863D01*
X109478544Y-127556520D01*
X109561021Y-127657018D01*
X109661519Y-127739495D01*
X109776176Y-127800780D01*
X109900586Y-127838520D01*
X110029969Y-127851263D01*
X110062388Y-127848070D01*
X124027550Y-127848070D01*
X124059969Y-127851263D01*
X124092388Y-127848070D01*
X124189352Y-127838520D01*
X124313762Y-127800780D01*
X124428419Y-127739495D01*
X124528917Y-127657018D01*
X124611394Y-127556520D01*
X124672679Y-127441863D01*
X124710419Y-127317453D01*
X124723162Y-127188070D01*
X124719969Y-127155651D01*
X124719969Y-113220489D01*
X124723162Y-113188070D01*
X124710419Y-113058687D01*
X124672679Y-112934277D01*
X124611394Y-112819620D01*
X124528917Y-112719122D01*
X124428419Y-112636645D01*
X124313762Y-112575360D01*
X124189352Y-112537620D01*
X124092388Y-112528070D01*
X124059969Y-112524877D01*
X124027550Y-112528070D01*
X121132200Y-112528070D01*
X121132200Y-106207270D01*
X124027550Y-106207270D01*
X124059969Y-106210463D01*
X124092388Y-106207270D01*
X124189352Y-106197720D01*
X124313762Y-106159980D01*
X124428419Y-106098695D01*
X124528917Y-106016218D01*
X124611394Y-105915720D01*
X124672679Y-105801063D01*
X124710419Y-105676653D01*
X124723162Y-105547270D01*
X124719969Y-105514851D01*
X124719969Y-91579689D01*
X124723162Y-91547270D01*
X124710419Y-91417887D01*
X124672679Y-91293477D01*
X124611394Y-91178820D01*
X124528917Y-91078322D01*
X124428419Y-90995845D01*
X124313762Y-90934560D01*
X124189352Y-90896820D01*
X124092388Y-90887270D01*
X124059969Y-90884077D01*
X124027550Y-90887270D01*
X121132200Y-90887270D01*
X121132200Y-87157270D01*
X124027550Y-87157270D01*
X124059969Y-87160463D01*
X124092388Y-87157270D01*
X124189352Y-87147720D01*
X124313762Y-87109980D01*
X124428419Y-87048695D01*
X124528917Y-86966218D01*
X124611394Y-86865720D01*
X124672679Y-86751063D01*
X124710419Y-86626653D01*
X124723162Y-86497270D01*
X124719969Y-86464851D01*
X124719969Y-79908000D01*
X126764381Y-79908000D01*
X126796800Y-79911193D01*
X126829219Y-79908000D01*
X126926183Y-79898450D01*
X127050593Y-79860710D01*
X127165250Y-79799425D01*
X127265748Y-79716948D01*
X127348225Y-79616450D01*
X127409510Y-79501793D01*
X127447250Y-79377383D01*
X127459993Y-79248000D01*
X127456800Y-79215581D01*
X127456800Y-66228070D01*
X128416776Y-66228070D01*
X128429519Y-66357453D01*
X128467259Y-66481863D01*
X128528544Y-66596520D01*
X128611021Y-66697018D01*
X128711519Y-66779495D01*
X128826176Y-66840780D01*
X128950586Y-66878520D01*
X129079969Y-66891263D01*
X129112388Y-66888070D01*
X131496200Y-66888070D01*
X131496200Y-70618070D01*
X129112388Y-70618070D01*
X129079969Y-70614877D01*
X128950587Y-70627620D01*
X128826177Y-70665360D01*
X128711520Y-70726645D01*
X128611022Y-70809122D01*
X128528545Y-70909620D01*
X128467260Y-71024277D01*
X128429520Y-71148687D01*
X128419970Y-71245651D01*
X128419969Y-85245651D01*
X128416776Y-85278070D01*
X128429519Y-85407453D01*
X128467259Y-85531863D01*
X128528544Y-85646520D01*
X128611021Y-85747018D01*
X128711519Y-85829495D01*
X128826176Y-85890780D01*
X128950586Y-85928520D01*
X129079969Y-85941263D01*
X129112388Y-85938070D01*
X131496201Y-85938070D01*
X131496201Y-89668070D01*
X129112388Y-89668070D01*
X129079969Y-89664877D01*
X128950587Y-89677620D01*
X128826177Y-89715360D01*
X128711520Y-89776645D01*
X128611022Y-89859122D01*
X128528545Y-89959620D01*
X128467260Y-90074277D01*
X128429520Y-90198687D01*
X128419970Y-90295651D01*
X128419969Y-104295651D01*
X128416776Y-104328070D01*
X128429519Y-104457453D01*
X128467259Y-104581863D01*
X128528544Y-104696520D01*
X128611021Y-104797018D01*
X128711519Y-104879495D01*
X128826176Y-104940780D01*
X128950586Y-104978520D01*
X129079969Y-104991263D01*
X129112388Y-104988070D01*
X131496201Y-104988070D01*
X131496201Y-112528070D01*
X129112388Y-112528070D01*
X129079969Y-112524877D01*
X128950587Y-112537620D01*
X128826177Y-112575360D01*
X128711520Y-112636645D01*
X128611022Y-112719122D01*
X128528545Y-112819620D01*
X128467260Y-112934277D01*
X128429520Y-113058687D01*
X128419970Y-113155651D01*
X128419969Y-127155651D01*
X128416776Y-127188070D01*
X128429519Y-127317453D01*
X128467259Y-127441863D01*
X128528544Y-127556520D01*
X128611021Y-127657018D01*
X128711519Y-127739495D01*
X128826176Y-127800780D01*
X128950586Y-127838520D01*
X129079969Y-127851263D01*
X129112388Y-127848070D01*
X143077550Y-127848070D01*
X143109969Y-127851263D01*
X143142388Y-127848070D01*
X143239352Y-127838520D01*
X143363762Y-127800780D01*
X143478419Y-127739495D01*
X143578917Y-127657018D01*
X143661394Y-127556520D01*
X143722679Y-127441863D01*
X143760419Y-127317453D01*
X143773162Y-127188070D01*
X143769969Y-127155651D01*
X143769969Y-113220489D01*
X143773162Y-113188070D01*
X143760419Y-113058687D01*
X143722679Y-112934277D01*
X143661394Y-112819620D01*
X143578917Y-112719122D01*
X143478419Y-112636645D01*
X143363762Y-112575360D01*
X143239352Y-112537620D01*
X143142388Y-112528070D01*
X143109969Y-112524877D01*
X143077550Y-112528070D01*
X140182200Y-112528070D01*
X140182200Y-104988070D01*
X143077550Y-104988070D01*
X143109969Y-104991263D01*
X143142388Y-104988070D01*
X143239352Y-104978520D01*
X143363762Y-104940780D01*
X143478419Y-104879495D01*
X143578917Y-104797018D01*
X143661394Y-104696520D01*
X143722679Y-104581863D01*
X143760419Y-104457453D01*
X143773162Y-104328070D01*
X143769969Y-104295651D01*
X143769969Y-90360489D01*
X143773162Y-90328070D01*
X143760419Y-90198687D01*
X143722679Y-90074277D01*
X143661394Y-89959620D01*
X143578917Y-89859122D01*
X143478419Y-89776645D01*
X143363762Y-89715360D01*
X143239352Y-89677620D01*
X143142388Y-89668070D01*
X143109969Y-89664877D01*
X143077550Y-89668070D01*
X140182200Y-89668070D01*
X140182200Y-85938070D01*
X143077550Y-85938070D01*
X143109969Y-85941263D01*
X143142388Y-85938070D01*
X143239352Y-85928520D01*
X143363762Y-85890780D01*
X143478419Y-85829495D01*
X143578917Y-85747018D01*
X143661394Y-85646520D01*
X143722679Y-85531863D01*
X143760419Y-85407453D01*
X143773162Y-85278070D01*
X143769969Y-85245651D01*
X143769969Y-71310489D01*
X143773162Y-71278070D01*
X143760419Y-71148687D01*
X143722679Y-71024277D01*
X143661394Y-70909620D01*
X143578917Y-70809122D01*
X143478419Y-70726645D01*
X143363762Y-70665360D01*
X143239352Y-70627620D01*
X143142388Y-70618070D01*
X143109969Y-70614877D01*
X143077550Y-70618070D01*
X140182200Y-70618070D01*
X140182200Y-66888070D01*
X143077550Y-66888070D01*
X143109969Y-66891263D01*
X143142388Y-66888070D01*
X143239352Y-66878520D01*
X143363762Y-66840780D01*
X143478419Y-66779495D01*
X143578917Y-66697018D01*
X143661394Y-66596520D01*
X143722679Y-66481863D01*
X143760419Y-66357453D01*
X143773162Y-66228070D01*
X143769969Y-66195651D01*
X143769969Y-64704070D01*
X147466776Y-64704070D01*
X147479519Y-64833453D01*
X147517259Y-64957863D01*
X147578544Y-65072520D01*
X147661021Y-65173018D01*
X147761519Y-65255495D01*
X147876176Y-65316780D01*
X148000586Y-65354520D01*
X148129969Y-65367263D01*
X148162388Y-65364070D01*
X150800200Y-65364070D01*
X150800200Y-69094070D01*
X148162388Y-69094070D01*
X148129969Y-69090877D01*
X148000587Y-69103620D01*
X147876177Y-69141360D01*
X147761520Y-69202645D01*
X147661022Y-69285122D01*
X147578545Y-69385620D01*
X147517260Y-69500277D01*
X147479520Y-69624687D01*
X147469970Y-69721651D01*
X147469969Y-83721651D01*
X147466776Y-83754070D01*
X147479519Y-83883453D01*
X147517259Y-84007863D01*
X147578544Y-84122520D01*
X147661021Y-84223018D01*
X147761519Y-84305495D01*
X147876176Y-84366780D01*
X148000586Y-84404520D01*
X148129969Y-84417263D01*
X148162388Y-84414070D01*
X150800201Y-84414070D01*
X150800201Y-88144070D01*
X148162388Y-88144070D01*
X148129969Y-88140877D01*
X148000587Y-88153620D01*
X147876177Y-88191360D01*
X147761520Y-88252645D01*
X147661022Y-88335122D01*
X147578545Y-88435620D01*
X147517260Y-88550277D01*
X147479520Y-88674687D01*
X147469970Y-88771651D01*
X147469969Y-102771651D01*
X147466776Y-102804070D01*
X147479519Y-102933453D01*
X147517259Y-103057863D01*
X147578544Y-103172520D01*
X147661021Y-103273018D01*
X147761519Y-103355495D01*
X147876176Y-103416780D01*
X148000586Y-103454520D01*
X148129969Y-103467263D01*
X148162388Y-103464070D01*
X150800201Y-103464070D01*
X150800201Y-112528070D01*
X148162388Y-112528070D01*
X148129969Y-112524877D01*
X148000587Y-112537620D01*
X147876177Y-112575360D01*
X147761520Y-112636645D01*
X147661022Y-112719122D01*
X147578545Y-112819620D01*
X147517260Y-112934277D01*
X147479520Y-113058687D01*
X147469970Y-113155651D01*
X147469969Y-127155651D01*
X147466776Y-127188070D01*
X147479519Y-127317453D01*
X147517259Y-127441863D01*
X147578544Y-127556520D01*
X147661021Y-127657018D01*
X147761519Y-127739495D01*
X147876176Y-127800780D01*
X148000586Y-127838520D01*
X148129969Y-127851263D01*
X148162388Y-127848070D01*
X162127550Y-127848070D01*
X162159969Y-127851263D01*
X162192388Y-127848070D01*
X162289352Y-127838520D01*
X162413762Y-127800780D01*
X162528419Y-127739495D01*
X162628917Y-127657018D01*
X162711394Y-127556520D01*
X162772679Y-127441863D01*
X162810419Y-127317453D01*
X162823162Y-127188070D01*
X162819969Y-127155651D01*
X162819969Y-113220489D01*
X162823162Y-113188070D01*
X162810419Y-113058687D01*
X162772679Y-112934277D01*
X162711394Y-112819620D01*
X162628917Y-112719122D01*
X162528419Y-112636645D01*
X162413762Y-112575360D01*
X162289352Y-112537620D01*
X162192388Y-112528070D01*
X162159969Y-112524877D01*
X162127550Y-112528070D01*
X159486200Y-112528070D01*
X159486200Y-103464070D01*
X162127550Y-103464070D01*
X162159969Y-103467263D01*
X162192388Y-103464070D01*
X162219904Y-103461360D01*
X162289352Y-103454520D01*
X162413762Y-103416780D01*
X162528419Y-103355495D01*
X162628917Y-103273018D01*
X162711394Y-103172520D01*
X162772679Y-103057863D01*
X162810419Y-102933453D01*
X162819969Y-102836489D01*
X162819969Y-102836488D01*
X162823162Y-102804070D01*
X162819969Y-102771651D01*
X162819969Y-88836489D01*
X162823162Y-88804070D01*
X162810419Y-88674687D01*
X162772679Y-88550277D01*
X162711394Y-88435620D01*
X162628917Y-88335122D01*
X162528419Y-88252645D01*
X162413762Y-88191360D01*
X162289352Y-88153620D01*
X162192388Y-88144070D01*
X162159969Y-88140877D01*
X162127550Y-88144070D01*
X159486200Y-88144070D01*
X159486200Y-84414070D01*
X162127550Y-84414070D01*
X162159969Y-84417263D01*
X162192388Y-84414070D01*
X162219904Y-84411360D01*
X162289352Y-84404520D01*
X162413762Y-84366780D01*
X162528419Y-84305495D01*
X162628917Y-84223018D01*
X162711394Y-84122520D01*
X162772679Y-84007863D01*
X162810419Y-83883453D01*
X162819969Y-83786489D01*
X162819969Y-83786488D01*
X162823162Y-83754070D01*
X162819969Y-83721651D01*
X162819969Y-69786489D01*
X162823162Y-69754070D01*
X162810419Y-69624687D01*
X162772679Y-69500277D01*
X162711394Y-69385620D01*
X162628917Y-69285122D01*
X162528419Y-69202645D01*
X162413762Y-69141360D01*
X162289352Y-69103620D01*
X162192388Y-69094070D01*
X162159969Y-69090877D01*
X162127550Y-69094070D01*
X159486200Y-69094070D01*
X159486200Y-65974070D01*
X166516776Y-65974070D01*
X166529519Y-66103453D01*
X166567259Y-66227863D01*
X166628544Y-66342520D01*
X166711021Y-66443018D01*
X166811519Y-66525495D01*
X166926176Y-66586780D01*
X167050586Y-66624520D01*
X167179969Y-66637263D01*
X167212388Y-66634070D01*
X169850200Y-66634070D01*
X169850200Y-70364070D01*
X167212388Y-70364070D01*
X167179969Y-70360877D01*
X167050587Y-70373620D01*
X166926177Y-70411360D01*
X166811520Y-70472645D01*
X166711022Y-70555122D01*
X166628545Y-70655620D01*
X166567260Y-70770277D01*
X166529520Y-70894687D01*
X166519970Y-70991651D01*
X166519969Y-84991651D01*
X166516776Y-85024070D01*
X166529519Y-85153453D01*
X166567259Y-85277863D01*
X166628544Y-85392520D01*
X166711021Y-85493018D01*
X166811519Y-85575495D01*
X166926176Y-85636780D01*
X167050586Y-85674520D01*
X167179969Y-85687263D01*
X167212388Y-85684070D01*
X169850201Y-85684070D01*
X169850201Y-89414070D01*
X167212388Y-89414070D01*
X167179969Y-89410877D01*
X167050587Y-89423620D01*
X166926177Y-89461360D01*
X166811520Y-89522645D01*
X166711022Y-89605122D01*
X166628545Y-89705620D01*
X166567260Y-89820277D01*
X166529520Y-89944687D01*
X166519970Y-90041651D01*
X166519969Y-104041651D01*
X166516776Y-104074070D01*
X166529519Y-104203453D01*
X166567259Y-104327863D01*
X166628544Y-104442520D01*
X166711021Y-104543018D01*
X166811519Y-104625495D01*
X166926176Y-104686780D01*
X167050586Y-104724520D01*
X167179969Y-104737263D01*
X167212388Y-104734070D01*
X169850201Y-104734070D01*
X169850201Y-112528070D01*
X167212388Y-112528070D01*
X167179969Y-112524877D01*
X167050587Y-112537620D01*
X166926177Y-112575360D01*
X166811520Y-112636645D01*
X166711022Y-112719122D01*
X166628545Y-112819620D01*
X166567260Y-112934277D01*
X166529520Y-113058687D01*
X166519970Y-113155651D01*
X166519969Y-127155651D01*
X166516776Y-127188070D01*
X166529519Y-127317453D01*
X166567259Y-127441863D01*
X166628544Y-127556520D01*
X166711021Y-127657018D01*
X166811519Y-127739495D01*
X166926176Y-127800780D01*
X167050586Y-127838520D01*
X167179969Y-127851263D01*
X167212388Y-127848070D01*
X181177550Y-127848070D01*
X181209969Y-127851263D01*
X181242388Y-127848070D01*
X181339352Y-127838520D01*
X181463762Y-127800780D01*
X181578419Y-127739495D01*
X181678917Y-127657018D01*
X181761394Y-127556520D01*
X181822679Y-127441863D01*
X181860419Y-127317453D01*
X181873162Y-127188070D01*
X181869969Y-127155651D01*
X181869969Y-113220489D01*
X181873162Y-113188070D01*
X181860419Y-113058687D01*
X181822679Y-112934277D01*
X181761394Y-112819620D01*
X181678917Y-112719122D01*
X181578419Y-112636645D01*
X181463762Y-112575360D01*
X181339352Y-112537620D01*
X181242388Y-112528070D01*
X181209969Y-112524877D01*
X181177550Y-112528070D01*
X178536200Y-112528070D01*
X178536200Y-104734070D01*
X181177550Y-104734070D01*
X181209969Y-104737263D01*
X181242388Y-104734070D01*
X181339352Y-104724520D01*
X181463762Y-104686780D01*
X181578419Y-104625495D01*
X181678917Y-104543018D01*
X181761394Y-104442520D01*
X181822679Y-104327863D01*
X181860419Y-104203453D01*
X181873162Y-104074070D01*
X181869969Y-104041651D01*
X181869969Y-90106489D01*
X181873162Y-90074070D01*
X181860419Y-89944687D01*
X181822679Y-89820277D01*
X181761394Y-89705620D01*
X181678917Y-89605122D01*
X181578419Y-89522645D01*
X181463762Y-89461360D01*
X181339352Y-89423620D01*
X181242388Y-89414070D01*
X181209969Y-89410877D01*
X181177550Y-89414070D01*
X178536200Y-89414070D01*
X178536200Y-85684070D01*
X181177550Y-85684070D01*
X181209969Y-85687263D01*
X181242388Y-85684070D01*
X181339352Y-85674520D01*
X181463762Y-85636780D01*
X181578419Y-85575495D01*
X181678917Y-85493018D01*
X181761394Y-85392520D01*
X181822679Y-85277863D01*
X181860419Y-85153453D01*
X181873162Y-85024070D01*
X181869969Y-84991651D01*
X181869969Y-71056489D01*
X181873162Y-71024070D01*
X181860419Y-70894687D01*
X181822679Y-70770277D01*
X181761394Y-70655620D01*
X181678917Y-70555122D01*
X181578419Y-70472645D01*
X181463762Y-70411360D01*
X181339352Y-70373620D01*
X181242388Y-70364070D01*
X181209969Y-70360877D01*
X181177550Y-70364070D01*
X178536200Y-70364070D01*
X178536200Y-68514070D01*
X185566776Y-68514070D01*
X185579519Y-68643453D01*
X185617259Y-68767863D01*
X185678544Y-68882520D01*
X185761021Y-68983018D01*
X185861519Y-69065495D01*
X185976176Y-69126780D01*
X186100586Y-69164520D01*
X186229969Y-69177263D01*
X186262388Y-69174070D01*
X188900200Y-69174070D01*
X188900200Y-72904070D01*
X186262388Y-72904070D01*
X186229969Y-72900877D01*
X186100587Y-72913620D01*
X185976177Y-72951360D01*
X185861520Y-73012645D01*
X185761022Y-73095122D01*
X185678545Y-73195620D01*
X185617260Y-73310277D01*
X185579520Y-73434687D01*
X185569970Y-73531651D01*
X185569969Y-87531651D01*
X185566776Y-87564070D01*
X185579519Y-87693453D01*
X185617259Y-87817863D01*
X185678544Y-87932520D01*
X185761021Y-88033018D01*
X185861519Y-88115495D01*
X185976176Y-88176780D01*
X186100586Y-88214520D01*
X186229969Y-88227263D01*
X186262388Y-88224070D01*
X188900201Y-88224070D01*
X188900201Y-91954070D01*
X186262388Y-91954070D01*
X186229969Y-91950877D01*
X186100587Y-91963620D01*
X185976177Y-92001360D01*
X185861520Y-92062645D01*
X185761022Y-92145122D01*
X185678545Y-92245620D01*
X185617260Y-92360277D01*
X185579520Y-92484687D01*
X185569970Y-92581651D01*
X185569969Y-106581651D01*
X185566776Y-106614070D01*
X185579519Y-106743453D01*
X185617259Y-106867863D01*
X185678544Y-106982520D01*
X185761021Y-107083018D01*
X185861519Y-107165495D01*
X185976176Y-107226780D01*
X186100586Y-107264520D01*
X186229969Y-107277263D01*
X186262388Y-107274070D01*
X188900201Y-107274070D01*
X188900201Y-112528070D01*
X186262388Y-112528070D01*
X186229969Y-112524877D01*
X186100587Y-112537620D01*
X185976177Y-112575360D01*
X185861520Y-112636645D01*
X185761022Y-112719122D01*
X185678545Y-112819620D01*
X185617260Y-112934277D01*
X185579520Y-113058687D01*
X185569970Y-113155651D01*
X185569969Y-127155651D01*
X185566776Y-127188070D01*
X185579519Y-127317453D01*
X185617259Y-127441863D01*
X185678544Y-127556520D01*
X185761021Y-127657018D01*
X185861519Y-127739495D01*
X185976176Y-127800780D01*
X186100586Y-127838520D01*
X186229969Y-127851263D01*
X186262388Y-127848070D01*
X200227550Y-127848070D01*
X200259969Y-127851263D01*
X200292388Y-127848070D01*
X200389352Y-127838520D01*
X200513762Y-127800780D01*
X200628419Y-127739495D01*
X200728917Y-127657018D01*
X200811394Y-127556520D01*
X200872679Y-127441863D01*
X200910419Y-127317453D01*
X200923162Y-127188070D01*
X200919969Y-127155651D01*
X200919969Y-113220489D01*
X200923162Y-113188070D01*
X200910419Y-113058687D01*
X200872679Y-112934277D01*
X200811394Y-112819620D01*
X200728917Y-112719122D01*
X200628419Y-112636645D01*
X200513762Y-112575360D01*
X200389352Y-112537620D01*
X200292388Y-112528070D01*
X200259969Y-112524877D01*
X200227550Y-112528070D01*
X197586200Y-112528070D01*
X197586200Y-107274070D01*
X200227550Y-107274070D01*
X200259969Y-107277263D01*
X200292388Y-107274070D01*
X200389352Y-107264520D01*
X200513762Y-107226780D01*
X200628419Y-107165495D01*
X200728917Y-107083018D01*
X200811394Y-106982520D01*
X200872679Y-106867863D01*
X200910419Y-106743453D01*
X200923162Y-106614070D01*
X200919969Y-106581651D01*
X200919969Y-92646489D01*
X200923162Y-92614070D01*
X200910419Y-92484687D01*
X200872679Y-92360277D01*
X200811394Y-92245620D01*
X200728917Y-92145122D01*
X200628419Y-92062645D01*
X200513762Y-92001360D01*
X200389352Y-91963620D01*
X200292388Y-91954070D01*
X200259969Y-91950877D01*
X200227550Y-91954070D01*
X197586200Y-91954070D01*
X197586200Y-90005331D01*
X200054890Y-90005331D01*
X200054890Y-90334669D01*
X200119140Y-90657678D01*
X200245172Y-90961947D01*
X200428142Y-91235781D01*
X200661019Y-91468658D01*
X200934853Y-91651628D01*
X201239122Y-91777660D01*
X201562131Y-91841910D01*
X201891469Y-91841910D01*
X202214478Y-91777660D01*
X202518747Y-91651628D01*
X202792581Y-91468658D01*
X203025458Y-91235781D01*
X203208428Y-90961947D01*
X203334460Y-90657678D01*
X203398710Y-90334669D01*
X203398710Y-90005331D01*
X203334460Y-89682322D01*
X203208428Y-89378053D01*
X203025458Y-89104219D01*
X202792581Y-88871342D01*
X202518747Y-88688372D01*
X202214478Y-88562340D01*
X201891469Y-88498090D01*
X201562131Y-88498090D01*
X201239122Y-88562340D01*
X200934853Y-88688372D01*
X200661019Y-88871342D01*
X200428142Y-89104219D01*
X200245172Y-89378053D01*
X200119140Y-89682322D01*
X200054890Y-90005331D01*
X197586200Y-90005331D01*
X197586200Y-88224070D01*
X200227550Y-88224070D01*
X200259969Y-88227263D01*
X200292388Y-88224070D01*
X200389352Y-88214520D01*
X200513762Y-88176780D01*
X200628419Y-88115495D01*
X200728917Y-88033018D01*
X200811394Y-87932520D01*
X200872679Y-87817863D01*
X200910419Y-87693453D01*
X200923162Y-87564070D01*
X200919969Y-87531651D01*
X200919969Y-73596489D01*
X200923162Y-73564070D01*
X200910419Y-73434687D01*
X200872679Y-73310277D01*
X200811394Y-73195620D01*
X200728917Y-73095122D01*
X200628419Y-73012645D01*
X200513762Y-72951360D01*
X200389352Y-72913620D01*
X200292388Y-72904070D01*
X200259969Y-72900877D01*
X200227550Y-72904070D01*
X197586200Y-72904070D01*
X197586200Y-69174070D01*
X200227550Y-69174070D01*
X200259969Y-69177263D01*
X200292388Y-69174070D01*
X200389352Y-69164520D01*
X200513762Y-69126780D01*
X200628419Y-69065495D01*
X200728917Y-68983018D01*
X200811394Y-68882520D01*
X200872679Y-68767863D01*
X200910419Y-68643453D01*
X200923162Y-68514070D01*
X200919969Y-68481651D01*
X200919969Y-54546489D01*
X200923162Y-54514070D01*
X200910419Y-54384687D01*
X200872679Y-54260277D01*
X200811394Y-54145620D01*
X200728917Y-54045122D01*
X200628419Y-53962645D01*
X200513762Y-53901360D01*
X200389352Y-53863620D01*
X200292388Y-53854070D01*
X200259969Y-53850877D01*
X200227550Y-53854070D01*
X197586200Y-53854070D01*
X197586200Y-52102419D01*
X197589393Y-52070000D01*
X197576650Y-51940617D01*
X197538910Y-51816207D01*
X197477625Y-51701550D01*
X197395148Y-51601052D01*
X197294650Y-51518575D01*
X197179993Y-51457290D01*
X197055583Y-51419550D01*
X196958619Y-51410000D01*
X196926200Y-51406807D01*
X196893781Y-51410000D01*
X189592619Y-51410000D01*
X189560200Y-51406807D01*
X189527781Y-51410000D01*
X189430817Y-51419550D01*
X189306407Y-51457290D01*
X189191750Y-51518575D01*
X189091252Y-51601052D01*
X189008775Y-51701550D01*
X188947490Y-51816207D01*
X188909750Y-51940617D01*
X188897007Y-52070000D01*
X188900200Y-52102419D01*
X188900200Y-53854070D01*
X186262388Y-53854070D01*
X186229969Y-53850877D01*
X186100587Y-53863620D01*
X185976177Y-53901360D01*
X185861520Y-53962645D01*
X185761022Y-54045122D01*
X185678545Y-54145620D01*
X185617260Y-54260277D01*
X185579520Y-54384687D01*
X185569970Y-54481651D01*
X185569969Y-68481651D01*
X185566776Y-68514070D01*
X178536200Y-68514070D01*
X178536200Y-66634070D01*
X181177550Y-66634070D01*
X181209969Y-66637263D01*
X181242388Y-66634070D01*
X181339352Y-66624520D01*
X181463762Y-66586780D01*
X181578419Y-66525495D01*
X181678917Y-66443018D01*
X181761394Y-66342520D01*
X181822679Y-66227863D01*
X181860419Y-66103453D01*
X181873162Y-65974070D01*
X181869969Y-65941651D01*
X181869969Y-52006489D01*
X181873162Y-51974070D01*
X181860419Y-51844687D01*
X181822679Y-51720277D01*
X181761394Y-51605620D01*
X181678917Y-51505122D01*
X181578419Y-51422645D01*
X181463762Y-51361360D01*
X181339352Y-51323620D01*
X181242388Y-51314070D01*
X181209969Y-51310877D01*
X181177550Y-51314070D01*
X178536200Y-51314070D01*
X178536200Y-49562419D01*
X178539393Y-49530000D01*
X178526650Y-49400617D01*
X178488910Y-49276207D01*
X178427625Y-49161550D01*
X178345148Y-49061052D01*
X178244650Y-48978575D01*
X178129993Y-48917290D01*
X178005583Y-48879550D01*
X177908619Y-48870000D01*
X177876200Y-48866807D01*
X177843781Y-48870000D01*
X170542619Y-48870000D01*
X170510200Y-48866807D01*
X170477781Y-48870000D01*
X170380817Y-48879550D01*
X170256407Y-48917290D01*
X170141750Y-48978575D01*
X170041252Y-49061052D01*
X169958775Y-49161550D01*
X169897490Y-49276207D01*
X169859750Y-49400617D01*
X169847007Y-49530000D01*
X169850200Y-49562419D01*
X169850200Y-51314070D01*
X167212388Y-51314070D01*
X167179969Y-51310877D01*
X167050587Y-51323620D01*
X166926177Y-51361360D01*
X166811520Y-51422645D01*
X166711022Y-51505122D01*
X166628545Y-51605620D01*
X166567260Y-51720277D01*
X166529520Y-51844687D01*
X166519970Y-51941651D01*
X166519969Y-65941651D01*
X166516776Y-65974070D01*
X159486200Y-65974070D01*
X159486200Y-65364070D01*
X162127550Y-65364070D01*
X162159969Y-65367263D01*
X162192388Y-65364070D01*
X162219904Y-65361360D01*
X162289352Y-65354520D01*
X162413762Y-65316780D01*
X162528419Y-65255495D01*
X162628917Y-65173018D01*
X162711394Y-65072520D01*
X162772679Y-64957863D01*
X162810419Y-64833453D01*
X162819969Y-64736489D01*
X162819969Y-64736488D01*
X162823162Y-64704070D01*
X162819969Y-64671651D01*
X162819969Y-50736489D01*
X162823162Y-50704070D01*
X162810419Y-50574687D01*
X162772679Y-50450277D01*
X162711394Y-50335620D01*
X162628917Y-50235122D01*
X162528419Y-50152645D01*
X162413762Y-50091360D01*
X162289352Y-50053620D01*
X162192388Y-50044070D01*
X162159969Y-50040877D01*
X162127550Y-50044070D01*
X159486200Y-50044070D01*
X159486200Y-48800419D01*
X159489393Y-48768000D01*
X159476650Y-48638617D01*
X159438910Y-48514207D01*
X159377625Y-48399550D01*
X159295148Y-48299052D01*
X159194650Y-48216575D01*
X159079993Y-48155290D01*
X158955583Y-48117550D01*
X158858619Y-48108000D01*
X158826200Y-48104807D01*
X158793781Y-48108000D01*
X151492619Y-48108000D01*
X151460200Y-48104807D01*
X151427781Y-48108000D01*
X151330817Y-48117550D01*
X151206407Y-48155290D01*
X151091750Y-48216575D01*
X150991252Y-48299052D01*
X150908775Y-48399550D01*
X150847490Y-48514207D01*
X150809750Y-48638617D01*
X150797007Y-48768000D01*
X150800200Y-48800419D01*
X150800200Y-50044070D01*
X148162388Y-50044070D01*
X148129969Y-50040877D01*
X148000587Y-50053620D01*
X147876177Y-50091360D01*
X147761520Y-50152645D01*
X147661022Y-50235122D01*
X147578545Y-50335620D01*
X147517260Y-50450277D01*
X147479520Y-50574687D01*
X147469970Y-50671651D01*
X147469969Y-64671651D01*
X147466776Y-64704070D01*
X143769969Y-64704070D01*
X143769969Y-52260489D01*
X143773162Y-52228070D01*
X143760419Y-52098687D01*
X143722679Y-51974277D01*
X143661394Y-51859620D01*
X143578917Y-51759122D01*
X143478419Y-51676645D01*
X143363762Y-51615360D01*
X143239352Y-51577620D01*
X143142388Y-51568070D01*
X143109969Y-51564877D01*
X143077550Y-51568070D01*
X140182200Y-51568070D01*
X140182200Y-49562419D01*
X140185393Y-49530000D01*
X140172650Y-49400617D01*
X140134910Y-49276207D01*
X140073625Y-49161550D01*
X139991148Y-49061052D01*
X139890650Y-48978575D01*
X139775993Y-48917290D01*
X139651583Y-48879550D01*
X139554619Y-48870000D01*
X139522200Y-48866807D01*
X139489781Y-48870000D01*
X132188619Y-48870000D01*
X132156200Y-48866807D01*
X132123781Y-48870000D01*
X132026817Y-48879550D01*
X131902407Y-48917290D01*
X131787750Y-48978575D01*
X131687252Y-49061052D01*
X131604775Y-49161550D01*
X131543490Y-49276207D01*
X131505750Y-49400617D01*
X131493007Y-49530000D01*
X131496200Y-49562419D01*
X131496200Y-51568070D01*
X129112388Y-51568070D01*
X129079969Y-51564877D01*
X128950587Y-51577620D01*
X128826177Y-51615360D01*
X128711520Y-51676645D01*
X128611022Y-51759122D01*
X128528545Y-51859620D01*
X128467260Y-51974277D01*
X128429520Y-52098687D01*
X128419970Y-52195651D01*
X128419969Y-66195651D01*
X128416776Y-66228070D01*
X127456800Y-66228070D01*
X127456800Y-46998708D01*
X127487896Y-46676981D01*
X127579022Y-46373645D01*
X127727332Y-46093782D01*
X127927176Y-45848056D01*
X128170940Y-45645828D01*
X128449343Y-45494798D01*
X128768119Y-45395637D01*
X128878418Y-45378110D01*
X145160388Y-45378110D01*
X145139122Y-45382340D01*
X144834853Y-45508372D01*
X144561019Y-45691342D01*
X144328142Y-45924219D01*
X144145172Y-46198053D01*
X144019140Y-46502322D01*
X143954890Y-46825331D01*
X143954890Y-47154669D01*
X144019140Y-47477678D01*
X144145172Y-47781947D01*
X144328142Y-48055781D01*
X144561019Y-48288658D01*
X144834853Y-48471628D01*
X145139122Y-48597660D01*
X145462131Y-48661910D01*
X145792895Y-48661910D01*
X146115904Y-48597660D01*
X146420173Y-48471628D01*
X146694007Y-48288658D01*
X146926884Y-48055781D01*
X147109854Y-47781947D01*
X147235886Y-47477678D01*
X147300136Y-47154669D01*
X147300136Y-46825331D01*
X147235886Y-46502322D01*
X147109854Y-46198053D01*
X146926884Y-45924219D01*
X146694007Y-45691342D01*
X146420173Y-45508372D01*
X146115904Y-45382340D01*
X146094638Y-45378110D01*
X201514388Y-45378110D01*
X201493122Y-45382340D01*
X201188853Y-45508372D01*
X200915019Y-45691342D01*
X200682142Y-45924219D01*
X200499172Y-46198053D01*
X200373140Y-46502322D01*
X200308890Y-46825331D01*
X200308890Y-47154669D01*
X200373140Y-47477678D01*
X200499172Y-47781947D01*
X200682142Y-48055781D01*
X200915019Y-48288658D01*
X201188853Y-48471628D01*
X201493122Y-48597660D01*
X201816131Y-48661910D01*
X202145469Y-48661910D01*
X202468478Y-48597660D01*
X202772747Y-48471628D01*
X203046581Y-48288658D01*
X203279458Y-48055781D01*
X203462428Y-47781947D01*
X203588460Y-47477678D01*
X203592745Y-47456135D01*
X203594756Y-129868751D01*
X203588460Y-129837098D01*
X203462428Y-129532829D01*
X203279458Y-129258995D01*
X203046581Y-129026118D01*
X202772747Y-128843148D01*
X202468478Y-128717116D01*
X202145469Y-128652866D01*
X201816131Y-128652866D01*
X201493122Y-128717116D01*
X201188853Y-128843148D01*
X200915019Y-129026118D01*
X200682142Y-129258995D01*
X200499172Y-129532829D01*
X200373140Y-129837098D01*
X200308890Y-130160107D01*
X200308890Y-130489445D01*
X200373140Y-130812454D01*
X200499172Y-131116723D01*
X200682142Y-131390557D01*
X200915019Y-131623434D01*
X201188853Y-131806404D01*
X201493122Y-131932436D01*
X201513890Y-131936567D01*
X189890000Y-131934016D01*
X189890000Y-129826419D01*
X189893193Y-129794000D01*
X189880450Y-129664617D01*
X189842710Y-129540207D01*
X189781425Y-129425550D01*
X189698948Y-129325052D01*
X189598450Y-129242575D01*
X189483793Y-129181290D01*
X189359383Y-129143550D01*
X189262419Y-129134000D01*
X189230000Y-129130807D01*
X189197581Y-129134000D01*
X179356419Y-129134000D01*
X179324000Y-129130807D01*
X179291581Y-129134000D01*
X179194617Y-129143550D01*
X179070207Y-129181290D01*
X178955550Y-129242575D01*
X178855052Y-129325052D01*
X178772575Y-129425550D01*
X178711290Y-129540207D01*
X178673550Y-129664617D01*
X178660807Y-129794000D01*
X178664001Y-129826429D01*
X178664001Y-131931553D01*
X146031943Y-131924393D01*
X146115904Y-131907692D01*
X146420173Y-131781660D01*
X146694007Y-131598690D01*
X146926884Y-131365813D01*
X147109854Y-131091979D01*
X147235886Y-130787710D01*
X147300136Y-130464701D01*
X147300136Y-130135363D01*
X147235886Y-129812354D01*
X147109854Y-129508085D01*
X146926884Y-129234251D01*
X146694007Y-129001374D01*
X146420173Y-128818404D01*
X146115904Y-128692372D01*
X145792895Y-128628122D01*
X145463557Y-128628122D01*
X145140548Y-128692372D01*
X144836279Y-128818404D01*
X144562445Y-129001374D01*
X144329568Y-129234251D01*
X144146598Y-129508085D01*
X144020566Y-129812354D01*
X143956316Y-130135363D01*
X143956316Y-130464701D01*
X144020566Y-130787710D01*
X144146598Y-131091979D01*
X144329568Y-131365813D01*
X144562445Y-131598690D01*
X144836279Y-131781660D01*
X145140548Y-131907692D01*
X145223617Y-131924215D01*
X89594709Y-131912009D01*
X89616411Y-131907692D01*
X89920680Y-131781660D01*
X90194514Y-131598690D01*
X90427391Y-131365813D01*
X90610361Y-131091979D01*
X90736393Y-130787710D01*
X90800643Y-130464701D01*
X90800643Y-130135363D01*
X90736393Y-129812354D01*
X90610361Y-129508085D01*
X90427391Y-129234251D01*
X90194514Y-129001374D01*
X89920680Y-128818404D01*
X89616411Y-128692372D01*
X89293402Y-128628122D01*
X88964064Y-128628122D01*
X88641055Y-128692372D01*
X88336786Y-128818404D01*
X88062952Y-129001374D01*
X87830075Y-129234251D01*
X87647105Y-129508085D01*
X87521073Y-129812354D01*
X87516800Y-129833836D01*
X87516800Y-91529331D01*
X87532890Y-91529331D01*
X87532890Y-91858669D01*
X87597140Y-92181678D01*
X87723172Y-92485947D01*
X87906142Y-92759781D01*
X88139019Y-92992658D01*
X88412853Y-93175628D01*
X88717122Y-93301660D01*
X89040131Y-93365910D01*
X89369469Y-93365910D01*
X89692478Y-93301660D01*
X89996747Y-93175628D01*
X90270581Y-92992658D01*
X90503458Y-92759781D01*
X90686428Y-92485947D01*
X90812460Y-92181678D01*
X90876710Y-91858669D01*
X90876710Y-91529331D01*
X90812460Y-91206322D01*
X90686428Y-90902053D01*
X90503458Y-90628219D01*
X90270581Y-90395342D01*
X89996747Y-90212372D01*
X89692478Y-90086340D01*
X89369469Y-90022090D01*
X89040131Y-90022090D01*
X88717122Y-90086340D01*
X88412853Y-90212372D01*
X88139019Y-90395342D01*
X87906142Y-90628219D01*
X87723172Y-90902053D01*
X87597140Y-91206322D01*
X87532890Y-91529331D01*
X87516800Y-91529331D01*
X87516800Y-55987270D01*
X90316776Y-55987270D01*
X90319970Y-56019699D01*
X90319969Y-69954851D01*
X90316776Y-69987270D01*
X90329519Y-70116653D01*
X90367259Y-70241063D01*
X90428544Y-70355720D01*
X90474207Y-70411360D01*
X90511021Y-70456218D01*
X90611519Y-70538695D01*
X90726176Y-70599980D01*
X90850586Y-70637720D01*
X90979969Y-70650463D01*
X91012388Y-70647270D01*
X93396200Y-70647270D01*
X93396200Y-74397000D01*
X91015219Y-74397000D01*
X90982800Y-74393807D01*
X90950381Y-74397000D01*
X90853417Y-74406550D01*
X90729007Y-74444290D01*
X90614350Y-74505575D01*
X90513852Y-74588052D01*
X90431375Y-74688550D01*
X90370090Y-74803207D01*
X90332350Y-74927617D01*
X90319607Y-75057000D01*
X90319970Y-75060686D01*
X90319969Y-89055651D01*
X90316776Y-89088070D01*
X90329519Y-89217453D01*
X90367259Y-89341863D01*
X90428544Y-89456520D01*
X90460902Y-89495948D01*
X90511021Y-89557018D01*
X90611519Y-89639495D01*
X90726176Y-89700780D01*
X90850586Y-89738520D01*
X90979969Y-89751263D01*
X91012388Y-89748070D01*
X93396201Y-89748070D01*
X93396201Y-93447000D01*
X91015219Y-93447000D01*
X90982800Y-93443807D01*
X90950381Y-93447000D01*
X90853417Y-93456550D01*
X90729007Y-93494290D01*
X90614350Y-93555575D01*
X90513852Y-93638052D01*
X90431375Y-93738550D01*
X90370090Y-93853207D01*
X90332350Y-93977617D01*
X90319607Y-94107000D01*
X90319970Y-94110686D01*
X90319969Y-108105651D01*
X90316776Y-108138070D01*
X90329519Y-108267453D01*
X90367259Y-108391863D01*
X90428544Y-108506520D01*
X90460902Y-108545948D01*
X90511021Y-108607018D01*
X90611519Y-108689495D01*
X90726176Y-108750780D01*
X90850586Y-108788520D01*
X90979969Y-108801263D01*
X91012388Y-108798070D01*
X93396201Y-108798070D01*
X93396201Y-112477270D01*
X91012388Y-112477270D01*
X90979969Y-112474077D01*
X90947550Y-112477270D01*
X90850586Y-112486820D01*
X90726176Y-112524560D01*
X90611519Y-112585845D01*
X90511021Y-112668322D01*
X90428544Y-112768820D01*
X90367259Y-112883477D01*
X90329519Y-113007887D01*
X90316776Y-113137270D01*
X90319970Y-113169699D01*
X90319969Y-127104851D01*
X90316776Y-127137270D01*
X90329519Y-127266653D01*
X90367259Y-127391063D01*
X90428544Y-127505720D01*
X90470234Y-127556519D01*
X90511021Y-127606218D01*
X90611519Y-127688695D01*
X90726176Y-127749980D01*
X90850586Y-127787720D01*
X90979969Y-127800463D01*
X91012388Y-127797270D01*
X104977550Y-127797270D01*
X105009969Y-127800463D01*
X105042388Y-127797270D01*
X105139352Y-127787720D01*
X105263762Y-127749980D01*
X105378419Y-127688695D01*
X105478917Y-127606218D01*
X105561394Y-127505720D01*
X105622679Y-127391063D01*
X105660419Y-127266653D01*
X105660556Y-127265265D01*
X105663250Y-127256383D01*
X105672800Y-127159419D01*
X105672800Y-127140945D01*
X105673162Y-127137270D01*
X105672800Y-127133595D01*
X105672800Y-113140945D01*
X105673162Y-113137270D01*
X105672800Y-113133595D01*
X105672800Y-113124581D01*
X105663250Y-113027617D01*
X105661935Y-113023283D01*
X105660419Y-113007887D01*
X105622679Y-112883477D01*
X105561394Y-112768820D01*
X105478917Y-112668322D01*
X105378419Y-112585845D01*
X105263762Y-112524560D01*
X105139352Y-112486820D01*
X105042388Y-112477270D01*
X105009969Y-112474077D01*
X104977550Y-112477270D01*
X102082200Y-112477270D01*
X102082200Y-108798070D01*
X104977550Y-108798070D01*
X105009969Y-108801263D01*
X105042388Y-108798070D01*
X105139352Y-108788520D01*
X105263762Y-108750780D01*
X105378419Y-108689495D01*
X105478917Y-108607018D01*
X105561394Y-108506520D01*
X105622679Y-108391863D01*
X105660419Y-108267453D01*
X105673162Y-108138070D01*
X105669969Y-108105651D01*
X105669969Y-94168163D01*
X105675993Y-94107000D01*
X105663250Y-93977617D01*
X105625510Y-93853207D01*
X105564225Y-93738550D01*
X105481748Y-93638052D01*
X105381250Y-93555575D01*
X105266593Y-93494290D01*
X105142183Y-93456550D01*
X105045219Y-93447000D01*
X102082200Y-93447000D01*
X102082200Y-89748070D01*
X104977550Y-89748070D01*
X105009969Y-89751263D01*
X105042388Y-89748070D01*
X105139352Y-89738520D01*
X105263762Y-89700780D01*
X105378419Y-89639495D01*
X105478917Y-89557018D01*
X105561394Y-89456520D01*
X105622679Y-89341863D01*
X105660419Y-89217453D01*
X105673162Y-89088070D01*
X105671570Y-89071907D01*
X105672800Y-89059419D01*
X105672800Y-75089419D01*
X105675993Y-75057000D01*
X105663250Y-74927617D01*
X105625510Y-74803207D01*
X105564225Y-74688550D01*
X105481748Y-74588052D01*
X105381250Y-74505575D01*
X105266593Y-74444290D01*
X105142183Y-74406550D01*
X105045219Y-74397000D01*
X105012800Y-74393807D01*
X104980381Y-74397000D01*
X102082200Y-74397000D01*
X102082200Y-70647270D01*
X104977550Y-70647270D01*
X105009969Y-70650463D01*
X105042388Y-70647270D01*
X105139352Y-70637720D01*
X105263762Y-70599980D01*
X105378419Y-70538695D01*
X105478917Y-70456218D01*
X105561394Y-70355720D01*
X105565311Y-70348391D01*
X105567725Y-70345450D01*
X105629010Y-70230793D01*
X105666750Y-70106383D01*
X105676300Y-70009419D01*
X105676300Y-55974581D01*
X105666750Y-55877617D01*
X105629010Y-55753207D01*
X105628210Y-55751711D01*
X105622679Y-55733477D01*
X105561394Y-55618820D01*
X105478917Y-55518322D01*
X105378419Y-55435845D01*
X105263762Y-55374560D01*
X105139352Y-55336820D01*
X105042388Y-55327270D01*
X105009969Y-55324077D01*
X104977550Y-55327270D01*
X102082200Y-55327270D01*
X102082200Y-53626419D01*
X102085393Y-53594000D01*
X102072650Y-53464617D01*
X102034910Y-53340207D01*
X101973625Y-53225550D01*
X101891148Y-53125052D01*
X101790650Y-53042575D01*
X101675993Y-52981290D01*
X101551583Y-52943550D01*
X101454619Y-52934000D01*
X101422200Y-52930807D01*
X101389781Y-52934000D01*
X94088619Y-52934000D01*
X94056200Y-52930807D01*
X94023781Y-52934000D01*
X93926817Y-52943550D01*
X93802407Y-52981290D01*
X93687750Y-53042575D01*
X93587252Y-53125052D01*
X93504775Y-53225550D01*
X93443490Y-53340207D01*
X93405750Y-53464617D01*
X93393007Y-53594000D01*
X93396200Y-53626419D01*
X93396200Y-55327270D01*
X91012388Y-55327270D01*
X90979969Y-55324077D01*
X90947550Y-55327270D01*
X90850586Y-55336820D01*
X90726176Y-55374560D01*
X90611519Y-55435845D01*
X90511021Y-55518322D01*
X90428544Y-55618820D01*
X90367259Y-55733477D01*
X90329519Y-55857887D01*
X90316776Y-55987270D01*
X87516800Y-55987270D01*
X87516800Y-47468967D01*
X87518533Y-47477679D01*
X87644565Y-47781948D01*
X87827535Y-48055782D01*
X88060412Y-48288659D01*
X88334246Y-48471629D01*
X88638515Y-48597661D01*
X88961524Y-48661911D01*
X89293402Y-48661911D01*
X89616411Y-48597661D01*
X89920680Y-48471629D01*
X90194514Y-48288659D01*
X90427391Y-48055782D01*
X90610361Y-47781948D01*
X90736393Y-47477679D01*
X90800643Y-47154670D01*
X90800643Y-46825332D01*
X90736393Y-46502323D01*
X90610361Y-46198054D01*
X90427391Y-45924220D01*
X90194514Y-45691343D01*
X89920680Y-45508373D01*
X89616411Y-45382341D01*
X89526986Y-45364553D01*
X93828001Y-45368337D01*
G37*
%TD.AperFunction*%
D10*
X131496201Y-117888419D02*
X131505751Y-117985383D01*
X131543491Y-118109793D01*
X131604776Y-118224450D01*
X131687253Y-118324948D01*
X131787751Y-118407425D01*
X131902408Y-118468710D01*
X132026818Y-118506450D01*
X132156200Y-118519193D01*
X132285583Y-118506450D01*
X132409993Y-118468710D01*
X132524650Y-118407425D01*
X132625148Y-118324948D01*
X132707625Y-118224450D01*
X132768910Y-118109793D01*
X132806650Y-117985383D01*
X132816200Y-117888419D01*
X132816200Y-113848070D01*
X138862200Y-113848070D01*
X138862200Y-117888418D01*
X138871750Y-117985382D01*
X138909490Y-118109792D01*
X138970775Y-118224449D01*
X139053252Y-118324948D01*
X139153750Y-118407425D01*
X139268407Y-118468710D01*
X139392817Y-118506450D01*
X139522200Y-118519193D01*
X139651582Y-118506450D01*
X139775992Y-118468710D01*
X139890649Y-118407425D01*
X139991148Y-118324948D01*
X140073625Y-118224450D01*
X140134910Y-118109793D01*
X140172650Y-117985383D01*
X140182200Y-117888419D01*
X140182200Y-113848070D01*
X142449969Y-113848070D01*
X142449970Y-126528070D01*
X129739969Y-126528070D01*
X129739969Y-113848070D01*
X131496201Y-113848070D01*
X131496201Y-117888419D01*
%TA.AperFunction,NonConductor*%
D11*
G36*
X131496201Y-117888419D02*
G01*
X131505751Y-117985383D01*
X131543491Y-118109793D01*
X131604776Y-118224450D01*
X131687253Y-118324948D01*
X131787751Y-118407425D01*
X131902408Y-118468710D01*
X132026818Y-118506450D01*
X132156200Y-118519193D01*
X132285583Y-118506450D01*
X132409993Y-118468710D01*
X132524650Y-118407425D01*
X132625148Y-118324948D01*
X132707625Y-118224450D01*
X132768910Y-118109793D01*
X132806650Y-117985383D01*
X132816200Y-117888419D01*
X132816200Y-113848070D01*
X138862200Y-113848070D01*
X138862200Y-117888418D01*
X138871750Y-117985382D01*
X138909490Y-118109792D01*
X138970775Y-118224449D01*
X139053252Y-118324948D01*
X139153750Y-118407425D01*
X139268407Y-118468710D01*
X139392817Y-118506450D01*
X139522200Y-118519193D01*
X139651582Y-118506450D01*
X139775992Y-118468710D01*
X139890649Y-118407425D01*
X139991148Y-118324948D01*
X140073625Y-118224450D01*
X140134910Y-118109793D01*
X140172650Y-117985383D01*
X140182200Y-117888419D01*
X140182200Y-113848070D01*
X142449969Y-113848070D01*
X142449970Y-126528070D01*
X129739969Y-126528070D01*
X129739969Y-113848070D01*
X131496201Y-113848070D01*
X131496201Y-117888419D01*
G37*
%TD.AperFunction*%
D10*
X138862200Y-112528070D02*
X132816200Y-112528070D01*
X132816200Y-104988070D01*
X138862200Y-104988070D01*
X138862200Y-112528070D01*
%TA.AperFunction,NonConductor*%
D11*
G36*
X138862200Y-112528070D02*
G01*
X132816200Y-112528070D01*
X132816200Y-104988070D01*
X138862200Y-104988070D01*
X138862200Y-112528070D01*
G37*
%TD.AperFunction*%
D10*
X142449970Y-103668070D02*
X140182200Y-103668070D01*
X140182200Y-90988070D01*
X142449969Y-90988070D01*
X142449970Y-103668070D01*
%TA.AperFunction,NonConductor*%
D11*
G36*
X142449970Y-103668070D02*
G01*
X140182200Y-103668070D01*
X140182200Y-90988070D01*
X142449969Y-90988070D01*
X142449970Y-103668070D01*
G37*
%TD.AperFunction*%
D10*
X138862200Y-103668070D02*
X132816200Y-103668070D01*
X132816200Y-90988070D01*
X138862200Y-90988070D01*
X138862200Y-103668070D01*
%TA.AperFunction,NonConductor*%
D11*
G36*
X138862200Y-103668070D02*
G01*
X132816200Y-103668070D01*
X132816200Y-90988070D01*
X138862200Y-90988070D01*
X138862200Y-103668070D01*
G37*
%TD.AperFunction*%
D10*
X131496201Y-103668070D02*
X129739969Y-103668070D01*
X129739969Y-90988070D01*
X131496201Y-90988070D01*
X131496201Y-103668070D01*
%TA.AperFunction,NonConductor*%
D11*
G36*
X131496201Y-103668070D02*
G01*
X129739969Y-103668070D01*
X129739969Y-90988070D01*
X131496201Y-90988070D01*
X131496201Y-103668070D01*
G37*
%TD.AperFunction*%
D10*
X138862200Y-89668070D02*
X132816200Y-89668070D01*
X132816200Y-85938070D01*
X138862200Y-85938070D01*
X138862200Y-89668070D01*
%TA.AperFunction,NonConductor*%
D11*
G36*
X138862200Y-89668070D02*
G01*
X132816200Y-89668070D01*
X132816200Y-85938070D01*
X138862200Y-85938070D01*
X138862200Y-89668070D01*
G37*
%TD.AperFunction*%
D10*
X138862200Y-84618070D02*
X132816200Y-84618070D01*
X132816200Y-71938070D01*
X138862201Y-71938070D01*
X138862200Y-84618070D01*
%TA.AperFunction,NonConductor*%
D11*
G36*
X138862200Y-84618070D02*
G01*
X132816200Y-84618070D01*
X132816200Y-71938070D01*
X138862201Y-71938070D01*
X138862200Y-84618070D01*
G37*
%TD.AperFunction*%
D10*
X142449970Y-84618070D02*
X140182200Y-84618070D01*
X140182200Y-71938070D01*
X142449969Y-71938070D01*
X142449970Y-84618070D01*
%TA.AperFunction,NonConductor*%
D11*
G36*
X142449970Y-84618070D02*
G01*
X140182200Y-84618070D01*
X140182200Y-71938070D01*
X142449969Y-71938070D01*
X142449970Y-84618070D01*
G37*
%TD.AperFunction*%
D10*
X131496201Y-84618070D02*
X129739969Y-84618070D01*
X129739969Y-71938070D01*
X131496200Y-71938070D01*
X131496201Y-84618070D01*
%TA.AperFunction,NonConductor*%
D11*
G36*
X131496201Y-84618070D02*
G01*
X129739969Y-84618070D01*
X129739969Y-71938070D01*
X131496200Y-71938070D01*
X131496201Y-84618070D01*
G37*
%TD.AperFunction*%
D10*
X138862201Y-70618070D02*
X132816200Y-70618070D01*
X132816200Y-66888070D01*
X138862201Y-66888070D01*
X138862201Y-70618070D01*
%TA.AperFunction,NonConductor*%
D11*
G36*
X138862201Y-70618070D02*
G01*
X132816200Y-70618070D01*
X132816200Y-66888070D01*
X138862201Y-66888070D01*
X138862201Y-70618070D01*
G37*
%TD.AperFunction*%
D10*
X138862201Y-65568070D02*
X132816200Y-65568070D01*
X132816200Y-52888070D01*
X138862201Y-52888070D01*
X138862201Y-65568070D01*
%TA.AperFunction,NonConductor*%
D11*
G36*
X138862201Y-65568070D02*
G01*
X132816200Y-65568070D01*
X132816200Y-52888070D01*
X138862201Y-52888070D01*
X138862201Y-65568070D01*
G37*
%TD.AperFunction*%
D10*
X142449970Y-65568070D02*
X140182200Y-65568070D01*
X140182200Y-52888070D01*
X142449969Y-52888070D01*
X142449970Y-65568070D01*
%TA.AperFunction,NonConductor*%
D11*
G36*
X142449970Y-65568070D02*
G01*
X140182200Y-65568070D01*
X140182200Y-52888070D01*
X142449969Y-52888070D01*
X142449970Y-65568070D01*
G37*
%TD.AperFunction*%
D10*
X131496200Y-65568070D02*
X129739969Y-65568070D01*
X129739969Y-52888070D01*
X131496200Y-52888070D01*
X131496200Y-65568070D01*
%TA.AperFunction,NonConductor*%
D11*
G36*
X131496200Y-65568070D02*
G01*
X129739969Y-65568070D01*
X129739969Y-52888070D01*
X131496200Y-52888070D01*
X131496200Y-65568070D01*
G37*
%TD.AperFunction*%
D10*
X138862201Y-51568070D02*
X132816200Y-51568070D01*
X132816200Y-50190000D01*
X138862201Y-50190000D01*
X138862201Y-51568070D01*
%TA.AperFunction,NonConductor*%
D11*
G36*
X138862201Y-51568070D02*
G01*
X132816200Y-51568070D01*
X132816200Y-50190000D01*
X138862201Y-50190000D01*
X138862201Y-51568070D01*
G37*
%TD.AperFunction*%
D10*
X188900201Y-120428419D02*
X188909751Y-120525383D01*
X188947491Y-120649793D01*
X189008776Y-120764450D01*
X189091253Y-120864948D01*
X189191751Y-120947425D01*
X189306408Y-121008710D01*
X189430818Y-121046450D01*
X189560200Y-121059193D01*
X189689583Y-121046450D01*
X189813993Y-121008710D01*
X189928650Y-120947425D01*
X190029148Y-120864948D01*
X190111625Y-120764450D01*
X190172910Y-120649793D01*
X190210650Y-120525383D01*
X190220200Y-120428419D01*
X190220200Y-113848070D01*
X196266200Y-113848070D01*
X196266200Y-120428418D01*
X196275750Y-120525382D01*
X196313490Y-120649792D01*
X196374775Y-120764449D01*
X196457252Y-120864948D01*
X196557750Y-120947425D01*
X196672407Y-121008710D01*
X196796817Y-121046450D01*
X196926200Y-121059193D01*
X197055582Y-121046450D01*
X197179992Y-121008710D01*
X197294649Y-120947425D01*
X197395148Y-120864948D01*
X197477625Y-120764450D01*
X197538910Y-120649793D01*
X197576650Y-120525383D01*
X197586200Y-120428419D01*
X197586200Y-113848070D01*
X199599969Y-113848070D01*
X199599970Y-126528070D01*
X186889969Y-126528070D01*
X186889969Y-113848070D01*
X188900201Y-113848070D01*
X188900201Y-120428419D01*
%TA.AperFunction,NonConductor*%
D11*
G36*
X188900201Y-120428419D02*
G01*
X188909751Y-120525383D01*
X188947491Y-120649793D01*
X189008776Y-120764450D01*
X189091253Y-120864948D01*
X189191751Y-120947425D01*
X189306408Y-121008710D01*
X189430818Y-121046450D01*
X189560200Y-121059193D01*
X189689583Y-121046450D01*
X189813993Y-121008710D01*
X189928650Y-120947425D01*
X190029148Y-120864948D01*
X190111625Y-120764450D01*
X190172910Y-120649793D01*
X190210650Y-120525383D01*
X190220200Y-120428419D01*
X190220200Y-113848070D01*
X196266200Y-113848070D01*
X196266200Y-120428418D01*
X196275750Y-120525382D01*
X196313490Y-120649792D01*
X196374775Y-120764449D01*
X196457252Y-120864948D01*
X196557750Y-120947425D01*
X196672407Y-121008710D01*
X196796817Y-121046450D01*
X196926200Y-121059193D01*
X197055582Y-121046450D01*
X197179992Y-121008710D01*
X197294649Y-120947425D01*
X197395148Y-120864948D01*
X197477625Y-120764450D01*
X197538910Y-120649793D01*
X197576650Y-120525383D01*
X197586200Y-120428419D01*
X197586200Y-113848070D01*
X199599969Y-113848070D01*
X199599970Y-126528070D01*
X186889969Y-126528070D01*
X186889969Y-113848070D01*
X188900201Y-113848070D01*
X188900201Y-120428419D01*
G37*
%TD.AperFunction*%
D10*
X196266200Y-112528070D02*
X190220200Y-112528070D01*
X190220200Y-107274070D01*
X196266200Y-107274070D01*
X196266200Y-112528070D01*
%TA.AperFunction,NonConductor*%
D11*
G36*
X196266200Y-112528070D02*
G01*
X190220200Y-112528070D01*
X190220200Y-107274070D01*
X196266200Y-107274070D01*
X196266200Y-112528070D01*
G37*
%TD.AperFunction*%
D10*
X188900201Y-105954070D02*
X186889969Y-105954070D01*
X186889969Y-93274070D01*
X188900201Y-93274070D01*
X188900201Y-105954070D01*
%TA.AperFunction,NonConductor*%
D11*
G36*
X188900201Y-105954070D02*
G01*
X186889969Y-105954070D01*
X186889969Y-93274070D01*
X188900201Y-93274070D01*
X188900201Y-105954070D01*
G37*
%TD.AperFunction*%
D10*
X199599970Y-105954070D02*
X197586200Y-105954070D01*
X197586200Y-93274070D01*
X199599969Y-93274070D01*
X199599970Y-105954070D01*
%TA.AperFunction,NonConductor*%
D11*
G36*
X199599970Y-105954070D02*
G01*
X197586200Y-105954070D01*
X197586200Y-93274070D01*
X199599969Y-93274070D01*
X199599970Y-105954070D01*
G37*
%TD.AperFunction*%
D10*
X196266200Y-105954070D02*
X190220200Y-105954070D01*
X190220200Y-93274070D01*
X196266200Y-93274070D01*
X196266200Y-105954070D01*
%TA.AperFunction,NonConductor*%
D11*
G36*
X196266200Y-105954070D02*
G01*
X190220200Y-105954070D01*
X190220200Y-93274070D01*
X196266200Y-93274070D01*
X196266200Y-105954070D01*
G37*
%TD.AperFunction*%
D10*
X196266200Y-91954070D02*
X190220200Y-91954070D01*
X190220200Y-88224070D01*
X196266200Y-88224070D01*
X196266200Y-91954070D01*
%TA.AperFunction,NonConductor*%
D11*
G36*
X196266200Y-91954070D02*
G01*
X190220200Y-91954070D01*
X190220200Y-88224070D01*
X196266200Y-88224070D01*
X196266200Y-91954070D01*
G37*
%TD.AperFunction*%
D10*
X199599970Y-86904070D02*
X197586200Y-86904070D01*
X197586200Y-74224070D01*
X199599969Y-74224070D01*
X199599970Y-86904070D01*
%TA.AperFunction,NonConductor*%
D11*
G36*
X199599970Y-86904070D02*
G01*
X197586200Y-86904070D01*
X197586200Y-74224070D01*
X199599969Y-74224070D01*
X199599970Y-86904070D01*
G37*
%TD.AperFunction*%
D10*
X196266200Y-86904070D02*
X190220200Y-86904070D01*
X190220200Y-74224070D01*
X196266201Y-74224070D01*
X196266200Y-86904070D01*
%TA.AperFunction,NonConductor*%
D11*
G36*
X196266200Y-86904070D02*
G01*
X190220200Y-86904070D01*
X190220200Y-74224070D01*
X196266201Y-74224070D01*
X196266200Y-86904070D01*
G37*
%TD.AperFunction*%
D10*
X188900201Y-86904070D02*
X186889969Y-86904070D01*
X186889969Y-74224070D01*
X188900200Y-74224070D01*
X188900201Y-86904070D01*
%TA.AperFunction,NonConductor*%
D11*
G36*
X188900201Y-86904070D02*
G01*
X186889969Y-86904070D01*
X186889969Y-74224070D01*
X188900200Y-74224070D01*
X188900201Y-86904070D01*
G37*
%TD.AperFunction*%
D10*
X196266201Y-72904070D02*
X190220200Y-72904070D01*
X190220200Y-69174070D01*
X196266201Y-69174070D01*
X196266201Y-72904070D01*
%TA.AperFunction,NonConductor*%
D11*
G36*
X196266201Y-72904070D02*
G01*
X190220200Y-72904070D01*
X190220200Y-69174070D01*
X196266201Y-69174070D01*
X196266201Y-72904070D01*
G37*
%TD.AperFunction*%
D10*
X196266201Y-67854070D02*
X190220200Y-67854070D01*
X190220200Y-55174070D01*
X196266201Y-55174070D01*
X196266201Y-67854070D01*
%TA.AperFunction,NonConductor*%
D11*
G36*
X196266201Y-67854070D02*
G01*
X190220200Y-67854070D01*
X190220200Y-55174070D01*
X196266201Y-55174070D01*
X196266201Y-67854070D01*
G37*
%TD.AperFunction*%
D10*
X199599970Y-67854070D02*
X197586200Y-67854070D01*
X197586200Y-55174070D01*
X199599969Y-55174070D01*
X199599970Y-67854070D01*
%TA.AperFunction,NonConductor*%
D11*
G36*
X199599970Y-67854070D02*
G01*
X197586200Y-67854070D01*
X197586200Y-55174070D01*
X199599969Y-55174070D01*
X199599970Y-67854070D01*
G37*
%TD.AperFunction*%
D10*
X188900200Y-67854070D02*
X186889969Y-67854070D01*
X186889969Y-55174070D01*
X188900200Y-55174070D01*
X188900200Y-67854070D01*
%TA.AperFunction,NonConductor*%
D11*
G36*
X188900200Y-67854070D02*
G01*
X186889969Y-67854070D01*
X186889969Y-55174070D01*
X188900200Y-55174070D01*
X188900200Y-67854070D01*
G37*
%TD.AperFunction*%
D10*
X196266201Y-53854070D02*
X190220200Y-53854070D01*
X190220200Y-52730000D01*
X196266201Y-52730000D01*
X196266201Y-53854070D01*
%TA.AperFunction,NonConductor*%
D11*
G36*
X196266201Y-53854070D02*
G01*
X190220200Y-53854070D01*
X190220200Y-52730000D01*
X196266201Y-52730000D01*
X196266201Y-53854070D01*
G37*
%TD.AperFunction*%
D10*
X169850201Y-117888419D02*
X169859751Y-117985383D01*
X169897491Y-118109793D01*
X169958776Y-118224450D01*
X170041253Y-118324948D01*
X170141751Y-118407425D01*
X170256408Y-118468710D01*
X170380818Y-118506450D01*
X170510200Y-118519193D01*
X170639583Y-118506450D01*
X170763993Y-118468710D01*
X170878650Y-118407425D01*
X170979148Y-118324948D01*
X171061625Y-118224450D01*
X171122910Y-118109793D01*
X171160650Y-117985383D01*
X171170200Y-117888419D01*
X171170200Y-113848070D01*
X177216200Y-113848070D01*
X177216200Y-117888418D01*
X177225750Y-117985382D01*
X177263490Y-118109792D01*
X177324775Y-118224449D01*
X177407252Y-118324948D01*
X177507750Y-118407425D01*
X177622407Y-118468710D01*
X177746817Y-118506450D01*
X177876200Y-118519193D01*
X178005582Y-118506450D01*
X178129992Y-118468710D01*
X178244649Y-118407425D01*
X178345148Y-118324948D01*
X178427625Y-118224450D01*
X178488910Y-118109793D01*
X178526650Y-117985383D01*
X178536200Y-117888419D01*
X178536200Y-113848070D01*
X180549969Y-113848070D01*
X180549970Y-126528070D01*
X167839969Y-126528070D01*
X167839969Y-113848070D01*
X169850201Y-113848070D01*
X169850201Y-117888419D01*
%TA.AperFunction,NonConductor*%
D11*
G36*
X169850201Y-117888419D02*
G01*
X169859751Y-117985383D01*
X169897491Y-118109793D01*
X169958776Y-118224450D01*
X170041253Y-118324948D01*
X170141751Y-118407425D01*
X170256408Y-118468710D01*
X170380818Y-118506450D01*
X170510200Y-118519193D01*
X170639583Y-118506450D01*
X170763993Y-118468710D01*
X170878650Y-118407425D01*
X170979148Y-118324948D01*
X171061625Y-118224450D01*
X171122910Y-118109793D01*
X171160650Y-117985383D01*
X171170200Y-117888419D01*
X171170200Y-113848070D01*
X177216200Y-113848070D01*
X177216200Y-117888418D01*
X177225750Y-117985382D01*
X177263490Y-118109792D01*
X177324775Y-118224449D01*
X177407252Y-118324948D01*
X177507750Y-118407425D01*
X177622407Y-118468710D01*
X177746817Y-118506450D01*
X177876200Y-118519193D01*
X178005582Y-118506450D01*
X178129992Y-118468710D01*
X178244649Y-118407425D01*
X178345148Y-118324948D01*
X178427625Y-118224450D01*
X178488910Y-118109793D01*
X178526650Y-117985383D01*
X178536200Y-117888419D01*
X178536200Y-113848070D01*
X180549969Y-113848070D01*
X180549970Y-126528070D01*
X167839969Y-126528070D01*
X167839969Y-113848070D01*
X169850201Y-113848070D01*
X169850201Y-117888419D01*
G37*
%TD.AperFunction*%
D10*
X177216200Y-112528070D02*
X171170200Y-112528070D01*
X171170200Y-104734070D01*
X177216200Y-104734070D01*
X177216200Y-112528070D01*
%TA.AperFunction,NonConductor*%
D11*
G36*
X177216200Y-112528070D02*
G01*
X171170200Y-112528070D01*
X171170200Y-104734070D01*
X177216200Y-104734070D01*
X177216200Y-112528070D01*
G37*
%TD.AperFunction*%
D10*
X169850201Y-103414070D02*
X167839969Y-103414070D01*
X167839969Y-90734070D01*
X169850201Y-90734070D01*
X169850201Y-103414070D01*
%TA.AperFunction,NonConductor*%
D11*
G36*
X169850201Y-103414070D02*
G01*
X167839969Y-103414070D01*
X167839969Y-90734070D01*
X169850201Y-90734070D01*
X169850201Y-103414070D01*
G37*
%TD.AperFunction*%
D10*
X177216200Y-103414070D02*
X171170200Y-103414070D01*
X171170200Y-90734070D01*
X177216200Y-90734070D01*
X177216200Y-103414070D01*
%TA.AperFunction,NonConductor*%
D11*
G36*
X177216200Y-103414070D02*
G01*
X171170200Y-103414070D01*
X171170200Y-90734070D01*
X177216200Y-90734070D01*
X177216200Y-103414070D01*
G37*
%TD.AperFunction*%
D10*
X180549970Y-103414070D02*
X178536200Y-103414070D01*
X178536200Y-90734070D01*
X180549969Y-90734070D01*
X180549970Y-103414070D01*
%TA.AperFunction,NonConductor*%
D11*
G36*
X180549970Y-103414070D02*
G01*
X178536200Y-103414070D01*
X178536200Y-90734070D01*
X180549969Y-90734070D01*
X180549970Y-103414070D01*
G37*
%TD.AperFunction*%
D10*
X177216200Y-89414070D02*
X171170200Y-89414070D01*
X171170200Y-85684070D01*
X177216200Y-85684070D01*
X177216200Y-89414070D01*
%TA.AperFunction,NonConductor*%
D11*
G36*
X177216200Y-89414070D02*
G01*
X171170200Y-89414070D01*
X171170200Y-85684070D01*
X177216200Y-85684070D01*
X177216200Y-89414070D01*
G37*
%TD.AperFunction*%
D10*
X177216200Y-84364070D02*
X171170200Y-84364070D01*
X171170200Y-71684070D01*
X177216201Y-71684070D01*
X177216200Y-84364070D01*
%TA.AperFunction,NonConductor*%
D11*
G36*
X177216200Y-84364070D02*
G01*
X171170200Y-84364070D01*
X171170200Y-71684070D01*
X177216201Y-71684070D01*
X177216200Y-84364070D01*
G37*
%TD.AperFunction*%
D10*
X169850201Y-84364070D02*
X167839969Y-84364070D01*
X167839969Y-71684070D01*
X169850200Y-71684070D01*
X169850201Y-84364070D01*
%TA.AperFunction,NonConductor*%
D11*
G36*
X169850201Y-84364070D02*
G01*
X167839969Y-84364070D01*
X167839969Y-71684070D01*
X169850200Y-71684070D01*
X169850201Y-84364070D01*
G37*
%TD.AperFunction*%
D10*
X180549970Y-84364070D02*
X178536200Y-84364070D01*
X178536200Y-71684070D01*
X180549969Y-71684070D01*
X180549970Y-84364070D01*
%TA.AperFunction,NonConductor*%
D11*
G36*
X180549970Y-84364070D02*
G01*
X178536200Y-84364070D01*
X178536200Y-71684070D01*
X180549969Y-71684070D01*
X180549970Y-84364070D01*
G37*
%TD.AperFunction*%
D10*
X177216201Y-70364070D02*
X171170200Y-70364070D01*
X171170200Y-66634070D01*
X177216201Y-66634070D01*
X177216201Y-70364070D01*
%TA.AperFunction,NonConductor*%
D11*
G36*
X177216201Y-70364070D02*
G01*
X171170200Y-70364070D01*
X171170200Y-66634070D01*
X177216201Y-66634070D01*
X177216201Y-70364070D01*
G37*
%TD.AperFunction*%
D10*
X180549970Y-65314070D02*
X178536200Y-65314070D01*
X178536200Y-52634070D01*
X180549969Y-52634070D01*
X180549970Y-65314070D01*
%TA.AperFunction,NonConductor*%
D11*
G36*
X180549970Y-65314070D02*
G01*
X178536200Y-65314070D01*
X178536200Y-52634070D01*
X180549969Y-52634070D01*
X180549970Y-65314070D01*
G37*
%TD.AperFunction*%
D10*
X177216201Y-65314070D02*
X171170200Y-65314070D01*
X171170200Y-52634070D01*
X177216201Y-52634070D01*
X177216201Y-65314070D01*
%TA.AperFunction,NonConductor*%
D11*
G36*
X177216201Y-65314070D02*
G01*
X171170200Y-65314070D01*
X171170200Y-52634070D01*
X177216201Y-52634070D01*
X177216201Y-65314070D01*
G37*
%TD.AperFunction*%
D10*
X169850200Y-65314070D02*
X167839969Y-65314070D01*
X167839969Y-52634070D01*
X169850200Y-52634070D01*
X169850200Y-65314070D01*
%TA.AperFunction,NonConductor*%
D11*
G36*
X169850200Y-65314070D02*
G01*
X167839969Y-65314070D01*
X167839969Y-52634070D01*
X169850200Y-52634070D01*
X169850200Y-65314070D01*
G37*
%TD.AperFunction*%
D10*
X177216201Y-51314070D02*
X171170200Y-51314070D01*
X171170200Y-50190000D01*
X177216201Y-50190000D01*
X177216201Y-51314070D01*
%TA.AperFunction,NonConductor*%
D11*
G36*
X177216201Y-51314070D02*
G01*
X171170200Y-51314070D01*
X171170200Y-50190000D01*
X177216201Y-50190000D01*
X177216201Y-51314070D01*
G37*
%TD.AperFunction*%
D10*
X150800201Y-117126419D02*
X150809751Y-117223383D01*
X150847491Y-117347793D01*
X150908776Y-117462450D01*
X150991253Y-117562948D01*
X151091751Y-117645425D01*
X151206408Y-117706710D01*
X151330818Y-117744450D01*
X151460200Y-117757193D01*
X151589583Y-117744450D01*
X151713993Y-117706710D01*
X151828650Y-117645425D01*
X151929148Y-117562948D01*
X152011625Y-117462450D01*
X152072910Y-117347793D01*
X152110650Y-117223383D01*
X152120200Y-117126419D01*
X152120200Y-113848070D01*
X158166200Y-113848070D01*
X158166200Y-117126418D01*
X158175750Y-117223382D01*
X158213490Y-117347792D01*
X158274775Y-117462449D01*
X158357252Y-117562948D01*
X158457750Y-117645425D01*
X158572407Y-117706710D01*
X158696817Y-117744450D01*
X158826200Y-117757193D01*
X158955582Y-117744450D01*
X159079992Y-117706710D01*
X159194649Y-117645425D01*
X159295148Y-117562948D01*
X159377625Y-117462450D01*
X159438910Y-117347793D01*
X159476650Y-117223383D01*
X159486200Y-117126419D01*
X159486200Y-113848070D01*
X161499969Y-113848070D01*
X161499970Y-126528070D01*
X148789969Y-126528070D01*
X148789969Y-113848070D01*
X150800201Y-113848070D01*
X150800201Y-117126419D01*
%TA.AperFunction,NonConductor*%
D11*
G36*
X150800201Y-117126419D02*
G01*
X150809751Y-117223383D01*
X150847491Y-117347793D01*
X150908776Y-117462450D01*
X150991253Y-117562948D01*
X151091751Y-117645425D01*
X151206408Y-117706710D01*
X151330818Y-117744450D01*
X151460200Y-117757193D01*
X151589583Y-117744450D01*
X151713993Y-117706710D01*
X151828650Y-117645425D01*
X151929148Y-117562948D01*
X152011625Y-117462450D01*
X152072910Y-117347793D01*
X152110650Y-117223383D01*
X152120200Y-117126419D01*
X152120200Y-113848070D01*
X158166200Y-113848070D01*
X158166200Y-117126418D01*
X158175750Y-117223382D01*
X158213490Y-117347792D01*
X158274775Y-117462449D01*
X158357252Y-117562948D01*
X158457750Y-117645425D01*
X158572407Y-117706710D01*
X158696817Y-117744450D01*
X158826200Y-117757193D01*
X158955582Y-117744450D01*
X159079992Y-117706710D01*
X159194649Y-117645425D01*
X159295148Y-117562948D01*
X159377625Y-117462450D01*
X159438910Y-117347793D01*
X159476650Y-117223383D01*
X159486200Y-117126419D01*
X159486200Y-113848070D01*
X161499969Y-113848070D01*
X161499970Y-126528070D01*
X148789969Y-126528070D01*
X148789969Y-113848070D01*
X150800201Y-113848070D01*
X150800201Y-117126419D01*
G37*
%TD.AperFunction*%
D10*
X158166200Y-112528070D02*
X152120200Y-112528070D01*
X152120200Y-103464070D01*
X158166200Y-103464070D01*
X158166200Y-112528070D01*
%TA.AperFunction,NonConductor*%
D11*
G36*
X158166200Y-112528070D02*
G01*
X152120200Y-112528070D01*
X152120200Y-103464070D01*
X158166200Y-103464070D01*
X158166200Y-112528070D01*
G37*
%TD.AperFunction*%
D10*
X158166200Y-102144070D02*
X152120200Y-102144070D01*
X152120200Y-89464070D01*
X158166200Y-89464070D01*
X158166200Y-102144070D01*
%TA.AperFunction,NonConductor*%
D11*
G36*
X158166200Y-102144070D02*
G01*
X152120200Y-102144070D01*
X152120200Y-89464070D01*
X158166200Y-89464070D01*
X158166200Y-102144070D01*
G37*
%TD.AperFunction*%
D10*
X161499970Y-102144070D02*
X159486200Y-102144070D01*
X159486200Y-89464070D01*
X161499969Y-89464070D01*
X161499970Y-102144070D01*
%TA.AperFunction,NonConductor*%
D11*
G36*
X161499970Y-102144070D02*
G01*
X159486200Y-102144070D01*
X159486200Y-89464070D01*
X161499969Y-89464070D01*
X161499970Y-102144070D01*
G37*
%TD.AperFunction*%
D10*
X150800201Y-102144070D02*
X148789969Y-102144070D01*
X148789969Y-89464070D01*
X150800201Y-89464070D01*
X150800201Y-102144070D01*
%TA.AperFunction,NonConductor*%
D11*
G36*
X150800201Y-102144070D02*
G01*
X148789969Y-102144070D01*
X148789969Y-89464070D01*
X150800201Y-89464070D01*
X150800201Y-102144070D01*
G37*
%TD.AperFunction*%
D10*
X158166200Y-88144070D02*
X152120200Y-88144070D01*
X152120200Y-84414070D01*
X158166200Y-84414070D01*
X158166200Y-88144070D01*
%TA.AperFunction,NonConductor*%
D11*
G36*
X158166200Y-88144070D02*
G01*
X152120200Y-88144070D01*
X152120200Y-84414070D01*
X158166200Y-84414070D01*
X158166200Y-88144070D01*
G37*
%TD.AperFunction*%
D10*
X150800201Y-83094070D02*
X148789969Y-83094070D01*
X148789969Y-70414070D01*
X150800200Y-70414070D01*
X150800201Y-83094070D01*
%TA.AperFunction,NonConductor*%
D11*
G36*
X150800201Y-83094070D02*
G01*
X148789969Y-83094070D01*
X148789969Y-70414070D01*
X150800200Y-70414070D01*
X150800201Y-83094070D01*
G37*
%TD.AperFunction*%
D10*
X158166200Y-83094070D02*
X152120200Y-83094070D01*
X152120200Y-70414070D01*
X158166201Y-70414070D01*
X158166200Y-83094070D01*
%TA.AperFunction,NonConductor*%
D11*
G36*
X158166200Y-83094070D02*
G01*
X152120200Y-83094070D01*
X152120200Y-70414070D01*
X158166201Y-70414070D01*
X158166200Y-83094070D01*
G37*
%TD.AperFunction*%
D10*
X161499970Y-83094070D02*
X159486200Y-83094070D01*
X159486200Y-70414070D01*
X161499969Y-70414070D01*
X161499970Y-83094070D01*
%TA.AperFunction,NonConductor*%
D11*
G36*
X161499970Y-83094070D02*
G01*
X159486200Y-83094070D01*
X159486200Y-70414070D01*
X161499969Y-70414070D01*
X161499970Y-83094070D01*
G37*
%TD.AperFunction*%
D10*
X158166201Y-69094070D02*
X152120200Y-69094070D01*
X152120200Y-65364070D01*
X158166201Y-65364070D01*
X158166201Y-69094070D01*
%TA.AperFunction,NonConductor*%
D11*
G36*
X158166201Y-69094070D02*
G01*
X152120200Y-69094070D01*
X152120200Y-65364070D01*
X158166201Y-65364070D01*
X158166201Y-69094070D01*
G37*
%TD.AperFunction*%
D10*
X150800200Y-64044070D02*
X148789969Y-64044070D01*
X148789969Y-51364070D01*
X150800200Y-51364070D01*
X150800200Y-64044070D01*
%TA.AperFunction,NonConductor*%
D11*
G36*
X150800200Y-64044070D02*
G01*
X148789969Y-64044070D01*
X148789969Y-51364070D01*
X150800200Y-51364070D01*
X150800200Y-64044070D01*
G37*
%TD.AperFunction*%
D10*
X158166201Y-64044070D02*
X152120200Y-64044070D01*
X152120200Y-51364070D01*
X158166201Y-51364070D01*
X158166201Y-64044070D01*
%TA.AperFunction,NonConductor*%
D11*
G36*
X158166201Y-64044070D02*
G01*
X152120200Y-64044070D01*
X152120200Y-51364070D01*
X158166201Y-51364070D01*
X158166201Y-64044070D01*
G37*
%TD.AperFunction*%
D10*
X161499970Y-64044070D02*
X159486200Y-64044070D01*
X159486200Y-51364070D01*
X161499969Y-51364070D01*
X161499970Y-64044070D01*
%TA.AperFunction,NonConductor*%
D11*
G36*
X161499970Y-64044070D02*
G01*
X159486200Y-64044070D01*
X159486200Y-51364070D01*
X161499969Y-51364070D01*
X161499970Y-64044070D01*
G37*
%TD.AperFunction*%
D10*
X158166201Y-50044070D02*
X152120200Y-50044070D01*
X152120200Y-49428000D01*
X158166201Y-49428000D01*
X158166201Y-50044070D01*
%TA.AperFunction,NonConductor*%
D11*
G36*
X158166201Y-50044070D02*
G01*
X152120200Y-50044070D01*
X152120200Y-49428000D01*
X158166201Y-49428000D01*
X158166201Y-50044070D01*
G37*
%TD.AperFunction*%
D10*
X93396201Y-121952419D02*
X93405751Y-122049383D01*
X93443491Y-122173793D01*
X93504776Y-122288450D01*
X93587253Y-122388948D01*
X93687751Y-122471425D01*
X93802408Y-122532710D01*
X93926818Y-122570450D01*
X94056200Y-122583193D01*
X94185583Y-122570450D01*
X94309993Y-122532710D01*
X94424650Y-122471425D01*
X94525148Y-122388948D01*
X94607625Y-122288450D01*
X94668910Y-122173793D01*
X94706650Y-122049383D01*
X94716200Y-121952419D01*
X94716200Y-113797270D01*
X100762200Y-113797270D01*
X100762200Y-121952418D01*
X100771750Y-122049382D01*
X100809490Y-122173792D01*
X100870775Y-122288449D01*
X100953252Y-122388948D01*
X101053750Y-122471425D01*
X101168407Y-122532710D01*
X101292817Y-122570450D01*
X101422200Y-122583193D01*
X101551582Y-122570450D01*
X101675992Y-122532710D01*
X101790649Y-122471425D01*
X101891148Y-122388948D01*
X101973625Y-122288450D01*
X102034910Y-122173793D01*
X102072650Y-122049383D01*
X102082200Y-121952419D01*
X102082200Y-113797270D01*
X104349969Y-113797270D01*
X104349970Y-126477270D01*
X91639969Y-126477270D01*
X91639969Y-113797270D01*
X93396201Y-113797270D01*
X93396201Y-121952419D01*
%TA.AperFunction,NonConductor*%
D11*
G36*
X93396201Y-121952419D02*
G01*
X93405751Y-122049383D01*
X93443491Y-122173793D01*
X93504776Y-122288450D01*
X93587253Y-122388948D01*
X93687751Y-122471425D01*
X93802408Y-122532710D01*
X93926818Y-122570450D01*
X94056200Y-122583193D01*
X94185583Y-122570450D01*
X94309993Y-122532710D01*
X94424650Y-122471425D01*
X94525148Y-122388948D01*
X94607625Y-122288450D01*
X94668910Y-122173793D01*
X94706650Y-122049383D01*
X94716200Y-121952419D01*
X94716200Y-113797270D01*
X100762200Y-113797270D01*
X100762200Y-121952418D01*
X100771750Y-122049382D01*
X100809490Y-122173792D01*
X100870775Y-122288449D01*
X100953252Y-122388948D01*
X101053750Y-122471425D01*
X101168407Y-122532710D01*
X101292817Y-122570450D01*
X101422200Y-122583193D01*
X101551582Y-122570450D01*
X101675992Y-122532710D01*
X101790649Y-122471425D01*
X101891148Y-122388948D01*
X101973625Y-122288450D01*
X102034910Y-122173793D01*
X102072650Y-122049383D01*
X102082200Y-121952419D01*
X102082200Y-113797270D01*
X104349969Y-113797270D01*
X104349970Y-126477270D01*
X91639969Y-126477270D01*
X91639969Y-113797270D01*
X93396201Y-113797270D01*
X93396201Y-121952419D01*
G37*
%TD.AperFunction*%
D10*
X100762200Y-112477270D02*
X94716200Y-112477270D01*
X94716200Y-108798070D01*
X100762200Y-108798070D01*
X100762200Y-112477270D01*
%TA.AperFunction,NonConductor*%
D11*
G36*
X100762200Y-112477270D02*
G01*
X94716200Y-112477270D01*
X94716200Y-108798070D01*
X100762200Y-108798070D01*
X100762200Y-112477270D01*
G37*
%TD.AperFunction*%
D10*
X93396201Y-107478070D02*
X91642800Y-107478070D01*
X91642800Y-94767000D01*
X93396201Y-94767000D01*
X93396201Y-107478070D01*
%TA.AperFunction,NonConductor*%
D11*
G36*
X93396201Y-107478070D02*
G01*
X91642800Y-107478070D01*
X91642800Y-94767000D01*
X93396201Y-94767000D01*
X93396201Y-107478070D01*
G37*
%TD.AperFunction*%
D10*
X100762200Y-107478070D02*
X94716200Y-107478070D01*
X94716200Y-94767000D01*
X100762200Y-94767000D01*
X100762200Y-107478070D01*
%TA.AperFunction,NonConductor*%
D11*
G36*
X100762200Y-107478070D02*
G01*
X94716200Y-107478070D01*
X94716200Y-94767000D01*
X100762200Y-94767000D01*
X100762200Y-107478070D01*
G37*
%TD.AperFunction*%
D10*
X104349970Y-107478070D02*
X102082200Y-107478070D01*
X102082200Y-94767000D01*
X104349969Y-94767000D01*
X104349970Y-107478070D01*
%TA.AperFunction,NonConductor*%
D11*
G36*
X104349970Y-107478070D02*
G01*
X102082200Y-107478070D01*
X102082200Y-94767000D01*
X104349969Y-94767000D01*
X104349970Y-107478070D01*
G37*
%TD.AperFunction*%
D10*
X100762200Y-93447000D02*
X94716200Y-93447000D01*
X94716200Y-89748070D01*
X100762200Y-89748070D01*
X100762200Y-93447000D01*
%TA.AperFunction,NonConductor*%
D11*
G36*
X100762200Y-93447000D02*
G01*
X94716200Y-93447000D01*
X94716200Y-89748070D01*
X100762200Y-89748070D01*
X100762200Y-93447000D01*
G37*
%TD.AperFunction*%
D10*
X104349970Y-88428070D02*
X102082200Y-88428070D01*
X102082200Y-75717000D01*
X104349969Y-75717000D01*
X104349970Y-88428070D01*
%TA.AperFunction,NonConductor*%
D11*
G36*
X104349970Y-88428070D02*
G01*
X102082200Y-88428070D01*
X102082200Y-75717000D01*
X104349969Y-75717000D01*
X104349970Y-88428070D01*
G37*
%TD.AperFunction*%
D10*
X100762200Y-88428070D02*
X94716200Y-88428070D01*
X94716200Y-75717000D01*
X100762201Y-75717000D01*
X100762200Y-88428070D01*
%TA.AperFunction,NonConductor*%
D11*
G36*
X100762200Y-88428070D02*
G01*
X94716200Y-88428070D01*
X94716200Y-75717000D01*
X100762201Y-75717000D01*
X100762200Y-88428070D01*
G37*
%TD.AperFunction*%
D10*
X93396201Y-88428070D02*
X91642800Y-88428070D01*
X91642800Y-75717000D01*
X93396200Y-75717000D01*
X93396201Y-88428070D01*
%TA.AperFunction,NonConductor*%
D11*
G36*
X93396201Y-88428070D02*
G01*
X91642800Y-88428070D01*
X91642800Y-75717000D01*
X93396200Y-75717000D01*
X93396201Y-88428070D01*
G37*
%TD.AperFunction*%
D10*
X100762201Y-74397000D02*
X94716200Y-74397000D01*
X94716200Y-70647270D01*
X100762201Y-70647270D01*
X100762201Y-74397000D01*
%TA.AperFunction,NonConductor*%
D11*
G36*
X100762201Y-74397000D02*
G01*
X94716200Y-74397000D01*
X94716200Y-70647270D01*
X100762201Y-70647270D01*
X100762201Y-74397000D01*
G37*
%TD.AperFunction*%
D10*
X100762201Y-69327270D02*
X94716200Y-69327270D01*
X94716200Y-56647270D01*
X100762201Y-56647270D01*
X100762201Y-69327270D01*
%TA.AperFunction,NonConductor*%
D11*
G36*
X100762201Y-69327270D02*
G01*
X94716200Y-69327270D01*
X94716200Y-56647270D01*
X100762201Y-56647270D01*
X100762201Y-69327270D01*
G37*
%TD.AperFunction*%
D10*
X93396200Y-69327270D02*
X91646300Y-69327270D01*
X91646300Y-56647270D01*
X93396200Y-56647270D01*
X93396200Y-69327270D01*
%TA.AperFunction,NonConductor*%
D11*
G36*
X93396200Y-69327270D02*
G01*
X91646300Y-69327270D01*
X91646300Y-56647270D01*
X93396200Y-56647270D01*
X93396200Y-69327270D01*
G37*
%TD.AperFunction*%
D10*
X104349970Y-69327270D02*
X102082200Y-69327270D01*
X102082200Y-56647270D01*
X104349969Y-56647270D01*
X104349970Y-69327270D01*
%TA.AperFunction,NonConductor*%
D11*
G36*
X104349970Y-69327270D02*
G01*
X102082200Y-69327270D01*
X102082200Y-56647270D01*
X104349969Y-56647270D01*
X104349970Y-69327270D01*
G37*
%TD.AperFunction*%
D10*
X100762201Y-55327270D02*
X94716200Y-55327270D01*
X94716200Y-54254000D01*
X100762201Y-54254000D01*
X100762201Y-55327270D01*
%TA.AperFunction,NonConductor*%
D11*
G36*
X100762201Y-55327270D02*
G01*
X94716200Y-55327270D01*
X94716200Y-54254000D01*
X100762201Y-54254000D01*
X100762201Y-55327270D01*
G37*
%TD.AperFunction*%
D10*
X89303497Y-91368640D02*
X89365075Y-91394147D01*
X89420494Y-91431176D01*
X89467624Y-91478306D01*
X89504653Y-91533725D01*
X89530160Y-91595303D01*
X89543163Y-91660674D01*
X89543163Y-91727326D01*
X89530160Y-91792697D01*
X89504653Y-91854275D01*
X89467624Y-91909694D01*
X89420494Y-91956824D01*
X89365075Y-91993853D01*
X89303497Y-92019360D01*
X89238126Y-92032363D01*
X89171474Y-92032363D01*
X89106103Y-92019360D01*
X89044525Y-91993853D01*
X88989106Y-91956824D01*
X88941976Y-91909694D01*
X88904947Y-91854275D01*
X88879440Y-91792697D01*
X88866437Y-91727326D01*
X88866437Y-91660674D01*
X88879440Y-91595303D01*
X88904947Y-91533725D01*
X88941976Y-91478306D01*
X88989106Y-91431176D01*
X89044525Y-91394147D01*
X89106103Y-91368640D01*
X89171474Y-91355637D01*
X89238126Y-91355637D01*
X89303497Y-91368640D01*
%TA.AperFunction,NonConductor*%
D11*
G36*
X89303497Y-91368640D02*
G01*
X89365075Y-91394147D01*
X89420494Y-91431176D01*
X89467624Y-91478306D01*
X89504653Y-91533725D01*
X89530160Y-91595303D01*
X89543163Y-91660674D01*
X89543163Y-91727326D01*
X89530160Y-91792697D01*
X89504653Y-91854275D01*
X89467624Y-91909694D01*
X89420494Y-91956824D01*
X89365075Y-91993853D01*
X89303497Y-92019360D01*
X89238126Y-92032363D01*
X89171474Y-92032363D01*
X89106103Y-92019360D01*
X89044525Y-91993853D01*
X88989106Y-91956824D01*
X88941976Y-91909694D01*
X88904947Y-91854275D01*
X88879440Y-91792697D01*
X88866437Y-91727326D01*
X88866437Y-91660674D01*
X88879440Y-91595303D01*
X88904947Y-91533725D01*
X88941976Y-91478306D01*
X88989106Y-91431176D01*
X89044525Y-91394147D01*
X89106103Y-91368640D01*
X89171474Y-91355637D01*
X89238126Y-91355637D01*
X89303497Y-91368640D01*
G37*
%TD.AperFunction*%
D10*
X201825497Y-89844640D02*
X201887075Y-89870147D01*
X201942494Y-89907176D01*
X201989624Y-89954306D01*
X202026653Y-90009725D01*
X202052160Y-90071303D01*
X202065163Y-90136674D01*
X202065163Y-90203326D01*
X202052160Y-90268697D01*
X202026653Y-90330275D01*
X201989624Y-90385694D01*
X201942494Y-90432824D01*
X201887075Y-90469853D01*
X201825497Y-90495360D01*
X201760126Y-90508363D01*
X201693474Y-90508363D01*
X201628103Y-90495360D01*
X201566525Y-90469853D01*
X201511106Y-90432824D01*
X201463976Y-90385694D01*
X201426947Y-90330275D01*
X201401440Y-90268697D01*
X201388437Y-90203326D01*
X201388437Y-90136674D01*
X201401440Y-90071303D01*
X201426947Y-90009725D01*
X201463976Y-89954306D01*
X201511106Y-89907176D01*
X201566525Y-89870147D01*
X201628103Y-89844640D01*
X201693474Y-89831637D01*
X201760126Y-89831637D01*
X201825497Y-89844640D01*
%TA.AperFunction,NonConductor*%
D11*
G36*
X201825497Y-89844640D02*
G01*
X201887075Y-89870147D01*
X201942494Y-89907176D01*
X201989624Y-89954306D01*
X202026653Y-90009725D01*
X202052160Y-90071303D01*
X202065163Y-90136674D01*
X202065163Y-90203326D01*
X202052160Y-90268697D01*
X202026653Y-90330275D01*
X201989624Y-90385694D01*
X201942494Y-90432824D01*
X201887075Y-90469853D01*
X201825497Y-90495360D01*
X201760126Y-90508363D01*
X201693474Y-90508363D01*
X201628103Y-90495360D01*
X201566525Y-90469853D01*
X201511106Y-90432824D01*
X201463976Y-90385694D01*
X201426947Y-90330275D01*
X201401440Y-90268697D01*
X201388437Y-90203326D01*
X201388437Y-90136674D01*
X201401440Y-90071303D01*
X201426947Y-90009725D01*
X201463976Y-89954306D01*
X201511106Y-89907176D01*
X201566525Y-89870147D01*
X201628103Y-89844640D01*
X201693474Y-89831637D01*
X201760126Y-89831637D01*
X201825497Y-89844640D01*
G37*
%TD.AperFunction*%
D10*
X188570000Y-131933727D02*
X179984000Y-131931843D01*
X179984000Y-130454000D01*
X188570000Y-130454000D01*
X188570000Y-131933727D01*
%TA.AperFunction,NonConductor*%
D11*
G36*
X188570000Y-131933727D02*
G01*
X179984000Y-131931843D01*
X179984000Y-130454000D01*
X188570000Y-130454000D01*
X188570000Y-131933727D01*
G37*
%TD.AperFunction*%
D10*
X202079497Y-129999416D02*
X202141075Y-130024923D01*
X202196494Y-130061952D01*
X202243624Y-130109082D01*
X202280653Y-130164501D01*
X202306160Y-130226079D01*
X202319163Y-130291450D01*
X202319163Y-130358102D01*
X202306160Y-130423473D01*
X202280653Y-130485051D01*
X202243624Y-130540470D01*
X202196494Y-130587600D01*
X202141075Y-130624629D01*
X202079497Y-130650136D01*
X202014126Y-130663139D01*
X201947474Y-130663139D01*
X201882103Y-130650136D01*
X201820525Y-130624629D01*
X201765106Y-130587600D01*
X201717976Y-130540470D01*
X201680947Y-130485051D01*
X201655440Y-130423473D01*
X201642437Y-130358102D01*
X201642437Y-130291450D01*
X201655440Y-130226079D01*
X201680947Y-130164501D01*
X201717976Y-130109082D01*
X201765106Y-130061952D01*
X201820525Y-130024923D01*
X201882103Y-129999416D01*
X201947474Y-129986413D01*
X202014126Y-129986413D01*
X202079497Y-129999416D01*
%TA.AperFunction,NonConductor*%
D11*
G36*
X202079497Y-129999416D02*
G01*
X202141075Y-130024923D01*
X202196494Y-130061952D01*
X202243624Y-130109082D01*
X202280653Y-130164501D01*
X202306160Y-130226079D01*
X202319163Y-130291450D01*
X202319163Y-130358102D01*
X202306160Y-130423473D01*
X202280653Y-130485051D01*
X202243624Y-130540470D01*
X202196494Y-130587600D01*
X202141075Y-130624629D01*
X202079497Y-130650136D01*
X202014126Y-130663139D01*
X201947474Y-130663139D01*
X201882103Y-130650136D01*
X201820525Y-130624629D01*
X201765106Y-130587600D01*
X201717976Y-130540470D01*
X201680947Y-130485051D01*
X201655440Y-130423473D01*
X201642437Y-130358102D01*
X201642437Y-130291450D01*
X201655440Y-130226079D01*
X201680947Y-130164501D01*
X201717976Y-130109082D01*
X201765106Y-130061952D01*
X201820525Y-130024923D01*
X201882103Y-129999416D01*
X201947474Y-129986413D01*
X202014126Y-129986413D01*
X202079497Y-129999416D01*
G37*
%TD.AperFunction*%
D10*
X89227430Y-129974672D02*
X89289008Y-130000179D01*
X89344427Y-130037208D01*
X89391557Y-130084338D01*
X89428586Y-130139757D01*
X89454093Y-130201335D01*
X89467096Y-130266706D01*
X89467096Y-130333358D01*
X89454093Y-130398729D01*
X89428586Y-130460307D01*
X89391557Y-130515726D01*
X89344427Y-130562856D01*
X89289008Y-130599885D01*
X89227430Y-130625392D01*
X89162059Y-130638395D01*
X89095407Y-130638395D01*
X89030036Y-130625392D01*
X88968458Y-130599885D01*
X88913039Y-130562856D01*
X88865909Y-130515726D01*
X88828880Y-130460307D01*
X88803373Y-130398729D01*
X88790370Y-130333358D01*
X88790370Y-130266706D01*
X88803373Y-130201335D01*
X88828880Y-130139757D01*
X88865909Y-130084338D01*
X88913039Y-130037208D01*
X88968458Y-130000179D01*
X89030036Y-129974672D01*
X89095407Y-129961669D01*
X89162059Y-129961669D01*
X89227430Y-129974672D01*
%TA.AperFunction,NonConductor*%
D11*
G36*
X89227430Y-129974672D02*
G01*
X89289008Y-130000179D01*
X89344427Y-130037208D01*
X89391557Y-130084338D01*
X89428586Y-130139757D01*
X89454093Y-130201335D01*
X89467096Y-130266706D01*
X89467096Y-130333358D01*
X89454093Y-130398729D01*
X89428586Y-130460307D01*
X89391557Y-130515726D01*
X89344427Y-130562856D01*
X89289008Y-130599885D01*
X89227430Y-130625392D01*
X89162059Y-130638395D01*
X89095407Y-130638395D01*
X89030036Y-130625392D01*
X88968458Y-130599885D01*
X88913039Y-130562856D01*
X88865909Y-130515726D01*
X88828880Y-130460307D01*
X88803373Y-130398729D01*
X88790370Y-130333358D01*
X88790370Y-130266706D01*
X88803373Y-130201335D01*
X88828880Y-130139757D01*
X88865909Y-130084338D01*
X88913039Y-130037208D01*
X88968458Y-130000179D01*
X89030036Y-129974672D01*
X89095407Y-129961669D01*
X89162059Y-129961669D01*
X89227430Y-129974672D01*
G37*
%TD.AperFunction*%
D10*
X145726923Y-129974672D02*
X145788501Y-130000179D01*
X145843920Y-130037208D01*
X145891050Y-130084338D01*
X145928079Y-130139757D01*
X145953586Y-130201335D01*
X145966589Y-130266706D01*
X145966589Y-130333358D01*
X145953586Y-130398729D01*
X145928079Y-130460307D01*
X145891050Y-130515726D01*
X145843920Y-130562856D01*
X145788501Y-130599885D01*
X145726923Y-130625392D01*
X145661552Y-130638395D01*
X145594900Y-130638395D01*
X145529529Y-130625392D01*
X145467951Y-130599885D01*
X145412532Y-130562856D01*
X145365402Y-130515726D01*
X145328373Y-130460307D01*
X145302866Y-130398729D01*
X145289863Y-130333358D01*
X145289863Y-130266706D01*
X145302866Y-130201335D01*
X145328373Y-130139757D01*
X145365402Y-130084338D01*
X145412532Y-130037208D01*
X145467951Y-130000179D01*
X145529529Y-129974672D01*
X145594900Y-129961669D01*
X145661552Y-129961669D01*
X145726923Y-129974672D01*
%TA.AperFunction,NonConductor*%
D11*
G36*
X145726923Y-129974672D02*
G01*
X145788501Y-130000179D01*
X145843920Y-130037208D01*
X145891050Y-130084338D01*
X145928079Y-130139757D01*
X145953586Y-130201335D01*
X145966589Y-130266706D01*
X145966589Y-130333358D01*
X145953586Y-130398729D01*
X145928079Y-130460307D01*
X145891050Y-130515726D01*
X145843920Y-130562856D01*
X145788501Y-130599885D01*
X145726923Y-130625392D01*
X145661552Y-130638395D01*
X145594900Y-130638395D01*
X145529529Y-130625392D01*
X145467951Y-130599885D01*
X145412532Y-130562856D01*
X145365402Y-130515726D01*
X145328373Y-130460307D01*
X145302866Y-130398729D01*
X145289863Y-130333358D01*
X145289863Y-130266706D01*
X145302866Y-130201335D01*
X145328373Y-130139757D01*
X145365402Y-130084338D01*
X145412532Y-130037208D01*
X145467951Y-130000179D01*
X145529529Y-129974672D01*
X145594900Y-129961669D01*
X145661552Y-129961669D01*
X145726923Y-129974672D01*
G37*
%TD.AperFunction*%
D10*
X112446201Y-119666419D02*
X112455751Y-119763383D01*
X112493491Y-119887793D01*
X112554776Y-120002450D01*
X112637253Y-120102948D01*
X112737751Y-120185425D01*
X112852408Y-120246710D01*
X112976818Y-120284450D01*
X113106200Y-120297193D01*
X113235583Y-120284450D01*
X113359993Y-120246710D01*
X113474650Y-120185425D01*
X113575148Y-120102948D01*
X113657625Y-120002450D01*
X113718910Y-119887793D01*
X113756650Y-119763383D01*
X113766200Y-119666419D01*
X113766200Y-113848070D01*
X119812200Y-113848070D01*
X119812200Y-119666418D01*
X119821750Y-119763382D01*
X119859490Y-119887792D01*
X119920775Y-120002449D01*
X120003252Y-120102948D01*
X120103750Y-120185425D01*
X120218407Y-120246710D01*
X120342817Y-120284450D01*
X120472200Y-120297193D01*
X120601582Y-120284450D01*
X120725992Y-120246710D01*
X120840649Y-120185425D01*
X120941148Y-120102948D01*
X121023625Y-120002450D01*
X121084910Y-119887793D01*
X121122650Y-119763383D01*
X121132200Y-119666419D01*
X121132200Y-113848070D01*
X123399969Y-113848070D01*
X123399970Y-126528070D01*
X110689969Y-126528070D01*
X110689969Y-113848070D01*
X112446201Y-113848070D01*
X112446201Y-119666419D01*
%TA.AperFunction,NonConductor*%
D11*
G36*
X112446201Y-119666419D02*
G01*
X112455751Y-119763383D01*
X112493491Y-119887793D01*
X112554776Y-120002450D01*
X112637253Y-120102948D01*
X112737751Y-120185425D01*
X112852408Y-120246710D01*
X112976818Y-120284450D01*
X113106200Y-120297193D01*
X113235583Y-120284450D01*
X113359993Y-120246710D01*
X113474650Y-120185425D01*
X113575148Y-120102948D01*
X113657625Y-120002450D01*
X113718910Y-119887793D01*
X113756650Y-119763383D01*
X113766200Y-119666419D01*
X113766200Y-113848070D01*
X119812200Y-113848070D01*
X119812200Y-119666418D01*
X119821750Y-119763382D01*
X119859490Y-119887792D01*
X119920775Y-120002449D01*
X120003252Y-120102948D01*
X120103750Y-120185425D01*
X120218407Y-120246710D01*
X120342817Y-120284450D01*
X120472200Y-120297193D01*
X120601582Y-120284450D01*
X120725992Y-120246710D01*
X120840649Y-120185425D01*
X120941148Y-120102948D01*
X121023625Y-120002450D01*
X121084910Y-119887793D01*
X121122650Y-119763383D01*
X121132200Y-119666419D01*
X121132200Y-113848070D01*
X123399969Y-113848070D01*
X123399970Y-126528070D01*
X110689969Y-126528070D01*
X110689969Y-113848070D01*
X112446201Y-113848070D01*
X112446201Y-119666419D01*
G37*
%TD.AperFunction*%
D10*
X119812200Y-112528070D02*
X113766200Y-112528070D01*
X113766200Y-106207270D01*
X119812200Y-106207270D01*
X119812200Y-112528070D01*
%TA.AperFunction,NonConductor*%
D11*
G36*
X119812200Y-112528070D02*
G01*
X113766200Y-112528070D01*
X113766200Y-106207270D01*
X119812200Y-106207270D01*
X119812200Y-112528070D01*
G37*
%TD.AperFunction*%
D10*
X112446201Y-104887270D02*
X110689969Y-104887270D01*
X110689969Y-92207270D01*
X112446201Y-92207270D01*
X112446201Y-104887270D01*
%TA.AperFunction,NonConductor*%
D11*
G36*
X112446201Y-104887270D02*
G01*
X110689969Y-104887270D01*
X110689969Y-92207270D01*
X112446201Y-92207270D01*
X112446201Y-104887270D01*
G37*
%TD.AperFunction*%
D10*
X119812200Y-104887270D02*
X113766200Y-104887270D01*
X113766200Y-92207270D01*
X119812200Y-92207270D01*
X119812200Y-104887270D01*
%TA.AperFunction,NonConductor*%
D11*
G36*
X119812200Y-104887270D02*
G01*
X113766200Y-104887270D01*
X113766200Y-92207270D01*
X119812200Y-92207270D01*
X119812200Y-104887270D01*
G37*
%TD.AperFunction*%
D10*
X123399970Y-104887270D02*
X121132200Y-104887270D01*
X121132200Y-92207270D01*
X123399969Y-92207270D01*
X123399970Y-104887270D01*
%TA.AperFunction,NonConductor*%
D11*
G36*
X123399970Y-104887270D02*
G01*
X121132200Y-104887270D01*
X121132200Y-92207270D01*
X123399969Y-92207270D01*
X123399970Y-104887270D01*
G37*
%TD.AperFunction*%
D10*
X119812200Y-90887270D02*
X113766200Y-90887270D01*
X113766200Y-87157270D01*
X119812200Y-87157270D01*
X119812200Y-90887270D01*
%TA.AperFunction,NonConductor*%
D11*
G36*
X119812200Y-90887270D02*
G01*
X113766200Y-90887270D01*
X113766200Y-87157270D01*
X119812200Y-87157270D01*
X119812200Y-90887270D01*
G37*
%TD.AperFunction*%
D10*
X111861865Y-80480394D02*
X111876794Y-80500180D01*
X111889796Y-80521286D01*
X111929083Y-80569482D01*
X112446200Y-81146123D01*
X112446201Y-85837270D01*
X110689969Y-85837270D01*
X110689969Y-79908000D01*
X111501619Y-79908000D01*
X111861865Y-80480394D01*
%TA.AperFunction,NonConductor*%
D11*
G36*
X111861865Y-80480394D02*
G01*
X111876794Y-80500180D01*
X111889796Y-80521286D01*
X111929083Y-80569482D01*
X112446200Y-81146123D01*
X112446201Y-85837270D01*
X110689969Y-85837270D01*
X110689969Y-79908000D01*
X111501619Y-79908000D01*
X111861865Y-80480394D01*
G37*
%TD.AperFunction*%
D10*
X114339320Y-82480844D02*
X114361988Y-82490873D01*
X114383614Y-82502991D01*
X114441381Y-82525997D01*
X115349369Y-82838909D01*
X115373405Y-82844975D01*
X115396761Y-82853276D01*
X115457579Y-82866220D01*
X116405307Y-83021672D01*
X116430025Y-83023602D01*
X116454442Y-83027848D01*
X116516571Y-83030360D01*
X117476942Y-83023908D01*
X117501624Y-83021646D01*
X117526415Y-83021718D01*
X117588080Y-83013725D01*
X118533634Y-82845552D01*
X118557580Y-82839165D01*
X118582030Y-82835058D01*
X118641466Y-82816790D01*
X119545167Y-82491706D01*
X119567700Y-82481373D01*
X119591103Y-82473207D01*
X119646612Y-82445186D01*
X119812201Y-82351558D01*
X119812200Y-85837270D01*
X113766200Y-85837270D01*
X113766200Y-82166874D01*
X114339320Y-82480844D01*
%TA.AperFunction,NonConductor*%
D11*
G36*
X114339320Y-82480844D02*
G01*
X114361988Y-82490873D01*
X114383614Y-82502991D01*
X114441381Y-82525997D01*
X115349369Y-82838909D01*
X115373405Y-82844975D01*
X115396761Y-82853276D01*
X115457579Y-82866220D01*
X116405307Y-83021672D01*
X116430025Y-83023602D01*
X116454442Y-83027848D01*
X116516571Y-83030360D01*
X117476942Y-83023908D01*
X117501624Y-83021646D01*
X117526415Y-83021718D01*
X117588080Y-83013725D01*
X118533634Y-82845552D01*
X118557580Y-82839165D01*
X118582030Y-82835058D01*
X118641466Y-82816790D01*
X119545167Y-82491706D01*
X119567700Y-82481373D01*
X119591103Y-82473207D01*
X119646612Y-82445186D01*
X119812201Y-82351558D01*
X119812200Y-85837270D01*
X113766200Y-85837270D01*
X113766200Y-82166874D01*
X114339320Y-82480844D01*
G37*
%TD.AperFunction*%
D10*
X123399970Y-85837270D02*
X121132200Y-85837270D01*
X121132200Y-81455158D01*
X121319187Y-81302737D01*
X121337009Y-81285505D01*
X121356370Y-81270030D01*
X121399420Y-81225162D01*
X122030949Y-80501612D01*
X122045615Y-80481621D01*
X122062090Y-80463107D01*
X122096964Y-80411627D01*
X122404561Y-79908000D01*
X123399970Y-79908000D01*
X123399970Y-85837270D01*
%TA.AperFunction,NonConductor*%
D11*
G36*
X123399970Y-85837270D02*
G01*
X121132200Y-85837270D01*
X121132200Y-81455158D01*
X121319187Y-81302737D01*
X121337009Y-81285505D01*
X121356370Y-81270030D01*
X121399420Y-81225162D01*
X122030949Y-80501612D01*
X122045615Y-80481621D01*
X122062090Y-80463107D01*
X122096964Y-80411627D01*
X122404561Y-79908000D01*
X123399970Y-79908000D01*
X123399970Y-85837270D01*
G37*
%TD.AperFunction*%
D10*
X119812201Y-80828163D02*
X119784174Y-80851009D01*
X119045663Y-81268582D01*
X118247352Y-81555755D01*
X117412075Y-81704314D01*
X116563705Y-81710014D01*
X115726501Y-81572691D01*
X114924404Y-81296271D01*
X114180351Y-80888659D01*
X113766200Y-80560231D01*
X113766200Y-73157270D01*
X119812201Y-73157270D01*
X119812201Y-80828163D01*
%TA.AperFunction,NonConductor*%
D11*
G36*
X119812201Y-80828163D02*
G01*
X119784174Y-80851009D01*
X119045663Y-81268582D01*
X118247352Y-81555755D01*
X117412075Y-81704314D01*
X116563705Y-81710014D01*
X115726501Y-81572691D01*
X114924404Y-81296271D01*
X114180351Y-80888659D01*
X113766200Y-80560231D01*
X113766200Y-73157270D01*
X119812201Y-73157270D01*
X119812201Y-80828163D01*
G37*
%TD.AperFunction*%
D10*
X123399969Y-78588000D02*
X122001881Y-78588000D01*
X121904917Y-78597550D01*
X121780507Y-78635290D01*
X121665850Y-78696575D01*
X121565352Y-78779052D01*
X121482875Y-78879550D01*
X121461170Y-78920158D01*
X121132200Y-79458779D01*
X121132200Y-73157270D01*
X123399969Y-73157270D01*
X123399969Y-78588000D01*
%TA.AperFunction,NonConductor*%
D11*
G36*
X123399969Y-78588000D02*
G01*
X122001881Y-78588000D01*
X121904917Y-78597550D01*
X121780507Y-78635290D01*
X121665850Y-78696575D01*
X121565352Y-78779052D01*
X121482875Y-78879550D01*
X121461170Y-78920158D01*
X121132200Y-79458779D01*
X121132200Y-73157270D01*
X123399969Y-73157270D01*
X123399969Y-78588000D01*
G37*
%TD.AperFunction*%
D10*
X112446200Y-78917857D02*
X112425725Y-78879550D01*
X112343248Y-78779052D01*
X112242750Y-78696575D01*
X112128093Y-78635290D01*
X112003683Y-78597550D01*
X111906719Y-78588000D01*
X110689969Y-78588000D01*
X110689969Y-73157270D01*
X112446200Y-73157270D01*
X112446200Y-78917857D01*
%TA.AperFunction,NonConductor*%
D11*
G36*
X112446200Y-78917857D02*
G01*
X112425725Y-78879550D01*
X112343248Y-78779052D01*
X112242750Y-78696575D01*
X112128093Y-78635290D01*
X112003683Y-78597550D01*
X111906719Y-78588000D01*
X110689969Y-78588000D01*
X110689969Y-73157270D01*
X112446200Y-73157270D01*
X112446200Y-78917857D01*
G37*
%TD.AperFunction*%
D10*
X119812201Y-71837270D02*
X113766200Y-71837270D01*
X113766200Y-51968000D01*
X119812201Y-51968000D01*
X119812201Y-71837270D01*
%TA.AperFunction,NonConductor*%
D11*
G36*
X119812201Y-71837270D02*
G01*
X113766200Y-71837270D01*
X113766200Y-51968000D01*
X119812201Y-51968000D01*
X119812201Y-71837270D01*
G37*
%TD.AperFunction*%
D10*
X89224890Y-46664641D02*
X89286468Y-46690148D01*
X89341887Y-46727177D01*
X89389017Y-46774307D01*
X89426046Y-46829726D01*
X89451553Y-46891304D01*
X89464556Y-46956675D01*
X89464556Y-47023327D01*
X89451553Y-47088698D01*
X89426046Y-47150276D01*
X89389017Y-47205695D01*
X89341887Y-47252825D01*
X89286468Y-47289854D01*
X89224890Y-47315361D01*
X89159519Y-47328364D01*
X89095407Y-47328364D01*
X89030036Y-47315361D01*
X88968458Y-47289854D01*
X88913039Y-47252825D01*
X88865909Y-47205695D01*
X88828880Y-47150276D01*
X88803373Y-47088698D01*
X88790370Y-47023327D01*
X88790370Y-46956675D01*
X88803373Y-46891304D01*
X88828880Y-46829726D01*
X88865909Y-46774307D01*
X88913039Y-46727177D01*
X88968458Y-46690148D01*
X89030036Y-46664641D01*
X89095407Y-46651638D01*
X89159519Y-46651638D01*
X89224890Y-46664641D01*
%TA.AperFunction,NonConductor*%
D11*
G36*
X89224890Y-46664641D02*
G01*
X89286468Y-46690148D01*
X89341887Y-46727177D01*
X89389017Y-46774307D01*
X89426046Y-46829726D01*
X89451553Y-46891304D01*
X89464556Y-46956675D01*
X89464556Y-47023327D01*
X89451553Y-47088698D01*
X89426046Y-47150276D01*
X89389017Y-47205695D01*
X89341887Y-47252825D01*
X89286468Y-47289854D01*
X89224890Y-47315361D01*
X89159519Y-47328364D01*
X89095407Y-47328364D01*
X89030036Y-47315361D01*
X88968458Y-47289854D01*
X88913039Y-47252825D01*
X88865909Y-47205695D01*
X88828880Y-47150276D01*
X88803373Y-47088698D01*
X88790370Y-47023327D01*
X88790370Y-46956675D01*
X88803373Y-46891304D01*
X88828880Y-46829726D01*
X88865909Y-46774307D01*
X88913039Y-46727177D01*
X88968458Y-46690148D01*
X89030036Y-46664641D01*
X89095407Y-46651638D01*
X89159519Y-46651638D01*
X89224890Y-46664641D01*
G37*
%TD.AperFunction*%
D10*
X145725497Y-46664640D02*
X145787075Y-46690147D01*
X145842494Y-46727176D01*
X145889624Y-46774306D01*
X145926653Y-46829725D01*
X145952160Y-46891303D01*
X145965163Y-46956674D01*
X145965163Y-47023326D01*
X145952160Y-47088697D01*
X145926653Y-47150275D01*
X145889624Y-47205694D01*
X145842494Y-47252824D01*
X145787075Y-47289853D01*
X145725497Y-47315360D01*
X145660126Y-47328363D01*
X145594900Y-47328363D01*
X145529529Y-47315360D01*
X145467951Y-47289853D01*
X145412532Y-47252824D01*
X145365402Y-47205694D01*
X145328373Y-47150275D01*
X145302866Y-47088697D01*
X145289863Y-47023326D01*
X145289863Y-46956674D01*
X145302866Y-46891303D01*
X145328373Y-46829725D01*
X145365402Y-46774306D01*
X145412532Y-46727176D01*
X145467951Y-46690147D01*
X145529529Y-46664640D01*
X145594900Y-46651637D01*
X145660126Y-46651637D01*
X145725497Y-46664640D01*
%TA.AperFunction,NonConductor*%
D11*
G36*
X145725497Y-46664640D02*
G01*
X145787075Y-46690147D01*
X145842494Y-46727176D01*
X145889624Y-46774306D01*
X145926653Y-46829725D01*
X145952160Y-46891303D01*
X145965163Y-46956674D01*
X145965163Y-47023326D01*
X145952160Y-47088697D01*
X145926653Y-47150275D01*
X145889624Y-47205694D01*
X145842494Y-47252824D01*
X145787075Y-47289853D01*
X145725497Y-47315360D01*
X145660126Y-47328363D01*
X145594900Y-47328363D01*
X145529529Y-47315360D01*
X145467951Y-47289853D01*
X145412532Y-47252824D01*
X145365402Y-47205694D01*
X145328373Y-47150275D01*
X145302866Y-47088697D01*
X145289863Y-47023326D01*
X145289863Y-46956674D01*
X145302866Y-46891303D01*
X145328373Y-46829725D01*
X145365402Y-46774306D01*
X145412532Y-46727176D01*
X145467951Y-46690147D01*
X145529529Y-46664640D01*
X145594900Y-46651637D01*
X145660126Y-46651637D01*
X145725497Y-46664640D01*
G37*
%TD.AperFunction*%
D10*
X202079497Y-46664640D02*
X202141075Y-46690147D01*
X202196494Y-46727176D01*
X202243624Y-46774306D01*
X202280653Y-46829725D01*
X202306160Y-46891303D01*
X202319163Y-46956674D01*
X202319163Y-47023326D01*
X202306160Y-47088697D01*
X202280653Y-47150275D01*
X202243624Y-47205694D01*
X202196494Y-47252824D01*
X202141075Y-47289853D01*
X202079497Y-47315360D01*
X202014126Y-47328363D01*
X201947474Y-47328363D01*
X201882103Y-47315360D01*
X201820525Y-47289853D01*
X201765106Y-47252824D01*
X201717976Y-47205694D01*
X201680947Y-47150275D01*
X201655440Y-47088697D01*
X201642437Y-47023326D01*
X201642437Y-46956674D01*
X201655440Y-46891303D01*
X201680947Y-46829725D01*
X201717976Y-46774306D01*
X201765106Y-46727176D01*
X201820525Y-46690147D01*
X201882103Y-46664640D01*
X201947474Y-46651637D01*
X202014126Y-46651637D01*
X202079497Y-46664640D01*
%TA.AperFunction,NonConductor*%
D11*
G36*
X202079497Y-46664640D02*
G01*
X202141075Y-46690147D01*
X202196494Y-46727176D01*
X202243624Y-46774306D01*
X202280653Y-46829725D01*
X202306160Y-46891303D01*
X202319163Y-46956674D01*
X202319163Y-47023326D01*
X202306160Y-47088697D01*
X202280653Y-47150275D01*
X202243624Y-47205694D01*
X202196494Y-47252824D01*
X202141075Y-47289853D01*
X202079497Y-47315360D01*
X202014126Y-47328363D01*
X201947474Y-47328363D01*
X201882103Y-47315360D01*
X201820525Y-47289853D01*
X201765106Y-47252824D01*
X201717976Y-47205694D01*
X201680947Y-47150275D01*
X201655440Y-47088697D01*
X201642437Y-47023326D01*
X201642437Y-46956674D01*
X201655440Y-46891303D01*
X201680947Y-46829725D01*
X201717976Y-46774306D01*
X201765106Y-46727176D01*
X201820525Y-46690147D01*
X201882103Y-46664640D01*
X201947474Y-46651637D01*
X202014126Y-46651637D01*
X202079497Y-46664640D01*
G37*
%TD.AperFunction*%
D10*
X99924000Y-45373700D02*
X99924000Y-46076000D01*
X95148000Y-46076000D01*
X95148000Y-45369498D01*
X99924000Y-45373700D01*
%TA.AperFunction,NonConductor*%
D11*
G36*
X99924000Y-45373700D02*
G01*
X99924000Y-46076000D01*
X95148000Y-46076000D01*
X95148000Y-45369498D01*
X99924000Y-45373700D01*
G37*
%TD.AperFunction*%
M02*
